<svg xmlns="http://www.w3.org/2000/svg" enable-background="new 0 0 24 24" viewBox="0 0 24 24"><path fill="#6563ff" d="M7.5,7v10c0,0.276123,0.223877,0.5,0.5,0.5s0.5-0.223877,0.5-0.5V7c0-0.276123-0.223877-0.5-0.5-0.5S7.5,6.723877,7.5,7z M17.5,4.5h2v2C19.5,6.776123,19.723877,7,20,7s0.5-0.223877,0.5-0.5v-2h2C22.776123,4.5,23,4.276123,23,4s-0.223877-0.5-0.5-0.5h-2v-2C20.5,1.223877,20.276123,1,20,1s-0.5,0.223877-0.5,0.5v2h-2C17.223877,3.5,17,3.723877,17,4S17.223877,4.5,17.5,4.5z M11.5,6.9993896c0,0.0002441,0,0.0004272,0,0.0006104v2c0,0.276123,0.223877,0.5,0.5,0.5s0.5-0.223877,0.5-0.5V7.5h3.8896484l-1.8798828,9.4023438c-0.0544434,0.2700195,0.1203613,0.53302,0.3903809,0.5874634c0.0007324,0.0001221,0.0014648,0.0003052,0.0021973,0.0004272c0.0324707,0.0066528,0.0654907,0.0099487,0.0986328,0.0097656c0.2381592-0.0003662,0.4429321-0.1687622,0.4892578-0.4023438l2-10c0.0543213-0.2703857-0.1207886-0.5335693-0.3911743-0.5878906C17.0664673,6.5032349,17.0332642,6.499939,17,6.5h-5C11.723999,6.4998169,11.5001831,6.7234497,11.5,6.9993896z M22.6728516,9.3808594c-0.0639648-0.2669067-0.3322144-0.4314575-0.5991211-0.3675537c-0.00177,0.0004272-0.0036011,0.0009155-0.0053711,0.0013428c-0.2677002,0.0652466-0.4318237,0.3352051-0.3665771,0.6029053c0.0001221,0.0005493,0.0002441,0.0010376,0.0003662,0.0015869c1.3413696,5.3848267-1.9364624,10.8375244-7.3212891,12.178894c-5.3848267,1.3414307-10.8375244-1.9364014-12.178894-7.3212891C0.8605347,9.0919189,4.1383667,3.6392212,9.5232544,2.2978516c1.5947876-0.3972778,3.2627563-0.3972778,4.857605,0c0.2681885,0.0652466,0.5385132-0.0992432,0.6037598-0.3674316c0.0650635-0.2674561-0.0983276-0.5371094-0.3654785-0.6032715C8.6969604-0.1470947,2.7009277,3.4586792,1.2266235,9.3808594c-1.4742432,5.9221802,2.1315308,11.9182129,8.0537109,13.3925171c5.9222412,1.4742432,11.9182739-2.1315308,13.3925171-8.0537109C23.1091919,12.9667969,23.1091919,11.133728,22.6728516,9.3808594z"/></svg>