<svg xmlns="http://www.w3.org/2000/svg" enable-background="new 0 0 24 24" viewBox="0 0 24 24"><path fill="#6563ff" d="M22.6728516,9.3808594c-0.0628052-0.2662354-0.3295288-0.4311523-0.5957642-0.3683472c-0.0029297,0.0006714-0.0057983,0.0014038-0.008728,0.0021362c-0.2677002,0.0652466-0.4318237,0.3352051-0.3665771,0.6029053c0.0001221,0.0005493,0.0002441,0.0010376,0.0003662,0.0015869c1.3413696,5.3848267-1.9364624,10.8375244-7.3212891,12.178894c-5.3848267,1.3414307-10.8375244-1.9364014-12.178894-7.3212891C0.8605347,9.0919189,4.1383667,3.6392212,9.5232544,2.2978516c1.5947876-0.3972778,3.2627563-0.3972778,4.857605,0c0.2686157,0.0645752,0.5387573-0.1008301,0.6032715-0.3694458c0.064209-0.2669067-0.0986938-0.5356445-0.3649902-0.6022339C8.6962891-0.1489258,2.6990967,3.4567261,1.223999,9.3795776s2.1304932,11.9200439,8.0533447,13.3951416s11.920105-2.1305542,13.3952026-8.0534058C23.1091919,12.9679565,23.109314,11.1342773,22.6728516,9.3808594z M17.5,4.5h2v2C19.5,6.776123,19.723877,7,20,7s0.5-0.223877,0.5-0.5v-2h2C22.776123,4.5,23,4.276123,23,4s-0.223877-0.5-0.5-0.5h-2v-2C20.5,1.223877,20.276123,1,20,1s-0.5,0.223877-0.5,0.5v2h-2C17.223877,3.5,17,3.723877,17,4S17.223877,4.5,17.5,4.5z M11.5,8.9399414v1c0.0020752,0.789978,0.3788452,1.5321045,1.0153198,2C11.8787842,12.40802,11.5020142,13.1503296,11.5,13.9404297v1c0.0012817,1.380188,1.119812,2.4987183,2.5,2.5h1c1.380188-0.0012817,2.4987183-1.119812,2.5-2.5v-1c-0.0020142-0.7901001-0.3787842-1.5324097-1.0153198-2.0004883c0.6364746-0.4678955,1.0132446-1.210022,1.0153198-2v-1c-0.0014648-1.380127-1.119873-2.4985352-2.5-2.5h-1C12.619873,6.4414062,11.5014648,7.5598145,11.5,8.9399414z M16.5,13.9404297v1c-0.0009155,0.828064-0.671936,1.4990845-1.5,1.5h-1c-0.828064-0.0009155-1.4990845-0.671936-1.5-1.5v-1c0.0008545-0.828125,0.671875-1.4993286,1.5-1.5004883h1C15.828125,12.4411011,16.4991455,13.1123047,16.5,13.9404297z M16.5,8.9399414v1c-0.0009155,0.828064-0.671936,1.4990845-1.5,1.5h-1c-0.828064-0.0009155-1.4990845-0.671936-1.5-1.5v-1c0.0009155-0.828064,0.671936-1.4990845,1.5-1.5h1C15.828064,7.4408569,16.4990845,8.1118774,16.5,8.9399414z M7.5,6.9399414v10.0004883c0,0.276123,0.223877,0.5,0.5,0.5s0.5-0.223877,0.5-0.5V6.9399414c0-0.276123-0.223877-0.5-0.5-0.5S7.5,6.6638184,7.5,6.9399414z"/></svg>