<svg xmlns="http://www.w3.org/2000/svg" enable-background="new 0 0 24 24" viewBox="0 0 24 24"><path fill="#6563ff" d="M17.5,4.5h2v2C19.5,6.776123,19.723877,7,20,7s0.5-0.223877,0.5-0.5v-2h2C22.776123,4.5,23,4.276123,23,4s-0.223877-0.5-0.5-0.5h-2v-2C20.5,1.223877,20.276123,1,20,1s-0.5,0.223877-0.5,0.5v2h-2C17.223877,3.5,17,3.723877,17,4S17.223877,4.5,17.5,4.5z M10,12.5h1c1.380188-0.0012817,2.4987183-1.119812,2.5-2.5V9c-0.0012817-1.380188-1.119812-2.4987183-2.5-2.5h-1C8.619812,6.5012817,7.5012817,7.619812,7.5,9c0,0.276123,0.223877,0.5,0.5,0.5S8.5,9.276123,8.5,9C8.5009155,8.171936,9.171936,7.5009155,10,7.5h1c0.828064,0.0009155,1.4990845,0.671936,1.5,1.5v1c-0.0009155,0.828064-0.671936,1.4990845-1.5,1.5h-1c-1.380188,0.0012817-2.4987183,1.119812-2.5,2.5v3c-0.0001831,0.276001,0.2234497,0.4998169,0.4993896,0.5c0.0002441,0,0.0004272,0,0.0006104,0h5c0.276123,0,0.5-0.223877,0.5-0.5s-0.223877-0.5-0.5-0.5H8.5V14C8.5009155,13.171936,9.171936,12.5009155,10,12.5z M16.9994507,17.5c0.0001831,0,0.0003662,0,0.0005493,0c0.276001,0.0001831,0.4998169-0.2234497,0.5-0.4994507c0-0.0001831,0-0.0003662,0-0.0005493V7c0-0.276123-0.223877-0.5-0.5-0.5S16.5,6.723877,16.5,7v10C16.4998169,17.276001,16.7234497,17.4998169,16.9994507,17.5z M22.6728516,9.3808594c-0.0648193-0.2674561-0.3342285-0.4317627-0.6016846-0.3668823c-0.0009766,0.0002441-0.0018921,0.0004272-0.0028076,0.0006714c-0.2677002,0.0652466-0.4318237,0.3352051-0.3665771,0.6029053c0.0001221,0.0005493,0.0002441,0.0010376,0.0003662,0.0015869c1.3413696,5.3848267-1.9364624,10.8375244-7.3212891,12.178894c-5.3848267,1.3414307-10.8375244-1.9364014-12.178894-7.3212891C0.8605347,9.0919189,4.1383667,3.6392212,9.5232544,2.2978516c1.5947876-0.3972778,3.2627563-0.3972778,4.857605,0c0.2681885,0.0652466,0.5385132-0.0992432,0.6037598-0.3674316c0.0650635-0.2674561-0.0983276-0.5371094-0.3654785-0.6032715C8.6969604-0.1470947,2.7009277,3.4586792,1.2266235,9.3808594c-1.4742432,5.9221802,2.1315308,11.9182129,8.0537109,13.3925171c5.9222412,1.4742432,11.9182739-2.1315308,13.3925171-8.0537109C23.1091919,12.9667969,23.1091919,11.133728,22.6728516,9.3808594z"/></svg>