<svg xmlns="http://www.w3.org/2000/svg" enable-background="new 0 0 24 24" viewBox="0 0 24 24"><path fill="#6563ff" d="M17.5,4.5h2v2C19.5,6.776123,19.723877,7,20,7s0.5-0.223877,0.5-0.5v-2h2C22.776123,4.5,23,4.276123,23,4s-0.223877-0.5-0.5-0.5h-2v-2C20.5,1.223877,20.276123,1,20,1s-0.5,0.223877-0.5,0.5v2h-2C17.223877,3.5,17,3.723877,17,4S17.223877,4.5,17.5,4.5z M22.6728516,9.3808594c-0.0645752-0.2672729-0.3335571-0.4316406-0.6008301-0.3671265c-0.0012207,0.0003052-0.0024414,0.0006104-0.0036621,0.0009155c-0.2677002,0.0652466-0.4318237,0.3352051-0.3665771,0.6029053c0.0001221,0.0005493,0.0002441,0.0010376,0.0003662,0.0015869c1.3413696,5.3848267-1.9364624,10.8375244-7.3212891,12.178894c-5.3848267,1.3414307-10.8375244-1.9364014-12.178894-7.3212891C0.8605347,9.0919189,4.1383667,3.6392212,9.5232544,2.2978516c1.5947876-0.3972778,3.2627563-0.3972778,4.857605,0c0.2681885,0.0652466,0.5385132-0.0992432,0.6037598-0.3674316c0.0650635-0.2674561-0.0983276-0.5371094-0.3654785-0.6032715C8.6969604-0.1470947,2.7009277,3.4586792,1.2266235,9.3808594c-1.4742432,5.9221802,2.1315308,11.9182129,8.0537109,13.3925171c5.9222412,1.4742432,11.9182739-2.1315308,13.3925171-8.0537109C23.1091919,12.9667969,23.1091919,11.133728,22.6728516,9.3808594z M15,10V9c-0.0012817-1.380188-1.119812-2.4987183-2.5-2.5h-1C10.119812,6.5012817,9.0012817,7.619812,9,9c0,0.276123,0.223877,0.5,0.5,0.5S10,9.276123,10,9c0.0009155-0.828064,0.671936-1.4990845,1.5-1.5h1C13.328064,7.5009155,13.9990845,8.171936,14,9v1c-0.0009155,0.828064-0.671936,1.4990845-1.5,1.5H12c-0.276123,0-0.5,0.223877-0.5,0.5s0.223877,0.5,0.5,0.5h0.5c0.828064,0.0009155,1.4990845,0.671936,1.5,1.5v1c-0.0009155,0.828064-0.671936,1.4990845-1.5,1.5h-1c-0.828064-0.0009155-1.4990845-0.671936-1.5-1.5c0-0.276123-0.223877-0.5-0.5-0.5S9,14.723877,9,15c0.0012817,1.380188,1.119812,2.4987183,2.5,2.5h1c1.380188-0.0012817,2.4987183-1.119812,2.5-2.5v-1c-0.0020142-0.789917-0.3786621-1.5320435-1.0150757-2C14.6213379,11.5320435,14.9979858,10.789917,15,10z"/></svg>