<svg xmlns="http://www.w3.org/2000/svg" enable-background="new 0 0 24 24" viewBox="0 0 24 24"><path fill="#6563ff" d="M21.5,2C21.223877,2,21,2.223877,21,2.5V7h-6V5.5C15,5.223877,14.776123,5,14.5,5S14,5.223877,14,5.5V7h-3V5.5C11,5.223877,10.776123,5,10.5,5S10,5.223877,10,5.5V7H7V5.5C7,5.223877,6.776123,5,6.5,5S6,5.223877,6,5.5V7H3V2.5C3,2.223877,2.776123,2,2.5,2S2,2.223877,2,2.5v17c0.0012817,1.380188,1.119812,2.4987183,2.5,2.5h15c1.380188-0.0012817,2.4987183-1.119812,2.5-2.5v-17C22,2.223877,21.776123,2,21.5,2z M21,19.5c-0.0009155,0.828064-0.671936,1.4990845-1.5,1.5h-15c-0.828064-0.0009155-1.4990845-0.671936-1.5-1.5V16h3v1.5c0,0.0001831,0,0.0003662,0,0.0005493C6.0001831,17.7765503,6.223999,18.0001831,6.5,18c0.0001831,0,0.0003662,0,0.0006104,0C6.7765503,17.9998169,7.0001831,17.776001,7,17.5V16h3v1.5c0,0.0001831,0,0.0003662,0,0.0005493C10.0001831,17.7765503,10.223999,18.0001831,10.5,18c0.0001831,0,0.0003662,0,0.0006104,0C10.7765503,17.9998169,11.0001831,17.776001,11,17.5V16h5v1.5c0,0.0001831,0,0.0003662,0,0.0005493C16.0001831,17.7765503,16.223999,18.0001831,16.5,18c0.0001831,0,0.0003662,0,0.0006104,0C16.7765503,17.9998169,17.0001831,17.776001,17,17.5V16h4V19.5z M21,15h-4v-1.5c0-0.276123-0.223877-0.5-0.5-0.5S16,13.223877,16,13.5V15h-5v-1.5c0-0.276123-0.223877-0.5-0.5-0.5S10,13.223877,10,13.5V15H7v-1.5C7,13.223877,6.776123,13,6.5,13S6,13.223877,6,13.5V15H3V8h3v1.5c0,0.0001831,0,0.0003662,0,0.0005493C6.0001831,9.7765503,6.223999,10.0001831,6.5,10c0.0001831,0,0.0003662,0,0.0006104,0C6.7765503,9.9998169,7.0001831,9.776001,7,9.5V8h3v1.5c0,0.0001831,0,0.0003662,0,0.0005493C10.0001831,9.7765503,10.223999,10.0001831,10.5,10c0.0001831,0,0.0003662,0,0.0006104,0C10.7765503,9.9998169,11.0001831,9.776001,11,9.5V8h3v1.5c0,0.0001831,0,0.0003662,0,0.0005493C14.0001831,9.7765503,14.223999,10.0001831,14.5,10c0.0001831,0,0.0003662,0,0.0006104,0C14.7765503,9.9998169,15.0001831,9.776001,15,9.5V8h6V15z"/></svg>