<svg xmlns="http://www.w3.org/2000/svg" enable-background="new 0 0 24 24" viewBox="0 0 24 24"><path fill="#6563ff" d="M19.5,21H18v-5.5006104C17.9998169,15.2234497,17.776001,14.9998169,17.5,15h-5.2865601l1.9359741-5.3291016c0.0003052-0.0007935,0.0005493-0.0015869,0.0008545-0.0023804c0.0066528-0.0184326,0.0039062-0.0371704,0.0083008-0.0557861c0.0074463-0.0317993,0.0128784-0.0621948,0.0139771-0.0942993c0.0013428-0.034729-0.0012207-0.0673218-0.006958-0.1010132C14.1607056,9.388916,14.15448,9.3623047,14.1448364,9.335083c-0.0120239-0.0341797-0.0275269-0.0649414-0.0466309-0.0957031c-0.0143433-0.0231934-0.0293579-0.0443726-0.0475464-0.0651245c-0.0252686-0.0289307-0.0536499-0.0528564-0.0855713-0.0756226c-0.0130615-0.0093384-0.0211792-0.0230713-0.0353394-0.03125L9.460022,6.4873047C9.4516602,6.4824829,9.4421997,6.4827271,9.4337158,6.4784546c-0.0319214-0.0162354-0.06604-0.0250854-0.1014404-0.0341797C9.3018188,6.4365234,9.272644,6.4279785,9.2418213,6.4260864C9.2307129,6.425354,9.2211914,6.4196777,9.2098999,6.4196777c-0.0151978-0.000061-0.0282593,0.0103149-0.043335,0.0116577c-0.0574951,0.005188-0.1112061,0.0195312-0.1636353,0.0438843C8.9889526,6.4816895,8.97229,6.4793091,8.9589233,6.4870605L6.2293701,8.0671387C5.9904785,8.2057495,5.9091797,8.5118408,6.0477905,8.7507324C6.1864014,8.9896851,6.4924927,9.0709839,6.7313843,8.932373l2.479248-1.4351807l3.8562012,2.2259521l-2.0365601,5.605957c-0.0193481,0.0532227-0.0287476,0.109375-0.0292969,0.1659546C11.0009766,15.4968262,11,15.49823,11,15.5c0,0.276123,0.223877,0.5,0.5,0.5H17v5.5005493C17.0001831,21.7765503,17.223999,22.0001831,17.5,22h2c0.276123,0,0.5-0.223877,0.5-0.5S19.776123,21,19.5,21z M14.6229858,18.0574951c-0.2454224-0.1266479-0.5470581-0.0304565-0.6737671,0.2149658C13.0944214,19.9478149,11.3717651,21.001709,9.4909668,21c-2.7614746-0.0025024-4.9979858-2.243103-4.9954834-5.0045166S6.7385864,10.9974976,9.5,11c0.276123,0,0.5-0.223877,0.5-0.5S9.776123,10,9.5,10c-3.3137207,0-6,2.6862793-6,6s2.6862793,6,6,6c2.2547607,0.0039062,4.3197632-1.2615967,5.3398438-3.2724609C14.9637451,18.4825439,14.8669434,18.1834717,14.6229858,18.0574951z M16,8c1.1040039-0.0014038,1.9985962-0.8959961,2-2c0-1.1045532-0.8954468-2-2-2s-2,0.8954468-2,2S14.8954468,8,16,8z M16,5c0.552124,0.0003662,0.9996338,0.447876,1,1c0,0.5523071-0.4476929,1-1,1s-1-0.4476929-1-1S15.4476929,5,16,5z"/></svg>