<svg xmlns="http://www.w3.org/2000/svg" enable-background="new 0 0 24 24" viewBox="0 0 24 24"><path fill="#6563ff" d="M12,2C6.4771729,2,2,6.4771729,2,12s4.4771729,10,10,10c5.5201416-0.0064697,9.9935303-4.4798584,10-10C22,6.4771729,17.5228271,2,12,2z M19.6196289,7.2331543L12.5,19.5643921v-6.579895l4.7680664-8.2659912C18.2045898,5.3977051,19.0031738,6.2507324,19.6196289,7.2331543z M12.5,10.9810791V3.0335693c1.4208984,0.0810547,2.7566528,0.4760132,3.9267578,1.1400146L12.5,10.9810791z M3,12c0-4.8017578,3.7634277-8.7138062,8.5-8.9747925v17.9434204C6.7640991,20.7071533,3,16.8012085,3,12z M12.8497925,20.9570923l7.3278809-12.6918335C20.6994019,9.4039307,20.9985352,10.6658325,21,12C21,16.6837158,17.4213867,20.5285034,12.8497925,20.9570923z"/></svg>