<svg xmlns="http://www.w3.org/2000/svg" enable-background="new 0 0 24 24" viewBox="0 0 24 24"><path fill="#6563ff" d="M12,2c-0.0001831,0-0.0003662,0-0.0005493,0C11.7234497,2.0001831,11.4998169,2.223999,11.5,2.5v19c0,0.0001831,0,0.0003662,0,0.0005493C11.5001831,21.7765503,11.723999,22.0001831,12,22c5.5228271,0,10-4.4771729,10-10S17.5228271,2,12,2z M12.5,3.0136719c1.4248657,0.0792847,2.7599487,0.4886475,3.9312744,1.1521606L12.5,10.9811401V3.0136719z M12.5,12.9844971l4.7716064-8.2721558c0.9370728,0.6787109,1.7340698,1.5339966,2.3502808,2.5169067L12.5,19.5643921V12.9844971z M12.8547363,20.9485474l7.3291626-12.6941528c0.456665,0.9968872,0.7380371,2.0915527,0.8022461,3.2454224C21.2556763,16.3427124,17.6409912,20.4933472,12.8547363,20.9485474z"/></svg>