<svg xmlns="http://www.w3.org/2000/svg" enable-background="new 0 0 24 24" viewBox="0 0 24 24"><path fill="#6563ff" d="M10.5,10H9V8.5C9,8.223877,8.776123,8,8.5,8S8,8.223877,8,8.5V10H6.5C6.223877,10,6,10.223877,6,10.5S6.223877,11,6.5,11H8v1.5005493C8.0001831,12.7765503,8.223999,13.0001831,8.5,13h0.0006104C8.7765503,12.9998169,9.0001831,12.776001,9,12.5V11h1.5c0.276123,0,0.5-0.223877,0.5-0.5S10.776123,10,10.5,10z M22.9003906,11.2001953L20.5,8c-0.4733887-0.6280518-1.213562-0.9981079-2-1H16V5.5c-0.0012817-1.380188-1.119812-2.4987183-2.5-2.5h-10C2.119812,3.0012817,1.0012817,4.119812,1,5.5v12.0005493C1.0001831,17.7765503,1.223999,18.0001831,1.5,18H3c0,1.6568604,1.3431396,3,3,3c1.6561279-0.0018311,2.9981689-1.3438721,3-3h6c0,1.6568604,1.3431396,3,3,3c1.6561279-0.0018311,2.9981689-1.3438721,3-3h1.5006104C22.7765503,17.9998169,23.0001831,17.776001,23,17.5v-6C23.000061,11.3919067,22.9650879,11.2867432,22.9003906,11.2001953z M6,20c-1.1045532,0-2-0.8954468-2-2s0.8954468-2,2-2c1.1040039,0.0014038,1.9985962,0.8959961,2,2C8,19.1045532,7.1045532,20,6,20z M15,17H8.8162842C8.4030151,15.8374634,7.3043213,15,6,15s-2.4030151,0.8374634-2.8162842,2H2V5.5C2.0009155,4.671936,2.671936,4.0009155,3.5,4h10c0.828064,0.0009155,1.4990845,0.671936,1.5,1.5V17z M18,20c-1.1045532,0-2-0.8954468-2-2s0.8954468-2,2-2c1.1040039,0.0014038,1.9985962,0.8959961,2,2C20,19.1045532,19.1045532,20,18,20z M22,17h-1.1837158C20.4030151,15.8374634,19.3043213,15,18,15c-0.7718506,0-1.4683838,0.2996826-2,0.7785645V13h6V17z M22,12h-6V8h2.5c0.4715576,0.0011597,0.9153442,0.2230835,1.1992188,0.5996094L22,11.6669922V12z"/></svg>