<svg xmlns="http://www.w3.org/2000/svg" enable-background="new 0 0 24 24" viewBox="0 0 24 24"><path fill="#6563ff" d="M9.5,2C9.223877,2,9,2.223877,9,2.5v19c0,0.0001831,0,0.0003662,0,0.0005493C9.0001831,21.7765503,9.223999,22.0001831,9.5,22c0.0001831,0,0.0003662,0,0.0006104,0C9.7765503,21.9998169,10.0001831,21.776001,10,21.5v-19C10,2.223877,9.776123,2,9.5,2z M4.5,12C4.223877,12,4,12.223877,4,12.5v9c0,0.0001831,0,0.0003662,0,0.0005493C4.0001831,21.7765503,4.223999,22.0001831,4.5,22c0.0001831,0,0.0003662,0,0.0006104,0C4.7765503,21.9998169,5.0001831,21.776001,5,21.5v-9C5,12.223877,4.776123,12,4.5,12z M19.5,16c-0.276123,0-0.5,0.223877-0.5,0.5v5c0,0.0001831,0,0.0003662,0,0.0005493C19.0001831,21.7765503,19.223999,22.0001831,19.5,22c0.0001831,0,0.0003662,0,0.0006104,0C19.7765503,21.9998169,20.0001831,21.776001,20,21.5v-5C20,16.223877,19.776123,16,19.5,16z M14.5,8C14.223877,8,14,8.223877,14,8.5v13c0,0.0001831,0,0.0003662,0,0.0005493C14.0001831,21.7765503,14.223999,22.0001831,14.5,22c0.0001831,0,0.0003662,0,0.0006104,0C14.7765503,21.9998169,15.0001831,21.776001,15,21.5v-13C15,8.223877,14.776123,8,14.5,8z"/></svg>