<svg xmlns="http://www.w3.org/2000/svg" enable-background="new 0 0 24 24" viewBox="0 0 24 24"><path fill="#6563ff" d="M21.8534546,7.1587524c-0.1918335-0.1986084-0.5083618-0.2041016-0.7069702-0.0122681L14,14.2930298L9.3534546,9.6464844c0-0.000061-0.000061-0.0001221-0.0001221-0.0001221C9.1581421,9.4511719,8.8416138,9.4512329,8.6464844,9.6464844l-6.5,6.5c-0.09375,0.09375-0.1464233,0.2208862-0.1464233,0.3534546C2,16.776062,2.223877,16.999939,2.5,17c0.1326294,0.0001831,0.2598877-0.0525513,0.3535156-0.1464844L9,10.7069702l4.6464844,4.6465454c0.000061,0.000061,0.000061,0.000061,0.0001221,0.0001221c0.1952515,0.1951904,0.5117188,0.1951294,0.7068481-0.0001221l7.5-7.5C22.0406494,7.659729,22.0406494,7.3525391,21.8534546,7.1587524z"/></svg>