<svg xmlns="http://www.w3.org/2000/svg" enable-background="new 0 0 24 24" viewBox="0 0 24 24"><path fill="#6563ff" d="M7.2,3.2C7.4,3.1,7.7,3,8,3h8c1.1,0,2,0.9,2,2v9.3c0,0,0,0,0,0c0,0.3,0.2,0.5,0.5,0.5c0,0,0,0,0,0c0.3,0,0.5-0.2,0.5-0.5V5c0-1.7-1.3-3-3-3H8C7.6,2,7.2,2.1,6.8,2.2C6.6,2.3,6.5,2.5,6.5,2.7c0,0.1,0,0.1,0,0.2C6.6,3.2,6.9,3.3,7.2,3.2z M12,18.5c0.8,0,1.5-0.7,1.5-1.5c0-0.8-0.7-1.5-1.5-1.5s-1.5,0.7-1.5,1.5S11.2,18.5,12,18.5z M12,16.5c0.3,0,0.5,0.2,0.5,0.5c0,0.3-0.2,0.5-0.5,0.5s-0.5-0.2-0.5-0.5S11.7,16.5,12,16.5z M21.9,21.1l-3-3c0,0,0,0,0,0l-13-13c0,0,0,0,0,0l-3-3C2.7,2,2.4,2,2.2,2.1C2,2.3,2,2.7,2.1,2.9L5,5.7V19c0,1.7,1.3,3,3,3h8c1.4,0,2.6-1,2.9-2.4l2.2,2.2c0.1,0.1,0.2,0.1,0.4,0.1c0.1,0,0.3-0.1,0.4-0.1C22,21.7,22,21.3,21.9,21.1z M18,19c0,1.1-0.9,2-2,2H8c-1.1,0-2-0.9-2-2V6.7l12,12V19z"/></svg>