<svg xmlns="http://www.w3.org/2000/svg" enable-background="new 0 0 24 24" viewBox="0 0 24 24"><path fill="#6563ff" d="M12.3535156,12.6465454c-0.000061-0.000061-0.000061-0.0001221-0.0001221-0.0001831c-0.1952515-0.1951294-0.5117188-0.1950684-0.7068481,0.0001831l-3.5,3.5c-0.1871948,0.1937256-0.1871948,0.5009155,0,0.6947021c0.1918335,0.1986084,0.5083618,0.2041016,0.7069702,0.0122681L12,13.7069702l3.1464844,3.1465454C15.2401123,16.9474487,15.3673706,17.0001831,15.5,17c0.1325073,0,0.2596436-0.0526733,0.3533936-0.1463623c0.1953125-0.1952515,0.1953735-0.5118408,0.0001221-0.7070923L12.3535156,12.6465454z M8.8535156,10.8535156L12,7.7069702l3.1464844,3.1465454C15.2401123,10.9474487,15.3673706,11.0001831,15.5,11c0.1325073,0,0.2596436-0.0526733,0.3533936-0.1463623c0.1953125-0.1952515,0.1953735-0.5118408,0.0001221-0.7070923l-3.5-3.5c-0.000061-0.000061-0.000061-0.0001221-0.0001221-0.0001831c-0.1952515-0.1951294-0.5117188-0.1950684-0.7068481,0.0001831l-3.5,3.5c-0.1871338,0.1937256-0.1871338,0.5009155,0,0.6947021C8.3383789,11.039856,8.6549072,11.0453491,8.8535156,10.8535156z"/></svg>