<svg xmlns="http://www.w3.org/2000/svg" enable-background="new 0 0 24 24" viewBox="0 0 24 24"><path fill="#6563ff" d="M12,2.0136719c-5.5228271,0-10,4.4771729-10,10s4.4771729,10,10,10s10-4.4771729,10-10C21.9935303,6.4935303,17.5201416,2.0201416,12,2.0136719z M12,21.0136719c-4.9705811,0-9-4.0294189-9-9s4.0294189-9,9-9s9,4.0294189,9,9C20.9945679,16.9819946,16.9683228,21.0082397,12,21.0136719z M10,10.4541016c0.276123,0.000061,0.500061-0.2237549,0.5001221-0.4998779c0.000061-0.1894531-0.1069946-0.3626709-0.2764893-0.4473877l-2-1c-0.246582-0.1244507-0.5473022-0.0254517-0.6717529,0.2211304c-0.1244507,0.246521-0.0254517,0.5473022,0.2211304,0.6716919c0.0010986,0.0006104,0.0022583,0.0011597,0.0033569,0.001709l2,1C9.8457642,10.4361572,9.9223633,10.4542236,10,10.4541016z M8.6787109,15.6630859c-0.2114258,0.1774292-0.2389526,0.4926758-0.0615234,0.7041016s0.4926758,0.2389526,0.7041016,0.0615234c1.5650024-1.2558594,3.7924194-1.2558594,5.3574219,0c0.2114258,0.1774292,0.5266724,0.1499023,0.7041016-0.0615234s0.1499023-0.5266724-0.0615234-0.7041016C13.3813477,14.1044922,10.6186523,14.1044922,8.6787109,15.6630859z M15.7797241,8.505127c-0.0010986,0.0006104-0.0022583,0.0011597-0.0033569,0.001709l-2,1c-0.246521,0.1244507-0.34552,0.4251709-0.2211304,0.6717529c0.1237793,0.2452393,0.4222412,0.3447266,0.668396,0.2227783l2-1c0.2474976-0.1225586,0.3487549-0.4225464,0.2261353-0.6700439C16.3272095,8.4838257,16.0272217,8.3825684,15.7797241,8.505127z"/></svg>