<svg xmlns="http://www.w3.org/2000/svg" enable-background="new 0 0 24 24" viewBox="0 0 24 24"><path fill="#6563ff" d="M9,8.5c-0.8284302,0-1.5,0.6715698-1.5,1.5s0.6715698,1.5,1.5,1.5c0.828064-0.0009155,1.4990845-0.671936,1.5-1.5C10.5,9.1715698,9.8284302,8.5,9,8.5z M9,10.5c-0.276123,0-0.5-0.223877-0.5-0.5S8.723877,9.5,9,9.5C9.2759399,9.5005493,9.4994507,9.7240601,9.5,10C9.5,10.276123,9.276123,10.5,9,10.5z M12,2C6.4771729,2,2,6.4771729,2,12s4.4771729,10,10,10c5.5201416-0.0064697,9.9935303-4.4798584,10-10C22,6.4771729,17.5228271,2,12,2z M12,21c-4.9705811,0-9-4.0294189-9-9s4.0294189-9,9-9c4.9683228,0.0054321,8.9945679,4.0316772,9,9C21,16.9705811,16.9705811,21,12,21z M15,13.5c-1.6334839,0.0043945-3.1377563,0.8890381-3.9355469,2.3144531c-0.0419312,0.074646-0.0640259,0.1588745-0.0640869,0.2445068C11.000061,16.3352051,11.2238159,16.5593262,11.5,16.5595703c0.180603,0.0001221,0.347229-0.0973511,0.4355469-0.2548828C12.5563965,15.1940918,13.7276611,14.5043335,15,14.5c0.276123,0,0.5-0.223877,0.5-0.5S15.276123,13.5,15,13.5z M15,8.5c-0.8284302,0-1.5,0.6715698-1.5,1.5s0.6715698,1.5,1.5,1.5c0.828064-0.0009155,1.4990845-0.671936,1.5-1.5C16.5,9.1715698,15.8284302,8.5,15,8.5z M15,10.5c-0.276123,0-0.5-0.223877-0.5-0.5s0.223877-0.5,0.5-0.5c0.2759399,0.0005493,0.4994507,0.2240601,0.5,0.5C15.5,10.276123,15.276123,10.5,15,10.5z"/></svg>