<svg xmlns="http://www.w3.org/2000/svg" enable-background="new 0 0 24 24" viewBox="0 0 24 24"><path fill="#6563ff" d="M10.2675171,8.8893433C10.0703125,8.696106,9.7537842,8.6992798,9.5605469,8.8965454c-0.5967407,0.5585938-1.5244141,0.5585938-2.1211548,0c-0.1943359-0.1904907-0.5054321-0.1904907-0.6998291,0C6.5423584,9.0897827,6.5391846,9.406311,6.7324219,9.6035156C7.2000732,10.0740967,7.8366089,10.3378296,8.5,10.3359375c0.6633911,0.0018921,1.2999268-0.2619019,1.7675171-0.7324219c0.0024414-0.0023804,0.0048218-0.0047607,0.0071411-0.0071411C10.4679565,9.3991699,10.4647217,9.0826416,10.2675171,8.8893433z M14.8319702,14.0292969l-4.1962891,1.5c-0.1989136,0.0710449-0.3317261,0.2594604-0.3317261,0.4706421c-0.0001221,0.276123,0.2236328,0.5,0.4997559,0.500061c0.057251-0.0002441,0.1140137-0.0101318,0.1679688-0.0292969l4.1962891-1.5c0.2599487-0.0927734,0.3954468-0.3787231,0.3026733-0.6386719C15.3779297,14.0720825,15.09198,13.9365234,14.8319702,14.0292969z M16.5605469,8.8965454c-0.5967407,0.5585938-1.5244141,0.5585938-2.1211548,0c-0.0023193-0.0024414-0.0046997-0.0048218-0.0071411-0.0072021c-0.1972046-0.1932373-0.5137329-0.1900635-0.7069702,0.0072021c-0.1932983,0.1972046-0.1900635,0.5137329,0.0071411,0.7069702c0.4676514,0.4705811,1.104187,0.734314,1.7675781,0.7324219c0.6633911,0.0018921,1.2999268-0.2619019,1.7675171-0.7324219c0.0023804-0.0023193,0.0047607-0.0046997,0.0071411-0.0071411c0.1932373-0.1971436,0.1900635-0.5136719-0.0071411-0.7069702C17.0703125,8.696167,16.7537842,8.6993408,16.5605469,8.8965454z M12,2C6.4771729,2,2,6.4771729,2,12s4.4771729,10,10,10c5.5201416-0.0064697,9.9935303-4.4798584,10-10C22,6.4771729,17.5228271,2,12,2z M12,21c-4.9705811,0-9-4.0294189-9-9s4.0294189-9,9-9c4.9683228,0.0054321,8.9945679,4.0316772,9,9C21,16.9705811,16.9705811,21,12,21z"/></svg>