<svg xmlns="http://www.w3.org/2000/svg" enable-background="new 0 0 24 24" viewBox="0 0 24 24"><path fill="#6563ff" d="M19,3H5C3.3431396,3,2,4.3431396,2,6c0,1.3043213,0.8374634,2.4030151,2,2.8162842V18.5c0.0012817,1.380188,1.119812,2.4987183,2.5,2.5h11c1.380188-0.0012817,2.4987183-1.119812,2.5-2.5V8.8162842C21.1625366,8.4030151,22,7.3043213,22,6C22,4.3431396,20.6568604,3,19,3z M19,18.5c-0.0009155,0.828064-0.671936,1.4990845-1.5,1.5h-11c-0.828064-0.0009155-1.4990845-0.671936-1.5-1.5V9h14V18.5z M19,8H5C3.8954468,8,3,7.1045532,3,6s0.8954468-2,2-2h14c1.1045532,0,2,0.8954468,2,2S20.1045532,8,19,8z M9.5,13h5c0.276123,0,0.5-0.223877,0.5-0.5S14.776123,12,14.5,12h-5C9.223877,12,9,12.223877,9,12.5S9.223877,13,9.5,13z"/></svg>