<svg xmlns="http://www.w3.org/2000/svg" enable-background="new 0 0 24 24" viewBox="0 0 24 24"><path fill="#6563ff" d="M22.5,21H21V7h1.5C22.776123,7,23,6.776123,23,6.5S22.776123,6,22.5,6H21V2.5c0.0001831-0.276001-0.2234497-0.4998169-0.4993896-0.5H3.5C3.223999,1.9998169,3.0001831,2.2234497,3,2.4993896V6H1.5C1.223877,6,1,6.223877,1,6.5S1.223877,7,1.5,7H3v14H1.5C1.223877,21,1,21.223877,1,21.5S1.223877,22,1.5,22h21c0.276123,0,0.5-0.223877,0.5-0.5S22.776123,21,22.5,21z M16,21H8v-4.5751953c0.0013428-2.7157593,1.5551147-5.1916504,4-6.3740234c2.4448853,1.182373,3.9986572,3.6582642,4,6.3740234V21z M20,21h-3v-4.5751953c-0.0015259-3.1917725-1.8808594-6.0839233-4.796875-7.3817749c-0.1295166-0.0566406-0.2767334-0.0566406-0.40625,0C8.8809204,10.3408813,7.0015259,13.2330322,7,16.4248047V21H4V7h16V21z M20,6H4V3h16V6z"/></svg>