<svg xmlns="http://www.w3.org/2000/svg" enable-background="new 0 0 24 24" viewBox="0 0 24 24"><path fill="#6563ff" d="M6.5,3h11C17.776123,3,18,2.776123,18,2.5S17.776123,2,17.5,2h-11C6.223877,2,6,2.223877,6,2.5S6.223877,3,6.5,3z M17.5,21h-11C6.223877,21,6,21.223877,6,21.5S6.223877,22,6.5,22h11c0.276123,0,0.5-0.223877,0.5-0.5S17.776123,21,17.5,21z M14.6464844,9.8535156C14.7401123,9.9474487,14.8673706,10.0001831,15,10c0.1325073,0,0.2596436-0.0526733,0.3533936-0.1463623c0.1953125-0.1952515,0.1953735-0.5118408,0.0001221-0.7070923l-3-3c-0.000061-0.000061-0.000061-0.0001221-0.0001221-0.0001831c-0.1952515-0.1951294-0.5117188-0.1950684-0.7068481,0.0001831l-3,3c-0.1871338,0.1937256-0.1871338,0.5009155,0,0.6947021c0.1918335,0.1986084,0.5083618,0.2041016,0.7069702,0.0122681L11.5,7.7069702v8.5859985l-2.1465454-2.1464233c-0.1937256-0.1871338-0.5009155-0.1871338-0.6947021,0c-0.1986084,0.1918335-0.2041016,0.5083618-0.0122681,0.7069702l3,3C11.7401123,17.9474487,11.8673706,18.0001831,12,18c0.1326294,0.0001221,0.2598267-0.0525513,0.3534546-0.1464844l3-3c0.1871338-0.1937866,0.1871338-0.5009766,0-0.6947021c-0.1918335-0.1986084-0.5083618-0.2041626-0.7069702-0.0123291L12.5,16.2929688V7.7069702L14.6464844,9.8535156z"/></svg>