<svg xmlns="http://www.w3.org/2000/svg" enable-background="new 0 0 24 24" viewBox="0 0 24 24"><path fill="#6563ff" d="M21.5,14c-0.276123,0-0.5,0.223877-0.5,0.5v5.7930908L3.7069092,3H9.5C9.776123,3,10,2.776123,10,2.5S9.776123,2,9.5,2h-7C2.4998169,2,2.4996338,2,2.4993896,2C2.2234497,2.0001831,1.9998169,2.223999,2,2.5v7c0,0.0001831,0,0.0003662,0,0.0005493C2.0001831,9.7765503,2.223999,10.0001831,2.5,10c0.0001831,0,0.0003662,0,0.0006104,0C2.7765503,9.9998169,3.0001831,9.776001,3,9.5V3.7070312L20.2929688,21H14.5c-0.276123,0-0.5,0.223877-0.5,0.5s0.223877,0.5,0.5,0.5h7c0.0001831,0,0.0003662,0,0.0006104,0C21.7765503,21.9998169,22.0001831,21.776001,22,21.5v-7C22,14.223877,21.776123,14,21.5,14z"/></svg>