<svg xmlns="http://www.w3.org/2000/svg" enable-background="new 0 0 24 24" viewBox="0 0 24 24"><path fill="#6563ff" d="M16.1464844,16.6464844L12.5,20.2929688V3.7070312l3.6464844,3.6464844C16.2441406,7.4511719,16.3720703,7.5,16.5,7.5s0.2558594-0.0488281,0.3535156-0.1464844c0.1953125-0.1953125,0.1953125-0.5117188,0-0.7070312l-4.5-4.5c-0.1953125-0.1953125-0.5117188-0.1953125-0.7070312,0l-4.5,4.5c-0.1953125,0.1953125-0.1953125,0.5117188,0,0.7070312s0.5117188,0.1953125,0.7070312,0L11.5,3.7070312v16.5859375l-3.6464844-3.6464844c-0.1953125-0.1953125-0.5117188-0.1953125-0.7070312,0s-0.1953125,0.5117188,0,0.7070312l4.5,4.5C11.7441406,21.9511719,11.8720703,22,12,22s0.2558594-0.0488281,0.3535156-0.1464844l4.5-4.5c0.1953125-0.1953125,0.1953125-0.5117188,0-0.7070312S16.3417969,16.4511719,16.1464844,16.6464844z"/></svg>