<svg xmlns="http://www.w3.org/2000/svg" enable-background="new 0 0 24 24" viewBox="0 0 24 24"><path fill="#6563ff" d="M20.8534546,16.6587524c-0.1918335-0.1986084-0.5083618-0.2041016-0.7069702-0.0122681L17.5,19.2929688V9c-0.0012817-1.380188-1.119812-2.4987183-2.5-2.5H4.7069702l2.6464844-2.6464844c0.1871948-0.1937866,0.1871948-0.5009766,0-0.6947021C7.1616211,2.9602051,6.8450928,2.9546509,6.6464844,3.1465454l-3.5,3.5c-0.000061,0-0.0001221,0.000061-0.0001221,0.0001221C2.9511719,6.8418579,2.9512329,7.1583862,3.1464844,7.3535156l3.5,3.5C6.7401123,10.9474487,6.8673706,11.0001831,7,11c0.1325684,0,0.2597046-0.0526733,0.3533936-0.1464233c0.1953125-0.1952515,0.1953125-0.5118408,0.0001221-0.7070923L4.7069702,7.5H15c0.828064,0.0009155,1.4990845,0.671936,1.5,1.5v10.2929688l-2.6465454-2.6464233c-0.1937256-0.1871948-0.5009155-0.1871948-0.6947021,0c-0.1986084,0.1918335-0.2041016,0.5083618-0.0122681,0.7069702l3.5,3.5C16.7401123,20.9474487,16.8673706,21.0001831,17,21c0.1326294,0.0001221,0.2598267-0.0525513,0.3534546-0.1464844l3.5-3.5C21.0406494,17.159729,21.0406494,16.8525391,20.8534546,16.6587524z"/></svg>