<svg xmlns="http://www.w3.org/2000/svg" enable-background="new 0 0 24 24" viewBox="0 0 24 24"><path fill="#6563ff" d="M7.8534546,8.6465454c-0.1937256-0.1871948-0.5009155-0.1871948-0.6947021,0C6.960144,8.8383789,6.9546509,9.1549072,7.1464844,9.3535156L9.2930298,11.5H3v-5C3,6.223877,2.776123,6,2.5,6S2,6.223877,2,6.5v11.0005493C2.0001831,17.7765503,2.223999,18.0001831,2.5,18h0.0006104C2.7765503,17.9998169,3.0001831,17.776001,3,17.5v-5h6.2930298l-2.1465454,2.1464844c-0.09375,0.09375-0.1464233,0.2208862-0.1464233,0.3534546C7,15.276062,7.223877,15.499939,7.5,15.5c0.1326294,0.0001221,0.2598267-0.0525513,0.3534546-0.1464844l3-3c0.000061-0.000061,0.0001221-0.000061,0.0001831-0.0001221c0.1951294-0.1952515,0.1950684-0.5117188-0.0001831-0.7068481L7.8534546,8.6465454z M21.5,6C21.223877,6,21,6.223877,21,6.5v5h-6.2930298l2.1464844-2.1464844c0.1871948-0.1937866,0.1871948-0.5009766,0-0.6947021c-0.1918335-0.1986694-0.5083618-0.2041626-0.7069702-0.0122681l-3,3c-0.000061,0-0.0001221,0.000061-0.0001221,0.0001221c-0.1951904,0.1951904-0.1951294,0.5117188,0.0001221,0.7068481l3,3C16.2401123,15.4474487,16.3673706,15.5001831,16.5,15.5c0.1325684,0,0.2597046-0.0526733,0.3533936-0.1464233c0.1953125-0.1952515,0.1953125-0.5118408,0.0001221-0.7070923L14.7069702,12.5H21v5.0005493C21.0001831,17.7765503,21.223999,18.0001831,21.5,18h0.0006104C21.7765503,17.9998169,22.0001831,17.776001,22,17.5v-11C22,6.223877,21.776123,6,21.5,6z"/></svg>