<svg xmlns="http://www.w3.org/2000/svg" enable-background="new 0 0 24 24" viewBox="0 0 24 24"><path fill="#6563ff" d="M10.5,6C10.223877,6,10,6.223877,10,6.5v5H3.7069702l2.1464844-2.1464844c0.1871948-0.1937866,0.1871948-0.5009766,0-0.6947021C5.6616211,8.4602051,5.3450928,8.4546509,5.1464844,8.6465454l-3,3c-0.000061,0-0.0001221,0.000061-0.0001221,0.0001221c-0.1951904,0.1951904-0.1951294,0.5117188,0.0001221,0.7068481l3,3C5.2401123,15.4474487,5.3673706,15.5001831,5.5,15.5c0.1325684,0,0.2597046-0.0526733,0.3533936-0.1464233c0.1953125-0.1952515,0.1953125-0.5118408,0.0001221-0.7070923L3.7069702,12.5H10v5.0005493C10.0001831,17.7765503,10.223999,18.0001831,10.5,18h0.0006104C10.7765503,17.9998169,11.0001831,17.776001,11,17.5v-11C11,6.223877,10.776123,6,10.5,6z M21.8534546,11.6465454l-3-3c-0.1937256-0.1871948-0.5009155-0.1871948-0.6947021,0c-0.1986084,0.1918335-0.2041016,0.5083618-0.0122681,0.7069702L20.2930298,11.5H14v-5C14,6.223877,13.776123,6,13.5,6S13,6.223877,13,6.5v11.0005493C13.0001831,17.7765503,13.223999,18.0001831,13.5,18h0.0006104C13.7765503,17.9998169,14.0001831,17.776001,14,17.5v-5h6.2930298l-2.1465454,2.1464844c-0.09375,0.09375-0.1464233,0.2208862-0.1464233,0.3534546c0,0.276123,0.2238159,0.5,0.499939,0.500061c0.1326294,0.0001221,0.2598267-0.0525513,0.3534546-0.1464844l3-3c0.000061-0.000061,0.0001221-0.000061,0.0001831-0.0001221C22.0487671,12.1581421,22.0487061,11.8416748,21.8534546,11.6465454z"/></svg>