<svg xmlns="http://www.w3.org/2000/svg" enable-background="new 0 0 24 24" viewBox="0 0 24 24"><path fill="#6563ff" d="M13.3534546,7.1465454c-0.1937256-0.1871948-0.5009155-0.1871948-0.6947021,0c-0.1986084,0.1918335-0.2041016,0.5083618-0.0122681,0.7069702L16.2930298,11.5H2.5C2.223877,11.5,2,11.723877,2,12s0.223877,0.5,0.5,0.5h13.7930298l-3.6465454,3.6464844c-0.09375,0.09375-0.1464233,0.2208862-0.1464233,0.3534546C12.5,16.776062,12.723877,16.999939,13,17c0.1326294,0.0001221,0.2598267-0.0525513,0.3534546-0.1464844l4.5-4.5c0.000061-0.000061,0.0001221-0.000061,0.0001831-0.0001221c0.1951294-0.1952515,0.1950684-0.5117188-0.0001831-0.7068481L13.3534546,7.1465454z M21.5,4C21.223877,4,21,4.223877,21,4.5v15.0005493C21.0001831,19.7765503,21.223999,20.0001831,21.5,20h0.0006104C21.7765503,19.9998169,22.0001831,19.776001,22,19.5v-15C22,4.223877,21.776123,4,21.5,4z"/></svg>