<svg xmlns="http://www.w3.org/2000/svg" enable-background="new 0 0 24 24" viewBox="0 0 24 24"><path fill="#6563ff" d="M9.3535156,5.8535156L11.5,3.7069702v6.7935791C11.5001831,10.7765503,11.723999,11.0001831,12,11h0.0006104c0.2759399-0.0001831,0.4995728-0.223999,0.4993896-0.5V3.7069702l2.1464844,2.1465454C14.7401123,5.9474487,14.8673706,6.0001831,15,6c0.1325073,0,0.2596436-0.0526733,0.3533936-0.1463623c0.1953125-0.1952515,0.1953735-0.5118408,0.0001221-0.7070923l-3-3c-0.000061-0.000061-0.000061-0.0001221-0.0001221-0.0001831c-0.1952515-0.1951294-0.5117188-0.1950684-0.7068481,0.0001831l-3,3c-0.1871948,0.1937256-0.1871948,0.5009155,0,0.6947021C8.8383789,6.039856,9.1549072,6.0453491,9.3535156,5.8535156z M14.6464844,18.1464844L12.5,20.2929688V13.5c0-0.276123-0.223877-0.5-0.5-0.5s-0.5,0.223877-0.5,0.5v6.7929688l-2.1465454-2.1464233c-0.1937256-0.1871948-0.5009155-0.1871948-0.6947021,0c-0.1986084,0.1918335-0.2041016,0.5083618-0.0122681,0.7069702l3,3C11.7401123,21.9474487,11.8673706,22.0001831,12,22c0.1326294,0.0001221,0.2598267-0.0525513,0.3534546-0.1464844l3-3c0.1871948-0.1937866,0.1871948-0.5009766,0-0.6947632C15.1616211,17.960144,14.8450928,17.9546509,14.6464844,18.1464844z"/></svg>