<svg xmlns="http://www.w3.org/2000/svg" enable-background="new 0 0 24 24" viewBox="0 0 24 24"><path fill="#6563ff" d="M9.1464844,9.8535156C9.2401123,9.9474487,9.3673706,10.0001831,9.5,10c0.1325073-0.000061,0.2595825-0.0526733,0.3533325-0.1463623c0.1953125-0.1952515,0.1953735-0.5118408,0.0001221-0.7070923l-7-7c-0.1937256-0.1871948-0.5009155-0.1871948-0.6947021,0C1.960144,2.3383789,1.9546509,2.6549072,2.1464844,2.8535156L9.1464844,9.8535156z M21.5,2h-7C14.223877,2,14,2.223877,14,2.5S14.223877,3,14.5,3h5.7930908L2.1404419,21.1526489c-0.1871338,0.1937256-0.1871338,0.5009766,0,0.6947021c0.1918335,0.1986084,0.5083618,0.2041016,0.7069702,0.0122681L21,3.7070312v5.7935181C21.0001831,9.7765503,21.223999,10.0001831,21.5,10h0.0006104C21.7765503,9.9998169,22.0001831,9.776001,22,9.5V2.4993896C21.9998169,2.2234497,21.776001,1.9998169,21.5,2z M21.5,14c-0.276123,0-0.5,0.223877-0.5,0.5v5.7930908l-6.1465454-6.1465454c-0.1937256-0.1871338-0.5009155-0.1871338-0.6947021,0c-0.1986084,0.1918335-0.2041016,0.5083618-0.0122681,0.7069702L20.2929688,21H14.5c-0.276123,0-0.5,0.223877-0.5,0.5s0.223877,0.5,0.5,0.5h7.0006104C21.7765503,21.9998169,22.0001831,21.776001,22,21.5v-7C22,14.223877,21.776123,14,21.5,14z"/></svg>