<svg xmlns="http://www.w3.org/2000/svg" enable-background="new 0 0 24 24" viewBox="0 0 24 24"><path fill="#6563ff" d="M20.8535156,16.6465454l-3.5-3.5c-0.1937866-0.1871948-0.5009766-0.1871948-0.6947021,0c-0.1986694,0.1918335-0.2041626,0.5083618-0.0123291,0.7069702L19.2930298,16.5H9c-0.828064-0.0009155-1.4990845-0.671936-1.5-1.5V4.7069702l2.6464844,2.6465454C10.2401123,7.4474487,10.3673706,7.5001831,10.5,7.5c0.1325073,0,0.2596436-0.0526733,0.3533936-0.1463623c0.1953125-0.1952515,0.1953735-0.5118408,0.0001221-0.7070923l-3.5-3.5c-0.000061-0.000061-0.000061-0.0001221-0.0001221-0.0001831C7.1581421,2.9512329,6.8416748,2.9512939,6.6465454,3.1465454l-3.5,3.5c-0.1871948,0.1937256-0.1871948,0.5009155,0,0.6947021C3.3383789,7.539856,3.6549072,7.5453491,3.8535156,7.3535156L6.5,4.7069702V15c0.0012817,1.380188,1.119812,2.4987183,2.5,2.5h10.2930298l-2.6465454,2.6464844c-0.09375,0.09375-0.1464233,0.2208862-0.1464233,0.3534546c0,0.276123,0.2238159,0.5,0.499939,0.500061c0.1326294,0.0001831,0.2598877-0.0525513,0.3535156-0.1464844l3.5-3.5c0.000061-0.000061,0.000061-0.000061,0.0001221-0.0001221C21.0488281,17.1581421,21.0487671,16.8416748,20.8535156,16.6465454z"/></svg>