<svg xmlns="http://www.w3.org/2000/svg" enable-background="new 0 0 24 24" viewBox="0 0 24 24"><path fill="#6563ff" d="M17.8657837,11.6587524c-0.0040283-0.0041504-0.0081177-0.0082397-0.0123291-0.0122681l-5.5-5.5c-0.1951294-0.1952515-0.5115967-0.1953125-0.7068481-0.0001221c-0.000061,0-0.000061,0.000061-0.0001221,0.0001221l-5.5,5.5c-0.1918335,0.1986084-0.1863403,0.5151367,0.0122681,0.7069702c0.1937866,0.1871338,0.5009766,0.1871338,0.6947021,0L11.5,7.7069702V17.5c0,0.276123,0.223877,0.5,0.5,0.5s0.5-0.223877,0.5-0.5V7.7069702l4.6464844,4.6465454c0.1918335,0.1986084,0.5083618,0.2041016,0.7069702,0.0122681C18.052124,12.1739502,18.0576172,11.8573608,17.8657837,11.6587524z"/></svg>