<svg xmlns="http://www.w3.org/2000/svg" enable-background="new 0 0 24 24" viewBox="0 0 24 24"><path fill="#6563ff" d="M2.5,6C2.223877,6,2,6.223877,2,6.5v11.0005493C2.0001831,17.7765503,2.223999,18.0001831,2.5,18h0.0006104C2.7765503,17.9998169,3.0001831,17.776001,3,17.5v-11C3,6.223877,2.776123,6,2.5,6z M14.8534546,8.6465454c-0.1937256-0.1871338-0.5009155-0.1871338-0.6947021,0c-0.1986084,0.1918335-0.2041016,0.5083618-0.0122681,0.7069702L16.2930298,11.5H7.7069702l2.1464844-2.1464844c0.1871338-0.1937256,0.1871338-0.5009155,0-0.6947021C9.6616211,8.4602051,9.3450928,8.4547119,9.1464844,8.6465454l-3,3c-0.000061,0-0.0001221,0.000061-0.0001221,0.0001221c-0.1951904,0.1951904-0.1951294,0.5117188,0.0001221,0.7068481l3,3C9.2401123,15.4474487,9.3673706,15.5001831,9.5,15.5c0.1325684,0,0.2597046-0.0526733,0.3533936-0.1464233c0.1953125-0.1952515,0.1953125-0.5118408,0.0001221-0.7070923L7.7069702,12.5h8.5860596l-2.1465454,2.1464844c-0.09375,0.09375-0.1464233,0.2208862-0.1464233,0.3534546C14,15.276062,14.223877,15.499939,14.5,15.5c0.1326294,0.0001221,0.2598267-0.0525513,0.3534546-0.1464844l3-3c0.000061-0.000061,0.0001221-0.000061,0.0001831-0.0001221c0.1951294-0.1952515,0.1950684-0.5117188-0.0001831-0.7068481L14.8534546,8.6465454z M21.5,6C21.223877,6,21,6.223877,21,6.5v11.0005493C21.0001831,17.7765503,21.223999,18.0001831,21.5,18h0.0006104C21.7765503,17.9998169,22.0001831,17.776001,22,17.5v-11C22,6.223877,21.776123,6,21.5,6z"/></svg>