<svg xmlns="http://www.w3.org/2000/svg" enable-background="new 0 0 24 24" viewBox="0 0 24 24"><path fill="#6563ff" d="M21.5,2h-7C14.223877,2,14,2.223877,14,2.5S14.223877,3,14.5,3h5.7929688L3,20.2929688V14.5C3,14.223877,2.776123,14,2.5,14S2,14.223877,2,14.5v7c0,0.0001831,0,0.0003662,0,0.0005493C2.0001831,21.7765503,2.223999,22.0001831,2.5,22h7c0.276123,0,0.5-0.223877,0.5-0.5S9.776123,21,9.5,21H3.7069092L21,3.7069092V9.5c0,0.0001831,0,0.0003662,0,0.0005493C21.0001831,9.7765503,21.223999,10.0001831,21.5,10c0.0001831,0,0.0003662,0,0.0006104,0C21.7765503,9.9998169,22.0001831,9.776001,22,9.5v-7c0-0.0001831,0-0.0003662,0-0.0006104C21.9998169,2.2234497,21.776001,1.9998169,21.5,2z"/></svg>