<svg xmlns="http://www.w3.org/2000/svg" enable-background="new 0 0 24 24" viewBox="0 0 24 24"><path fill="#6563ff" d="M20.8534546,6.6465454l-3.5-3.5c-0.1937256-0.1871948-0.5009155-0.1871948-0.6947021,0c-0.1986084,0.1918335-0.2041016,0.5083618-0.0122681,0.7069702L19.2930298,6.5H9C7.619812,6.5012817,6.5012817,7.619812,6.5,9v10.2929688l-2.6465454-2.6464233c-0.1937256-0.1871948-0.5009155-0.1871948-0.6947021,0c-0.1986084,0.1918335-0.2041016,0.5083618-0.0122681,0.7069702l3.5,3.5C6.7401123,20.9474487,6.8673706,21.0001831,7,21c0.1326294,0.0001221,0.2598267-0.0525513,0.3534546-0.1464844l3.5-3.5c0.1871948-0.1937866,0.1871948-0.5009766,0-0.6947632c-0.1918335-0.1986084-0.5083618-0.2041016-0.7069702-0.0122681L7.5,19.2929688V9C7.5009155,8.171936,8.171936,7.5009155,9,7.5h10.2930298l-2.6465454,2.6464844c-0.09375,0.09375-0.1464233,0.2208862-0.1464233,0.3534546c0,0.276123,0.2238159,0.5,0.499939,0.500061c0.1326294,0.0001221,0.2598267-0.0525513,0.3534546-0.1464844l3.5-3.5c0.000061-0.000061,0.0001221-0.000061,0.0001831-0.0001221C21.0487671,7.1581421,21.0487061,6.8416748,20.8534546,6.6465454z"/></svg>