<svg xmlns="http://www.w3.org/2000/svg" enable-background="new 0 0 24 24" viewBox="0 0 24 24"><path fill="#6563ff" d="M2.5,4C2.223877,4,2,4.223877,2,4.5v15.0005493C2.0001831,19.7765503,2.223999,20.0001831,2.5,20h0.0006104C2.7765503,19.9998169,3.0001831,19.776001,3,19.5v-15C3,4.223877,2.776123,4,2.5,4z M21.8534546,11.6465454l-4.5-4.5c-0.1937256-0.1871948-0.5009766-0.1871948-0.6947021,0c-0.1986084,0.1918335-0.2041016,0.5083618-0.0122681,0.7069702L20.2930298,11.5H6.5C6.223877,11.5,6,11.723877,6,12s0.223877,0.5,0.5,0.5h13.7930298l-3.6465454,3.6464844c-0.09375,0.09375-0.1464233,0.2208862-0.1464233,0.3534546c0,0.276123,0.2238159,0.5,0.499939,0.500061c0.1326294,0.0001221,0.2598267-0.0525513,0.3534546-0.1464844l4.5-4.5c0.000061-0.000061,0.0001221-0.000061,0.0001831-0.0001221C22.0487671,12.1581421,22.0487061,11.8416748,21.8534546,11.6465454z"/></svg>