<svg xmlns="http://www.w3.org/2000/svg" enable-background="new 0 0 24 24" viewBox="0 0 24 24"><path fill="#6563ff" d="M16.1464844,16.6464844L12.5,20.2929688V6.5C12.5,6.223877,12.276123,6,12,6s-0.5,0.223877-0.5,0.5v13.7929688l-3.6465454-3.6464233c-0.1937256-0.1871948-0.5009155-0.1871948-0.6947021,0c-0.1986084,0.1918335-0.2041016,0.5083618-0.0122681,0.7069702l4.5,4.5C11.7401123,21.9474487,11.8673706,22.0001831,12,22c0.1326294,0.0001221,0.2598267-0.0525513,0.3534546-0.1464844l4.5-4.5c0.1871948-0.1937866,0.1871948-0.5009766,0-0.6947632C16.6616211,16.460144,16.3450928,16.4546509,16.1464844,16.6464844z M19.5,2h-15C4.223877,2,4,2.223877,4,2.5S4.223877,3,4.5,3h15C19.776123,3,20,2.776123,20,2.5S19.776123,2,19.5,2z"/></svg>