<svg xmlns="http://www.w3.org/2000/svg" enable-background="new 0 0 24 24" viewBox="0 0 24 24"><path fill="#6563ff" d="M11.6464844,17.8535156C11.7401123,17.9474487,11.8673706,18.0001831,12,18c0.1326294,0.0001221,0.2598267-0.0525513,0.3534546-0.1464844l4.5-4.5c0.1871948-0.1937866,0.1871948-0.5009766,0-0.6947632c-0.1918335-0.1986084-0.5083618-0.2041016-0.7069702-0.0122681L12.5,16.2929688V2.5C12.5,2.223877,12.276123,2,12,2s-0.5,0.223877-0.5,0.5v13.7929688l-3.6465454-3.6464233c-0.1937256-0.1871338-0.5009155-0.1871338-0.6947021,0c-0.1986084,0.1918335-0.2041016,0.5083618-0.0122681,0.7069702L11.6464844,17.8535156z M19.5,21h-15C4.223877,21,4,21.223877,4,21.5S4.223877,22,4.5,22h15c0.276123,0,0.5-0.223877,0.5-0.5S19.776123,21,19.5,21z"/></svg>