<svg xmlns="http://www.w3.org/2000/svg" enable-background="new 0 0 24 24" viewBox="0 0 24 24"><path fill="#6563ff" d="M8.3534546,8.6465454c-0.1937256-0.1871948-0.5009155-0.1871948-0.6947021,0C7.460144,8.8383789,7.4546509,9.1549072,7.6464844,9.3535156L9.7930298,11.5H2.5C2.223877,11.5,2,11.723877,2,12s0.223877,0.5,0.5,0.5h7.2930298l-2.1465454,2.1464844c-0.09375,0.09375-0.1464233,0.2208862-0.1464233,0.3534546C7.5,15.276062,7.723877,15.499939,8,15.5c0.1326294,0.0001221,0.2598267-0.0525513,0.3534546-0.1464844l3-3c0.000061-0.000061,0.0001221-0.000061,0.0001831-0.0001221c0.1951294-0.1952515,0.1950684-0.5117188-0.0001831-0.7068481L8.3534546,8.6465454z M12,5c-0.276123,0-0.5,0.223877-0.5,0.5v13.0005493C11.5001831,18.7765503,11.723999,19.0001831,12,19h0.0006104c0.2759399-0.0001831,0.4995728-0.223999,0.4993896-0.5v-6.4998779V5.5C12.5,5.223877,12.276123,5,12,5z M21.5,11.5h-7.2930298l2.1464844-2.1464844c0.1871338-0.1937256,0.1871338-0.5009155,0-0.6947021c-0.1918335-0.1986084-0.5083618-0.2041016-0.7069702-0.0122681l-3,3c-0.000061,0-0.0001221,0.000061-0.0001221,0.0001221C12.5487671,11.7442627,12.499939,11.8722534,12.5,12.0001221c0,0.1279297,0.0488892,0.2557983,0.1464844,0.3533936l3,3C15.7401123,15.4474487,15.8673706,15.5001831,16,15.5c0.1325684,0,0.2597046-0.0526733,0.3533936-0.1464233c0.1953125-0.1952515,0.1953125-0.5118408,0.0001221-0.7070923L14.2069702,12.5H21.5c0.276123,0,0.5-0.223877,0.5-0.5S21.776123,11.5,21.5,11.5z"/></svg>