<svg xmlns="http://www.w3.org/2000/svg" enable-background="new 0 0 24 24" viewBox="0 0 24 24"><path fill="#6563ff" d="M17.8412476,11.6465454c-0.1937866-0.1871948-0.5009766-0.1871948-0.6947021,0L12.5,16.2929688V6.5C12.5,6.223877,12.276123,6,12,6s-0.5,0.223877-0.5,0.5v9.7929688l-4.6464844-4.6464844c-0.1918335-0.1986084-0.5083618-0.2041626-0.7069702-0.0122681c-0.1986694,0.1918335-0.2041626,0.5083618-0.0123291,0.7069702c0.0040283,0.0041504,0.0081177,0.0082397,0.0123291,0.0122681l5.5,5.5c0.1951294,0.1952515,0.5115967,0.1953735,0.7068481,0.0001831c0.000061,0,0.000061-0.000061,0.0001221-0.0001221l5.5-5.5C18.0453491,12.1549072,18.039856,11.8383789,17.8412476,11.6465454z"/></svg>