<svg xmlns="http://www.w3.org/2000/svg" enable-background="new 0 0 24 24" viewBox="0 0 24 24"><path fill="#6563ff" d="M18.75,15.3173828L12.9998779,12L18.75,8.6826172C18.9889526,8.5445557,19.0706787,8.2389526,18.9326172,8S18.4889526,7.6793213,18.25,7.8173828l-5.75,3.3173218V4.5C12.5,4.223877,12.276123,4,12,4s-0.5,0.223877-0.5,0.5v6.6347046L5.75,7.8173828C5.5110474,7.6793213,5.2054443,7.7610474,5.0673828,8S5.0110474,8.5445557,5.25,8.6826172L11.0001221,12L5.25,15.3173828C5.0109253,15.4553223,4.9289551,15.7609253,5.0668945,16c0.0893555,0.1549072,0.2547607,0.2502441,0.4335938,0.25C5.5881958,16.2501221,5.6743164,16.2268677,5.75,16.1826172l5.75-3.3173218V19.5c0,0.276123,0.223877,0.5,0.5,0.5s0.5-0.223877,0.5-0.5v-6.6347046l5.75,3.3173218C18.4889526,16.3206787,18.7945557,16.2389526,18.9326172,16S18.9889526,15.4554443,18.75,15.3173828z"/></svg>