<svg xmlns="http://www.w3.org/2000/svg" enable-background="new 0 0 24 24" viewBox="0 0 24 24"><path fill="#6563ff" d="M20.6601562,7c-0.767334-1.3284302-2.5855103-1.836853-4.8673706-1.5704346C14.8826904,3.3205566,13.5338745,2,12,2S9.1172485,3.3204956,8.2071533,5.4296265C5.9249268,5.1627808,4.1060181,5.6706543,3.3398438,7c-0.7667847,1.3283081-0.2972412,3.1570435,1.074585,5c-1.3718262,1.8429565-1.8413696,3.6716919-1.074646,5c0.6367188,1.1025391,1.9942017,1.6435547,3.7421875,1.6435547c0.3729858-0.0189819,0.7437134-0.0548096,1.112915-0.1002197C9.1050415,20.6685791,10.4594116,22,12,22s2.8949585-1.3314209,3.8051147-3.456665c0.3692017,0.0454102,0.7399292,0.0812378,1.112915,0.1002197c1.7469482,0,3.1063843-0.5410156,3.7421265-1.6435547c0.7667847-1.3283081,0.2972412-3.1570435-1.074585-5C20.9573975,10.1570435,21.4269409,8.3283081,20.6601562,7z M15.6480713,8.3894043C15.2786865,8.1427612,14.8995972,7.9006348,14.5,7.6699219c-0.3996582-0.230835-0.7990723-0.4382935-1.1974487-0.6350098c0.6378784-0.2148438,1.2570801-0.3780518,1.8477173-0.4918823C15.3469238,7.1115112,15.5151978,7.7294312,15.6480713,8.3894043z M12,3c1.0654297,0,2.0482178,0.9987793,2.7738037,2.5901489c-0.8824463,0.1806641-1.8171387,0.4703369-2.7739868,0.8580933C11.0432129,6.06073,10.1085815,5.7709351,9.2261353,5.59021C9.9517212,3.9987793,10.9345093,3,12,3z M8.8425293,6.5646973c0.6322021,0.1143799,1.2553101,0.2702026,1.866333,0.4645996C10.3067017,7.2276001,9.9035645,7.4368286,9.5,7.6699219C9.1004028,7.9006348,8.7213135,8.1427612,8.3519287,8.3894043C8.4831543,7.7377319,8.6489868,7.1273193,8.8425293,6.5646973z M4.2050781,7.5c0.6743774-0.8552856,1.7492065-1.2923584,2.8291016-1.1503906c0.2658691,0.0151367,0.5303345,0.0407715,0.7941895,0.0700073c-0.2806396,0.8480225-0.494751,1.7927856-0.6360474,2.8049927C6.3783569,9.859436,5.6602173,10.5241089,5.0626221,11.197998C4.0467529,9.7736816,3.6727905,8.4230347,4.2050781,7.5z M7.0488892,13.3538208C6.5440674,12.9088745,6.0932007,12.4544067,5.6994019,12c0.3937988-0.4544067,0.8446655-0.9089355,1.3494873-1.3538818C7.0200195,11.0892944,7,11.5386353,7,12S7.0200195,12.9107056,7.0488892,13.3538208z M4.2050781,16.5c-0.5322876-0.9230347-0.1583252-2.2736816,0.8575439-3.697998c0.5975952,0.6738892,1.3157349,1.338562,2.1296997,1.9733887c0.1427002,1.0221558,0.3591309,1.9763184,0.6437988,2.8307495C6.0949097,17.7734375,4.7382812,17.4219971,4.2050781,16.5z M8.3519287,15.6105957C8.7213135,15.8572388,9.1004028,16.0993652,9.5,16.3300781c0.3783569,0.2339478,0.7686157,0.4447021,1.1637573,0.6447144c-0.6261597,0.2092285-1.2341309,0.3692017-1.8143921,0.4810181C8.652832,16.8876953,8.4847412,16.2700806,8.3519287,15.6105957z M12,21c-1.0717163,0-2.0603027-1.0095215-2.7870483-2.6173096C10.1655884,18.2009888,11.0983276,17.9318848,12,17.5773926c0.9016113,0.3544922,1.8344116,0.6235962,2.7870483,0.8052979C14.0603027,19.9904785,13.0717163,21,12,21z M15.1503906,17.456543c-0.5805054-0.1118164-1.1887207-0.2718506-1.8151245-0.4812622C13.7307739,16.7751465,14.1212769,16.56427,14.5,16.3300781c0.3995972-0.2307129,0.7786865-0.4728394,1.1480713-0.7194824C15.5151978,16.2703857,15.3470459,16.8881836,15.1503906,17.456543z M15.8648682,14.2316284C15.2859497,14.6641235,14.6652832,15.0805054,14,15.4648438c-0.6655884,0.3839111-1.3366699,0.7131958-2.0007935,0.9981689C11.3355713,16.1780396,10.6650391,15.8487549,10,15.4648438c-0.6652832-0.3843384-1.2859497-0.8007202-1.8648682-1.2332153C8.0501099,13.5140381,8,12.7683105,8,12s0.0501099-1.5140381,0.1351318-2.2316284C8.7140503,9.3358765,9.3347168,8.9194946,10,8.5351562c0.6747437-0.3895264,1.3552246-0.7230835,2.0283813-1.0108032C12.7068481,7.8132324,13.3676758,8.1464844,14,8.5351562c0.6652832,0.3843384,1.2859497,0.8007202,1.8648682,1.2332153C15.9498901,10.4859619,16,11.2316895,16,12S15.9498901,13.5140381,15.8648682,14.2316284z M19.7949219,7.5c0.5322876,0.9230347,0.1583252,2.2736816-0.8575439,3.697998c-0.5975952-0.6738892-1.3157349-1.338562-2.1296997-1.9733887c-0.1427612-1.022644-0.359314-1.9771729-0.644165-2.8319092C17.90448,6.2254639,19.2612915,6.5772095,19.7949219,7.5z M16.9511108,10.6461182C17.4559326,11.0910645,17.9067993,11.5455933,18.3005981,12c-0.3937988,0.4544067-0.8446655,0.9088745-1.3494873,1.3538208C16.9799805,12.9107056,17,12.4613647,17,12S16.9799805,11.0892944,16.9511108,10.6461182z M19.7949219,16.5c-0.5328369,0.9221191-1.8897095,1.2739868-3.6312866,1.1068115c0.28479-0.8546143,0.5013428-1.80896,0.644043-2.8314209c0.8139648-0.6348267,1.5321045-1.2994995,2.1296997-1.9733887C19.9532471,14.2263184,20.3272095,15.5769653,19.7949219,16.5z"/></svg>