<svg xmlns="http://www.w3.org/2000/svg" enable-background="new 0 0 24 24" viewBox="0 0 24 24"><path fill="#6563ff" d="M17.9997559,8.4998779C17.9998169,8.2238159,17.776062,8,17.5,8h-5.3066406l1.78125-5.3417969c0.0166626-0.050354,0.0252075-0.1030884,0.0253296-0.1561279C14.0004883,2.2254028,13.7766724,2.0006104,13.5,2h-8C5.2746582,2.0001831,5.0772705,2.1508789,5.0175781,2.3681641l-3,11c-0.0118408,0.0431519-0.0177612,0.0876465-0.0177612,0.1323853C2,13.7766113,2.223938,14.0001831,2.5,14h4.359375l-1.8447266,7.3789062c-0.0549927,0.2215576,0.0471191,0.4522095,0.2480469,0.5605469C5.3353882,21.9793701,5.4170532,22.0002441,5.5,22c0.1395874,0.000061,0.2727661-0.0583496,0.3671875-0.1611328l12-13C17.9523926,8.746521,17.9997559,8.6254883,17.9997559,8.4998779z M6.460022,19.7236328l1.5253296-6.1025391c0.0099487-0.0397949,0.0149536-0.0806885,0.0149536-0.1217041C8.000061,13.2233276,7.776062,12.9997559,7.5,13H3.1542969L5.8818359,3h6.9248047l-1.78125,5.3417969c-0.0166626,0.050354-0.0252075,0.1030884-0.0253296,0.1561279C10.9995117,8.7745972,11.2233276,8.9993896,11.5,9h4.8583984L6.460022,19.7236328z M19.5,13h-2c-1.380188,0.0012817-2.4987183,1.119812-2.5,2.5v6c0,0.276123,0.223877,0.5,0.5,0.5s0.5-0.223877,0.5-0.5V18h5v3.5005493C21.0001831,21.7765503,21.223999,22.0001831,21.5,22h0.0006104C21.7765503,21.9998169,22.0001831,21.776001,22,21.5v-6C21.9987183,14.119812,20.880188,13.0012817,19.5,13z M21,17h-5v-1.5c0.0009155-0.828064,0.671936-1.4990845,1.5-1.5h2c0.828064,0.0009155,1.4990845,0.671936,1.5,1.5V17z"/></svg>