<svg xmlns="http://www.w3.org/2000/svg" enable-background="new 0 0 24 24" viewBox="0 0 24 24"><path fill="#6563ff" d="M20.4326172,17.5l-2.8521729-4.9346924C18.1594238,11.593811,18.4985962,10.4628296,18.5,9.25c0-3.5898438-2.9101562-6.5-6.5-6.5s-6.5,2.9101562-6.5,6.5c0,1.213623,0.3387451,2.345459,0.9177856,3.3175659L3.5668945,17.5c-0.0869751,0.154541-0.0858765,0.3435669,0.0029297,0.4970703C3.659668,18.1514282,3.8238525,18.2473755,4.0024414,18.25l3.1508789,0.0458984l1.6069336,2.7001953c0.0267944,0.0425415,0.0587769,0.081604,0.0952148,0.1162109C8.9485474,21.2006226,9.0718994,21.249939,9.2001953,21.25c0.0238647-0.0001831,0.0476685-0.0018311,0.0712891-0.0048828C9.4232178,21.2229614,9.5564575,21.1326904,9.6333008,21l2.368042-4.097229L14.3671875,21c0.0797729,0.1338501,0.2172852,0.2230225,0.3720703,0.2412109c0.0205078,0.0018921,0.0410156,0.0039062,0.0625,0.0039062c0.1356812-0.0007935,0.265564-0.0552368,0.3613281-0.1513672c0.0291748-0.0294189,0.0547485-0.0621948,0.0761719-0.0976562l1.6074219-2.7001953L20,18.25c0.0876465-0.000061,0.1737061-0.0231934,0.2496338-0.0670166C20.4887695,18.0449219,20.5706787,17.7391357,20.4326172,17.5z M9.1914062,19.7646484l-1.3217773-2.2207031c-0.0888672-0.1491699-0.2487183-0.2415771-0.4223633-0.2441406L4.859375,17.2626953l2.196106-3.7998047c1.0959473,1.2849121,2.682251,2.1337891,4.4703979,2.2631836L9.1914062,19.7646484z M12,14.75c-1.9249878,0-3.6164551-0.9907227-4.5991821-2.4882812c-0.0011597-0.0014648-0.001709-0.0032349-0.0028687-0.0047607C6.8319092,11.392395,6.5,10.3605347,6.5,9.25c0-3.0375366,2.4624634-5.5,5.5-5.5c3.0360718,0.0036011,5.4963989,2.4639282,5.5,5.5c0,1.111084-0.3321533,2.1433716-0.8986816,3.0081787c-0.000061,0.000061-0.000061,0.0001831-0.0001221,0.0002441C15.6188354,13.7578125,13.9263916,14.75,12,14.75z M16.5527344,17.2998047c-0.1737671,0.0025635-0.3338013,0.0949097-0.4228516,0.2441406l-1.3212891,2.2207031l-2.2294922-3.8614502l0.1105347-0.1913452c1.7000122-0.1812134,3.2017212-1.0184937,4.25354-2.2519531l2.1974487,3.8027954L16.5527344,17.2998047z"/></svg>