<svg xmlns="http://www.w3.org/2000/svg" enable-background="new 0 0 24 24" viewBox="0 0 24 24"><path fill="#6563ff" d="M12,1C8.1340332,1,5,4.1340332,5,8c0,1.9060669,0.7641602,3.6320801,2,4.8944092V22.5c-0.000061,0.0778809,0.0180664,0.1547241,0.0529785,0.2244263c0.1236572,0.2467041,0.4238892,0.3464966,0.6706543,0.2228394L12,20.8085938l4.2763672,2.1386719C16.3458252,22.9819336,16.4223633,22.999939,16.5,23c0.0005493,0,0.0010376,0,0.0015869,0C16.7772827,22.9995728,17.0004272,22.7756958,17,22.5v-9.6107788C18.2340088,11.6275024,18.9976807,9.9038696,19,8C19,4.1340332,15.8659668,1,12,1z M16,21.6914062l-3.7763672-1.8886719c-0.1408081-0.0703125-0.3064575-0.0703125-0.4472656,0L8,21.6914062v-7.951416c1.0056763,0.7022095,2.2037964,1.1429443,3.5,1.2347412V16.5c0,0.0001831,0,0.0003662,0,0.0005493C11.5001831,16.7765503,11.723999,17.0001831,12,17c0.0001831,0,0.0003662,0,0.0006104,0c0.2759399-0.0001831,0.4995728-0.223999,0.4993896-0.5v-1.5258179c1.2963257-0.0933228,2.4943848-0.5352783,3.5-1.2383423V21.6914062z M12,14c-3.3137207,0-6-2.6862793-6-6s2.6862793-6,6-6c3.3121948,0.0036011,5.9963989,2.6878052,6,6C18,11.3137207,15.3137207,14,12,14z"/></svg>