<svg xmlns="http://www.w3.org/2000/svg" enable-background="new 0 0 24 24" viewBox="0 0 24 24"><path fill="#6563ff" d="M22,8.5c-0.0041504-3.5881348-2.9118652-6.4958496-6.5-6.5h-1c-0.0001831,0-0.0003662,0-0.0005493,0C14.2234497,2.0001831,13.9998169,2.223999,14,2.5V8H6.5C6.4940186,8,6.4891357,8.0032349,6.4832153,8.003418L5.1074219,4.3242188C5.0345459,4.1290283,4.8480225,3.9996948,4.6396484,4H2.5C2.223877,4,2,4.223877,2,4.5S2.223877,5,2.5,5h1.7930298l2.1580811,5.7744141C7.4082642,13.3092041,9.8305664,14.9902344,12.539978,15H15.5C19.0879517,14.9954224,21.9954224,12.0879517,22,8.5z M15,3h0.5c2.8671875,0.0036011,5.2181396,2.1987305,5.4741821,5H15V3z M15.5,14h-2.960022c-2.2924805-0.0076904-4.3421631-1.4302368-5.1513062-3.5751953L6.855896,9h14.1181641C20.7174683,11.8009644,18.3668823,13.9957886,15.5,14z M9,16c-1.6568604,0-3,1.3431396-3,3s1.3431396,3,3,3c1.6561279-0.0018311,2.9981689-1.3438721,3-3C12,17.3431396,10.6568604,16,9,16z M9,21c-1.1045532,0-2-0.8954468-2-2s0.8954468-2,2-2c1.1040039,0.0014038,1.9985962,0.8959961,2,2C11,20.1045532,10.1045532,21,9,21z M19,16c-1.6568604,0-3,1.3431396-3,3s1.3431396,3,3,3c1.6561279-0.0018311,2.9981689-1.3438721,3-3C22,17.3431396,20.6568604,16,19,16z M19,21c-1.1045532,0-2-0.8954468-2-2s0.8954468-2,2-2c1.1040039,0.0014038,1.9985962,0.8959961,2,2C21,20.1045532,20.1045532,21,19,21z"/></svg>