<svg xmlns="http://www.w3.org/2000/svg" enable-background="new 0 0 24 24" viewBox="0 0 24 24"><path fill="#6563ff" d="M18.5,10H18V9.5c-0.0021362-1.7607422-1.3070068-3.2028809-3-3.4490356V5c0-1.6568604-1.3431396-3-3-3S9,3.3431396,9,5v1.0509644C7.3070068,6.2971191,6.0021362,7.7392578,6,9.5V10H5.5c-1.9320068,0.0023193-3.4976807,1.5679932-3.5,3.5v4c0.0012817,1.380188,1.119812,2.4987183,2.5,2.5h1.5508423C6.2832642,21.1405029,7.2910767,21.9989014,8.5,22h7c1.2089233-0.0010986,2.2167358-0.8594971,2.4491577-2H19.5c1.380188-0.0012817,2.4987183-1.119812,2.5-2.5v-4C21.9976807,11.5679932,20.4320068,10.0023193,18.5,10z M6,19H4.5c-0.828064-0.0009155-1.4990845-0.671936-1.5-1.5v-4c0.0012817-1.380188,1.119812-2.4987183,2.5-2.5H6V19z M10,5c0-1.1045532,0.8954468-2,2-2s2,0.8954468,2,2v1h-4V5z M17,19.5c-0.0009155,0.828064-0.671936,1.4990845-1.5,1.5h-7c-0.828064-0.0009155-1.4990845-0.671936-1.5-1.5v-2c0.0012817-1.380188,1.119812-2.4987183,2.5-2.5h5c1.380188,0.0012817,2.4987183,1.119812,2.5,2.5V19.5z M17,15.0582886C16.364624,14.4077759,15.480896,14.0011597,14.5,14h-5c-0.980896,0.0011597-1.864624,0.4077759-2.5,1.0582886V9.5C7.0012817,8.119812,8.119812,7.0012817,9.5,7h5c1.380188,0.0012817,2.4987183,1.119812,2.5,2.5V15.0582886z M21,17.5c-0.0009155,0.828064-0.671936,1.4990845-1.5,1.5H18v-8h0.5c1.380188,0.0012817,2.4987183,1.119812,2.5,2.5V17.5z M13.5,10h-3c-0.276123,0-0.5,0.223877-0.5,0.5s0.223877,0.5,0.5,0.5h3c0.276123,0,0.5-0.223877,0.5-0.5S13.776123,10,13.5,10z"/></svg>