<svg xmlns="http://www.w3.org/2000/svg" enable-background="new 0 0 24 24" viewBox="0 0 24 24"><path fill="#6563ff" d="M21.210144,7.0709229C20.6121216,6.0340576,19.2868042,5.6783447,18.25,6.2763672L13.5,9.0140381v-0.864624c-0.0001831-0.3800049-0.1003418-0.7532959-0.2904053-1.0823975C12.6112061,6.0308838,11.2861328,5.6760254,10.25,6.2744141l-6.6669922,3.8496094c-0.3292236,0.1900635-0.6026611,0.463501-0.7927856,0.7927246c-0.5982666,1.0361328-0.2432861,2.3610229,0.7927856,2.9592285L10.25,17.7255859c0.3291016,0.1918945,0.703064,0.293335,1.0839844,0.2939453c1.1953735-0.0048828,2.1627197-0.9735718,2.1660156-2.1689453v-0.8646851l4.75,2.7376709c0.3290405,0.1911011,0.7025146,0.2921143,1.0830078,0.2930298c0.3816528-0.0009766,0.7562866-0.1027222,1.0859985-0.2949219c0.671814-0.3831787,1.085022-1.0986938,1.0809937-1.8720703V8.1503906C21.4993896,7.7713623,21.3994751,7.3991699,21.210144,7.0709229z M12.5,15.8505859c-0.000061,0.2047729-0.0540161,0.4058838-0.1564331,0.5831909c-0.3222656,0.5578003-1.0357056,0.7488403-1.5935669,0.4265747l-6.6669922-3.8496094c-0.1768799-0.1022949-0.3237915-0.2492676-0.4261475-0.4261475c-0.322876-0.5581665-0.1320801-1.2724609,0.4261475-1.5953369L10.75,7.1396484c0.1773071-0.102417,0.378418-0.1563721,0.5831299-0.1564331C11.977417,6.9830322,12.4998169,7.505188,12.5,8.1494141V15.8505859z M20.5,15.8496094c-0.0006714,0.2033691-0.0545044,0.4030762-0.1561279,0.5792236c-0.3220825,0.5582275-1.0356445,0.7496338-1.5938721,0.4276123l-5.25-3.0258789v-3.6611938l5.25-3.0258179c0.1762085-0.1016235,0.3758545-0.1554565,0.5792847-0.1561279C19.9736938,6.9852295,20.4978638,7.5059204,20.5,8.1503906V15.8496094z"/></svg>