<svg xmlns="http://www.w3.org/2000/svg" enable-background="new 0 0 24 24" viewBox="0 0 24 24"><path fill="#6563ff" d="M19.5,7H16V5.5c-0.0012817-1.380188-1.119812-2.4987183-2.5-2.5h-3C9.119873,3.0014648,8.0014648,4.119873,8,5.5V7H4.5C3.119873,7.0014648,2.0014648,8.119873,2,9.5v10c0.0014648,1.380127,1.119873,2.4985352,2.5,2.5h15c1.380188-0.0012817,2.4987183-1.119812,2.5-2.5v-10C21.9987183,8.119812,20.880188,7.0012817,19.5,7z M9,5.5C9.0009155,4.671936,9.671936,4.0009155,10.5,4h3c0.828064,0.0009155,1.4990845,0.671936,1.5,1.5V7H9V5.5z M21,19.5c-0.0009155,0.828064-0.671936,1.4990845-1.5,1.5h-15c-0.828064-0.0009155-1.4990845-0.671936-1.5-1.5v-6.2628784c2.8657837,1.1278076,5.9175415,1.7132568,9.0004883,1.710144C15.0831299,14.9498901,18.1345215,14.3643799,21,13.2368774V19.5z M21,12.1669922c-5.7650757,2.3745117-12.2349243,2.3745117-18,0V9.5C3.0009155,8.671936,3.671936,8.0009155,4.5,8h15c0.828064,0.0009155,1.4990845,0.671936,1.5,1.5V12.1669922z"/></svg>