<svg xmlns="http://www.w3.org/2000/svg" enable-background="new 0 0 24 24" viewBox="0 0 24 24"><path fill="#6563ff" d="M19.5,6H16V5c0-1.1-0.9-2-2-2h-4C9.2,3,8.5,3.5,8.2,4.2c-0.1,0.3,0,0.5,0.3,0.7c0.3,0.1,0.5,0,0.7-0.3C9.3,4.2,9.6,4,10,4h4c0.6,0,1,0.4,1,1v1h-4.2c-0.3,0-0.5,0.2-0.5,0.5S10.5,7,10.8,7h4.7h0h4C20.3,7,21,7.7,21,8.5V11c-0.1,0-0.1,0-0.2,0l-4,1.3c-0.2,0.1-0.3,0.3-0.3,0.5c0,0.3,0.2,0.5,0.5,0.5c0.1,0,0.1,0,0.2,0L21,12v5.3c0,0,0,0,0,0c0,0.3,0.2,0.5,0.5,0.5c0,0,0,0,0,0c0.3,0,0.5-0.2,0.5-0.5V8.5C22,7.1,20.9,6,19.5,6z M20.7,19.9C20.7,19.9,20.7,19.9,20.7,19.9l-6.8-6.8c0,0,0,0,0,0l-7-7c0,0,0,0,0,0l-4-4C2.7,2,2.4,2,2.2,2.1C2,2.3,2,2.7,2.1,2.9L5.3,6H4.5C3.1,6,2,7.1,2,8.5v10C2,19.9,3.1,21,4.5,21h15c0.2,0,0.5,0,0.7-0.1l1,1c0.1,0.1,0.2,0.1,0.4,0.1c0.1,0,0.3-0.1,0.4-0.1c0.2-0.2,0.2-0.5,0-0.7L20.7,19.9z M3,8.5C3,7.7,3.7,7,4.5,7h1.8l6,6H9.1l-5.9-2c-0.1,0-0.1,0-0.2,0V8.5z M4.5,20C3.7,20,3,19.3,3,18.5V12L8.8,14c0.1,0,0.1,0,0.2,0h4.3l6,6H4.5z"/></svg>