<svg xmlns="http://www.w3.org/2000/svg" enable-background="new 0 0 24 24" viewBox="0 0 24 24"><path fill="#6563ff" d="M22.9813843,14.4075317c-0.0020142-0.0281372-0.0065918-0.0560303-0.0136108-0.083313l-0.007019-0.0184937l-0.0002441-0.0006714l-2.7791748-7.4112549C21.2541504,6.5915527,21.9963989,5.614563,22,4.5C22,4.223877,21.776123,4,21.5,4S21,4.223877,21,4.5c-0.0003052,0.8287354-0.6723633,1.5003052-1.5010986,1.500061c-0.5522461-0.0002441-1.0596924-0.3037109-1.321167-0.7900391C17.7423706,4.4437256,16.9210205,3.9788208,16.039978,4H12.5V2.5C12.5,2.223877,12.276123,2,12,2s-0.5,0.223877-0.5,0.5V4H7.960022C7.0792236,3.9788818,6.2580566,4.4432983,5.8222656,5.2089844c-0.3917236,0.7301636-1.3011475,1.0045166-2.03125,0.612793C3.3040161,5.5605469,3.000061,5.0526733,3,4.5C3,4.223877,2.776123,4,2.5,4S2,4.223877,2,4.5c0.0036011,1.114563,0.7458496,2.0915527,1.8186646,2.3937988l-2.7792358,7.4112549l-0.0002441,0.0006714l-0.007019,0.0184937c-0.007019,0.0272827-0.0115967,0.0551758-0.0136108,0.083313C1.0093384,14.4376831,1.0031128,14.4686279,1,14.5l0.0013428,0.0134888l0.0020752,0.0200806C1.0200806,16.4646606,2.5990601,18.0166626,4.5301514,18c1.9075928-0.0164795,3.4499512-1.5588379,3.4664307-3.4664307l0.0020752-0.0200806L8,14.5c-0.0128784-0.0581665-0.0236206-0.1168213-0.0322266-0.1757812l-0.006958-0.0184937l-0.0002441-0.0006714L5.1846924,6.9025879C5.8348999,6.7178345,6.3826294,6.277771,6.703125,5.6826172C6.9677124,5.2443848,7.4484253,4.9833374,7.960022,5H11.5v16h-4C7.223877,21,7,21.223877,7,21.5S7.223877,22,7.5,22h9c0.276123,0,0.5-0.223877,0.5-0.5S16.776123,21,16.5,21h-4V5h3.539978c0.5119019-0.0166626,0.9927368,0.244873,1.2568359,0.6835938c0.3207397,0.5947266,0.8684692,1.0344849,1.5184326,1.2190552l-2.7758789,7.4024048l-0.0002441,0.0006714l-0.006958,0.0184937C16.0235596,14.3831787,16.0128784,14.4418335,16,14.5l0.0013428,0.0134888l0.0020752,0.0200806C16.0200806,16.4646606,17.5990601,18.0166626,19.5301514,18c1.9075928-0.0164185,3.4500122-1.5588379,3.4664307-3.4664307l0.0020752-0.0200806L23,14.5C22.9968872,14.4686279,22.9906616,14.4376831,22.9813843,14.4075317z M4.5,17c-1.1875-0.001709-2.2106934-0.836853-2.4501953-2h4.9003906C6.7106934,16.163147,5.6875,16.998291,4.5,17z M6.7788086,14H2.2211914L4.5,7.9231567L6.7788086,14z M19.5,7.9231567L21.7788086,14h-4.5576172L19.5,7.9231567z M19.5,17c-1.1875-0.001709-2.2106934-0.836853-2.4501953-2h4.9003906C21.7106934,16.163147,20.6875,16.998291,19.5,17z"/></svg>