<svg xmlns="http://www.w3.org/2000/svg" enable-background="new 0 0 24 24" viewBox="0 0 24 24"><path fill="#6563ff" d="M12,2C6.4771729,2,2,6.4771729,2,12s4.4771729,10,10,10c5.5201416-0.0064697,9.9935303-4.4798584,10-10C22,6.4771729,17.5228271,2,12,2z M12,21c-4.9705811,0-9-4.0294189-9-9c0-2.3052368,0.8740845-4.4013062,2.2993774-5.9935913l12.6942139,12.6942139C16.4013062,20.1259155,14.3052368,21,12,21z M18.7006226,17.9935913L6.0064087,5.2994385C7.5987549,3.8741455,9.6947632,3,12,3c4.9683228,0.0054321,8.9945679,4.0316772,9,9C21,14.3052368,20.1259155,16.4013062,18.7006226,17.9935913z"/></svg>