<svg xmlns="http://www.w3.org/2000/svg" enable-background="new 0 0 24 24" viewBox="0 0 24 24"><path fill="#6563ff" d="M20.5116577,11.9987183c2.0289917-2.3776855,1.9501953-5.9370117-0.2880249-8.1914673c-2.2506104-2.2668457-5.833374-2.3584595-8.2234497-0.317627C9.6224365,1.4591064,6.0620117,1.5375366,3.8070679,3.7763672c-2.2608032,2.2446899-2.3572998,5.8137817-0.333313,8.2039795c-0.946167,1.0976562-1.4758911,2.4993286-1.4750366,3.9584351c0.0020752,3.3479614,2.7177734,6.0603638,6.0657349,6.0582886c1.4488525,0.0027466,2.8419189-0.5186157,3.9354858-1.4530029c1.0935669,0.9343872,2.4867554,1.4557495,3.9356079,1.4530029c1.6100464,0.0009766,3.1543579-0.6386108,4.2922974-1.7776489C22.484436,17.9605713,22.5614014,14.3793945,20.5116577,11.9987183z M19.1456909,4.1474609c2.1635132,1.7731323,2.4799805,4.9644165,0.7068481,7.1279297l-7.1279297-7.1279297C14.5915527,2.6174316,17.2787476,2.6174316,19.1456909,4.1474609z M4.8543091,19.8525391c-2.1635132-1.7731323-2.4799805-4.9644165-0.7068481-7.1279297l7.1279297,7.1279297C9.4084473,21.3825684,6.7211914,21.3825684,4.8543091,19.8525391z M19.5166016,19.5166016c-1.9780273,1.9780273-5.1850586,1.9780273-7.1630859,0l-7.8701172-7.8701172c-0.9509277-0.9501953-1.4849243-2.239563-1.484314-3.5838623c0.0012817-2.7962036,2.269165-5.0619507,5.0653687-5.0606079c1.3435669-0.0023804,2.6326294,0.5307007,3.5820312,1.4813843l7.8701172,7.8701172C21.4946289,14.331543,21.4946289,17.5385742,19.5166016,19.5166016z M12.0023193,12.975647c-0.8278198-0.0006714-1.4995117,0.6699219-1.5001221,1.4978027C10.5015259,15.3013306,11.1721191,15.9729614,12,15.9736328c0.3977661,0.0005493,0.7793579-0.1571655,1.0605469-0.4384766c0.281189-0.2808838,0.4393311-0.6619263,0.4396362-1.0593262C13.5007935,13.6479492,12.8302002,12.9762573,12.0023193,12.975647z M11.9998779,14.9746094c-0.276123,0-0.5-0.223877-0.499939-0.500061C11.5,14.1984253,11.723877,13.9746094,12,13.9746094c0.1326294-0.0001221,0.2598877,0.0525513,0.3535156,0.1464844c0.09375,0.093811,0.1464233,0.2210083,0.1464233,0.3535767C12.4998779,14.7508545,12.276001,14.9746704,11.9998779,14.9746094z M11.0255737,12.0011597c0.0006104-0.8278809-0.6699829-1.4995117-1.4978638-1.5001831c-0.8278198-0.0006104-1.4995117,0.6699829-1.5001221,1.4978638c-0.0006714,0.8278809,0.6699219,1.4995117,1.4978027,1.5001831c0.3977661,0.0005493,0.7793579-0.1572266,1.0605469-0.4384766C10.8671265,12.7796631,11.0252686,12.3986206,11.0255737,12.0011597z M9.5252686,12.5c-0.276123-0.000061-0.5-0.223938-0.499939-0.500061s0.223938-0.5,0.500061-0.499939c0.1326294-0.0001831,0.2598877,0.0525513,0.3535156,0.1464844c0.09375,0.09375,0.1464233,0.2209473,0.1464233,0.3535767C10.0252686,12.2761841,9.8013916,12.500061,9.5252686,12.5z M14.4769287,10.5009766c-0.8278198-0.0006104-1.4995117,0.6699829-1.5001221,1.4978638c-0.0006714,0.8278809,0.6699219,1.4995117,1.4978027,1.5001831c0.3977661,0.0005493,0.7793579-0.1572266,1.0605469-0.4384766c0.281189-0.2808838,0.4393311-0.6619263,0.4396362-1.0593872C15.9754028,11.1732788,15.3048096,10.5016479,14.4769287,10.5009766z M14.4744873,12.5c-0.2761841-0.000061-0.5-0.223938-0.499939-0.500061c0-0.2761841,0.223938-0.5,0.500061-0.499939c0.1326294-0.0001831,0.2598877,0.0525513,0.3535156,0.1464844c0.09375,0.09375,0.1464233,0.2209473,0.1464233,0.3535767C14.9744873,12.2762451,14.7506104,12.500061,14.4744873,12.5z M12,11.0244141c0.3977661,0.0005493,0.7793579-0.1571655,1.0605469-0.4384766c0.281189-0.2808838,0.4393311-0.6619263,0.4396362-1.0593262c0.0006104-0.8278809-0.6699829-1.4995728-1.4978638-1.5001831c-0.8278198-0.0006714-1.4995117,0.6699219-1.5001221,1.4978027C10.5015259,10.3521118,11.1721191,11.0237427,12,11.0244141z M12,9.0253906c0.1326294-0.0001831,0.2598877,0.0525513,0.3535156,0.1464844c0.09375,0.093811,0.1464233,0.2210083,0.1464233,0.3536377c-0.000061,0.276123-0.223938,0.499939-0.500061,0.4998779c-0.2761841,0-0.5-0.223938-0.499939-0.500061C11.499939,9.2492065,11.723877,9.0253906,12,9.0253906z"/></svg>