<svg xmlns="http://www.w3.org/2000/svg" enable-background="new 0 0 24 24" viewBox="0 0 24 24"><path fill="#6563ff" d="M11.8261719,17.5673828c-0.1260376-0.2460327-0.4276733-0.3432617-0.6737061-0.2171631c-0.2446899,0.1253662-0.3424072,0.4246826-0.2188721,0.6702881c0.1367188,0.2675781,0.2626953,0.5410156,0.3779297,0.8173828c0.0777588,0.1864014,0.2599487,0.3077393,0.4619141,0.3076172c0.065979-0.0001831,0.1312866-0.0131226,0.1923828-0.0380859c0.2546997-0.1066895,0.3751831-0.3991699,0.2695312-0.6542969C12.1103516,18.1533203,11.9726562,17.8583984,11.8261719,17.5673828z M10.8027344,15.8994141c-0.1914062-0.2617188-0.3932495-0.5172729-0.6054688-0.7666016c-0.1790771-0.2103271-0.494751-0.2357178-0.7050781-0.0566406s-0.2357178,0.494751-0.0566406,0.7050781c0.1962891,0.2294922,0.3825073,0.4655151,0.5585938,0.7080078c0.1638794,0.2225342,0.4771118,0.2701416,0.699707,0.1062622C10.9150391,16.4326782,10.963623,16.1220093,10.8027344,15.8994141z M6.3835449,12.1195068l-0.0007324-0.0003662c-0.2919922-0.1494141-0.5878906-0.286438-0.8876953-0.4111328c-0.255127-0.1057129-0.5476074,0.0153809-0.6533203,0.2705078s0.0153809,0.5476074,0.2705078,0.6533203c0.2744141,0.1142578,0.5462036,0.2402344,0.8154297,0.3779297c0.2458496,0.1258545,0.5471802,0.0286255,0.6730347-0.2172241C6.7266235,12.5467529,6.6293945,12.2454224,6.3835449,12.1195068z M8.2207031,13.2724609l-0.1757812-0.1298828c-0.2231445-0.1627808-0.5359497-0.1138306-0.6987305,0.1092529c-0.1627808,0.2231445-0.1138916,0.5359497,0.1092529,0.6987305c0.0011597,0.0008545,0.0023804,0.001709,0.00354,0.0025635l0.1591797,0.1171875c0.1884766,0.1425781,0.3701172,0.289978,0.5458984,0.4404297c0.2097778,0.1796265,0.5254517,0.1550903,0.7050781-0.0546875c0.1795654-0.2097778,0.1550903-0.5254517-0.0546875-0.7050781C8.6229858,13.5869141,8.4257812,13.4277344,8.2207031,13.2724609z M13.062439,5.8554688H13.0625c-0.1367188-0.2685547-0.2623901-0.5410156-0.3770142-0.8173828c-0.1057129-0.255127-0.3981934-0.3762207-0.6533203-0.2705078c-0.2550659,0.1057129-0.3762207,0.3981934-0.2705078,0.6533203c0.1240234,0.2998047,0.2617188,0.5957031,0.4101562,0.8876953c0.1251221,0.2459106,0.4259644,0.3438721,0.671875,0.21875C13.0896606,6.4022217,13.187561,6.1013794,13.062439,5.8554688z M19.0712891,4.9287109C15.1659546,1.0266724,8.836731,1.0292969,4.9346924,4.9346924C1.0325928,8.8400269,1.0352783,15.1692505,4.9406738,19.0712891c3.9030151,3.8997192,10.2276001,3.8997192,14.1306152,0C22.9697266,15.1630859,22.9697266,8.8369141,19.0712891,4.9287109z M18.3642578,18.3642578h0.000061c-1.6750488,1.6765137-3.9454956,2.6220703-6.3154297,2.6300049l0.9071655-0.1730347c-0.0332031-0.1708984-0.0709229-0.3414307-0.1132812-0.5117188c-0.0678101-0.2676392-0.3397827-0.4296875-0.6074219-0.3618774c-0.265625,0.0672607-0.4276123,0.3358154-0.3632812,0.6021118c0.0369873,0.1478271,0.0689087,0.2965698,0.0976562,0.4453735c-4.9610596-0.0097656-8.9747925-4.0393677-8.9650269-9.0004272v-0.0059204c0.1299438,0.0263062,0.2598877,0.053833,0.3898315,0.0853882c0.0380249,0.0093384,0.0770264,0.013916,0.1162109,0.0136719c0.276123,0.000061,0.500061-0.2237549,0.500061-0.4998779c0.000061-0.2314453-0.1587524-0.4326782-0.3838501-0.4864502c-0.1708984-0.0409546-0.3398438-0.0771484-0.5117188-0.1103516c-0.0164185-0.0003052-0.0328979,0.0003052-0.0492554,0.0018311c0.4605713-4.1956787,3.7866821-7.5010986,7.9851074-7.9356079c0.0317993,0.1663818,0.0679321,0.3328247,0.1071167,0.498291c0.0527344,0.2260132,0.2542725,0.3858643,0.4863281,0.3857422c0.0385132,0.0002441,0.0769043-0.0043335,0.1142578-0.0136719c0.2683716-0.0626831,0.4350586-0.3311157,0.3723755-0.5994873c-0.0001221-0.0003662-0.0001831-0.0007324-0.0003052-0.0010986c-0.0247192-0.1063232-0.0461426-0.2133179-0.0681763-0.3202515c4.9060669,0.0240479,8.8831787,3.9841309,8.9282837,8.8900146c-0.1273804-0.0263672-0.2550049-0.0533447-0.3815918-0.0844116c-0.2685547-0.0646973-0.5387573,0.1005859-0.6035156,0.3691406c-0.0646973,0.2686157,0.1005859,0.5388184,0.3691406,0.6035156c0.1689453,0.0400391,0.3388672,0.078125,0.5087891,0.1113281c0.0215454,0.0037842,0.043335,0.0059814,0.0651855,0.0065308C20.7458496,14.9678345,19.8322754,16.8981323,18.3642578,18.3642578z M18.8925781,11.2509766c-0.2763672-0.1152344-0.5485229-0.2412109-0.8164062-0.3779297c-0.2454224-0.126709-0.5470581-0.0304565-0.6737671,0.2149658s-0.0304565,0.5470581,0.2149658,0.6737671c0.0012207,0.0006104,0.0024414,0.0012817,0.0037231,0.0018921c0.2910156,0.1484375,0.5872192,0.2855225,0.8886719,0.4111328c0.06073,0.0250244,0.1257324,0.0379639,0.1914062,0.0380859c0.276123,0,0.5-0.2238159,0.5-0.5C19.2011719,11.5106812,19.0794067,11.3284302,18.8925781,11.2509766z M14.1289062,7.5556641l-0.1229858-0.164978c-0.1622314-0.2235718-0.4749146-0.2732544-0.6984863-0.1110229c-0.2229004,0.1618042-0.2730103,0.4733887-0.1120605,0.6969604l0.1386719,0.1855469c0.1513672,0.2001953,0.3079224,0.3951416,0.4697266,0.5849609c0.1795654,0.2098389,0.4952393,0.234314,0.7050781,0.0546875c0.2097778-0.1795654,0.2342529-0.4952393,0.0546875-0.7050781C14.414978,7.9228516,14.2705078,7.7431641,14.1289062,7.5556641z M16.5429688,9.9296875c-0.2421875-0.1757812-0.4778442-0.3619995-0.7070312-0.5585938c-0.2097778-0.1796265-0.5254517-0.1550903-0.7050781,0.0546875s-0.1550903,0.5254517,0.0546875,0.7050781c0.2490234,0.2138672,0.5058594,0.4160156,0.7675781,0.6074219c0.2225342,0.1638794,0.5358276,0.116333,0.699707-0.1062012s0.116333-0.5358276-0.1062012-0.699707C16.5454102,9.9314575,16.5441895,9.930603,16.5429688,9.9296875z"/></svg>