<svg xmlns="http://www.w3.org/2000/svg" enable-background="new 0 0 24 24" viewBox="0 0 24 24"><path fill="#6563ff" d="M14.5,7C14.776123,7,15,6.776123,15,6.5S14.776123,6,14.5,6h-5C9.223877,6,9,6.223877,9,6.5S9.223877,7,9.5,7H14.5z M18.5,10h-13C5.223877,10,5,10.223877,5,10.5S5.223877,11,5.5,11H8v10.5005493C8.0001831,21.7765503,8.223999,22.0001831,8.5,22h0.0006104C8.7765503,21.9998169,9.0001831,21.776001,9,21.5v-2h2.5v1.5005493C11.5001831,21.2765503,11.723999,21.5001831,12,21.5h0.0006104C12.2765503,21.4998169,12.5001831,21.276001,12.5,21v-1.5H15v2.0005493C15.0001831,21.7765503,15.223999,22.0001831,15.5,22h0.0006104C15.7765503,21.9998169,16.0001831,21.776001,16,21.5V11h2.5c0.276123,0,0.5-0.223877,0.5-0.5S18.776123,10,18.5,10z M11.5,18.5H9v-3h2.5V18.5z M11.5,14.5H9V11h2.5V14.5z M15,18.5h-2.5v-3H15V18.5z M15,14.5h-2.5V11H15V14.5z M20.5,2h-17C2.119812,2.0012817,1.0012817,3.119812,1,4.5v9c0.0012817,1.380188,1.119812,2.4987183,2.5,2.5h1C4.776123,16,5,15.776123,5,15.5S4.776123,15,4.5,15h-1c-0.828064-0.0009155-1.4990845-0.671936-1.5-1.5v-9C2.0009155,3.671936,2.671936,3.0009155,3.5,3h17c0.828064,0.0009155,1.4990845,0.671936,1.5,1.5v9c-0.0009155,0.828064-0.671936,1.4990845-1.5,1.5h-1c-0.276123,0-0.5,0.223877-0.5,0.5s0.223877,0.5,0.5,0.5h1c1.380188-0.0012817,2.4987183-1.119812,2.5-2.5v-9C22.9987183,3.119812,21.880188,2.0012817,20.5,2z"/></svg>