<svg xmlns="http://www.w3.org/2000/svg" enable-background="new 0 0 24 24" viewBox="0 0 24 24"><path fill="#6563ff" d="M21.9541016,11.0820312c-0.000061-0.0004272-0.0004272-0.0007324-0.0004883-0.0011597c-0.4368286-4.7879639-4.2455444-8.5970459-9.0333862-9.0344238c-0.0007935-0.000061-0.0014038-0.0004883-0.0021973-0.0005493C12.6142578,2.0185547,12.3095703,2,12,2C8.3914795,2,5.2389526,3.9177856,3.4804077,6.7833252C3.4801636,6.7836914,3.4797363,6.7838135,3.4794922,6.7841797C3.4786377,6.7855835,3.4780273,6.7872314,3.4771729,6.7886353C3.0073853,7.5552368,2.637146,8.387146,2.3864746,9.2718506C2.3770752,9.3047485,2.3700562,9.3380127,2.3609619,9.3709717c-0.1011353,0.3713989-0.1798096,0.7510986-0.237854,1.1383667c-0.0119629,0.0784912-0.0257568,0.1560669-0.0358276,0.2348022C2.0355225,11.1564331,2,11.5736694,2,12c0,0.0057373,0.0008545,0.0111694,0.0008545,0.0168457C2.0008545,12.0209961,2,12.0251465,2,12.0292969c0.0003662,0.2529907,0.0200806,0.5010376,0.0389404,0.7492676c0.0037231,0.0461426,0.0028076,0.0932617,0.006958,0.1394043c0.000061,0.0004272,0.0003052,0.0008545,0.0003662,0.0012817C2.5047607,18.015625,6.7857056,22.0076904,12,22c0.321167,0.0005493,0.6403198-0.019104,0.9578247-0.0494385c0.072876-0.007019,0.1442261-0.0181274,0.2166138-0.0267334c0.2399902-0.0282593,0.4782104-0.0641479,0.7147217-0.1097412c0.0881348-0.0169678,0.1754761-0.0354614,0.2627563-0.0547485c0.2191772-0.0484619,0.4359131-0.1047363,0.651062-0.1679077c0.086853-0.0254517,0.1740723-0.0492554,0.2599487-0.0769653c0.2235718-0.0723267,0.4434814-0.1544189,0.661438-0.2424927c0.0545654-0.0219727,0.1119385-0.0380249,0.1660156-0.0609131c0.0127563-0.0053711,0.0245361-0.0125122,0.0372314-0.0179443c0.270752-0.1164551,0.5369263-0.2438354,0.796936-0.3843384c0.111145-0.0598145,0.2161865-0.1287231,0.324707-0.1925049c0.1403809-0.0829468,0.2815552-0.1641235,0.4180908-0.2541504c0.1554565-0.1019287,0.3041992-0.2121582,0.4534912-0.3223267c0.0536499-0.039856,0.1102295-0.0749512,0.163147-0.1159668c0.0047607-0.0036621,0.0058594-0.0100708,0.010498-0.013916c0.086731-0.0670166,0.178772-0.1272583,0.2632446-0.1969604c0.4936523-0.4075928,0.9476318-0.8615723,1.3552246-1.3552246C21.1393433,16.6298218,21.9971924,14.4151001,22.000061,12C22.000061,11.6894531,21.9815063,11.3857422,21.9541016,11.0820312z M13.5,4c-0.0018311-0.2911377-0.0205688-0.581604-0.0490723-0.8710938c3.8033447,0.6216431,6.7989502,3.6174927,7.4202881,7.4210205c-0.8382568-0.0825806-1.6844482-0.057373-2.5167236,0.0848389c-1.293457,0.2210083-2.4794922,0.6960449-3.5174561,1.3639526c-0.8648682-1.0245972-1.8592529-1.9299927-2.958252-2.6972656C12.9002686,7.7873535,13.4977417,5.963501,13.5,4z M12,3c0.1469116,0.0001831,0.2900391,0.0152588,0.4352417,0.0223999C12.4767456,3.3465576,12.4987793,3.6730957,12.5,4c-0.0021362,1.7612305-0.5393677,3.3969116-1.4575806,4.7536621C9.1763916,7.6235962,7.0563965,6.8848267,4.7932739,6.631958C6.4341431,4.4337158,9.0465698,3.0032349,12,3z M3.0151367,12.2998657c-0.0042114-0.1276855-0.012146-0.2550659-0.0108643-0.3831177c0.00177-0.1725464,0.0150757-0.3421631,0.0264282-0.5123291c0.008728-0.1300659,0.0123291-0.2601318,0.0267944-0.3901367c0.0147095-0.1334839,0.0402222-0.2634277,0.0606689-0.3950806c0.0263672-0.1679688,0.048584-0.3361206,0.0847168-0.5032959c0.0141602-0.06604,0.034729-0.1296387,0.050293-0.1951294c0.0552368-0.2302856,0.1131592-0.4603271,0.187439-0.6878662C3.4421997,9.2278442,3.444458,9.2230225,3.446106,9.2179565c0.1849365-0.5631714,0.4279175-1.1164551,0.732605-1.6515503c2.2651978,0.1734009,4.3845825,0.8796387,6.2435913,1.9845581C8.8639526,11.3518677,6.5678711,12.4969482,4,12.5c-0.3270264-0.0012207-0.6535645-0.0232544-0.9780273-0.0648193C3.0198364,12.3900146,3.0166626,12.3452148,3.0151367,12.2998657z M10.0449219,20.7808228c-0.097168-0.0215454-0.1918335-0.0492554-0.2878418-0.0739746c-0.2868042-0.0736084-0.5706177-0.1617432-0.8510132-0.2642822c-0.0942383-0.0345459-0.1900024-0.065979-0.2827148-0.1035156c-0.3381348-0.1367798-0.670166-0.2946167-0.9942627-0.4744873c-0.1564331-0.0871582-0.3076782-0.182373-0.458252-0.2783813c-0.086792-0.0551147-0.1755371-0.1081543-0.2598267-0.1658325c-0.1769409-0.121582-0.3475952-0.2516479-0.5151367-0.3852539c-0.0547485-0.0435181-0.1110229-0.0855713-0.1645508-0.130127c-0.1793213-0.1499634-0.3514404-0.3079224-0.5184326-0.4711914c-0.0369873-0.0360718-0.0751343-0.071228-0.1114502-0.1078491c-0.1665039-0.168396-0.3248291-0.3446045-0.4777222-0.5256958c-0.034729-0.0411987-0.0704956-0.081604-0.1044312-0.1234131c-0.1416626-0.1740112-0.2748413-0.3549805-0.4033813-0.5393677c-0.0412598-0.0594482-0.0835571-0.1181641-0.12323-0.1785278c-0.1109009-0.1676025-0.2137451-0.3408203-0.3135376-0.5160522c-0.0488892-0.0863037-0.0985107-0.1721802-0.1444092-0.2599487c-0.0811768-0.1541748-0.1550293-0.312561-0.227356-0.4719238c-0.0513916-0.1138916-0.1032715-0.2276611-0.1497803-0.3434448c-0.0574341-0.1421509-0.1082153-0.2875366-0.1585083-0.4331665c-0.0462646-0.1346436-0.0926514-0.2692871-0.1325073-0.4058838c-0.0406494-0.1390381-0.074585-0.2808228-0.1086426-0.4225464c-0.0342407-0.1427002-0.0687866-0.2852783-0.0960693-0.4295654c-0.0140381-0.0743408-0.0222778-0.1506348-0.0344238-0.225708C3.4174805,13.4793091,3.708374,13.4981689,4,13.5c2.9213867-0.0033569,5.5316162-1.3259277,7.2741089-3.4014282c1.020813,0.708374,1.9454346,1.5443115,2.75177,2.4899292c-2.4121704,1.9446411-3.7918091,5.0219727-3.4714966,8.2738647C10.3844604,20.8348999,10.213501,20.8181763,10.0449219,20.7808228z M17.2103271,19.324707c-0.3441772,0.2458496-0.7016602,0.465332-1.0699463,0.6572876c-0.0202026,0.010498-0.0412598,0.0193481-0.0615234,0.0296631c-0.3389893,0.1734619-0.6876831,0.3209839-1.0419312,0.4487915c-0.0513306,0.0184326-0.1017456,0.0387573-0.1535034,0.0562744c-0.3768311,0.1282349-0.7598267,0.2337646-1.1478271,0.3106079c-0.0283203,0.0056152-0.0577393,0.0079346-0.0861816,0.0132446c-0.3408813,0.0640869-0.6851807,0.1032104-1.0304565,0.1275635c-0.1063232,0.0073853-0.2129517,0.0128784-0.3202515,0.0164795c-0.2446899,0.0084839-0.4894409-0.0013428-0.734314-0.0128784C11.5233154,20.649353,11.5012207,20.3249512,11.5,20c0.0031738-2.6694336,1.2374878-5.0480347,3.163147-6.6061401c1.2617798,1.713623,2.1647949,3.7163696,2.5696411,5.9140625C17.2251587,19.3133545,17.2179565,19.3192749,17.2103271,19.324707z M18.0973511,18.600769c-0.4709473-2.1374512-1.3760986-4.0942383-2.6183472-5.7852173C16.7893677,11.9884644,18.3363037,11.5020142,20,11.5c0.3269043,0.0012207,0.6534424,0.0232544,0.9776001,0.0647583C20.9847412,11.7099609,20.9998169,11.8530884,21,12C20.9971313,14.6123047,19.8758545,16.9568481,18.0973511,18.600769z"/></svg>