<svg xmlns="http://www.w3.org/2000/svg" enable-background="new 0 0 24 24" viewBox="0 0 24 24"><path fill="#6563ff" d="M22.5,12H4V6.5c0.0018311-1.6561279,1.3438721-2.9981689,3-3c0.3560791,0.0010376,0.7088623,0.0681152,1.0404663,0.197876c-0.675354,0.9916992-0.5513916,2.3232422,0.2954712,3.1732178L9.0429688,7.578064c0.1951294,0.1952515,0.5115356,0.1953125,0.7067871,0.0001831L9.749939,7.578064L12.578125,4.75c0.1952515-0.1951294,0.1953125-0.5115967,0.0001831-0.7068481c-0.000061-0.000061-0.0001221-0.0001221-0.0001831-0.0001221l-0.7070312-0.7070312c-0.8097534-0.8050537-2.0623169-0.9585571-3.0425415-0.3728027C8.2660522,2.6617432,7.6381836,2.5026855,7,2.5c-2.208252,0.0021973-3.9978027,1.791748-4,4V12H1.5C1.223877,12,1,12.223877,1,12.5S1.223877,13,1.5,13H3v4.5c0.0013428,1.1875,0.836792,2.2106323,2,2.4494629V21.5C5,21.776123,5.223877,22,5.5,22S6,21.776123,6,21.5V20h12v1.5c0,0.276123,0.223877,0.5,0.5,0.5s0.5-0.223877,0.5-0.5v-1.5505371C20.163208,19.7106323,20.9986572,18.6875,21,17.5V13h1.5c0.276123,0,0.5-0.223877,0.5-0.5S22.776123,12,22.5,12z M9.0430298,4.0430298c0.5861206-0.5846558,1.5349121-0.5846558,2.1210327,0l0.3535767,0.3534546L9.3964844,6.5176392L9.0430298,6.1640625C8.4580688,5.5780029,8.4580688,4.6290283,9.0430298,4.0430298z M20,17.5c-0.0009155,0.828064-0.671936,1.4990845-1.5,1.5h-13c-0.828064-0.0009155-1.4990845-0.671936-1.5-1.5V13h16V17.5z"/></svg>