<svg xmlns="http://www.w3.org/2000/svg" enable-background="new 0 0 24 24" viewBox="0 0 24 24"><path fill="#6563ff" d="M20,4H4C2.3438721,4.0018311,1.0018311,5.3438721,1,7v13.5005493C1.0001831,20.7765503,1.223999,21.0001831,1.5,21h4c0.1671143-0.0002441,0.3231201-0.0837402,0.4160156-0.2226562L7.7675781,18h8.4648438l1.8515625,2.7773438C18.1768799,20.9162598,18.3328857,20.9997559,18.5,21h4.0006104C22.7765503,20.9998169,23.0001831,20.776001,23,20.5V7C22.9981689,5.3438721,21.6561279,4.0018311,20,4z M22,20h-3.2324219l-1.8515625-2.7773438C16.8231201,17.0837402,16.6671143,17.0002441,16.5,17h-9c-0.1671143,0.0002441-0.3231201,0.0837402-0.4160156,0.2226562L5.2324219,20H2v-6h20V20z M6,13v-1.5c0.0009155-0.828064,0.671936-1.4990845,1.5-1.5H10c0.828064,0.0009155,1.4990845,0.671936,1.5,1.5V13H6z M12.5,13v-1.5c0.0009155-0.828064,0.671936-1.4990845,1.5-1.5h2.5c0.828064,0.0009155,1.4990845,0.671936,1.5,1.5V13H12.5z M22,13h-3v-1.5c-0.0012817-1.380188-1.119812-2.4987183-2.5-2.5H14c-0.8217163,0.0008545-1.5443115,0.4030151-2,1.0152588C11.5443115,9.4030151,10.8217163,9.0008545,10,9H7.5C6.119873,9.0014648,5.0014648,10.119873,5,11.5V13H2V7c0.0012817-1.1040649,0.8959351-1.9987183,2-2h16c1.1040039,0.0014038,1.9985962,0.8959961,2,2V13z"/></svg>