<svg xmlns="http://www.w3.org/2000/svg" enable-background="new 0 0 24 24" viewBox="0 0 24 24"><path fill="#6563ff" d="M7,13c1.6561279-0.0018311,2.9981689-1.3438721,3-3c0-1.6568604-1.3431396-3-3-3s-3,1.3431396-3,3S5.3431396,13,7,13z M7,8c1.1040039,0.0014038,1.9985962,0.8959961,2,2c0,1.1045532-0.8954468,2-2,2s-2-0.8954468-2-2S5.8954468,8,7,8z M20,7h-8.5005493C11.2234497,7.0001831,10.9998169,7.223999,11,7.5v7H2v-9C2,5.223877,1.776123,5,1.5,5S1,5.223877,1,5.5v14C1,19.776123,1.223877,20,1.5,20S2,19.776123,2,19.5v-4h20v4.0005493C22.0001831,19.7765503,22.223999,20.0001831,22.5,20h0.0006104C22.7765503,19.9998169,23.0001831,19.776001,23,19.5V10C22.9981689,8.3438721,21.6561279,7.0018311,20,7z M22,14.5H12V8h8c1.1040039,0.0014038,1.9985962,0.8959961,2,2V14.5z"/></svg>