<svg xmlns="http://www.w3.org/2000/svg" enable-background="new 0 0 24 24" viewBox="0 0 24 24"><path fill="#6563ff" d="M12,10.625c0.3451538,0,0.625-0.2798462,0.625-0.625S12.3451538,9.375,12,9.375S11.375,9.6548462,11.375,10S11.6548462,10.625,12,10.625z M24,8c0-1.1045532-0.8954468-2-2-2s-2,0.8954468-2,2s0.8954468,2,2,2c0.0821533-0.0001221,0.1602783-0.0147705,0.2398071-0.0244751C22.3964233,10.4698486,22.4994507,10.9797363,22.5,11.5c0.0098877,2.3156128-1.5848999,4.2939453-3.8030396,4.8321533c-0.3678589-0.6894531-1.0424194-1.1821289-1.8468628-1.2965698C18.1714478,13.7625732,18.9976196,11.979248,19,10c0-3.8659668-3.1340332-7-7-7s-7,3.1340332-7,7c0,1.979187,0.8247681,3.7628784,2.1452637,5.0360718C5.9346924,15.2105713,5.0011597,16.241333,5,17.5v1c0.0012817,1.380188,1.119812,2.4987183,2.5,2.5h9c1.380188-0.0012817,2.4987183-1.119812,2.5-2.5v-1c-0.000061-0.0726318-0.0154419-0.1409912-0.0215454-0.2120361C21.6176147,16.6264038,23.5111084,14.2639771,23.5,11.5c-0.0003052-0.6472778-0.109436-1.2877808-0.3117065-1.9006958C23.6776733,9.2347412,23.9991455,8.6570435,24,8z M6,10c0-3.3137207,2.6862793-6,6-6c3.3121948,0.0036011,5.9963989,2.6878052,6,6c0,3.3137207-2.6862793,6-6,6S6,13.3137207,6,10z M18,18.5c-0.0009155,0.828064-0.671936,1.4990845-1.5,1.5h-9c-0.828064-0.0009155-1.4990845-0.671936-1.5-1.5v-1c0.0009155-0.828064,0.671936-1.4990845,1.5-1.5h0.90802C9.4591064,16.6307373,10.6849976,17,12,17c1.3126221-0.0015869,2.5362549-0.3706665,3.5859375-1H16.5c0.828064,0.0009155,1.4990845,0.671936,1.5,1.5V18.5z M22.3979492,8.9155884c-0.0024414,0.0009155-0.0049438,0.0004272-0.0073242,0.0014038c-0.003479,0.0014038-0.0056152,0.0045166-0.0090332,0.0059814C22.263855,8.9716797,22.135376,9,22,9c-0.5523071,0-1-0.4476929-1-1s0.4476929-1,1-1c0.552124,0.0003662,0.9996338,0.447876,1,1C23,8.4104614,22.7516479,8.7614746,22.3979492,8.9155884z"/></svg>