<svg xmlns="http://www.w3.org/2000/svg" enable-background="new 0 0 24 24" viewBox="0 0 24 24"><path fill="#6563ff" d="M18,14.1V10c0-3.1-2.4-5.7-5.5-6V2.5C12.5,2.2,12.3,2,12,2s-0.5,0.2-0.5,0.5V4C8.4,4.3,6,6.9,6,10v4.1c-1.1,0.2-2,1.2-2,2.4v2C4,18.8,4.2,19,4.5,19h3.7c0.5,1.7,2,3,3.8,3c1.8,0,3.4-1.3,3.8-3h3.7c0.3,0,0.5-0.2,0.5-0.5v-2C20,15.3,19.1,14.3,18,14.1z M7,10c0-2.8,2.2-5,5-5s5,2.2,5,5v4H7V10z M13,20.8c-1.6,0.5-3.3-0.3-3.8-1.8h5.6C14.5,19.9,13.8,20.5,13,20.8z M19,18H5v-1.5C5,15.7,5.7,15,6.5,15h11c0.8,0,1.5,0.7,1.5,1.5V18z"/></svg>