<svg xmlns="http://www.w3.org/2000/svg" enable-background="new 0 0 24 24" viewBox="0 0 24 24"><path fill="#6563ff" d="M12,1C5.9248657,1,1,5.9248657,1,12s4.9248657,11,11,11c6.0722656-0.0068359,10.9931641-4.9277344,11-11C23,5.9248657,18.0751343,1,12,1z M12,22C6.4771729,22,2,17.5228271,2,12S6.4771729,2,12,2c5.5201416,0.0064697,9.9935303,4.4798584,10,10C22,17.5228271,17.5228271,22,12,22z M16.5,9.9979858C16.4994507,8.6178589,15.380188,7.4994507,14,7.5h-0.5V6c0-0.276123-0.223877-0.5-0.5-0.5S12.5,5.723877,12.5,6v1.5h-2V6c0-0.276123-0.223877-0.5-0.5-0.5S9.5,5.723877,9.5,6v1.5H8C7.723877,7.5,7.5,7.723877,7.5,8S7.723877,8.5,8,8.5h1.5v7H8c-0.276123,0-0.5,0.223877-0.5,0.5s0.223877,0.5,0.5,0.5h1.5V18c0,0.0001831,0,0.0003662,0,0.0005493C9.5001831,18.2765503,9.723999,18.5001831,10,18.5c0.0001831,0,0.0003662,0,0.0006104,0C10.2765503,18.4998169,10.5001831,18.276001,10.5,18v-1.5h2V18c0,0.0001831,0,0.0003662,0,0.0005493C12.5001831,18.2765503,12.723999,18.5001831,13,18.5c0.0001831,0,0.0003662,0,0.0006104,0C13.2765503,18.4998169,13.5001831,18.276001,13.5,18v-1.5H14c0.7879639,0.0003052,1.5299683-0.3710327,2.0020142-1.0020142C16.8287964,14.3928833,16.6031494,12.8267822,15.4979858,12C16.1289673,11.5279541,16.5003052,10.7860107,16.5,9.9979858z M15.5,14c0,0.8284302-0.6715698,1.5-1.5,1.5h-3.5v-3H14C14.8284302,12.5,15.5,13.1715698,15.5,14z M14,11.5h-3.5v-3H13h0.0006104H14c0.8284302,0,1.5,0.6715698,1.5,1.5S14.8284302,11.5,14,11.5z"/></svg>