<svg xmlns="http://www.w3.org/2000/svg" enable-background="new 0 0 24 24" viewBox="0 0 24 24"><path fill="#6563ff" d="M16.7767334,12C17.8039551,11.3900757,18.5,10.281311,18.5,9c0-1.9329834-1.5670166-3.5-3.5-3.5h-0.5V3c0-0.276123-0.223877-0.5-0.5-0.5S13.5,2.723877,13.5,3v2.5h-3V3c0-0.276123-0.223877-0.5-0.5-0.5S9.5,2.723877,9.5,3v2.5H6C5.723877,5.5,5.5,5.723877,5.5,6S5.723877,6.5,6,6.5h1.5v11H6c-0.276123,0-0.5,0.223877-0.5,0.5s0.223877,0.5,0.5,0.5h3.5v2.5005493C9.5001831,21.2765503,9.723999,21.5001831,10,21.5h0.0006104C10.2765503,21.4998169,10.5001831,21.276001,10.5,21v-2.5h3v2.5005493C13.5001831,21.2765503,13.723999,21.5001831,14,21.5h0.0006104C14.2765503,21.4998169,14.5001831,21.276001,14.5,21v-2.5H15c1.9329834,0,3.5-1.5670166,3.5-3.5C18.5,13.718689,17.8039551,12.6099243,16.7767334,12z M8.5,6.5H15c1.3807373,0,2.5,1.1192627,2.5,2.5s-1.1192627,2.5-2.5,2.5H8.5V6.5z M15,17.5H8.5v-5H15c1.3807373,0,2.5,1.1192627,2.5,2.5S16.3807373,17.5,15,17.5z"/></svg>