<svg xmlns="http://www.w3.org/2000/svg" enable-background="new 0 0 24 24" viewBox="0 0 24 24"><path fill="#6563ff" d="M12.7,12l4.1-4.1c0,0,0,0,0,0c0.2-0.2,0.2-0.5,0-0.7l-4.5-4.5c-0.1-0.1-0.2-0.1-0.4-0.1c-0.3,0-0.5,0.2-0.5,0.5v7.8L7.8,7.1C7.7,7,7.3,7,7.1,7.1C7,7.3,6.9,7.7,7.1,7.9l4.2,4.1l-4.2,4.1c-0.2,0.2-0.2,0.5,0,0.7c0.2,0.2,0.5,0.2,0.7,0l3.6-3.6V21c0,0.3,0.2,0.5,0.5,0.5c0.1,0,0.3-0.1,0.4-0.1l4.5-4.5c0,0,0,0,0,0c0.2-0.2,0.2-0.5,0-0.7L12.7,12z M12.5,4.2l3.3,3.3l-3.3,3.3V4.2z M12.5,19.8v-6.6l3.3,3.3L12.5,19.8z"/></svg>