<svg xmlns="http://www.w3.org/2000/svg" enable-background="new 0 0 24 24" viewBox="0 0 24 24"><path fill="#6563ff" d="M15.4804688,12c1.519165-0.9553833,1.9761963-2.9613647,1.020813-4.4804688C15.9064331,6.5736694,14.8673706,5.9997559,13.75,6H8.5C8.223999,5.9998169,8.0001831,6.2234497,8,6.4993896V17.5c-0.0001831,0.276001,0.2234497,0.4998169,0.4994507,0.5H13.75c1.7945557,0.0003662,3.2496338-1.4541626,3.25-3.2487183C17.0002441,13.6339111,16.4263306,12.5948486,15.4804688,12z M9,7h4.75C14.9926147,7,16,8.0073853,16,9.25s-1.0073853,2.25-2.25,2.25H9V7z M13.75,17H9v-4.5h4.75c1.2426147,0,2.25,1.0073853,2.25,2.25S14.9926147,17,13.75,17z"/></svg>