<svg xmlns="http://www.w3.org/2000/svg" enable-background="new 0 0 24 24" viewBox="0 0 24 24"><path fill="#6563ff" d="M21.8534546,21.1465454l-6.4205322-6.4205322l5.4342651-5.887146c0.0852051-0.0923462,0.1325684-0.2133789,0.1325684-0.3389893C20.9998169,8.2238159,20.776062,8,20.5,8h-4.859375l1.3447266-5.3789062c0.0099487-0.0397949,0.0149536-0.0806885,0.0149536-0.1217041C17.000061,2.2233276,16.776062,1.9997559,16.5,2h-8C8.2746582,2.0001831,8.0772705,2.1508789,8.0175781,2.3681641l-1.059082,3.8834229L2.8534546,2.1465454c-0.1937256-0.1871948-0.5009155-0.1871948-0.6947021,0C1.960144,2.3383789,1.9546509,2.6549072,2.1464844,2.8535156l4.5089722,4.5089722l-1.6378784,6.0056763c-0.0118408,0.0431519-0.0177612,0.0876465-0.0177612,0.1323853C5,13.7766113,5.223938,14.0001831,5.5,14h4.359375l-1.8447266,7.3789062c-0.0549927,0.2215576,0.0471191,0.4522095,0.2480469,0.5605469C8.3353882,21.9793701,8.4170532,22.0002441,8.5,22c0.1395874,0.000061,0.2727661-0.0583496,0.3671875-0.1611328l5.8870239-6.3776245l6.3922729,6.3922729C21.2401123,21.9474487,21.3673706,22.0001831,21.5,22c0.1325073-0.000061,0.2595825-0.0526733,0.3533325-0.1463623C22.048645,21.6583862,22.0487061,21.3417969,21.8534546,21.1465454z M9.460022,19.7236328l1.5253296-6.1025391c0.0099487-0.0397949,0.0149536-0.0806885,0.0149536-0.1217041C11.000061,13.2233276,10.776062,12.9997559,10.5,13H6.1542969l1.3155518-4.8231201l6.5772705,6.5772705L9.460022,19.7236328z M14.725769,14.0188599L7.7728271,7.065918L8.8818359,3h6.9775391l-1.3447266,5.3789062c-0.0099487,0.0397949-0.0149536,0.0806885-0.0149536,0.1217041C14.499939,8.7766724,14.723938,9.0002441,15,9h4.3583984L14.725769,14.0188599z"/></svg>