<svg xmlns="http://www.w3.org/2000/svg" enable-background="new 0 0 24 24" viewBox="0 0 24 24"><path fill="#6563ff" d="M19.5,9H14V2.5c-0.0001831-0.21521-0.1377563-0.40625-0.3417969-0.4746094c-0.2044067-0.0661621-0.4283447,0.0039062-0.5585938,0.1748047l-8.9995117,12C4.0350952,14.2868042,4,14.3921509,4,14.5004272C4.0001221,14.7764282,4.223999,15.0001221,4.5,15H10v6.5c0.0001831,0.21521,0.1377563,0.40625,0.3417969,0.4746094C10.3929443,21.9911499,10.4462891,21.9996948,10.5,22c0.1574707,0.0001831,0.3057251-0.0740356,0.3999023-0.2001953l9.0004883-12c0.0647583-0.0864868,0.0997314-0.1916504,0.0997314-0.2996826C20.0001221,9.223938,19.7761841,9,19.5,9z M11,20v-5.5006104C10.9998169,14.2234497,10.776001,13.9998169,10.5,14h-5L13,4v5.5005493C13.0001831,9.7765503,13.223999,10.0001831,13.5,10h5L11,20z"/></svg>