<svg xmlns="http://www.w3.org/2000/svg" enable-background="new 0 0 24 24" viewBox="0 0 24 24"><path fill="#6563ff" d="M20.5,8h-5.3066406l1.78125-5.3417969c0.0166626-0.050354,0.0252075-0.1030884,0.0253296-0.1561279C17.0004883,2.2254028,16.7766724,2.0006104,16.5,2h-8C8.2746582,2.0001831,8.0772705,2.1508789,8.0175781,2.3681641l-3,11c-0.0118408,0.0431519-0.0177612,0.0876465-0.0177612,0.1323853C5,13.7766113,5.223938,14.0001831,5.5,14h4.359375l-1.8447266,7.3789062c-0.0549927,0.2215576,0.0471191,0.4522095,0.2480469,0.5605469C8.3353882,21.9793701,8.4170532,22.0002441,8.5,22c0.1395874,0.000061,0.2727661-0.0583496,0.3671875-0.1611328l12-13c0.0852051-0.0923462,0.1325684-0.2133789,0.1325684-0.3389893C20.9998169,8.2238159,20.776062,8,20.5,8z M9.460022,19.7236328l1.5253296-6.1025391c0.0099487-0.0397949,0.0149536-0.0806885,0.0149536-0.1217041C11.000061,13.2233276,10.776062,12.9997559,10.5,13H6.1542969L8.8818359,3h6.9248047l-1.78125,5.3417969c-0.0166626,0.050354-0.0252075,0.1030884-0.0253296,0.1561279C13.9995117,8.7745972,14.2233276,8.9993896,14.5,9h4.8583984L9.460022,19.7236328z"/></svg>