<svg xmlns="http://www.w3.org/2000/svg" enable-background="new 0 0 24 24" viewBox="0 0 24 24"><path fill="#6563ff" d="M20.59375,10.2285156C19.3167114,9.9775391,18.0213013,9.942688,16.75,10.0917969c-0.1762695-0.1903076-0.3518066-0.3817139-0.5496826-0.5496826c-0.6557617-0.5565186-1.3910522-0.9561157-2.1603394-1.2105713C14.9199829,7.6958008,15.4985962,6.6682129,15.5,5.5C15.5,3.5670166,13.9329834,2,12,2S8.5,3.5670166,8.5,5.5c0,1.1702271,0.5797729,2.199707,1.4619141,2.8352051c-1.0130615,0.3342896-1.9526978,0.9217529-2.72229,1.7548218c-1.2679443-0.147583-2.5598145-0.1119995-3.833374,0.1384888C3.1705322,10.2736206,3.000061,10.4797363,3,10.7197266v9.3798828c0,0.0316162,0.0029907,0.0631104,0.0089111,0.0941162c0.0518799,0.2711792,0.3137207,0.4489136,0.5848389,0.3970337c2.624939-0.5115356,5.3461304-0.0901489,7.6933594,1.1914062c0.1538696,0.0752563,0.3032227,0.1593628,0.4472656,0.2520142c0.0084839,0.0053101,0.0195312,0.0033569,0.0282593,0.0081177C11.8342285,22.0818481,11.9124146,22.1103516,12,22.1103516h0.0003662c0.0875244-0.000061,0.1655884-0.0285645,0.2371216-0.0681152c0.008728-0.0047607,0.0197144-0.0027466,0.0281372-0.0080566c0.1515503-0.0971069,0.3087158-0.1851196,0.4707031-0.2636719c2.3419189-1.2724609,5.053894-1.6895752,7.6699219-1.1796875c0.0310669,0.0059204,0.062561,0.0089111,0.0941772,0.0089111C20.7764893,20.5995483,21.0001221,20.3756714,21,20.0996094v-9.3798828C20.999939,10.4797363,20.8294678,10.2736206,20.59375,10.2285156z M9.5,5.5C9.5,4.1192627,10.6192627,3,12,3c1.380188,0.0012817,2.4987183,1.119812,2.5,2.5C14.5,6.8807373,13.3807373,8,12,8S9.5,6.8807373,9.5,5.5z M11.5,20.7666016c-1.7811279-0.9074707-3.7510376-1.3825073-5.75-1.3867188C5.1643066,19.3807983,4.5794678,19.4238892,4,19.5087891V11.140625c2.5839844-0.4187622,5.2332764,0.067627,7.5,1.3769531V20.7666016z M12.000061,11.6611328c-1.1115112-0.6398315-2.3051758-1.0956421-3.5397949-1.3659668c2.0725098-1.7486572,5.0548096-1.6869507,7.0630493,0.0040894C14.2946167,10.5700073,13.1067505,11.024353,12.000061,11.6611328z M20,19.5087891c-2.5700073-0.3765869-5.1934204,0.0633545-7.5,1.2578125v-8.2490234c2.2669067-1.3088989,4.9160156-1.7952271,7.5-1.3769531V19.5087891z"/></svg>