<svg xmlns="http://www.w3.org/2000/svg" enable-background="new 0 0 24 24" viewBox="0 0 24 24"><path fill="#6563ff" d="M21.5830078,18.8027344c-0.7247314-0.1262207-1.4586792-0.1918945-2.1943359-0.1962891C16.7516479,18.6034546,14.1755981,19.3994751,12,20.8896484c-2.1755981-1.4901733-4.7516479-2.2861938-7.3886719-2.2832031c-0.7355957,0.0043945-1.4696045,0.0700073-2.1943359,0.1962891c-0.2723389,0.0458374-0.4559937,0.303772-0.4101562,0.5761719c0.0458374,0.2723389,0.303772,0.4559937,0.5761719,0.4101562c0.6697998-0.1173096,1.3483276-0.1784058,2.0283203-0.1826172c2.5489502-0.0021973,5.0331421,0.8024902,7.0966797,2.2988281C11.7927856,21.967041,11.8950806,22.0002441,12,22c0.1049194,0.0002441,0.2072144-0.032959,0.2919922-0.0947266c2.0635376-1.4963379,4.5477295-2.3010254,7.0966797-2.2988281c0.6800537,0.0042114,1.3585205,0.0653076,2.0283203,0.1826172c0.2723999,0.0458374,0.5303345-0.1378174,0.5761719-0.4101562C22.0390015,19.1065063,21.8554077,18.8485718,21.5830078,18.8027344z M21.5830078,2.1972656C18.2386475,1.605835,14.7959595,2.3552246,12,4.2832031C9.8244019,2.7930298,7.2483521,1.9970093,4.6113281,2C3.8756714,2.0040283,3.1416016,2.0700073,2.4169922,2.1972656C2.1762085,2.237793,1.999939,2.4462891,2,2.6904297v12.6054688c-0.0002441,0.1470947,0.0643921,0.2868652,0.1767578,0.3818359c0.1115723,0.0966797,0.2609253,0.1376343,0.40625,0.1113281c0.6697998-0.1173096,1.3483276-0.1784058,2.0283203-0.1826172c2.5489502-0.0021973,5.0331421,0.8024902,7.0966797,2.2988281C11.7927856,17.967041,11.8950806,18.0002441,12,18c0.1049194,0.0002441,0.2072144-0.032959,0.2919922-0.0947266c2.0635376-1.4963379,4.5477295-2.3010254,7.0966797-2.2988281c0.6799927,0.0042114,1.3584595,0.0653076,2.0283203,0.1826172c0.1453247,0.0267944,0.2949219-0.0142212,0.40625-0.1113281C21.9355469,15.5827637,22.0002441,15.4429932,22,15.2958984V2.6904297C22.000061,2.4462891,21.8237915,2.237793,21.5830078,2.1972656z M11.5,16.5742798c-2.0663452-1.2816772-4.4492798-1.9705811-6.8886719-1.9678345C4.0724487,14.6080933,3.5341797,14.6446533,3,14.7158203V3.1191406C3.5336914,3.0418091,4.0720825,3.0020142,4.6113281,3C7.0766602,2.9978638,9.4777832,3.756958,11.5,5.1601562V16.5742798z M21,14.7158203c-0.5341797-0.071167-1.0724487-0.1077271-1.6113281-0.109375C16.9492798,14.6036987,14.5663452,15.2926025,12.5,16.5742798V5.1601562C14.5222168,3.756958,16.9233398,2.9978638,19.3886719,3C19.9279175,3.0020142,20.4663086,3.0418091,21,3.1191406V14.7158203z"/></svg>