<svg xmlns="http://www.w3.org/2000/svg" enable-background="new 0 0 24 24" viewBox="0 0 24 24"><path fill="#6563ff" d="M15.5,6H8.4994507C8.2234497,6.0001831,7.9998169,6.223999,8,6.5v5.0005493C8.0001831,11.7765503,8.223999,12.0001831,8.5,12h7.0006104C15.7765503,11.9998169,16.0001831,11.776001,16,11.5V6.4993896C15.9998169,6.2234497,15.776001,5.9998169,15.5,6z M15,11H9V7h6V11z M17.5,2H4.4993896C4.2234497,2.0001831,3.9998169,2.223999,4,2.5v19.0005493C4.0001831,21.7765503,4.223999,22.0001831,4.5,22h13c1.380188-0.0012817,2.4987183-1.119812,2.5-2.5v-15C19.9987183,3.119812,18.880188,2.0012817,17.5,2z M19,19.5c-0.0009155,0.828064-0.671936,1.4990845-1.5,1.5H5V3h12.5c0.828064,0.0009155,1.4990845,0.671936,1.5,1.5V19.5z"/></svg>