<svg xmlns="http://www.w3.org/2000/svg" enable-background="new 0 0 24 24" viewBox="0 0 24 24"><path fill="#6563ff" d="M18.5,2h-11C5.5679932,2.0023193,4.0023193,3.5679932,4,5.5v13C4,20.4329834,5.5670166,22,7.5,22h11h1c0.0001831,0,0.0003662,0,0.0006104,0C19.7765503,21.9998169,20.0001831,21.776001,20,21.5v-1v-5v-0.0006104V3.5C19.9990845,2.671936,19.328064,2.0009155,18.5,2z M19,20.5c-0.0005493,0.2759399-0.2240601,0.4994507-0.5,0.5h-11c-1.380188-0.0012817-2.4987183-1.119812-2.5-2.5C5,17.1192627,6.1192627,16,7.5,16H19V20.5z M19,15H7.5c-0.9807129,0-1.864563,0.4057617-2.5,1.055603V5.5C5.0012817,4.119812,6.119812,3.0012817,7.5,3h11c0.2759399,0.0005493,0.4994507,0.2240601,0.5,0.5V15z M14.5,7h-5C9.223877,7,9,7.223877,9,7.5S9.223877,8,9.5,8h5C14.776123,8,15,7.776123,15,7.5S14.776123,7,14.5,7z"/></svg>