<svg xmlns="http://www.w3.org/2000/svg" enable-background="new 0 0 24 24" viewBox="0 0 24 24"><path fill="#6563ff" d="M22.2128906,20.0761719L17.8134766,3.6552734c-0.074707-0.2641602-0.3461304-0.4208984-0.6123047-0.3535156L12.986145,4.4309082C12.9512939,4.1889038,12.751709,3.9998169,12.5,4H2.4993896C2.2234497,4.0001831,1.9998169,4.223999,2,4.5v17.0005493C2.0001831,21.7765503,2.223999,22.0001831,2.5,22h10.0006104C12.7765503,21.9998169,13.0001831,21.776001,13,21.5V8.8787231l3.4169922,12.7511597C16.4763794,21.8480225,16.6743164,21.9995728,16.9003906,22c0.0438232-0.0003052,0.0874023-0.0058594,0.1298828-0.0166016l4.8291016-1.2939453C22.1261597,20.6174316,22.2842407,20.3431396,22.2128906,20.0761719z M7,21H3v-3h4V21z M7,17H3V9h4V17z M7,8H3V5h4V8z M12,21H8v-3h4V21z M12,17H8V9h4V17z M12,8H8V5h4V8z M13.1123047,5.4326172l3.8642578-1.0351562l0.776123,2.8969116l-3.8638916,1.0359497L13.1123047,5.4326172z M16.2183838,17.0235596l-2.0704346-7.7262573l3.8638306-1.0359497l2.0700073,7.7264404L16.2183838,17.0235596z M17.2539062,20.8876953l-0.7763672-2.8971558l3.8632812-1.0357666l0.7763672,2.8977661L17.2539062,20.8876953z"/></svg>