<svg xmlns="http://www.w3.org/2000/svg" enable-background="new 0 0 24 24" viewBox="0 0 24 24"><path fill="#6563ff" d="M18.5,2H5.4993896C5.2234497,2.0001831,4.9998169,2.223999,5,2.5v19c0.0021362,0.1942139,0.1173706,0.3693848,0.2949219,0.4482422c0.1791992,0.0794067,0.3879395,0.0498657,0.5380859-0.0761719L12,16.6552734l6.1464844,5.1982422C18.2402344,21.9473267,18.3673706,22,18.5,22c0.276123,0,0.5-0.223877,0.5-0.5V2.4993896C18.9998169,2.2234497,18.776001,1.9998169,18.5,2z M18,20.4208984l-5.6767578-4.8027344c-0.1864624-0.1582031-0.460022-0.1582031-0.6464844,0L6,20.4228516V3h12V20.4208984z"/></svg>