<svg xmlns="http://www.w3.org/2000/svg" enable-background="new 0 0 24 24" viewBox="0 0 24 24"><path fill="#6563ff" d="M17,2H7C5.3438721,2.0018311,4.0018311,3.3438721,4,5v14c0.0018311,1.6561279,1.3438721,2.9981689,3,3h10c1.6561279-0.0018311,2.9981689-1.3438721,3-3V5C19.9981689,3.3438721,18.6561279,2.0018311,17,2z M19,19c-0.0014038,1.1040039-0.8959961,1.9985962-2,2H7c-1.1040039-0.0014038-1.9985962-0.8959961-2-2V5c0.0014038-1.1040039,0.8959961-1.9985962,2-2h10c1.1040039,0.0014038,1.9985962,0.8959961,2,2V19z M13.600708,10.9044189C14.1455078,10.4458618,14.4992676,9.7677002,14.5,9c0-1.3807373-1.1192627-2.5-2.5-2.5S9.5,7.6192627,9.5,9c0,0.7678833,0.3536377,1.4462891,0.8984375,1.9049072C9.2754517,11.4876099,8.5,12.6474609,8.5,14c0,1.9329834,1.5670166,3.5,3.5,3.5c1.9320068-0.0023193,3.4976807-1.5679932,3.5-3.5C15.5,12.6471558,14.7241211,11.4869995,13.600708,10.9044189z M12,7.5c0.828064,0.0009155,1.4990845,0.671936,1.5,1.5c0,0.8284302-0.6715698,1.5-1.5,1.5S10.5,9.8284302,10.5,9S11.1715698,7.5,12,7.5z M12,16.5c-1.3807373,0-2.5-1.1192627-2.5-2.5s1.1192627-2.5,2.5-2.5c1.380188,0.0012817,2.4987183,1.119812,2.5,2.5C14.5,15.3807373,13.3807373,16.5,12,16.5z"/></svg>