<svg xmlns="http://www.w3.org/2000/svg" enable-background="new 0 0 24 24" viewBox="0 0 24 24"><path fill="#6563ff" d="M8,7.4404297c-0.8284302,0-1.5,0.6715698-1.5,1.5s0.6715698,1.5,1.5,1.5s1.5-0.6715698,1.5-1.5C9.4990845,8.1123657,8.828064,7.4413452,8,7.4404297z M8,9.4404297c-0.276123,0-0.5-0.223877-0.5-0.5s0.223877-0.5,0.5-0.5s0.5,0.223877,0.5,0.5C8.4994507,9.2163696,8.2759399,9.4398804,8,9.4404297z M12,2C6.4771729,2,2,6.4771729,2,12s4.4771729,10,10,10s10-4.4771729,10-10C21.9935303,6.4798584,17.5201416,2.0064697,12,2z M12,21c-4.9705811,0-9-4.0294189-9-9s4.0294189-9,9-9s9,4.0294189,9,9C20.9945679,16.9683228,16.9683228,20.9945679,12,21z M11,9.4404297c-0.8284302,0-1.5,0.6715698-1.5,1.5s0.6715698,1.5,1.5,1.5s1.5-0.6715698,1.5-1.5C12.4990845,10.1123657,11.828064,9.4413452,11,9.4404297z M11,11.4404297c-0.276123,0-0.5-0.223877-0.5-0.5s0.223877-0.5,0.5-0.5s0.5,0.223877,0.5,0.5C11.4994507,11.2163696,11.2759399,11.4398804,11,11.4404297z M11,5.4404297c-0.8284302,0-1.5,0.6715698-1.5,1.5s0.6715698,1.5,1.5,1.5s1.5-0.6715698,1.5-1.5C12.4990845,6.1123657,11.828064,5.4413452,11,5.4404297z M11,7.4404297c-0.276123,0-0.5-0.223877-0.5-0.5s0.223877-0.5,0.5-0.5s0.5,0.223877,0.5,0.5C11.4994507,7.2163696,11.2759399,7.4398804,11,7.4404297z"/></svg>