<svg xmlns="http://www.w3.org/2000/svg" enable-background="new 0 0 24 24" viewBox="0 0 24 24"><path fill="#6563ff" d="M21.3934937,11.8054199c0.3980713-1.682251-0.4953613-3.3600464-2.0328979-4.0164185c0.2294922-0.6818848,0.1654663-1.4388428-0.2138672-2.0739746c-0.5675659-0.9503174-1.6658936-1.3751221-2.6900635-1.1447144c-0.2047119-1.1744995-1.2229004-2.069397-2.4560547-2.0697021c-0.8232422-0.0001831-1.5474243,0.402771-2.0031128,1.0167236c-0.7460327-1.0057373-2.135376-1.3237305-3.246521-0.6831055c-0.668396,0.385437-1.0802002,1.0349121-1.203125,1.7398682C7.3675537,4.5333252,7.1848755,4.499939,6.9984131,4.5C5.618103,4.5004272,4.4995728,5.619751,4.5,7C4.4990234,7.2672119,4.5517578,7.5274658,4.6352539,7.7783203c-1.2769165,0.5395508-2.1359253,1.7995605-2.135437,3.223877c0.0004272,1.2553711,0.6675415,2.3473511,1.6608276,2.9644165C3.7344971,14.5583496,3.4985352,15.2724609,3.5,16.0133057C3.5036621,17.942627,5.0706787,19.5036621,7,19.5c0.184082-0.0002441,0.3659668-0.0198364,0.5458984-0.0484009C7.7598877,20.6154175,8.7745361,21.4988403,10,21.5c0.8217163-0.0007935,1.5443726-0.4028931,2-1.0151367c0.4556274,0.6122437,1.1782837,1.0143433,2,1.0151367c1.2254639-0.0011597,2.2401123-0.8845825,2.4541016-2.0484009C16.6340332,19.4801636,16.815918,19.4997559,17,19.5c0.9764404,0.0018921,1.9091187-0.4050293,2.5718994-1.1220703c1.1495361-1.2435913,1.2218018-3.0976562,0.2644653-4.4182129C20.5977783,13.4835205,21.175293,12.7276611,21.3934937,11.8054199z M10,20.5c-0.7800293,0-1.4135132-0.5975342-1.4857788-1.3586426C8.7744141,19.0164795,9.0252075,18.8709106,9.25,18.6835938c0.0003052-0.0002441,0.0006104-0.0004883,0.0008545-0.0007324c0.211792-0.1771851,0.2398682-0.4924316,0.0626831-0.7042236c-0.177124-0.211731-0.4924316-0.2398071-0.7041626-0.0626221C8.1575928,18.2926636,7.5881958,18.4993286,7,18.5c-0.6960449,0.001709-1.361145-0.2875366-1.8344727-0.7978516c-0.8754883-0.9437256-0.869751-2.3772583-0.0423584-3.3262329C5.4049683,14.4489746,5.6953125,14.5001221,6,14.5c0.276123,0,0.5-0.223877,0.5-0.5S6.276123,13.5,6,13.5c-1.15448-0.0049438-2.1553955-0.7996826-2.421936-1.9229736c-0.2955322-1.2459717,0.4039307-2.4844971,1.5776978-2.9134521C5.3299561,8.8583374,5.5233154,9.0349121,5.7520142,9.164978C5.8276367,9.2078247,5.9130859,9.2304077,6,9.2304688c0.1798096,0.0001221,0.3458252-0.0962524,0.4348755-0.2524414c0.1367798-0.2399292,0.0531006-0.5453491-0.1868286-0.6821289C6.0397949,8.1776733,5.864563,8.0090942,5.7382812,7.8056641C5.581665,7.5662231,5.4988403,7.2860718,5.5,7C5.5009155,6.171936,6.171936,5.5009155,7,5.5c0.2062378-0.0007324,0.4046631,0.0543213,0.5922852,0.1366577c0.0552979,0.2092285,0.128418,0.4158936,0.2416992,0.6123657C7.9714966,6.4884644,8.2770996,6.571106,8.5166016,6.4335938c0.2394409-0.1375122,0.3220825-0.4431152,0.1845703-0.6826172C8.569519,5.5230713,8.5001221,5.2645264,8.5,5.0012817C8.4996338,4.1728516,9.1709595,3.5009766,9.9993896,3.5006104C10.8277588,3.5003052,11.4996338,4.1715698,11.5,5v4.5532837c-0.3672485-0.3730469-0.8203735-0.6673584-1.3378906-0.8462524C9.901062,8.6174927,9.6168823,8.7565308,9.5273438,9.0175781s0.0494995,0.5452271,0.3105469,0.6347656C10.8365479,9.9994507,11.5043945,10.942749,11.5,12c0,0.0001831,0,0.0003662,0,0.0005493v2.5527344c-0.3672485-0.3730469-0.8203735-0.6673584-1.3378906-0.8462524c-0.2610474-0.0895386-0.5452271,0.0494995-0.6347656,0.3105469s0.0494995,0.5452271,0.3105469,0.6347656C10.8365479,14.9994507,11.5043945,15.942749,11.5,17c0,0.0001831,0,0.0003662,0,0.0005493V19C11.5,19.8284302,10.8284302,20.5,10,20.5z M18,13.5c-0.276123,0-0.5,0.223877-0.5,0.5s0.223877,0.5,0.5,0.5c0.302124-0.0010986,0.5924683-0.0524292,0.8743286-0.1266479C19.2687988,14.8233643,19.5,15.3956909,19.5,16c-0.0006104,0.5866699-0.2072754,1.15448-0.5839844,1.604248c-0.8874512,1.0596313-2.4658203,1.1992188-3.5253906,0.3117676c-0.0003052-0.0002441-0.0006104-0.0004883-0.0008545-0.0007324c-0.2122192-0.1766357-0.5274048-0.1478882-0.7040405,0.06427c-0.1766968,0.2121582-0.1478882,0.5274048,0.06427,0.7040405c0.2247925,0.1873169,0.4755859,0.3328857,0.7357788,0.4577637C15.4135132,19.9024658,14.7800293,20.5,14,20.5c-0.8284302,0-1.5-0.6715698-1.5-1.5v-2c-0.0043945-1.057251,0.6634521-2.0005493,1.6621094-2.3477173c0.2610474-0.0894775,0.4000854-0.3737183,0.3105469-0.6347656c-0.0895386-0.2609863-0.3737183-0.4000244-0.6347656-0.3105469C13.3203735,13.8859253,12.8672485,14.1802368,12.5,14.5532837V12c-0.0043945-1.057251,0.6634521-2.0005493,1.6621094-2.3477173c0.2610474-0.0894775,0.4000854-0.3737183,0.3105469-0.6347656c-0.0895386-0.2609863-0.3737183-0.4000244-0.6347656-0.3105469C13.3203735,8.8859253,12.8672485,9.1802368,12.5,9.5532837V5c0-0.2636108,0.069519-0.522583,0.2014771-0.7507324c0.4146729-0.7172852,1.3322754-0.9625244,2.0495605-0.5478516c0.7172241,0.4147339,0.9624634,1.3323364,0.5477905,2.0495605c-0.1375122,0.239502-0.0548706,0.545105,0.1845703,0.6826172c0.239502,0.1375122,0.545105,0.0548706,0.6826172-0.1845703c0.1117554-0.1939697,0.1947021-0.4015503,0.2508545-0.616272C16.6019287,5.5531006,16.7971191,5.4993286,17,5.5c0.828064,0.0009155,1.4990845,0.671936,1.5,1.5c0.0007324,0.2891846-0.0838623,0.5721436-0.243103,0.8134766c-0.1256104,0.2002563-0.2991333,0.3660278-0.5048828,0.4824219c-0.156189,0.0890503-0.2525635,0.2550659-0.2524414,0.4348145C17.4997559,9.006897,17.7238159,9.2306519,18,9.2304688c0.0869141-0.000061,0.1723633-0.022583,0.2480469-0.0654297c0.2306519-0.1309204,0.4252319-0.3092651,0.6003418-0.5061646c0.9794312,0.3540039,1.6521606,1.2813721,1.6516113,2.34375C20.4992676,12.3826294,19.3800049,13.5007324,18,13.5z"/></svg>