<svg xmlns="http://www.w3.org/2000/svg" enable-background="new 0 0 24 24" viewBox="0 0 24 24"><path fill="#6563ff" d="M19.5,7H16V5.5c-0.0012817-1.380188-1.119812-2.4987183-2.5-2.5h-3C9.119812,3.0012817,8.0012817,4.119812,8,5.5V7H4.5C3.119812,7.0012817,2.0012817,8.119812,2,9.5v10c0.0012817,1.380188,1.119812,2.4987183,2.5,2.5h15c1.380188-0.0012817,2.4987183-1.119812,2.5-2.5v-10C21.9987183,8.119812,20.880188,7.0012817,19.5,7z M9,5.5C9.0009155,4.671936,9.671936,4.0009155,10.5,4h3c0.828064,0.0009155,1.4990845,0.671936,1.5,1.5V7H9V5.5z M21,19.5c-0.0009155,0.828064-0.671936,1.4990845-1.5,1.5h-15c-0.828064-0.0009155-1.4990845-0.671936-1.5-1.5v-7.00177c1.2871094,0.6008911,2.6270142,1.0686646,4,1.4005737V14.5c0,0.0001831,0,0.0003662,0,0.0005493C7.0001831,14.7765503,7.223999,15.0001831,7.5,15c0.0001831,0,0.0003662,0,0.0006104,0C7.7765503,14.9998169,8.0001831,14.776001,8,14.5v-0.3866577C9.3148804,14.3649292,10.6530151,14.5003052,12,14.5c1.3469238,0.0003052,2.6850586-0.1348877,4-0.3863525V14.5c0,0.0001831,0,0.0003662,0,0.0005493C16.0001831,14.7765503,16.223999,15.0001831,16.5,15c0.0001831,0,0.0003662,0,0.0006104,0C16.7765503,14.9998169,17.0001831,14.776001,17,14.5v-0.6008301c1.3729248-0.3317261,2.7128296-0.7993774,4-1.4000244V19.5z M21,11.3986816l-0.2148438,0.1022949C19.5612793,12.0853271,18.2921143,12.5332031,17,12.8601074V12.5c0-0.276123-0.223877-0.5-0.5-0.5S16,12.223877,16,12.5v0.586731c-2.6407471,0.5282593-5.359314,0.5281372-8-0.0004272V12.5C8,12.223877,7.776123,12,7.5,12S7,12.223877,7,12.5v0.3596191C5.7078857,12.5325928,4.4387207,12.0845337,3.2148438,11.5L3,11.3977051V9.5C3.0009155,8.671936,3.671936,8.0009155,4.5,8h4h7c0.0001831,0,0.0003662,0,0.0006104,0H19.5c0.828064,0.0009155,1.4990845,0.671936,1.5,1.5V11.3986816z"/></svg>