<svg xmlns="http://www.w3.org/2000/svg" enable-background="new 0 0 24 24" viewBox="0 0 24 24"><path fill="#6563ff" d="M12,3.625c0.3451538,0,0.625-0.2798462,0.625-0.625S12.3451538,2.375,12,2.375S11.375,2.6548462,11.375,3S11.6548462,3.625,12,3.625z M5.6360474,17.7389526c-0.3452148,0-0.625,0.2798462-0.625,0.625c0,0.3452148,0.2797852,0.625,0.625,0.625c0.3451538,0,0.625-0.2797852,0.625-0.625C6.2610474,18.0187988,5.9812012,17.7389526,5.6360474,17.7389526z M5.6360474,6.2610474c0.3451538,0,0.625-0.2798462,0.625-0.625c0-0.3452148-0.2798462-0.625-0.625-0.625c-0.3452148,0-0.625,0.2797852-0.625,0.625C5.0110474,5.9812012,5.2908325,6.2610474,5.6360474,6.2610474z M3,11.375c-0.3451538,0-0.625,0.2798462-0.625,0.625S2.6548462,12.625,3,12.625S3.625,12.3451538,3.625,12S3.3451538,11.375,3,11.375z M12,6c-3.3137207,0-6,2.6862793-6,6s2.6862793,6,6,6c3.3121948-0.0036011,5.9963989-2.6878052,6-6C18,8.6862793,15.3137207,6,12,6z M12,17c-2.7614136,0-5-2.2385864-5-5s2.2385864-5,5-5c2.7600708,0.0032349,4.9967651,2.2399292,5,5C17,14.7614136,14.7614136,17,12,17z M18.3639526,5.0110474c-0.3451538,0-0.625,0.2797852-0.625,0.625c0,0.3451538,0.2798462,0.625,0.625,0.625c0.3452148,0,0.625-0.2798462,0.625-0.625C18.9889526,5.2908325,18.7091675,5.0110474,18.3639526,5.0110474z M21,11.375c-0.3451538,0-0.625,0.2798462-0.625,0.625s0.2798462,0.625,0.625,0.625s0.625-0.2798462,0.625-0.625S21.3451538,11.375,21,11.375z M12,20.375c-0.3451538,0-0.625,0.2798462-0.625,0.625s0.2798462,0.625,0.625,0.625s0.625-0.2798462,0.625-0.625S12.3451538,20.375,12,20.375z M18.3639526,17.7389526c-0.3451538,0-0.625,0.2798462-0.625,0.625c0,0.3452148,0.2798462,0.625,0.625,0.625c0.3452148,0,0.625-0.2797852,0.625-0.625C18.9889526,18.0187988,18.7091675,17.7389526,18.3639526,17.7389526z"/></svg>