<svg xmlns="http://www.w3.org/2000/svg" enable-background="new 0 0 24 24" viewBox="0 0 24 24"><path fill="#6563ff" d="M21.5458984,11.6464844L19,9.1005859V5.4993896C18.9998169,5.2234497,18.776001,4.9998169,18.5,5h-3.6005859l-2.5459595-2.5458984c0-0.000061-0.000061-0.000061-0.0001221-0.0001221c-0.1951904-0.1951904-0.5117188-0.1951294-0.7068481,0.0001221L9.1005859,5H5.4993896C5.2234497,5.0001831,4.9998169,5.223999,5,5.5v3.6005859l-2.5458984,2.5459595c-0.000061,0-0.000061,0.000061-0.0001221,0.0001221c-0.1951904,0.1951904-0.1951294,0.5117188,0.0001221,0.7068481L5,14.8994141v3.6011353C5.0001831,18.7765503,5.223999,19.0001831,5.5,19h3.6005859l2.5458984,2.5458984C11.7401123,21.6398315,11.8673706,21.6925659,12,21.6923828c0.1326294,0.0001831,0.2598877-0.0525513,0.3535156-0.1464844L14.8994141,19h3.6011963C18.7765503,18.9998169,19.0001831,18.776001,19,18.5v-3.6005859l2.5458984-2.5459595c0.000061,0,0.0001221-0.000061,0.0001221-0.0001221C21.7412109,12.1581421,21.7411499,11.8416138,21.5458984,11.6464844z M18.1464844,14.3388672C18.0526733,14.4326172,18,14.5597534,18,14.6923828V18h-3.3076172c-0.1326294,0-0.2597656,0.0526733-0.3535156,0.1464844L12,20.4853516l-2.3388672-2.3388672C9.5673828,18.0526733,9.4402466,18,9.3076172,18H6v-3.3076172c0-0.1326294-0.0526733-0.2597656-0.1464844-0.3535156L3.5146484,12l2.3388672-2.3388672C5.9473267,9.5673828,6,9.4402466,6,9.3076172V6h3.3076172c0.1326294,0,0.2597656-0.0526733,0.3535156-0.1464844L12,3.5146484l2.3388672,2.3388672C14.4326172,5.9473267,14.5597534,6,14.6923828,6H18v3.3076172c0,0.1326294,0.0526733,0.2597656,0.1464844,0.3535156L20.4853516,12L18.1464844,14.3388672z M14,11.5h-1.5V10c0-0.276123-0.223877-0.5-0.5-0.5s-0.5,0.223877-0.5,0.5v1.5H10c-0.276123,0-0.5,0.223877-0.5,0.5s0.223877,0.5,0.5,0.5h1.5v1.5005493C11.5001831,14.2765503,11.723999,14.5001831,12,14.5h0.0006104C12.2765503,14.4998169,12.5001831,14.276001,12.5,14v-1.5H14c0.276123,0,0.5-0.223877,0.5-0.5S14.276123,11.5,14,11.5z"/></svg>