<svg xmlns="http://www.w3.org/2000/svg" enable-background="new 0 0 24 24" viewBox="0 0 24 24"><path fill="#6563ff" d="M5.6356812,17.6572876l-0.7069702,0.7069702c-0.09375,0.09375-0.1463623,0.2208862-0.1464233,0.3534546c0,0.276123,0.2238159,0.5,0.499939,0.500061c0.1326294,0.0001221,0.2598267-0.0526123,0.3534546-0.1464844l0.7070312-0.7070312c0.1904907-0.194397,0.1904907-0.5054932,0-0.6998901C6.1494141,17.4671631,5.8328857,17.4639893,5.6356812,17.6572876z M12,4h0.0006104C12.2765503,3.9998169,12.5001831,3.776001,12.5,3.5v-1C12.5,2.223877,12.276123,2,12,2s-0.5,0.223877-0.5,0.5v1.0006104C11.5001831,3.7765503,11.723999,4.0001831,12,4z M5.6357422,6.3427734c0.0936279,0.0939331,0.2208862,0.1466675,0.3535156,0.1464844v0.000061c0.1325073-0.000061,0.2596436-0.0527344,0.3533936-0.1464233c0.1953125-0.1952515,0.1953125-0.5118408,0.000061-0.7071533L5.6357422,4.928772c-0.194397-0.1904907-0.5054321-0.1904907-0.6998291,0C4.7387085,5.1220093,4.7354736,5.4385376,4.9287109,5.6357422L5.6357422,6.3427734z M3.5,11.5h-1C2.223877,11.5,2,11.723877,2,12s0.223877,0.5,0.5,0.5h1C3.776123,12.5,4,12.276123,4,12S3.776123,11.5,3.5,11.5z M12,20c-0.276123,0-0.5,0.223877-0.5,0.5v1.0005493C11.5001831,21.7765503,11.723999,22.0001831,12,22h0.0006104c0.2759399-0.0001831,0.4995728-0.223999,0.4993896-0.5v-1C12.5,20.223877,12.276123,20,12,20z M12,6c-3.3137207,0-6,2.6862793-6,6s2.6862793,6,6,6c3.3121948-0.0036011,5.9963989-2.6878052,6-6C18,8.6862793,15.3137207,6,12,6z M12,17c-2.7614136,0-5-2.2385864-5-5s2.2385864-5,5-5c2.7600708,0.0032349,4.9967651,2.2399292,5,5C17,14.7614136,14.7614136,17,12,17z M21.5,11.5h-1c-0.276123,0-0.5,0.223877-0.5,0.5s0.223877,0.5,0.5,0.5h1c0.276123,0,0.5-0.223877,0.5-0.5S21.776123,11.5,21.5,11.5z M18.3642578,4.9287109l-0.7070312,0.7070312c-0.09375,0.09375-0.1463623,0.2208862-0.1464233,0.3534546c0,0.276123,0.2238159,0.5,0.499939,0.500061c0.1326294,0.0001221,0.2598267-0.0526123,0.3535156-0.1465454l0.7069702-0.7069702c0.0023804-0.0023804,0.0047607-0.0046997,0.0071411-0.0071411c0.1932373-0.1971436,0.1900635-0.5137329-0.0071411-0.7069702C18.8740234,4.7283325,18.5574951,4.7315674,18.3642578,4.9287109z M18.3642578,17.6572876c-0.194397-0.1905518-0.5055542-0.1905518-0.6999512,0c-0.1971436,0.1932983-0.2003174,0.5098267-0.007019,0.7069702l0.7069702,0.7070312c0.0936279,0.0939331,0.2208252,0.1466675,0.3534546,0.1464844c0.1325684,0,0.2597046-0.0526733,0.3534546-0.1463623c0.1953125-0.1952515,0.1953125-0.5118408,0.0001221-0.7071533L18.3642578,17.6572876z"/></svg>