<svg xmlns="http://www.w3.org/2000/svg" enable-background="new 0 0 24 24" viewBox="0 0 24 24"><path fill="#6563ff" d="M21.5009766,2H2.5004272c-0.276001,0.0001831-0.4995728,0.223999-0.4994507,0.5v7.0005493c0.0001831,0.276001,0.2240601,0.4996338,0.5,0.4994507h2.9980469c0.276123,0,0.5-0.223877,0.5-0.5s-0.223877-0.5-0.5-0.5H3.0009766V3h18v6H12.5C12.223877,9,12,9.223877,12,9.5s0.223877,0.5,0.5,0.5h1.5009766v5.5005493c0.0001831,0.276001,0.2240601,0.4996338,0.5,0.4994507h7.0006104c0.2759399-0.0001831,0.4995728-0.223999,0.4993896-0.5V2.4994507C22.0008545,2.2234497,21.7769775,1.9998169,21.5009766,2z M21.0009766,15h-6v-5h6V15z M12.1367188,17.65625l-2.6357422,2.6349487V6.5c0-0.276123-0.2238159-0.5-0.5-0.5c-0.276123,0-0.5,0.223877-0.5,0.5v13.7949219L5.8622437,17.65625c-0.194397-0.1904907-0.5054932-0.1904907-0.6998901,0c-0.1972046,0.1932983-0.2003784,0.5098267-0.0070801,0.7070312l3.4902344,3.4902344C8.7391357,21.9474487,8.866394,22.0001831,8.9990234,22c0.1326294,0.0001831,0.2598267-0.0525513,0.3535156-0.1464844l3.4911499-3.4902344c0.1905518-0.194397,0.1905518-0.5054932,0-0.6998901C12.6504517,17.4661865,12.3339233,17.4630127,12.1367188,17.65625z"/></svg>