<svg xmlns="http://www.w3.org/2000/svg" enable-background="new 0 0 24 24" viewBox="0 0 24 24"><path fill="#6563ff" d="M21.5009766,14h-2.9989624c-0.2761841,0-0.5,0.223877-0.5,0.5s0.2238159,0.5,0.5,0.5h2.4989624v6h-18v-6h6.5h0.0006104h1.9993896c0.2761841,0,0.5-0.223877,0.5-0.5s-0.2238159-0.5-0.5-0.5h-1.5V8.5c0-0.0001831,0-0.0003662,0-0.0005493c-0.0001221-0.276001-0.223999-0.4996338-0.5-0.4994507h-7C2.5007935,8,2.5006104,8,2.5004272,8c-0.276001,0.0001831-0.4995728,0.223999-0.4994507,0.5v6v0.0005493V21.5c0,0.0001831,0,0.0003662,0,0.0005493c0.0001831,0.276001,0.2240601,0.4996338,0.5,0.4994507h19c0.0001831,0,0.0004272,0,0.0006104,0c0.2759399-0.0001831,0.4995728-0.223999,0.4993896-0.5v-7c0-0.0001831,0-0.0003662,0-0.0005493C22.0008545,14.2234497,21.7769775,13.9998169,21.5009766,14z M3.0009766,9h6v5h-6V9z M11.8652344,6.34375l2.6357422-2.6357422V17.5c0,0.0001831,0,0.0003662,0,0.0005493c0.0001831,0.276001,0.2240601,0.4996338,0.5,0.4994507c0.0001831,0,0.0004272,0,0.0006104,0c0.2759399-0.0001831,0.4995728-0.223999,0.4993896-0.5V3.7059326L18.1386719,6.34375c0.0936279,0.0939331,0.2208862,0.1466675,0.3535156,0.1464844c0.1325684,0,0.2597046-0.0526733,0.3534546-0.1464233c0.1952515-0.1952515,0.1953125-0.5117798,0.000061-0.7070923l-3.4902344-3.4902344c-0.000061,0-0.0001221-0.000061-0.0001221-0.0001221c-0.1952515-0.1951294-0.5117188-0.1950684-0.7068481,0.0001221l-3.4902954,3.4902954c-0.1904907,0.1943359-0.1904907,0.5054321,0,0.6998291C11.3515015,6.5338135,11.6680298,6.5369873,11.8652344,6.34375z"/></svg>