<svg xmlns="http://www.w3.org/2000/svg" enable-background="new 0 0 24 24" viewBox="0 0 24 24"><path fill="#6563ff" d="M18.5,1H5.4993896C5.2234497,1.0001831,4.9998169,1.223999,5,1.5V11c0.0018311,1.6561279,1.3438721,2.9981689,3,3h1.5v3.0654297c-0.6434937,0.6551514-1.0028076,1.5374756-1,2.4557495C8.5058594,21.4483643,10.072876,23.0058594,12,23c0.9182739,0.0028076,1.8006592-0.3565063,2.4558105-1c1.3748169-1.3504028,1.3946533-3.5596924,0.0441895-4.9345703V14H16c1.6561279-0.0018311,2.9981689-1.3438721,3-3V1.4993896C18.9998169,1.2234497,18.776001,0.9998169,18.5,1z M12,22c-1.3807373,0-2.5-1.1192627-2.5-2.5c0.0006104-0.7079468,0.3045654-1.3817139,0.835022-1.8505859c0.1052246-0.0946655,0.1652222-0.2295532,0.164978-0.3710938V14h3v3.2783203c-0.0002441,0.1415405,0.0597534,0.2764282,0.164978,0.3710938C14.1954346,18.1182861,14.4994507,18.7920532,14.5,19.5C14.5,20.8807373,13.3807373,22,12,22z M18,11c-0.0014038,1.1040039-0.8959961,1.9985962-2,2H8c-1.1040039-0.0014038-1.9985962-0.8959961-2-2V9.5h12V11z M18,8.5H6V2h12V8.5z M12,18c-0.8284302,0-1.5,0.6715698-1.5,1.5S11.1715698,21,12,21c0.828064-0.0009155,1.4990845-0.671936,1.5-1.5C13.5,18.6715698,12.8284302,18,12,18z M12,20c-0.276123,0-0.5-0.223877-0.5-0.5S11.723877,19,12,19c0.2759399,0.0005493,0.4994507,0.2240601,0.5,0.5C12.5,19.776123,12.276123,20,12,20z"/></svg>