<svg xmlns="http://www.w3.org/2000/svg" enable-background="new 0 0 24 24" viewBox="0 0 24 24"><path fill="#6563ff" d="M22.7773438,11.0839844l-2.8994141-1.9326172L17.4375,4.7568359C17.3488159,4.5984497,17.1815186,4.5002441,17,4.5H1.4993896C1.2234497,4.5001831,0.9998169,4.723999,1,5v10.5005493C1.0001831,15.7765503,1.223999,16.0001831,1.5,16h1.550415C3.0228271,16.1634521,3,16.3287354,3,16.5c0,1.6568604,1.3431396,3,3,3c1.6561279-0.0018311,2.9981689-1.3438721,3-3c0-0.1712646-0.0228271-0.3365479-0.050415-0.5h6.1008301C15.0228271,16.1634521,15,16.3287354,15,16.5c0,1.6568604,1.3431396,3,3,3c1.6561279-0.0018311,2.9981689-1.3438721,3-3c0-0.1712646-0.0228271-0.3365479-0.050415-0.5h1.5510254C22.7765503,15.9998169,23.0001831,15.776001,23,15.5v-4C22.9997559,11.3328857,22.9162598,11.1768799,22.7773438,11.0839844z M2,5.5h3.5V9H2V5.5z M6,18.5c-1.1045532,0-2-0.8954468-2-2s0.8954468-2,2-2c1.1040039,0.0014038,1.9985962,0.8959961,2,2C8,17.6045532,7.1045532,18.5,6,18.5z M9.5,15H8.5839233C8.064209,14.1070557,7.107605,13.5,6,13.5S3.935791,14.1070557,3.4160767,15H2v-5h7.5V15z M9.5,9h-3V5.5h3V9z M13.5,15h-3v-5h3V15z M13.5,9h-3V5.5h3V9z M14.5,5.5h2.2060547L18.6497803,9H14.5V5.5z M18,18.5c-1.1045532,0-2-0.8954468-2-2s0.8954468-2,2-2c1.1040039,0.0014038,1.9985962,0.8959961,2,2C20,17.6045532,19.1045532,18.5,18,18.5z M22,15h-1.4160767C20.064209,14.1070557,19.107605,13.5,18,13.5s-2.064209,0.6070557-2.5839233,1.5H14.5v-5h4.8486328L22,11.7675781V15z"/></svg>