<svg xmlns="http://www.w3.org/2000/svg" enable-background="new 0 0 24 24" viewBox="0 0 24 24"><path fill="#6563ff" d="M19,2H6C4.619812,2.0012817,3.5012817,3.119812,3.5,4.5V13v0.0005493V17.5C3.5012817,18.880188,4.619812,19.9987183,6,20v1.5c0,0.0001831,0,0.0003662,0,0.0005493C6.0001831,21.7765503,6.223999,22.0001831,6.5,22c0.0001831,0,0.0003662,0,0.0006104,0C6.7765503,21.9998169,7.0001831,21.776001,7,21.5V20h11v1.5c0,0.0001831,0,0.0003662,0,0.0005493C18.0001831,21.7765503,18.223999,22.0001831,18.5,22c0.0001831,0,0.0003662,0,0.0006104,0C18.7765503,21.9998169,19.0001831,21.776001,19,21.5V20c1.380188-0.0012817,2.4987183-1.119812,2.5-2.5V13V4.5C21.4987183,3.119812,20.380188,2.0012817,19,2z M4.5,7.5H12v5H4.5V7.5z M20.5,17.5c-0.0009155,0.828064-0.671936,1.4990845-1.5,1.5H6c-0.828064-0.0009155-1.4990845-0.671936-1.5-1.5v-4h8h0.0006104H20.5V17.5z M20.5,12.5H13v-5h7.5V12.5z M20.5,6.5h-16v-2C4.5009155,3.671936,5.171936,3.0009155,6,3h13c0.828064,0.0009155,1.4990845,0.671936,1.5,1.5V6.5z M8.4998779,15.5014648c-0.276123,0-0.5,0.223877-0.5,0.5c0,0.2761841,0.223877,0.5,0.5,0.5c0.2761841,0,0.5-0.2238159,0.5-0.5C8.9998779,15.7253418,8.776062,15.5014648,8.4998779,15.5014648z M16.4998779,16.5014648c0.2761841,0,0.5-0.2238159,0.5-0.5c0-0.276123-0.2238159-0.5-0.5-0.5c-0.276123,0-0.5,0.223877-0.5,0.5C15.9998779,16.2776489,16.2237549,16.5014648,16.4998779,16.5014648z"/></svg>