<svg xmlns="http://www.w3.org/2000/svg" enable-background="new 0 0 24 24" viewBox="0 0 24 24"><path fill="#6563ff" d="M20.9707031,4.7122192V4.6474609c-0.0018311-1.4451904-1.1729736-2.616333-2.6181641-2.6181641h-0.0647583C18.1916504,2.0198975,18.0985718,2.0001221,18,2H6C5.9014282,2.0001221,5.8083496,2.0198975,5.7122192,2.0292969H5.6474609c-1.4451904,0.0018311-2.616333,1.1729736-2.6181641,2.6181641v0.0647583C3.0198975,4.8083496,3.0001221,4.9014282,3,5v8.5005493c0.000061,0.0513306,0.0148926,0.0981445,0.0292969,0.1447754v3.7072144C3.0310669,18.7471924,4.1248779,19.8760376,5.5,19.9556885v1.5448608C5.5001831,21.7765503,5.723999,22.0001831,6,22h0.0006104C6.2765503,21.9998169,6.5001831,21.776001,6.5,21.5v-1.5292969h11v1.5718994c0.0001831,0.2759399,0.223999,0.4995728,0.5,0.4993896h0.0005493c0.276001-0.0001831,0.4996338-0.223999,0.4994507-0.5v-1.5863037c1.3751221-0.0796509,2.4689331-1.2084961,2.4707031-2.6031494v-3.7068481C20.9852295,13.5988159,21.000061,13.5516968,21,13.5V5C20.9998779,4.9014282,20.9801025,4.8083496,20.9707031,4.7122192z M19.9707031,17.3525391c-0.0007935,0.8933716-0.7247925,1.6173706-1.6181641,1.6181641H5.6474609c-0.8933716-0.0007935-1.6173706-0.7247925-1.6181641-1.6181641V14h15.9414062V17.3525391z M19.9707031,13H4.0292969V4.7127075c0.1275635-0.8720093,0.8114014-1.5558472,1.6834106-1.6834106h12.574585c0.8720093,0.1275635,1.5558472,0.8114014,1.6834106,1.6834106V13z M13,5.5h-2c-0.276123,0-0.5,0.223877-0.5,0.5s0.223877,0.5,0.5,0.5h2c0.276123,0,0.5-0.223877,0.5-0.5S13.276123,5.5,13,5.5z M16.0001221,16.5015869c0.276123,0,0.5-0.223877,0.5-0.5s-0.223877-0.5-0.5-0.5c-0.2761841,0-0.5,0.223877-0.5,0.5S15.723938,16.5015869,16.0001221,16.5015869z M7.9960938,16.5015869c0.276123,0,0.5-0.223877,0.5-0.5s-0.223877-0.5-0.5-0.5s-0.5,0.223877-0.5,0.5S7.7199707,16.5015869,7.9960938,16.5015869z"/></svg>