<svg xmlns="http://www.w3.org/2000/svg" enable-background="new 0 0 24 24" viewBox="0 0 24 24"><path fill="#6563ff" d="M8,16.5c-0.8,0-1.5,0.7-1.5,1.5s0.7,1.5,1.5,1.5c0.8,0,1.5-0.7,1.5-1.5C9.5,17.2,8.8,16.5,8,16.5z M8,18.5c-0.3,0-0.5-0.2-0.5-0.5s0.2-0.5,0.5-0.5c0.3,0,0.5,0.2,0.5,0.5C8.5,18.3,8.3,18.5,8,18.5z M7.5,11h9c0,0,0,0,0,0c0.3,0,0.5-0.2,0.5-0.5v-5c0,0,0,0,0,0C17,5.2,16.8,5,16.5,5h-9c0,0,0,0,0,0C7.2,5,7,5.2,7,5.5v5c0,0,0,0,0,0C7,10.8,7.2,11,7.5,11z M8,6h8v4H8V6z M8,12.5c-0.8,0-1.5,0.7-1.5,1.5s0.7,1.5,1.5,1.5c0.8,0,1.5-0.7,1.5-1.5C9.5,13.2,8.8,12.5,8,12.5z M8,14.5c-0.3,0-0.5-0.2-0.5-0.5s0.2-0.5,0.5-0.5c0.3,0,0.5,0.2,0.5,0.5C8.5,14.3,8.3,14.5,8,14.5z M16,12.5c-0.8,0-1.5,0.7-1.5,1.5s0.7,1.5,1.5,1.5c0.8,0,1.5-0.7,1.5-1.5C17.5,13.2,16.8,12.5,16,12.5z M16,14.5c-0.3,0-0.5-0.2-0.5-0.5s0.2-0.5,0.5-0.5c0.3,0,0.5,0.2,0.5,0.5C16.5,14.3,16.3,14.5,16,14.5z M18.5,1h-13C4.1,1,3,2.1,3,3.5v17C3,21.9,4.1,23,5.5,23h13c1.4,0,2.5-1.1,2.5-2.5v-17C21,2.1,19.9,1,18.5,1z M20,20.5c0,0.8-0.7,1.5-1.5,1.5h-13C4.7,22,4,21.3,4,20.5v-17C4,2.7,4.7,2,5.5,2h13C19.3,2,20,2.7,20,3.5V20.5z M12,16.5c-0.8,0-1.5,0.7-1.5,1.5s0.7,1.5,1.5,1.5c0.8,0,1.5-0.7,1.5-1.5C13.5,17.2,12.8,16.5,12,16.5z M12,18.5c-0.3,0-0.5-0.2-0.5-0.5s0.2-0.5,0.5-0.5c0.3,0,0.5,0.2,0.5,0.5C12.5,18.3,12.3,18.5,12,18.5z M16,16.5c-0.8,0-1.5,0.7-1.5,1.5s0.7,1.5,1.5,1.5c0.8,0,1.5-0.7,1.5-1.5C17.5,17.2,16.8,16.5,16,16.5z M16,18.5c-0.3,0-0.5-0.2-0.5-0.5s0.2-0.5,0.5-0.5c0.3,0,0.5,0.2,0.5,0.5C16.5,18.3,16.3,18.5,16,18.5z M12,12.5c-0.8,0-1.5,0.7-1.5,1.5s0.7,1.5,1.5,1.5c0.8,0,1.5-0.7,1.5-1.5C13.5,13.2,12.8,12.5,12,12.5z M12,14.5c-0.3,0-0.5-0.2-0.5-0.5s0.2-0.5,0.5-0.5c0.3,0,0.5,0.2,0.5,0.5C12.5,14.3,12.3,14.5,12,14.5z"/></svg>