<svg xmlns="http://www.w3.org/2000/svg" enable-background="new 0 0 24 24" viewBox="0 0 24 24"><path fill="#6563ff" d="M5.5,7.5h1v1c0,0.0001831,0,0.0003662,0,0.0005493C6.5001831,8.7765503,6.723999,9.0001831,7,9c0.0001831,0,0.0003662,0,0.0006104,0C7.2765503,8.9998169,7.5001831,8.776001,7.5,8.5v-1h1C8.776123,7.5,9,7.276123,9,7S8.776123,6.5,8.5,6.5h-1v-1C7.5,5.223877,7.276123,5,7,5S6.5,5.223877,6.5,5.5v1h-1C5.223877,6.5,5,6.723877,5,7S5.223877,7.5,5.5,7.5z M6.2929688,17l-1.0605469,1.0605469c-0.09375,0.09375-0.1463623,0.2208862-0.1464233,0.3534546c0,0.276123,0.2238159,0.5,0.499939,0.500061c0.1326294,0.0001831,0.2598877-0.0525513,0.3535156-0.1464844L7,17.7070312l1.0605469,1.0605469c0.0936279,0.0939331,0.2208252,0.1466675,0.3534546,0.1464844c0.1325684,0,0.2597046-0.0526733,0.3534546-0.1463623c0.1953125-0.1952515,0.1953125-0.5118408,0.0001221-0.7070923L7.7069702,17l1.0606079-1.0606079c0.0023804-0.0023193,0.0047607-0.0046997,0.0071411-0.0071411c0.1932373-0.1972046,0.1900635-0.5137329-0.0071411-0.7069702c-0.1972656-0.1932983-0.5137939-0.1900635-0.7070312,0.0071411L7,16.2929688l-1.0606079-1.0605469c-0.0023193-0.0023804-0.0046997-0.0047607-0.0071411-0.0071411c-0.1972046-0.1932373-0.5137329-0.1900635-0.7069702,0.0071411c-0.1932983,0.1972656-0.1900635,0.5137939,0.0071411,0.7070312L6.2929688,17z M18.5,6.5h-3C15.223877,6.5,15,6.723877,15,7s0.223877,0.5,0.5,0.5h3C18.776123,7.5,19,7.276123,19,7S18.776123,6.5,18.5,6.5z M15.5,16h3c0.276123,0,0.5-0.223877,0.5-0.5S18.776123,15,18.5,15h-3c-0.276123,0-0.5,0.223877-0.5,0.5S15.223877,16,15.5,16z M20,1H4C2.3438721,1.0018311,1.0018311,2.3438721,1,4v16c0.0018311,1.6561279,1.3438721,2.9981689,3,3h8h0.0006104H20c1.6561279-0.0018311,2.9981689-1.3438721,3-3V4C22.9981689,2.3438721,21.6561279,1.0018311,20,1z M11.5,22H4c-1.1040039-0.0014038-1.9985962-0.8959961-2-2v-7.5h9.5V22z M11.5,11.5H2V4c0.0014038-1.1040039,0.8959961-1.9985962,2-2h7.5V11.5z M22,20c-0.0014038,1.1040039-0.8959961,1.9985962-2,2h-7.5v-9.5H22V20z M22,11.5h-9.5V2H20c1.1040039,0.0014038,1.9985962,0.8959961,2,2V11.5z M15.5,19h3c0.276123,0,0.5-0.223877,0.5-0.5S18.776123,18,18.5,18h-3c-0.276123,0-0.5,0.223877-0.5,0.5S15.223877,19,15.5,19z"/></svg>