<svg xmlns="http://www.w3.org/2000/svg" enable-background="new 0 0 24 24" viewBox="0 0 24 24"><path fill="#6563ff" d="M9.8,6H16v1.5C16,7.8,16.2,8,16.5,8h0C16.8,8,17,7.8,17,7.5V6h1.5C19.3,6,20,6.7,20,7.5V10h-5.2c-0.3,0-0.5,0.2-0.5,0.5s0.2,0.5,0.5,0.5H20v5.2c0,0.3,0.2,0.5,0.5,0.5h0c0.3,0,0.5-0.2,0.5-0.5V7.5C21,6.1,19.9,5,18.5,5H17V3.5C17,3.2,16.8,3,16.5,3S16,3.2,16,3.5V5H9.8C9.5,5,9.3,5.2,9.3,5.5S9.5,6,9.8,6z M21.9,21.1l-1.6-1.6c0,0,0,0,0,0c0,0,0,0,0,0l-9.4-9.4c0,0,0,0,0,0l-8-8C2.7,2,2.4,2,2.2,2.1C2,2.3,2,2.7,2.1,2.9l2.4,2.4C3.6,5.6,3,6.5,3,7.5v11C3,19.9,4.1,21,5.5,21h13c0.5,0,1-0.1,1.4-0.4l1.3,1.3c0.1,0.1,0.2,0.1,0.4,0.1c0.1,0,0.3-0.1,0.4-0.1C22,21.7,22,21.3,21.9,21.1z M4,7.5C4,6.7,4.6,6.1,5.3,6l4,4H4V7.5z M18.5,20h-13C4.7,20,4,19.3,4,18.5V11h6.3l8.8,8.8C18.9,19.9,18.7,20,18.5,20z"/></svg>