<svg xmlns="http://www.w3.org/2000/svg" enable-background="new 0 0 24 24" viewBox="0 0 24 24"><path fill="#6563ff" d="M17,19.5c0.828064-0.0009155,1.4990845-0.671936,1.5-1.5c0-0.8284302-0.6715698-1.5-1.5-1.5s-1.5,0.6715698-1.5,1.5S16.1715698,19.5,17,19.5z M17,17.5c0.2759399,0.0005493,0.4994507,0.2240601,0.5,0.5c0,0.276123-0.223877,0.5-0.5,0.5s-0.5-0.223877-0.5-0.5S16.723877,17.5,17,17.5z M17,15.5c0.828064-0.0009155,1.4990845-0.671936,1.5-1.5c0-0.8284302-0.6715698-1.5-1.5-1.5s-1.5,0.6715698-1.5,1.5S16.1715698,15.5,17,15.5z M17,13.5c0.2759399,0.0005493,0.4994507,0.2240601,0.5,0.5c0,0.276123-0.223877,0.5-0.5,0.5s-0.5-0.223877-0.5-0.5S16.723877,13.5,17,13.5z M19.5,3h-2V1.5C17.5,1.223877,17.276123,1,17,1s-0.5,0.223877-0.5,0.5V3h-9V1.5C7.5,1.223877,7.276123,1,7,1S6.5,1.223877,6.5,1.5V3h-2C3.119812,3.0012817,2.0012817,4.119812,2,5.5v15c0.0012817,1.380188,1.119812,2.4987183,2.5,2.5h15c1.380188-0.0012817,2.4987183-1.119812,2.5-2.5v-15C21.9987183,4.119812,20.880188,3.0012817,19.5,3z M21,20.5c-0.0009155,0.828064-0.671936,1.4990845-1.5,1.5h-15c-0.828064-0.0009155-1.4990845-0.671936-1.5-1.5V10h18V20.5z M21,9H3V5.5C3.0009155,4.671936,3.671936,4.0009155,4.5,4h2v1.5c0,0.0001831,0,0.0003662,0,0.0006104C6.5001831,5.7765503,6.723999,6.0001831,7,6c0.0001831,0,0.0003662,0,0.0006104,0C7.2765503,5.9998169,7.5001831,5.776001,7.5,5.5V4h9v1.5c0,0.0001831,0,0.0003662,0,0.0006104C16.5001831,5.7765503,16.723999,6.0001831,17,6c0.0001831,0,0.0003662,0,0.0006104,0C17.2765503,5.9998169,17.5001831,5.776001,17.5,5.5V4h2c0.828064,0.0009155,1.4990845,0.671936,1.5,1.5V9z M7,19.5c0.828064-0.0009155,1.4990845-0.671936,1.5-1.5c0-0.8284302-0.6715698-1.5-1.5-1.5S5.5,17.1715698,5.5,18S6.1715698,19.5,7,19.5z M7,17.5c0.2759399,0.0005493,0.4994507,0.2240601,0.5,0.5c0,0.276123-0.223877,0.5-0.5,0.5S6.5,18.276123,6.5,18S6.723877,17.5,7,17.5z M12,19.5c0.828064-0.0009155,1.4990845-0.671936,1.5-1.5c0-0.8284302-0.6715698-1.5-1.5-1.5s-1.5,0.6715698-1.5,1.5S11.1715698,19.5,12,19.5z M12,17.5c0.2759399,0.0005493,0.4994507,0.2240601,0.5,0.5c0,0.276123-0.223877,0.5-0.5,0.5s-0.5-0.223877-0.5-0.5S11.723877,17.5,12,17.5z M12,15.5c0.828064-0.0009155,1.4990845-0.671936,1.5-1.5c0-0.8284302-0.6715698-1.5-1.5-1.5s-1.5,0.6715698-1.5,1.5S11.1715698,15.5,12,15.5z M12,13.5c0.2759399,0.0005493,0.4994507,0.2240601,0.5,0.5c0,0.276123-0.223877,0.5-0.5,0.5s-0.5-0.223877-0.5-0.5S11.723877,13.5,12,13.5z M7,15.5c0.828064-0.0009155,1.4990845-0.671936,1.5-1.5c0-0.8284302-0.6715698-1.5-1.5-1.5S5.5,13.1715698,5.5,14S6.1715698,15.5,7,15.5z M7,13.5c0.2759399,0.0005493,0.4994507,0.2240601,0.5,0.5c0,0.276123-0.223877,0.5-0.5,0.5S6.5,14.276123,6.5,14S6.723877,13.5,7,13.5z"/></svg>