<svg xmlns="http://www.w3.org/2000/svg" enable-background="new 0 0 24 24" viewBox="0 0 24 24"><path fill="#6563ff" d="M14.9,11.3c0.1,0.2,0.3,0.4,0.5,0.4c0,0,0.1,0,0.1,0c0,0,0,0,0,0c0.3-0.1,0.4-0.3,0.4-0.6c-0.4-1.4-1.5-2.5-2.9-2.9l0,0c-0.3-0.1-0.5,0.1-0.6,0.4c-0.1,0.3,0.1,0.5,0.4,0.6C13.8,9.4,14.6,10.2,14.9,11.3z M19.5,6h-1.6l-0.4-1.3c-0.3-1-1.3-1.7-2.4-1.7H8.9C8.5,3,8.1,3.1,7.8,3.3c0,0,0,0,0,0C7.5,3.4,7.4,3.7,7.6,4S8,4.3,8.2,4.2C8.5,4.1,8.7,4,8.9,4h6.1c0.6,0,1.2,0.4,1.4,1L17,6.7C17.1,6.9,17.3,7,17.5,7h2C20.3,7,21,7.7,21,8.5v8.8c0,0.3,0.2,0.5,0.5,0.5h0c0.3,0,0.5-0.2,0.5-0.5V8.5C22,7.1,20.9,6,19.5,6z M2.9,2.1C2.7,2,2.4,2,2.2,2.1C2,2.3,2,2.7,2.1,2.9L5.3,6H4.5C3.1,6,2,7.1,2,8.5v9C2,18.9,3.1,20,4.5,20h14.8l1.9,1.9c0.1,0.1,0.2,0.1,0.4,0.1c0.1,0,0.3-0.1,0.4-0.1c0.2-0.2,0.2-0.5,0-0.7L2.9,2.1z M9.6,10.3l4.2,4.2C13.2,14.8,12.6,15,12,15c-1.7,0-3-1.3-3-3C9,11.4,9.2,10.8,9.6,10.3z M4.5,19C3.7,19,3,18.3,3,17.5v-9C3,7.7,3.7,7,4.5,7h1.8l2.6,2.6C8.3,10.3,8,11.1,8,12c0,2.2,1.8,4,4,4c0.9,0,1.7-0.3,2.4-0.9l3.9,3.9H4.5z"/></svg>