<svg xmlns="http://www.w3.org/2000/svg" enable-background="new 0 0 24 24" viewBox="0 0 24 24"><path fill="#6563ff" d="M14.6464844,5.3535156c0.1986084,0.1918335,0.5151367,0.1863403,0.7069702-0.0122681c0.1871948-0.1937866,0.1871948-0.5009766,0-0.6947021L14.7069702,4H19.5C19.776123,4,20,3.776123,20,3.5S19.776123,3,19.5,3h-4.7930298l0.6465454-0.6464844c0.1918335-0.1986084,0.1862793-0.5151367-0.0123291-0.7069702c-0.1937256-0.1871338-0.5009155-0.1871338-0.6947021,0L13.1470947,3.145874c-0.1951904,0.1957397-0.1951904,0.5125122,0,0.708252L14.6464844,5.3535156z M23.9615479,8.309082c-0.0250854-0.0610352-0.0620117-0.1165161-0.1086426-0.163208l-1.4993896-1.4993896c-0.1986084-0.1918335-0.5151367-0.1863403-0.7069702,0.0122681c-0.1871948,0.1937256-0.1871948,0.5009766,0,0.6947021L22.2930298,8H17.5C17.223877,8,17,8.223877,17,8.5S17.223877,9,17.5,9h4.7930298l-0.6465454,0.6464844c-0.1986084,0.1918335-0.2041016,0.5083618-0.0122681,0.7069702c0.1918945,0.1986694,0.5084229,0.2041626,0.7070312,0.0122681c0.0041504-0.0039673,0.0082397-0.0080566,0.0122681-0.0122681l1.4993896-1.4993896C23.9956665,8.7109375,24.0385132,8.4960327,23.9615479,8.309082z M21.5006104,12C21.5003662,12,21.5001831,12,21.5,12c-0.276001-0.0001831-0.4998169,0.2234497-0.5,0.4993896c0,0.0002441,0,0.0004272,0,0.0006104V18c-0.0014038,1.1040039-0.8959961,1.9985962-2,2H5c-1.1040039-0.0014038-1.9985962-0.8959961-2-2v-8c0.0014038-1.1040039,0.8959961-1.9985962,2-2h1.5c0.21521-0.0001831,0.40625-0.1377563,0.4746094-0.3417969l0.4306641-1.2910156C7.6765747,5.550293,8.440979,4.9992676,9.3017578,5H11.5C11.776123,5,12,4.776123,12,4.5S11.776123,4,11.5,4H9.3017578C8.010376,3.9989014,6.8635864,4.8253784,6.4560547,6.0507812L6.1396484,7H5c-1.6561279,0.0018311-2.9981689,1.3438721-3,3v8c0.0018311,1.6561279,1.3438721,2.9981689,3,3h14c1.6561279-0.0018311,2.9981689-1.3438721,3-3v-5.5C22.0001831,12.223999,21.7765503,12.0001831,21.5006104,12z M12,9c-2.2091675,0-4,1.7908325-4,4s1.7908325,4,4,4s4-1.7908325,4-4C15.9978027,10.791748,14.208252,9.0021973,12,9z M12,16c-1.6568604,0-3-1.3431396-3-3s1.3431396-3,3-3s3,1.3431396,3,3C14.9981689,14.6561279,13.6561279,15.9981689,12,16z"/></svg>