<svg xmlns="http://www.w3.org/2000/svg" enable-background="new 0 0 24 24" viewBox="0 0 24 24"><path fill="#6563ff" d="M21.5,10c-0.276123,0-0.5,0.223877-0.5,0.5V18c-0.0014038,1.1040039-0.8959961,1.9985962-2,2H5c-1.1040039-0.0014038-1.9985962-0.8959961-2-2v-8c0.0014038-1.1040039,0.8959961-1.9985962,2-2h1.5c0.21521-0.0001831,0.40625-0.1377563,0.4746094-0.3417969l0.4306641-1.2910156C7.6765747,5.550293,8.440979,4.9992676,9.3017578,5H15.5C15.776123,5,16,4.776123,16,4.5S15.776123,4,15.5,4H9.3017578C8.010376,3.9989014,6.8635864,4.8253784,6.4560547,6.0507812L6.1396484,7H5c-1.6561279,0.0018311-2.9981689,1.3438721-3,3v8c0.0018311,1.6561279,1.3438721,2.9981689,3,3h14c1.6561279-0.0018311,2.9981689-1.3438721,3-3v-7.5C22,10.223877,21.776123,10,21.5,10z M23.5,4H22V2.5C22,2.223877,21.776123,2,21.5,2S21,2.223877,21,2.5V4h-1.5C19.223877,4,19,4.223877,19,4.5S19.223877,5,19.5,5H21v1.5006104C21.0001831,6.7765503,21.223999,7.0001831,21.5,7h0.0006104C21.7765503,6.9998169,22.0001831,6.776001,22,6.5V5h1.5C23.776123,5,24,4.776123,24,4.5S23.776123,4,23.5,4z M12,9c-2.2091675,0-4,1.7908325-4,4s1.7908325,4,4,4c2.208252-0.0021973,3.9978027-1.791748,4-4C16,10.7908325,14.2091675,9,12,9z M12,16c-1.6568604,0-3-1.3431396-3-3s1.3431396-3,3-3c1.6561279,0.0018311,2.9981689,1.3438721,3,3C15,14.6568604,13.6568604,16,12,16z"/></svg>