<svg xmlns="http://www.w3.org/2000/svg" enable-background="new 0 0 24 24" viewBox="0 0 24 24"><path fill="#6563ff" d="M11.9829102,8.9589844c-2.2091675,0.0003052-3.9997559,1.7913818-3.9995117,4.0004883c0.0002441,2.2091675,1.7913818,3.9998169,4.0004883,3.9995117c2.2080078-0.0026245,3.9971924-1.7919922,3.9995117-4v-0.0004883C15.9831543,10.7493896,14.1920776,8.9587402,11.9829102,8.9589844z M14.9833984,12.9594727c-0.0002441,1.6568604-1.3436279,2.9998169-3.0004883,2.9995117c-1.6568604-0.0002441-2.9997559-1.3436279-2.9995117-3.0004883s1.3436279-2.9997559,3.0004883-2.9995117c1.6559448,0.0020752,2.9976807,1.3441162,2.9995117,3V12.9594727z M19.4833984,6.9589844H17.84375l-0.4296875-1.289978c-0.3394165-1.0217285-1.2954712-1.7108765-2.3720703-1.710022H8.925293c-1.0764771-0.0006714-2.0322266,0.6884766-2.371582,1.710022l-0.4301758,1.289978H4.4838867c-1.380127,0.0014648-2.4985352,1.1199341-2.5,2.5v9c0.0014648,1.380127,1.119873,2.4985352,2.5,2.5h14.9995117c1.380188-0.0012817,2.4987183-1.119812,2.5-2.5v-9C21.9821167,8.0787964,20.8635864,6.9602661,19.4833984,6.9589844z M20.9833984,18.4589844c-0.0009155,0.828064-0.671936,1.4990845-1.5,1.5H4.4838867c-0.828064-0.0009155-1.4990845-0.671936-1.5-1.5v-9c0.0009155-0.828064,0.671936-1.4990845,1.5-1.5h2c0.2151489,0.000061,0.406189-0.1376343,0.4741211-0.3417969l0.5440063-1.6318359C7.7056274,5.3722534,8.2792358,4.9586182,8.925293,4.9589844h6.1166992c0.6460571-0.0006104,1.2196045,0.413147,1.4227905,1.0263672l0.5440063,1.6318359c0.0683594,0.2040405,0.2593994,0.3416138,0.4746094,0.3417969h2c0.828064,0.0009155,1.4990845,0.671936,1.5,1.5V18.4589844z"/></svg>