<svg xmlns="http://www.w3.org/2000/svg" enable-background="new 0 0 24 24" viewBox="0 0 24 24"><path fill="#6563ff" d="M10.7069092,12l2.1465454-2.1465454c0.1871338-0.1937256,0.1871338-0.5009155,0-0.6947021c-0.1918335-0.1986084-0.5083618-0.2041016-0.7069702-0.0122681L9.999939,11.2930298L7.8534546,9.1465454c-0.1937256-0.1871338-0.5009155-0.1871338-0.6947021,0C6.960144,9.3383789,6.9546509,9.6549072,7.1464844,9.8535156L9.2929688,12l-2.1464844,2.1464844c-0.09375,0.09375-0.1464233,0.2208862-0.1464233,0.3534546C7,14.776062,7.223877,14.999939,7.5,15c0.1326294,0.0001221,0.2598267-0.0526123,0.3534546-0.1465454l2.1464844-2.1464844l2.1465454,2.1465454C12.2401123,14.9474487,12.3673706,15.0001831,12.5,15c0.1325073-0.000061,0.2595825-0.0526733,0.3533325-0.1463623c0.1953125-0.1952515,0.1953735-0.5118408,0.0001221-0.7070923L10.7069092,12z M21.8818359,11.6767578l-5.5-6.5C16.2868652,5.0644531,16.1470947,4.9997559,16,5H5C3.3438721,5.0018311,2.0018311,6.3438721,2,8v8c0.0018311,1.6561279,1.3438721,2.9981689,3,3h11c0.1470947,0.0002441,0.2868652-0.0644531,0.3818359-0.1767578l5.5-6.5C22.0390625,12.1364136,22.0390625,11.8635864,21.8818359,11.6767578z M15.7685547,18H5c-1.1040039-0.0014038-1.9985962-0.8959961-2-2V8c0.0014038-1.1040039,0.8959961-1.9985962,2-2h10.7685547l5.0761719,6L15.7685547,18z"/></svg>