<svg xmlns="http://www.w3.org/2000/svg" enable-background="new 0 0 24 24" viewBox="0 0 24 24"><path fill="#6563ff" d="M19.4248047,4.5751953c-1.7574463-1.7574463-4.6068115-1.7574463-6.3642578,0L8.8404541,8.7952881C8.8307495,8.803772,8.8184204,8.8071289,8.8092651,8.8164673C8.8009644,8.8249512,8.7982788,8.8361816,8.7907104,8.8450317l-4.2155151,4.2155151c-1.7543945,1.758728-1.7543945,4.6055298,0,6.3642578c0.8435669,0.8441772,1.9887085,1.3175049,3.1821289,1.3154297c1.1934204,0.0021973,2.338562-0.4711914,3.1821289-1.3154297l4.2351685-4.2351685c0.0026245-0.0025024,0.0062866-0.0033569,0.0088501-0.0059204s0.0032959-0.0061035,0.0057983-0.008728l4.2355347-4.2355347C21.182251,9.1820068,21.182251,6.3326416,19.4248047,4.5751953z M10.2324219,18.7177734c-1.3684692,1.3632812-3.5817261,1.3632812-4.9501953,0c-1.3642578-1.368103-1.3642578-3.5820923,0-4.9501953L9.1713867,9.878418l4.9501953,4.9501953L10.2324219,18.7177734z M18.7177734,10.2324219l-3.8891602,3.8891602L9.878418,9.1713867l3.8891602-3.8891602c1.3669434-1.3669434,3.583252-1.3669434,4.9501953,0S20.0847168,8.8654785,18.7177734,10.2324219z"/></svg>