<svg xmlns="http://www.w3.org/2000/svg" enable-background="new 0 0 24 24" viewBox="0 0 24 24"><path fill="#6563ff" d="M7,4c0.1326294,0.0001221,0.2598267-0.0526123,0.3534546-0.1465454l2-2c0.1871338-0.1937256,0.1871338-0.5009155,0-0.6947021C9.1616211,0.960144,8.8450928,0.9546509,8.6464844,1.1464844l-2,2c-0.09375,0.09375-0.1464233,0.2208862-0.1464233,0.3534546C6.5,3.776062,6.723877,3.999939,7,4z M15,4c0.1326294,0.0001221,0.2598267-0.0526123,0.3534546-0.1465454l2-2c0.1871948-0.1937256,0.1871948-0.5009155,0-0.6947021c-0.1918335-0.1986084-0.5083618-0.2041016-0.7069702-0.0122681l-2,2c-0.09375,0.09375-0.1464233,0.2208862-0.1464233,0.3534546C14.5,3.776062,14.723877,3.999939,15,4z M11,4c0.1326294,0.0001221,0.2598267-0.0526123,0.3534546-0.1465454l2-2c0.1871338-0.1937256,0.1871338-0.5009155,0-0.6947021c-0.1918335-0.1986084-0.5083618-0.2041016-0.7069702-0.0122681l-2,2c-0.09375,0.09375-0.1464233,0.2208862-0.1464233,0.3534546C10.5,3.776062,10.723877,3.999939,11,4z M16.6494141,15.6494751c-0.0050049,0.0047607-0.0098877,0.0096436-0.0146484,0.0145874c-0.1852417,0.1933594-0.1787109,0.5003052,0.0146484,0.6856079c0.0424194,0.0505981,0.0977783,0.0887451,0.1601562,0.1103516C16.8688354,16.4885864,16.9342041,16.5023193,17,16.5c0.1279907-0.0020752,0.2503662-0.0531616,0.3418579-0.1427002c0.1976318-0.1932983,0.2011108-0.5102539,0.0077515-0.7078247C17.1546631,15.460022,16.8443604,15.460022,16.6494141,15.6494751z M6.6494141,15.6494141C6.5527954,15.7437134,6.4988403,15.8733521,6.5,16.0083618C6.5023193,16.2821655,6.7261353,16.5023193,7,16.5c0.0654907,0.0023193,0.1304932-0.0114136,0.1894531-0.0400391c0.0625-0.0213623,0.1179199-0.0595703,0.1601562-0.1103516C7.4487915,16.2609253,7.5037842,16.1329956,7.5,16c0.001709-0.1328735-0.0529785-0.2602539-0.1503906-0.3505859C7.1546631,15.4599609,6.8443604,15.4599609,6.6494141,15.6494141z M19.8733521,11.0379639l-1.442688-4.3289795C18.0906372,5.6878662,17.1348267,4.9992676,16.0585938,5H7.9414062C6.8651733,4.9992676,5.9093628,5.6878662,5.5693359,6.7089844l-1.442688,4.3289795C2.9250488,11.2203369,2.0011597,12.2476807,2,13.5v5c0.0010986,1.2089233,0.8594971,2.2167358,2,2.4491577v1.5513916C4.0001831,22.7765503,4.223999,23.0001831,4.5,23h0.0006104C4.7765503,22.9998169,5.0001831,22.776001,5,22.5V21h14v1.5005493C19.0001831,22.7765503,19.223999,23.0001831,19.5,23h0.0006104C19.7765503,22.9998169,20.0001831,22.776001,20,22.5v-1.5508423c1.1405029-0.2324219,1.9989014-1.2402344,2-2.4491577v-5C21.9988403,12.2476807,21.0749512,11.2203369,19.8733521,11.0379639z M6.5185547,7.0253906C6.722168,6.4125977,7.2956543,5.9993286,7.9414062,6h8.1171875c0.645752-0.0006714,1.2192383,0.4125977,1.4228516,1.0253906L18.8066406,11H5.1933594L6.5185547,7.0253906z M21,18.5c-0.0009155,0.828064-0.671936,1.4990845-1.5,1.5h-15c-0.828064-0.0009155-1.4990845-0.671936-1.5-1.5v-5c0.0009155-0.828064,0.671936-1.4990845,1.5-1.5h15c0.828064,0.0009155,1.4990845,0.671936,1.5,1.5V18.5z M13,15.5h-2c-0.276123,0-0.5,0.223877-0.5,0.5s0.223877,0.5,0.5,0.5h2c0.276123,0,0.5-0.223877,0.5-0.5S13.276123,15.5,13,15.5z"/></svg>