<svg xmlns="http://www.w3.org/2000/svg" enable-background="new 0 0 24 24" viewBox="0 0 24 24"><path fill="#6563ff" d="M7,13c-0.8,0-1.5,0.7-1.5,1.5S6.2,16,7,16c0.8,0,1.5-0.7,1.5-1.5C8.5,13.7,7.8,13,7,13z M7,15c-0.3,0-0.5-0.2-0.5-0.5S6.7,14,7,14c0.3,0,0.5,0.2,0.5,0.5C7.5,14.8,7.3,15,7,15z M20.2,10.3l-1.5-4.8C18.2,4,16.8,3,15.3,3H8.7C8.4,3,8,3,7.7,3.1c0,0,0,0,0,0C7.5,3.2,7.3,3.5,7.4,3.8C7.5,4,7.8,4.2,8,4.1C8.2,4,8.5,4,8.7,4h6.6c1.1,0,2.1,0.7,2.4,1.7l1.4,4.3H19h-4.3c-0.3,0-0.5,0.2-0.5,0.5s0.2,0.5,0.5,0.5H19c1.1,0,2,0.9,2,2v3c0,0.3-0.1,0.6-0.2,0.8c0,0.1,0,0.1,0,0.2c0,0.3,0.2,0.5,0.5,0.5c0.2,0,0.4-0.1,0.5-0.3c0.2-0.4,0.3-0.8,0.3-1.3v-3C22,11.8,21.3,10.7,20.2,10.3z M19.4,18.6C19.4,18.6,19.4,18.6,19.4,18.6l-0.5-0.5c0,0,0,0,0,0l-8-8c0,0,0,0,0,0l-8-8C2.7,2,2.4,2,2.2,2.1C2,2.3,2,2.7,2.1,2.9l3.1,3.1l-1.4,4.3C2.7,10.7,2,11.8,2,13v3c0,1.5,1.1,2.7,2.5,2.9v1.6c0,0,0,0,0,0C4.5,20.8,4.7,21,5,21c0,0,0,0,0,0c0.3,0,0.5-0.2,0.5-0.5V19h12.8l0.2,0.2v1.3c0,0,0,0,0,0c0,0.3,0.2,0.5,0.5,0.5c0,0,0,0,0,0c0.3,0,0.5-0.2,0.5-0.5v-0.3l1.6,1.6c0.1,0.1,0.2,0.1,0.4,0.1c0.1,0,0.3-0.1,0.4-0.1c0.2-0.2,0.2-0.5,0-0.7L19.4,18.6z M6,6.7L9.3,10H5H4.9L6,6.7z M5,18c-1.1,0-2-0.9-2-2v-3c0-1.1,0.9-2,2-2h5.3l3,3h-2.8c-0.3,0-0.5,0.2-0.5,0.5s0.2,0.5,0.5,0.5h3c0.2,0,0.4-0.1,0.5-0.3l3.3,3.3H5z M17.5,14.7c-0.1,0.3,0,0.5,0.2,0.7c0.1,0,0.1,0,0.2,0c0.2,0,0.4-0.1,0.5-0.3c0.1-0.2,0.1-0.4,0.1-0.6c0-0.8-0.7-1.5-1.5-1.5c-0.3,0-0.5,0.2-0.5,0.5S16.7,14,17,14c0.3,0,0.5,0.2,0.5,0.5C17.5,14.6,17.5,14.6,17.5,14.7C17.5,14.7,17.5,14.7,17.5,14.7z"/></svg>