<svg xmlns="http://www.w3.org/2000/svg" enable-background="new 0 0 24 24" viewBox="0 0 24 24"><path fill="#6563ff" d="M19,10h-0.1618652l-1.2453613-3.1142578C17.1405029,5.7442627,16.0354614,4.9960938,14.8076172,5H8.5493164C7.1203003,5.0030518,5.8907471,6.0113525,5.6079102,7.4121094L5.090271,10H5c-1.6561279,0.0018311-2.9981689,1.3438721-3,3v3.5005493C2.0001831,16.7765503,2.223999,17.0001831,2.5,17H4c0,1.6568604,1.3431396,3,3,3c1.6561279-0.0018311,2.9981689-1.3438721,3-3h4c0,1.6568604,1.3431396,3,3,3c1.6561279-0.0018311,2.9981689-1.3438721,3-3h1.5006104C21.7765503,16.9998169,22.0001831,16.776001,22,16.5V13C21.9981689,11.3438721,20.6561279,10.0018311,19,10z M12.5,6h2.3076172c0.8186035-0.0026855,1.555481,0.4959106,1.8573608,1.2568359L17.7617188,10H12.5V6z M6.5883789,7.6074219C6.7770386,6.6737671,7.5967407,6.0018311,8.5493164,6H11.5v4H6.1098633L6.5883789,7.6074219z M7,19c-1.1045532,0-2-0.8954468-2-2s0.8954468-2,2-2c1.1040649,0.0012817,1.9987183,0.8959351,2,2C9,18.1045532,8.1045532,19,7,19z M17,19c-1.1045532,0-2-0.8954468-2-2s0.8954468-2,2-2c1.1040039,0.0014038,1.9985962,0.8959961,2,2C19,18.1045532,18.1045532,19,17,19z M21,16h-1.1837158C19.4030151,14.8374634,18.3043213,14,17,14s-2.4030151,0.8374634-2.8162842,2H9.8162842C9.4030151,14.8374634,8.3043213,14,7,14s-2.4030151,0.8374634-2.8162842,2H3v-3c0.0012817-1.1040649,0.8959351-1.9987183,2-2h14c1.1040039,0.0014038,1.9985962,0.8959961,2,2V16z"/></svg>