<svg xmlns="http://www.w3.org/2000/svg" enable-background="new 0 0 24 24" viewBox="0 0 24 24"><path fill="#6563ff" d="M16.5,11.5c-0.6,0-1.1,0.2-1.5,0.5c-0.4-0.3-1-0.5-1.5-0.5c-1.4,0-2.5,1.1-2.5,2.5c0,1.4,1.1,2.5,2.5,2.5c0.5,0,1.1-0.2,1.5-0.5c0.4,0.3,0.9,0.5,1.5,0.5c1.4,0,2.5-1.1,2.5-2.5C19,12.6,17.9,11.5,16.5,11.5z M14.1,14.6c0,0,0,0.1,0,0.1c0.1,0.2,0.1,0.3,0.2,0.5c0,0,0,0,0,0c-0.2,0.2-0.5,0.3-0.8,0.3c-0.8,0-1.5-0.7-1.5-1.5s0.7-1.5,1.5-1.5c0.3,0,0.6,0.1,0.8,0.3c0,0,0,0,0,0c-0.1,0.2-0.2,0.3-0.2,0.5c0,0,0,0.1,0,0.1c0,0.2-0.1,0.4-0.1,0.6S14,14.4,14.1,14.6z M16.5,15.5c-0.4,0-0.8-0.2-1.1-0.5c0,0,0,0,0,0c-0.1-0.1-0.2-0.3-0.3-0.5c0,0,0,0,0,0c-0.1-0.3-0.1-0.7,0-1c0,0,0,0,0,0c0.1-0.2,0.2-0.3,0.3-0.5c0,0,0,0,0,0c0.3-0.3,0.7-0.5,1.1-0.5c0.8,0,1.5,0.7,1.5,1.5C18,14.8,17.3,15.5,16.5,15.5z M19.5,4.5h-15C3.1,4.5,2,5.6,2,7v10c0,1.4,1.1,2.5,2.5,2.5h15c1.4,0,2.5-1.1,2.5-2.5V7C22,5.6,20.9,4.5,19.5,4.5z M21,17c0,0.8-0.7,1.5-1.5,1.5h-15C3.7,18.5,3,17.8,3,17V7c0-0.8,0.7-1.5,1.5-1.5h15C20.3,5.5,21,6.2,21,7V17z"/></svg>