<svg xmlns="http://www.w3.org/2000/svg" enable-background="new 0 0 24 24" viewBox="0 0 24 24"><path fill="#6563ff" d="M21.7481079,4.7792969l-4.75-2.7138672c-0.1536865-0.0878906-0.3424072-0.0878906-0.4960938,0L12.000061,4.6375732L7.4981079,2.0654297c-0.1536865-0.0878906-0.3424072-0.0878906-0.4960938,0l-4.75,2.7138672C2.0961304,4.8684692,1.999939,5.0343018,2,5.2138672v5.4287109c-0.000061,0.1795654,0.0961304,0.3453979,0.2520142,0.4345703L6.75,13.6479492v5.1381836c-0.000061,0.1795654,0.0961304,0.3453979,0.2520142,0.4345703l4.75,2.7138672C11.8275757,21.9776001,11.9130249,22.0001831,12,22c0.0869751,0.0001831,0.1724854-0.0223389,0.2480469-0.0654297l4.75-2.7138672c0.1558838-0.0891724,0.2520752-0.2550049,0.2520142-0.4345703v-5.1381836l4.4979248-2.5708008C21.9038696,10.9879761,22.000061,10.8221436,22,10.6425781V5.2138672C22.000061,5.0343018,21.9039307,4.8684692,21.7481079,4.7792969z M3,10.3525391V5.5039062l4.25-2.4277344l4.25,2.4277344v4.8480835L7.2498779,12.781189L3,10.3525391z M16.25,18.4960938L12,20.9238281l-4.25-2.4277344v-4.8480835l4.250061-2.4290771L16.25,13.6479492V18.4960938z M21,10.3525391l-4.2498779,2.4286499l-4.25-2.4291382V5.5038452L16.75,3.0761719L21,5.5039062V10.3525391z"/></svg>