<svg xmlns="http://www.w3.org/2000/svg" enable-background="new 0 0 24 24" viewBox="0 0 24 24"><path fill="#6563ff" d="M21.5,20.0009766H15c-2.208252-0.0021973-3.9978027-1.791748-4-4v-8c0.0021973-2.2081909,1.791748-3.9978027,4-4h6.5c0.276123,0,0.5-0.2238159,0.5-0.5c0-0.276123-0.223877-0.5-0.5-0.5H15c-2.7600708,0.0032349-4.9967651,2.2399292-5,5v8c0.0032349,2.7600708,2.2399292,4.9967651,5,5h6.5c0.276123,0,0.5-0.2238159,0.5-0.5C22,20.2248535,21.776123,20.0009766,21.5,20.0009766z M6,3C4.8954468,3,4,3.8954468,4,5s0.8954468,2,2,2c1.1040039-0.0014038,1.9985962-0.8959961,2-2C8,3.8954468,7.1045532,3,6,3z M6,6C5.4476929,6,5,5.5523071,5,5s0.4476929-1,1-1c0.552124,0.0003662,0.9996338,0.447876,1,1C7,5.5523071,6.5523071,6,6,6z"/></svg>