<svg xmlns="http://www.w3.org/2000/svg" enable-background="new 0 0 24 24" viewBox="0 0 24 24"><path fill="#6563ff" d="M7.5,12C7.223877,12,7,12.223877,7,12.5v5.0005493C7.0001831,17.7765503,7.223999,18.0001831,7.5,18h0.0006104C7.7765503,17.9998169,8.0001831,17.776001,8,17.5v-5C8,12.223877,7.776123,12,7.5,12z M19,2H5C3.3438721,2.0018311,2.0018311,3.3438721,2,5v14c0.0018311,1.6561279,1.3438721,2.9981689,3,3h14c1.6561279-0.0018311,2.9981689-1.3438721,3-3V5C21.9981689,3.3438721,20.6561279,2.0018311,19,2z M21,19c-0.0014038,1.1040039-0.8959961,1.9985962-2,2H5c-1.1040039-0.0014038-1.9985962-0.8959961-2-2V5c0.0014038-1.1040039,0.8959961-1.9985962,2-2h14c1.1040039,0.0014038,1.9985962,0.8959961,2,2V19z M12,6c-0.276123,0-0.5,0.223877-0.5,0.5v11.0005493C11.5001831,17.7765503,11.723999,18.0001831,12,18h0.0006104c0.2759399-0.0001831,0.4995728-0.223999,0.4993896-0.5v-11C12.5,6.223877,12.276123,6,12,6z M16.5,10c-0.276123,0-0.5,0.223877-0.5,0.5v7.0005493C16.0001831,17.7765503,16.223999,18.0001831,16.5,18h0.0006104C16.7765503,17.9998169,17.0001831,17.776001,17,17.5v-7C17,10.223877,16.776123,10,16.5,10z"/></svg>