<svg xmlns="http://www.w3.org/2000/svg" enable-background="new 0 0 24 24" viewBox="0 0 24 24"><path fill="#6563ff" d="M21.5,21H3v-3h4.5C7.776123,18,8,17.776123,8,17.5S7.776123,17,7.5,17H3v-3h8.5c0.276123,0,0.5-0.223877,0.5-0.5S11.776123,13,11.5,13H3v-3h12.5c0.276123,0,0.5-0.223877,0.5-0.5S15.776123,9,15.5,9H3V6h16.5C19.776123,6,20,5.776123,20,5.5S19.776123,5,19.5,5H3V2.5C3,2.223877,2.776123,2,2.5,2S2,2.223877,2,2.5v19.0005493C2.0001831,21.7765503,2.223999,22.0001831,2.5,22h19c0.276123,0,0.5-0.223877,0.5-0.5S21.776123,21,21.5,21z"/></svg>