<svg xmlns="http://www.w3.org/2000/svg" enable-background="new 0 0 24 24" viewBox="0 0 24 24"><path fill="#6563ff" d="M21.5,21H3V2.5C3,2.223877,2.776123,2,2.5,2S2,2.223877,2,2.5v19.0005493C2.0001831,21.7765503,2.223999,22.0001831,2.5,22h19c0.276123,0,0.5-0.223877,0.5-0.5S21.776123,21,21.5,21z M7.5,16c0.828064-0.0009155,1.4990845-0.671936,1.5-1.5c0-0.2311401-0.0565796-0.4474487-0.1499634-0.6430054l2.506897-2.506958C11.5524902,11.4434204,11.7688599,11.5,12,11.5c0.2310181-0.0002441,0.4471436-0.0570068,0.6425781-0.1503906l1.5073853,1.5073853C14.0565796,13.0525513,14,13.2688599,14,13.5c0,0.8284302,0.6715698,1.5,1.5,1.5c0.828064-0.0009155,1.4990845-0.671936,1.5-1.5c0-0.2311401-0.0565796-0.4475098-0.1499634-0.6430664l3.006897-3.006897C20.0524902,9.9434204,20.2688599,10,20.5,10c0.828064-0.0009155,1.4990845-0.671936,1.5-1.5C22,7.6715698,21.3284302,7,20.5,7S19,7.6715698,19,8.5c0,0.2311401,0.0565796,0.4474487,0.1499634,0.6430054l-3.006958,3.006958C15.9474487,12.0565796,15.7311401,12,15.5,12s-0.4475098,0.0565796-0.6430664,0.1499634l-1.5073242-1.5073242C13.4430542,10.4472046,13.4997559,10.2310181,13.5,10c0-0.8284302-0.6715698-1.5-1.5-1.5s-1.5,0.6715698-1.5,1.5c0,0.2311401,0.0565796,0.4474487,0.1499634,0.6430054l-2.506958,2.506958C7.9474487,13.0565796,7.7311401,13,7.5,13C6.6715698,13,6,13.6715698,6,14.5S6.6715698,16,7.5,16z M20.5,8c0.2759399,0.0005493,0.4994507,0.2240601,0.5,0.5C21,8.776123,20.776123,9,20.5,9S20,8.776123,20,8.5S20.223877,8,20.5,8z M15.5,13c0.2759399,0.0005493,0.4994507,0.2240601,0.5,0.5c0,0.276123-0.223877,0.5-0.5,0.5S15,13.776123,15,13.5S15.223877,13,15.5,13z M12,9.5c0.2759399,0.0005493,0.4994507,0.2240601,0.5,0.5c0,0.276123-0.223877,0.5-0.5,0.5s-0.5-0.223877-0.5-0.5S11.723877,9.5,12,9.5z M7.5,14c0.2759399,0.0005493,0.4994507,0.2240601,0.5,0.5C8,14.776123,7.776123,15,7.5,15S7,14.776123,7,14.5S7.223877,14,7.5,14z"/></svg>