<svg xmlns="http://www.w3.org/2000/svg" enable-background="new 0 0 24 24" viewBox="0 0 24 24"><path fill="#6563ff" d="M21.5,11c-0.276123,0-0.5,0.223877-0.5,0.5v4.7930298l-7.6465454-7.6465454c0,0-0.000061-0.000061-0.0001221-0.0001221c-0.1951904-0.1951294-0.5117188-0.1950684-0.7068481,0.0001221L9,12.2930298L2.8535156,6.1465454c-0.1937256-0.1871338-0.5009155-0.1871338-0.6947021,0C1.9602051,6.3383789,1.9547119,6.6549072,2.1465454,6.8535156l6.5,6.5c0,0.000061,0.000061,0.0001221,0.0001221,0.0001221c0.1951904,0.1951904,0.5117188,0.1951294,0.7068481-0.0001221L13,9.7069702L20.2929688,17H15.5c-0.276123,0-0.5,0.223877-0.5,0.5s0.223877,0.5,0.5,0.5h6c0.0001831,0,0.0003662,0,0.0006104,0C21.7765503,17.9998169,22.0001831,17.776001,22,17.5v-6C22,11.223877,21.776123,11,21.5,11z"/></svg>