<svg xmlns="http://www.w3.org/2000/svg" enable-background="new 0 0 24 24" viewBox="0 0 24 24"><path fill="#6563ff" d="M19.5,5C19.223877,5,19,5.223877,19,5.5v4.0005493C19.0001831,9.7765503,19.223999,10.0001831,19.5,10h0.0006104C19.7765503,9.9998169,20.0001831,9.776001,20,9.5v-4C20,5.223877,19.776123,5,19.5,5z M19.5039062,13.0009766c-0.0061646-0.0004883-0.0123291-0.0008545-0.0184937-0.0010986c-0.270813-0.0107422-0.4990234,0.2000122-0.5098267,0.4708252C18.7271118,17.6950073,15.2315674,20.9949341,11,21H3.7069702l1.6358032-1.6357422l0.0001831-0.0001831c0.1951294-0.1952515,0.1950684-0.5117188-0.0001831-0.7068481c-2.633667-2.6329346-3.1010742-6.7353516-1.1272583-9.8932495C6.5562744,5.019165,11.489563,3.8809204,15.234375,6.2216797c0.0011597,0.0007324,0.0023193,0.0014648,0.00354,0.0021973c0.2346802,0.1456909,0.5430298,0.0736084,0.6887817-0.1610718c0.1456909-0.2346802,0.0736084-0.5430908-0.1610718-0.6887817C12.3666992,3.2429199,7.9674072,3.6203003,4.9811401,6.2991943C1.2833252,9.616394,0.9747925,15.3031616,4.2919922,19.0009766l-2.1455078,2.1455078c-0.09375,0.09375-0.1464233,0.2208862-0.1464233,0.3534546C2,21.776062,2.223877,21.999939,2.5,22H11c4.7609253-0.0053711,8.6939697-3.7179565,8.9736328-8.4707031c0.000061-0.0006104,0.000061-0.0012207,0.0001221-0.0018921C19.9893799,13.2523193,19.7790527,13.0166016,19.5039062,13.0009766z M19.5,2.75c-0.4141846,0-0.75,0.3358154-0.75,0.75s0.3358154,0.75,0.75,0.75s0.75-0.3358154,0.75-0.75S19.9141846,2.75,19.5,2.75z"/></svg>