<svg xmlns="http://www.w3.org/2000/svg" enable-background="new 0 0 24 24" viewBox="0 0 24 24"><path fill="#6563ff" d="M18.5,2h-13C4.119812,2.0012817,3.0012817,3.119812,3,4.5v12c0.0012817,1.380188,1.119812,2.4987183,2.5,2.5h3.2930298l2.8534546,2.8535156C11.7401123,21.9474487,11.8673706,22.0001831,12,22c0.1326294,0.0001221,0.2598267-0.0525513,0.3535156-0.1464844L15.2069702,19H18.5c1.380188-0.0012817,2.4987183-1.119812,2.5-2.5v-12C20.9987183,3.119812,19.880188,2.0012817,18.5,2z M20,16.5c-0.0009155,0.828064-0.671936,1.4990845-1.5,1.5H15c-0.1326294,0-0.2597656,0.0526733-0.3535156,0.1464844L12,20.7929688l-2.6464844-2.6464844C9.2597656,18.0526733,9.1326294,18,9,18H5.5c-0.828064-0.0009155-1.4990845-0.671936-1.5-1.5v-12C4.0009155,3.671936,4.671936,3.0009155,5.5,3h13c0.828064,0.0009155,1.4990845,0.671936,1.5,1.5V16.5z M13.8325195,11.3579102C14.5372925,10.809021,14.9989624,9.9623413,15,9c0-1.6568604-1.3431396-3-3-3S9,7.3431396,9,9c0,0.9682007,0.4663696,1.8200073,1.1782837,2.3685303c-1.2956543,0.5131226-2.3774414,1.5448608-2.8735962,2.963501c-0.0001221,0.0003662-0.0002441,0.0006714-0.0003662,0.0010376c-0.0924072,0.2597656,0.043335,0.5452881,0.3031006,0.6376343c0.0046997,0.00177,0.0093994,0.003479,0.0140991,0.0050659c0.2574463,0.0874634,0.5371094-0.050293,0.6245728-0.3077393c0.3991699-1.1466064,1.300415-2.0478516,2.4469604-2.4470215c2.0732422-0.7218018,4.3390503,0.3737793,5.0608521,2.4470215C15.824707,14.8671875,16.0132446,15.0001831,16.2246094,15c0.057312,0.0002441,0.1141357-0.0096436,0.1679688-0.0292969c0.0003052-0.0001221,0.0006714-0.0001831,0.0009766-0.0003052c0.2595825-0.0929565,0.3947144-0.3787842,0.3017578-0.6383667C16.2182007,12.9679565,15.1693726,11.8887939,13.8325195,11.3579102z M12,11c-1.1045532,0-2-0.8954468-2-2s0.8954468-2,2-2c1.1040039,0.0014038,1.9985962,0.8959961,2,2C14,10.1045532,13.1045532,11,12,11z"/></svg>