<svg xmlns="http://www.w3.org/2000/svg" enable-background="new 0 0 24 24" viewBox="0 0 24 24"><path fill="#6563ff" d="M19,2H5C3.3438721,2.0018311,2.0018311,3.3438721,2,5v14c0.0018311,1.6561279,1.3438721,2.9981689,3,3h14c1.6561279-0.0018311,2.9981689-1.3438721,3-3V5C21.9981689,3.3438721,20.6561279,2.0018311,19,2z M17.7929688,3l-6,6H6.2069092l6-6H17.7929688z M3,5c0.0014038-1.1040039,0.8959961-1.9985962,2-2h5.7929688l-6,6H3V5z M21,19c-0.0014038,1.1040039-0.8959961,1.9985962-2,2H5c-1.1040039-0.0014038-1.9985962-0.8959961-2-2v-9h18V19z M21,9h-7.7930908l5.980835-5.980835C20.2022705,3.116333,20.9986572,3.9603271,21,5V9z"/></svg>