<svg xmlns="http://www.w3.org/2000/svg" enable-background="new 0 0 24 24" viewBox="0 0 24 24"><path fill="#6563ff" d="M15.5,14h-7C8.223877,14,8,14.223877,8,14.5S8.223877,15,8.5,15h7c0.276123,0,0.5-0.223877,0.5-0.5S15.776123,14,15.5,14z M15.5,10h-5c-0.276123,0-0.5,0.223877-0.5,0.5s0.223877,0.5,0.5,0.5h5c0.276123,0,0.5-0.223877,0.5-0.5S15.776123,10,15.5,10z M17.5,4h-1.5508423C15.7167358,2.8594971,14.7089233,2.0010986,13.5,2h-3C9.2910767,2.0010986,8.2832642,2.8594971,8.0508423,4H6.5C5.119812,4.0012817,4.0012817,5.119812,4,6.5v13c0.0012817,1.380188,1.119812,2.4987183,2.5,2.5h11c1.380188-0.0012817,2.4987183-1.119812,2.5-2.5v-13C19.9987183,5.119812,18.880188,4.0012817,17.5,4z M9,4.5C9.0009155,3.671936,9.671936,3.0009155,10.5,3h3c0.828064,0.0009155,1.4990845,0.671936,1.5,1.5V6H9V4.5z M19,19.5c-0.0009155,0.828064-0.671936,1.4990845-1.5,1.5h-11c-0.828064-0.0009155-1.4990845-0.671936-1.5-1.5v-13C5.0009155,5.671936,5.671936,5.0009155,6.5,5H8v1.5c0,0.0001831,0,0.0003662,0,0.0006104C8.0001831,6.7765503,8.223999,7.0001831,8.5,7h7c0.0001831,0,0.0003662,0,0.0006104,0C15.7765503,6.9998169,16.0001831,6.776001,16,6.5V5h1.5c0.828064,0.0009155,1.4990845,0.671936,1.5,1.5V19.5z"/></svg>