<svg xmlns="http://www.w3.org/2000/svg" enable-background="new 0 0 24 24" viewBox="0 0 24 24"><path fill="#6563ff" d="M17,4h-1.1846313C15.4013672,2.8383179,14.3035889,2.0014648,13,2h-2C9.6964111,2.0014648,8.5986328,2.8383179,8.1846313,4H7C5.3438721,4.0018311,4.0018311,5.3438721,4,7v12c0.0018311,1.6561279,1.3438721,2.9981689,3,3h10c1.6561279-0.0018311,2.9981689-1.3438721,3-3V7C19.9981689,5.3438721,18.6561279,4.0018311,17,4z M9,5c0.0014038-1.1040039,0.8959961-1.9985962,2-2h2c1.1040039,0.0014038,1.9985962,0.8959961,2,2v2H9V5z M19,19c-0.0014038,1.1040039-0.8959961,1.9985962-2,2H7c-1.1040039-0.0014038-1.9985962-0.8959961-2-2V7c0.0014038-1.1040039,0.8959961-1.9985962,2-2h1v2.5006104C8.0001831,7.7765503,8.223999,8.0001831,8.5,8h7.0006104C15.7765503,7.9998169,16.0001831,7.776001,16,7.5V5h1c1.1040039,0.0014038,1.9985962,0.8959961,2,2V19z"/></svg>