<svg xmlns="http://www.w3.org/2000/svg" enable-background="new 0 0 24 24" viewBox="0 0 24 24"><path fill="#6563ff" d="M17,4h-1c-0.0014038-1.1040039-0.8959961-1.9985962-2-2h-4C8.8959961,2.0014038,8.0014038,2.8959961,8,4H7C5.3438721,4.0018311,4.0018311,5.3438721,4,7v12c0.0018311,1.6561279,1.3438721,2.9981689,3,3h10c1.6561279-0.0018311,2.9981689-1.3438721,3-3V7C19.9981689,5.3438721,18.6561279,4.0018311,17,4z M9,4c0.0003662-0.552124,0.447876-0.9996338,1-1h4c0.552124,0.0003662,0.9996338,0.447876,1,1v2c-0.0003662,0.552124-0.447876,0.9996338-1,1h-4C9.447876,6.9996338,9.0003662,6.552124,9,6V4z M19,19c-0.0014038,1.1040039-0.8959961,1.9985962-2,2H7c-1.1040039-0.0014038-1.9985962-0.8959961-2-2V7c0.0014038-1.1040039,0.8959961-1.9985962,2-2h1v1c0.0014038,1.1040039,0.8959961,1.9985962,2,2h4c1.1040039-0.0014038,1.9985962-0.8959961,2-2V5h1c1.1040039,0.0014038,1.9985962,0.8959961,2,2V19z"/></svg>