<svg xmlns="http://www.w3.org/2000/svg" enable-background="new 0 0 24 24" viewBox="0 0 24 24"><path fill="#6563ff" d="M17,4h-1.1846313C15.4013672,2.8383179,14.3035889,2.0014648,13,2h-2C9.6964111,2.0014648,8.5986328,2.8383179,8.1846313,4H7C5.3438721,4.0018311,4.0018311,5.3438721,4,7v12c0.0018311,1.6561279,1.3438721,2.9981689,3,3h10c1.6561279-0.0018311,2.9981689-1.3438721,3-3V7C19.9981689,5.3438721,18.6561279,4.0018311,17,4z M9,5c0.0014038-1.1040039,0.8959961-1.9985962,2-2h2c1.1040039,0.0014038,1.9985962,0.8959961,2,2v1H9V5z M19,19c-0.0014038,1.1040039-0.8959961,1.9985962-2,2H7c-1.1040039-0.0014038-1.9985962-0.8959961-2-2V7c0.0014038-1.1040039,0.8959961-1.9985962,2-2h1v1.5c0,0.0001831,0,0.0003662,0,0.0006104C8.0001831,6.7765503,8.223999,7.0001831,8.5,7h7c0.0001831,0,0.0003662,0,0.0006104,0C15.7765503,6.9998169,16.0001831,6.776001,16,6.5V5h1c1.1040039,0.0014038,1.9985962,0.8959961,2,2V19z M13.5,14h-5C8.223877,14,8,14.223877,8,14.5S8.223877,15,8.5,15h5c0.276123,0,0.5-0.223877,0.5-0.5S13.776123,14,13.5,14z M15.5,10h-7C8.223877,10,8,10.223877,8,10.5S8.223877,11,8.5,11h7c0.276123,0,0.5-0.223877,0.5-0.5S15.776123,10,15.5,10z"/></svg>