<svg xmlns="http://www.w3.org/2000/svg" enable-background="new 0 0 24 24" viewBox="0 0 24 24"><path fill="#6563ff" d="M12,2C6.4771729,2,2,6.4771729,2,12s4.4771729,10,10,10c5.5201416-0.0064697,9.9935303-4.4798584,10-10C22,6.4771729,17.5228271,2,12,2z M12,21c-4.9705811,0-9-4.0294189-9-9c0-2.3052368,0.8740845-4.4013062,2.2993774-5.9935913l2.7037964,2.7037964C7.119812,9.0959473,6.5009766,9.9746704,6.5,11v2c0.0076904,1.3775024,1.1224976,2.4923096,2.5,2.5c0.8925781,0.0025024,1.7178955-0.473877,2.1621094-1.2480469c0.1391602-0.2384033,0.0587158-0.5444336-0.1796875-0.6835938s-0.5444336-0.0587158-0.6835938,0.1796875c-0.0568848,0.0925903-0.1234741,0.178894-0.1986694,0.2573242c-0.5841064,0.6097412-1.5519409,0.6304932-2.1616821,0.0463867C7.6554565,13.7753296,7.4971313,13.3956299,7.5,13v-2c0.0008545-0.7636719,0.5737305-1.3868408,1.3120728-1.480896l3.7124023,3.7124023c0.1171875,1.1896973,1.0543213,2.1268311,2.2440186,2.2440186l3.2250977,3.2250977C16.4013062,20.1259155,14.3052368,21,12,21z M18.7006226,17.9935913l-2.7164307-2.7164307c0.484314-0.2093506,0.9065552-0.5522461,1.1779175-1.0252075c0.1391602-0.2384033,0.0587158-0.5444336-0.1796875-0.6835938s-0.5444336-0.0587158-0.6835938,0.1796875c-0.0568848,0.0925903-0.1234741,0.178894-0.1986694,0.2573242c-0.2597046,0.2711182-0.5981445,0.4065552-0.944397,0.4433594L13.5,12.7929688V11c0.0009155-0.828064,0.671936-1.4990845,1.5-1.5c0.4044189-0.0010986,0.7914429,0.1641846,1.0703125,0.4570312c0.0913086,0.0891113,0.1695557,0.1907349,0.2324219,0.3017578c0.1429443,0.2357788,0.4498291,0.3113403,0.6859131,0.1687622c0.2363281-0.1427002,0.3122559-0.4499512,0.1695557-0.6863403c-0.1061401-0.1838989-0.2372437-0.3521729-0.3896484-0.5C16.3045044,8.7636719,15.6658325,8.4960327,15,8.5c-1.380188,0.0012817-2.4987183,1.119812-2.5,2.5v0.7929688l-1.4354858-1.4354858c0.168396-0.1578369,0.2176514-0.4106445,0.093689-0.616272c-0.1061401-0.1838989-0.2372437-0.3521729-0.3896484-0.5c-0.4100952-0.4219971-0.9586792-0.6677856-1.5397339-0.7193604L6.0064087,5.2994385C7.5987549,3.8741455,9.6947632,3,12,3c4.9683228,0.0054321,8.9945679,4.0316772,9,9C21,14.3052368,20.1259155,16.4013062,18.7006226,17.9935913z"/></svg>