<svg xmlns="http://www.w3.org/2000/svg" enable-background="new 0 0 24 24" viewBox="0 0 24 24"><path fill="#6563ff" d="M16.9824219,13.5683594c-0.2384033-0.1391602-0.5444336-0.0587158-0.6835938,0.1796875c-0.0568848,0.0925903-0.1234741,0.178894-0.1986694,0.2573242c-0.5841064,0.6097412-1.5519409,0.6304932-2.1616821,0.0463867C13.6554565,13.7753296,13.4971313,13.3956299,13.5,13v-2c0.0009155-0.828064,0.671936-1.4990845,1.5-1.5c0.4044189-0.0010986,0.7914429,0.1641846,1.0703125,0.4570312c0.0913086,0.0891113,0.1695557,0.1907349,0.2324219,0.3017578c0.1429443,0.2357788,0.4498291,0.3113403,0.6859131,0.1687622c0.2363281-0.1427002,0.3122559-0.4499512,0.1695557-0.6863403c-0.1061401-0.1838989-0.2372437-0.3521729-0.3896484-0.5C16.3045044,8.7636719,15.6658325,8.4960327,15,8.5c-1.380188,0.0012817-2.4987183,1.119812-2.5,2.5v2c0.0076904,1.3775024,1.1224976,2.4923096,2.5,2.5c0.8925781,0.0025024,1.7178955-0.473877,2.1621094-1.2480469C17.3012695,14.0135498,17.2208252,13.7075195,16.9824219,13.5683594z M10.9824219,13.5683594c-0.2384033-0.1391602-0.5444336-0.0587158-0.6835938,0.1796875c-0.0568848,0.0926514-0.1235352,0.1789551-0.1987915,0.2574463c-0.5841064,0.6096802-1.5518799,0.6304321-2.1615601,0.0462646C7.6554565,13.7753296,7.4971313,13.3956299,7.5,13v-2C7.5009155,10.171936,8.171936,9.5009155,9,9.5c0.4044189-0.0010986,0.7914429,0.1641846,1.0703125,0.4570312c0.0913086,0.0891113,0.1695557,0.1907349,0.2324219,0.3017578c0.1430054,0.2354736,0.4495239,0.3109131,0.6854248,0.1687012c0.2364502-0.1425781,0.3126221-0.4498291,0.1700439-0.6862793c-0.1061401-0.1838989-0.2372437-0.3521729-0.3896484-0.5C10.3045044,8.7636719,9.6658325,8.4960327,9,8.5C7.619812,8.5012817,6.5012817,9.619812,6.5,11v2c0.0076904,1.3775024,1.1224976,2.4923096,2.5,2.5c0.8925781,0.0025024,1.7178955-0.473877,2.1621094-1.2480469C11.3012695,14.0135498,11.2208252,13.7075195,10.9824219,13.5683594z M12,2C6.4771729,2,2,6.4771729,2,12s4.4771729,10,10,10c5.5201416-0.0064697,9.9935303-4.4798584,10-10C22,6.4771729,17.5228271,2,12,2z M12,21c-4.9705811,0-9-4.0294189-9-9s4.0294189-9,9-9c4.9683228,0.0054321,8.9945679,4.0316772,9,9C21,16.9705811,16.9705811,21,12,21z"/></svg>