<svg xmlns="http://www.w3.org/2000/svg" enable-background="new 0 0 24 24" viewBox="0 0 24 24"><path fill="#6563ff" d="M18.4169922,8.2197266c-0.982605-2.2747803-3.0957031-3.8596191-5.5546265-4.1660767c-3.8322754-0.4776001-7.3261719,2.2419434-7.803772,6.0742798C3.2614136,10.5598145,1.9959106,12.1691284,2,14.0174561C2.0048218,16.2218018,3.7956543,18.0048218,6,18h0.5C6.776123,18,7,17.776123,7,17.5S6.776123,17,6.5,17H6c-1.4986572,0.0040894-2.769104-1.1015015-2.9719238-2.5863647c-0.2236328-1.6368408,0.9219971-3.1450195,2.5588379-3.3686523c0.2347412-0.0315552,0.4150391-0.2236938,0.4316406-0.4599609c0.1582642-2.3183594,1.642395-4.3362427,3.8083496-5.1779785c3.085144-1.1989746,6.5581055,0.3300781,7.7570801,3.4152222c0.0602417,0.1524658,0.1911011,0.2658691,0.3505859,0.3037109c1.800293,0.4294434,3.0692139,2.0401611,3.0653076,3.8909912C20.9952393,15.2213745,19.2044067,17.0046387,17,17h-0.5c-0.276123,0-0.5,0.223877-0.5,0.5s0.223877,0.5,0.5,0.5H17c2.2174072,0.0037231,4.1714478-1.4557495,4.7971191-3.5830078C22.5750732,11.7722778,21.0617065,8.9976807,18.4169922,8.2197266z M12.7069092,17l1.6465454-1.6465454c0.1871338-0.1937256,0.1871338-0.5009155,0-0.6947021c-0.1918335-0.1986084-0.5083618-0.2041016-0.7069702-0.0122681l-1.6465454,1.6465454l-1.6464844-1.6464844c-0.1937256-0.1871338-0.5009155-0.1871338-0.6947021,0c-0.1986084,0.1918335-0.2041016,0.5083618-0.0122681,0.7069702L11.2929688,17l-1.6464844,1.6464844c-0.09375,0.09375-0.1464233,0.2208862-0.1464233,0.3534546C9.5,19.276062,9.723877,19.499939,10,19.5c0.1326294,0.0001221,0.2598267-0.0526123,0.3534546-0.1465454l1.6464844-1.6464844l1.6465454,1.6465454C13.7401123,19.4474487,13.8673706,19.5001831,14,19.5c0.1325073-0.000061,0.2595825-0.0526733,0.3533325-0.1463623c0.1953125-0.1952515,0.1953735-0.5118408,0.0001221-0.7070923L12.7069092,17z"/></svg>