<svg xmlns="http://www.w3.org/2000/svg" enable-background="new 0 0 24 24" viewBox="0 0 24 24"><path fill="#6563ff" d="M13.5078125,16.9736328h-1.6343384l0.8169556-1.4150391c0.1362305-0.2380981,0.0550537-0.5414429-0.1818237-0.6796875c-0.2383423-0.1390991-0.5443115-0.0586548-0.6834106,0.1796875l-0.8173828,1.4157104l-0.8173828-1.4157104c-0.1382446-0.2368774-0.4416504-0.3180542-0.6796875-0.1818237c-0.239502,0.1370239-0.3225708,0.4423218-0.1855469,0.6818237l0.8169556,1.4150391H8.5078125c-0.276123,0-0.5,0.223877-0.5,0.5s0.223877,0.5,0.5,0.5h1.6343384l-0.8169556,1.4150391c-0.0436401,0.0757446-0.0667114,0.1616211-0.0668335,0.2490845c-0.0004272,0.2762451,0.2232056,0.5004883,0.4994507,0.5009155c0.1785278,0.000061,0.3435059-0.0952759,0.4326172-0.25l0.8173828-1.4157104l0.8173828,1.4157104c0.0891113,0.1547241,0.2540894,0.250061,0.4326172,0.25c0.0874634-0.0001221,0.1732788-0.0231934,0.2490845-0.0668335c0.2393188-0.1380005,0.3214722-0.4438477,0.1835327-0.6831665l-0.8169556-1.4150391h1.6343384c0.276123,0,0.5-0.223877,0.5-0.5S13.7839355,16.9736328,13.5078125,16.9736328z M22.5078125,7.4736328h-1.5379028c-0.0898438-0.7138672-0.3692017-1.3867188-0.8054199-1.949646L21.25,4.4384766c0.1905518-0.194397,0.1905518-0.5054932,0-0.6998901c-0.1932373-0.1972046-0.5098267-0.2003784-0.7069702-0.0071411L19.453064,4.8214111c-0.3693848-0.2861938-0.7872925-0.5214233-1.2602539-0.6672363c-0.2276001-0.0701904-0.456604-0.109314-0.6849976-0.1378784V2.4736328c0-0.276123-0.223877-0.5-0.5-0.5s-0.5,0.223877-0.5,0.5v1.5442505C15.7967529,4.1101685,15.1263428,4.388916,14.56604,4.8249512l-1.0934448-1.0934448c-0.194397-0.1905518-0.5054321-0.1905518-0.6998291,0c-0.1972046,0.1932373-0.2003784,0.5097656-0.0071411,0.7069702l1.1000977,1.1000977c-0.1781006,0.2307739-0.3271484,0.4852905-0.4533081,0.7577515c-0.6118164-0.2129517-1.2546387-0.3261719-1.9046021-0.3226318C8.5143433,5.986084,5.9899292,8.2072754,5.5966797,11.1748657c-1.1254272,0.2878418-2.0296021,1.1242065-2.4041748,2.2238159c-0.6126709,1.798584,0.3486938,3.7533569,2.1473389,4.3660278c0.0010376,0.0003662,0.0021362,0.0007324,0.0032349,0.0011597c0.2602539,0.0918579,0.5457153-0.0446777,0.6376343-0.3049316c0.0918579-0.2603149-0.0446777-0.5457764-0.3049316-0.6376343c-0.8040771-0.2661133-1.4127808-0.9298706-1.6083984-1.7539062c-0.1544189-0.6807861-0.0139771-1.3951416,0.3867188-1.9667969c0.3917847-0.5549316,0.9967651-0.921814,1.6699219-1.0126953c0.2357178-0.0321655,0.4164429-0.2255249,0.4326172-0.4628906c0.1742554-2.6097412,2.3356323-4.6411133,4.9511719-4.6533203c0.6765137-0.0041504,1.3459473,0.1373901,1.9628906,0.4150391c0.010376,0.0046387,0.0212402,0.0080566,0.0319214,0.0120239c0.010498,0.0040894,0.0179443,0.0124512,0.0288696,0.0158691c0.0033569,0.0010376,0.0066528,0.000061,0.0100098,0.0010376c1.1863403,0.5413208,2.1159668,1.522644,2.590332,2.7376709c0.0593262,0.1524658,0.1895752,0.2662964,0.3486328,0.3046875c0.6434937,0.1546631,1.2241821,0.5025635,1.6640625,0.9970093c0.0026245,0.0028076,0.0057983,0.0050049,0.0084839,0.0078125c0.0070801,0.0073853,0.0147095,0.0134888,0.0222168,0.0204468c0.0106201,0.0098267,0.0203857,0.0205078,0.0317993,0.0293579c0.5175781,0.5963745,0.802002,1.3598022,0.8007812,2.1494141c-0.0005493,1.5549316-1.0841675,2.8995361-2.6035156,3.2304688c-0.2311401,0.0487061-0.3966675,0.2525024-0.3969116,0.4887085c-0.0003052,0.2761841,0.2233276,0.5002441,0.4994507,0.5005493c0.0350952-0.0002441,0.0701294-0.0038452,0.1045532-0.0107422c0.7373047-0.1583862,1.4199829-0.5078735,1.9795532-1.0134888c1.6138306-1.458252,1.847168-3.8536377,0.6542358-5.6012573c0.0680542-0.0460815,0.1432495-0.0819092,0.2080688-0.131958l1.0897217,1.0904541c0.0936279,0.0939331,0.2208252,0.1466675,0.3534546,0.1464844c0.1325684,0,0.2597046-0.0526733,0.3534546-0.1463623c0.1953125-0.1952515,0.1953125-0.5118408,0.0001221-0.7070923l-1.0975952-1.0983887c0.2944336-0.3778687,0.5340576-0.8000488,0.6782227-1.2675781c0.0686646-0.2226562,0.1061401-0.4467163,0.1349487-0.6702271h1.5422363c0.276123,0,0.5-0.223877,0.5-0.5S22.7839355,7.4736328,22.5078125,7.4736328z M18.5953979,10.5028076c-0.4667358-0.4311523-1.0195312-0.7598267-1.6295776-0.9470825c-0.5404053-1.2265625-1.4864502-2.2119141-2.6572266-2.845459c0.4851685-1.0490112,1.5383911-1.7404785,2.718689-1.7366333c0.8179321,0.0026855,1.5567627,0.3349609,2.0948486,0.8688354c0.007019,0.0073853,0.0145264,0.0133057,0.0219727,0.0202637c0.5359497,0.5424194,0.866394,1.288147,0.8637085,2.1109009C20.0093384,9.0131226,19.4659424,9.9648438,18.5953979,10.5028076z"/></svg>