<svg xmlns="http://www.w3.org/2000/svg" enable-background="new 0 0 24 24" viewBox="0 0 24 24"><path fill="#6563ff" d="M18.4169922,8.2197266c-0.982605-2.2747803-3.0957031-3.8596191-5.5546265-4.1660767c-3.8322754-0.4776001-7.3261719,2.2419434-7.803772,6.0742798C3.2614136,10.5598145,1.9959106,12.1691284,2,14.0174561C2.0048218,16.2218018,3.7956543,18.0048218,6,18h0.5C6.776123,18,7,17.776123,7,17.5S6.776123,17,6.5,17H6c-1.4986572,0.0040894-2.769104-1.1015015-2.9719238-2.5863647c-0.2236328-1.6368408,0.9219971-3.1450195,2.5588379-3.3686523c0.2347412-0.0315552,0.4150391-0.2236938,0.4316406-0.4599609c0.1582642-2.3183594,1.642395-4.3362427,3.8083496-5.1779785c3.085144-1.1989746,6.5581055,0.3300781,7.7570801,3.4152222c0.0602417,0.1524658,0.1911011,0.2658691,0.3505859,0.3037109c1.800293,0.4294434,3.0692139,2.0401611,3.0653076,3.8909912C20.9952393,15.2213745,19.2044067,17.0046387,17,17h-0.5c-0.276123,0-0.5,0.223877-0.5,0.5s0.223877,0.5,0.5,0.5H17c2.2174072,0.0037231,4.1714478-1.4557495,4.7971191-3.5830078C22.5750732,11.7722778,21.0617065,8.9976807,18.4169922,8.2197266z M12,15c-0.276123,0-0.5,0.223877-0.5,0.5v4c0,0.0001831,0,0.0003662,0,0.0005493C11.5001831,19.7765503,11.723999,20.0001831,12,20c0.0001831,0,0.0003662,0,0.0006104,0c0.2759399-0.0001831,0.4995728-0.223999,0.4993896-0.5v-4C12.5,15.223877,12.276123,15,12,15z M12,12.875c-0.3451538,0-0.625,0.2798462-0.625,0.625s0.2798462,0.625,0.625,0.625s0.625-0.2798462,0.625-0.625S12.3451538,12.875,12,12.875z"/></svg>