<svg xmlns="http://www.w3.org/2000/svg" enable-background="new 0 0 24 24" viewBox="0 0 24 24"><path fill="#6563ff" d="M9.1713867,14.171875C8.4213257,14.9219971,8,15.9393921,8,17.0001831C8.000061,19.2092896,9.7908936,21.000061,12,21c1.0614624,0.0030518,2.079895-0.4190063,2.828125-1.171875c0.0004883-0.0004883,0.0009766-0.0009766,0.0014648-0.0014648c1.5610962-1.5619507,1.5604858-4.093689-0.0014648-5.6547852C13.2455444,12.6601562,10.7539673,12.6601562,9.1713867,14.171875z M9,17c0-1.6568604,1.3431396-3,3-3c0.6264648,0.0001221,1.2285767,0.2023315,1.732605,0.5603638l-4.1724854,4.1724854C9.2020874,18.2286377,8.999939,17.6265259,9,17z M14.1210938,19.1210938c-1.0632935,1.0144653-2.6687012,1.1131592-3.8460083,0.31073l4.1637573-4.1637573C15.2719727,16.4393311,15.1713257,18.0706177,14.1210938,19.1210938z M18.4169922,8.2197266c-0.9825439-2.2749634-3.0958252-3.8599243-5.5548706-4.1661377C9.0300903,3.576355,5.5368042,6.2959595,5.0595703,10.1279907c-1.5930786,0.3813477-2.7909546,1.6981201-3.0203247,3.3200684c-0.3083496,2.1808472,1.2095947,4.1987305,3.3904419,4.5070801c0.0234985,0.0030518,0.0471191,0.0046997,0.0708008,0.0048828c0.2492676,0.000061,0.4605103-0.1834717,0.4952393-0.4302979c0.0385132-0.2734375-0.1519775-0.5263062-0.425415-0.5648193c-1.3248901-0.1870728-2.3638916-1.2321167-2.543335-2.5580444c-0.2213135-1.635437,0.9250488-3.140564,2.5604248-3.3618774c0.2346191-0.0316162,0.4147949-0.2237549,0.4311523-0.4599609c0.1582642-2.3183594,1.642395-4.3362427,3.8083496-5.1779785c3.085144-1.1989746,6.5581055,0.3300781,7.7570801,3.4152222c0.0602417,0.1524658,0.1911011,0.2658691,0.3505859,0.3037109c1.3197021,0.3139648,2.3893433,1.2770996,2.8394775,2.5567627c0.730896,2.0779419-0.361145,4.3549194-2.4390869,5.0858154c-0.2601318,0.0912476-0.3972168,0.3759155-0.3063965,0.6362305c0.0909424,0.2605591,0.3759155,0.3980713,0.6364746,0.3071289c1.5147705-0.5320435,2.6808472-1.7606812,3.1330566-3.3012085C22.5740356,11.7674561,21.0602417,8.9956665,18.4169922,8.2197266z"/></svg>