<svg xmlns="http://www.w3.org/2000/svg" enable-background="new 0 0 24 24" viewBox="0 0 24 24"><path fill="#6563ff" d="M4.5,19C4.223877,19,4,19.223877,4,19.5S4.223877,20,4.5,20S5,19.776123,5,19.5S4.776123,19,4.5,19z M14,11.5c0,0.276123,0.223877,0.5,0.5,0.5H19c1.6561279-0.0018311,2.9981689-1.3438721,3-3c0-0.276123-0.223877-0.5-0.5-0.5S21,8.723877,21,9c-0.0014038,1.1040039-0.8959961,1.9985962-2,2h-4.5C14.223877,11,14,11.223877,14,11.5z M9.5078125,15.9735718c0.276123,0,0.5-0.2238159,0.5-0.5c0-0.276123-0.223877-0.5-0.5-0.5h-3.5c-1.5006104,0.0041504-2.7721558-1.1039429-2.9732056-2.5910034c-0.2214966-1.6375122,0.9265137-3.1445312,2.5640259-3.3659668c0.2344971-0.0324097,0.4142456-0.2247314,0.4306641-0.4609375c0.1589966-2.3158569,1.6411743-4.331543,3.8042603-5.1737061c3.0840454-1.2006836,6.5575562,0.3260498,7.7582397,3.4100952c0.0004272,0.0010986,0.0008545,0.0022583,0.0013428,0.0033569c0.1017456,0.256897,0.3925171,0.3826294,0.6494751,0.2808228c0.256897-0.1017456,0.3826294-0.3925171,0.2808228-0.6494141c-0.9325562-2.3925171-3.1014404-4.0814209-5.6495361-4.399353C9.041687,1.5493774,5.5474854,4.2683716,5.0693359,8.100647c-1.7984009,0.4309082-3.0652466,2.0407104-3.0613403,3.8899536c0.0046387,2.2044067,1.7954102,3.9876709,3.9998169,3.9830322h3.5V15.9735718z M13,19H8.5C8.223877,19,8,19.223877,8,19.5S8.223877,20,8.5,20H13c1.1040039,0.0014038,1.9985962,0.8959961,2,2v0.0005493c0.0001831,0.276001,0.223999,0.4996338,0.5,0.4994507h0.0006104C15.7765503,22.4998169,16.0001831,22.276001,16,22C15.9981689,20.3438721,14.6561279,19.0018311,13,19z M10,11.5c0,0.276123,0.223877,0.5,0.5,0.5s0.5-0.223877,0.5-0.5S10.776123,11,10.5,11S10,11.223877,10,11.5z M19,15h-6.5c-0.276123,0-0.5,0.223877-0.5,0.5s0.223877,0.5,0.5,0.5H19c0.3510132,0,0.6958008,0.0924072,0.9997559,0.2678833C20.9564819,16.8200684,21.2843628,18.043335,20.7321777,19C20.1799316,19.9567261,18.9567261,20.284668,18,19.7324219c-0.2389526-0.1380615-0.5445557-0.0563354-0.6826172,0.1826172S17.2610474,20.4595947,17.5,20.5976562C17.9558716,20.8614502,18.4733276,21.0002441,19,21c1.6568604,0,3-1.3431396,3-3S20.6568604,15,19,15z"/></svg>