<svg xmlns="http://www.w3.org/2000/svg" enable-background="new 0 0 24 24" viewBox="0 0 24 24"><path fill="#6563ff" d="M18.4169922,8.2197266c-0.982605-2.2747192-3.0957031-3.8595581-5.5545654-4.1660156c-3.8323364-0.4776001-7.3262329,2.2419434-7.803833,6.0742798c-1.5925903,0.3817139-2.789978,1.6982422-3.0192871,3.3198242c-0.3084106,2.1809082,1.2095337,4.1989136,3.3903809,4.5073242c0.0236816,0.0030518,0.0474854,0.0046997,0.0712891,0.0048828c0.2489014-0.0003662,0.4595947-0.1836548,0.4944458-0.4300537C6.0340576,17.2565308,5.84375,17.00354,5.5703125,16.9649048c-1.324707-0.1870728-2.3636475-1.2318115-2.5432739-2.5575562c-0.2216187-1.635376,0.9244995-3.1407471,2.5598755-3.3623657c0.2347412-0.0315552,0.4150391-0.2236938,0.4316406-0.4599609c0.1582642-2.3183594,1.642395-4.3362427,3.8083496-5.1779785c3.085144-1.1989746,6.5581055,0.3300781,7.7570801,3.4152222c0.0602417,0.1524658,0.1911011,0.2658691,0.3505859,0.3037109c1.3197021,0.3139648,2.3893433,1.2770996,2.8394775,2.5567627c0.730896,2.0779419-0.361145,4.3549194-2.4390869,5.0858154c-0.2601318,0.0912476-0.3972168,0.3759155-0.3063965,0.6362305c0.0909424,0.2605591,0.3759155,0.3980713,0.6364746,0.3071289c1.5147705-0.5320435,2.6808472-1.7606812,3.1330566-3.3012085C22.5740356,11.7674561,21.0602417,8.9956665,18.4169922,8.2197266z M12,18.875c-0.3451538,0-0.625,0.2798462-0.625,0.625s0.2798462,0.625,0.625,0.625s0.625-0.2798462,0.625-0.625S12.3451538,18.875,12,18.875z M12.0205078,11c-0.9711304,0.0046997-1.8644409,0.5319824-2.3378906,1.3798828c-0.135376,0.2405396-0.0501099,0.5452881,0.1904297,0.6806641s0.5452881,0.0501099,0.6806641-0.1904297C10.8503418,12.3371582,11.4105835,12.0048218,12.0205078,12c0.9511108,0.0161133,1.7098389,0.7988281,1.6962891,1.75c0.0050659,0.7467651-0.4644775,1.4143677-1.1689453,1.6621094c-0.5983887,0.1834106-1.0140381,0.7269897-1.0341797,1.3525391L11.5,17.4902344C11.494812,17.7662964,11.7141724,17.9943848,11.9902344,18H12c0.2723389-0.000061,0.4945679-0.2179565,0.5-0.4902344l0.0136719-0.7304688c0.0187988-0.2026978,0.1630859-0.371582,0.3603516-0.421875c1.0831909-0.3806152,1.8171387-1.3927002,1.8423462-2.5405884C14.7497559,12.2945557,13.5427856,11.0333862,12.0205078,11z"/></svg>