<svg xmlns="http://www.w3.org/2000/svg" enable-background="new 0 0 24 24" viewBox="0 0 24 24"><path fill="#6563ff" d="M15.0078125,16.4736328h-2.1340942l1.0667114-1.8476562c0.0007324-0.0012207,0.0014038-0.0024414,0.0021362-0.0036621c0.1370239-0.239563,0.0540161-0.5447998-0.1855469-0.6818848c-0.239502-0.1370239-0.5447388-0.0539551-0.6818237,0.1855469l-1.0673828,1.8488159l-1.0673828-1.8488159c-0.0007324-0.0012207-0.0014038-0.0024414-0.0021362-0.0036621c-0.1390991-0.2383423-0.4450684-0.3188477-0.6834106-0.1797485s-0.3187866,0.4450684-0.1796875,0.6834106l1.0667114,1.8476562H9.0078125c-0.276123,0-0.5,0.223877-0.5,0.5s0.223877,0.5,0.5,0.5h2.1346436l-1.0672607,1.8486328c-0.0436401,0.0757446-0.0667114,0.1616211-0.0668335,0.2490845c-0.0004272,0.2762451,0.2232056,0.5004883,0.4994507,0.5009155c0.1785278,0.000061,0.3435059-0.0952759,0.4326172-0.25l1.0673828-1.8488159l1.0673828,1.8488159c0.0891113,0.1547241,0.2540894,0.250061,0.4326172,0.25c0.0874023-0.0001221,0.1732788-0.0231934,0.2490234-0.0668335c0.2393799-0.1379395,0.3215332-0.4437866,0.1835938-0.6831665l-1.0672607-1.8486328h2.1346436c0.276123,0,0.5-0.223877,0.5-0.5S15.2839355,16.4736328,15.0078125,16.4736328z M18.4257812,8.1904297C17.442749,5.9173584,15.3306885,4.3338623,12.87323,4.0274048c-3.8320923-0.4779053-7.3259888,2.2411499-7.803894,6.0732422c-1.7984009,0.4309082-3.0652466,2.0407104-3.0613403,3.8899536c0.0046387,2.2044067,1.7954102,3.9876709,3.9998169,3.9830322h0.5v-0.000061c0.276123,0,0.5-0.2238159,0.5-0.5c0-0.276123-0.223877-0.5-0.5-0.5h-0.5c-1.5006104,0.0041504-2.7721558-1.1039429-2.9732056-2.5910034c-0.2214966-1.6375122,0.9265137-3.1445312,2.5640259-3.3659668c0.2344971-0.0324097,0.4142456-0.2247314,0.4306641-0.4609375c0.1589966-2.3158569,1.6411743-4.331543,3.8042603-5.1737061c3.0840454-1.2007446,6.5575562,0.3259888,7.7582397,3.4100342c0.0599976,0.1518555,0.1900024,0.2651367,0.3486328,0.3037109c1.644104,0.3872681,2.864624,1.7701416,3.0446777,3.449585c0.234314,2.1855469-1.3474731,4.1471558-3.532959,4.3814697c-0.0010376,0.0001221-0.0021362,0.0002441-0.0031738,0.0003662c-0.2744141,0.0316162-0.4712524,0.2797241-0.4396362,0.5541382s0.2797241,0.4712524,0.5541382,0.4396362c2.0032959-0.2166748,3.6785889-1.6192017,4.2441406-3.5531616C22.5795898,11.7280273,21.0654907,8.9624023,18.4257812,8.1904297z"/></svg>