<svg xmlns="http://www.w3.org/2000/svg" enable-background="new 0 0 24 24" viewBox="0 0 24 24"><path fill="#6563ff" d="M22.90625,7.9824829c0.0336304-0.1647339-0.0177002-0.3353271-0.1367188-0.4541016c-0.118103-0.1207886-0.2901001-0.1721191-0.4550781-0.1357422c-0.262207,0.0535278-0.5290527,0.0806885-0.7966919,0.0810547c-2.2119141,0.0026855-4.0072021-1.788147-4.0099487-4.000061c0.0001831-0.2716064,0.0276489-0.5424805,0.0820312-0.8085938c0.0132446-0.0656738,0.0131836-0.1333008-0.0001831-0.1989136c-0.0551758-0.2710571-0.3195801-0.446106-0.5906372-0.3909302c-2.0625,0.418396-3.6000366,2.0831909-3.9129028,4.1168213c-0.5074463-0.1387939-1.0355835-0.2198486-1.5782471-0.2183838C8.5151367,5.9886475,5.9915771,8.2076416,5.593811,11.1738281c-1.8079834,0.4666138-2.916748,2.2868042-2.5020142,4.1074219c0.3898315,1.6021118,1.8377075,2.7202759,3.4863281,2.6923828h9.0058594c1.9911499,0.0247803,3.7503662-1.291687,4.288147-3.2089844c0.2772827-1.0598755,0.1238403-2.1288452-0.3384399-3.0375366C21.2307739,11.1801147,22.5326538,9.7633667,22.90625,7.9824829z M18.9013672,14.5244141c-0.4240112,1.4731445-1.784729,2.4777222-3.3173828,2.4492188H6.578125c-1.1782227,0.0289917-2.2198486-0.7609253-2.5097656-1.9033203c-0.0167847-0.0722656-0.0302124-0.1452637-0.0404053-0.218811c-0.1851196-1.3416748,0.7524414-2.5794067,2.0941162-2.7645874c0.2344971-0.0324097,0.4142456-0.2247314,0.4306641-0.4609375c0.1790771-2.6088257,2.3401489-4.6378784,4.9550781-4.6523438c0.6339111-0.0012207,1.2419434,0.1311646,1.8091431,0.3537598c0.0057983,0.0025635,0.0081787,0.0091553,0.0140991,0.0115356c0.9500122,0.3775635,1.7498169,1.0362549,2.3081055,1.8728027c0.0134277,0.0204468,0.027771,0.0400391,0.0409546,0.0606689c0.1789551,0.2769165,0.3341064,0.571228,0.456604,0.8829346c0.0596313,0.1522827,0.1896973,0.2659912,0.3486328,0.3046875c0.093811,0.0235596,0.1813965,0.0626221,0.2721558,0.0940552c0.107605,0.0363159,0.2149048,0.072937,0.3163452,0.1191406c0.125,0.0582275,0.2444458,0.1265259,0.3608398,0.199646c0.0424194,0.0261841,0.0853882,0.0514526,0.1263428,0.0794067c0.1353149,0.093811,0.2646484,0.1962891,0.3848877,0.3095703c0.0116577,0.0108643,0.0233154,0.0218506,0.03479,0.0328369c0.1311646,0.1271973,0.2536011,0.2644653,0.3630371,0.4133301c0.00177,0.0023804,0.0047607,0.0031738,0.0065308,0.0054932C18.9280396,12.4943237,19.1703491,13.5127563,18.9013672,14.5244141z M18.9535522,10.8555908c-0.2260742-0.2610474-0.4916382-0.4865112-0.7788086-0.6889038c-0.078186-0.0559082-0.1571045-0.1096802-0.2388916-0.1602783c-0.1030884-0.0626831-0.2058716-0.1236572-0.3151855-0.1780396c-0.2088623-0.105957-0.4238281-0.2003174-0.6489258-0.2713013c-0.0003662-0.0001221-0.0006104-0.0003052-0.0009766-0.0004272c-0.1427002-0.3310547-0.3215942-0.6373901-0.5166626-0.9306641c-0.0059204-0.008728-0.0125732-0.0168457-0.0185547-0.0255737c-0.6043701-0.8983154-1.4302979-1.6135864-2.3948975-2.0657959c0.1528931-1.4648438,1.1034546-2.725647,2.4719849-3.2728882c-0.0028687,0.0703125-0.0048828,0.1416016-0.0048828,0.2119141c0.0032959,2.7600708,2.2399292,4.9967651,5,5c0.0703735,0,0.140686-0.0009766,0.210022-0.0039062C21.2312012,9.6617432,20.2032471,10.5476685,18.9535522,10.8555908z"/></svg>