<svg xmlns="http://www.w3.org/2000/svg" enable-background="new 0 0 24 24" viewBox="0 0 24 24"><path fill="#6563ff" d="M12,14.0097656c-1.1118774-0.7746582-2.6167603-0.6530762-3.5898438,0.2900391c-0.0198364,0.0192871-0.0394287,0.0388184-0.0586548,0.0586548c-1.0406494,1.0730591-1.0143433,2.786499,0.0586548,3.8270874l3.2402344,3.171875C11.7437744,21.4488525,11.8693237,21.500061,12,21.5c0.1307373,0.000061,0.2562256-0.0511475,0.3496094-0.1426392l3.2402344-3.171814c0.0198364-0.0192871,0.0394287-0.0388794,0.0586548-0.0587158c1.0406494-1.072998,1.0143433-2.786438-0.0586548-3.8270874C14.6166382,13.3568115,13.1119385,13.2352295,12,14.0097656z M14.890625,17.4707031L12,20.3007812l-2.890625-2.8300781c-0.0145264-0.0140381-0.0288086-0.0283203-0.0428467-0.0428467c-0.654541-0.6782227-0.635376-1.758667,0.0428467-2.413208C9.4492188,14.6834106,9.9053345,14.4986572,10.3798828,14.5c0.4745483-0.0013428,0.9307251,0.1834106,1.2705078,0.5146484c0.1945801,0.1894531,0.5046387,0.1894531,0.6992188,0c0.708313-0.6855469,1.8327026-0.6855469,2.5410156,0c0.0145264,0.0140381,0.0288086,0.0283203,0.0428467,0.0428467C15.5880127,15.7357178,15.5688477,16.8161621,14.890625,17.4707031z M18.4169922,8.2197266c-0.982605-2.2747192-3.0957031-3.8595581-5.5545654-4.1660156c-3.8323364-0.4776001-7.3262329,2.2419434-7.803833,6.0742798c-1.5925903,0.3817139-2.789978,1.6982422-3.0192871,3.3198242c-0.3084106,2.1809082,1.2095337,4.1989136,3.3903809,4.5073242c0.0236816,0.0030518,0.0474854,0.0046997,0.0712891,0.0048828c0.2489014-0.0003662,0.4595947-0.1836548,0.4944458-0.4300537C6.0340576,17.2565308,5.84375,17.00354,5.5703125,16.9649048c-1.324707-0.1870728-2.3636475-1.2318115-2.5432739-2.5575562c-0.2216187-1.635376,0.9244995-3.1407471,2.5598755-3.3623657c0.2347412-0.0315552,0.4150391-0.2236938,0.4316406-0.4599609c0.1582642-2.3183594,1.642395-4.3362427,3.8083496-5.1779785c3.085144-1.1989746,6.5581055,0.3300781,7.7570801,3.4152222c0.0602417,0.1524658,0.1911011,0.2658691,0.3505859,0.3037109c1.3197021,0.3139648,2.3893433,1.2770996,2.8394775,2.5567627c0.730896,2.0779419-0.361145,4.3549194-2.4390869,5.0858154c-0.2601318,0.0912476-0.3972168,0.3759155-0.3063965,0.6362305c0.0909424,0.2605591,0.3759155,0.3980713,0.6364746,0.3071289c1.5147705-0.5320435,2.6808472-1.7606812,3.1330566-3.3012085C22.5740356,11.7674561,21.0602417,8.9956665,18.4169922,8.2197266z"/></svg>