<svg xmlns="http://www.w3.org/2000/svg" enable-background="new 0 0 24 24" viewBox="0 0 24 24"><path fill="#6563ff" d="M18.4169922,8.2197266c-0.982605-2.2747803-3.0957031-3.8596191-5.5546265-4.1660767c-3.8322754-0.4776001-7.3261719,2.2419434-7.803772,6.0742798C3.2614136,10.5598145,1.9959106,12.1691284,2,14.0174561C2.0048218,16.2218018,3.7956543,18.0048218,6,18h0.5C6.776123,18,7,17.776123,7,17.5S6.776123,17,6.5,17H6c-1.4986572,0.0040894-2.769104-1.1015015-2.9719238-2.5863647c-0.2236328-1.6368408,0.9219971-3.1450195,2.5588379-3.3686523c0.2347412-0.0315552,0.4150391-0.2236938,0.4316406-0.4599609c0.1582642-2.3183594,1.642395-4.3362427,3.8083496-5.1779785c3.085144-1.1989746,6.5581055,0.3300781,7.7570801,3.4152222c0.0602417,0.1524658,0.1911011,0.2658691,0.3505859,0.3037109c1.640625,0.390625,2.8583374,1.7706909,3.041748,3.4471436c0.239563,2.1902466-1.3417358,4.1599731-3.5319824,4.3995361c-0.0011597,0.0001221-0.0023193,0.0002441-0.003479,0.0003662c-0.2744141,0.0317383-0.4711914,0.2799072-0.4394531,0.5543213c0.0316772,0.2744141,0.2798462,0.4711304,0.5542603,0.4394531c2.0013428-0.2200317,3.6743774-1.6213989,4.2420044-3.5531006C22.5745239,11.7697144,21.0609741,8.996582,18.4169922,8.2197266z M14.5,13h-5c-0.0001831,0-0.0003662,0-0.0005493,0C9.2234497,13.0001831,8.9998169,13.223999,9,13.5v8c0.0007935,0.1845093,0.1033325,0.3535156,0.2666016,0.4394531c0.1639404,0.0857544,0.3616333,0.0752563,0.515625-0.0273438L12,20.4248047l2.2001953,1.4755859C14.2868042,21.9649658,14.3919678,21.9998779,14.5,22c0.0001221,0,0.0002441,0,0.0003662,0C14.7764282,21.9998779,15.0001221,21.776062,15,21.5v-8c0-0.0001831,0-0.0003662,0-0.0006104C14.9998169,13.2234497,14.776001,12.9998169,14.5,13z M14,20.5625l-1.7216797-1.1542969c-0.1682739-0.1132812-0.3883667-0.1132812-0.5566406,0L10,20.5625V14h4V20.5625z"/></svg>