<svg xmlns="http://www.w3.org/2000/svg" enable-background="new 0 0 24 24" viewBox="0 0 24 24"><path fill="#6563ff" d="M15.5,13c-0.276123,0-0.5,0.223877-0.5,0.5v0.8687744C14.2580566,13.5228882,13.1780396,12.9992676,11.9951782,13c-2.2091064,0.0013428-3.9989014,1.7932739-3.9975586,4.0023804C7.9989014,19.2115479,9.7908325,21.0013428,12,21c0.9715576-0.0022583,1.9091797-0.3572388,2.6386719-0.9989014c0.2076416-0.1817627,0.2286377-0.4974365,0.046875-0.7050781c-0.1817627-0.2077026-0.4974365-0.2286987-0.7050781-0.046936c-0.3551636,0.3132935-0.7794189,0.538147-1.2380981,0.656189c-1.6063232,0.4134521-3.2437134-0.5535889-3.6571655-2.1599121c-0.4134521-1.6063843,0.5535889-3.2437744,2.1599731-3.6572266C12.7642822,13.6971436,14.2978516,14.548645,14.8110962,16H12.5c-0.276123,0-0.5,0.223877-0.5,0.5s0.223877,0.5,0.5,0.5h3.0006104C15.7765503,16.9998169,16.0001831,16.776001,16,16.5v-3C16,13.223877,15.776123,13,15.5,13z M18.4169922,8.2197266c-0.982605-2.2747192-3.0957031-3.8595581-5.5545654-4.1660156c-3.8323364-0.4776001-7.3262329,2.2419434-7.803833,6.0742798c-1.5925903,0.3817139-2.789978,1.6982422-3.0192871,3.3198242c-0.3084106,2.1809082,1.2095337,4.1989136,3.3903809,4.5073242c0.0236816,0.0030518,0.0474854,0.0046997,0.0712891,0.0048828c0.2489014-0.0003662,0.4595947-0.1836548,0.4944458-0.4300537C6.0340576,17.2565308,5.84375,17.00354,5.5703125,16.9649048c-1.324707-0.1870728-2.3636475-1.2318115-2.5432739-2.5575562c-0.2216187-1.635376,0.9244995-3.1407471,2.5598755-3.3623657c0.2347412-0.0315552,0.4150391-0.2236938,0.4316406-0.4599609c0.1582642-2.3183594,1.642395-4.3362427,3.8083496-5.1779785c3.085144-1.1989746,6.5581055,0.3300781,7.7570801,3.4152222c0.0602417,0.1524658,0.1911011,0.2658691,0.3505859,0.3037109c1.3197021,0.3139648,2.3893433,1.2770996,2.8394775,2.5567627c0.730896,2.0779419-0.361145,4.3549194-2.4390869,5.0858154c-0.2601318,0.0912476-0.3972168,0.3759155-0.3063965,0.6362305c0.0909424,0.2605591,0.3759155,0.3980713,0.6364746,0.3071289c1.5147705-0.5320435,2.6808472-1.7606812,3.1330566-3.3012085C22.5740356,11.7674561,21.0602417,8.9956665,18.4169922,8.2197266z"/></svg>