<svg xmlns="http://www.w3.org/2000/svg" enable-background="new 0 0 24 24" viewBox="0 0 24 24"><path fill="#6563ff" d="M22.5078125,7.4736328h-1.5378418c-0.0889893-0.7144775-0.3666382-1.3885498-0.802124-1.9528198l1.0830688-1.0823975c0.1904907-0.194397,0.1904907-0.5054932,0-0.6998901c-0.1932983-0.1972046-0.5098267-0.2003784-0.7070312-0.0070801l-1.0863037,1.0855713c-0.3687134-0.2871094-0.7857666-0.5235596-1.2582397-0.6708374c-0.2296753-0.0715942-0.4609375-0.1122437-0.6915283-0.1414795V2.4736328c0-0.276123-0.223877-0.5-0.5-0.5s-0.5,0.223877-0.5,0.5v1.5313721c-0.7151489,0.0911865-1.3902588,0.3695679-1.9538574,0.8078613l-1.0813599-1.0813599c-0.194397-0.1905518-0.5054321-0.1905518-0.6998291,0c-0.1972046,0.1932373-0.2003784,0.5097656-0.0071411,0.7069702l1.088562,1.088562c-0.178772,0.2313232-0.3284912,0.4862671-0.4553223,0.7595825c-0.600708-0.2004395-1.2352905-0.3156738-1.8910522-0.3129883c-2.9934692,0.0123901-5.5178833,2.2335815-5.9111328,5.2011719c-1.8082886,0.4649658-2.9192505,2.2833252-2.5078125,4.1044922c0.3781738,1.5753784,1.7841797,2.6881714,3.4042969,2.6943359h0.0146484v0.000061c0.2703857-0.0001221,0.4916992-0.2150269,0.4996948-0.4852905c0.0081787-0.276062-0.2089844-0.5065308-0.4850464-0.5147095c-1.1555176-0.0046387-2.163208-0.7862549-2.4550781-1.9042969c-0.1544189-0.6807861-0.0139771-1.3951416,0.3867188-1.9667969c0.3917847-0.5549316,0.9967651-0.921814,1.6699219-1.0126953c0.2357178-0.0321655,0.4164429-0.2255249,0.4326172-0.4628906C6.730835,9.0172119,8.892334,6.9858398,11.5078735,6.9736938c2.0532227-0.0076904,3.8956909,1.2595825,4.6229858,3.1796875c0.0594482,0.1535645,0.1904907,0.2681885,0.3505859,0.3066406c1.2314453,0.2971802,2.1841431,1.2729492,2.4517212,2.5111694c0.3850708,1.7817383-0.7471313,3.538269-2.5288086,3.9232788c-0.0010986,0.0002441-0.0021362,0.0004883-0.0031738,0.0006714c-0.2700195,0.0580444-0.4418945,0.3239746-0.3838501,0.5940552c0.0580444,0.2700195,0.3239746,0.4418335,0.5939941,0.3838501c1.5238647-0.3278809,2.7510376-1.4545288,3.2077637-2.9448242c0.3955688-1.2908325,0.1373291-2.614502-0.5620728-3.6535645c0.0678101-0.0464478,0.1300049-0.0993042,0.1945801-0.1502075l1.0923462,1.0923462c0.0936279,0.0939331,0.2208862,0.1466675,0.3535156,0.1464844c0.1325073,0,0.2596436-0.0526733,0.3533936-0.1463623c0.1953125-0.1952515,0.1953125-0.5118408,0.0001221-0.7070923l-1.1088257-1.1088257c0.293396-0.3773193,0.5413208-0.7879639,0.6844482-1.2469482c0.0704346-0.2259521,0.1097412-0.4534912,0.1392212-0.6804199h1.5419922c0.276123,0,0.5-0.223877,0.5-0.5S22.7839355,7.4736328,22.5078125,7.4736328z M19.1171875,10.0966797c-0.1532593,0.1589966-0.3303223,0.2900391-0.5165405,0.4072266c-0.4570312-0.4188843-1.0016479-0.7545776-1.6338501-0.9483032c-0.5396118-1.2575073-1.4897461-2.2461548-2.6463623-2.8668823c0.1478882-0.3063354,0.3290405-0.5952148,0.5741577-0.8342285c1.1810303-1.1409302,3.0545044-1.1383667,4.2324219,0.0058594c0.0094604,0.0093994,0.0188599,0.0188599,0.0281982,0.0283813C20.3067017,7.0612183,20.2896729,8.9451904,19.1171875,10.0966797z M9.5078125,13.9746094c-0.276123,0-0.5,0.223877-0.5,0.5v7c0,0.0001831,0,0.0003662,0,0.0005493c0.0001221,0.276001,0.223999,0.4996338,0.5,0.4994507c0.0001831,0,0.0003662,0,0.0005493,0c0.276001-0.0001831,0.4996338-0.223999,0.4994507-0.5v-7C10.0078125,14.1984863,9.7839355,13.9746094,9.5078125,13.9746094z M13.5078125,12.9746094c-0.276123,0-0.5,0.223877-0.5,0.5v7c0,0.0001831,0,0.0003662,0,0.0005493c0.0001221,0.276001,0.223999,0.4996338,0.5,0.4994507c0.0001831,0,0.0003662,0,0.0005493,0c0.276001-0.0001831,0.4996338-0.223999,0.4994507-0.5v-7C14.0078125,13.1984863,13.7839355,12.9746094,13.5078125,12.9746094z"/></svg>