<svg xmlns="http://www.w3.org/2000/svg" enable-background="new 0 0 24 24" viewBox="0 0 24 24"><path fill="#6563ff" d="M14.5,16.1837158V14.5c0-1.3807373-1.1192627-2.5-2.5-2.5s-2.5,1.1192627-2.5,2.5v1.6837158C8.3374634,16.5969849,7.5,17.6956787,7.5,19c0,1.6568604,1.3431396,3,3,3h3c1.6568604,0,3-1.3431396,3-3C16.5,17.6956787,15.6625366,16.5969849,14.5,16.1837158z M10.5,14.5c0-0.8284302,0.6715698-1.5,1.5-1.5s1.5,0.6715698,1.5,1.5V16h-3V14.5z M13.5,21h-3c-1.1045532,0-2-0.8954468-2-2s0.8954468-2,2-2h3c1.1045532,0,2,0.8954468,2,2S14.6045532,21,13.5,21z M18.4169922,8.2197266c-0.982605-2.2747803-3.0957031-3.8596191-5.5546265-4.1660767c-3.8322754-0.4776001-7.3261719,2.2419434-7.803772,6.0742798C3.2614136,10.5598145,1.9959106,12.1691284,2,14.0174561C2.0048218,16.2218018,3.7956543,18.0048218,6,18c0.276123,0,0.5-0.223877,0.5-0.5S6.276123,17,6,17c-1.4986572,0.0040894-2.769104-1.1015015-2.9719238-2.5863647c-0.2236328-1.6368408,0.9219971-3.1450195,2.5588379-3.3686523c0.2347412-0.0315552,0.4150391-0.2236938,0.4316406-0.4599609c0.1582031-2.3184814,1.6424561-4.3364868,3.8084717-5.1781616c3.0852051-1.1989136,6.5581055,0.3302002,7.757019,3.4154053c0.0602417,0.1524658,0.1911011,0.2658691,0.3505859,0.3037109c1.4799194,0.3530273,2.6304932,1.5166626,2.9667358,3.0004883c0.4871216,2.1499634-0.8607788,4.2877197-3.0107422,4.7749023c-0.2696533,0.0604248-0.4393311,0.3280029-0.3789062,0.5976562s0.3280029,0.4393311,0.5976562,0.3789062c1.765625-0.3994141,3.1766357-1.7233276,3.6876221-3.4599609C22.5752563,11.7730103,21.0619507,8.9979858,18.4169922,8.2197266z"/></svg>