<svg xmlns="http://www.w3.org/2000/svg" enable-background="new 0 0 24 24" viewBox="0 0 24 24"><path fill="#6563ff" d="M8.0079346,13.348877c-0.3452148,0-0.625,0.2797852-0.625,0.625c0,0.3451538,0.2797852,0.625,0.625,0.625c0.3451538,0,0.625-0.2798462,0.625-0.625C8.6329346,13.6286621,8.3530884,13.348877,8.0079346,13.348877z M8.0079346,17.348877c-0.3452148,0-0.625,0.2797852-0.625,0.625c0,0.3451538,0.2797852,0.625,0.625,0.625c0.3451538,0,0.625-0.2798462,0.625-0.625C8.6329346,17.6286621,8.3530884,17.348877,8.0079346,17.348877z M8.0079346,21.348877c-0.3452148,0-0.625,0.2797852-0.625,0.625c0,0.3451538,0.2797852,0.625,0.625,0.625c0.3451538,0,0.625-0.2798462,0.625-0.625C8.6329346,21.6286621,8.3530884,21.348877,8.0079346,21.348877z M12.0079346,15.348877c-0.3452148,0-0.625,0.2797852-0.625,0.625c0,0.3451538,0.2797852,0.625,0.625,0.625c0.3451538,0,0.625-0.2798462,0.625-0.625C12.6329346,15.6286621,12.3530884,15.348877,12.0079346,15.348877z M12.0079346,19.348877c-0.3452148,0-0.625,0.2797852-0.625,0.625c0,0.3451538,0.2797852,0.625,0.625,0.625c0.3451538,0,0.625-0.2798462,0.625-0.625C12.6329346,19.6286621,12.3530884,19.348877,12.0079346,19.348877z M18.4257812,8.1904297c-0.9830322-2.2730103-3.0950317-3.8565674-5.5524902-4.1630249c-3.8320923-0.4779663-7.3259888,2.2411499-7.8039551,6.0731812c-1.1784668,0.2797852-2.1654663,1.0808105-2.6817627,2.1765137c-0.9371338,1.9888916-0.0844727,4.3609619,1.9044189,5.2980957c0.0674438,0.0321045,0.1411743,0.0487671,0.2158203,0.0488281c0.192749,0.000061,0.3684082-0.1105957,0.4514771-0.2845459c0.1190186-0.2491455,0.0134888-0.5476074-0.2356567-0.666687c-1.0485229-0.4891357-1.7179565-1.5421753-1.7158203-2.6992188c0.0095825-1.4921875,1.112793-2.7513428,2.5908203-2.9569702c0.2344971-0.0324097,0.4142456-0.2247314,0.4306641-0.4609375c0.1589966-2.3158569,1.6411743-4.331543,3.8042603-5.1737061c3.0840454-1.2007446,6.5575562,0.3259888,7.7582397,3.4100342c0.0599976,0.1518555,0.1900024,0.2651367,0.3486328,0.3037109c0.9818115,0.2333984,1.8387451,0.8302002,2.3981934,1.670105c1.2216187,1.8342285,0.7250366,4.3114014-1.1091309,5.53302c-0.229248,0.1536865-0.2904053,0.4641113-0.1367188,0.6933594s0.4641113,0.2904053,0.6933594,0.1367188c0.9740601-0.6494141,1.6887207-1.6207275,2.0189819-2.7438965C22.5825195,11.741272,21.0695801,8.9678345,18.4257812,8.1904297z M16.0079346,13.348877c-0.3452148,0-0.625,0.2797852-0.625,0.625c0,0.3451538,0.2797852,0.625,0.625,0.625c0.3451538,0,0.625-0.2798462,0.625-0.625C16.6329346,13.6286621,16.3530884,13.348877,16.0079346,13.348877z M12.0079346,11.348877c-0.3452148,0-0.625,0.2797852-0.625,0.625c0,0.3451538,0.2797852,0.625,0.625,0.625c0.3451538,0,0.625-0.2798462,0.625-0.625C12.6329346,11.6286621,12.3530884,11.348877,12.0079346,11.348877z M16.0079346,21.348877c-0.3452148,0-0.625,0.2797852-0.625,0.625c0,0.3451538,0.2797852,0.625,0.625,0.625c0.3451538,0,0.625-0.2798462,0.625-0.625C16.6329346,21.6286621,16.3530884,21.348877,16.0079346,21.348877z M16.0079346,17.348877c-0.3452148,0-0.625,0.2797852-0.625,0.625c0,0.3451538,0.2797852,0.625,0.625,0.625c0.3451538,0,0.625-0.2798462,0.625-0.625C16.6329346,17.6286621,16.3530884,17.348877,16.0079346,17.348877z"/></svg>