<svg xmlns="http://www.w3.org/2000/svg" enable-background="new 0 0 24 24" viewBox="0 0 24 24"><path fill="#6563ff" d="M22,14.5c-0.0009155-0.828064-0.671936-1.4990845-1.5-1.5h-6c-0.828064,0.0009155-1.4990845,0.671936-1.5,1.5V15H8.5v-4h2.75c1.6182251,0.0029907,3.0551758-1.0343018,3.5617676-2.571228c0.6471558-1.9633179-0.4197998-4.0794678-2.3831177-4.7266235c-0.7163696-1.3944092-2.0479736-2.3696899-3.5935059-2.631958C6.1256714,0.6103516,3.5564575,2.434082,3.0966797,5.1435547C1.8478394,5.5370483,0.9989624,6.6956177,1,8.0049438C1.0014038,9.6604614,2.3445435,11.0013428,4,11h3.5v8.5005493C7.5001831,19.7765503,7.723999,20.0001831,8,20h5v0.5c0.0009155,0.828064,0.671936,1.4990845,1.5,1.5h6c0.828064-0.0009155,1.4990845-0.671936,1.5-1.5v-2c-0.0004272-0.3859863-0.1505127-0.7342529-0.3901367-1c0.239624-0.2657471,0.3897095-0.6140137,0.3901367-1V14.5z M4,10c-0.9650269,0.0012817-1.7929077-0.687561-1.9671631-1.6367188c-0.1991577-1.085022,0.5189209-2.1260376,1.6039429-2.3251953c0.2183228-0.0407715,0.383667-0.220459,0.40625-0.4414062C4.2388306,3.5576172,5.9515381,2.0008545,8,2c1.5571899,0.0071411,2.9694214,0.9152222,3.6220703,2.3291016c0.0628052,0.1350098,0.182312,0.2351074,0.3261719,0.2734375c1.2108765,0.3153076,2.0549316,1.4101562,2.0516968,2.661438C13.9960938,8.7788696,12.7648926,10.0038452,11.25,10H4z M13,18.5V19H8.5v-3H13v0.5c0.0004272,0.3859863,0.1505127,0.7342529,0.3901367,1C13.1505127,17.7657471,13.0004272,18.1140137,13,18.5z M21,20.5c-0.0005493,0.2759399-0.2240601,0.4994507-0.5,0.5h-6c-0.2759399-0.0005493-0.4994507-0.2240601-0.5-0.5v-2c0.0005493-0.2759399,0.2240601-0.4994507,0.5-0.5h6c0.2759399,0.0005493,0.4994507,0.2240601,0.5,0.5V20.5z M21,16.5c-0.0005493,0.2759399-0.2240601,0.4994507-0.5,0.5h-6c-0.2759399-0.0005493-0.4994507-0.2240601-0.5-0.5v-2c0.0005493-0.2759399,0.2240601-0.4994507,0.5-0.5h6c0.2759399,0.0005493,0.4994507,0.2240601,0.5,0.5V16.5z"/></svg>