<svg xmlns="http://www.w3.org/2000/svg" enable-background="new 0 0 24 24" viewBox="0 0 24 24"><path fill="#6563ff" d="M18.4169922,8.2197266c-0.1260376-0.2935791-0.2721558-0.578125-0.4373169-0.8516235c-1.9893799-3.2957153-6.2738647-4.3546143-9.569519-2.3651733C8.1744385,5.1464233,8.0996704,5.4537354,8.2431641,5.6894531S8.6939697,5.999939,8.9296875,5.8564453C9.8552856,5.2949829,10.9174194,4.9987183,12,5c2.4732666-0.005249,4.6938477,1.5147095,5.5839844,3.8222656c0.0602417,0.1524658,0.1911011,0.2658691,0.3505859,0.3037109c0.8792725,0.2080688,1.6616821,0.7089233,2.21875,1.4203491c1.3557739,1.7316895,1.0510254,4.2346191-0.6806641,5.5903931c-0.1208496,0.0946045-0.1915894,0.239563-0.1917114,0.3930664c-0.0003662,0.276062,0.2232056,0.5001831,0.4993286,0.5004883c0.1116333,0.0005493,0.2201538-0.0369873,0.3076172-0.1064453c0.8207397-0.6419678,1.4194946-1.5252075,1.7119141-2.5253296C22.5718994,11.7581177,21.057373,8.9918213,18.4169922,8.2197266z M2.8534546,3.1465454c-0.1937256-0.1871948-0.5009155-0.1871948-0.6947021,0C1.960144,3.3383789,1.9546509,3.6549072,2.1464844,3.8535156l3.7522583,3.7522583C5.463562,8.3861084,5.171936,9.2390137,5.0595703,10.1279297C3.2619019,10.5594482,1.9959106,12.1690063,2,14.0177002C2.0048828,16.2219849,3.7957764,18.0048828,6,18h10.2929688l2.8535156,2.8535156C19.2401123,20.9474487,19.3673706,21.0001831,19.5,21c0.1325073-0.000061,0.2595825-0.0526733,0.3533325-0.1463623c0.1953125-0.1952515,0.1953735-0.5118408,0.0001221-0.7070923L2.8534546,3.1465454z M6,17c-1.4990234,0.0043335-2.7697754-1.1015625-2.9724731-2.586792c-0.2233276-1.6369019,0.9225464-3.1448975,2.5593872-3.3682861c0.2342529-0.0317383,0.4143066-0.2232056,0.4316406-0.4589844c0.0528564-0.7841797,0.2664795-1.545166,0.6155396-2.244812L15.2929688,17H6z"/></svg>