<svg xmlns="http://www.w3.org/2000/svg" enable-background="new 0 0 24 24" viewBox="0 0 24 24"><path fill="#6563ff" d="M12.7246094,13.5039062c-0.2593994-0.0944214-0.5462646,0.0394287-0.640625,0.2988281l-1.0917969,3c-0.0197754,0.0545654-0.0299683,0.1121216-0.0300293,0.170166c-0.0002441,0.2763062,0.2235107,0.5004883,0.4997559,0.5007324c0.210144-0.0001831,0.3978271-0.1316528,0.4697266-0.3291016l1.0917969-3C13.1177979,13.8851318,12.9840088,13.5982666,12.7246094,13.5039062z M8.7246094,20.5039062c-0.2593994-0.0944214-0.5462646,0.0394287-0.640625,0.2988281l-0.7275391,2c-0.0197754,0.0545654-0.0299683,0.1121826-0.0300293,0.1702271c-0.0002441,0.2762451,0.2235107,0.5004272,0.4997559,0.5006714c0.2102661,0.0001221,0.3980713-0.1314697,0.4697266-0.3291016l0.7275391-2C9.1177979,20.8851318,8.9840088,20.5982666,8.7246094,20.5039062z M8.7246094,13.5039062c-0.2593994-0.0944214-0.5462646,0.0394287-0.640625,0.2988281l-1.0917969,3c-0.0197754,0.0545654-0.0299683,0.1121216-0.0300293,0.170166c-0.0002441,0.2763062,0.2235107,0.5004883,0.4997559,0.5007324c0.210144-0.0001831,0.3978271-0.1316528,0.4697266-0.3291016l1.0917969-3C9.1177979,13.8851318,8.9840088,13.5982666,8.7246094,13.5039062z M12.7246094,20.5039062c-0.2593994-0.0944214-0.5462646,0.0394287-0.640625,0.2988281l-0.7275391,2c-0.0197754,0.0545654-0.0299683,0.1121826-0.0300293,0.1702271c-0.0002441,0.2762451,0.2235107,0.5004272,0.4997559,0.5006714c0.2102661,0.0001221,0.3980713-0.1314697,0.4697266-0.3291016l0.7275391-2C13.1177979,20.8851318,12.9840088,20.5982666,12.7246094,20.5039062z M16.7246094,20.5039062c-0.2593994-0.0944214-0.5462646,0.0394287-0.640625,0.2988281l-0.7275391,2c-0.0197754,0.0545654-0.0299683,0.1121826-0.0300293,0.1702271c-0.0002441,0.2762451,0.2235107,0.5004272,0.4997559,0.5006714c0.2102661,0.0001221,0.3980713-0.1314697,0.4697266-0.3291016l0.7275391-2C17.1177979,20.8851318,16.9840088,20.5982666,16.7246094,20.5039062z M18.4248047,8.1943359c-0.9822998-2.2755127-3.0958862-3.8609619-5.5554199-4.1671753c-3.8319092-0.4770508-7.3249512,2.2425537-7.802063,6.0744629c-1.1809082,0.2791748-2.1694946,1.0825806-2.6842651,2.1814575c-0.9310303,1.9874268-0.074646,4.3533325,1.9128418,5.2843628c0.2502441,0.1170044,0.5479736,0.0090332,0.6650391-0.2412109c0.1170044-0.2503052,0.0090332-0.5480347-0.2412109-0.6650391c-0.9189453-0.4308472-1.5548096-1.300354-1.6867065-2.3066406c-0.213501-1.6288452,0.9338379-3.1224365,2.5626831-3.3359375c0.2347412-0.0316162,0.4150391-0.2237549,0.4316406-0.460022c0.15802-2.3188477,1.6427002-4.3371582,3.8093262-5.1785278c3.085022-1.197998,6.5571289,0.3317871,7.755127,3.4168091c0.0604858,0.1522827,0.1912231,0.265564,0.3505249,0.3037109c1.3244629,0.3110352,2.3978271,1.2779541,2.8448486,2.5628662c0.7212524,2.072876-0.3744507,4.3379517-2.4473877,5.0592041c-0.1989136,0.0710449-0.3317261,0.2594604-0.3317261,0.4706421c-0.0001221,0.276123,0.2236328,0.5,0.4997559,0.500061c0.057312,0.0002441,0.1141968-0.0096436,0.1679688-0.0292969c1.5171509-0.5303955,2.6844482-1.7612915,3.133728-3.3043823C22.5773926,11.7224731,21.0620117,8.9621582,18.4248047,8.1943359z M16.7246094,13.5039062c-0.2593994-0.0944214-0.5462646,0.0394287-0.640625,0.2988281l-1.0917969,3c-0.0197754,0.0545654-0.0299683,0.1121216-0.0300293,0.170166c-0.0002441,0.2763062,0.2235107,0.5004883,0.4997559,0.5007324c0.210144-0.0001831,0.3978271-0.1316528,0.4697266-0.3291016l1.0917969-3C17.1177979,13.8851318,16.9840088,13.5982666,16.7246094,13.5039062z"/></svg>