<svg xmlns="http://www.w3.org/2000/svg" enable-background="new 0 0 24 24" viewBox="0 0 24 24"><path fill="#6563ff" d="M14.5,15c1.1040039-0.0014038,1.9985962-0.8959961,2-2c0-1.1045532-0.8954468-2-2-2s-2,0.8954468-2,2c0,0.1681519,0.0269775,0.3287964,0.06604,0.4848022l-1.5587769,0.7138062C10.6405029,13.774231,10.1049194,13.5,9.5,13.5c-1.1045532,0-2,0.8954468-2,2s0.8954468,2,2,2c0.5445557-0.0006714,1.0369263-0.2200928,1.397522-0.5733643l1.6351318,0.7494507C12.5152588,17.7821045,12.5,17.8890381,12.5,18c0,1.1045532,0.8954468,2,2,2c1.1040039-0.0014038,1.9985962-0.8959961,2-2c0-1.1045532-0.8954468-2-2-2c-0.6351929,0-1.194519,0.3018188-1.5608521,0.7635498l-1.5298462-0.7012329C11.4624023,15.8828125,11.4997559,15.6966553,11.5,15.5c0-0.1395874-0.0147095-0.2756348-0.0419312-0.4071655l1.5877686-0.7271118C13.4106445,14.7540894,13.9251099,15,14.5,15z M14.5,12c0.552124,0.0003662,0.9996338,0.447876,1,1c0,0.5523071-0.4476929,1-1,1s-1-0.4476929-1-1S13.9476929,12,14.5,12z M9.5,16.5c-0.5523071,0-1-0.4476929-1-1s0.4476929-1,1-1c0.552124,0.0003662,0.9996338,0.447876,1,1C10.5,16.0523071,10.0523071,16.5,9.5,16.5z M14.5,17c0.552124,0.0003662,0.9996338,0.447876,1,1c0,0.5523071-0.4476929,1-1,1s-1-0.4476929-1-1S13.9476929,17,14.5,17z M18.4169922,7.2197266c-0.982605-2.2747192-3.0957031-3.8595581-5.5545654-4.1660156c-3.8323364-0.4776001-7.3262329,2.2419434-7.803833,6.0742798c-1.5925903,0.3817139-2.789978,1.6982422-3.0192871,3.3198242c-0.3084106,2.1809082,1.2095337,4.1989136,3.3903809,4.5073242c0.0236816,0.0030518,0.0474854,0.0046997,0.0712891,0.0048828c0.2489014-0.0003662,0.4595947-0.1836548,0.4944458-0.4300537C6.0340576,16.2565308,5.84375,16.00354,5.5703125,15.9649048c-1.324707-0.1870728-2.3636475-1.2318115-2.5432739-2.5575562c-0.2216187-1.635376,0.9244995-3.1407471,2.5598755-3.3623657c0.2347412-0.0315552,0.4150391-0.2236938,0.4316406-0.4599609c0.1582642-2.3183594,1.642395-4.3362427,3.8083496-5.1779785c3.085144-1.1989746,6.5581055,0.3300781,7.7570801,3.4152222c0.0602417,0.1524658,0.1911011,0.2658691,0.3505859,0.3037109c1.3197021,0.3139648,2.3893433,1.2770996,2.8394775,2.5567627c0.730896,2.0779419-0.361145,4.3549194-2.4390869,5.0858154c-0.260498,0.0911255-0.3977661,0.3762207-0.3066406,0.6367188c0.0911865,0.260498,0.3762207,0.3977661,0.6367188,0.3066406c1.5147705-0.5320435,2.6808472-1.7606812,3.1330566-3.3012085C22.5740356,10.7674561,21.0602417,7.9956665,18.4169922,7.2197266z"/></svg>