<svg xmlns="http://www.w3.org/2000/svg" enable-background="new 0 0 24 24" viewBox="0 0 24 24"><path fill="#6563ff" d="M14.0908203,8.8798828c0.2011719,0,0.390625-0.1220703,0.4667969-0.3203125c0.0986328-0.2578125-0.0292969-0.546875-0.2871094-0.6464844c-1.421875-0.5478516-3.109375-0.5488281-4.5390625,0C9.4736328,8.0126953,9.3457031,8.3017578,9.4443359,8.5595703c0.0986328,0.2568359,0.3847656,0.3857422,0.6464844,0.2871094c1.1962891-0.4619141,2.6259766-0.4599609,3.8203125,0C13.9707031,8.8691406,14.03125,8.8798828,14.0908203,8.8798828z M8,5.0712891c2.4277344-1.4023438,5.5722656-1.4023438,8,0c0.0791016,0.0458984,0.1650391,0.0673828,0.25,0.0673828c0.171875,0,0.3408203-0.0898438,0.4326172-0.25C16.8212891,4.6494141,16.7392578,4.34375,16.5,4.2060547c-2.7324219-1.578125-6.2675781-1.578125-9,0C7.2607422,4.34375,7.1787109,4.6494141,7.3173828,4.8886719C7.4541016,5.1269531,7.7607422,5.2099609,8,5.0712891z M18.4179688,11.2197266c-0.3613281-0.8359375-0.9013672-1.6103516-1.5722656-2.2509766c-0.2011719-0.1914062-0.5175781-0.1826172-0.7070312,0.015625c-0.1914062,0.2001953-0.1835938,0.5166016,0.015625,0.7070312c0.6289062,0.6005859,1.1230469,1.3369141,1.4287109,2.1279297c0.0595703,0.1542969,0.1914062,0.2685547,0.3515625,0.3066406C19.7392578,12.5546875,21,14.1484375,21,16c0,2.2060547-1.7939453,4-4,4H6c-1.6542969,0-3-1.3457031-3-3c0-1.484375,1.1123047-2.7548828,2.5869141-2.9550781c0.234375-0.03125,0.4140625-0.2226562,0.4316406-0.4589844c0.1074219-1.4951172,0.7568359-2.8808594,1.8271484-3.9042969c0.1992188-0.1904297,0.2060547-0.5068359,0.015625-0.7070312C7.671875,8.7753906,7.3535156,8.7675781,7.1542969,8.9589844c-1.1572266,1.1064453-1.8925781,2.5742188-2.0947266,4.1689453C3.2900391,13.5527344,2,15.1513672,2,17c0,2.2060547,1.7939453,4,4,4h11c2.7568359,0,5-2.2431641,5-5C22,13.7705078,20.5400391,11.8408203,18.4179688,11.2197266z M10.5009766,12c0,0.8271484,0.6728516,1.5,1.5,1.5s1.5-0.6728516,1.5-1.5s-0.6728516-1.5-1.5-1.5S10.5009766,11.1728516,10.5009766,12z M12.5009766,12c0,0.2753906-0.2246094,0.5-0.5,0.5s-0.5-0.2246094-0.5-0.5s0.2246094-0.5,0.5-0.5S12.5009766,11.7246094,12.5009766,12z"/></svg>