<svg xmlns="http://www.w3.org/2000/svg" enable-background="new 0 0 24 24" viewBox="0 0 24 24"><path fill="#6563ff" d="M21.5,21h-4c-0.828064-0.0009155-1.4990845-0.671936-1.5-1.5V16h1c2.2166138,0.0029297,4.1698608-1.4557495,4.7963867-3.5820312c0.77948-2.6453247-0.7330322-5.4216919-3.3783569-6.2011719c-0.9830322-2.2730713-3.0951538-3.8566284-5.5526123-4.1630859c-3.8320923-0.4779053-7.3259888,2.2412109-7.803894,6.0733032c-1.7983398,0.4309082-3.0651855,2.0406494-3.0612793,3.8898926C2.0048218,14.2213135,3.7955933,16.0045776,6,16h2v3.5c-0.0009155,0.828064-0.671936,1.4990845-1.5,1.5h-4C2.223877,21,2,21.223877,2,21.5S2.223877,22,2.5,22h4c1.380188-0.0012817,2.4987183-1.119812,2.5-2.5V16h2.5v5.5005493C11.5001831,21.7765503,11.723999,22.0001831,12,22h0.0006104c0.2759399-0.0001831,0.4995728-0.223999,0.4993896-0.5V16H15v3.5c0.0012817,1.380188,1.119812,2.4987183,2.5,2.5h4c0.276123,0,0.5-0.223877,0.5-0.5S21.776123,21,21.5,21z M6,15c-1.5009155,0.0043335-2.7728271-1.1040649-2.9737549-2.5914917c-0.2211914-1.6375732,0.927002-3.1443481,2.5645752-3.3655396C5.8253174,9.010498,6.0050659,8.8181763,6.0214844,8.5819702C6.2463989,5.4434814,8.8534546,3.0093384,12,3c2.4730225-0.0081787,4.694458,1.5108643,5.5839844,3.8183594c0.0599976,0.1518555,0.1900024,0.2651367,0.3486328,0.3037109C19.7333984,7.5513306,21.0030518,9.1619873,21,11.0132446C20.9963379,13.21875,19.2055054,15.0036621,17,15H6z"/></svg>