<svg xmlns="http://www.w3.org/2000/svg" enable-background="new 0 0 24 24" viewBox="0 0 24 24"><path fill="#6563ff" d="M13.5078125,16.9736328h-1.6343384l0.8169556-1.4150391c0.1362305-0.2380981,0.0550537-0.5414429-0.1818237-0.6796875c-0.2383423-0.1390991-0.5443115-0.0586548-0.6834106,0.1796875l-0.8173828,1.4157104l-0.8173828-1.4157104c-0.1382446-0.2368774-0.4416504-0.3180542-0.6796875-0.1818237c-0.239502,0.1370239-0.3225708,0.4423218-0.1855469,0.6818237l0.8169556,1.4150391H8.5078125c-0.276123,0-0.5,0.223877-0.5,0.5s0.223877,0.5,0.5,0.5h1.6343384l-0.8169556,1.4150391c-0.0436401,0.0757446-0.0667114,0.1616211-0.0668335,0.2490845c-0.0004272,0.2762451,0.2232056,0.5004883,0.4994507,0.5009155c0.1785278,0.000061,0.3435059-0.0952759,0.4326172-0.25l0.8173828-1.4157104l0.8173828,1.4157104c0.0891113,0.1547241,0.2540894,0.250061,0.4326172,0.25c0.0874634-0.0001221,0.1732788-0.0231934,0.2490845-0.0668335c0.2393188-0.1380005,0.3214722-0.4438477,0.1835327-0.6831665l-0.8169556-1.4150391h1.6343384c0.276123,0,0.5-0.223877,0.5-0.5S13.7839355,16.9736328,13.5078125,16.9736328z M22.9276733,7.7773438c0.0289917-0.1768188-0.0388184-0.3555908-0.1777344-0.46875c-0.1381226-0.1140747-0.3272705-0.1443481-0.4941406-0.0791016c-0.3922729,0.1489868-0.8081665,0.2262573-1.2277832,0.2281494c-1.9352417,0.0089722-3.5112915-1.5526733-3.5202026-3.487915c0.0028687-0.427002,0.0846558-0.8497925,0.2412109-1.2470703c0.0643921-0.1672974,0.0342407-0.3562622-0.0791016-0.4951172c-0.1117554-0.1408081-0.291748-0.2090454-0.46875-0.1777344c-2.1472778,0.3505249-3.7782593,2.0459595-4.1103516,4.1461792c-0.5142212-0.1455688-1.0459595-0.2252197-1.5830078-0.22229C8.5143433,5.986084,5.9899292,8.2072754,5.5966797,11.1748657c-1.1254272,0.2878418-2.0296021,1.1242065-2.4041748,2.2238159c-0.6126709,1.798584,0.3486938,3.7533569,2.1473389,4.3660278c0.0010376,0.0003662,0.0021362,0.0007324,0.0032349,0.0011597c0.2602539,0.0918579,0.5457153-0.0446777,0.6376343-0.3049316c0.0918579-0.2603149-0.0446777-0.5457764-0.3049316-0.6376343c-0.8040771-0.2661133-1.4127808-0.9298706-1.6083984-1.7539062c-0.1544189-0.6807861-0.0139771-1.3951416,0.3867188-1.9667969c0.3917847-0.5549316,0.9967651-0.921814,1.6699219-1.0126953c0.2357178-0.0321655,0.4164429-0.2255249,0.4326172-0.4628906c0.1742554-2.6097412,2.3356323-4.6411133,4.9511719-4.6533203c0.6438599-0.0039673,1.2783203,0.1330566,1.8702393,0.3847656c0.223938,0.0914917,0.4315796,0.2107544,0.6374512,0.3322144c0.0908203,0.0541382,0.1879272,0.0986938,0.2748413,0.1582642c0.1691284,0.1149902,0.319519,0.2526245,0.4727173,0.3870239c0.0987549,0.0871582,0.2064209,0.1645508,0.2979736,0.2591553c0.1271362,0.1307983,0.2319946,0.2810669,0.3441772,0.425293c0.0914917,0.1179199,0.1942749,0.2265015,0.2750854,0.3525391c0.1175537,0.1832886,0.2069092,0.3848267,0.3001709,0.5838623c0.0476074,0.1013184,0.1104126,0.1936035,0.1513672,0.2985229c0.0593262,0.1524658,0.1895752,0.2662964,0.3486328,0.3046875c0.0828857,0.0198975,0.1613159,0.0518188,0.2419434,0.078064c0.0847778,0.0279541,0.1712036,0.0515747,0.2530518,0.0861206c0.074585,0.03125,0.1444702,0.0715942,0.2163696,0.1082764c0.086792,0.0443726,0.173645,0.088501,0.2560425,0.1403198c0.072937,0.0458984,0.1419067,0.0976562,0.2109985,0.149292c0.0693359,0.0515137,0.1372681,0.1047974,0.2024536,0.1616821c0.0755615,0.0665894,0.1483765,0.1364746,0.2178345,0.2102051c0.0770264,0.0808716,0.1531982,0.1624756,0.2221069,0.2513428c0.4521484,0.5762329,0.7077026,1.2832642,0.706543,2.0187378c-0.0005493,1.5549316-1.0841675,2.8995361-2.6035156,3.2304688c-0.2311401,0.0487061-0.3966675,0.2525024-0.3969116,0.4887085c-0.0003052,0.2761841,0.2233276,0.5002441,0.4994507,0.5005493c0.0350952-0.0002441,0.0701294-0.0038452,0.1045532-0.0107422c0.7373047-0.1583862,1.4199829-0.5078735,1.9795532-1.0134888c1.4743042-1.3321533,1.7943115-3.4475098,0.9321899-5.1367188C21.2910767,11.1581421,22.6243896,9.6482544,22.9276733,7.7773438z M18.9501953,10.8515625c-0.005127-0.0059204-0.0113525-0.0106812-0.0164795-0.0166016c-0.0133057-0.0151367-0.0216675-0.0328369-0.0352173-0.0478516c-0.0197754-0.0206909-0.0409546-0.039978-0.0634766-0.0576172c-0.0317383-0.0342407-0.0684814-0.0626831-0.1012573-0.0957642c-0.0892334-0.0895996-0.1782227-0.1787109-0.2746582-0.2598267c-0.0603027-0.0509644-0.1251831-0.0953979-0.1881104-0.1428833c-0.0888672-0.0667114-0.1759644-0.1353149-0.2695923-0.1950073c-0.0706177-0.0449829-0.145752-0.0818481-0.2189331-0.1225586c-0.095459-0.0532227-0.1888428-0.1097412-0.288269-0.1556396c-0.0377197-0.017334-0.0779419-0.0289307-0.1161499-0.045166c-0.1351318-0.0576782-0.2700806-0.1160889-0.4112549-0.1599121c-0.1500244-0.3409424-0.3328247-0.6630249-0.5405884-0.9665527c-0.0286255-0.0418701-0.06604-0.076355-0.0957031-0.1174316c-0.1815796-0.2512817-0.3743286-0.4934692-0.59198-0.7130127c-0.1068726-0.1082153-0.2312622-0.1964722-0.3460083-0.2963867c-0.1548462-0.1340332-0.3034058-0.274292-0.4717407-0.3920898c-0.1833496-0.1292114-0.3842773-0.2318115-0.5822144-0.340332c-0.1026001-0.0557251-0.1952515-0.1262817-0.3014526-0.1761475c0.159729-1.4872437,1.1369629-2.7606812,2.5322266-3.2998047c-0.0407715,0.2374268-0.0614014,0.4778442-0.0615234,0.71875c0.0026855,2.4841309,2.0158691,4.4973145,4.5,4.5c0.2409058-0.0001221,0.4813232-0.020752,0.71875-0.0615234C21.2585449,9.6292114,20.2207642,10.5425415,18.9501953,10.8515625z"/></svg>