<svg xmlns="http://www.w3.org/2000/svg" enable-background="new 0 0 24 24" viewBox="0 0 24 24"><path fill="#6563ff" d="M9.5078125,18.9746094c-0.276123,0-0.5,0.223877-0.5,0.5v2c0,0.0001831,0,0.0003662,0,0.0005493c0.0001221,0.276001,0.223999,0.4996338,0.5,0.4994507c0.0001831,0,0.0003662,0,0.0005493,0c0.276001-0.0001831,0.4996338-0.223999,0.4994507-0.5v-2C10.0078125,19.1984863,9.7839355,18.9746094,9.5078125,18.9746094z M22.9276733,7.781311c0.0143433-0.0874023,0.005249-0.177063-0.0264282-0.2597656c-0.0986328-0.2578125-0.3876343-0.3867798-0.6454468-0.2880859c-0.3925781,0.1491089-0.8087769,0.2265015-1.2286987,0.2283325c-1.9350586,0.008606-3.5106812-1.5531006-3.5192871-3.4880981c0.0028687-0.427002,0.0846558-0.8497925,0.2412109-1.2470703c0.0643921-0.1672974,0.0342407-0.3562622-0.0791016-0.4951172c-0.1109619-0.1419678-0.2915649-0.2104492-0.46875-0.1777344c-2.1444092,0.3500366-3.774231,2.0412598-4.109375,4.1376953c-0.5091553-0.1394043-1.0393066-0.2201538-1.5839844-0.2178345c-2.9934082,0.012146-5.5176392,2.2335815-5.9101562,5.2011719c-1.8088379,0.4642944-2.9204102,2.282959-2.5087891,4.1044922c0.3781738,1.5753784,1.7841797,2.6881714,3.4042969,2.6943359h0.0146484v0.000061c0.2703857-0.0001221,0.4916992-0.2150269,0.4996948-0.4852905c0.0081787-0.276062-0.2089844-0.5065308-0.4850464-0.5147095c-1.1555176-0.0046387-2.163208-0.7862549-2.4550781-1.9042969c-0.1542969-0.6807861-0.013855-1.3951416,0.3867188-1.9667969C4.8461304,12.5474854,5.4514771,12.180542,6.125,12.0899048c0.2357178-0.0321655,0.4164429-0.2255249,0.4326172-0.4628906c0.1730957-2.6099243,2.3346558-4.6417847,4.9502563-4.6533203c0.6326904-0.0025635,1.2396851,0.1286621,1.8059082,0.3501587c0.007019,0.0032349,0.0100708,0.0111694,0.0172729,0.0140991c0.9501343,0.3768921,1.7496338,1.0360718,2.3060913,1.8735962c0.0126343,0.0193481,0.0262451,0.0378418,0.0386353,0.057373c0.1787109,0.2773438,0.3331909,0.5722046,0.4550781,0.8844604c0.0594482,0.1535645,0.1904907,0.2681885,0.3505859,0.3066406c0.1780396,0.0436401,0.3500977,0.1040039,0.5166626,0.1755981c0.029541,0.0125732,0.0571899,0.0282593,0.0862427,0.041626c0.1395264,0.0648804,0.2749634,0.1376953,0.4037476,0.2211304c0.0241699,0.015564,0.0478516,0.0316772,0.0715942,0.0478516c0.1422119,0.0975342,0.2785034,0.2039795,0.4041748,0.322937c0.0029907,0.0028687,0.0062866,0.0054321,0.0092773,0.0083008c0.137085,0.1307373,0.2636719,0.2734985,0.3775024,0.4276123c0.0058594,0.0078125,0.015625,0.0108643,0.0218506,0.0182495c0.2670898,0.3659058,0.4614258,0.7885132,0.5606689,1.2478638c0.3850708,1.7817383-0.7471313,3.538269-2.5288086,3.9232788c-0.0010986,0.0002441-0.0021362,0.0004883-0.0031738,0.0006714c-0.2700195,0.0580444-0.4418945,0.3239746-0.3838501,0.5940552c0.0580444,0.2700195,0.3239746,0.4418335,0.5939941,0.3838501c1.5238647-0.3278809,2.7510376-1.4545288,3.2077637-2.9448242c0.3397217-1.1087036,0.203186-2.246582-0.2835083-3.2047729C21.2973022,11.1555176,22.6247559,9.6477661,22.9276733,7.781311z M18.9501953,10.8554688c-0.1274414-0.1478271-0.2651978-0.2852783-0.4104614-0.4135742c-0.0842285-0.0740356-0.1763306-0.1381836-0.2667847-0.2058716c-0.1179199-0.0886841-0.2383423-0.1725464-0.3646851-0.2486572c-0.0852051-0.0509033-0.1703491-0.1000366-0.2597656-0.1453247c-0.2088013-0.1068115-0.4239502-0.2009888-0.6491699-0.2727661c-0.0114746-0.0036011-0.0210571-0.0101318-0.0325317-0.0136719c-0.1419067-0.3308716-0.3198853-0.637085-0.5142212-0.9302368c-0.0061035-0.0090942-0.0130615-0.0175171-0.0192871-0.0266113c-0.6029663-0.8987427-1.4281006-1.6141968-2.3922119-2.0661621c0.1671143-1.4775391,1.1400757-2.741333,2.5282593-3.27771c-0.0407715,0.2374268-0.0613403,0.4778442-0.0615234,0.71875c0.0007935,0.2324219,0.0195312,0.4644165,0.0560913,0.6939087c0.3916016,2.4596558,2.7030029,4.1361694,5.1626587,3.7445679C21.2579346,9.6326904,20.2203979,10.5457764,18.9501953,10.8554688z M9.5078125,13.9746094c-0.276123,0-0.5,0.223877-0.5,0.5v2c0,0.0001831,0,0.0003662,0,0.0005493c0.0001221,0.276001,0.223999,0.4996338,0.5,0.4994507c0.0001831,0,0.0003662,0,0.0005493,0c0.276001-0.0001831,0.4996338-0.223999,0.4994507-0.5v-2C10.0078125,14.1984863,9.7839355,13.9746094,9.5078125,13.9746094z M13.5078125,12.9746094c-0.276123,0-0.5,0.223877-0.5,0.5v2c0,0.0001831,0,0.0003662,0,0.0005493c0.0001221,0.276001,0.223999,0.4996338,0.5,0.4994507c0.0001831,0,0.0003662,0,0.0005493,0c0.276001-0.0001831,0.4996338-0.223999,0.4994507-0.5v-2C14.0078125,13.1984863,13.7839355,12.9746094,13.5078125,12.9746094z M13.5078125,17.9746094c-0.276123,0-0.5,0.223877-0.5,0.5v2c0,0.0001831,0,0.0003662,0,0.0005493c0.0001221,0.276001,0.223999,0.4996338,0.5,0.4994507c0.0001831,0,0.0003662,0,0.0005493,0c0.276001-0.0001831,0.4996338-0.223999,0.4994507-0.5v-2C14.0078125,18.1984863,13.7839355,17.9746094,13.5078125,17.9746094z"/></svg>