<svg xmlns="http://www.w3.org/2000/svg" enable-background="new 0 0 24 24" viewBox="0 0 24 24"><path fill="#6563ff" d="M10,16.375c-0.3451538,0-0.625,0.2798462-0.625,0.625S9.6548462,17.625,10,17.625s0.625-0.2798462,0.625-0.625S10.3451538,16.375,10,16.375z M10,20.375c-0.3451538,0-0.625,0.2798462-0.625,0.625S9.6548462,21.625,10,21.625s0.625-0.2798462,0.625-0.625S10.3451538,20.375,10,20.375z M13,18.375c-0.3451538,0-0.625,0.2798462-0.625,0.625s0.2798462,0.625,0.625,0.625s0.625-0.2798462,0.625-0.625S13.3451538,18.375,13,18.375z M13,14.375c-0.3451538,0-0.625,0.2798462-0.625,0.625s0.2798462,0.625,0.625,0.625s0.625-0.2798462,0.625-0.625S13.3451538,14.375,13,14.375z M22.5058594,7.5h-1.5379028c-0.0890503-0.7144165-0.3666382-1.3884888-0.802124-1.9527588l1.0831299-1.0824585c0.0023804-0.0023193,0.0047607-0.0046997,0.0070801-0.0070801c0.1932983-0.1972046,0.1901245-0.5137329-0.0070801-0.7069702c-0.1972046-0.1932983-0.5137329-0.1901245-0.7070312,0.0070801l-1.0863647,1.0856323c-0.3687134-0.2871094-0.7857666-0.5235596-1.2582397-0.6708984c-0.2296753-0.0715942-0.4608765-0.1122437-0.6914673-0.1414795V2.5c0-0.276123-0.223877-0.5-0.5-0.5s-0.5,0.223877-0.5,0.5v1.531311c-0.7150879,0.0911865-1.3902588,0.3696289-1.9538574,0.8078613l-1.0813599-1.0813599c-0.0023193-0.0023804-0.0046997-0.0047607-0.0071411-0.0071411c-0.1972046-0.1932373-0.5137329-0.1900635-0.7069702,0.0071411c-0.1932983,0.1972046-0.1900635,0.5137939,0.0071411,0.7070312l1.088562,1.088562c-0.1790771,0.2316895-0.3291016,0.4871826-0.4559937,0.7609863C12.7957153,6.1138306,12.161377,5.9981689,11.5058594,6c-2.9923706,0.0149536-5.5158081,2.2334595-5.9140015,5.1992188c-1.8078613,0.4674072-2.9163818,2.2876587-2.5020142,4.1083984C3.4832764,16.9119263,4.9353027,18.0298462,6.5869141,18h0.4873047c0.276123,0,0.5-0.223877,0.5-0.5s-0.223877-0.5-0.5-0.5H6.5869141c-1.1812744,0.031189-2.2272339-0.758606-2.5205078-1.9033203c-0.0166016-0.0716553-0.0299683-0.144043-0.0401001-0.2169189c-0.1860352-1.3424072,0.7514038-2.5814209,2.093811-2.7674561c0.2344971-0.0324097,0.4142456-0.2247314,0.4306641-0.4609375c0.12146-1.9366455,1.3607178-3.6247559,3.171936-4.3209839c2.5579834-0.9832764,5.428772,0.2932739,6.4120483,2.8512573c0.0596313,0.1522827,0.1897583,0.2659912,0.3486328,0.3046875c1.4751587,0.3590088,2.5157471,1.6771851,2.5224609,3.1953735C19.013916,15.5062866,17.5413818,16.9919434,15.7167969,17c-0.276123,0-0.5,0.223877-0.5,0.5s0.223877,0.5,0.5,0.5h0.2226562c0.0384521-0.0001831,0.0767822-0.0044556,0.1143188-0.0127563c1.753479-0.1443481,3.2427368-1.3411865,3.7610474-3.022583c0.3988037-1.2936401,0.1410522-2.62146-0.5600586-3.6635132c0.0679932-0.0465698,0.1303101-0.0994263,0.1950073-0.1504517l1.0922241,1.0914917c0.0936279,0.0939331,0.2208862,0.1466675,0.3535156,0.1464844c0.1325073,0,0.2596436-0.0526733,0.3533936-0.1463623c0.1953125-0.1952515,0.1953125-0.5118408,0.0001221-0.7070923l-1.1087646-1.1080322c0.293335-0.3772583,0.5412598-0.7878418,0.6843262-1.2467041C20.8950195,8.9544678,20.9343872,8.7269287,20.9638062,8.5h1.5420532c0.276123,0,0.5-0.223877,0.5-0.5S22.7819824,7.5,22.5058594,7.5z M19.1152344,10.1230469c-0.1531982,0.1589966-0.3302002,0.289978-0.5163574,0.4071045c-0.4560547-0.418335-0.9994507-0.7537231-1.630127-0.9481812c-0.5422363-1.2567749-1.4935913-2.2446899-2.6509399-2.8654175c0.1479492-0.3068848,0.3293457-0.5963135,0.5747681-0.8356934C16.0736084,4.7399292,17.9470825,4.7424927,19.125,5.8867188c0.0094604,0.0093994,0.0189209,0.0188599,0.0282593,0.0283813C20.3047485,7.0875854,20.2877197,8.9715576,19.1152344,10.1230469z"/></svg>