<svg xmlns="http://www.w3.org/2000/svg" enable-background="new 0 0 24 24" viewBox="0 0 24 24"><path fill="#6563ff" d="M14.6464844,19.1464844L12.5,21.2929688v-9.7935181C12.4998169,11.2234497,12.276001,10.9998169,12,11h-0.0005493c-0.276001,0.0001831-0.4996338,0.223999-0.4994507,0.5v9.7929688l-2.1465454-2.1464233c-0.1937256-0.1871948-0.5009155-0.1871948-0.6947021,0c-0.1986084,0.1918335-0.2041016,0.5083618-0.0122681,0.7069702l3,3C11.7401123,22.9474487,11.8673706,23.0001831,12,23c0.1326294,0.0001221,0.2598267-0.0525513,0.3534546-0.1464844l3-3c0.1871948-0.1937866,0.1871948-0.5009766,0-0.6947632C15.1616211,18.960144,14.8450928,18.9546509,14.6464844,19.1464844z M18.4180298,7.2167969c-0.9830322-2.2730713-3.0951538-3.8566284-5.5526123-4.1630859c-3.8320923-0.4779053-7.3259888,2.2412109-7.803894,6.0733032c-1.7983398,0.4309082-3.0651855,2.0406494-3.0612793,3.8898926C2.0048218,15.2213135,3.7955933,17.0045776,6,17h2.5C8.776123,17,9,16.776123,9,16.5S8.776123,16,8.5,16H6c-1.5009155,0.0043335-2.7728271-1.1040649-2.9737549-2.5914917c-0.2211914-1.6375732,0.927002-3.1443481,2.5645752-3.3655396c0.2344971-0.0324707,0.4142456-0.2247925,0.4306641-0.4609985C6.180481,7.2661743,7.6626587,5.2504883,9.8257446,4.4082642c3.0840454-1.2006836,6.5575562,0.3260498,7.7582397,3.4100952c0.0599976,0.1518555,0.1900024,0.2651367,0.3486328,0.3037109C19.7333984,8.5513306,21.0030518,10.1619873,21,12.0132446C20.9963379,14.21875,19.2055054,16.0036621,17,16h-1.5c-0.276123,0-0.5,0.223877-0.5,0.5s0.223877,0.5,0.5,0.5H17c2.2166138,0.0029297,4.1698608-1.4557495,4.7963867-3.5820312C22.5758667,10.772644,21.0633545,7.9962769,18.4180298,7.2167969z"/></svg>