<svg xmlns="http://www.w3.org/2000/svg" enable-background="new 0 0 24 24" viewBox="0 0 24 24"><path fill="#6563ff" d="M13.5,16.5h-3V15c0.0009155-0.828064,0.671936-1.4990845,1.5-1.5c0.4044189-0.0010986,0.7914429,0.1641846,1.0703125,0.4570312c0.0913086,0.0891113,0.1695557,0.1907349,0.2324219,0.3017578c0.1430054,0.2354736,0.4495239,0.3109131,0.6854248,0.1687012c0.2364502-0.1425781,0.3126221-0.4498291,0.1700439-0.6862793c-0.1061401-0.1838989-0.2372437-0.3521729-0.3896484-0.5C13.3045044,12.7636719,12.6658325,12.4960327,12,12.5c-1.380188,0.0012817-2.4987183,1.119812-2.5,2.5v1.6837158c-1.1625366,0.413269-2,1.5119629-2,2.8162842c0,1.6568604,1.3431396,3,3,3h3c1.6568604,0,3-1.3431396,3-3S15.1568604,16.5,13.5,16.5z M13.5,21.5h-3c-1.1045532,0-2-0.8954468-2-2s0.8954468-2,2-2h3c1.1045532,0,2,0.8954468,2,2S14.6045532,21.5,13.5,21.5z M18.4169922,8.2197266c-0.982605-2.2747192-3.0957031-3.8595581-5.5545654-4.1660156c-3.8323364-0.4776001-7.3262329,2.2419434-7.803833,6.0742798c-1.5925903,0.3817139-2.789978,1.6982422-3.0192871,3.3198242c-0.3084106,2.1809082,1.2095337,4.1989136,3.3903809,4.5073242c0.0236816,0.0030518,0.0474854,0.0046997,0.0712891,0.0048828c0.2489014-0.0003662,0.4595947-0.1836548,0.4944458-0.4300537C6.0340576,17.2565308,5.84375,17.00354,5.5703125,16.9649048c-1.324707-0.1870728-2.3636475-1.2318115-2.5432739-2.5575562c-0.2216187-1.635376,0.9244995-3.1407471,2.5598755-3.3623657c0.2347412-0.0315552,0.4150391-0.2236938,0.4316406-0.4599609c0.1582642-2.3183594,1.642395-4.3362427,3.8083496-5.1779785c3.085144-1.1989746,6.5581055,0.3300781,7.7570801,3.4152222c0.0602417,0.1524658,0.1911011,0.2658691,0.3505859,0.3037109c1.3197021,0.3139648,2.3893433,1.2770996,2.8394775,2.5567627c0.730896,2.0779419-0.361145,4.3549194-2.4390869,5.0858154c-0.2601318,0.0912476-0.3972168,0.3759155-0.3063965,0.6362305c0.0909424,0.2605591,0.3759155,0.3980713,0.6364746,0.3071289c1.5147705-0.5320435,2.6808472-1.7606812,3.1330566-3.3012085C22.5740356,11.7674561,21.0602417,8.9956665,18.4169922,8.2197266z"/></svg>