<svg xmlns="http://www.w3.org/2000/svg" enable-background="new 0 0 24 24" viewBox="0 0 24 24"><path fill="#6563ff" d="M12.2763672,13.078064c-0.1656494-0.1040649-0.3765259-0.1029053-0.5410156,0.0029297c-0.1210938,0.078186-2.9775391,1.9649048-2.9775391,4.7940063c0.0373535,1.7591553,1.4907227,3.1566162,3.25,3.125c1.7592773,0.0316162,3.2126465-1.3658447,3.25-3.125061C15.2578125,15.0116577,12.3984375,13.156189,12.2763672,13.078064z M12.1365356,19.9962769c-1.2426147,0.071106-2.3076172-0.8786621-2.3787231-2.1212769c0-1.8271484,1.6015625-3.2548828,2.2529297-3.7587891c0.6513672,0.4960938,2.2470703,1.9023438,2.2470703,3.7587891C14.1923828,19.0183716,13.2799072,19.9308472,12.1365356,19.9962769z M18.4257812,8.1904297C17.442749,5.9173584,15.3306885,4.3338623,12.87323,4.0274048c-3.8320923-0.4779053-7.3259888,2.2411499-7.803894,6.0732422c-1.7984009,0.4309082-3.0652466,2.0407104-3.0613403,3.8899536c0.0046387,2.2044067,1.7954102,3.9876709,3.9998169,3.9830322h0.5v-0.000061c0.276123,0,0.5-0.2238159,0.5-0.5c0-0.276123-0.223877-0.5-0.5-0.5h-0.5c-1.5006104,0.0041504-2.7721558-1.1039429-2.9732056-2.5910034c-0.2214966-1.6375122,0.9265137-3.1445312,2.5640259-3.3659668c0.2344971-0.0324097,0.4142456-0.2247314,0.4306641-0.4609375c0.1589966-2.3158569,1.6411743-4.331543,3.8042603-5.1737061c3.0840454-1.2007446,6.5575562,0.3259888,7.7582397,3.4100342c0.0599976,0.1518555,0.1900024,0.2651367,0.3486328,0.3037109c1.644104,0.3872681,2.864624,1.7701416,3.0446777,3.449585c0.234314,2.1855469-1.3474731,4.1471558-3.532959,4.3814697c-0.0010376,0.0001221-0.0021362,0.0002441-0.0031738,0.0003662c-0.2744141,0.0316162-0.4712524,0.2797241-0.4396362,0.5541382s0.2797241,0.4712524,0.5541382,0.4396362c2.0032959-0.2166748,3.6785889-1.6192017,4.2441406-3.5531616C22.5795898,11.7280273,21.0654907,8.9624023,18.4257812,8.1904297z"/></svg>