<svg xmlns="http://www.w3.org/2000/svg" enable-background="new 0 0 24 24" viewBox="0 0 24 24"><path fill="#6563ff" d="M8.5,13.9873047c-0.276123,0-0.5,0.223877-0.5,0.5v2.0005493c0.0001831,0.276001,0.223999,0.4996338,0.5,0.4994507h0.0006104c0.2759399-0.0001831,0.4995728-0.223999,0.4993896-0.5v-2C9,14.2111816,8.776123,13.9873047,8.5,13.9873047z M8.5,18.9873047c-0.276123,0-0.5,0.223877-0.5,0.5v2.0005493c0.0001831,0.276001,0.223999,0.4996338,0.5,0.4994507h0.0006104c0.2759399-0.0001831,0.4995728-0.223999,0.4993896-0.5v-2C9,19.2111816,8.776123,18.9873047,8.5,18.9873047z M12.5,17.9873047c-0.276123,0-0.5,0.223877-0.5,0.5v2.0005493c0.0001831,0.276001,0.223999,0.4996338,0.5,0.4994507h0.0006104c0.2759399-0.0001831,0.4995728-0.223999,0.4993896-0.5v-2C13,18.2111816,12.776123,17.9873047,12.5,17.9873047z M23.5,6.4873047h-1.5489502c-0.0952759-0.9494019-0.4619141-1.8659668-1.0996094-2.6453247l1.0986938-1.0979004c0.1904907-0.194397,0.1904907-0.5054932,0-0.6998901c-0.1932983-0.1971436-0.5098267-0.2003784-0.7070312-0.0070801l-1.0968628,1.0961304C19.3890381,2.5140991,18.4747314,2.1334229,17.5,2.0344849V0.4873047c0-0.276123-0.223877-0.5-0.5-0.5s-0.5,0.223877-0.5,0.5v1.5488892c-0.9996338,0.100647-1.9075928,0.4906616-2.6470337,1.0961914l-1.0957031-1.0952759c-0.1943359-0.1904907-0.5054321-0.1904907-0.6998291,0c-0.1972046,0.1932983-0.2003784,0.5098267-0.0071411,0.7070312l1.095459,1.0950928c-0.5454712,0.668335-0.9146729,1.4752808-1.0545654,2.3693237C11.579895,6.0675049,11.0471802,5.9858398,10.5,5.9873047c-2.9925537,0.0147705-5.5162964,2.2332764-5.9145508,5.1992798c-1.8074341,0.4674072-2.9159546,2.2868652-2.5024414,4.1074219c0.3936768,1.6046753,1.8460083,2.7229614,3.4980469,2.6932983h0.4873047c0.276123,0,0.5-0.223877,0.5-0.5c0-0.2761841-0.223877-0.5-0.5-0.5H5.5810547c-1.1816406,0.031311-2.2277832-0.7590332-2.5205078-1.9042969c-0.0164795-0.0713501-0.0297852-0.1433716-0.039856-0.2158813c-0.1862793-1.3422241,0.7508545-2.5812988,2.0930786-2.7675171c0.2346191-0.0322266,0.4144287-0.2246704,0.4306641-0.4609375C5.7238159,9.0299072,7.8851318,7.0012817,10.5,6.9873047c2.053894-0.0042725,3.8964844,1.2618408,4.6289062,3.1806641c0.0596313,0.1522827,0.1897583,0.2659912,0.3486328,0.3046875c1.4749756,0.3591919,2.5153809,1.6771851,2.5223999,3.1951904c0.0084229,1.8248901-1.4641113,3.3110352-3.2890015,3.319458c-0.276123,0-0.5,0.223877-0.5,0.5s0.223877,0.5,0.5,0.5h0.2226562c0.0384521-0.0001831,0.0767212-0.0044556,0.1143188-0.0126953c1.753418-0.1445923,3.2424927-1.3413086,3.7609253-3.022583c0.3427734-1.1114502,0.2073975-2.2532349-0.2804565-3.2144775c0.5934448-0.1901245,1.1397705-0.4968872,1.6237793-0.8912964l1.0910034,1.090271c0.0936279,0.0939331,0.2208252,0.1466064,0.3534546,0.1464844c0.1325684,0,0.2597046-0.0526733,0.3534546-0.1463623c0.1953125-0.1952515,0.1953125-0.5118408,0.000061-0.7071533l-1.0985718-1.0978394c0.6375732-0.7792358,1.0041504-1.6954956,1.0994873-2.6443481H23.5c0.276123,0,0.5-0.223877,0.5-0.5S23.776123,6.4873047,23.5,6.4873047z M19.8291016,9.8105469c-0.5223389,0.5247803-1.1835938,0.8798828-1.9008789,1.0487671c-0.508667-0.5837402-1.1710205-1.0460205-1.965332-1.2909546c-0.5841675-1.3529663-1.6350708-2.4072266-2.9152832-3.0118408c0.093689-0.9013672,0.477478-1.7502441,1.1242676-2.3944092c1.579834-1.5128174,4.0703735-1.5145264,5.6523438-0.0039062c0.0030518,0.0030518,0.0061035,0.0061035,0.0091553,0.0092163C21.3905029,5.7269287,21.3886108,8.253418,19.8291016,9.8105469z M12.5,12.9873047c-0.276123,0-0.5,0.223877-0.5,0.5v2.0005493c0.0001831,0.276001,0.223999,0.4996338,0.5,0.4994507h0.0006104c0.2759399-0.0001831,0.4995728-0.223999,0.4993896-0.5v-2C13,13.2111816,12.776123,12.9873047,12.5,12.9873047z"/></svg>