<svg xmlns="http://www.w3.org/2000/svg" enable-background="new 0 0 24 24" viewBox="0 0 24 24"><path fill="#6563ff" d="M22.5078125,7.4736328h-1.5374756c-0.0895996-0.7140503-0.3692627-1.3869019-0.8053589-1.9500122l1.0859375-1.0852051c0.1904907-0.194397,0.1904907-0.5054932,0-0.6998901c-0.1932983-0.1972046-0.5098267-0.2003784-0.7070312-0.0070801l-1.0898438,1.0891724c-0.3699341-0.2868042-0.7886353-0.5222168-1.2624512-0.6681519c-0.2271729-0.0699463-0.4558105-0.1088257-0.6837769-0.1373291V2.4736328c0-0.276123-0.223877-0.5-0.5-0.5s-0.5,0.223877-0.5,0.5v1.5429688c-0.7113037,0.0924072-1.381958,0.37146-1.9423218,0.8078003l-1.0928955-1.0928955c-0.194397-0.1905518-0.5054321-0.1905518-0.6998291,0c-0.1972046,0.1932373-0.2003784,0.5097656-0.0071411,0.7069702l1.0997314,1.0997314c-0.1774902,0.2302246-0.3261108,0.4839478-0.4520264,0.7556152c-0.6049805-0.2039185-1.2443848-0.3220215-1.9054565-0.3201904C8.5151367,5.9886475,5.9915771,8.2076416,5.593811,11.1738281c-1.8079834,0.4666138-2.916748,2.2868042-2.5020142,4.1074219c0.3898315,1.6021118,1.8377075,2.7202759,3.4863281,2.6923828h9.0058594c1.9911499,0.0247803,3.7503662-1.291687,4.288147-3.2089844c0.3275146-1.2519531,0.0535889-2.5136108-0.6254272-3.5092163c0.0671997-0.0455933,0.1422119-0.0802612,0.2062378-0.1296387l1.0910034,1.0910034c0.0936279,0.0939331,0.2208862,0.1466675,0.3535156,0.1464844c0.1325073,0,0.2596436-0.0526733,0.3533936-0.1463623c0.1953125-0.1952515,0.1953125-0.5118408,0.0001221-0.7070923l-1.098938-1.098938c0.295105-0.378479,0.5348511-0.8015747,0.6790771-1.2699585c0.0682983-0.2216797,0.1052856-0.4447632,0.1340332-0.6672974h1.5426636c0.276123,0,0.5-0.223877,0.5-0.5S22.7839355,7.4736328,22.5078125,7.4736328z M18.9013672,14.5244141c-0.4240112,1.4731445-1.784729,2.4777222-3.3173828,2.4492188H6.578125c-1.1782227,0.0289917-2.2198486-0.7609253-2.5097656-1.9033203c-0.0167847-0.0722656-0.0302124-0.1452637-0.0404053-0.218811c-0.1851196-1.3416748,0.7524414-2.5794067,2.0941162-2.7645874c0.2344971-0.0324097,0.4142456-0.2247314,0.4306641-0.4609375c0.1790771-2.6088257,2.3401489-4.6378784,4.9550781-4.6523438c0.6871338-0.0012817,1.345459,0.1505127,1.9515991,0.4104004c0.0078125,0.0039062,0.0130615,0.0108643,0.0211182,0.0144043c0.9019165,0.3952637,1.6583862,1.045105,2.1885986,1.857666c0.0084839,0.0132446,0.0180054,0.0257568,0.0264282,0.0391235c0.1727295,0.2702637,0.3217773,0.557373,0.4412231,0.8600464c0.0596313,0.1522827,0.1896973,0.2659912,0.3486328,0.3046875c0.0552368,0.0134277,0.1070557,0.0361328,0.1613159,0.0523682c0.1519165,0.0452881,0.2979736,0.100647,0.4382324,0.1651001c0.0638428,0.029541,0.126709,0.0606689,0.1884766,0.0941772c0.1137085,0.0614014,0.2209473,0.1310425,0.3252563,0.2042847c0.0580444,0.0408936,0.1187134,0.0776978,0.1740723,0.1223145C18.7613525,11.8930664,19.248291,13.2196045,18.9013672,14.5244141z M18.609375,10.4980469c-0.0186157-0.0171509-0.0419312-0.0278931-0.0608521-0.0446777c-0.1756592-0.1553955-0.3676147-0.2918701-0.5697021-0.4181519c-0.0587769-0.0369263-0.1117554-0.081543-0.1722412-0.1155396c-0.2614746-0.1461792-0.5383911-0.2715454-0.8358154-0.3630371c-0.5427246-1.2589111-1.4959717-2.2483521-2.6556396-2.8690186c0.4882812-1.0457764,1.538147-1.7144775,2.692688-1.7139893c1.6561279,0.0018311,2.9981689,1.3438721,3,3C20.0096436,9.0003052,19.4807739,9.9550781,18.609375,10.4980469z"/></svg>