<svg xmlns="http://www.w3.org/2000/svg" enable-background="new 0 0 24 24" viewBox="0 0 24 24"><path fill="#6563ff" d="M15.8574829,14.1434937c-0.1950073-0.1955566-0.5115967-0.1959229-0.7070923-0.0009155l-4.1533203,4.0576172l-2.1513672-2.0615234c-0.0007324-0.0006714-0.0014648-0.0014038-0.0021362-0.0020752c-0.2001343-0.1903076-0.5166626-0.182373-0.7070312,0.0177612c-0.1903076,0.2001343-0.182373,0.5166626,0.0177612,0.7069702l2.5,2.3955078C10.7471924,19.3461914,10.8711548,19.395874,11,19.3955078c0.1306763-0.0001221,0.2561035-0.0512695,0.3496094-0.1425781l4.5-4.3955078c0.0023804-0.0022583,0.0046997-0.0045166,0.007019-0.0068359C16.052124,14.6555786,16.0524902,14.3389893,15.8574829,14.1434937z M18.4169922,8.2197266c-0.982605-2.2747803-3.0957031-3.8596191-5.5546265-4.1660767c-3.8322754-0.4776001-7.3261719,2.2419434-7.803772,6.0742798C3.2614136,10.5598145,1.9959106,12.1691284,2,14.0174561C2.0048218,16.2218018,3.7956543,18.0048218,6,18h0.5C6.776123,18,7,17.776123,7,17.5S6.776123,17,6.5,17H6c-1.4986572,0.0040894-2.769104-1.1015015-2.9719238-2.5863647c-0.2236328-1.6368408,0.9219971-3.1450195,2.5588379-3.3686523c0.2347412-0.0315552,0.4150391-0.2236938,0.4316406-0.4599609c0.1582642-2.3183594,1.642395-4.3362427,3.8083496-5.1779785c3.085144-1.1989746,6.5581055,0.3300781,7.7570801,3.4152222c0.0602417,0.1524658,0.1911011,0.2658691,0.3505859,0.3037109c1.800293,0.4294434,3.0692139,2.0401611,3.0653076,3.8909912C20.9952393,15.2213745,19.2044067,17.0046387,17,17h-0.5c-0.276123,0-0.5,0.223877-0.5,0.5s0.223877,0.5,0.5,0.5H17c2.2174072,0.0037231,4.1714478-1.4557495,4.7971191-3.5830078C22.5750732,11.7722778,21.0617065,8.9976807,18.4169922,8.2197266z"/></svg>