<svg xmlns="http://www.w3.org/2000/svg" enable-background="new 0 0 24 24" viewBox="0 0 24 24"><path fill="#6563ff" d="M9.5,19C9.223877,19,9,19.223877,9,19.5v2c0,0.0001831,0,0.0003662,0,0.0005493C9.0001831,21.7765503,9.223999,22.0001831,9.5,22c0.0001831,0,0.0003662,0,0.0006104,0C9.7765503,21.9998169,10.0001831,21.776001,10,21.5v-2C10,19.223877,9.776123,19,9.5,19z M9.5,14C9.223877,14,9,14.223877,9,14.5v2c0,0.0001831,0,0.0003662,0,0.0005493C9.0001831,16.7765503,9.223999,17.0001831,9.5,17c0.0001831,0,0.0003662,0,0.0006104,0C9.7765503,16.9998169,10.0001831,16.776001,10,16.5v-2C10,14.223877,9.776123,14,9.5,14z M22.5,7.5h-1.5379028c-0.0890503-0.7144165-0.3666992-1.3886108-0.8021851-1.9528809l1.0822754-1.0823364c0.1904907-0.194397,0.1904907-0.5054932,0-0.6998901c-0.1932983-0.1972046-0.5098267-0.2003784-0.7070312-0.0070801L19.449585,4.8433838c-0.3686523-0.2871094-0.7857056-0.5235596-1.2581177-0.6708374C17.961792,4.1009521,17.7305908,4.0603027,17.5,4.0310669V2.5C17.5,2.223877,17.276123,2,17,2s-0.5,0.223877-0.5,0.5v1.531311c-0.7150879,0.0911865-1.3902588,0.3696289-1.9538574,0.8078613l-1.0813599-1.0813599c-0.1943359-0.1904907-0.5054321-0.1904907-0.6998291,0c-0.1972046,0.1932983-0.2003784,0.5098267-0.0071411,0.7070312l1.088562,1.088562c-0.1790771,0.2316895-0.3291016,0.4871826-0.4559937,0.7609863C12.789856,6.1138306,12.1555176,5.9981689,11.5,6c-2.9926147,0.0143433-5.5164185,2.2330933-5.9140015,5.1992188c-1.8077393,0.4677124-2.9163818,2.2875366-2.5029297,4.1083984C3.4769897,16.9119873,4.9292603,18.0297852,6.5810547,18h0.4873047c0.276123,0,0.5-0.223877,0.5-0.5s-0.223877-0.5-0.5-0.5H6.5810547c-1.1813965,0.0314941-2.227478-0.7584229-2.5205078-1.9033203c-0.0166016-0.0716553-0.0299683-0.144043-0.0401001-0.2169189c-0.1860352-1.3424072,0.7514038-2.5814209,2.093811-2.7674561c0.2344971-0.0324097,0.4142456-0.2247314,0.4306641-0.4609375c0.12146-1.9366455,1.3607178-3.6247559,3.171936-4.3209839c2.5579834-0.9832764,5.428772,0.2932739,6.4120483,2.8512573c0.0596313,0.1522827,0.1897583,0.2659912,0.3486328,0.3046875C17.9526978,10.8453369,18.9932861,12.1635132,19,13.6817017C19.0080566,15.5062866,17.5355225,16.9919434,15.7109375,17c-0.276123,0-0.5,0.223877-0.5,0.5s0.223877,0.5,0.5,0.5h0.2216797c0.0384521-0.0002441,0.0767212-0.0045166,0.1142578-0.0127563c1.7539673-0.1439819,3.2437134-1.3408813,3.762085-3.022644c0.3988037-1.2937012,0.1409912-2.621521-0.5601807-3.6635742c0.0679321-0.0465088,0.130188-0.0993652,0.1948853-0.1503296l1.0914917,1.0914917c0.0936279,0.0939331,0.2208862,0.1466675,0.3535156,0.1464844c0.1325073,0,0.2596436-0.0526733,0.3533936-0.1463623c0.1953125-0.1952515,0.1953125-0.5118408,0.0001221-0.7070923l-1.1079102-1.1079102c0.293396-0.3773193,0.5413208-0.7879028,0.6844482-1.2468262C20.8891602,8.9544678,20.9285278,8.7269287,20.9579468,8.5H22.5C22.776123,8.5,23,8.276123,23,8S22.776123,7.5,22.5,7.5z M19.109375,10.1230469c-0.1531982,0.1589966-0.3301392,0.289978-0.5162964,0.4071045c-0.4560547-0.418335-0.9994507-0.7537842-1.630188-0.9481812c-0.5422363-1.2567749-1.4935913-2.2446899-2.6509399-2.8654175c0.1479492-0.3068848,0.3293457-0.5963135,0.5747681-0.8356934c1.1810303-1.1409302,3.0545044-1.1383667,4.2324219,0.0058594c0.0094604,0.0093994,0.0189209,0.0188599,0.0282593,0.0283813C20.2988892,7.0875854,20.2818604,8.9715576,19.109375,10.1230469z M13.5,13c-0.276123,0-0.5,0.223877-0.5,0.5v2c0,0.0001831,0,0.0003662,0,0.0005493C13.0001831,15.7765503,13.223999,16.0001831,13.5,16c0.0001831,0,0.0003662,0,0.0006104,0C13.7765503,15.9998169,14.0001831,15.776001,14,15.5v-2C14,13.223877,13.776123,13,13.5,13z M13.5,18c-0.276123,0-0.5,0.223877-0.5,0.5v2c0,0.0001831,0,0.0003662,0,0.0005493C13.0001831,20.7765503,13.223999,21.0001831,13.5,21c0.0001831,0,0.0003662,0,0.0006104,0C13.7765503,20.9998169,14.0001831,20.776001,14,20.5v-2C14,18.223877,13.776123,18,13.5,18z"/></svg>