<svg xmlns="http://www.w3.org/2000/svg" enable-background="new 0 0 24 24" viewBox="0 0 24 24"><path fill="#6563ff" d="M19.4628906,10.5566406C18.5230713,8.3766479,16.3739014,6.9671021,14,6.9736328c-0.4852295,0.0024414-0.9506226,0.0818481-1.4041138,0.1939697c-0.7837524-1.1558228-2.0179443-1.9377441-3.4130249-2.1326294C6.4701538,4.6560669,3.9638672,6.5480347,3.585022,9.2607422c-1.4942017,0.420105-2.3968506,1.9376831-2.0527954,3.4511719c0.3275757,1.3522949,1.5482178,2.2971802,2.9394531,2.2753906h1.0704346c-0.0650635,0.4190674-0.0578613,0.8560181,0.0418701,1.2939453c0.3898315,1.6021118,1.8377075,2.7202759,3.4863281,2.6923828h9.0058594c1.9911499,0.0247803,3.7503052-1.291748,4.2880859-3.2089844C22.9484253,13.5316772,21.6690063,11.2351074,19.4628906,10.5566406z M5.8693237,13.9912109l-0.0011597-0.0039062H4.4716797c-0.9208374,0.0235596-1.7352905-0.5935059-1.9619141-1.4863892c-0.0128174-0.0552368-0.0231323-0.1110229-0.0310059-0.1671753c-0.1483765-1.0584106,0.5976562-2.0359497,1.6621094-2.1687012c0.229126-0.0285645,0.385498-0.2271729,0.401123-0.4575195C4.6837769,7.6224365,6.4100952,5.9997559,8.5,5.9873047C9.7124023,5.9907837,10.8568115,6.5478516,11.6074219,7.5c0.0018921,0.0005493,0.0039062,0.0009766,0.0057983,0.0015259c-1.857666,0.8225098-3.2423096,2.5475464-3.5272217,4.6723022C7.0771484,12.4342041,6.2994995,13.1229858,5.8693237,13.9912109z M21.3935547,15.5244141c-0.4240723,1.4731445-1.784729,2.4777222-3.3173828,2.4492188H9.0703125c-1.1782227,0.0289917-2.2198486-0.7609253-2.5097656-1.9033203c-0.0167847-0.0722656-0.0302124-0.1453247-0.0404053-0.218811c-0.1851196-1.3416748,0.7524414-2.5794067,2.0941162-2.7645874c0.2344971-0.0324097,0.4142456-0.2247314,0.4306641-0.4609375C9.223999,10.0171509,11.3850708,7.9880981,14,7.9736328c2.0540771-0.0038452,3.8966064,1.2625732,4.6289062,3.1816406c0.0596313,0.1522827,0.1897583,0.2659912,0.3486328,0.3046875c0.0230103,0.0056152,0.0460205,0.0114746,0.0689087,0.0175171C20.8120728,11.9468994,21.862915,13.7587891,21.3935547,15.5244141z"/></svg>