<svg xmlns="http://www.w3.org/2000/svg" enable-background="new 0 0 24 24" viewBox="0 0 24 24"><path fill="#6563ff" d="M21.5,20h-7c-0.0175171,0-0.0323486,0.0081787-0.0493774,0.0099487C14.2548828,19.0258789,13.4827271,18.249939,12.5,18.050415V14H16c1.9849854,0.0031738,3.7367554-1.2966309,4.3092041-3.1973267c0.7155151-2.3759155-0.6305542-4.8820801-3.0064697-5.5975952c-0.8933105-1.6999512-2.5471802-2.8687744-4.4478149-3.1434937C9.5791626,1.5881958,6.5397949,3.8599854,6.0664062,7.1357422C4.5485229,7.5540161,3.4976807,8.9356689,3.5,10.5101318C3.5028076,12.4403687,5.0698242,14.0028076,7,14h4.5v4.050415c-0.9827271,0.1995239-1.7548828,0.9754639-1.9506226,1.9595337C9.5323486,20.0081787,9.5175171,20,9.5,20h-7C2.223877,20,2,20.223877,2,20.5S2.223877,21,2.5,21h7c0.0175171,0,0.0323486-0.0081787,0.0493774-0.0099487C9.7772827,22.1359253,10.7871094,23,12,23c1.2123413-0.0010986,2.2215576-0.8647461,2.4501953-2.0100708C14.4674072,20.9916992,14.4823608,21,14.5,21h7c0.276123,0,0.5-0.223877,0.5-0.5S21.776123,20,21.5,20z M7,13c-1.2280273,0.0026245-2.2752686-0.888855-2.468811-2.1015015c-0.217041-1.3605347,0.7098389-2.6394043,2.0703735-2.8565063C6.8288574,8.0053711,7.00177,7.8182983,7.0205078,7.5888672C7.2451172,5.0022583,9.4037476,3.0130005,12,3c1.9219971,0.0079956,3.6709595,1.1120605,4.5048828,2.84375c0.0647583,0.1346436,0.1860962,0.2333984,0.3310547,0.2695312C18.4022217,6.4960327,19.5030518,7.901062,19.5,9.5134277C19.4962769,11.442688,17.9292603,13.0036621,16,13H7z M12,22c-0.8284302,0-1.5-0.6715698-1.5-1.5S11.1715698,19,12,19c0.828064,0.0009155,1.4990845,0.671936,1.5,1.5C13.5,21.3284302,12.8284302,22,12,22z"/></svg>