<svg xmlns="http://www.w3.org/2000/svg" enable-background="new 0 0 24 24" viewBox="0 0 24 24"><path fill="#6563ff" d="M15.3916016,12.5146484c-1.0794678,0.2403564-2.210083-0.0032959-3.0947266-0.6669922c-0.1762695-0.1308594-0.4174805-0.1308594-0.59375,0c-0.8851318,0.6625977-2.0152588,0.906189-3.0947266,0.6669922c-0.1483154-0.0338135-0.3039551,0.0025635-0.421875,0.0986328C8.0684814,12.7081299,7.9998779,12.8515015,8,13.0029297v3.9355469c-0.0075684,1.5006104,0.6854858,2.9188232,1.8740234,3.8349609l1.8251953,1.3759766C11.7858276,22.2148438,11.8914795,22.2501831,12,22.25c0.1085205,0.0001831,0.2141724-0.0350952,0.3007812-0.1005249l1.8251953-1.3759766C15.3145752,19.8573608,16.0075684,18.4390869,16,16.9384766v-3.9355469c0.0001221-0.1514282-0.0684814-0.2947998-0.1865234-0.3896484C15.694458,12.5194092,15.539917,12.4832764,15.3916016,12.5146484z M15,16.9384766c0.0083618,1.1867676-0.5372925,2.3094482-1.4755859,3.0361328L12,21.1240234l-1.5244141-1.1494141C9.5372925,19.2479858,8.9916382,18.1252441,9,16.9384766v-3.3525391c1.0531616,0.0936279,2.1077881-0.163147,3-0.7304688c0.8925781,0.5665283,1.9468994,0.8233032,3,0.7304688V16.9384766z M18.4169922,8.2197266c-0.982605-2.2747192-3.0957031-3.8595581-5.5545654-4.1660156c-3.8323364-0.4776001-7.3262329,2.2419434-7.803833,6.0742798c-1.5925903,0.3817139-2.789978,1.6982422-3.0192871,3.3198242c-0.3084106,2.1809082,1.2095337,4.1989136,3.3903809,4.5073242c0.0236816,0.0030518,0.0474854,0.0046997,0.0712891,0.0048828c0.2489014-0.0003662,0.4595947-0.1836548,0.4944458-0.4300537C6.0340576,17.2565308,5.84375,17.00354,5.5703125,16.9649048c-1.324707-0.1870728-2.3636475-1.2318115-2.5432739-2.5575562c-0.2216187-1.635376,0.9244995-3.1407471,2.5598755-3.3623657c0.2347412-0.0315552,0.4150391-0.2236938,0.4316406-0.4599609c0.1582642-2.3183594,1.642395-4.3362427,3.8083496-5.1779785c3.085144-1.1989746,6.5581055,0.3300781,7.7570801,3.4152222c0.0602417,0.1524658,0.1911011,0.2658691,0.3505859,0.3037109c1.3197021,0.3139648,2.3893433,1.2770996,2.8394775,2.5567627c0.730896,2.0779419-0.361145,4.3549194-2.4390869,5.0858154c-0.2601318,0.0912476-0.3972168,0.3759155-0.3063965,0.6362305c0.0909424,0.2605591,0.3759155,0.3980713,0.6364746,0.3071289c1.5147705-0.5320435,2.6808472-1.7606812,3.1330566-3.3012085C22.5740356,11.7674561,21.0602417,8.9956665,18.4169922,8.2197266z"/></svg>