<svg xmlns="http://www.w3.org/2000/svg" enable-background="new 0 0 24 24" viewBox="0 0 24 24"><path fill="#6563ff" d="M17.2630615,7.5996704c0.0043335-0.0890503,0.0187988-0.1774292,0.0181885-0.2666626c0.000061-0.0137329,0.000061-0.0274658,0-0.0411377c-0.0113525-2.9168091-2.3850708-5.2720337-5.3018188-5.2606812S6.7073975,4.4162598,6.71875,7.3330078C6.7180786,7.4274902,6.7330933,7.5211182,6.7380371,7.6154175C4.5449829,8.2963257,3.0105591,10.3096924,3,12.6395264c-0.0132446,2.9299927,2.3512573,5.315979,5.28125,5.3292236c0.2181396,0.0007935,0.434082-0.0147095,0.6479492-0.0407104c-0.2993164,1.18396-0.8284302,2.2993774-1.5844727,3.2653198c-0.0678711,0.0876465-0.1046753,0.1953125-0.1047363,0.3061523C7.2399292,21.7758789,7.4639282,21.999939,7.7402344,22h8.5195312c0.1115112-0.0001221,0.2197266-0.0375366,0.3075562-0.1062012c0.2177124-0.1702271,0.2561646-0.4846802,0.0859375-0.7023926c-0.7579346-0.9641113-1.2869873-2.0795288-1.5840454-3.2636719c0.2143555,0.026123,0.4308472,0.0418091,0.6495361,0.0410156c2.4779053-0.0112305,4.618042-1.7362061,5.1551514-4.1552124C21.4772949,11.0959473,19.8770752,8.4064941,17.2630615,7.5996704z M15.2958984,21H8.7001953c0.644165-1.015564,1.0827637-2.1438599,1.3151245-3.3218994C10.758606,17.4190674,11.4386597,16.9934692,12,16.4278564c0.5612183,0.5654907,1.2411499,0.9910889,1.9841919,1.2501221C14.2147827,18.8560181,14.6522217,19.9844971,15.2958984,21z M15.71875,16.96875c-1.2965088,0.005188-2.5234375-0.5861206-3.3271484-1.6035156c-0.0124512-0.015686-0.0300903-0.0233154-0.0439453-0.0371094c-0.0137939-0.013855-0.0214233-0.0314941-0.0371094-0.0439453c-0.0115356-0.0091553-0.0256958-0.0112305-0.0377197-0.0192261c-0.0289307-0.0192261-0.0584717-0.0333862-0.09021-0.0459595c-0.0293579-0.0117188-0.0575562-0.0220337-0.0881348-0.0279541C12.0628662,15.1848755,12.0322266,15.1837769,12,15.1837158c-0.0322266,0.000061-0.0628662,0.0011597-0.0944824,0.0073242c-0.0305786,0.0059204-0.0587769,0.0162354-0.0881348,0.0279541c-0.0317383,0.0125732-0.0612793,0.0267334-0.09021,0.0459595c-0.0120239,0.0079956-0.0261841,0.0100708-0.0377197,0.0192261c-0.015625,0.0123901-0.0233154,0.0300903-0.0370483,0.0438843c-0.013855,0.0137939-0.0315552,0.0214844-0.0440063,0.0371704C10.8046875,16.3826294,9.5777588,16.973938,8.28125,16.96875c-2.0075684-0.0113525-3.7409058-1.4086304-4.1779785-3.368103c-0.5177002-2.3208618,0.9440308-4.6220093,3.2648926-5.1397095c0.0213013-0.0046387,0.0374756-0.0181274,0.0574951-0.0252686C7.4654541,8.4215088,7.505127,8.4088135,7.5391235,8.3858032c0.020752-0.0139771,0.0354614-0.03302,0.0537109-0.0497437c0.0290527-0.0266113,0.0585327-0.0516357,0.0805054-0.0841675C7.6882324,8.2299194,7.6955566,8.2046509,7.7068481,8.180542c0.015686-0.0336304,0.0328369-0.0655518,0.0407104-0.1022949c0.0065918-0.0299683,0.003418-0.0610962,0.0042725-0.0923462c0.0007935-0.0297241,0.008728-0.0580444,0.0040283-0.0884399C7.7294312,7.7105103,7.71698,7.5218506,7.71875,7.3330078c-0.000061-0.0137939-0.000061-0.0276489,0-0.0414429c0.0114136-2.3644409,1.9375-4.2719727,4.3019409-4.260498c2.364502,0.0114136,4.2719727,1.9375,4.2605591,4.3019409c0.00177,0.1888428-0.0106812,0.3775024-0.0371094,0.5644531c-0.0036621,0.0245361-0.0055542,0.0492554-0.0055542,0.0740967c0,0.013916,0.0067749,0.0255737,0.0078735,0.0391846c0.0031738,0.039856,0.0107422,0.0767822,0.0230103,0.1140137c0.0083008,0.0253296,0.0170288,0.0490112,0.0290527,0.0723877c0.0168457,0.0328979,0.0369873,0.0617676,0.0606689,0.0901489c0.0180054,0.0217285,0.0361328,0.0414429,0.0574951,0.0598145c0.0258789,0.0222168,0.0535278,0.039978,0.0839844,0.0567017c0.0283813,0.0158081,0.0568237,0.0283813,0.0883179,0.0384521c0.0151978,0.0048218,0.0269775,0.0152588,0.0428467,0.0186768c1.9594727,0.4370728,3.3568115,2.1704102,3.368103,4.1779785C20.0133667,15.0167847,18.0966187,16.9553223,15.71875,16.96875z"/></svg>