<svg xmlns="http://www.w3.org/2000/svg" enable-background="new 0 0 24 24" viewBox="0 0 24 24"><path fill="#6563ff" d="M17,6c-1.7,0-3,1.3-3,3c0,1.4,1,2.6,2.3,2.9c-0.4,1-1.3,1.6-2.3,1.6h-4c-1,0-1.9,0.4-2.5,1.1V7.9C8.9,7.7,10,6.5,10,5c0-1.7-1.3-3-3-3S4,3.3,4,5c0,1.5,1.1,2.7,2.5,2.9v8.1C5.1,16.3,4,17.5,4,19c0,1.7,1.3,3,3,3c1.7,0,3-1.3,3-3c0-1.4-1-2.6-2.3-2.9c0.4-0.9,1.3-1.5,2.3-1.5h4c1.6,0,3-1.1,3.4-2.6c1.5-0.2,2.6-1.4,2.6-3C20,7.3,18.7,6,17,6z M5,5c0-1.1,0.9-2,2-2c1.1,0,2,0.9,2,2c0,1.1-0.9,2-2,2S5,6.1,5,5z M9,19c0,1.1-0.9,2-2,2s-2-0.9-2-2s0.9-2,2-2C8.1,17,9,17.9,9,19z M17,11c-1.1,0-2-0.9-2-2s0.9-2,2-2c1.1,0,2,0.9,2,2C19,10.1,18.1,11,17,11z"/></svg>