<svg xmlns="http://www.w3.org/2000/svg" enable-background="new 0 0 24 24" viewBox="0 0 24 24"><path fill="#6563ff" d="M21.5,21h-19C2.223877,21,2,21.223877,2,21.5S2.223877,22,2.5,22h19c0.276123,0,0.5-0.223877,0.5-0.5S21.776123,21,21.5,21z M9,18h4c2.7600708-0.0032349,4.9967651-2.2399292,5-5v-1h1c1.6568604,0,3-1.3431396,3-3s-1.3431396-3-3-3h-1V4.5c0-0.0001831,0-0.0003662,0-0.0006104C17.9998169,4.2234497,17.776001,3.9998169,17.5,4h-13C4.4998169,4,4.4996338,4,4.4993896,4C4.2234497,4.0001831,3.9998169,4.223999,4,4.5V13C4.0032349,15.7600708,6.2399292,17.9967651,9,18z M18,7h1c1.1045532,0,2,0.8954468,2,2s-0.8954468,2-2,2h-1V7z M5,5h12v1.5v5v0.0005493V13c-0.0021973,2.208252-1.791748,3.9978027-4,4H9c-2.208252-0.0021973-3.9978027-1.791748-4-4V5z"/></svg>