<svg xmlns="http://www.w3.org/2000/svg" enable-background="new 0 0 24 24" viewBox="0 0 24 24"><path fill="#6563ff" d="M21.5,14c0-0.8-0.4-1.5-1-2c0.6-0.5,1-1.2,1-2c0-1.4-1.1-2.5-2.5-2.5h-6c0,0,0,0,0,0c0.3-0.4,0.5-0.9,0.5-1.5c0-1.4-1.1-2.5-2.5-2.5H5C3.6,3.5,2.5,4.6,2.5,6c0,0.8,0.4,1.5,1,2c-0.6,0.5-1,1.2-1,2s0.4,1.5,1,2c-0.6,0.5-1,1.2-1,2s0.4,1.5,1,2c-0.6,0.5-1,1.2-1,2c0,1.4,1.1,2.5,2.5,2.5h6c0.4,0,0.7-0.1,1-0.2c0.3,0.1,0.6,0.2,1,0.2h6c1.4,0,2.5-1.1,2.5-2.5c0-0.8-0.4-1.5-1-2C21.1,15.5,21.5,14.8,21.5,14z M12.5,18.2c0,0,0,0.1,0,0.1c0,0,0,0.1,0,0.1c0,0.1,0,0.1-0.1,0.2c0,0,0,0.1,0,0.1c0,0.1-0.1,0.1-0.1,0.2c0,0,0,0,0,0c-0.1,0.1-0.1,0.1-0.2,0.2c0,0,0,0,0,0c-0.1,0.1-0.1,0.1-0.2,0.2c0,0,0,0,0,0c-0.2,0.1-0.5,0.2-0.7,0.2H5c-0.8,0-1.5-0.7-1.5-1.5s0.7-1.5,1.5-1.5h6c0.3,0,0.5,0.1,0.7,0.2c0,0,0,0,0,0c0.2,0.1,0.4,0.3,0.5,0.5c0,0,0,0,0,0.1c0,0.1,0.1,0.1,0.1,0.2c0,0,0,0.1,0,0.1c0,0,0,0.1,0,0.1c0,0.1,0,0.1,0,0.2c0,0,0,0.1,0,0.1C12.5,18.1,12.5,18.2,12.5,18.2z M12.5,14.2c0,0,0,0.1,0,0.1c0,0,0,0.1,0,0.1c0,0.1,0,0.1-0.1,0.2c0,0,0,0.1,0,0.1c0,0.1-0.1,0.1-0.1,0.2c0,0,0,0,0,0c-0.1,0.1-0.1,0.1-0.2,0.2c0,0,0,0,0,0c-0.1,0.1-0.1,0.1-0.2,0.2c0,0,0,0,0,0c-0.2,0.1-0.5,0.2-0.7,0.2H5c-0.8,0-1.5-0.7-1.5-1.5s0.7-1.5,1.5-1.5h6c0.3,0,0.5,0.1,0.7,0.2c0,0,0,0,0,0c0.2,0.1,0.4,0.3,0.5,0.5c0,0,0,0,0,0.1c0,0.1,0.1,0.1,0.1,0.2c0,0,0,0.1,0,0.1c0,0,0,0.1,0,0.1c0,0.1,0,0.1,0,0.2c0,0,0,0.1,0,0.1C12.5,14.1,12.5,14.2,12.5,14.2z M12.5,10.2c0,0,0,0.1,0,0.1c0,0,0,0.1,0,0.1c0,0.1,0,0.1-0.1,0.2c0,0,0,0.1,0,0.1c0,0.1-0.1,0.1-0.1,0.2c0,0,0,0,0,0c-0.1,0.1-0.1,0.1-0.2,0.2c0,0,0,0,0,0c-0.1,0.1-0.1,0.1-0.2,0.2c0,0,0,0,0,0c-0.2,0.1-0.5,0.2-0.7,0.2H5c-0.8,0-1.5-0.7-1.5-1.5S4.2,8.5,5,8.5h6c0.3,0,0.5,0.1,0.7,0.2c0,0,0,0,0,0C12,8.8,12.2,9,12.3,9.2c0,0,0,0,0,0.1c0,0.1,0.1,0.1,0.1,0.2c0,0,0,0.1,0,0.1c0,0,0,0.1,0,0.1c0,0.1,0,0.1,0,0.2c0,0,0,0.1,0,0.1C12.5,10.1,12.5,10.2,12.5,10.2z M11,7.5H5C4.2,7.5,3.5,6.8,3.5,6S4.2,4.5,5,4.5h6c0.8,0,1.5,0.7,1.5,1.5S11.8,7.5,11,7.5z M13.5,9.5c0-0.1,0-0.1,0-0.2c0-0.1,0-0.2-0.1-0.2c0-0.1-0.1-0.1-0.1-0.2c0-0.1-0.1-0.1-0.1-0.2c0-0.1-0.1-0.2-0.2-0.3c0,0,0,0,0,0h6c0.8,0,1.5,0.7,1.5,1.5s-0.7,1.5-1.5,1.5h-6c0,0,0,0,0,0c0.1-0.1,0.1-0.2,0.2-0.3c0-0.1,0.1-0.1,0.1-0.2c0-0.1,0.1-0.1,0.1-0.2c0-0.1,0.1-0.2,0.1-0.2c0-0.1,0-0.1,0-0.2C13.5,10.2,13.5,9.8,13.5,9.5z M20.5,18c0,0.8-0.7,1.5-1.5,1.5h-6c0,0,0,0,0,0c0.1-0.1,0.1-0.2,0.2-0.3c0-0.1,0.1-0.1,0.1-0.2c0-0.1,0.1-0.1,0.1-0.2c0-0.1,0.1-0.2,0.1-0.2c0-0.1,0-0.1,0-0.2c0.1-0.3,0.1-0.6,0-0.9c0-0.1,0-0.1,0-0.2c0-0.1,0-0.2-0.1-0.2c0-0.1-0.1-0.1-0.1-0.2c0-0.1-0.1-0.1-0.1-0.2c0-0.1-0.1-0.2-0.2-0.3c0,0,0,0,0,0h6C19.8,16.5,20.5,17.2,20.5,18z M19,15.5h-6c0,0,0,0,0,0c0.1-0.1,0.1-0.2,0.2-0.3c0-0.1,0.1-0.1,0.1-0.2c0-0.1,0.1-0.1,0.1-0.2c0-0.1,0.1-0.2,0.1-0.2c0-0.1,0-0.1,0-0.2c0.1-0.3,0.1-0.6,0-0.9c0-0.1,0-0.1,0-0.2c0-0.1,0-0.2-0.1-0.2c0-0.1-0.1-0.1-0.1-0.2c0-0.1-0.1-0.1-0.1-0.2c0-0.1-0.1-0.2-0.2-0.3c0,0,0,0,0,0h6c0.8,0,1.5,0.7,1.5,1.5S19.8,15.5,19,15.5z"/></svg>