<svg xmlns="http://www.w3.org/2000/svg" enable-background="new 0 0 24 24" viewBox="0 0 24 24"><path fill="#6563ff" d="M5,7.5C5,7.5,5,7.5,5,7.5C5,7.8,5.2,8,5.5,8c0,0,0,0,0,0C5.8,8,6,7.8,6,7.5V6h1.5C7.8,6,8,5.8,8,5.5S7.8,5,7.5,5H6V3.5C6,3.2,5.8,3,5.5,3S5,3.2,5,3.5V5H3.5C3.2,5,3,5.2,3,5.5S3.2,6,3.5,6H5V7.5z M18.5,5h-7C11.2,5,11,5.2,11,5.5S11.2,6,11.5,6h7C19.3,6,20,6.7,20,7.5v11.9l-2.4-2.2C17.5,17,17.4,17,17.2,17H7.5C6.7,17,6,16.3,6,15.5v-4C6,11.2,5.8,11,5.5,11S5,11.2,5,11.5v4C5,16.9,6.1,18,7.5,18h9.6l3.1,2.9c0.1,0.1,0.2,0.1,0.3,0.1c0.3,0,0.5-0.2,0.5-0.5v-13C21,6.1,19.9,5,18.5,5z"/></svg>