<svg xmlns="http://www.w3.org/2000/svg" enable-background="new 0 0 24 24" viewBox="0 0 24 24"><path fill="#6563ff" d="M17.4541016,11H6.5458984c-0.276123,0-0.5,0.223877-0.5,0.5s0.223877,0.5,0.5,0.5h10.9082031c0.276123,0,0.5-0.223877,0.5-0.5S17.7302246,11,17.4541016,11z M19.5,2h-15C3.119812,2.0012817,2.0012817,3.119812,2,4.5v11c0.0012817,1.380188,1.119812,2.4987183,2.5,2.5h12.7930298l3.8534546,3.8535156C21.2402344,21.9473267,21.3673706,22,21.5,22c0.276123,0,0.5-0.223877,0.5-0.5v-17C21.9987183,3.119812,20.880188,2.0012817,19.5,2z M21,20.2929688l-3.1464844-3.1464844C17.7597656,17.0526733,17.6326294,17,17.5,17h-13c-0.828064-0.0009155-1.4990845-0.671936-1.5-1.5v-11C3.0009155,3.671936,3.671936,3.0009155,4.5,3h15c0.828064,0.0009155,1.4990845,0.671936,1.5,1.5V20.2929688z M17.4541016,8H6.5458984c-0.276123,0-0.5,0.223877-0.5,0.5s0.223877,0.5,0.5,0.5h10.9082031c0.276123,0,0.5-0.223877,0.5-0.5S17.7302246,8,17.4541016,8z"/></svg>