<svg xmlns="http://www.w3.org/2000/svg" enable-background="new 0 0 24 24" viewBox="0 0 24 24"><path fill="#6563ff" d="M19.5,8H18V5c-0.0018311-1.6561279-1.3438721-2.9981689-3-3H5C3.3438721,2.0018311,2.0018311,3.3438721,2,5v12.5C2,17.776123,2.223877,18,2.5,18c0.1326294,0,0.2597656-0.0526733,0.3535156-0.1464844L5.7069702,15H8v1.5c0.0012817,1.380188,1.119812,2.4987183,2.5,2.5h7.7930298l2.8534546,2.8535156C21.2402344,21.9473267,21.3673706,22,21.5,22c0.276123,0,0.5-0.223877,0.5-0.5v-11C21.9987183,9.119812,20.880188,8.0012817,19.5,8z M8,10.5V14H5.5c-0.1326294,0-0.2597656,0.0526733-0.3535156,0.1464844L3,16.2929688V5c0.0014038-1.1040039,0.8959961-1.9985962,2-2h10c1.1040039,0.0014038,1.9985962,0.8959961,2,2v3h-6.5C9.119812,8.0012817,8.0012817,9.119812,8,10.5z M21,20.2929688l-2.1464844-2.1464844C18.7597656,18.0526733,18.6326294,18,18.5,18h-8c-0.828064-0.0009155-1.4990845-0.671936-1.5-1.5v-6C9.0009155,9.671936,9.671936,9.0009155,10.5,9h9c0.828064,0.0009155,1.4990845,0.671936,1.5,1.5V20.2929688z"/></svg>