<svg xmlns="http://www.w3.org/2000/svg" enable-background="new 0 0 24 24" viewBox="0 0 24 24"><path fill="#6563ff" d="M8.4396973,9.1467285l1.7067871,1.7067871C10.2401123,10.9474487,10.3673706,11.0001831,10.5,11c0.1325073-0.000061,0.2595825-0.0526733,0.3533325-0.1463623c0.1953125-0.1952515,0.1953735-0.5118408,0.0001221-0.7070923L9.1459351,8.4390259C10.3631592,6.8701172,10.2687988,4.612854,8.828125,3.171875c-1.5823975-1.5117188-4.0738525-1.5117188-5.65625,0L3.1704102,3.1733398C1.609314,4.7352905,1.6099243,7.2670288,3.171875,8.828125C3.920105,9.5809937,4.9385376,10.0030518,6,10C6.8916626,9.9998169,7.7423096,9.6872559,8.4396973,9.1467285z M3,5.9993286C3.0001831,4.3426514,4.3433228,2.9998169,6,3c0.7953491,0.0001221,1.5581665,0.3161011,2.1206055,0.878479c1.1717529,1.1713867,1.171936,3.0709229,0.0004883,4.2426147c-1.1871948,1.1328125-3.0549927,1.1328125-4.2421875,0C3.3161011,7.5584106,2.9998779,6.795166,3,5.9993286z M19,6h-5.5C13.223877,6,13,6.223877,13,6.5S13.223877,7,13.5,7H19c1.1040039,0.0014038,1.9985962,0.8959961,2,2v11.3583984l-2.4111328-2.2255859C18.4968872,18.0471191,18.3757324,17.9996338,18.25,18H9c-1.1040039-0.0014038-1.9985962-0.8959961-2-2v-2.5C7,13.223877,6.776123,13,6.5,13S6,13.223877,6,13.5V16c0.0018311,1.6561279,1.3438721,2.9981689,3,3h9.0546875l3.1064453,2.8671875C21.2533569,21.9525146,21.3743286,21.999939,21.5,22c0.276062-0.0002441,0.4997559-0.223938,0.5-0.5V9C21.9981689,7.3438721,20.6561279,6.0018311,19,6z"/></svg>