<svg xmlns="http://www.w3.org/2000/svg" enable-background="new 0 0 24 24" viewBox="0 0 24 24"><path fill="#6563ff" d="M19.5039062,13.0009766c-0.008728-0.0007324-0.0174561-0.0012817-0.0261841-0.0015259c-0.2687988-0.0085449-0.4935913,0.2024536-0.5021362,0.4712524C18.7271118,17.6950073,15.2315674,20.9949341,11,21H3.7069702l1.6358032-1.6357422l0.0001831-0.0001831c0.1951294-0.1952515,0.1950684-0.5117188-0.0001831-0.7068481c-1.3867188-1.3858032-2.2156982-3.2329102-2.3293457-5.1900635C2.7574463,9.0603027,6.1224365,5.2803345,10.5292969,5.024353c0.0029907-0.0001221,0.0060425-0.0003052,0.0090332-0.0004883c0.2754517-0.0186768,0.4835815-0.2571411,0.4649048-0.5325928s-0.2570801-0.4835815-0.5325317-0.4649048c-2.0301514,0.117981-3.9603882,0.9205933-5.475647,2.2768555c-3.7005005,3.3122559-4.0153198,8.9972534-0.703064,12.6977539l-2.1455078,2.1455078c-0.09375,0.09375-0.1464233,0.2208862-0.1464233,0.3534546C2,21.776062,2.223877,21.999939,2.5,22H11c4.7609253-0.0053711,8.6939697-3.7179565,8.9736328-8.4707031c0.000061-0.0006104,0.000061-0.0012207,0.0001221-0.0018921C19.9893799,13.2523193,19.7790527,13.0166016,19.5039062,13.0009766z M20.7098389,3.3480225c-0.0102539-0.012207-0.0147095-0.0272827-0.0263062-0.0386963c-0.010376-0.0101929-0.0241089-0.0136719-0.0350952-0.0227661c-1.7608643-1.7250366-4.5845337-1.7163696-6.3300781,0.0317993C13.4741211,4.1623535,12.9998779,5.3071899,13,6.5009766c0.0001221,1.234436,0.4989624,2.3513184,1.3040161,3.1641846c0.0098267,0.0107422,0.0194092,0.0205078,0.0300903,0.0303955C15.1472778,10.5011597,16.2649536,11.0001221,17.5,11c1.1941528,0.00354,2.3399658-0.4712524,3.1816406-1.3183594l0.0047607-0.0047607C22.4315186,7.9291382,22.4362183,5.1063232,20.7098389,3.3480225z M14,6.4992676C14.0001831,4.5664673,15.5671997,2.9998169,17.5,3c0.7590332,0.0001221,1.4850464,0.2579346,2.0861206,0.7068481l-4.8793335,4.8793335C14.2577515,7.9849243,13.9998779,7.258606,14,6.4992676z M19.9746094,8.9746094c-1.2608032,1.2039185-3.1740723,1.2990112-4.5528564,0.3106689l4.8706665-4.8707275C21.3170776,5.7851562,21.2200317,7.7288818,19.9746094,8.9746094z"/></svg>