<svg xmlns="http://www.w3.org/2000/svg" enable-background="new 0 0 24 24" viewBox="0 0 24 24"><path fill="#6563ff" d="M19,6h-4.5C14.223877,6,14,6.223877,14,6.5S14.223877,7,14.5,7H19c1.1040039,0.0014038,1.9985962,0.8959961,2,2v11.3583984l-2.4111328-2.2255859C18.4968872,18.0471191,18.3757324,17.9996338,18.25,18H9c-1.1040039-0.0014038-1.9985962-0.8959961-2-2v-1.5C7,14.223877,6.776123,14,6.5,14S6,14.223877,6,14.5V16c0.0018311,1.6561279,1.3438721,2.9981689,3,3h9.0546875l3.1064453,2.8671875C21.2533569,21.9525146,21.3743286,21.999939,21.5,22c0.276062-0.0002441,0.4997559-0.223938,0.5-0.5V9C21.9981689,7.3438721,20.6561279,6.0018311,19,6z M9.0800781,12H11.5c0.0001831,0,0.0003662,0,0.0006104,0C11.7765503,11.9998169,12.0001831,11.776001,12,11.5V9.0800781c0-0.1326294-0.0526733-0.2597656-0.1464844-0.3535156L7.2734375,4.1464844c-0.000061-0.000061-0.0001221-0.0001221-0.0001831-0.0001221C7.0780029,3.9511719,6.7615356,3.9512329,6.5664062,4.1464844L4.1464844,6.5664673c-0.000061,0-0.0001221,0.000061-0.0001221,0.0001221C3.9511719,6.7618408,3.9512329,7.0783081,4.1464844,7.2734375l4.5800781,4.5800781C8.8203125,11.9473267,8.9474487,12,9.0800781,12z M6.9199219,5.2069702L11,9.2871094V11H9.2871094L5.2069702,6.9199219L6.9199219,5.2069702z"/></svg>