<svg xmlns="http://www.w3.org/2000/svg" enable-background="new 0 0 24 24" viewBox="0 0 24 24"><path fill="#6563ff" d="M19.5039062,13.0009766c-0.0042114-0.0003052-0.0084229-0.0005493-0.0126953-0.0007324c-0.2722778-0.0125122-0.5031738,0.1981201-0.515625,0.470459C18.7271118,17.6950073,15.2315674,20.9949341,11,21H3.7069702l1.6358032-1.6357422l0.0001831-0.0001831c0.1951294-0.1952515,0.1950684-0.5117188-0.0001831-0.7068481C3.8428345,17.1569824,3.0001221,15.1224976,3,13.0010376C2.9996948,8.5824585,6.5814209,5.0003052,11,5c0.4734497,0.0014648,0.9457397,0.0459595,1.4111328,0.1328125c0.2718506,0.0490723,0.5319824-0.1314697,0.5810547-0.4033203s-0.1314697-0.5319824-0.4033203-0.5810547C9.8427734,3.6428223,7.0177002,4.4428101,4.944458,6.3132324c-3.6837769,3.3234863-3.9758911,9.0039673-0.6524658,12.6877441l-2.1455078,2.1455078c-0.09375,0.09375-0.1464233,0.2208862-0.1464233,0.3534546C2,21.776062,2.223877,21.999939,2.5,22H11c4.7609253-0.0053711,8.6939697-3.7179565,8.9736328-8.4707031c0.000061-0.0006104,0.000061-0.0012207,0.0001221-0.0018921C19.9893799,13.2523193,19.7790527,13.0166016,19.5039062,13.0009766z M21.3535156,4.6465454l-2.4995728-2.4995728c-0.0462036-0.0463257-0.1016235-0.0830078-0.1630249-0.1083984c-0.0580444-0.0239258-0.1194458-0.0354004-0.1812134-0.0366211C18.5062866,2.0018921,18.503418,2,18.5,2c-0.0023804,0-0.0043945,0.0012817-0.0067749,0.0013428C18.430481,2.0021973,18.3678589,2.0142212,18.30896,2.0385742c-0.0614014,0.0253906-0.1166382,0.0620728-0.1628418,0.1083984l-2.4995728,2.4995728c-0.1871948,0.1937256-0.1871948,0.5009155,0,0.6947021c0.1918335,0.1986084,0.5083618,0.2041016,0.7069702,0.0122681L18,3.7069702v5.7935791C18.0001831,9.7765503,18.223999,10.0001831,18.5,10h0.0006104C18.7765503,9.9998169,19.0001831,9.776001,19,9.5V3.7069702l1.6464844,1.6465454C20.7401123,5.4474487,20.8673706,5.5001831,21,5.5c0.1325073,0,0.2596436-0.0526733,0.3533936-0.1463623C21.5487061,5.1583862,21.5487671,4.8417969,21.3535156,4.6465454z"/></svg>