<svg xmlns="http://www.w3.org/2000/svg" enable-background="new 0 0 24 24" viewBox="0 0 24 24"><path fill="#6563ff" d="M19,6h-5.5C13.223877,6,13,6.223877,13,6.5S13.223877,7,13.5,7H19c1.1040039,0.0014038,1.9985962,0.8959961,2,2v11.3583984l-2.4111328-2.2255859C18.4968872,18.0471191,18.3757324,17.9996338,18.25,18H9c-1.1040039-0.0014038-1.9985962-0.8959961-2-2v-2.5C7,13.223877,6.776123,13,6.5,13S6,13.223877,6,13.5V16c0.0018311,1.6561279,1.3438721,2.9981689,3,3h9.0546875l3.1064453,2.8671875C21.2533569,21.9525146,21.3743286,21.999939,21.5,22c0.276062-0.0002441,0.4997559-0.223938,0.5-0.5V9C21.9981689,7.3438721,20.6561279,6.0018311,19,6z M11,8.3173828V6.6826172c-0.0012207-1.2435303-0.8518677-2.2792969-2-2.5834351V2.5C9,1.1192627,7.8807373,0,6.5,0S4,1.1192627,4,2.5v1.5991821C2.8518677,4.4033203,2.0012207,5.4390869,2,6.6826172v1.6347656C2.0014648,9.7983398,3.2016602,10.9985352,4.6826172,11h3.6347656C9.7983398,10.9985352,10.9985352,9.7983398,11,8.3173828z M5,2.5C5,1.6715698,5.6715698,1,6.5,1S8,1.6715698,8,2.5V4H5V2.5z M3,8.3173828V6.6826172C3.0010986,5.7537842,3.7537842,5.0010986,4.6826172,5h3.6347656C9.2462158,5.0010986,9.9989014,5.7537842,10,6.6826172v1.6347656C9.9989014,9.2462158,9.2462158,9.9989014,8.3173828,10H4.6826172C3.7537842,9.9989014,3.0010986,9.2462158,3,8.3173828z"/></svg>