<svg xmlns="http://www.w3.org/2000/svg" enable-background="new 0 0 24 24" viewBox="0 0 24 24"><path fill="#6563ff" d="M19.5039062,13.0009766c-0.0057983-0.0004272-0.0115967-0.0007935-0.017395-0.0010376c-0.2710571-0.0110474-0.4998169,0.199707-0.5109253,0.4707642C18.7271118,17.6950073,15.2315674,20.9949341,11,21H3.7069702l1.6358032-1.6357422l0.0001831-0.0001831c0.1951294-0.1952515,0.1950684-0.5117188-0.0001831-0.7068481c-1.156189-1.1557007-1.9302979-2.6381226-2.2180176-4.2473755c-0.7770386-4.3465576,2.1166382-8.5,6.4631348-9.2770386c0.00354-0.0006104,0.0071411-0.0012207,0.0106812-0.0018921C9.869873,5.0794067,10.0480347,4.817749,9.996582,4.5464478C9.9450684,4.2751465,9.6834106,4.0969238,9.4121094,4.1484375C7.769104,4.4420776,6.2401733,5.1871338,4.99646,6.3001099C1.2946777,9.612854,0.9793091,15.2991943,4.2919922,19.0009766l-2.1455078,2.1455078c-0.09375,0.09375-0.1464233,0.2208862-0.1464233,0.3534546C2,21.776062,2.223877,21.999939,2.5,22H11c4.7609253-0.0053711,8.6939697-3.7179565,8.9736328-8.4707031c0.000061-0.0006104,0.000061-0.0012207,0.0001221-0.0018921C19.9893799,13.2523193,19.7790527,13.0166016,19.5039062,13.0009766z M19,7c-0.6351929,0-1.194519,0.3018188-1.5608521,0.7635498l-1.5298462-0.7012329C15.9624023,6.8828125,15.9997559,6.6966553,16,6.5c0-0.1407471-0.0152588-0.277832-0.0429077-0.4103394l1.5808716-0.7333984C17.9032593,5.7498779,18.4207153,6,19,6c1.1040039-0.0014038,1.9985962-0.8959961,2-2c0-1.1045532-0.8954468-2-2-2s-2,0.8954468-2,2c0,0.1646729,0.0255737,0.3223267,0.0631104,0.4754639l-1.5566406,0.722229C15.1397095,4.7738647,14.6044312,4.5,14,4.5c-1.1045532,0-2,0.8954468-2,2s0.8954468,2,2,2c0.5445557-0.0006714,1.0369263-0.2200928,1.397522-0.5733643l1.6351318,0.7494507C17.0152588,8.7821045,17,8.8890381,17,9c0,1.1045532,0.8954468,2,2,2c1.1040039-0.0014038,1.9985962-0.8959961,2-2C21,7.8954468,20.1045532,7,19,7z M19,3c0.552124,0.0003662,0.9996338,0.447876,1,1c0,0.5523071-0.4476929,1-1,1s-1-0.4476929-1-1S18.4476929,3,19,3z M14,7.5c-0.5523071,0-1-0.4476929-1-1s0.4476929-1,1-1c0.552124,0.0003662,0.9996338,0.447876,1,1C15,7.0523071,14.5523071,7.5,14,7.5z M19,10c-0.5523071,0-1-0.4476929-1-1c0-0.1361084,0.0281982-0.2654419,0.0774536-0.383728c0.0014038-0.0029907,0.0048218-0.0042114,0.0062256-0.0072021c0.0013428-0.0029907,0.0008545-0.0061646,0.0021362-0.0091553C18.2404175,8.2474976,18.5904541,8,19,8c0.552124,0.0003662,0.9996338,0.447876,1,1C20,9.5523071,19.5523071,10,19,10z"/></svg>