<svg xmlns="http://www.w3.org/2000/svg" enable-background="new 0 0 24 24" viewBox="0 0 24 24"><path fill="#6563ff" d="M7.9238281,5.026123C8.18573,5.8123169,7.7607422,6.6619263,6.9746094,6.9238281C6.3759766,7.1399536,5.9832153,7.715332,6,8.3515625v0.1489868C6.0001831,8.7765503,6.223999,9.0001831,6.5,9h0.0006104C6.7765503,8.9998169,7.0001831,8.776001,7,8.5V8.3515625C6.9887085,8.147522,7.1038818,7.9574585,7.289978,7.8730469C8.31073,7.5330811,8.9995117,6.578186,9,5.5023193C9.0006104,4.121582,7.8818359,3.00177,6.5011597,3.0011597C5.1204224,3.0004883,4.0006104,4.1192627,4,5.5C4,5.776123,4.223877,6,4.5,6S5,5.776123,5,5.5c0.0001831-0.645752,0.4135132-1.2189331,1.026123-1.4230957C6.8122559,3.8150024,7.6619263,4.2399902,7.9238281,5.026123z M6.5,10C6.223877,10,6,10.223877,6,10.5S6.223877,11,6.5,11S7,10.776123,7,10.5S6.776123,10,6.5,10z M19,6h-6.5C12.223877,6,12,6.223877,12,6.5S12.223877,7,12.5,7H19c1.1040039,0.0014038,1.9985962,0.8959961,2,2v11.3583984l-2.4111328-2.2255859C18.4968872,18.0471191,18.3757324,17.9996338,18.25,18H9c-1.1040039-0.0014038-1.9985962-0.8959961-2-2v-1.5C7,14.223877,6.776123,14,6.5,14S6,14.223877,6,14.5V16c0.0018311,1.6561279,1.3438721,2.9981689,3,3h9.0546875l3.1064453,2.8671875C21.2533569,21.9525146,21.3743286,21.999939,21.5,22c0.276062-0.0002441,0.4997559-0.223938,0.5-0.5V9C21.9981689,7.3438721,20.6561279,6.0018311,19,6z"/></svg>