<svg xmlns="http://www.w3.org/2000/svg" enable-background="new 0 0 24 24" viewBox="0 0 24 24"><path fill="#6563ff" d="M20.2910156,19.5839844C21.3929443,18.3120117,21.9996948,16.6856079,22,15.0026855c0.0005493-2.8485107-1.7034302-5.2950439-4.1455078-6.3879395c-0.255249-1.4494629-0.8902588-2.8065186-1.8671875-3.9122925C13.0628052,1.3922729,8.0085449,1.0795898,4.6983643,4.0040894S1.0755005,11.9827881,4,15.2930298l-1.8535156,1.8534546c-0.09375,0.09375-0.1464233,0.2208862-0.1464233,0.3534546C2,17.776062,2.223877,17.999939,2.5,18h6.1849365C9.8086548,20.3622437,12.2099609,21.9994507,15,22h6.5c0.1325684,0,0.2596436-0.0526733,0.3533936-0.1464233c0.1953125-0.1951904,0.1953125-0.5117798,0.0001221-0.7070923L20.2910156,19.5839844z M8.2910156,17H3.7069702l1.3428345-1.3427734l0.0001831-0.0001831c0.1951294-0.1952515,0.1950684-0.5117188-0.0001831-0.7068481c-0.8776855-0.8775024-1.5061646-1.9727173-1.8209839-3.1732178c-0.9801636-3.737854,1.2553711-7.5625,4.9931641-8.5426636c3.737854-0.9801025,7.5625,1.2554321,8.5426636,4.9932251c0,0,0.0120239,0.0094604,0.0151978,0.0119629c-0.5684204-0.1491699-1.1619263-0.2366943-1.7771606-0.2368164c-3.8652344-0.0007324-6.9992676,3.1320801-7,6.9973145c-0.0001221,0.6990356,0.1052856,1.3728638,0.2958984,2.0098267C8.2973633,17.0082397,8.2910156,17,8.2910156,17z M15,21c-3.3137207,0-6-2.6862793-6-6s2.6862793-6,6-6c1.5909424,0.0001831,3.1166992,0.6321411,4.2418213,1.756897c2.343811,2.3430176,2.3444214,6.1425171,0.0013428,8.4863281c0,0-0.000061,0.000061-0.0001221,0.0001221c-0.1951294,0.1951904-0.1950684,0.5117188,0.0001221,0.7068481L20.2930298,21H15z"/></svg>