<svg xmlns="http://www.w3.org/2000/svg" enable-background="new 0 0 24 24" viewBox="0 0 24 24"><path fill="#6563ff" d="M19.5081787,13.0058594c-0.2754517-0.0187378-0.513855,0.1893921-0.5325928,0.4648438C18.7271118,17.6950073,15.2315674,20.9949341,11,21H3.7069702l1.6362915-1.6357422c0.000061-0.000061,0.0001221-0.0001221,0.0001831-0.0001831c0.1951294-0.1952515,0.1950684-0.5117188-0.0001831-0.7068481C3.8429565,17.1569214,3.000061,15.1221313,3,13.0003662C2.9998779,8.5819702,6.581604,5.0001221,11,5c0.276123,0,0.5-0.223877,0.5-0.5S11.276123,4,11,4C8.7861938,4.0001221,6.6501465,4.8161621,5.000061,6.2919922C1.2950439,9.605957,0.9780273,15.2959595,4.2919922,19.0009766l-2.1455078,2.1455078c-0.09375,0.09375-0.1464233,0.2208862-0.1464233,0.3534546C2,21.776062,2.223877,21.999939,2.5,22H11c4.7609253-0.0053711,8.6939697-3.7179565,8.9735718-8.4707031C19.9870605,13.2571411,19.7800903,13.024292,19.5081787,13.0058594z M22,2c-0.276123,0-0.5,0.223877-0.5,0.5v1.2297974c-0.8349609-1.0643921-2.1241455-1.7210693-3.5289917-1.7200317c-2.4766846,0.0018311-4.4829102,2.0109863-4.4811401,4.4876709c0.0018311,2.4766235,2.0110474,4.4829102,4.4876709,4.4810791c1.0872803-0.0046387,2.1366577-0.3997192,2.9570312-1.1132202c0.0010376-0.0009155,0.0020752-0.00177,0.0030518-0.0026855c0.2085571-0.1815186,0.2304688-0.4977417,0.0488892-0.7062378c-0.1815186-0.2085571-0.4976807-0.2304077-0.7062378-0.0488892c-0.3338623,0.2944336-0.7210693,0.5221558-1.140686,0.6708984c-1.8137817,0.6428833-3.8053589-0.3063354-4.4482422-2.1201782s0.3063354-3.8053589,2.1201782-4.4482422C18.5081177,2.6086426,20.3453979,3.4108276,21.1038818,5H19c-0.276123,0-0.5,0.223877-0.5,0.5S18.723877,6,19,6h3c0.0001831,0,0.0003662,0,0.0006104,0C22.2765503,5.9998169,22.5001831,5.776001,22.5,5.5v-3C22.5,2.223877,22.276123,2,22,2z"/></svg>