<svg xmlns="http://www.w3.org/2000/svg" enable-background="new 0 0 24 24" viewBox="0 0 24 24"><path fill="#6563ff" d="M8.7164307,4.7153931c0.0010986-0.0004883,0.0021973-0.0010376,0.0032959-0.0015259C9.7490845,4.2427368,10.867981,3.9992676,12,4c4.4161987,0.0050659,7.9949341,3.5838013,8,8c0.0007324,1.132019-0.2427368,2.2509155-0.7138672,3.2802734c-0.1151123,0.2512207-0.0047607,0.5481567,0.24646,0.663208c0.249939,0.114563,0.5454712,0.0059204,0.6617432-0.2432861C20.7260132,14.5391235,21.0008545,13.2769775,21,12c-0.0054321-4.9683228-4.0316772-8.9945679-9-9c-1.2769775-0.0008545-2.5391235,0.2739868-3.7001953,0.8056641c-0.2512207,0.1150513-0.3616333,0.4119873-0.246582,0.663208C8.1682739,4.7200317,8.46521,4.8304443,8.7164307,4.7153931z M21.8534546,21.1465454l0.000061-0.000061l-19-19C2.6549072,1.9546509,2.3383789,1.960144,2.1465454,2.1587524c-0.1871948,0.1937866-0.1871948,0.5009766,0,0.6947021L5.300415,6.0074463C2.236084,9.416626,2.2328491,14.5870361,5.2930298,18l-2.1465454,2.1464844c-0.1952515,0.1952515-0.1951904,0.5118408,0.000061,0.7070923C3.2402954,20.9473267,3.3674316,21,3.5,21H12c2.2136841,0.0028076,4.3494263-0.8170776,5.9925537-2.300415l3.1539307,3.1539307c0.1986084,0.1918335,0.5151367,0.1864014,0.7069702-0.0122681C22.0406494,21.647522,22.0406494,21.340271,21.8534546,21.1465454z M12,20H4.7069702L6.34375,18.3632812c0.1951904-0.1951294,0.1952515-0.5115967,0.0001221-0.7068481C6.343811,17.6563721,6.34375,17.656311,6.34375,17.65625C3.3535156,14.6727905,3.2060547,9.8759766,6.0074463,6.7145386l11.2780762,11.2780151C15.8299561,19.2880859,13.9486084,20.0026245,12,20z"/></svg>