<svg xmlns="http://www.w3.org/2000/svg" enable-background="new 0 0 24 24" viewBox="0 0 24 24"><path fill="#6563ff" d="M19,2H5C3.3438721,2.0018311,2.0018311,3.3438721,2,5v10c0.0018311,1.6561279,1.3438721,2.9981689,3,3h12.2930298l3.8534546,3.8535156C21.2402344,21.9473267,21.3673706,22,21.5,22c0.276123,0,0.5-0.223877,0.5-0.5V5C21.9981689,3.3438721,20.6561279,2.0018311,19,2z M21,20.2929688l-3.1464844-3.1464844C17.7597656,17.0526733,17.6326294,17,17.5,17H5c-1.1040649-0.0012817-1.9987183-0.8959351-2-2V5c0.0012817-1.1040649,0.8959351-1.9987183,2-2h14c1.1040039,0.0014038,1.9985962,0.8959961,2,2V20.2929688z M12,9c-0.276123,0-0.5,0.223877-0.5,0.5v3c0,0.0001831,0,0.0003662,0,0.0005493C11.5001831,12.7765503,11.723999,13.0001831,12,13c0.0001831,0,0.0003662,0,0.0006104,0c0.2759399-0.0001831,0.4995728-0.223999,0.4993896-0.5v-3C12.5,9.223877,12.276123,9,12,9z M12,6.875c-0.3451538,0-0.625,0.2798462-0.625,0.625S11.6548462,8.125,12,8.125s0.625-0.2798462,0.625-0.625S12.3451538,6.875,12,6.875z"/></svg>