<svg xmlns="http://www.w3.org/2000/svg" enable-background="new 0 0 24 24" viewBox="0 0 24 24"><path fill="#6563ff" d="M19.5,6h-7C12.223877,6,12,6.223877,12,6.5S12.223877,7,12.5,7h7c0.828064,0.0009155,1.4990845,0.671936,1.5,1.5v11.8583984l-2.4111328-2.2255859C18.4968872,18.0471191,18.3757324,17.9996338,18.25,18H8.5c-0.828064-0.0009155-1.4990845-0.671936-1.5-1.5v-3C7,13.223877,6.776123,13,6.5,13S6,13.223877,6,13.5v3c0.0012817,1.380188,1.119812,2.4987183,2.5,2.5h9.5546875l3.1064453,2.8671875C21.2533569,21.9525146,21.3743286,21.999939,21.5,22c0.276062-0.0002441,0.4997559-0.223938,0.5-0.5v-13C21.9987183,7.119812,20.880188,6.0012817,19.5,6z M6,10.5c0,0.0001831,0,0.0003662,0,0.0005493C6.0001831,10.7765503,6.223999,11.0001831,6.5,11c0.0001831,0,0.0003662,0,0.0006104,0C6.7765503,10.9998169,7.0001831,10.776001,7,10.5V3.7069702l2.1464844,2.1465454C9.2401123,5.9474487,9.3673706,6.0001831,9.5,6c0.1325073,0,0.2596436-0.0526733,0.3533936-0.1463623c0.1953125-0.1952515,0.1953735-0.5118408,0.0001221-0.7070923L6.8539429,2.1469727C6.8077393,2.100647,6.7523193,2.0639648,6.690918,2.0385742C6.6328735,2.0146484,6.5714722,2.0031738,6.5097046,2.0019531C6.5062866,2.0018921,6.503418,2,6.5,2C6.4976196,2,6.4956055,2.0012817,6.4932251,2.0013428C6.430481,2.0021973,6.3678589,2.0142212,6.30896,2.0385742C6.2475586,2.0639648,6.1923218,2.100647,6.1461182,2.1469727L3.1465454,5.1465454c-0.1871948,0.1937256-0.1871948,0.5009155,0,0.6947021C3.3383789,6.039856,3.6549072,6.0453491,3.8535156,5.8535156L6,3.7069702V10.5z"/></svg>