<svg xmlns="http://www.w3.org/2000/svg" enable-background="new 0 0 24 24" viewBox="0 0 24 24"><path fill="#6563ff" d="M19,2H5C3.3438721,2.0018311,2.0018311,3.3438721,2,5v10c0.0018311,1.6561279,1.3438721,2.9981689,3,3h12.2930298l3.8534546,3.8535156C21.2402344,21.9473267,21.3673706,22,21.5,22c0.276123,0,0.5-0.223877,0.5-0.5V5C21.9981689,3.3438721,20.6561279,2.0018311,19,2z M5,3h14c1.1040039,0.0014038,1.9985962,0.8959961,2,2v5.8789062l-3.2324219-3.2324219c-0.9768677-0.9746094-2.5582886-0.9746094-3.5351562,0L11,10.8789062L9.7675781,9.6464844c-0.9768677-0.9746094-2.5582886-0.9746094-3.5351562,0L3,12.8789062V5C3.0014038,3.8959961,3.8959961,3.0014038,5,3z M3,15v-0.7069702l3.9394531-3.9395142c0.5864258-0.5839844,1.534668-0.5839844,2.1210938,0l1.2324219,1.2324219l-5.402832,5.402832C3.8383179,16.9293213,3.0013428,16.0663452,3,15z M21,20.2929688l-3.1464844-3.1464844C17.7597656,17.0526733,17.6326294,17,17.5,17H6.2930298l8.6464233-8.6464844c0.5935669-0.5664062,1.5275269-0.5664062,2.1210938,0L21,12.2929688V20.2929688z"/></svg>