<svg xmlns="http://www.w3.org/2000/svg" enable-background="new 0 0 24 24" viewBox="0 0 24 24"><path fill="#6563ff" d="M19.2705078,11.0078125c-0.2716675,0.0493164-0.4521484,0.3092651-0.4033203,0.5810547C18.9540405,12.0542603,18.9985352,12.5265503,19,13c-0.0050659,4.4161987-3.5838013,7.9949341-8,8H3.7069702l1.6358032-1.6357422l0.0001831-0.0001831c0.1951294-0.1952515,0.1950684-0.5117188-0.0001831-0.7068481C3.8428345,17.1569824,3.0001221,15.1224976,3,13.0010376C2.9996948,8.5824585,6.5814209,5.0003052,11,5c0.4734497,0.0014648,0.9457397,0.0459595,1.4111328,0.1328125c0.2711182,0.0457153,0.5291138-0.1333618,0.5810547-0.4033203c0.0487671-0.2717896-0.1316528-0.5317383-0.4033203-0.5810547C9.8427734,3.6428223,7.0177002,4.4428101,4.944458,6.3132324c-3.6837769,3.3234863-3.9758911,9.0039673-0.6524658,12.6877441l-2.1455078,2.1455078c-0.09375,0.09375-0.1464233,0.2208862-0.1464233,0.3534546C2,21.776062,2.223877,21.999939,2.5,22H11c4.9683228-0.0054321,8.9945679-4.0316772,9-9c-0.0018311-0.53302-0.0515747-1.0647583-0.1484985-1.5888672C19.7993164,11.1413574,19.5415039,10.9623413,19.2705078,11.0078125z M20.8535156,5.5664062l-2.4199829-2.4199219c0-0.000061-0.000061-0.0001221-0.0001221-0.0001831c-0.1952515-0.1951294-0.5117188-0.1950684-0.7068481,0.0001831l-4.5800781,4.5800781C13.0526733,7.8203125,13,7.9474487,13,8.0800781v2.4204712C13.0001831,10.7765503,13.223999,11.0001831,13.5,11h2.4199219c0.1326294,0,0.2597656-0.0526733,0.3535156-0.1464844l4.5800781-4.5800781c0-0.000061,0.000061-0.0001221,0.0001221-0.0001831C21.0487671,6.0780029,21.0487061,5.7615356,20.8535156,5.5664062z M15.7128906,10H14V8.2871094l4.0800781-4.0801392l1.7129517,1.7129517L15.7128906,10z"/></svg>