<svg xmlns="http://www.w3.org/2000/svg" enable-background="new 0 0 24 24" viewBox="0 0 24 24"><path fill="#6563ff" d="M8,13c-0.276123,0-0.5,0.223877-0.5,0.5v2c0,0.0001831,0,0.0003662,0,0.0005493C7.5001831,15.7765503,7.723999,16.0001831,8,16c0.0001831,0,0.0003662,0,0.0006104,0C8.2765503,15.9998169,8.5001831,15.776001,8.5,15.5v-2C8.5,13.223877,8.276123,13,8,13z M12,10c-0.276123,0-0.5,0.223877-0.5,0.5v5c0,0.0001831,0,0.0003662,0,0.0005493C11.5001831,15.7765503,11.723999,16.0001831,12,16c0.0001831,0,0.0003662,0,0.0006104,0c0.2759399-0.0001831,0.4995728-0.223999,0.4993896-0.5v-5C12.5,10.223877,12.276123,10,12,10z M19.4152832,5.2902832c-3.7055054-4.09552-10.02948-4.4117432-14.125-0.7062988c-4.09552,3.7055054-4.4117432,10.02948-0.7062988,14.125l-2.4375,2.4375c-0.09375,0.09375-0.1464233,0.2208862-0.1464233,0.3534546C2,21.776062,2.223877,21.999939,2.5,22H12c2.4794312-0.000061,4.8704224-0.9212646,6.7089844-2.5847168C22.8045654,15.7097778,23.1207275,9.3858032,19.4152832,5.2902832z M12,21H3.7069702l1.928772-1.9287109c0.000061-0.000061,0.0001221-0.0001221,0.0001221-0.0001831c0.1951904-0.1952515,0.1951294-0.5117188-0.0001221-0.7068481C3.9483643,16.6768799,3.0002441,14.3883667,3,12.0020142c-0.0005493-4.9700317,4.0279541-8.9994507,8.9979858-9c4.9699707-0.0005493,8.9994507,4.0279541,9,8.9979858C20.9985352,16.9699707,16.9700317,20.9994507,12,21z M16,8c-0.276123,0-0.5,0.223877-0.5,0.5v7c0,0.0001831,0,0.0003662,0,0.0005493C15.5001831,15.7765503,15.723999,16.0001831,16,16c0.0001831,0,0.0003662,0,0.0006104,0c0.2759399-0.0001831,0.4995728-0.223999,0.4993896-0.5v-7C16.5,8.223877,16.276123,8,16,8z"/></svg>