<svg xmlns="http://www.w3.org/2000/svg" enable-background="new 0 0 24 24" viewBox="0 0 24 24"><path fill="#6563ff" d="M19.4152832,5.2902832c-3.7055054-4.09552-10.02948-4.4117432-14.125-0.7062988c-3.0327759,2.7439575-3.9871826,6.9224854-2.7767334,10.5700073c0.0048218,0.0153198,0.0070801,0.0305786,0.0134277,0.0454712c0.425354,1.2615356,1.1068115,2.4592896,2.0570068,3.5095215l-2.4375,2.4375c-0.09375,0.09375-0.1464233,0.2208862-0.1464233,0.3534546C2,21.776062,2.223877,21.999939,2.5,22H12c2.4794312-0.000061,4.8704224-0.9212646,6.7089844-2.5847168C22.8045654,15.7097778,23.1207275,9.3858032,19.4152832,5.2902832z M3.571167,15.1270142l2.194458-2.1856079c0.5874023-0.5744019,1.5264893-0.5730591,2.1123047,0.0029297l1.234375,1.2275391l-3.8131714,3.8206787C4.5432129,17.1472168,3.960144,16.1757202,3.571167,15.1270142z M12,21H3.7069702l1.6465454-1.6464844l0.000061-0.000061l8.4121094-8.4121094c0.5871582-0.5736694,1.5252075-0.5727539,2.1113281,0.0020142l4.4556274,4.4462891C18.9937744,18.6785889,15.7700806,20.9995728,12,21z M16.5859375,10.2382812c-0.9828491-0.9536743-2.5454102-0.9545288-3.5292969-0.0019531l-3.2325439,3.2325439l-1.2381592-1.2305908c-0.9828491-0.9536743-2.5454102-0.9545288-3.5292969-0.0019531L3.2440186,14.041626C3.0891113,13.3773193,3.000061,12.6951294,3,12.0020142c-0.0005493-4.9700317,4.0279541-8.9994507,8.9979858-9c4.9699707-0.0005493,8.9994507,4.0279541,9,8.9979858c0.000061,0.8062134-0.1158447,1.5836182-0.3146362,2.3271484L16.5859375,10.2382812z"/></svg>