<svg xmlns="http://www.w3.org/2000/svg" enable-background="new 0 0 24 24" viewBox="0 0 24 24"><path fill="#6563ff" d="M16.0585327,6.6464844l-5.6464233,5.6464844L7.9414062,9.8232422C7.9390259,9.8208618,7.9366455,9.8184814,7.9342041,9.8161011C7.7369995,9.6228638,7.4204712,9.6260376,7.2272339,9.8232422c-0.1932983,0.1972656-0.1900635,0.5137939,0.0071411,0.7070312l2.8242188,2.8232422C10.1522217,13.4474487,10.27948,13.5001831,10.4121094,13.5c0.1326294,0.0001221,0.2598267-0.0525513,0.3534546-0.1464844l6-6c0.1904907-0.194397,0.1904907-0.5054932,0-0.6998901C16.5722656,6.4564209,16.2557373,6.4532471,16.0585327,6.6464844z M19,2H5C3.3438721,2.0018311,2.0018311,3.3438721,2,5v10c0.0018311,1.6561279,1.3438721,2.9981689,3,3h12.2930298l3.8534546,3.8535156C21.2402344,21.9473267,21.3673706,22,21.5,22c0.276123,0,0.5-0.223877,0.5-0.5V5C21.9981689,3.3438721,20.6561279,2.0018311,19,2z M21,20.2929688l-3.1464844-3.1464844C17.7597656,17.0526733,17.6326294,17,17.5,17H5c-1.1040039-0.0014038-1.9985962-0.8959961-2-2V5c0.0014038-1.1040039,0.8959961-1.9985962,2-2h14c1.1040039,0.0014038,1.9985962,0.8959961,2,2V20.2929688z"/></svg>