<svg xmlns="http://www.w3.org/2000/svg" enable-background="new 0 0 24 24" viewBox="0 0 24 24"><path fill="#6563ff" d="M13.1536255,8.2666016c-0.1972046,0.1932983-0.2003784,0.5098267-0.0071411,0.7070312l1.9199219,1.9198608c0.0936279,0.0939331,0.2208862,0.1466675,0.3535156,0.1464844c0.1326294,0.0001831,0.2598267-0.0525513,0.3534546-0.1464844l4.0800781-4.0800781c0.1905518-0.194397,0.1905518-0.5054932,0-0.6998901c-0.1932373-0.1972046-0.5097656-0.2003784-0.7069702-0.0070801l-3.7265625,3.7265625l-1.5664673-1.5664062C13.6591187,8.0761108,13.3480225,8.0761108,13.1536255,8.2666016z M19.6025391,10.3534546c-0.0809326-0.2637329-0.3602905-0.4119263-0.6240234-0.3309937c-0.2637329,0.0808716-0.4119873,0.3602905-0.3310547,0.6240234C18.8807373,11.4063721,18.9995728,12.1967163,19,12.9915771C19.0023193,17.4121704,15.4205933,20.9976807,11,21H3.7069702l1.6358032-1.6357422c0.000061-0.000061,0.0001221-0.0001221,0.0001831-0.0001831c0.1951294-0.1952515,0.1950684-0.5117188-0.0001831-0.7068481c-2.3538208-2.3535767-3.0037842-5.9189453-1.631897-8.9517212c1.8204346-4.0244141,6.5586548-5.8110962,10.5830688-3.9906616c0.0003662,0.0001831,0.0007324,0.0003052,0.0010986,0.0004883c0.2514648,0.1135254,0.5473633,0.0016479,0.6608276-0.2498169c0.1135254-0.2514648,0.0016479-0.5473633-0.2498169-0.6608276c-3.2509766-1.4761353-7.0673218-0.8896484-9.7250366,1.4946289c-3.6977539,3.3171997-4.0062256,9.0039673-0.6890259,12.7016602l-2.1455078,2.1455078c-0.09375,0.09375-0.1464233,0.2208862-0.1464233,0.3534546C2,21.776062,2.223877,21.999939,2.5,22H11c0.8962402-0.0001221,1.7874146-0.1340942,2.644043-0.3974609C18.395813,20.1416016,21.0634766,15.1052246,19.6025391,10.3534546z"/></svg>