<svg xmlns="http://www.w3.org/2000/svg" enable-background="new 0 0 24 24" viewBox="0 0 24 24"><path fill="#6563ff" d="M6.5,9c0.1326294,0.0001221,0.2598267-0.0525513,0.3534546-0.1464844l6-6c0.1871338-0.1937866,0.1871338-0.5009766,0-0.6947021c-0.1918335-0.1986084-0.5083618-0.2041626-0.7069702-0.0123291L6.5,7.7930298L3.8534546,5.1465454c-0.1937256-0.1871338-0.5009155-0.1871338-0.6947021,0C2.960144,5.3383789,2.9546509,5.6549072,3.1464844,5.8535156l3,3C6.2401123,8.9474487,6.3673706,9.0001831,6.5,9z M19.5,6h-6C13.223877,6,13,6.223877,13,6.5S13.223877,7,13.5,7h6c0.828064,0.0009155,1.4990845,0.671936,1.5,1.5v11.8583984l-2.4111328-2.2255859C18.4968872,18.0471191,18.3757324,17.9996338,18.25,18H8.5c-0.828064-0.0009155-1.4990845-0.671936-1.5-1.5v-4C7,12.223877,6.776123,12,6.5,12S6,12.223877,6,12.5v4c0.0012817,1.380188,1.119812,2.4987183,2.5,2.5h9.5546875l3.1064453,2.8671875C21.2533569,21.9525146,21.3743286,21.999939,21.5,22c0.276062-0.0002441,0.4997559-0.223938,0.5-0.5v-13C21.9987183,7.119812,20.880188,6.0012817,19.5,6z"/></svg>