<svg xmlns="http://www.w3.org/2000/svg" enable-background="new 0 0 24 24" viewBox="0 0 24 24"><path fill="#6563ff" d="M19.2702026,15.0238037c-0.2635498-0.0825806-0.5441284,0.064209-0.626709,0.3277588C17.5047607,18.7507935,14.3074341,21.0308228,10.7226562,21h-7.015686l1.6358032-1.6357422l0.0001831-0.0001831c0.1951294-0.1952515,0.1950073-0.5117188-0.0001831-0.7068481c-2.53125-2.5550537-3.0935059-6.4650879-1.3847656-9.6298828c0.6715698-1.3612061,1.7820435-2.456543,3.1523438-3.109375c1.3547974-0.6604004,2.8551636-0.9658203,4.3603516-0.8876953c0.0067749,0.0005493,0.0136108,0.0009155,0.0203857,0.0012207c0.2703247,0.0101929,0.4977417-0.2006226,0.5079346-0.4709473c0-0.0002441,0-0.0004883,0.000061-0.0006714c0.0159302-0.2754517-0.1943359-0.5116577-0.4697876-0.5276489c-1.6743164-0.09198-3.3442993,0.246582-4.8505859,0.9833984C5.1056519,5.7664795,3.8308716,7.0247192,3.0595703,8.5878906c-1.8093262,3.3870239-1.3179321,7.5424805,1.2314453,10.4141235l-2.1445312,2.1444702c-0.09375,0.09375-0.1464233,0.2208862-0.1464233,0.3534546C2,21.776062,2.223877,21.999939,2.5,22h8.2226562c4.0219727,0.0284424,7.6049805-2.5355835,8.8759155-6.3515625C19.6798096,15.3853149,19.532959,15.1060791,19.2702026,15.0238037z M19,6.0508423V4.5C19,3.1192627,17.8807373,2,16.5,2S14,3.1192627,14,4.5v1.5508423C12.8594971,6.2832642,12.0010986,7.2910767,12,8.5v2c0.0012817,1.380188,1.119812,2.4987183,2.5,2.5h4c1.380188-0.0012817,2.4987183-1.119812,2.5-2.5v-2C20.9989014,7.2910767,20.1405029,6.2832642,19,6.0508423z M15,4.5C15,3.6715698,15.6715698,3,16.5,3S18,3.6715698,18,4.5V6h-3V4.5z M20,10.5c-0.0009155,0.828064-0.671936,1.4990845-1.5,1.5h-4c-0.828064-0.0009155-1.4990845-0.671936-1.5-1.5v-2c0.0009155-0.828064,0.671936-1.4990845,1.5-1.5h4c0.828064,0.0009155,1.4990845,0.671936,1.5,1.5V10.5z"/></svg>