<svg xmlns="http://www.w3.org/2000/svg" enable-background="new 0 0 24 24" viewBox="0 0 24 24"><path fill="#6563ff" d="M19.5,6h-5C14.223877,6,14,6.223877,14,6.5S14.223877,7,14.5,7h5c0.828064,0.0009155,1.4990845,0.671936,1.5,1.5v11.8583984l-2.4111328-2.2255859C18.4968872,18.0471191,18.3757324,17.9996338,18.25,18H8.5c-0.828064-0.0009155-1.4990845-0.671936-1.5-1.5v-2C7,14.223877,6.776123,14,6.5,14S6,14.223877,6,14.5v2c0.0012817,1.380188,1.119812,2.4987183,2.5,2.5h9.5546875l3.1064453,2.8671875C21.2533569,21.9525146,21.3743286,21.999939,21.5,22c0.276062-0.0002441,0.4997559-0.223938,0.5-0.5v-13C21.9987183,7.119812,20.880188,6.0012817,19.5,6z M9.6816406,9.6816406l0.0053711-0.0053711c1.7457886-1.7487793,1.7496948-4.5736084,0.0205688-6.331543C9.6980591,3.3336182,9.6941528,3.3197021,9.6835327,3.3092651C9.6741333,3.3000488,9.6616821,3.296936,9.6517944,3.2886353C7.8909912,1.5606689,5.0647583,1.5689697,3.3183594,3.3183594C2.4741211,4.1623535,1.9998779,5.3071899,2,6.5009766c0.0001221,1.2346191,0.4990234,2.3516846,1.3042603,3.1646118c0.0096436,0.010498,0.019104,0.0200195,0.029541,0.0297241C4.1469727,10.5010986,5.2647705,11.0001221,6.5,11C7.6941528,11.00354,8.8399658,10.5287476,9.6816406,9.6816406z M3,6.4992676C3.0001831,4.5664673,4.5671997,2.9998169,6.5,3c0.7590332,0.0001221,1.4850464,0.2579346,2.0861206,0.7068481L3.7067871,8.5861816C3.2577515,7.9849243,2.9998779,7.258606,3,6.4992676z M9.2924194,4.4145508c1.0246582,1.3706055,0.9276123,3.3143311-0.3178101,4.5600586c-1.2608032,1.2039185-3.1740723,1.2990112-4.5528564,0.3106689L9.2924194,4.4145508z"/></svg>