<svg xmlns="http://www.w3.org/2000/svg" enable-background="new 0 0 24 24" viewBox="0 0 24 24"><path fill="#6563ff" d="M17.5,9.875c-0.3451538,0-0.625,0.2798462-0.625,0.625s0.2798462,0.625,0.625,0.625s0.625-0.2798462,0.625-0.625S17.8451538,9.875,17.5,9.875z M15.5,6C15.776123,6,16,5.776123,16,5.5c0.0001831-0.645752,0.4135132-1.2189331,1.026123-1.4230957c0.7861328-0.2619019,1.6358032,0.1630859,1.8977051,0.9492188c0.2619019,0.7861938-0.1630859,1.6358032-0.9492188,1.8977051C17.3759766,7.1399536,16.9832153,7.715332,17,8.3515625V8.5c0,0.0001831,0,0.0003662,0,0.0005493C17.0001831,8.7765503,17.223999,9.0001831,17.5,9c0.0001831,0,0.0003662,0,0.0006104,0C17.7765503,8.9998169,18.0001831,8.776001,18,8.5V8.3515625c-0.0112915-0.2040405,0.1038818-0.394104,0.289978-0.4785156C19.31073,7.5330811,19.9995117,6.578186,20,5.5023193c0.0006104-1.3807373-1.1181641-2.5005493-2.4988403-2.5011597C16.1204224,3.0004883,15.0006104,4.1192627,15,5.5C15,5.776123,15.223877,6,15.5,6z M19.5081787,13.0058594c-0.2754517-0.0187378-0.513855,0.1893921-0.5325928,0.4648438C18.7271118,17.6950073,15.2315674,20.9949341,11,21H3.7069702l1.6358032-1.6357422c0.000061-0.000061,0.0001221-0.0001221,0.0001831-0.0001831c0.1951294-0.1952515,0.1950684-0.5117188-0.0001831-0.7068481C3.8428345,17.1569824,3.0001221,15.1224976,3,13.0010376C2.9996948,8.5824585,6.5814209,5.0003052,11,5c0.1113281,0,0.2207031,0.0078125,0.3310547,0.015625l0.1396484,0.0087891c0.0041504,0.0003052,0.0083008,0.0005493,0.0123901,0.0007324c0.2723999,0.0125732,0.5033569-0.1980591,0.5159302-0.470459c0-0.0002441,0-0.0004883,0.000061-0.0006714c0.0159302-0.2754517-0.1943359-0.5116577-0.4697876-0.5276489l-0.1298828-0.0087891C11.2666016,4.0087891,11.1347656,4,11,4C8.7861938,4.0001221,6.6501465,4.8161621,5.000061,6.2919922C1.2950439,9.605957,0.9780273,15.2959595,4.2919922,19.0009766l-2.1455078,2.1455078c-0.09375,0.09375-0.1464233,0.2208862-0.1464233,0.3534546C2,21.776062,2.223877,21.999939,2.5,22H11c4.7609253-0.0053711,8.6939697-3.7179565,8.9735718-8.4707031C19.9870605,13.2571411,19.7800903,13.024292,19.5081787,13.0058594z"/></svg>