<svg xmlns="http://www.w3.org/2000/svg" enable-background="new 0 0 24 24" viewBox="0 0 24 24"><path fill="#6563ff" d="M19.5039062,13.0009766C19.4970093,13.0004272,19.4901123,13,19.4832153,12.9997559c-0.2702026-0.0101318-0.4974976,0.2007446-0.5076294,0.4709473C18.7271118,17.6950073,15.2315674,20.9949341,11,21H3.7069702l1.6358032-1.6357422l0.0001831-0.0001831c0.1951294-0.1952515,0.1950684-0.5117188-0.0001831-0.7068481C3.8375854,17.1600952,2.9939575,15.1229858,3,13c0.0004272-0.7948608,0.1192017-1.5852051,0.3525391-2.3450928c1.2974854-4.2258911,5.7750244-6.5998535,10.0009155-5.3023682c0.2637329,0.0809326,0.5431519-0.0673218,0.6240845-0.3310547c0.0808716-0.2637329-0.0673218-0.5430908-0.3310547-0.6240234c-3.0145874-0.9268799-6.2944336-0.208313-8.6453247,1.894165c-3.7054443,3.3137817-4.0229492,9.0039673-0.7091675,12.7093506l-2.1455078,2.1455078c-0.09375,0.09375-0.1464233,0.2208862-0.1464233,0.3534546C2,21.776062,2.223877,21.999939,2.5,22H11c4.7609253-0.0053711,8.6939697-3.7179565,8.9736328-8.4707031c0.000061-0.0006104,0.000061-0.0012207,0.0001221-0.0018921C19.9893799,13.2523193,19.7790527,13.0166016,19.5039062,13.0009766z M21.3534546,6.6587524c-0.1918335-0.1986084-0.5083618-0.2041016-0.7069702-0.0122681L19,8.2930298V2.5C19,2.223877,18.776123,2,18.5,2S18,2.223877,18,2.5v5.7930298l-1.6465454-1.6464844c-0.1937256-0.1871948-0.5009155-0.1871948-0.6947021,0c-0.1986084,0.1918335-0.2041016,0.5083618-0.0122681,0.7069702l2.4995728,2.4995728c0.0458984,0.0459595,0.1005859,0.0828247,0.161377,0.1082153C18.3678589,9.9865112,18.4332275,10.0001221,18.5,10h0.0006104c0.0106201,0,0.0195312-0.0053711,0.0299683-0.0060425c0.0558472-0.003479,0.1112671-0.0115356,0.1621704-0.0328369c0.0610352-0.0255127,0.1159058-0.062561,0.1618652-0.1087646l2.4988403-2.4988403C21.5406494,7.159729,21.5406494,6.8525391,21.3534546,6.6587524z"/></svg>