<svg xmlns="http://www.w3.org/2000/svg" enable-background="new 0 0 24 24" viewBox="0 0 24 24"><path fill="#6563ff" d="M8.5,9.5h7C15.776123,9.5,16,9.276123,16,9s-0.223877-0.5-0.5-0.5h-7C8.223877,8.5,8,8.723877,8,9S8.223877,9.5,8.5,9.5z M15.5,14.5h-7C8.223877,14.5,8,14.723877,8,15s0.223877,0.5,0.5,0.5h7c0.276123,0,0.5-0.223877,0.5-0.5S15.776123,14.5,15.5,14.5z M17.5,11.5h-11C6.223877,11.5,6,11.723877,6,12s0.223877,0.5,0.5,0.5h11c0.276123,0,0.5-0.223877,0.5-0.5S17.776123,11.5,17.5,11.5z M19.4152832,5.2902832c-3.7055054-4.09552-10.02948-4.4117432-14.125-0.7062988c-4.09552,3.7055054-4.4117432,10.02948-0.7062988,14.125l-2.4375,2.4375c-0.09375,0.09375-0.1464233,0.2208862-0.1464233,0.3534546C2,21.776062,2.223877,21.999939,2.5,22H12c2.4794312-0.000061,4.8704224-0.9212646,6.7089844-2.5847168C22.8045654,15.7097778,23.1207275,9.3858032,19.4152832,5.2902832z M12,21H3.7069702l1.928772-1.9287109c0.000061-0.000061,0.0001221-0.0001221,0.0001221-0.0001831c0.1951904-0.1952515,0.1951294-0.5117188-0.0001221-0.7068481C3.9483643,16.6768799,3.0002441,14.3883667,3,12.0020142c-0.0005493-4.9700317,4.0279541-8.9994507,8.9979858-9c4.9699707-0.0005493,8.9994507,4.0279541,9,8.9979858C20.9985352,16.9699707,16.9700317,20.9994507,12,21z"/></svg>