<svg xmlns="http://www.w3.org/2000/svg" enable-background="new 0 0 24 24" viewBox="0 0 24 24"><path fill="#6563ff" d="M15.6464844,9.2060547l-5.0869141,5.0869751l-2.2061157-2.2060547c-0.0040283-0.0041504-0.0081177-0.0082397-0.0122681-0.0122681c-0.1986084-0.1918335-0.5151367-0.1863403-0.7069702,0.0122681c-0.1918335,0.1986694-0.1863403,0.5151978,0.0122681,0.7070312l2.5595703,2.5595093c0.0936279,0.0939331,0.2208862,0.1466675,0.3535156,0.1464844c0.1326294,0.0001221,0.2598267-0.0525513,0.3534546-0.1464844l5.4404297-5.4404297c0.1871948-0.1937866,0.1871948-0.5009766,0-0.6947632C16.1616211,9.0197144,15.8450928,9.0142212,15.6464844,9.2060547z M19.4152832,5.2902832c-3.7055054-4.09552-10.02948-4.4117432-14.125-0.7062988c-4.09552,3.7055054-4.4117432,10.02948-0.7062988,14.125l-2.4375,2.4375c-0.09375,0.09375-0.1464233,0.2208862-0.1464233,0.3534546C2,21.776062,2.223877,21.999939,2.5,22H12c2.4794312-0.000061,4.8704224-0.9212646,6.7089844-2.5847168C22.8045654,15.7097778,23.1207275,9.3858032,19.4152832,5.2902832z M12,21H3.7069702l1.928772-1.9287109c0.000061-0.000061,0.0001221-0.0001221,0.0001221-0.0001831c0.1951904-0.1952515,0.1951294-0.5117188-0.0001221-0.7068481C3.9483643,16.6768799,3.0002441,14.3883667,3,12.0020142c-0.0005493-4.9700317,4.0279541-8.9994507,8.9979858-9c4.9699707-0.0005493,8.9994507,4.0279541,9,8.9979858C20.9985352,16.9699707,16.9700317,20.9994507,12,21z"/></svg>