<svg xmlns="http://www.w3.org/2000/svg" enable-background="new 0 0 24 24" viewBox="0 0 24 24"><path fill="#6563ff" d="M19,6h-4.5C14.223877,6,14,6.223877,14,6.5S14.223877,7,14.5,7H19c1.1040039,0.0014038,1.9985962,0.8959961,2,2v11.3583984l-2.4111328-2.2255859C18.4968872,18.0471191,18.3757324,17.9996338,18.25,18H9c-1.1040039-0.0014038-1.9985962-0.8959961-2-2v-1.5C7,14.223877,6.776123,14,6.5,14S6,14.223877,6,14.5V16c0.0018311,1.6561279,1.3438721,2.9981689,3,3h9.0546875l3.1064453,2.8671875C21.2533569,21.9525146,21.3743286,21.999939,21.5,22c0.276062-0.0002441,0.4997559-0.223938,0.5-0.5V9C21.9981689,7.3438721,20.6561279,6.0018311,19,6z M10.7479858,9.5c0.0018311-0.0026855,0.0036621-0.0053711,0.0054321-0.0081177c0.1509399-0.2312622,0.0858154-0.5410767-0.1454468-0.6919556C10.37677,8.6489868,10.0669556,8.7140503,9.9160156,8.9453125C9.2688599,9.9181519,8.1772461,10.5019531,7.0087891,10.5c-1.1688843-0.0058594-2.2597046-0.5874634-2.9160156-1.5546875C3.7038574,8.3713379,3.4972534,7.6932983,3.5,7c0.0065308-1.7805176,1.3442383-3.2745972,3.1132202-3.4771729C8.328186,3.3264771,9.8890991,4.4031982,10.3693848,6H8C7.723877,6,7.5,6.223877,7.5,6.5S7.723877,7,8,7h3.0006104C11.2765503,6.9998169,11.5001831,6.776001,11.5,6.5v-3C11.5,3.223877,11.276123,3,11,3s-0.5,0.223877-0.5,0.5v0.6806641C9.0522461,2.3969727,6.4727173,1.9564209,4.5211182,3.2546387c-2.072876,1.3789673-2.635437,4.1773071-1.2564697,6.2502441C4.1069336,10.7470703,5.5079346,11.4936523,7.0087891,11.5C8.5116577,11.5023193,9.9157104,10.7513428,10.7479858,9.5z"/></svg>