<svg xmlns="http://www.w3.org/2000/svg" enable-background="new 0 0 24 24" viewBox="0 0 24 24"><path fill="#6563ff" d="M19.4152832,5.2902832c-3.7055054-4.09552-10.02948-4.4117432-14.125-0.7062988c-4.09552,3.7055054-4.4117432,10.02948-0.7062988,14.125l-2.4375,2.4375c-0.09375,0.09375-0.1464233,0.2208862-0.1464233,0.3534546C2,21.776062,2.223877,21.999939,2.5,22H12c2.4794312-0.000061,4.8704224-0.9212646,6.7089844-2.5847168C22.8045654,15.7097778,23.1207275,9.3858032,19.4152832,5.2902832z M12,21H3.7069702l1.928772-1.9287109c0.000061-0.000061,0.0001221-0.0001221,0.0001221-0.0001831c0.1951904-0.1952515,0.1951294-0.5117188-0.0001221-0.7068481C3.9483643,16.6768799,3.0002441,14.3883667,3,12.0020142c-0.0005493-4.9700317,4.0279541-8.9994507,8.9979858-9c4.9699707-0.0005493,8.9994507,4.0279541,9,8.9979858C20.9985352,16.9699707,16.9700317,20.9994507,12,21z M12,8.4960938C10.8687134,7.6854858,9.3169556,7.8127441,8.3328857,8.796875c-1.1104736,1.1105347-1.1104126,2.9110107,0.0001221,4.0214844l3.3134766,3.3134766C11.7401123,16.225769,11.8673706,16.2785034,12,16.2783203c0.1326294,0.0001831,0.2598877-0.0525513,0.3535156-0.1464844l3.3134766-3.3134766c0.9841309-0.9840698,1.1113892-2.5358276,0.3007812-3.6670532C15.0530396,7.8746948,13.2766113,7.5813599,12,8.4960938z M14.960022,12.1113281L12,15.0713501l-2.960022-2.960022c-0.3463135-0.3460083-0.5407715-0.8155518-0.5404053-1.3051147c0.0007935-1.0177002,0.826416-1.8421631,1.8441772-1.8413696c0.4887085-0.0007935,0.9575806,0.1931763,1.3027954,0.5390625c0.000061,0.000061,0.0001221,0.0001221,0.0001221,0.0001221c0.1952515,0.1951904,0.5117188,0.1951294,0.7069092-0.0001221c0.7195435-0.7172241,1.8838501-0.717041,2.6031494,0.0004883C15.6775513,10.2233887,15.6789551,11.390564,14.960022,12.1113281z"/></svg>