<svg xmlns="http://www.w3.org/2000/svg" enable-background="new 0 0 24 24" viewBox="0 0 24 24"><path fill="#6563ff" d="M21.9894409,3.0268555c-0.0565796-0.2703857-0.3215942-0.4437256-0.59198-0.387207c-0.9066162,0.1902466-1.8515015-0.0023193-2.6113281-0.5322266c-0.1721802-0.1191406-0.4000854-0.1191406-0.5722656,0c-0.7597656,0.5299683-1.7047119,0.7225952-2.6113281,0.5322266c-0.0335693-0.007019-0.067749-0.0105591-0.1020508-0.0105591C15.2242432,2.6289062,15.0001831,2.8526611,15,3.1289062v3.1591797c0.0009155,1.2915039,0.6245117,2.5033569,1.6748047,3.2549438l1.5341797,1.0966187c0.085083,0.0602417,0.1867676,0.0926514,0.2910156,0.0927734c0.104248-0.0001221,0.2059326-0.0325317,0.2910156-0.0927734l1.5332031-1.0966187C21.3751221,8.7918701,21.9991455,7.579834,22,6.2880859V3.1289062C22,3.0946045,21.99646,3.0604248,21.9894409,3.0268555z M21,6.2880859c-0.0006714,0.9686279-0.468689,1.8773804-1.2568359,2.4404297L18.5,9.6181641l-1.2441406-0.8896484C16.4683228,8.1650391,16.0007324,7.2564697,16,6.2880859V3.7021484c0.8739014,0.0606689,1.7456665-0.1453857,2.5-0.5908203c0.7541504,0.4459229,1.6260376,0.6519775,2.5,0.5908203V6.2880859z M19.5081787,13.0058594c-0.2754517-0.0187378-0.513855,0.1893921-0.5325928,0.4648438C18.7271118,17.6950073,15.2315674,20.9949341,11,21H3.7069702l1.6358032-1.6357422c0.000061-0.000061,0.0001221-0.0001221,0.0001831-0.0001831c0.1951294-0.1952515,0.1950684-0.5117188-0.0001831-0.7068481C3.8428345,17.1569824,3.0001221,15.1224976,3,13.0010376C2.9996948,8.5824585,6.5814209,5.0003052,11,5c0.4734497,0.0014648,0.9457397,0.0459595,1.4111328,0.1328125c0.2718506,0.0490723,0.5319824-0.1314697,0.5810547-0.4033203s-0.1314697-0.5319824-0.4033203-0.5810547C9.8427734,3.6428223,7.0177002,4.4428101,4.944458,6.3132324c-3.6837769,3.3234863-3.9758911,9.0039673-0.6524658,12.6877441l-2.1455078,2.1455078c-0.09375,0.09375-0.1464233,0.2208862-0.1464233,0.3534546C2,21.776062,2.223877,21.999939,2.5,22H11c4.7609253-0.0053711,8.6939697-3.7179565,8.9735718-8.4707031C19.9870605,13.2571411,19.7800903,13.024292,19.5081787,13.0058594z"/></svg>