<svg xmlns="http://www.w3.org/2000/svg" enable-background="new 0 0 24 24" viewBox="0 0 24 24"><path fill="#6563ff" d="M19,6h-6.5C12.223877,6,12,6.223877,12,6.5S12.223877,7,12.5,7H19c1.1040039,0.0014038,1.9985962,0.8959961,2,2v11.3583984l-2.4111328-2.2255859C18.4968872,18.0471191,18.3757324,17.9996338,18.25,18H9c-1.1040039-0.0014038-1.9985962-0.8959961-2-2v-2.5C7,13.223877,6.776123,13,6.5,13S6,13.223877,6,13.5V16c0.0018311,1.6561279,1.3438721,2.9981689,3,3h9.0546875l3.1064453,2.8671875C21.2533569,21.9525146,21.3743286,21.999939,21.5,22c0.276062-0.0002441,0.4997559-0.223938,0.5-0.5V9C21.9981689,7.3438721,20.6561279,6.0018311,19,6z M6.5,10.9960938c0.1027832,0.000061,0.203064-0.0316772,0.2871094-0.0908203l1.5644531-1.0966797C9.3806763,9.090332,9.9956665,7.9160767,10,6.6611328V3.0996094c0.000061-0.0340576-0.003418-0.0679932-0.0102539-0.1013184c-0.055603-0.2704468-0.3199463-0.444519-0.590332-0.388916c-0.9066772,0.19104-1.8520508,0.0025635-2.6162109-0.5214844c-0.1705933-0.1171875-0.395813-0.1171875-0.5664062,0C5.4528198,2.6123047,4.5072632,2.8007812,3.6005859,2.609375C3.4532471,2.5804443,3.3007202,2.617981,3.1835938,2.7119141C3.0672607,2.8070068,2.9998779,2.9493408,3,3.0996094v3.5615234C3.0043335,7.9160767,3.6193237,9.090332,4.6484375,9.8085938l1.5644531,1.0966797C6.296936,10.9644165,6.3972168,10.9961548,6.5,10.9960938z M4,6.6611328V3.671875c0.8728638,0.0628052,1.7443237-0.1397095,2.5-0.5810547C7.2559814,3.5313721,8.1271973,3.7338867,9,3.671875v2.9892578C8.9958496,7.59021,8.5396729,8.4591675,7.7773438,8.9902344L6.5,9.8857422L5.2226562,8.9902344C4.4603271,8.4591675,4.0041504,7.59021,4,6.6611328z"/></svg>