<svg xmlns="http://www.w3.org/2000/svg" enable-background="new 0 0 24 24" viewBox="0 0 24 24"><path fill="#6563ff" d="M6.3074341,10.9613037C6.3678589,10.9865112,6.4332275,11.0001221,6.5,11h0.0006104c0.0115356,0,0.0212402-0.0057983,0.0325928-0.0065918c0.0548706-0.0037231,0.109375-0.0113525,0.1594238-0.0322876c0.0611572-0.0255127,0.1161499-0.0626221,0.1621094-0.1089478l2.9987183-2.9987183c0.1871948-0.1937256,0.1871948-0.5009155,0-0.6947021C9.6616211,6.960144,9.3450928,6.9546509,9.1464844,7.1464844L7,9.2930298V2.5C7,2.223877,6.776123,2,6.5,2S6,2.223877,6,2.5v6.7930298L3.8534546,7.1465454c-0.1937256-0.1871338-0.5009155-0.1871338-0.6947021,0C2.960144,7.3383789,2.9546509,7.6549072,3.1464844,7.8535156l2.9995728,2.9995728C6.1919556,10.8990479,6.2466431,10.9359131,6.3074341,10.9613037z M19.5,6h-7C12.223877,6,12,6.223877,12,6.5S12.223877,7,12.5,7h7c0.828064,0.0009155,1.4990845,0.671936,1.5,1.5v11.8583984l-2.4111328-2.2255859C18.4968872,18.0471191,18.3757324,17.9996338,18.25,18H8.5c-0.828064-0.0009155-1.4990845-0.671936-1.5-1.5v-3C7,13.223877,6.776123,13,6.5,13S6,13.223877,6,13.5v3c0.0014648,1.380127,1.119873,2.4985352,2.5,2.5h9.5546875l3.1064453,2.8671875C21.2533569,21.9525146,21.3743286,21.999939,21.5,22c0.276062-0.0002441,0.4997559-0.223938,0.5-0.5v-13C21.9987183,7.119812,20.880188,6.0012817,19.5,6z"/></svg>