<svg xmlns="http://www.w3.org/2000/svg" enable-background="new 0 0 24 24" viewBox="0 0 24 24"><path fill="#6563ff" d="M19.5195312,13.0009766c-0.0101318-0.0009155-0.0203247-0.0015259-0.0305176-0.00177c-0.2676392-0.0072632-0.4905396,0.2037964-0.4978027,0.4714966C18.7383423,17.6990967,15.2359619,20.9990845,11,21H3.7069702L5.34375,19.3632202c0.000061,0,0.0001221-0.000061,0.0001221-0.0001221C5.5390625,19.1678467,5.5390015,18.8513794,5.34375,18.65625c-1.1566162-1.1557007-1.9310913-2.6382446-2.2189331-4.2477417c-0.7772217-4.3461304,2.1159668-8.4994507,6.4620972-9.2766724c0.2718506-0.0479736,0.4532471-0.307251,0.4052734-0.5791016s-0.307251-0.4532471-0.5791016-0.4052734C7.7689819,4.440979,6.2390747,5.1864624,4.994751,6.3004761C1.2941284,9.6135254,0.9799194,15.2993164,4.2930298,19l-2.1465454,2.1464844c-0.09375,0.09375-0.1464233,0.2208862-0.1464233,0.3534546C2,21.776062,2.223877,21.999939,2.5,22H11c4.7653198-0.0012207,8.7052002-3.7138062,8.9892578-8.4707031c0.000061-0.0006104,0.000061-0.0011597,0.0001221-0.00177C20.0050049,13.2523804,19.7946777,13.0166626,19.5195312,13.0009766z M20.8603516,10.1533203l-1.6835938-1.7520142c1.1858521-1.5673218,1.0803223-3.8002319-0.3486328-5.2294312c-1.5823975-1.5117188-4.0738525-1.5117188-5.65625,0l-0.0014648,0.0014648c-1.5610962,1.5619507-1.5604858,4.093689,0.0014648,5.6547852C13.920105,9.5809937,14.9385376,10.0030518,16,10c0.9078369-0.0001831,1.7729492-0.3244629,2.4768066-0.883728l1.6628418,1.7304077C20.2339478,10.9446411,20.3640137,11,20.5,11c0.1292725,0,0.25354-0.0500488,0.3467407-0.1397095C21.0457153,10.6688232,21.0518188,10.3522949,20.8603516,10.1533203z M18.1210938,8.1210938c-1.1871948,1.1328125-3.0549927,1.1328125-4.2421875,0C13.3161011,7.5584106,12.9998779,6.795166,13,5.9993286C13.0001831,4.3426514,14.3433228,2.9998169,16,3c0.7953491,0.0001221,1.5581665,0.3161011,2.1206055,0.878479C19.2923584,5.0498657,19.2925415,6.9494019,18.1210938,8.1210938z"/></svg>