<svg xmlns="http://www.w3.org/2000/svg" enable-background="new 0 0 24 24" viewBox="0 0 24 24"><path fill="#6563ff" d="M6.5,5C6.223877,5,6,5.223877,6,5.5v4c0,0.0001831,0,0.0003662,0,0.0005493C6.0001831,9.7765503,6.223999,10.0001831,6.5,10c0.0001831,0,0.0003662,0,0.0006104,0C6.7765503,9.9998169,7.0001831,9.776001,7,9.5v-4C7,5.223877,6.776123,5,6.5,5z M6.5,4.125c0.3451538,0,0.625-0.2798462,0.625-0.625S6.8451538,2.875,6.5,2.875S5.875,3.1548462,5.875,3.5S6.1548462,4.125,6.5,4.125z M19,6H9.5C9.223877,6,9,6.223877,9,6.5S9.223877,7,9.5,7H19c1.1040039,0.0014038,1.9985962,0.8959961,2,2v11.3583984l-2.4111328-2.2255859C18.4968872,18.0471191,18.3757324,17.9996338,18.25,18H9c-1.1040039-0.0014038-1.9985962-0.8959961-2-2v-3.5C7,12.223877,6.776123,12,6.5,12S6,12.223877,6,12.5V16c0.0018311,1.6561279,1.3438721,2.9981689,3,3h9.0546875l3.1064453,2.8671875C21.2533569,21.9525146,21.3743286,21.999939,21.5,22c0.276062-0.0002441,0.4997559-0.223938,0.5-0.5V9C21.9981689,7.3438721,20.6561279,6.0018311,19,6z"/></svg>