<svg xmlns="http://www.w3.org/2000/svg" enable-background="new 0 0 24 24" viewBox="0 0 24 24"><path fill="#6563ff" d="M7,9c0,1.1045532,0.8954468,2,2,2c1.1040039-0.0014038,1.9985962-0.8959961,2-2c0-1.1045532-0.8954468-2-2-2C8.3648071,7,7.805481,7.3018188,7.4391479,7.7635498L5.9093018,7.0623169C5.9624023,6.8828125,5.9997559,6.6966553,6,6.5c0-0.1407471-0.0152588-0.277832-0.0429077-0.4103394l1.5809326-0.7333984C7.9032593,5.7498779,8.4207153,6,9,6c1.1040039-0.0014038,1.9985962-0.8959961,2-2c0-1.1045532-0.8954468-2-2-2S7,2.8954468,7,4c0,0.1646729,0.0255737,0.3223877,0.0631104,0.4755249l-1.5566406,0.722168C5.1397095,4.7738647,4.6044312,4.5,4,4.5c-1.1045532,0-2,0.8954468-2,2s0.8954468,2,2,2c0.5445557-0.0006714,1.0369263-0.2200928,1.397522-0.5733643l1.6351318,0.7494507C7.0152588,8.7821045,7,8.8890381,7,9z M8.0774536,8.616272c0.0014038-0.0029907,0.0048218-0.0042114,0.0062256-0.0072021C8.085022,8.6060791,8.0845337,8.6029053,8.0858154,8.5999146C8.2404785,8.2474976,8.5904541,8,9,8c0.552124,0.0003662,0.9996338,0.447876,1,1c0,0.5523071-0.4476929,1-1,1S8,9.5523071,8,9C8,8.8638916,8.0281982,8.7345581,8.0774536,8.616272z M9,3c0.552124,0.0003662,0.9996338,0.447876,1,1c0,0.5523071-0.4476929,1-1,1S8,4.5523071,8,4S8.4476929,3,9,3z M4,7.5c-0.5523071,0-1-0.4476929-1-1s0.4476929-1,1-1c0.552124,0.0003662,0.9996338,0.447876,1,1C5,7.0523071,4.5523071,7.5,4,7.5z M19,6h-5.5C13.223877,6,13,6.223877,13,6.5S13.223877,7,13.5,7H19c1.1040039,0.0014038,1.9985962,0.8959961,2,2v11.3583984l-2.4111328-2.2255859C18.4968872,18.0471191,18.3757324,17.9996338,18.25,18H9c-1.1040039-0.0014038-1.9985962-0.8959961-2-2v-2.5C7,13.223877,6.776123,13,6.5,13S6,13.223877,6,13.5V16c0.0018311,1.6561279,1.3438721,2.9981689,3,3h9.0546875l3.1064453,2.8671875C21.2533569,21.9525146,21.3743286,21.999939,21.5,22c0.276062-0.0002441,0.4997559-0.223938,0.5-0.5V9C21.9981689,7.3438721,20.6561279,6.0018311,19,6z"/></svg>