<svg xmlns="http://www.w3.org/2000/svg" enable-background="new 0 0 24 24" viewBox="0 0 24 24"><path fill="#6563ff" d="M19.5,2h-15C3.119812,2.0012817,2.0012817,3.119812,2,4.5v11c0.0012817,1.380188,1.119812,2.4987183,2.5,2.5h12.7930298l3.8534546,3.8535156C21.2402344,21.9473267,21.3673706,22,21.5,22c0.276123,0,0.5-0.223877,0.5-0.5v-17C21.9987183,3.119812,20.880188,2.0012817,19.5,2z M21,20.2929688l-3.1464844-3.1464844C17.7597656,17.0526733,17.6326294,17,17.5,17h-13c-0.828064-0.0009155-1.4990845-0.671936-1.5-1.5v-11C3.0009155,3.671936,3.671936,3.0009155,4.5,3h15c0.828064,0.0009155,1.4990845,0.671936,1.5,1.5V20.2929688z M15,9.5h-2.5V7c0-0.276123-0.223877-0.5-0.5-0.5S11.5,6.723877,11.5,7v2.5H9c-0.276123,0-0.5,0.223877-0.5,0.5s0.223877,0.5,0.5,0.5h2.5v2.5005493C11.5001831,13.2765503,11.723999,13.5001831,12,13.5h0.0006104C12.2765503,13.4998169,12.5001831,13.276001,12.5,13v-2.5H15c0.276123,0,0.5-0.223877,0.5-0.5S15.276123,9.5,15,9.5z"/></svg>