<svg xmlns="http://www.w3.org/2000/svg" enable-background="new 0 0 24 24" viewBox="0 0 24 24"><path fill="#6563ff" d="M15.8027344,7.539978L10.203064,9.9404297c-0.117981,0.0506592-0.2120361,0.1446533-0.2626953,0.2626953L7.539978,15.8027344c-0.0265503,0.0621338-0.0402222,0.1289673-0.0402832,0.1964722C7.4995728,16.2756348,7.7235718,16.4998779,8,16.5c0.067749-0.0002441,0.1347656-0.013855,0.1972656-0.039978l5.5996094-2.4005127c0.118042-0.0505981,0.2120361-0.1446533,0.2626953-0.2626953l2.4003906-5.5996094c0.0536499-0.1256104,0.0536499-0.2677002,0-0.3933105C16.3513184,7.5494995,16.0570679,7.4313965,15.8027344,7.539978z M13.21875,13.21875l-4.2666016,1.8291016L10.78125,10.78125l4.2666016-1.8291016L13.21875,13.21875z M12,2C6.4771729,2,2,6.4771729,2,12s4.4771729,10,10,10c5.5201416-0.0064697,9.9935303-4.4798584,10-10C22,6.4771729,17.5228271,2,12,2z M12.5,20.9747925V19.5c0-0.276123-0.223877-0.5-0.5-0.5s-0.5,0.223877-0.5,0.5v1.4747925C6.9299316,20.7229614,3.2770386,17.0700684,3.0252075,12.5H4.5C4.776123,12.5,5,12.276123,5,12s-0.223877-0.5-0.5-0.5H3.0252075C3.2770386,6.9299316,6.9299316,3.2770386,11.5,3.0252075v1.4754028C11.5001831,4.7765503,11.723999,5.0001831,12,5h0.0006104C12.2765503,4.9998169,12.5001831,4.776001,12.5,4.5V3.0257568C17.067688,3.2821655,20.7178345,6.932312,20.9742432,11.5H19.5c-0.276123,0-0.5,0.223877-0.5,0.5s0.223877,0.5,0.5,0.5h1.4747925C20.7229614,17.0700684,17.0700684,20.7229614,12.5,20.9747925z"/></svg>