<svg xmlns="http://www.w3.org/2000/svg" enable-background="new 0 0 24 24" viewBox="0 0 24 24"><path fill="#6563ff" d="M15.3535156,16.1465454l-3-3c-0.000061-0.000061-0.000061-0.0001221-0.0001221-0.0001831c-0.1952515-0.1951294-0.5117188-0.1950684-0.7068481,0.0001831l-3,3c-0.1871948,0.1937256-0.1871948,0.5009155,0,0.6947021c0.1918335,0.1986084,0.5083618,0.2041016,0.7069702,0.0122681L11.5,14.7069702V21.5c0,0.0001831,0,0.0003662,0,0.0005493C11.5001831,21.7765503,11.723999,22.0001831,12,22c0.0001831,0,0.0003662,0,0.0006104,0c0.2759399-0.0001831,0.4995728-0.223999,0.4993896-0.5v-6.7930298l2.1464844,2.1465454C14.7401123,16.9474487,14.8673706,17.0001831,15,17c0.1325073,0,0.2596436-0.0526733,0.3533936-0.1463623C15.5487061,16.6583862,15.5487671,16.3417969,15.3535156,16.1465454z M11.6464844,10.8535156C11.7401123,10.9474487,11.8673706,11.0001831,12,11c0.1326294,0.0001221,0.2598267-0.0525513,0.3534546-0.1464844l3-3c0.1871338-0.1937866,0.1871338-0.5009155,0-0.6947021c-0.1918335-0.1986084-0.5083618-0.2041626-0.7069702-0.0123291L12.5,9.2930298V2.5C12.5,2.223877,12.276123,2,12,2s-0.5,0.223877-0.5,0.5v6.7930298L9.3534546,7.1465454c-0.1937256-0.1871338-0.5009155-0.1871338-0.6947021,0C8.460144,7.3383789,8.4546509,7.6549072,8.6464844,7.8535156L11.6464844,10.8535156z"/></svg>