<svg xmlns="http://www.w3.org/2000/svg" enable-background="new 0 0 24 24" viewBox="0 0 24 24"><path fill="#6563ff" d="M10.5,6C10.223877,6,10,6.223877,10,6.5v2.7930908L2.8534546,2.1465454c-0.1937256-0.1871948-0.5009155-0.1871948-0.6947021,0C1.960144,2.3383789,1.9546509,2.6549072,2.1464844,2.8535156L9.2929688,10H6.5C6.223877,10,6,10.223877,6,10.5S6.223877,11,6.5,11h4.0006104C10.7765503,10.9998169,11.0001831,10.776001,11,10.5v-4C11,6.223877,10.776123,6,10.5,6z M21.8594971,21.1526489L14.7068481,14H17.5c0.276123,0,0.5-0.223877,0.5-0.5S17.776123,13,17.5,13h-4.0005493C13.2234497,13.0001831,12.9998169,13.223999,13,13.5v4.0005493C13.0001831,17.7765503,13.223999,18.0001831,13.5,18h0.0006104C13.7765503,17.9998169,14.0001831,17.776001,14,17.5v-2.7928467l7.1525269,7.1525269c0.1937256,0.1871338,0.5009155,0.1871338,0.6947021,0C22.0458374,21.6677856,22.0513306,21.3512573,21.8594971,21.1526489z"/></svg>