<svg xmlns="http://www.w3.org/2000/svg" enable-background="new 0 0 24 24" viewBox="0 0 24 24"><path fill="#6563ff" d="M10.5,13h-5C5.223877,13,5,13.223877,5,13.5S5.223877,14,5.5,14h3.7930908l-7.1526489,7.1526489c-0.1871338,0.1937866-0.1871338,0.5009155,0,0.6947021c0.1918335,0.1986084,0.5083618,0.2041626,0.7069702,0.0123291L10,14.7070923v3.793457C10.0001831,18.7765503,10.223999,19.0001831,10.5,19h0.0006104C10.7765503,18.9998169,11.0001831,18.776001,11,18.5v-5.0006104C10.9998169,13.2234497,10.776001,12.9998169,10.5,13z M13.5,11h5c0.276123,0,0.5-0.223877,0.5-0.5S18.776123,10,18.5,10h-3.7930908l7.1465454-7.1465454c0.1871948-0.1937256,0.1871948-0.5009155,0-0.6947021c-0.1918335-0.1986084-0.5083618-0.2041016-0.7069702-0.0122681L14,9.2929688V5.5C14,5.223877,13.776123,5,13.5,5S13,5.223877,13,5.5v5.0005493C13.0001831,10.7765503,13.223999,11.0001831,13.5,11z M10.5,5C10.223877,5,10,5.223877,10,5.5v3.7930908L2.8534546,2.1465454c-0.1937256-0.1871948-0.5009155-0.1871948-0.6947021,0C1.960144,2.3383789,1.9546509,2.6549072,2.1464844,2.8535156L9.2929688,10H5.5C5.223877,10,5,10.223877,5,10.5S5.223877,11,5.5,11h5.0006104C10.7765503,10.9998169,11.0001831,10.776001,11,10.5v-5C11,5.223877,10.776123,5,10.5,5z M21.8594971,21.1526489L14.7068481,14H18.5c0.276123,0,0.5-0.223877,0.5-0.5S18.776123,13,18.5,13h-5.0005493C13.2234497,13.0001831,12.9998169,13.223999,13,13.5v5.0005493C13.0001831,18.7765503,13.223999,19.0001831,13.5,19h0.0006104C13.7765503,18.9998169,14.0001831,18.776001,14,18.5v-3.7928467l7.1525269,7.1525269c0.1937256,0.1871338,0.5009155,0.1871338,0.6947021,0C22.0458374,21.6677856,22.0513306,21.3512573,21.8594971,21.1526489z"/></svg>