<svg xmlns="http://www.w3.org/2000/svg" enable-background="new 0 0 24 24" viewBox="0 0 24 24"><path fill="#6563ff" d="M21.8534546,21.1465454L13.7069092,13H17.5c0.276123,0,0.5-0.223877,0.5-0.5S17.776123,12,17.5,12h-4.7930908l6.1465454-6.1465454c0.1871948-0.1937256,0.1871948-0.5009155,0-0.6947021c-0.1918335-0.1986084-0.5083618-0.2041016-0.7069702-0.0122681L12,11.2929688V6.5C12,6.223877,11.776123,6,11.5,6S11,6.223877,11,6.5v3.7930908L2.8534546,2.1465454c-0.1937256-0.1871948-0.5009155-0.1871948-0.6947021,0C1.960144,2.3383789,1.9546509,2.6549072,2.1464844,2.8535156L10.2929688,11H6.5C6.223877,11,6,11.223877,6,11.5S6.223877,12,6.5,12h4.7929688l-6.1464844,6.1464844c-0.09375,0.09375-0.1464233,0.2208862-0.1464233,0.3534546C5,18.776062,5.223877,18.999939,5.5,19c0.1326294,0.0001221,0.2598267-0.0526123,0.3534546-0.1465454l6.1464844-6.1464844L12,12.7070312V17.5c0,0.0001831,0,0.0003662,0,0.0005493C12.0001831,17.7765503,12.223999,18.0001831,12.5,18c0.0001831,0,0.0003662,0,0.0006104,0C12.7765503,17.9998169,13.0001831,17.776001,13,17.5v-3.7929688l8.1464844,8.1464844C21.2401123,21.9474487,21.3673706,22.0001831,21.5,22c0.1325073-0.000061,0.2595825-0.0526733,0.3533325-0.1463623C22.048645,21.6583862,22.0487061,21.3417969,21.8534546,21.1465454z"/></svg>