<svg xmlns="http://www.w3.org/2000/svg" enable-background="new 0 0 24 24" viewBox="0 0 24 24"><path fill="#6563ff" d="M6.5,3h5v6.2930298L9.3534546,7.1465454c-0.1937256-0.1871338-0.5009155-0.1871338-0.6947021,0C8.460144,7.3383789,8.4546509,7.6549072,8.6464844,7.8535156l3,3C11.7401123,10.9474487,11.8673706,11.0001831,12,11c0.1326294,0.0001221,0.2598267-0.0525513,0.3534546-0.1464844l3-3c0.1871338-0.1937866,0.1871338-0.5009155,0-0.6947021c-0.1918335-0.1986084-0.5083618-0.2041626-0.7069702-0.0123291L12.5,9.2930298V3h5C17.776123,3,18,2.776123,18,2.5S17.776123,2,17.5,2h-11C6.223877,2,6,2.223877,6,2.5S6.223877,3,6.5,3z M17.5,21h-5v-6.2930298l2.1464844,2.1465454C14.7401123,16.9474487,14.8673706,17.0001831,15,17c0.1325073,0,0.2596436-0.0526733,0.3533936-0.1463623c0.1953125-0.1952515,0.1953735-0.5118408,0.0001221-0.7070923l-3-3c-0.000061-0.000061-0.000061-0.0001221-0.0001221-0.0001831c-0.1952515-0.1951294-0.5117188-0.1950684-0.7068481,0.0001831l-3,3c-0.1871948,0.1937256-0.1871948,0.5009155,0,0.6947021c0.1918335,0.1986084,0.5083618,0.2041016,0.7069702,0.0122681L11.5,14.7069702V21h-5C6.223877,21,6,21.223877,6,21.5S6.223877,22,6.5,22h11c0.276123,0,0.5-0.223877,0.5-0.5S17.776123,21,17.5,21z"/></svg>