<svg xmlns="http://www.w3.org/2000/svg" enable-background="new 0 0 24 24" viewBox="0 0 24 24"><path fill="#6563ff" d="M10.5,13h-4C6.223877,13,6,13.223877,6,13.5S6.223877,14,6.5,14h2.7929688l-7.1464844,7.1464844c-0.09375,0.09375-0.1464233,0.2208862-0.1464233,0.3534546C2,21.776062,2.223877,21.999939,2.5,22c0.1326294,0.0001221,0.2598267-0.0526123,0.3534546-0.1465454L10,14.7069092v2.7936401C10.0001831,17.7765503,10.223999,18.0001831,10.5,18h0.0006104C10.7765503,17.9998169,11.0001831,17.776001,11,17.5v-4.0006104C10.9998169,13.2234497,10.776001,12.9998169,10.5,13z M21.8534546,2.1587524c-0.1918335-0.1986084-0.5083618-0.2041016-0.7069702-0.0122681L14,9.2929688V6.5C14,6.223877,13.776123,6,13.5,6S13,6.223877,13,6.5v4.0005493C13.0001831,10.7765503,13.223999,11.0001831,13.5,11h4c0.276123,0,0.5-0.223877,0.5-0.5S17.776123,10,17.5,10h-2.7930908l7.1465454-7.1465454C22.0406494,2.659729,22.0406494,2.3525391,21.8534546,2.1587524z"/></svg>