<svg xmlns="http://www.w3.org/2000/svg" enable-background="new 0 0 24 24" viewBox="0 0 24 24"><path fill="#6563ff" d="M21.5,21H3v-1.3l6-6l4.1,4.1c0,0,0.1,0.1,0.2,0.1c0.1,0,0.1,0,0.2,0c0.1,0,0.2,0,0.3-0.1c0,0,0,0,0.1,0c0,0,0,0,0,0l8-8c0.2-0.2,0.2-0.5,0-0.7c-0.2-0.2-0.5-0.2-0.7,0l-7.6,7.6l-4.1-4.1c-0.1-0.1-0.2-0.1-0.3-0.1c-0.1,0-0.3,0-0.4,0.1L3,18.3v-6.6l6-6l3.1,3.1c0,0,0,0,0,0c0.2,0.2,0.5,0.2,0.7,0L18,3.7l3.1,3.1c0.2,0.2,0.5,0.2,0.7,0c0.2-0.2,0.2-0.5,0-0.7l-3.5-3.5c0,0,0,0,0,0c-0.2-0.2-0.5-0.2-0.7,0l-5.1,5.1L9.4,4.6c0,0,0,0,0,0c-0.2-0.2-0.5-0.2-0.7,0L3,10.3V2.5C3,2.2,2.8,2,2.5,2S2,2.2,2,2.5v19C2,21.8,2.2,22,2.5,22h19c0.3,0,0.5-0.2,0.5-0.5S21.8,21,21.5,21z"/></svg>