<svg xmlns="http://www.w3.org/2000/svg" enable-background="new 0 0 24 24" viewBox="0 0 24 24"><path fill="#6563ff" d="M9,8.5c-0.8284302,0-1.5,0.6715698-1.5,1.5s0.6715698,1.5,1.5,1.5c0.828064-0.0009155,1.4990845-0.671936,1.5-1.5C10.5,9.1715698,9.8284302,8.5,9,8.5z M9,10.5c-0.276123,0-0.5-0.223877-0.5-0.5S8.723877,9.5,9,9.5C9.2759399,9.5005493,9.4994507,9.7240601,9.5,10C9.5,10.276123,9.276123,10.5,9,10.5z M14.8319702,14.0292969l-4.1962891,1.5c-0.1989136,0.0710449-0.3317261,0.2594604-0.3317261,0.4706421c-0.0001221,0.276123,0.2236328,0.5,0.4997559,0.500061c0.057251-0.0002441,0.1140137-0.0101318,0.1679688-0.0292969l4.1962891-1.5c0.2599487-0.0927734,0.3954468-0.3787231,0.3026733-0.6386719C15.3779297,14.0720825,15.09198,13.9365234,14.8319702,14.0292969z M12,2C6.4771729,2,2,6.4771729,2,12s4.4771729,10,10,10c5.5201416-0.0064697,9.9935303-4.4798584,10-10C22,6.4771729,17.5228271,2,12,2z M12,21c-4.9705811,0-9-4.0294189-9-9s4.0294189-9,9-9c4.9683228,0.0054321,8.9945679,4.0316772,9,9C21,16.9705811,16.9705811,21,12,21z M15,8.5c-0.8284302,0-1.5,0.6715698-1.5,1.5s0.6715698,1.5,1.5,1.5c0.828064-0.0009155,1.4990845-0.671936,1.5-1.5C16.5,9.1715698,15.8284302,8.5,15,8.5z M15,10.5c-0.276123,0-0.5-0.223877-0.5-0.5s0.223877-0.5,0.5-0.5c0.2759399,0.0005493,0.4994507,0.2240601,0.5,0.5C15.5,10.276123,15.276123,10.5,15,10.5z"/></svg>