<svg xmlns="http://www.w3.org/2000/svg" enable-background="new 0 0 24 24" viewBox="0 0 24 24"><path fill="#6563ff" d="M16.5,21H8c-2.208252-0.0021973-3.9978027-1.791748-4-4V6.5C4,6.223877,3.776123,6,3.5,6S3,6.223877,3,6.5V17c0.0032349,2.7600708,2.2399292,4.9967651,5,5h8.5c0.276123,0,0.5-0.223877,0.5-0.5S16.776123,21,16.5,21z M20.8535156,8.1464844l-6-6C14.7597656,2.0526733,14.6326294,2,14.5,2H10C8.3438721,2.0018311,7.0018311,3.3438721,7,5v10c0.0018311,1.6561279,1.3438721,2.9981689,3,3h8c1.6561279-0.0018311,2.9981689-1.3438721,3-3V8.5C21,8.3673706,20.9473267,8.2402344,20.8535156,8.1464844z M15,3.7069702L19.2930298,8h-2.960022C15.5970459,7.9993896,15.0006104,7.4029541,15,6.6669922V3.7069702z M20,15c-0.0014038,1.1040039-0.8959961,1.9985962-2,2h-8c-1.1040039-0.0014038-1.9985962-0.8959961-2-2V5c0.0014038-1.1040039,0.8959961-1.9985962,2-2h4v3.6669922C14.0016479,7.9547729,15.0452271,8.9983521,16.3330078,9H20V15z"/></svg>