<svg xmlns="http://www.w3.org/2000/svg" enable-background="new 0 0 24 24" viewBox="0 0 24 24"><path fill="#6563ff" d="M11,8.5h2c0.828064,0.0009155,1.4990845,0.671936,1.5,1.5c0,0.276123,0.223877,0.5,0.5,0.5s0.5-0.223877,0.5-0.5c-0.0012817-1.380188-1.119812-2.4987183-2.5-2.5h-2C9.619873,7.5014648,8.5014648,8.619873,8.5,10v4c0.0014648,1.380127,1.119873,2.4985352,2.5,2.5h2c1.380188-0.0012817,2.4987183-1.119812,2.5-2.5c0-0.276123-0.223877-0.5-0.5-0.5s-0.5,0.223877-0.5,0.5c-0.0009155,0.828064-0.671936,1.4990845-1.5,1.5h-2c-0.828064-0.0009155-1.4990845-0.671936-1.5-1.5v-4C9.5009155,9.171936,10.171936,8.5009155,11,8.5z M12,2C6.4771729,2,2,6.4771729,2,12s4.4771729,10,10,10c5.5202026-0.0062866,9.9937134-4.4797974,10-10C22,6.4771729,17.5228271,2,12,2z M12,21c-4.9705811,0-9-4.0294189-9-9s4.0294189-9,9-9c4.9682617,0.0056152,8.9943848,4.0317383,9,9C21,16.9705811,16.9705811,21,12,21z"/></svg>