<svg xmlns="http://www.w3.org/2000/svg" enable-background="new 0 0 24 24" viewBox="0 0 24 24"><path fill="#6563ff" d="M20.8534546,12.6465454l-3.5-3.5c-0.1937256-0.1871948-0.5009155-0.1871948-0.6947021,0c-0.1986084,0.1918335-0.2041016,0.5083618-0.0122681,0.7069702L19.2930298,12.5H7.5C6.671936,12.4990845,6.0009155,11.828064,6,11V6.5C6,6.223877,5.776123,6,5.5,6S5,6.223877,5,6.5V11c0.0012817,1.380188,1.119812,2.4987183,2.5,2.5h11.7930298l-2.6465454,2.6464844c-0.09375,0.09375-0.1464233,0.2208862-0.1464233,0.3534546c0,0.276123,0.2238159,0.5,0.499939,0.500061c0.1326294,0.0001221,0.2598267-0.0525513,0.3534546-0.1464844l3.5-3.5c0.000061-0.000061,0.0001221-0.000061,0.0001831-0.0001221C21.0487671,13.1581421,21.0487061,12.8416748,20.8534546,12.6465454z"/></svg>