<svg xmlns="http://www.w3.org/2000/svg" enable-background="new 0 0 24 24" viewBox="0 0 24 24"><path fill="#6563ff" d="M17.5,10H5.7069702l2.6464844-2.6464844c0.1871948-0.1937866,0.1871948-0.5009766,0-0.6947021C8.1616211,6.4602051,7.8450928,6.4546509,7.6464844,6.6465454l-3.5,3.5c-0.000061,0-0.0001221,0.000061-0.0001221,0.0001221c-0.1951904,0.1951904-0.1951294,0.5117188,0.0001221,0.7068481l3.5,3.5C7.7401123,14.4474487,7.8673706,14.5001831,8,14.5c0.1325684,0,0.2597046-0.0526733,0.3533936-0.1464233c0.1953125-0.1952515,0.1953125-0.5118408,0.0001221-0.7070923L5.7069702,11H17.5c0.828064,0.0009155,1.4990845,0.671936,1.5,1.5v4.5005493c0.0001831,0.276001,0.223999,0.4996338,0.5,0.4994507h0.0006104C19.7765503,17.4998169,20.0001831,17.276001,20,17v-4.5C19.9987183,11.119812,18.880188,10.0012817,17.5,10z"/></svg>