<svg xmlns="http://www.w3.org/2000/svg" enable-background="new 0 0 24 24" viewBox="0 0 24 24"><path fill="#6563ff" d="M19.8534546,10.1465454l-3.5-3.5c-0.1937256-0.1871948-0.5009155-0.1871948-0.6947021,0c-0.1986084,0.1918335-0.2041016,0.5083618-0.0122681,0.7069702L18.2930298,10H6.5c-1.380188,0.0012817-2.4987183,1.119812-2.5,2.5V17c0,0.0001831,0,0.0003662,0,0.0005493C4.0001831,17.2765503,4.223999,17.5001831,4.5,17.5c0.0001831,0,0.0003662,0,0.0006104,0C4.7765503,17.4998169,5.0001831,17.276001,5,17v-4.5c0.0009155-0.828064,0.671936-1.4990845,1.5-1.5h11.7930298l-2.6465454,2.6464844c-0.09375,0.09375-0.1464233,0.2208862-0.1464233,0.3534546C15.5,14.276062,15.723877,14.499939,16,14.5c0.1326294,0.0001221,0.2598267-0.0525513,0.3534546-0.1464844l3.5-3.5c0.000061-0.000061,0.0001221-0.000061,0.0001831-0.0001221C20.0487671,10.6581421,20.0487061,10.3416748,19.8534546,10.1465454z"/></svg>