<svg xmlns="http://www.w3.org/2000/svg" enable-background="new 0 0 24 24" viewBox="0 0 24 24"><path fill="#6563ff" d="M9,13.5c-0.8,0-1.5,0.7-1.5,1.5s0.7,1.5,1.5,1.5c0.8,0,1.5-0.7,1.5-1.5C10.5,14.2,9.8,13.5,9,13.5z M9,15.5c-0.3,0-0.5-0.2-0.5-0.5s0.2-0.5,0.5-0.5c0.3,0,0.5,0.2,0.5,0.5C9.5,15.3,9.3,15.5,9,15.5z M14.5,11.5c-1.1,0-2,0.9-2,2s0.9,2,2,2c1.1,0,2-0.9,2-2C16.5,12.4,15.6,11.5,14.5,11.5z M14.5,14.5c-0.6,0-1-0.4-1-1s0.4-1,1-1c0.6,0,1,0.4,1,1C15.5,14.1,15.1,14.5,14.5,14.5z M22.5,11.5H21c-0.1-2.1-1-4-2.3-5.5l1.2-1.2c0.2-0.2,0.2-0.5,0-0.7c-0.2-0.2-0.5-0.2-0.7,0L18,5.3C16.5,4,14.6,3.1,12.5,3V1.5C12.5,1.2,12.3,1,12,1s-0.5,0.2-0.5,0.5V3C9.4,3.1,7.5,4,6,5.3L4.9,4.1C4.7,4,4.4,4,4.2,4.1C4,4.3,4,4.7,4.1,4.9L5.3,6C4,7.5,3.1,9.4,3,11.5H1.5C1.2,11.5,1,11.7,1,12s0.2,0.5,0.5,0.5H3c0.1,2.1,1,4,2.3,5.5l-1.2,1.2C4.1,19.2,4,19.4,4,19.5C4,19.8,4.2,20,4.5,20c0.1,0,0.3-0.1,0.4-0.1L6,18.7c1.5,1.3,3.4,2.2,5.5,2.3v1.5c0,0,0,0,0,0c0,0.3,0.2,0.5,0.5,0.5c0,0,0,0,0,0c0.3,0,0.5-0.2,0.5-0.5V21c2.1-0.1,4-1,5.5-2.3l1.2,1.2c0.1,0.1,0.2,0.1,0.4,0.1c0.1,0,0.3-0.1,0.4-0.1c0.2-0.2,0.2-0.5,0-0.7L18.7,18c1.3-1.5,2.2-3.4,2.3-5.5h1.5c0.3,0,0.5-0.2,0.5-0.5S22.8,11.5,22.5,11.5z M18,17.3l-0.1-0.1c-0.2-0.2-0.5-0.2-0.7,0c-0.2,0.2-0.2,0.5,0,0.7l0.1,0.1c-1.3,1.1-3,1.9-4.8,2v-2.5c0-0.3-0.2-0.5-0.5-0.5s-0.5,0.2-0.5,0.5V20c-1.8-0.1-3.5-0.8-4.8-2l0.1-0.1c0.2-0.2,0.2-0.5,0-0.7c-0.2-0.2-0.5-0.2-0.7,0L6,17.3c-1.1-1.3-1.9-3-2-4.8h1.5C5.8,12.5,6,12.3,6,12s-0.2-0.5-0.5-0.5H4C4.1,9.7,4.9,8,6,6.7l0.1,0.1C6.2,6.9,6.4,7,6.5,7c0.1,0,0.3-0.1,0.4-0.1C7,6.7,7,6.3,6.9,6.1L6.7,6c1.3-1.1,3-1.9,4.8-2v2.5c0,0,0,0,0,0C11.5,6.8,11.7,7,12,7c0,0,0,0,0,0c0.3,0,0.5-0.2,0.5-0.5V4c1.8,0.1,3.5,0.8,4.8,2l-0.1,0.1C17.1,6.2,17,6.4,17,6.5C17,6.8,17.2,7,17.5,7c0.1,0,0.3-0.1,0.4-0.1L18,6.7c1.1,1.3,1.9,3,2,4.8h-1.5c-0.3,0-0.5,0.2-0.5,0.5s0.2,0.5,0.5,0.5H20C19.9,14.3,19.1,16,18,17.3z M15,7.5c-0.8,0-1.5,0.7-1.5,1.5s0.7,1.5,1.5,1.5c0.8,0,1.5-0.7,1.5-1.5C16.5,8.2,15.8,7.5,15,7.5z M15,9.5c-0.3,0-0.5-0.2-0.5-0.5s0.2-0.5,0.5-0.5c0.3,0,0.5,0.2,0.5,0.5C15.5,9.3,15.3,9.5,15,9.5z M9.5,8.5c-1.1,0-2,0.9-2,2s0.9,2,2,2c1.1,0,2-0.9,2-2C11.5,9.4,10.6,8.5,9.5,8.5z M9.5,11.5c-0.6,0-1-0.4-1-1s0.4-1,1-1c0.6,0,1,0.4,1,1C10.5,11.1,10.1,11.5,9.5,11.5z"/></svg>