<svg xmlns="http://www.w3.org/2000/svg" enable-background="new 0 0 24 24" viewBox="0 0 24 24"><path fill="#6563ff" d="M12,2C6.4771729,2,2,6.4771729,2,12s4.4771729,10,10,10c5.5201416-0.0064697,9.9935303-4.4798584,10-10C22,6.4771729,17.5228271,2,12,2z M12,21c-4.9705811,0-9-4.0294189-9-9c0-2.3052368,0.8740845-4.4013062,2.2993774-5.9935913L8.607666,9.3146973C8.5447388,9.5338135,8.5002441,9.7606812,8.5,10v4c0.0012817,1.380188,1.119812,2.4987183,2.5,2.5h2c0.7649536-0.0007324,1.440979-0.3519897,1.8995361-0.8934326l3.0940552,3.0940552C16.4013062,20.1259155,14.3052368,21,12,21z M9.5,14v-3.7929688l4.692627,4.692627C13.9188232,15.2617798,13.4888916,15.4994507,13,15.5h-2C10.171936,15.4990845,9.5009155,14.828064,9.5,14z M18.7006226,17.9935913l-3.3082886-3.3082886C15.4552612,14.4661865,15.4997559,14.2393188,15.5,14c0-0.276123-0.223877-0.5-0.5-0.5c-0.2150269,0-0.3946533,0.1372681-0.46521,0.3277588l-4.727478-4.727417C10.0811768,8.7382202,10.5111084,8.5005493,11,8.5h2c0.828064,0.0009155,1.4990845,0.671936,1.5,1.5c0,0.276123,0.223877,0.5,0.5,0.5s0.5-0.223877,0.5-0.5c-0.0012817-1.380188-1.119812-2.4987183-2.5-2.5h-2c-0.7649536,0.0007324-1.44104,0.3519897-1.8995972,0.8934326L6.0064087,5.2994385C7.5987549,3.8741455,9.6947632,3,12,3c4.9683228,0.0054321,8.9945679,4.0316772,9,9C21,14.3052368,20.1259155,16.4013062,18.7006226,17.9935913z"/></svg>