<svg xmlns="http://www.w3.org/2000/svg" enable-background="new 0 0 24 24" viewBox="0 0 24 24"><path fill="#6563ff" d="M20.1472778,18.4402466c1.2492065-1.581665,1.1118774-3.8490601-0.3191528-5.2683716c-1.5823975-1.5117188-4.0738525-1.5117188-5.65625,0c-1.567749,1.5481567-1.5836792,4.0740967-0.0355835,5.6419067c1.4258423,1.4439087,3.7084351,1.5874634,5.3039551,0.3334961l1.7062378,1.7062378c0.1986084,0.1918335,0.5151367,0.1864014,0.7069702-0.0122681c0.1871948-0.1937256,0.1871948-0.5009766,0-0.6947021L20.1472778,18.4402466z M19.1358032,18.1032715c-0.0059814,0.0054321-0.0137939,0.0072021-0.0195923,0.0130005c-0.0056152,0.0056152-0.0073242,0.0131836-0.0126343,0.0189819c-1.1884155,1.1181641-3.0437012,1.1119385-4.2246704-0.0140991c-1.1737671-1.1705933-1.1762695-3.0710449-0.0056763-4.244812s3.0710449-1.1763306,4.244812-0.0057373C20.2870483,15.036499,20.2949829,16.9276123,19.1358032,18.1032715z M19,3H5C3.3438721,3.0018311,2.0018311,4.3438721,2,6v9c0.0018311,1.6561279,1.3438721,2.9981689,3,3h5.5c0.276123,0,0.5-0.223877,0.5-0.5S10.776123,17,10.5,17H5c-1.1040039-0.0014038-1.9985962-0.8959961-2-2V9h18v2.5c0,0.276123,0.223877,0.5,0.5,0.5s0.5-0.223877,0.5-0.5V6C21.9981689,4.3438721,20.6561279,3.0018311,19,3z M21,8H3V6c0.0014038-1.1040039,0.8959961-1.9985962,2-2h14c1.1040039,0.0014038,1.9985962,0.8959961,2,2V8z M6.5,12C6.223877,12,6,12.223877,6,12.5S6.223877,13,6.5,13h4c0.276123,0,0.5-0.223877,0.5-0.5S10.776123,12,10.5,12H6.5z"/></svg>