<svg xmlns="http://www.w3.org/2000/svg" enable-background="new 0 0 24 24" viewBox="0 0 24 24"><path fill="#6563ff" d="M19.5,5h-15C3.119812,5.0012817,2.0012817,6.119812,2,7.5v10c0.0012817,1.380188,1.119812,2.4987183,2.5,2.5h15c1.380188-0.0012817,2.4987183-1.119812,2.5-2.5v-10C21.9987183,6.119812,20.880188,5.0012817,19.5,5z M21,17.5c-0.0009155,0.828064-0.671936,1.4990845-1.5,1.5h-15c-0.828064-0.0009155-1.4990845-0.671936-1.5-1.5V11h18V17.5z M21,10H3V7.5C3.0009155,6.671936,3.671936,6.0009155,4.5,6h15c0.828064,0.0009155,1.4990845,0.671936,1.5,1.5V10z M6.5,15h4c0.276123,0,0.5-0.223877,0.5-0.5S10.776123,14,10.5,14h-4C6.223877,14,6,14.223877,6,14.5S6.223877,15,6.5,15z"/></svg>