<svg xmlns="http://www.w3.org/2000/svg" enable-background="new 0 0 24 24" viewBox="0 0 24 24"><path fill="#6563ff" d="M10,2C9.723877,2,9.5,2.223877,9.5,2.5v6.2324219l-2,1.3336182V2.5C7.5,2.223877,7.276123,2,7,2S6.5,2.223877,6.5,2.5v7.56604l-2-1.3336182V2.5C4.5,2.223877,4.276123,2,4,2S3.5,2.223877,3.5,2.5V9c0.0002441,0.1671143,0.0837402,0.3231201,0.2226562,0.4160156L6.5,11.2675781v10.2329712C6.5001831,21.7765503,6.723999,22.0001831,7,22h0.0006104C7.2765503,21.9998169,7.5001831,21.776001,7.5,21.5V11.2675781l2.7773438-1.8515625C10.4162598,9.3231201,10.4997559,9.1671143,10.5,9V2.5C10.5,2.223877,10.276123,2,10,2z M17.5,12.0466919V2.5C17.5,2.223877,17.276123,2,17,2s-0.5,0.223877-0.5,0.5v9.5516968c-2.0122681,0.2542725-3.5509033,1.9766846-3.5,4.0479126C13,18.171875,14.6494141,22,17,22s4-3.828125,4-5.9003906c0.0015869-0.0656128,0.0015869-0.1312256,0-0.1968384C20.9506836,13.8981323,19.4308472,12.2894897,17.5,12.0466919z M17,21c-1.546875,0-3-3.0566406-3-4.9003906C13.9748535,14.4161987,15.3166504,13.0298462,17,13c1.6833496,0.0298462,3.0251465,1.4161987,3,3.0996094C20,17.9433594,18.546875,21,17,21z"/></svg>