<svg xmlns="http://www.w3.org/2000/svg" enable-background="new 0 0 24 24" viewBox="0 0 24 24"><path fill="#6563ff" d="M16.5,19H15v-8.5c0-0.0001831,0-0.0003662,0-0.0006104C14.9998169,10.2234497,14.776001,9.9998169,14.5,10H6V8.5C6,8.223877,5.776123,8,5.5,8S5,8.223877,5,8.5V10H3.5C3.223877,10,3,10.223877,3,10.5S3.223877,11,3.5,11H5v8.5c0,0.0001831,0,0.0003662,0,0.0005493C5.0001831,19.7765503,5.223999,20.0001831,5.5,20H14v1.5c0,0.0001831,0,0.0003662,0,0.0005493C14.0001831,21.7765503,14.223999,22.0001831,14.5,22c0.0001831,0,0.0003662,0,0.0006104,0C14.7765503,21.9998169,15.0001831,21.776001,15,21.5V20h1.5c0.276123,0,0.5-0.223877,0.5-0.5S16.776123,19,16.5,19z M14,19H6v-8h8V19z M16.5,4h-1.7930298l1.1464844-1.1464844c0.1871338-0.1937866,0.1871338-0.5009155,0-0.6947021c-0.1918335-0.1986084-0.5083618-0.2041016-0.7069702-0.0122681l-2,2c-0.000061,0-0.0001221,0.000061-0.0001221,0.0001221c-0.1951904,0.1951904-0.1951294,0.5117188,0.0001221,0.7068481l2,2C15.2401123,6.9474487,15.3673706,7.0001831,15.5,7c0.1325684,0,0.2597046-0.0526733,0.3533936-0.1464233c0.1953125-0.1952515,0.1953125-0.5118408,0.0001221-0.7070923L14.7069702,5H16.5c1.9320068,0.0023193,3.4976807,1.5679932,3.5,3.5v2c0,0.0001831,0,0.0003662,0,0.0005493C20.0001831,10.7765503,20.223999,11.0001831,20.5,11c0.0001831,0,0.0003662,0,0.0006104,0C20.7765503,10.9998169,21.0001831,10.776001,21,10.5v-2C20.9973145,6.0158691,18.9841309,4.0026855,16.5,4z"/></svg>