<svg xmlns="http://www.w3.org/2000/svg" enable-background="new 0 0 24 24" viewBox="0 0 24 24"><path fill="#6563ff" d="M8.8534546,17.1465454c-0.1937256-0.1871948-0.5009155-0.1871948-0.6947021,0c-0.1986084,0.1918335-0.2041016,0.5083618-0.0122681,0.7069702L9.2930298,19H7.5c-1.9320068-0.0023193-3.4976807-1.5679932-3.5-3.5v-2C4,13.223877,3.776123,13,3.5,13S3,13.223877,3,13.5v2c0.0026855,2.4841309,2.0158691,4.4973145,4.5,4.5h1.7930298l-1.1465454,1.1464844c-0.09375,0.09375-0.1464233,0.2208862-0.1464233,0.3534546C8,21.776062,8.223877,21.999939,8.5,22c0.1326294,0.0001221,0.2598267-0.0525513,0.3534546-0.1464844l2-2c0.000061-0.000061,0.0001221-0.000061,0.0001831-0.0001221c0.1951294-0.1952515,0.1950684-0.5117188-0.0001831-0.7068481L8.8534546,17.1465454z M20.5,13H19V4.4993896C18.9998169,4.2234497,18.776001,3.9998169,18.5,4H10V2.5C10,2.223877,9.776123,2,9.5,2S9,2.223877,9,2.5V4H7.5C7.223877,4,7,4.223877,7,4.5S7.223877,5,7.5,5H9v8.5005493C9.0001831,13.7765503,9.223999,14.0001831,9.5,14H18v1.5005493C18.0001831,15.7765503,18.223999,16.0001831,18.5,16h0.0006104C18.7765503,15.9998169,19.0001831,15.776001,19,15.5V14h1.5c0.276123,0,0.5-0.223877,0.5-0.5S20.776123,13,20.5,13z M18,13h-8V5h8V13z"/></svg>