<svg xmlns="http://www.w3.org/2000/svg" enable-background="new 0 0 24 24" viewBox="0 0 24 24"><path fill="#6563ff" d="M19.5,17H18V6.4993896C17.9998169,6.2234497,17.776001,5.9998169,17.5,6H7V4.5C7,4.223877,6.776123,4,6.5,4S6,4.223877,6,4.5V6H4.5C4.223877,6,4,6.223877,4,6.5S4.223877,7,4.5,7H6v10.5005493C6.0001831,17.7765503,6.223999,18.0001831,6.5,18H17v1.5005493C17.0001831,19.7765503,17.223999,20.0001831,17.5,20h0.0006104C17.7765503,19.9998169,18.0001831,19.776001,18,19.5V18h1.5c0.276123,0,0.5-0.223877,0.5-0.5S19.776123,17,19.5,17z M17,17H7V7h10V17z"/></svg>