<svg xmlns="http://www.w3.org/2000/svg" enable-background="new 0 0 24 24" viewBox="0 0 24 24"><path fill="#6563ff" d="M21.5,11.5h-1.5252686C19.725708,7.4821167,16.5178833,4.274292,12.5,4.0252686V2.5C12.5,2.223877,12.276123,2,12,2s-0.5,0.223877-0.5,0.5v1.5252686C7.4821167,4.274292,4.274292,7.4821167,4.0252686,11.5H2.5C2.223877,11.5,2,11.723877,2,12s0.223877,0.5,0.5,0.5h1.5252686C4.274292,16.5178833,7.4821167,19.725708,11.5,19.9747314v1.5258179C11.5001831,21.7765503,11.723999,22.0001831,12,22h0.0006104c0.2759399-0.0001831,0.4995728-0.223999,0.4993896-0.5v-1.5258179c4.0157471-0.2532349,7.2209473-3.4584351,7.4741821-7.4741821H21.5c0.276123,0,0.5-0.223877,0.5-0.5S21.776123,11.5,21.5,11.5z M12,19c-3.8659668,0-7-3.1340332-7-7s3.1340332-7,7-7c3.8640747,0.0046997,6.9953003,3.1359253,7,7C19,15.8659668,15.8659668,19,12,19z M12,9c-1.6568604,0-3,1.3431396-3,3s1.3431396,3,3,3c1.6561279-0.0018311,2.9981689-1.3438721,3-3C15,10.3431396,13.6568604,9,12,9z M12,14c-1.1045532,0-2-0.8954468-2-2s0.8954468-2,2-2c1.1040039,0.0014038,1.9985962,0.8959961,2,2C14,13.1045532,13.1045532,14,12,14z"/></svg>