<svg xmlns="http://www.w3.org/2000/svg" enable-background="new 0 0 24 24" viewBox="0 0 24 24"><path fill="#6563ff" d="M12,11.5c-0.276123,0-0.5,0.223877-0.5,0.5s0.223877,0.5,0.5,0.5s0.5-0.223877,0.5-0.5S12.276123,11.5,12,11.5z M21.5,11.5h-1.5252686C19.725708,7.4821167,16.5178833,4.274292,12.5,4.0252686V2.5C12.5,2.223877,12.276123,2,12,2s-0.5,0.223877-0.5,0.5v1.5252686C7.4821167,4.274292,4.274292,7.4821167,4.0252686,11.5H2.5C2.223877,11.5,2,11.723877,2,12s0.223877,0.5,0.5,0.5h1.5252686C4.274292,16.5178833,7.4821167,19.725708,11.5,19.9747314V21.5c0,0.0001831,0,0.0003662,0,0.0005493C11.5001831,21.7765503,11.723999,22.0001831,12,22c0.0001831,0,0.0003662,0,0.0006104,0c0.2759399-0.0001831,0.4995728-0.223999,0.4993896-0.5v-1.5258179c4.0157471-0.2532349,7.2209473-3.4584351,7.4741821-7.4741821H21.5c0.276123,0,0.5-0.223877,0.5-0.5S21.776123,11.5,21.5,11.5z M12.5,18.9747314V17.5c0-0.276123-0.223877-0.5-0.5-0.5s-0.5,0.223877-0.5,0.5v1.4747314C8.0342407,18.729187,5.270813,15.9657593,5.0252686,12.5H6.5C6.776123,12.5,7,12.276123,7,12s-0.223877-0.5-0.5-0.5H5.0252686C5.270813,8.0342407,8.0342407,5.270813,11.5,5.0252686V6.5c0,0.0001831,0,0.0003662,0,0.0006104C11.5001831,6.7765503,11.723999,7.0001831,12,7c0.0001831,0,0.0003662,0,0.0006104,0C12.2765503,6.9998169,12.5001831,6.776001,12.5,6.5V5.0258179C15.9637451,5.2752075,18.7247925,8.0362549,18.9741821,11.5H17.5c-0.276123,0-0.5,0.223877-0.5,0.5s0.223877,0.5,0.5,0.5h1.4747314C18.729187,15.9657593,15.9657593,18.729187,12.5,18.9747314z"/></svg>