<svg xmlns="http://www.w3.org/2000/svg" enable-background="new 0 0 24 24" viewBox="0 0 24 24"><path fill="#6563ff" d="M12,11.375c-0.3451538,0-0.625,0.2798462-0.625,0.625s0.2798462,0.625,0.625,0.625s0.625-0.2798462,0.625-0.625S12.3451538,11.375,12,11.375z M12,2C6.4771729,2,2,6.4771729,2,12s4.4771729,10,10,10h0.0006104c0.000061,0,0.0001221-0.000061,0.0001831-0.000061C17.5205078,21.992981,21.9935303,17.5198364,22,12C22,6.4771729,17.5228271,2,12,2z M12.5,20.9747925V17.5c0-0.276123-0.223877-0.5-0.5-0.5s-0.5,0.223877-0.5,0.5v3.4747925C6.9299316,20.7229614,3.2770386,17.0700684,3.0252075,12.5H6.5C6.776123,12.5,7,12.276123,7,12s-0.223877-0.5-0.5-0.5H3.0252075C3.2770386,6.9299316,6.9299316,3.2770386,11.5,3.0252075v3.4754028C11.5001831,6.7765503,11.723999,7.0001831,12,7h0.0006104C12.2765503,6.9998169,12.5001831,6.776001,12.5,6.5V3.0257568C17.067688,3.2821655,20.7178345,6.932312,20.9742432,11.5H17.5c-0.276123,0-0.5,0.223877-0.5,0.5s0.223877,0.5,0.5,0.5h3.4747925C20.7229614,17.0700684,17.0700684,20.7229614,12.5,20.9747925z"/></svg>