<svg xmlns="http://www.w3.org/2000/svg" enable-background="new 0 0 24 24" viewBox="0 0 24 24"><path fill="#6563ff" d="M19.090271,4.9572754c-0.0076904-0.0088501-0.0105591-0.0201416-0.0189819-0.0285645c-0.0084839-0.0084229-0.0197144-0.0112915-0.0285645-0.0189819c-3.8937378-3.8796387-10.1917725-3.8796387-14.0854492,0C4.9484253,4.9174194,4.9371338,4.9202881,4.9287109,4.9287109S4.9174194,4.9484253,4.909668,4.9572754c-2.8033447,2.8056641-3.6714478,7.0089111-2.2089844,10.6956177c0.0063477,0.0219727,0.0142212,0.043396,0.0235596,0.06427c2.0466309,5.1228638,7.8585815,7.6166382,12.9814453,5.5700684c2.5413818-1.0153198,4.5548706-3.0288086,5.5701294-5.5702515c0.0092773-0.0206909,0.0170898-0.0419922,0.0233765-0.0638428C22.7617798,11.9663696,21.8936768,7.7630615,19.090271,4.9572754z M12,21c-3.4146118-0.0048828-6.5324707-1.9413452-8.050415-5h6.361145c0.5782471,0.9329834,1.8032837,1.22052,2.7362671,0.6422729C13.3078003,16.4806519,13.5276489,16.2608032,13.68927,16h6.3612061C18.5325317,19.0586548,15.4146118,20.9951172,12,21z M11,14.9404297c0-0.5523071,0.4476929-1,1-1s1,0.4476929,1,1s-0.4476929,1-1,1C11.447876,15.9400635,11.0003662,15.4925537,11,14.9404297z M19.5,12.5h1.4746704c-0.0461426,0.8529663-0.2144165,1.6948242-0.4996948,2.5h-6.480957C13.9946289,14.9797363,14,14.9608154,14,14.9404297c-0.0028687-0.9093628-0.6193848-1.7021484-1.5-1.9290161V8.4404297c0-0.276123-0.223877-0.5-0.5-0.5s-0.5,0.223877-0.5,0.5v4.5709839c-0.8806152,0.2268677-1.4971313,1.0196533-1.5,1.9290161C10,14.9608154,10.0054321,14.9797363,10.0059814,15h-6.480957c-0.2852783-0.8051758-0.4535522-1.6470337-0.4996948-2.5H4.5C4.776123,12.5,5,12.276123,5,12s-0.223877-0.5-0.5-0.5H3.0253296c0.1112671-2.0361938,0.9146118-3.9733276,2.2769165-5.4907227l1.0405273,1.0405273C6.539978,7.243042,6.8565063,7.2398682,7.0497437,7.0426636c0.1905518-0.194397,0.1905518-0.5054932,0-0.6998901L6.0092773,5.3022461C7.5266724,3.9399414,9.4638062,3.1365967,11.5,3.0253296V4.5C11.5,4.776123,11.723877,5,12,5s0.5-0.223877,0.5-0.5V3.0253296c2.0361938,0.1112671,3.9733276,0.9146118,5.4907227,2.2769165l-1.0405273,1.0405273c-0.1972046,0.1932983-0.2003784,0.5098267-0.0070801,0.7069702c0.1932983,0.1972046,0.5098267,0.2003784,0.7069702,0.0071411c0.0024414-0.0023804,0.0047607-0.0046997,0.0071411-0.0071411l1.0404663-1.0404663C20.0600586,7.5266724,20.8634033,9.4638062,20.9746704,11.5H19.5c-0.276123,0-0.5,0.223877-0.5,0.5S19.223877,12.5,19.5,12.5z"/></svg>