<svg xmlns="http://www.w3.org/2000/svg" enable-background="new 0 0 24 24" viewBox="0 0 24 24"><path fill="#6563ff" d="M20,6c0-2.2091675-1.7908325-4-4-4H8C5.7908325,2,4,3.7908325,4,6c0,0.1142578,0.024231,0.2217407,0.0336304,0.3335571C4.0148315,6.3861694,4,6.440979,4,6.5v6v6c0.0023193,1.9320068,1.5679932,3.4976807,3.5,3.5h9c1.9320068-0.0023193,3.4976807-1.5679932,3.5-3.5v-6v-6c0-0.059021-0.0148315-0.1138306-0.0336304-0.1664429C19.975769,6.2217407,20,6.1142578,20,6z M19,18.5c-0.0012817,1.380188-1.119812,2.4987183-2.5,2.5h-9c-1.380188-0.0012817-2.4987183-1.119812-2.5-2.5v-3.5582886C5.635376,15.5922241,6.519104,15.9988403,7.5,16h9c0.980896-0.0011597,1.864624-0.4077759,2.5-1.0582886V18.5z M19,12.5c-0.0012817,1.380188-1.119812,2.4987183-2.5,2.5h-9c-1.380188-0.0012817-2.4987183-1.119812-2.5-2.5V8.6204834C5.7332153,9.4592285,6.7984009,10,8,10h8c1.2015991,0,2.2667847-0.5407715,3-1.3795166V12.5z M16,9H8C6.3431396,9,5,7.6568604,5,6s1.3431396-3,3-3h8c1.6568604,0,3,1.3431396,3,3S17.6568604,9,16,9z M7.5,18C7.223877,18,7,18.223877,7,18.5S7.223877,19,7.5,19S8,18.776123,8,18.5S7.776123,18,7.5,18z M7.5,12C7.223877,12,7,12.223877,7,12.5S7.223877,13,7.5,13S8,12.776123,8,12.5S7.776123,12,7.5,12z"/></svg>