<svg xmlns="http://www.w3.org/2000/svg" enable-background="new 0 0 24 24" viewBox="0 0 24 24"><path fill="#6563ff" d="M20.4395142,3.609375c-0.7423096-1.387146-2.0926514-2.34552-3.6470947-2.5883179C14.4828491,0.6602783,12.3110962,1.9473877,11.4282837,4H6.5C5.119812,4.0012817,4.0012817,5.119812,4,6.5v5c0,0.0001831,0,0.0003662,0,0.0005493C4.0001831,11.7765503,4.223999,12.0001831,4.5,12c0.0001831,0,0.0003662,0,0.0006104,0C4.7765503,11.9998169,5.0001831,11.776001,5,11.5v-5C5.0009155,5.671936,5.671936,5.0009155,6.5,5h4.6170654c-0.0137329,0.0688477-0.041626,0.1311646-0.0525513,0.2011719c-0.0007324,0.0002441-0.0015259,0.0004272-0.0022583,0.0006714C9.493042,5.6677246,8.5986328,7.3175049,9.0645142,8.8867188c0.4000244,1.27948,1.597229,2.1407471,2.9375,2.1132812h7.1893921c1.7576904,0.0400391,3.3168945-1.1217041,3.781311-2.8173828C23.4857178,6.2262573,22.3701172,4.2122192,20.4395142,3.609375z M22.0020142,7.9404297C21.6375122,9.1826782,20.4858398,10.0266724,19.1914673,10h-7.1894531c-0.8928833,0.0287476-1.6975098-0.5354614-1.9746704-1.3847656c-0.0264893-0.086792-0.046875-0.175293-0.0610962-0.2648926c-0.1699219-1.0709229,0.5604858-2.0769043,1.6314087-2.2468262c0.2272949-0.0366211,0.4002075-0.2236938,0.4189453-0.453125c0.1801147-2.0795898,1.9155884-3.6791382,4.0029297-3.6894531c1.545105,0.006897,2.9510498,0.8942871,3.6220703,2.2861328c0.0647583,0.1346436,0.1860962,0.2334595,0.3310547,0.2695312c0.0194092,0.0047607,0.0388184,0.0097046,0.0581055,0.0148315C21.5164795,4.9284668,22.3990479,6.4547119,22.0020142,7.9404297z M19.5,13c-0.276123,0-0.5,0.223877-0.5,0.5v4c-0.0009155,0.828064-0.671936,1.4990845-1.5,1.5h-2.420105c-0.0898438-1.5259399-1.0946045-2.9093628-2.6403809-3.390625c-0.7423096-1.387146-2.0926514-2.34552-3.6470947-2.5883179c-2.7360229-0.4274292-5.3005371,1.4440918-5.7279053,4.1801147c-0.0007324,0.0002441-0.0015259,0.0004272-0.0022583,0.0006714c-1.5692139,0.4658813-2.463623,2.1156616-1.9977417,3.6848755c0.4000244,1.27948,1.597229,2.1407471,2.9375,2.1132812h7.1893921c1.7006226,0.0557861,3.2290649-1.0310059,3.7348633-2.6556396C14.961853,20.2299805,14.972229,20.1148682,14.996582,20H17.5c1.380188-0.0012817,2.4987183-1.119812,2.5-2.5v-4C20,13.223877,19.776123,13,19.5,13z M14.0020142,19.9404297C13.6375122,21.1826782,12.4858398,22.0266724,11.1914673,22H4.0020142c-0.8928833,0.0287476-1.6975098-0.5354614-1.9746704-1.3847656c-0.0264893-0.086792-0.046875-0.175293-0.0610962-0.2648926c-0.1699219-1.0709229,0.5604858-2.0769043,1.6314087-2.2468262c0.2272949-0.0366211,0.4002075-0.2236938,0.4189453-0.453125c0.1801147-2.0795898,1.9155884-3.6791382,4.0029297-3.6894531c1.545166,0.006897,2.9511108,0.8942871,3.6221313,2.2861328c0.0647583,0.1346436,0.1860962,0.2333984,0.3310547,0.2695312c0.0194092,0.0047607,0.0387573,0.0097046,0.0581055,0.0148315C13.5164795,16.9284668,14.3990479,18.4547119,14.0020142,19.9404297z"/></svg>