<svg xmlns="http://www.w3.org/2000/svg" enable-background="new 0 0 24 24" viewBox="0 0 24 24"><path fill="#6563ff" d="M7.5,17.5C7.223877,17.5,7,17.723877,7,18s0.223877,0.5,0.5,0.5S8,18.276123,8,18S7.776123,17.5,7.5,17.5z M7.5,11.5C7.223877,11.5,7,11.723877,7,12s0.223877,0.5,0.5,0.5S8,12.276123,8,12S7.776123,11.5,7.5,11.5z M19.9599609,5.5903931C19.5619507,3.5466309,16.2093506,2,12,2S4.4380493,3.5466309,4.0400391,5.5903931C4.0144043,5.6505127,4,5.7166138,4,5.7861328v6v0.4755859v6C4,20.3583984,7.5136719,22,12,22s8-1.6416016,8-3.7382812v-6v-0.4755859v-6C20,5.7166138,19.9855957,5.6505127,19.9599609,5.5903931z M19,18.2617188C19,19.5566406,16.125,21,12,21s-7-1.4433594-7-2.7382812v-4.1665039C6.352417,15.2400513,8.949707,16,12,16s5.647583-0.7599487,7-1.9047852V18.2617188z M19,11.7861328v0.4755859C19,13.5566406,16.125,15,12,15s-7-1.4433594-7-2.7382812v-0.4755859V7.961731C6.352417,9.1867065,8.949707,10,12,10s5.647583-0.8132935,7-2.038269V11.7861328z M12,9C7.875,9,5,7.4189453,5,6s2.875-3,7-3s7,1.5809937,7,3S16.125,9,12,9z"/></svg>