<svg xmlns="http://www.w3.org/2000/svg" enable-background="new 0 0 24 24" viewBox="0 0 24 24"><path fill="#6563ff" d="M18,2c-2.2091675,0-4,1.7908325-4,4s1.7908325,4,4,4c2.208252-0.0021973,3.9978027-1.791748,4-4C22,3.7908325,20.2091675,2,18,2z M18,9c-1.6568604,0-3-1.3431396-3-3s1.3431396-3,3-3c1.6561279,0.0018311,2.9981689,1.3438721,3,3C21,7.6568604,19.6568604,9,18,9z M15.5,21h-3v-3.5c0-0.276123-0.223877-0.5-0.5-0.5s-0.5,0.223877-0.5,0.5V21h-3v-4.190918l4.2236328-2.1118164C12.8928223,14.6123657,12.9997559,14.4393311,13,14.25V9.5C13,9.223877,12.776123,9,12.5,9S12,9.223877,12,9.5v4.4414062L8.5,15.690979V7.5C8.5,7.223877,8.276123,7,8,7S7.5,7.223877,7.5,7.5v8.9996948c0,0.0001831-0.0001221,0.0002441-0.0001221,0.0004272C7.4998779,16.5003662,7.5,16.5004883,7.5,16.5007324v1.1902466L4,15.9414062V12.5C4,12.223877,3.776123,12,3.5,12S3,12.223877,3,12.5v3.75c0.0002441,0.1893311,0.1071777,0.3623657,0.2763672,0.4472656L7.5,18.809082V21h-5C2.223877,21,2,21.223877,2,21.5S2.223877,22,2.5,22H8c0.0001831,0,0.0003662,0,0.0006104,0H12c0.0001831,0,0.0003662,0,0.0006104,0H15.5c0.276123,0,0.5-0.223877,0.5-0.5S15.776123,21,15.5,21z"/></svg>