<svg xmlns="http://www.w3.org/2000/svg" enable-background="new 0 0 24 24" viewBox="0 0 24 24"><path fill="#6563ff" d="M19.5,3h-15C3.119812,3.0012817,2.0012817,4.119812,2,5.5v9c0.0012817,1.380188,1.119812,2.4987183,2.5,2.5h7v3h-5C6.223877,20,6,20.223877,6,20.5S6.223877,21,6.5,21h11c0.276123,0,0.5-0.223877,0.5-0.5S17.776123,20,17.5,20h-5v-3h7c1.380188-0.0012817,2.4987183-1.119812,2.5-2.5v-9C21.9987183,4.119812,20.880188,3.0012817,19.5,3z M21,14.5c-0.0009155,0.828064-0.671936,1.4990845-1.5,1.5h-15c-0.828064-0.0009155-1.4990845-0.671936-1.5-1.5v-9C3.0009155,4.671936,3.671936,4.0009155,4.5,4h15c0.828064,0.0009155,1.4990845,0.671936,1.5,1.5V14.5z"/></svg>