<svg xmlns="http://www.w3.org/2000/svg" enable-background="new 0 0 24 24" viewBox="0 0 24 24"><path fill="#6563ff" d="M8.8,5h9.7C19.3,5,20,5.7,20,6.5v7c0,0.5-0.3,1-0.8,1.3c-0.2,0.1-0.3,0.3-0.3,0.4c0,0.3,0.2,0.5,0.5,0.5c0.1,0,0.2,0,0.2-0.1c0.8-0.4,1.3-1.3,1.3-2.2v-7C21,5.1,19.9,4,18.5,4H8.8C8.5,4,8.3,4.2,8.3,4.5S8.5,5,8.8,5z M21.9,21.1l-6-6c0,0,0,0,0,0L5.2,4.5c0,0,0,0,0,0C5.1,4.3,5,4.3,4.9,4.2L2.9,2.1C2.7,2,2.4,2,2.2,2.1C2,2.3,2,2.7,2.1,2.9l1.7,1.7C3.3,5.1,3,5.8,3,6.5v7C3,14.9,4.1,16,5.5,16h6v3h-5C6.2,19,6,19.2,6,19.5S6.2,20,6.5,20H12h0h5.5c0.3,0,0.5-0.2,0.5-0.5S17.8,19,17.5,19h-5v-3h2.8l5.9,5.9c0.1,0.1,0.2,0.1,0.4,0.1c0.1,0,0.3-0.1,0.4-0.1C22,21.7,22,21.3,21.9,21.1z M5.5,15C4.7,15,4,14.3,4,13.5v-7C4,6,4.2,5.6,4.6,5.3l9.7,9.7H5.5z"/></svg>