<svg xmlns="http://www.w3.org/2000/svg" enable-background="new 0 0 24 24" viewBox="0 0 24 24"><path fill="#6563ff" d="M4.5,10H10c1.2472534-0.0001831,2.3643188-0.7719727,2.8057861-1.9384766c0.5864868-1.5498047-0.194458-3.2816772-1.7442627-3.8681641c-0.5474854-1.0838623-1.5582886-1.8598022-2.7468262-2.1086426C6.1555786,1.6327515,4.0388794,3.0166626,3.5869141,5.1757812C2.6291504,5.5510254,1.9992676,6.4749756,2,7.5036011C2.0010376,8.8833618,3.1203003,10.0009766,4.5,10z M4.1455078,6.046875c0.2037964-0.0478516,0.355957-0.2179565,0.3808594-0.4257812C4.7142334,4.1222534,5.9894409,2.99823,7.5,3c1.1904907,0.0007324,2.267334,0.7071533,2.7421875,1.7988281c0.0587158,0.1370239,0.1760254,0.2402954,0.3193359,0.28125C11.4140015,5.3295288,11.9998779,6.1113281,12,6.9995728C12.0001221,8.104248,11.1046753,8.9998779,10,9H4.5C3.671936,8.9990845,3.0009155,8.328064,3,7.5C2.9971313,6.8080444,3.4720459,6.2056274,4.1455078,6.046875z M19.5,2h-6C13.223877,2,13,2.223877,13,2.5S13.223877,3,13.5,3h6c0.828064,0.0009155,1.4990845,0.671936,1.5,1.5V12H2.5C2.223877,12,2,12.223877,2,12.5v3c0.0012817,1.380188,1.119812,2.4987183,2.5,2.5H9v3H4.5C4.223877,21,4,21.223877,4,21.5S4.223877,22,4.5,22h5h0.0006104H14.5h0.0006104H19.5c0.276123,0,0.5-0.223877,0.5-0.5S19.776123,21,19.5,21H15v-3h4.5c1.380188-0.0012817,2.4987183-1.119812,2.5-2.5v-11C21.9987183,3.119812,20.880188,2.0012817,19.5,2z M14,21h-4v-3h4V21z M21,15.5c-0.0009155,0.828064-0.671936,1.4990845-1.5,1.5h-15c-0.828064-0.0009155-1.4990845-0.671936-1.5-1.5V13h18V15.5z"/></svg>