<svg xmlns="http://www.w3.org/2000/svg" enable-background="new 0 0 24 24" viewBox="0 0 24 24"><path fill="#6563ff" d="M19,10c-1.3807373,0-2.5,1.1192627-2.5,2.5S17.6192627,15,19,15c1.380188-0.0012817,2.4987183-1.119812,2.5-2.5C21.5,11.1192627,20.3807373,10,19,10z M19,14c-0.8284302,0-1.5-0.6715698-1.5-1.5S18.1715698,11,19,11c0.828064,0.0009155,1.4990845,0.671936,1.5,1.5C20.5,13.3284302,19.8284302,14,19,14z M19,8c1.380188-0.0012817,2.4987183-1.119812,2.5-2.5C21.5,4.1192627,20.3807373,3,19,3s-2.5,1.1192627-2.5,2.5S17.6192627,8,19,8z M19,4c0.828064,0.0009155,1.4990845,0.671936,1.5,1.5C20.5,6.3284302,19.8284302,7,19,7s-1.5-0.6715698-1.5-1.5S18.1715698,4,19,4z M5,10c-1.3807373,0-2.5,1.1192627-2.5,2.5S3.6192627,15,5,15c1.380188-0.0012817,2.4987183-1.119812,2.5-2.5C7.5,11.1192627,6.3807373,10,5,10z M5,14c-0.8284302,0-1.5-0.6715698-1.5-1.5S4.1715698,11,5,11c0.828064,0.0009155,1.4990845,0.671936,1.5,1.5C6.5,13.3284302,5.8284302,14,5,14z M12,17c-1.3807373,0-2.5,1.1192627-2.5,2.5S10.6192627,22,12,22c1.380188-0.0012817,2.4987183-1.119812,2.5-2.5C14.5,18.1192627,13.3807373,17,12,17z M12,21c-0.8284302,0-1.5-0.6715698-1.5-1.5S11.1715698,18,12,18c0.828064,0.0009155,1.4990845,0.671936,1.5,1.5C13.5,20.3284302,12.8284302,21,12,21z M12,10c-1.3807373,0-2.5,1.1192627-2.5,2.5S10.6192627,15,12,15c1.380188-0.0012817,2.4987183-1.119812,2.5-2.5C14.5,11.1192627,13.3807373,10,12,10z M12,14c-0.8284302,0-1.5-0.6715698-1.5-1.5S11.1715698,11,12,11c0.828064,0.0009155,1.4990845,0.671936,1.5,1.5C13.5,13.3284302,12.8284302,14,12,14z M5,3C3.6192627,3,2.5,4.1192627,2.5,5.5S3.6192627,8,5,8c1.380188-0.0012817,2.4987183-1.119812,2.5-2.5C7.5,4.1192627,6.3807373,3,5,3z M5,7C4.1715698,7,3.5,6.3284302,3.5,5.5S4.1715698,4,5,4c0.828064,0.0009155,1.4990845,0.671936,1.5,1.5C6.5,6.3284302,5.8284302,7,5,7z M12,3c-1.3807373,0-2.5,1.1192627-2.5,2.5S10.6192627,8,12,8c1.380188-0.0012817,2.4987183-1.119812,2.5-2.5C14.5,4.1192627,13.3807373,3,12,3z M12,7c-0.8284302,0-1.5-0.6715698-1.5-1.5S11.1715698,4,12,4c0.828064,0.0009155,1.4990845,0.671936,1.5,1.5C13.5,6.3284302,12.8284302,7,12,7z"/></svg>