<svg xmlns="http://www.w3.org/2000/svg" enable-background="new 0 0 24 24" viewBox="0 0 24 24"><path fill="#6563ff" d="M19.960022,10.6025391l-6.0235596-7.7597656c-0.0250854-0.0257568-0.0507812-0.0510254-0.0769043-0.0757446c-1.0767212-1.0187378-2.7754517-0.9716797-3.7941895,0.1050415l-6.0517578,7.6894531c-0.546875,0.8527832-0.546875,1.9460449,0,2.7988281c0.0079346,0.0130005,0.0167236,0.0253906,0.0263672,0.0371094l6.0234985,7.7597656C10.5592651,21.6934814,11.2560425,21.9988403,11.9863281,22c0.7432251-0.003418,1.4506226-0.3200073,1.9483032-0.8720703l6.0517578-7.6894531C20.5426636,12.5721436,20.5322876,11.458374,19.960022,10.6025391z M19.1728516,12.859375l-5.9990234,7.6201172c-0.6472168,0.6386719-1.6831055,0.6528931-2.3476562,0.0322266l-5.9814453-7.7080078c-0.3151855-0.5078125-0.3219604-1.1487427-0.0175781-1.6630859l5.9990234-7.6201172c0.6472168-0.6386719,1.6831055-0.6528931,2.3476562-0.0322266l5.9707031,7.6904297C19.4699707,11.6888428,19.480896,12.338562,19.1728516,12.859375z"/></svg>