<svg xmlns="http://www.w3.org/2000/svg" enable-background="new 0 0 24 24" viewBox="0 0 24 24"><path fill="#6563ff" d="M17.5,2h-13C4.4998169,2,4.4996338,2,4.4993896,2C4.2234497,2.0001831,3.9998169,2.223999,4,2.5v19c0,0.0001831,0,0.0003662,0,0.0005493C4.0001831,21.7765503,4.223999,22.0001831,4.5,22h5h0.0006104H17.5c1.380188-0.0012817,2.4987183-1.119812,2.5-2.5v-15C19.9987183,3.119812,18.880188,2.0012817,17.5,2z M9,21H5V3h4V21z M19,19.5c-0.0009155,0.828064-0.671936,1.4990845-1.5,1.5H10V3h7.5c0.828064,0.0009155,1.4990845,0.671936,1.5,1.5V19.5z"/></svg>