<svg xmlns="http://www.w3.org/2000/svg" enable-background="new 0 0 24 24" viewBox="0 0 24 24"><path fill="#6563ff" d="M17.5,2H4.4993896C4.2234497,2.0001831,3.9998169,2.223999,4,2.5v17.0005493C4.0001831,19.7765503,4.223999,20.0001831,4.5,20h1.5009766l0.0029297,1.5009766c0.0009766,0.2755737,0.2244263,0.4985962,0.5,0.4990234h0.0015869c0.2759399-0.0007324,0.4991455-0.2250366,0.4984131-0.5009766L7.0009766,20H17.5c1.380188-0.0012817,2.4987183-1.119812,2.5-2.5v-13C19.9987183,3.119812,18.880188,2.0012817,17.5,2z M14,19H5V3h9V19z M19,17.5c-0.0009155,0.828064-0.671936,1.4990845-1.5,1.5H15V3h2.5c0.828064,0.0009155,1.4990845,0.671936,1.5,1.5V17.5z"/></svg>