<svg xmlns="http://www.w3.org/2000/svg" enable-background="new 0 0 24 24" viewBox="0 0 24 24"><path fill="#6563ff" d="M8.5,15c-1.1045532,0-2,0.8954468-2,2s0.8954468,2,2,2c1.1040649-0.0012817,1.9987183-0.8959351,2-2C10.5,15.8954468,9.6045532,15,8.5,15z M8.5,18c-0.5523071,0-1-0.4476929-1-1s0.4476929-1,1-1c0.552063,0.0005493,0.9994507,0.447937,1,1C9.5,17.5523071,9.0523071,18,8.5,18z M8.5,10c-1.1045532,0-2,0.8954468-2,2s0.8954468,2,2,2c1.1040649-0.0012817,1.9987183-0.8959351,2-2C10.5,10.8954468,9.6045532,10,8.5,10z M8.5,13c-0.5523071,0-1-0.4476929-1-1s0.4476929-1,1-1c0.552063,0.0005493,0.9994507,0.447937,1,1C9.5,12.5523071,9.0523071,13,8.5,13z M15.5,15c-1.1045532,0-2,0.8954468-2,2s0.8954468,2,2,2c1.1040039-0.0014038,1.9985962-0.8959961,2-2C17.5,15.8954468,16.6045532,15,15.5,15z M15.5,18c-0.5523071,0-1-0.4476929-1-1s0.4476929-1,1-1c0.552124,0.0003662,0.9996338,0.447876,1,1C16.5,17.5523071,16.0523071,18,15.5,18z M15.5,5c-1.1045532,0-2,0.8954468-2,2s0.8954468,2,2,2c1.1040039-0.0014038,1.9985962-0.8959961,2-2C17.5,5.8954468,16.6045532,5,15.5,5z M15.5,8c-0.5523071,0-1-0.4476929-1-1s0.4476929-1,1-1c0.552124,0.0003662,0.9996338,0.447876,1,1C16.5,7.5523071,16.0523071,8,15.5,8z M17,2H7C4.2399292,2.0032349,2.0032349,4.2399292,2,7v10c0.0032349,2.7600708,2.2399292,4.9967651,5,5h10c2.7600708-0.0032349,4.9967651-2.2399292,5-5V7C21.9967651,4.2399292,19.7600708,2.0032349,17,2z M21,17c-0.0021973,2.208252-1.791748,3.9978027-4,4H7c-2.2081909-0.0023804-3.9976196-1.7918091-4-4V7c0.0023804-2.2081909,1.7918091-3.9976196,4-4h10c2.208252,0.0021973,3.9978027,1.791748,4,4V17z M15.5,10c-1.1045532,0-2,0.8954468-2,2s0.8954468,2,2,2c1.1040039-0.0014038,1.9985962-0.8959961,2-2C17.5,10.8954468,16.6045532,10,15.5,10z M15.5,13c-0.5523071,0-1-0.4476929-1-1s0.4476929-1,1-1c0.552124,0.0003662,0.9996338,0.447876,1,1C16.5,12.5523071,16.0523071,13,15.5,13z M8.5,5c-1.1045532,0-2,0.8954468-2,2s0.8954468,2,2,2c1.1040649-0.0012817,1.9987183-0.8959351,2-2C10.5,5.8954468,9.6045532,5,8.5,5z M8.5,8c-0.5523071,0-1-0.4476929-1-1s0.4476929-1,1-1c0.552063,0.0005493,0.9994507,0.447937,1,1C9.5,7.5523071,9.0523071,8,8.5,8z"/></svg>