<svg xmlns="http://www.w3.org/2000/svg" enable-background="new 0 0 24 24" viewBox="0 0 24 24"><path fill="#6563ff" d="M16,6c-1.1045532,0-2,0.8954468-2,2s0.8954468,2,2,2c1.1040039-0.0014038,1.9985962-0.8959961,2-2C18,6.8954468,17.1045532,6,16,6z M16,9c-0.5523071,0-1-0.4476929-1-1s0.4476929-1,1-1c0.552124,0.0003662,0.9996338,0.447876,1,1C17,8.5523071,16.5523071,9,16,9z M8,14c-1.1045532,0-2,0.8954468-2,2s0.8954468,2,2,2c1.1040039-0.0014038,1.9985962-0.8959961,2-2C10,14.8954468,9.1045532,14,8,14z M8,17c-0.5523071,0-1-0.4476929-1-1s0.4476929-1,1-1c0.552124,0.0003662,0.9996338,0.447876,1,1C9,16.5523071,8.5523071,17,8,17z M12,10c-1.1045532,0-2,0.8954468-2,2s0.8954468,2,2,2c1.1040039-0.0014038,1.9985962-0.8959961,2-2C14,10.8954468,13.1045532,10,12,10z M12,13c-0.5523071,0-1-0.4476929-1-1s0.4476929-1,1-1c0.552124,0.0003662,0.9996338,0.447876,1,1C13,12.5523071,12.5523071,13,12,13z M17,2H7C4.2399292,2.0032349,2.0032349,4.2399292,2,7v10c0.0032349,2.7600708,2.2399292,4.9967651,5,5h10c2.7600708-0.0032349,4.9967651-2.2399292,5-5V7C21.9967651,4.2399292,19.7600708,2.0032349,17,2z M21,17c-0.0021973,2.208252-1.791748,3.9978027-4,4H7c-2.208252-0.0021973-3.9978027-1.791748-4-4V7c0.0021973-2.208252,1.791748-3.9978027,4-4h10c2.208252,0.0021973,3.9978027,1.791748,4,4V17z"/></svg>