<svg xmlns="http://www.w3.org/2000/svg" enable-background="new 0 0 24 24" viewBox="0 0 24 24"><path fill="#6563ff" d="M15.8530273,11.6460571l-1.9995117-1.9995117c-0.1937866-0.1871338-0.5009155-0.1871338-0.6947021,0c-0.1986084,0.1918335-0.2041626,0.5083618-0.0123291,0.7069702L14.2930298,11.5H9.5c-0.0001831,0-0.0003662,0-0.0005493,0C9.2234497,11.5001831,8.9998169,11.723999,9,12v2c0,0.0001831,0,0.0003662,0,0.0005493C9.0001831,14.2765503,9.223999,14.5001831,9.5,14.5c0.0001831,0,0.0003662,0,0.0006104,0C9.7765503,14.4998169,10.0001831,14.276001,10,14v-1.5h4.2930298l-1.1465454,1.1464844c-0.09375,0.09375-0.1464233,0.2208862-0.1464233,0.3534546C13,14.276062,13.223877,14.499939,13.5,14.5c0.1326294,0.0001831,0.2598267-0.0525513,0.3535156-0.1464844l1.9998779-1.9998779c0.0461426-0.0461426,0.0827026-0.1013184,0.1080322-0.1625977c0.0250244-0.0606079,0.0380859-0.1248779,0.038269-0.1894531C15.9996948,12.0010376,16,12.0005493,16,12c0-0.0651245-0.0132446-0.1300659-0.0385742-0.1911621C15.9360352,11.7475586,15.899292,11.6921997,15.8530273,11.6460571z M21.2978516,10.2324219l-7.5302734-7.5302734c-0.9770508-0.9741211-2.5581055-0.9741211-3.5351562,0l-7.5302734,7.5302734c-0.9736328,0.9772949-0.9736328,2.5578613,0,3.5351562l7.5302734,7.5302734C10.7009277,21.7668457,11.3370972,22.0297852,12,22.0283203c0.6627808,0.0007935,1.2987061-0.2619629,1.7675781-0.7304688l7.5302734-7.5302734C22.2714844,12.7902832,22.2714844,11.2097168,21.2978516,10.2324219z M20.5908203,13.0605469l-7.5302734,7.5302734c-0.5864258,0.5839844-1.534668,0.5839844-2.1210938,0l-7.5302734-7.5302734c-0.5839844-0.5864258-0.5839844-1.534668,0-2.1210938l7.5302734-7.5302734c0.5864258-0.5839844,1.534668-0.5839844,2.1210938,0l7.5302734,7.5302734C21.1748047,11.5258789,21.1748047,12.4741211,20.5908203,13.0605469z"/></svg>