<svg xmlns="http://www.w3.org/2000/svg" enable-background="new 0 0 24 24" viewBox="0 0 24 24"><path fill="#6563ff" d="M9.3173828,14.3564453c0.213562-0.175293,0.2446289-0.4905396,0.0693359-0.7041016s-0.4905396-0.2446289-0.7041016-0.0693359C6.5458984,15.3398438,4,18.3115234,4,22.5v0.0005493C4.0001831,22.7765503,4.223999,23.0001831,4.5,23h0.0006104C4.7765503,22.9998169,5.0001831,22.776001,5,22.5C5,18.7021484,7.3476562,15.9755859,9.3173828,14.3564453z M13.0497437,12.0064697C15.0700684,10.8358765,20,7.3776245,20,1.5C20,1.223877,19.776123,1,19.5,1S19,1.223877,19,1.5c0,5.9462891-5.8095703,9.312439-7,9.9394531C11.4706421,11.1615601,10.0319824,10.3427124,8.595459,9H12.5C12.776123,9,13,8.776123,13,8.5S12.776123,8,12.5,8H7.6295776C6.8841553,7.1508789,6.2070923,6.1494141,5.7235718,5H15.5C15.776123,5,16,4.776123,16,4.5S15.776123,4,15.5,4h-10C5.4563599,4,5.4173584,4.0143433,5.3770142,4.0248413C5.145874,3.2409058,5,2.4041748,5,1.5C5,1.223877,4.776123,1,4.5,1S4,1.223877,4,1.5c0,7.2353516,7.4707031,10.8046875,7.7880859,10.953125h0.000061c0.0140381,0.0068359,0.1864624,0.0891113,0.4716187,0.2548828C12.9096069,13.0644531,14.1640015,13.833252,15.4161377,15H11.5c-0.276123,0-0.5,0.223877-0.5,0.5s0.223877,0.5,0.5,0.5h4.8868408c0.742981,0.847168,1.4192505,1.8475342,1.8997192,3H8.5C8.223877,19,8,19.223877,8,19.5S8.223877,20,8.5,20h10.1357422C18.8596802,20.7757568,19,21.6044312,19,22.5v0.0005493C19.0001831,22.7765503,19.223999,23.0001831,19.5,23h0.0006104C19.7765503,22.9998169,20.0001831,22.776001,20,22.5C20,16.6156616,15.0101929,13.1420288,13.0497437,12.0064697z"/></svg>