<svg xmlns="http://www.w3.org/2000/svg" enable-background="new 0 0 24 24" viewBox="0 0 24 24"><path fill="#6563ff" d="M12,14c-0.276123,0-0.5,0.223877-0.5,0.5v3c0,0.0001831,0,0.0003662,0,0.0005493C11.5001831,17.7765503,11.723999,18.0001831,12,18c0.0001831,0,0.0003662,0,0.0006104,0c0.2759399-0.0001831,0.4995728-0.223999,0.4993896-0.5v-3C12.5,14.223877,12.276123,14,12,14z M12,11.875c-0.3451538,0-0.625,0.2798462-0.625,0.625s0.2798462,0.625,0.625,0.625s0.625-0.2798462,0.625-0.625S12.3451538,11.875,12,11.875z M19.8535156,8.1464844l-6-6C13.7597656,2.0526733,13.6326294,2,13.5,2H7C5.3438721,2.0018311,4.0018311,3.3438721,4,5v14c0.0018311,1.6561279,1.3438721,2.9981689,3,3h10c1.6561279-0.0018311,2.9981689-1.3438721,3-3V8.5C20,8.3673706,19.9473267,8.2402344,19.8535156,8.1464844z M14,3.7069702L18.2930298,8h-2.960022C14.5970459,7.9993896,14.0006104,7.4029541,14,6.6669922V3.7069702z M19,19c-0.0014038,1.1040039-0.8959961,1.9985962-2,2H7c-1.1040039-0.0014038-1.9985962-0.8959961-2-2V5c0.0014038-1.1040039,0.8959961-1.9985962,2-2h6v3.6669922C13.0016479,7.9547729,14.0452271,8.9983521,15.3330078,9H19V19z"/></svg>