<svg xmlns="http://www.w3.org/2000/svg" enable-background="new 0 0 24 24" viewBox="0 0 24 24"><path fill="#6563ff" d="M14,11.5h-4c-1.3807373,0-2.5-1.1192627-2.5-2.5S8.6192627,6.5,10,6.5h5c0.828064,0.0009155,1.4990845,0.671936,1.5,1.5v0.0005493C16.5001831,8.2765503,16.723999,8.5001831,17,8.5h0.0006104C17.2765503,8.4998169,17.5001831,8.276001,17.5,8c-0.0012817-1.380188-1.119812-2.4987183-2.5-2.5h-2.5V3c0-0.276123-0.223877-0.5-0.5-0.5S11.5,2.723877,11.5,3v2.5H10C8.0670166,5.5,6.5,7.0670166,6.5,9s1.5670166,3.5,3.5,3.5h4c1.3807373,0,2.5,1.1192627,2.5,2.5s-1.1192627,2.5-2.5,2.5H9c-0.828064-0.0009155-1.4990845-0.671936-1.5-1.5c0-0.276123-0.223877-0.5-0.5-0.5S6.5,15.723877,6.5,16c0.0012817,1.380188,1.119812,2.4987183,2.5,2.5h2.5v2.5005493C11.5001831,21.2765503,11.723999,21.5001831,12,21.5h0.0006104C12.2765503,21.4998169,12.5001831,21.276001,12.5,21v-2.5H14c1.9329834,0,3.5-1.5670166,3.5-3.5S15.9329834,11.5,14,11.5z"/></svg>