<svg xmlns="http://www.w3.org/2000/svg" enable-background="new 0 0 24 24" viewBox="0 0 24 24"><path fill="#6563ff" d="M19.5,4H8.4994507C8.2234497,4.0001831,7.9998169,4.223999,8,4.5V7H2.5C2.223877,7,2,7.223877,2,7.5S2.223877,8,2.5,8H8v5.5005493C8.0001831,13.7765503,8.223999,14.0001831,8.5,14h0.0006104C8.7765503,13.9998169,9.0001831,13.776001,9,13.5V11h5v8.5005493C14.0001831,19.7765503,14.223999,20.0001831,14.5,20h3c1.380188-0.0012817,2.4987183-1.119812,2.5-2.5v-6.5508423C21.1405029,10.7167358,21.9989014,9.7089233,22,8.5v-2C21.9987183,5.119812,20.880188,4.0012817,19.5,4z M19,17.5c-0.0009155,0.828064-0.671936,1.4990845-1.5,1.5H15v-8h4V17.5z M21,8.5c-0.0009155,0.828064-0.671936,1.4990845-1.5,1.5H9V5h8v1.5006104C17.0001831,6.7765503,17.223999,7.0001831,17.5,7h0.0006104C17.7765503,6.9998169,18.0001831,6.776001,18,6.5V5h1.5c0.828064,0.0009155,1.4990845,0.671936,1.5,1.5V8.5z"/></svg>