<svg xmlns="http://www.w3.org/2000/svg" enable-background="new 0 0 24 24" viewBox="0 0 24 24"><path fill="#6563ff" d="M3.3534546,17.8183594c-0.194397-0.1904907-0.5054932-0.1904907-0.6998901,0c-0.1972046,0.1932983-0.2003784,0.5098267-0.0070801,0.7070312l2.828125,2.828125C5.5682373,21.4474487,5.6954956,21.5001831,5.828125,21.5c0.1325073-0.000061,0.2596436-0.0526733,0.3533325-0.1463623c0.1953125-0.1952515,0.1953735-0.5118408,0.0001221-0.7071533L3.3534546,17.8183594z M17.1387329,6.9171143c-0.0100098-0.0117798-0.0141602-0.0264893-0.0254517-0.0375366c-0.0101929-0.0100098-0.0236816-0.0134277-0.0344849-0.0223999l-2.7965698-2.7965698c-0.194397-0.1904907-0.5054932-0.1904907-0.6998901,0c-0.1972046,0.1932373-0.2003784,0.5097656-0.0071411,0.7069702l2.4750977,2.4750977L7.2426758,16.050293l-2.4750977-2.4750366c-0.194397-0.1905518-0.5054932-0.1905518-0.6998901,0c-0.1972046,0.1932373-0.2003784,0.5097656-0.0071411,0.7069702l2.8161011,2.8161011c0.0082397,0.0087891,0.0162964,0.0168457,0.0250854,0.0250854l2.81604,2.81604c0.0936279,0.0939331,0.2208862,0.1466675,0.3535156,0.1464844v0.000061c0.1325073-0.000061,0.2596436-0.0527344,0.3533936-0.1464233c0.1953125-0.1952515,0.1953125-0.5118408,0.000061-0.7071533L7.949646,16.7573242l8.8076782-8.8076172l2.4750977,2.4750977c0.0936279,0.0939331,0.2208862,0.1466675,0.3535156,0.1464844v0.000061c0.1325684-0.000061,0.2596436-0.0527344,0.3533936-0.1464233c0.1953125-0.1952515,0.1953125-0.5118408,0.000061-0.7071533L17.1387329,6.9171143z M21.3535156,5.4746704l-2.828125-2.828125c-0.194458-0.1905518-0.5055542-0.1905518-0.6999512,0c-0.1971436,0.1932373-0.2003784,0.5097656-0.0070801,0.7069702l2.828125,2.828125C20.7401123,6.2755737,20.8673706,6.3283081,21,6.328125c0.1325073-0.000061,0.2595825-0.0526733,0.3533325-0.1463623C21.548645,5.9865112,21.5487061,5.6699829,21.3535156,5.4746704z"/></svg>