<svg xmlns="http://www.w3.org/2000/svg" enable-background="new 0 0 24 24" viewBox="0 0 24 24"><path fill="#6563ff" d="M15.5018311,2.9384766C14.4371948,2.3235474,13.2294312,1.9998169,12,2C8.1359253,2.0046997,5.0046997,5.1359253,5,9c0,0.276123,0.223877,0.5,0.5,0.5S6,9.276123,6,9c0.0014038-3.3137207,2.6887817-5.9989014,6.0025024-5.9974976S18.0014038,5.6912842,18,9.0050049c-0.0004272,1.0648193-0.2842407,2.1102905-0.8222656,3.0291748L13.5986328,19.5C12.7700195,20.9349976,10.9349976,21.4265747,9.5,20.5979614C8.5718994,20.0620117,8.0001221,19.0717163,8,18c0-0.276123-0.223877-0.5-0.5-0.5S7,17.723877,7,18c-0.0004272,2.2087402,1.7897949,3.9995728,3.9985352,4c1.4432373,0.0002441,2.7747192-0.7771606,3.4838867-2.0341797L18.0615234,12.5C19.9949951,9.152832,18.848999,4.8719482,15.5018311,2.9384766z M11.1621094,7.6962891C11.409729,7.529541,11.7014771,7.4404297,12,7.4404297c0.828064,0.0009155,1.4990845,0.671936,1.5,1.5c0,0.276123,0.223877,0.5,0.5,0.5s0.5-0.223877,0.5-0.5c0-1.3807373-1.1192627-2.5-2.5-2.5c-1.3806763-0.000061-2.5,1.1192627-2.5,2.499939c0,0.4984131,0.1489258,0.9854126,0.4277344,1.3984985c0.1051025,0.15625,0.2280273,0.2998047,0.3662109,0.4277344l0.1123047,0.1171875c0.0662231,0.0645142,0.1269531,0.1344604,0.1816406,0.2089844c0.348999,0.506958,0.348999,1.1766968,0,1.6835938c-0.1564331,0.2276001-0.0986938,0.5389404,0.1289062,0.6953125c0.2276001,0.1564331,0.5388794,0.0986938,0.6953125-0.1289062c0.5847778-0.8499756,0.5831909-1.9729004-0.0039062-2.8212891c-0.0856323-0.1204834-0.1817017-0.2332153-0.2871094-0.3369141l-0.1279297-0.1318359c-0.0894165-0.0819702-0.1690674-0.1740723-0.2373047-0.2744141C10.2930908,9.0911865,10.4749756,8.1590576,11.1621094,7.6962891z"/></svg>