<svg xmlns="http://www.w3.org/2000/svg" enable-background="new 0 0 24 24" viewBox="0 0 24 24"><path fill="#6563ff" d="M15,8.5c-0.8284302,0-1.5,0.6715698-1.5,1.5s0.6715698,1.5,1.5,1.5c0.828064-0.0009155,1.4990845-0.671936,1.5-1.5C16.5,9.1715698,15.8284302,8.5,15,8.5z M15,10.5c-0.276123,0-0.5-0.223877-0.5-0.5s0.223877-0.5,0.5-0.5c0.2759399,0.0005493,0.4994507,0.2240601,0.5,0.5C15.5,10.276123,15.276123,10.5,15,10.5z M12,2C6.4771729,2,2,6.4771729,2,12s4.4771729,10,10,10c5.5202026-0.0062866,9.9937134-4.4797974,10-10C22,6.4771729,17.5228271,2,12,2z M12,21c-4.9705811,0-9-4.0294189-9-9s4.0294189-9,9-9c4.9682617,0.0056152,8.9943848,4.0317383,9,9C21,16.9705811,16.9705811,21,12,21z M10.5,10c0-0.8284302-0.6715698-1.5-1.5-1.5S7.5,9.1715698,7.5,10s0.6715698,1.5,1.5,1.5C9.828064,11.4990845,10.4990845,10.828064,10.5,10z M8.5,10c0-0.276123,0.223877-0.5,0.5-0.5C9.276001,9.5003662,9.4996338,9.723999,9.5,10c0,0.276123-0.223877,0.5-0.5,0.5S8.5,10.276123,8.5,10z M15.8179932,13.8864136c0.2148438-0.1738281,0.2481079-0.4888916,0.0742798-0.7037354s-0.4889526-0.2481079-0.7037964-0.0742798C14.781189,13.4776001,14.5142822,13.9683838,14.4160767,14.5H9.9609985c-0.0952759-0.539917-0.3695679-1.0373535-0.7919922-1.4023438c-0.2190552-0.1606445-0.5265503-0.1154175-0.6900024,0.1015625c-0.1642456,0.21875-0.1241455,0.5285034,0.090332,0.6982422C8.8676758,14.184021,9.0250854,14.5870972,9,15c0.0140991,0.4147339-0.1449585,0.8165894-0.4390259,1.109375c-0.1192017,0.0949707-0.1885376,0.2391357-0.1883545,0.3915405C8.3729858,16.7768555,8.5969849,17.0003662,8.8729858,17c0.1132202,0.0003662,0.2230225-0.038269,0.3110962-0.109375C9.5914307,16.5218506,9.8583374,16.0313721,9.9562988,15.5h4.4545898c0.0951538,0.5401611,0.3699951,1.0377808,0.7932129,1.4023438c0.0840454,0.0627441,0.1861572,0.0966187,0.2910156,0.0966797c0.1540527-0.0003052,0.2994385-0.0714111,0.3942261-0.1928101c0.1704102-0.2182617,0.1316528-0.5332642-0.0866089-0.7036743C15.5043945,15.815979,15.3469849,15.4129028,15.3720703,15c-0.0145264-0.4145508,0.1447754-0.8164062,0.4393921-1.1083984C15.8136597,13.8898926,15.8157959,13.8881836,15.8179932,13.8864136z"/></svg>