<svg xmlns="http://www.w3.org/2000/svg" enable-background="new 0 0 24 24" viewBox="0 0 24 24"><path fill="#6563ff" d="M19.5,6C19.223877,6,19,6.223877,19,6.5V11c-0.0009155,0.828064-0.671936,1.4990845-1.5,1.5H5.7069702l2.6464844-2.6464844c0.1871948-0.1937866,0.1871948-0.5009766,0-0.6947021C8.1616211,8.9602051,7.8450928,8.9546509,7.6464844,9.1465454l-3.5,3.5c-0.000061,0-0.0001221,0.000061-0.0001221,0.0001221c-0.1951904,0.1951904-0.1951294,0.5117188,0.0001221,0.7068481l3.5,3.5C7.7401123,16.9474487,7.8673706,17.0001831,8,17c0.1325684,0,0.2597046-0.0526733,0.3533936-0.1464233c0.1953125-0.1952515,0.1953125-0.5118408,0.0001221-0.7070923L5.7069702,13.5H17.5c1.380188-0.0012817,2.4987183-1.119812,2.5-2.5V6.5C20,6.223877,19.776123,6,19.5,6z"/></svg>