<svg xmlns="http://www.w3.org/2000/svg" enable-background="new 0 0 24 24" viewBox="0 0 24 24"><path fill="#6563ff" d="M16.5078125,10.9736328h-9c-1.380188,0.0012817-2.4987183,1.119812-2.5,2.5v6c0.0012817,1.380188,1.119812,2.4987183,2.5,2.5h9c1.380188-0.0012817,2.4987183-1.119812,2.5-2.5v-6C19.0065308,12.0934448,17.8880005,10.9749146,16.5078125,10.9736328z M7.5078125,11.9736328h9c0.2305908,0.0002441,0.4463501,0.0567017,0.6414795,0.1497803L13.0625,16.2022705c-0.5872192,0.5736084-1.5252686,0.5727539-2.1113892-0.0020142L6.866333,12.1234131C7.0614624,12.0303345,7.2772827,11.973877,7.5078125,11.9736328z M18.0078125,19.4736328c-0.0009155,0.828064-0.671936,1.4990845-1.5,1.5h-9c-0.828064-0.0009155-1.4990845-0.671936-1.5-1.5v-6c0.0002441-0.2315063,0.0571899-0.447998,0.151001-0.6437378l4.083374,4.0753784c0.4646606,0.4748535,1.1012573,0.7420654,1.765625,0.7412109c0.6633911,0.0010376,1.2992554-0.2654419,1.7636719-0.7391968l4.0853271-4.0773926c0.093811,0.1957397,0.1507568,0.4122314,0.151001,0.6437378V19.4736328z M9.0078125,6.4736328h4.7929688l-1.6464844,1.6464844c-0.093689,0.09375-0.1463623,0.2208862-0.1464233,0.3534546c0,0.276123,0.2238159,0.5,0.499939,0.500061c0.1326294,0.0001221,0.2598267-0.0525513,0.3535156-0.1464844l2.5-2.5c0-0.000061,0.000061-0.0001221,0.0001221-0.0001221c0.1951294-0.1952515,0.1950684-0.5117188-0.0001221-0.7068481l-2.5-2.5c-0.194397-0.1905518-0.5054932-0.1905518-0.6998901,0c-0.1972046,0.1932373-0.2003784,0.5097656-0.0071411,0.7069702l1.6464844,1.6464844H9.0078125c-0.276123,0-0.5,0.223877-0.5,0.5S8.7316895,6.4736328,9.0078125,6.4736328z"/></svg>