<svg xmlns="http://www.w3.org/2000/svg" enable-background="new 0 0 24 24" viewBox="0 0 24 24"><path fill="#6563ff" d="M21.5078125,9.9736328c-0.276123,0-0.5,0.223877-0.5,0.5v7c-0.0009155,0.828064-0.671936,1.4990845-1.5,1.5h-15c-0.828064-0.0009155-1.4990845-0.671936-1.5-1.5v-11c0.0002441-0.241272,0.0626831-0.4659424,0.1640625-0.6678467c0.0213013,0.0384521,0.039978,0.0782471,0.0722656,0.1112061l7,7c0.4674683,0.4680786,1.1021729,0.7305908,1.7636719,0.7294922c0.661499,0.0011597,1.2962036-0.2614136,1.7636719-0.7294922l2.4696655-2.4697266c0.1905518-0.194397,0.1905518-0.5054932,0-0.6998901c-0.1932373-0.1972046-0.5098267-0.2003784-0.7069702-0.0071411l-2.4697876,2.4697266c-0.5841675,0.5820312-1.5290527,0.5820312-2.1132812,0l-7-7C3.9182739,5.1777954,3.8786621,5.1588135,3.840271,5.1375122C4.0421143,5.0362549,4.2666626,4.973877,4.5078125,4.9736328h9c0.276123,0,0.5-0.223877,0.5-0.5s-0.223877-0.5-0.5-0.5h-9c-1.380188,0.0012817-2.4987183,1.119812-2.5,2.5v11c0.0012817,1.380188,1.119812,2.4987183,2.5,2.5h15c1.380188-0.0012817,2.4987183-1.119812,2.5-2.5v-7C22.0078125,10.1975098,21.7839355,9.9736328,21.5078125,9.9736328z M17.5078125,4.9736328h1.5v1.5c0,0.0001831,0,0.0003662,0,0.0005493c0.0001831,0.276001,0.223999,0.4995728,0.5,0.4994507c0.0001831,0,0.0003662,0,0.0005493,0c0.276001-0.0001831,0.4996338-0.223999,0.4994507-0.5v-1.5h1.5c0.276123,0,0.5-0.223877,0.5-0.5s-0.223877-0.5-0.5-0.5h-1.5v-1.5c0-0.276123-0.223877-0.5-0.5-0.5s-0.5,0.223877-0.5,0.5v1.5h-1.5c-0.276123,0-0.5,0.223877-0.5,0.5S17.2316895,4.9736328,17.5078125,4.9736328z"/></svg>