<svg xmlns="http://www.w3.org/2000/svg" enable-background="new 0 0 24 24" viewBox="0 0 24 24"><path fill="#6563ff" d="M21.5078125,12c-0.276123,0-0.5,0.223877-0.5,0.5v5c-0.0008545,0.828064-0.671936,1.4990845-1.5,1.5h-15c-0.8280029-0.0009155-1.4990845-0.671936-1.5-1.5v-11c0.0002441-0.237915,0.0609131-0.4598389,0.159668-0.659668l7.0766602,7.0766602c0.4674683,0.4680786,1.1021729,0.7305908,1.7636719,0.7294922c0.661499,0.0011597,1.2962036-0.2614136,1.7636719-0.7294922l1.6395874-1.6396484c0.1904907-0.194397,0.1904907-0.5054321,0-0.6998291c-0.1932373-0.1972046-0.5097656-0.2004395-0.7070312-0.0072021l-1.6396484,1.6396484c-0.5841675,0.5820312-1.5290527,0.5820312-2.1132812,0L3.8822632,5.1411133C4.0731812,5.0529175,4.2837524,5.0002441,4.5078125,5h8c0.2761841,0,0.5-0.223877,0.5-0.5s-0.2238159-0.5-0.5-0.5h-8c-1.380127,0.0012817-2.4987183,1.119812-2.5,2.5v11c0.0012817,1.380188,1.119873,2.4987183,2.5,2.5h15c1.380188-0.0012817,2.4987793-1.119812,2.5-2.5v-5C22.0078125,12.223877,21.7839966,12,21.5078125,12z M22.8613281,3.1465454l-3-3c0-0.000061-0.000061-0.0001221-0.0001221-0.0001831c-0.1952515-0.1951294-0.5117188-0.1950684-0.7068481,0.0001831l-3,3c-0.1905518,0.194397-0.1905518,0.5054932,0,0.6998901c0.1932983,0.1972046,0.5098267,0.2003784,0.7069702,0.0070801l2.1464844-2.1464844v6.7935181c0.0001831,0.276001,0.2240601,0.4996338,0.5,0.4994507h0.0006104c0.276001-0.0001831,0.4995728-0.223999,0.4993896-0.5V1.7070312l2.1465454,2.1464844C22.2479858,3.9474487,22.3751831,4.0001831,22.5078125,4c0.1325684,0,0.2597046-0.0526733,0.3534546-0.1463623C23.0565796,3.6583862,23.0565796,3.3417969,22.8613281,3.1465454z"/></svg>