<svg xmlns="http://www.w3.org/2000/svg" enable-background="new 0 0 24 24" viewBox="0 0 24 24"><path fill="#6563ff" d="M21.5078125,11.9736328c-0.276123,0-0.5,0.223877-0.5,0.5v5c-0.0009155,0.828064-0.671936,1.4990845-1.5,1.5h-15c-0.828064-0.0009155-1.4990845-0.671936-1.5-1.5v-11c0.0002441-0.2310181,0.0570068-0.4471436,0.1503906-0.6425781l7.0859375,7.0859375c0.4674683,0.4680786,1.1021729,0.7305908,1.7636719,0.7294922c0.661499,0.0011597,1.2962036-0.2614136,1.7636719-0.7294922l1.0897827-1.0898438c0.0024414-0.0023804,0.0048218-0.0047607,0.0071411-0.0071411c0.1932983-0.1972046,0.1900635-0.5137939-0.0071411-0.7070312s-0.5137329-0.1900635-0.7069702,0.0072021l-1.0899048,1.0897827c-0.5841675,0.5820312-1.5290527,0.5820312-2.1132812,0L3.8651733,5.1240234C4.0606079,5.0305786,4.2767944,4.973877,4.5078125,4.9736328h6c0.276123,0,0.5-0.223877,0.5-0.5s-0.223877-0.5-0.5-0.5h-6c-1.380188,0.0012817-2.4987183,1.119812-2.5,2.5v11c0.0012817,1.380188,1.119812,2.4987183,2.5,2.5h15c1.380188-0.0012817,2.4987183-1.119812,2.5-2.5v-5C22.0078125,12.1975098,21.7839355,11.9736328,21.5078125,11.9736328z M22.5078125,0.9736328c-0.276123,0-0.5,0.223877-0.5,0.5v1.1987915c-0.8349609-1.0430298-2.1045532-1.6997681-3.5062866-1.6987915c-2.4852295,0.001709-4.4985962,2.0178223-4.4968262,4.5031128c0.001709,2.4852905,2.0178223,4.4985962,4.5031128,4.4968872c1.0927734-0.0033569,2.1473389-0.4022827,2.96875-1.1229858c0.2081909-0.1817627,0.2296143-0.4978638,0.0478516-0.7060547s-0.4978638-0.2296143-0.7060547-0.0478516c-0.414856,0.3661499-0.9105225,0.6288452-1.4464722,0.7666016c-1.8745117,0.4818726-3.784729-0.6471558-4.2666016-2.5216675s0.6470947-3.784729,2.5216675-4.2666016c1.6553955-0.4255371,3.3349609,0.4074707,4.0376587,1.8985596h-2.1567993c-0.276123,0-0.5,0.223877-0.5,0.5s0.223877,0.5,0.5,0.5h3.0005493c0.276001-0.0001831,0.4996338-0.223999,0.4994507-0.5v-3C23.0078125,1.1975098,22.7839355,0.9736328,22.5078125,0.9736328z"/></svg>