<svg xmlns="http://www.w3.org/2000/svg" enable-background="new 0 0 24 24" viewBox="0 0 24 24"><path fill="#6563ff" d="M11.1542969,8.8271484c0.0936279,0.0939331,0.2208862,0.1466675,0.3535156,0.1464844c0.1325684,0,0.2597046-0.0526733,0.3534546-0.1464233c0.1952515-0.1952515,0.1953125-0.5117798,0.000061-0.7070923l-1.6464844-1.6464844h4.7929688c0.276123,0,0.5-0.223877,0.5-0.5s-0.223877-0.5-0.5-0.5h-4.7929688l1.6536255-1.6536255c0.1932373-0.1972046,0.1900635-0.5137329-0.0071411-0.7070312c-0.1972656-0.1932373-0.5137939-0.1900024-0.7070312,0.0072021l-2.5,2.5c-0.000061,0.000061-0.0001221,0.000061-0.0001831,0.0001221C8.4589844,5.8155518,8.4590454,6.132019,8.6542969,6.3271484L11.1542969,8.8271484z M16.5078125,10.9736328h-9c-1.380188,0.0012817-2.4987183,1.119812-2.5,2.5v6c0.0012817,1.380188,1.119812,2.4987183,2.5,2.5h9c1.380188-0.0012817,2.4987183-1.119812,2.5-2.5v-6C19.0065308,12.0934448,17.8880005,10.9749146,16.5078125,10.9736328z M7.5078125,11.9736328h9c0.2302246,0.0002441,0.4457397,0.0565186,0.640625,0.149292L13.0625,16.2022705c-0.5872192,0.5736084-1.5252686,0.5727539-2.1113892-0.0020142l-4.0839233-4.0773315C7.0621338,12.0300903,7.2775879,11.973877,7.5078125,11.9736328z M18.0078125,19.4736328c-0.0009155,0.828064-0.671936,1.4990845-1.5,1.5h-9c-0.828064-0.0009155-1.4990845-0.671936-1.5-1.5v-6c0.0002441-0.2318115,0.0574341-0.4487305,0.1514893-0.6446533l4.0828857,4.0762939c0.4646606,0.4748535,1.1012573,0.7420654,1.765625,0.7412109c0.6633911,0.0010376,1.2992554-0.2654419,1.7636719-0.7391968l4-3.9902344l0.0859985-0.0859985c0.0933838,0.1954346,0.1500854,0.4115601,0.1503296,0.6425781V19.4736328z"/></svg>