<svg xmlns="http://www.w3.org/2000/svg" enable-background="new 0 0 24 24" viewBox="0 0 24 24"><path fill="#6563ff" d="M9.8681641,5.4208984l1.6396484-1.7055054v4.7587891c0.0001221,0.276001,0.223999,0.4995728,0.5,0.4994507h0.0005493c0.276001-0.0001831,0.4996338-0.223999,0.4994507-0.5V3.7153931l1.6396484,1.7055054c0.0942993,0.0979614,0.2243652,0.1533203,0.3603516,0.1533203c0.1292725,0,0.25354-0.0500488,0.3467407-0.1397095c0.1989746-0.1914673,0.2050781-0.5079956,0.0136108-0.7069702l-2.5-2.6005859c-0.2005615-0.1953125-0.5201416-0.1953125-0.7207031,0l-2.5,2.6005859C8.9559937,4.9265747,8.9620972,5.243103,9.1611328,5.4345703S9.6766968,5.6199341,9.8681641,5.4208984z M16.5078125,10.9736328h-9c-1.380127,0.0014648-2.4985352,1.119873-2.5,2.5v6c0.0014648,1.380127,1.119873,2.4985352,2.5,2.5h9c1.380188-0.0012817,2.4987183-1.119812,2.5-2.5v-6C19.0065308,12.0934448,17.8880005,10.9749146,16.5078125,10.9736328z M7.5078125,11.9736328h9c0.2305908,0.0002441,0.4463501,0.0567017,0.6414795,0.1497803L13.0625,16.2022095c-0.2774658,0.2839966-0.6576538,0.4441528-1.0546875,0.4443359c-0.3979492-0.0003662-0.7789307-0.1612549-1.0566406-0.4462891L6.866333,12.1234131C7.0614624,12.0303345,7.2772217,11.973877,7.5078125,11.9736328z M18.0078125,19.4736328c-0.0009155,0.828064-0.671936,1.4990845-1.5,1.5h-9c-0.828064-0.0009155-1.4990845-0.671936-1.5-1.5v-6c0.0002441-0.2316895,0.057373-0.4484253,0.1513062-0.6442871l4.0830688,4.0759277c0.4645386,0.4747314,1.1009521,0.7420044,1.7651367,0.7412109h0.0004883c0.6633911,0.0009766,1.2991943-0.265564,1.7636719-0.7392578l4.0853271-4.0773315c0.093811,0.1957397,0.1507568,0.4122314,0.151001,0.6437378V19.4736328z"/></svg>