<svg xmlns="http://www.w3.org/2000/svg" enable-background="new 0 0 24 24" viewBox="0 0 24 24"><path fill="#6563ff" d="M16.5,11h-9c-1.380188,0.0012817-2.4987183,1.119812-2.5,2.5v6c0.0012817,1.380188,1.119812,2.4987183,2.5,2.5h9c1.380188-0.0012817,2.4987183-1.119812,2.5-2.5v-6C18.9987183,12.119812,17.880188,11.0012817,16.5,11z M7.5,12h9c0.2302246,0.0002441,0.4457397,0.0565186,0.640625,0.149292l-4.0859375,4.0793457c-0.5872192,0.5736084-1.5252686,0.5727539-2.1113281-0.0020142L6.859375,12.149292C7.0542603,12.0564575,7.2697754,12.0002441,7.5,12z M18,19.5c-0.0009155,0.828064-0.671936,1.4990845-1.5,1.5h-9c-0.828064-0.0009155-1.4990845-0.671936-1.5-1.5v-6c0.0002441-0.2318115,0.0574341-0.4487305,0.1514893-0.6446533l4.0828857,4.0762939C10.6990356,17.4064941,11.3356323,17.6737061,12,17.6728516c0.6634521,0.0010376,1.2992554-0.2654419,1.7636719-0.7391968l4-3.9902344l0.0859985-0.0859985C17.9430542,13.0528564,17.9997559,13.2689819,18,13.5V19.5z M11.6484375,8.8536987c0.1952515,0.1951294,0.5117188,0.1950684,0.7068481-0.0001831l2.5-2.5C14.9492188,6.2598877,15.0018921,6.1326294,15.00177,6c-0.000061-0.1325684-0.0526733-0.2597046-0.1464233-0.3534546c-0.1952515-0.1952515-0.5118408-0.1953125-0.7070923-0.000061L12.50177,7.2929688V2.5c0-0.276123-0.223877-0.5-0.5-0.5c-0.2761841,0-0.5,0.223877-0.5,0.5v4.7929688L9.8481445,5.6393433C9.6509399,5.446106,9.3344116,5.4492798,9.1411133,5.6464844C8.947876,5.843689,8.9510498,6.1602783,9.1482544,6.3535156L11.6484375,8.8536987z"/></svg>