<svg xmlns="http://www.w3.org/2000/svg" enable-background="new 0 0 24 24" viewBox="0 0 24 24"><path fill="#6563ff" d="M21.5078125,11.9736328c-0.276123,0-0.5,0.223877-0.5,0.5v5c-0.0009155,0.828064-0.671936,1.4990845-1.5,1.5h-15c-0.828064-0.0009155-1.4990845-0.671936-1.5-1.5v-11c0.0002441-0.2310181,0.0570068-0.4471436,0.1503906-0.6425781l7.0859375,7.0859375c0.461853,0.4665527,1.0905762,0.7297974,1.7470703,0.7314453c0.4145508-0.0006714,0.8222656-0.1057739,1.1855469-0.3056641c0.0012207-0.0006104,0.0024414-0.0012817,0.0036621-0.0019531c0.2415771-0.1331787,0.3295288-0.4369507,0.1963501-0.6785889c-0.1331177-0.2415771-0.4369507-0.3295288-0.6785889-0.1964111c-0.5741577,0.3143921-1.2871094,0.2099609-1.7470703-0.2558594L3.8651733,5.1240234C4.0606079,5.0305786,4.2767944,4.973877,4.5078125,4.9736328h9c0.276123,0,0.5-0.223877,0.5-0.5s-0.223877-0.5-0.5-0.5h-9c-1.380188,0.0012817-2.4987183,1.119812-2.5,2.5v11c0.0012817,1.380188,1.119812,2.4987183,2.5,2.5h15c1.380188-0.0012817,2.4987183-1.119812,2.5-2.5v-5C22.0078125,12.1975098,21.7839355,11.9736328,21.5078125,11.9736328z M16.274353,9.9130859c0.1640015,0.0857544,0.3616943,0.0752563,0.515625-0.0273438l2.2178345-1.4873047l2.2001953,1.4755859c0.0866089,0.0645752,0.1917725,0.0994873,0.2998047,0.0996094h0.0003662c0.276001-0.0001221,0.4996948-0.223938,0.4995728-0.5V1.4730835c-0.0001221-0.276001-0.223999-0.4996338-0.5-0.4994507h-5.0005493c-0.276001,0.0001831-0.4995728,0.223999-0.4994507,0.5v8C16.0085449,9.6581421,16.111084,9.8271484,16.274353,9.9130859z M17.0078125,1.9736328h4v6.5625l-1.7216797-1.1542969c-0.1682739-0.1132812-0.3883667-0.1132812-0.5566406,0l-1.7216797,1.1542969V1.9736328z"/></svg>