<svg xmlns="http://www.w3.org/2000/svg" enable-background="new 0 0 24 24" viewBox="0 0 24 24"><path fill="#6563ff" d="M19.5079346,7.848877c-0.3452148,0-0.625,0.2797852-0.625,0.625c0,0.3451538,0.2797852,0.625,0.625,0.625c0.3451538,0,0.625-0.2798462,0.625-0.625C20.1329346,8.1286621,19.8530884,7.848877,19.5079346,7.848877z M17.5078125,3.9736328c0.276123,0,0.5-0.223877,0.5-0.5c0.0001831-0.645752,0.4135132-1.2189331,1.026123-1.4230957c0.7861328-0.2619019,1.6358032,0.1630859,1.8977051,0.9492188c0.2619019,0.7861938-0.1630859,1.6358032-0.9492188,1.8977051c-0.5986328,0.2161255-0.991394,0.7915039-0.9746094,1.4277344v0.1489868c0.0001831,0.276001,0.223999,0.4995728,0.5,0.4994507h0.0005493c0.276001-0.0001831,0.4996338-0.223999,0.4994507-0.5V6.3251953c-0.0112915-0.2040405,0.1038818-0.394104,0.289978-0.4785156c1.020752-0.3399658,1.7095337-1.2948608,1.710022-2.3707275c0.0006104-1.3807373-1.1181641-2.5005493-2.4988403-2.5011597c-1.3807373-0.0006714-2.5005493,1.118103-2.5011597,2.4988403C17.0078125,3.7497559,17.2316895,3.9736328,17.5078125,3.9736328z M21.5078125,11.9736328c-0.276123,0-0.5,0.223877-0.5,0.5v5c-0.0009155,0.828064-0.671936,1.4990845-1.5,1.5h-15c-0.828064-0.0009155-1.4990845-0.671936-1.5-1.5v-11c0.0002441-0.2310181,0.0570068-0.4471436,0.1503906-0.6425781l7.0859375,7.0859375c0.4674683,0.4680786,1.1021729,0.7305908,1.7636719,0.7294922c0.661499,0.0011597,1.2962036-0.2614136,1.7636719-0.7294922l1.6395874-1.6396484c0.1904907-0.194397,0.1904907-0.5054321,0-0.6998291c-0.1932373-0.1972046-0.5097656-0.2004395-0.7070312-0.0072021l-1.6396484,1.6396484c-0.5841675,0.5820312-1.5290527,0.5820312-2.1132812,0L3.8651733,5.1240234C4.0606079,5.0305786,4.2767944,4.973877,4.5078125,4.9736328h9c0.276123,0,0.5-0.223877,0.5-0.5s-0.223877-0.5-0.5-0.5h-9c-1.380188,0.0012817-2.4987183,1.119812-2.5,2.5v11c0.0012817,1.380188,1.119812,2.4987183,2.5,2.5h15c1.380188-0.0012817,2.4987183-1.119812,2.5-2.5v-5C22.0078125,12.1975098,21.7839355,11.9736328,21.5078125,11.9736328z"/></svg>