<svg xmlns="http://www.w3.org/2000/svg" enable-background="new 0 0 24 24" viewBox="0 0 24 24"><path fill="#6563ff" d="M20.2451172,8.9990234c-0.00177-0.001709-0.0041504-0.0021362-0.0059204-0.0037842l-6.5574951-6.3272095c-0.9384766-0.8894043-2.4087524-0.8889771-3.3466797,0.0009766L3.7806396,8.9920654C3.7796631,8.992981,3.7783203,8.9932251,3.7773438,8.9941406c-0.4562378,0.4233398-0.7143555,1.0183105-0.7119141,1.640625v9.0488281c0.0194702,1.2935181,1.0823975,2.3272095,2.3759766,2.3105469h13.1328125c1.2935791,0.0166626,2.3565063-1.0170288,2.3759766-2.3105469v-9.0488281C20.9485474,10.0161133,20.6937866,9.4250488,20.2451172,8.9990234z M11.0292969,3.3877563c0.5496216-0.5195312,1.4093018-0.5195312,1.9589844,0l6.3452148,6.1213989l-6.3178711,6.0904541C12.4504395,16.135498,11.5646362,16.1350708,11,15.5986328L4.6826782,9.5095825L11.0292969,3.3877563z M19.9501953,19.6835938c-0.0192871,0.741333-0.6345825,1.3273926-1.3759766,1.3105469H5.4414062c-0.741394,0.0168457-1.3566895-0.5692139-1.3759766-1.3105469v-9.0488281c-0.0002441-0.0960693,0.0357056-0.1843262,0.0569458-0.2763062l5.3528442,5.1586304l-1.7340088,1.6665649c-0.0980225,0.0942383-0.1533813,0.2244263-0.1533813,0.3604126c0.000061,0.276123,0.223938,0.499939,0.500061,0.499939c0.1293335,0.0003052,0.2536621-0.0498047,0.3466797-0.1397095l1.7612915-1.692688l0.1107788,0.1067505c0.4573364,0.4387817,1.0673828,0.6824951,1.7011719,0.6796875c0.633606,0.0027466,1.2434692-0.2406006,1.7011719-0.6787109l0.1148682-0.1107178l1.7562256,1.6947632c0.1984863,0.1919556,0.5150146,0.1867676,0.7070312-0.0117188s0.1867676-0.5150757-0.0117188-0.7070312l-1.7310791-1.6704712l5.3474121-5.1541138c0.0215454,0.0914917,0.0577393,0.1791382,0.0584717,0.2747192V19.6835938z"/></svg>