<svg xmlns="http://www.w3.org/2000/svg" enable-background="new 0 0 24 24" viewBox="0 0 24 24"><path fill="#6563ff" d="M19,4H5C3.3438721,4.0018311,2.0018311,5.3438721,2,7v10c0.0018311,1.6561279,1.3438721,2.9981689,3,3h14c1.6561279-0.0018311,2.9981689-1.3438721,3-3V7C21.9981689,5.3438721,20.6561279,4.0018311,19,4z M5,5h14c0.3700562,0.0004883,0.7121582,0.1081543,1.0093994,0.2835693l-6.9488525,6.9488525c-0.5864868,0.5840454-1.534668,0.5840454-2.1211548,0L3.9905396,5.2835693C4.2877808,5.1081543,4.6299438,5.0004883,5,5z M21,17c-0.0014038,1.1040039-0.8959961,1.9985962-2,2H5c-1.1040039-0.0014038-1.9985962-0.8959961-2-2V7c0.0004883-0.3700562,0.1081543-0.7121582,0.2835693-1.0093994l6.9488525,6.9488525C10.7008057,13.4087524,11.3369751,13.6719971,12,13.6708984c0.6630249,0.0010376,1.2991333-0.262146,1.7675171-0.7314453l6.9489136-6.9489136C20.8918457,6.2877808,20.9995117,6.6299438,21,7V17z"/></svg>