<svg xmlns="http://www.w3.org/2000/svg" enable-background="new 0 0 24 24" viewBox="0 0 24 24"><path fill="#6563ff" d="M17.8261719,10.3271484c0.0936279,0.0939331,0.2208862,0.1466675,0.3535156,0.1464844c0.1326294,0.0001831,0.2598877-0.0525513,0.3535156-0.1464844L21.7041016,7.15625c1.0693359-1.0718994,1.0693359-2.8070679,0-3.8789062c-0.9556274-0.9220581-2.4271851-1.046814-3.5244141-0.2988281c-1.0908203-0.7728882-2.5799561-0.6467285-3.5253296,0.2985229c-1.071228,1.071228-1.071228,2.8079834-0.000061,3.8792114L17.8261719,10.3271484z M16.59375,3.4746094c0.4622803-0.0007935,0.9058228,0.1826782,1.2324219,0.5097656c0.000061,0.000061,0.0001221,0.0001221,0.0001831,0.0001831c0.1952515,0.1951294,0.5117188,0.1950684,0.7068481-0.0001831c0.6898193-0.6572266,1.7740479-0.6572266,2.4638672,0c0.6796875,0.6810303,0.6796875,1.7838135,0,2.4648438l-2.8173828,2.8173828l-2.8183594-2.8173828c-0.3272705-0.3269653-0.5110474-0.770752-0.5108032-1.2333984C14.8511353,4.2536011,15.6315918,3.4740601,16.59375,3.4746094z M21.5078125,11.9736328c-0.276123,0-0.5,0.223877-0.5,0.5v5c-0.0009155,0.828064-0.671936,1.4990845-1.5,1.5h-15c-0.828064-0.0009155-1.4990845-0.671936-1.5-1.5v-11c0.0002441-0.2310181,0.0569458-0.4471436,0.1503296-0.6425781l7.0859375,7.0859375c0.4645386,0.4660645,1.0959473,0.7272339,1.7539062,0.7255859c0.6768188-0.0014038,1.3251343-0.2723389,1.8017578-0.7528687l0.8896484-0.8798828c0.0032349-0.0031738,0.0064697-0.0063477,0.0096436-0.0095825c0.1937256-0.1968384,0.1911621-0.5134277-0.0056763-0.7070923s-0.5134277-0.1911011-0.7070923,0.0057373l-0.921875,0.9110718c-0.5842285,0.5820923-1.5291138,0.5820923-2.1132812,0L3.8651123,5.1240234C4.0606079,5.0305786,4.2767944,4.973877,4.5078125,4.9736328h6c0.276123,0,0.5-0.223877,0.5-0.5s-0.223877-0.5-0.5-0.5h-6c-1.380188,0.0012817-2.4987183,1.119812-2.5,2.5v11c0.0012817,1.380188,1.119812,2.4987183,2.5,2.5h15c1.380188-0.0012817,2.4987183-1.119812,2.5-2.5v-5C22.0078125,12.1975098,21.7839355,11.9736328,21.5078125,11.9736328z"/></svg>