<svg xmlns="http://www.w3.org/2000/svg" enable-background="new 0 0 24 24" viewBox="0 0 24 24"><path fill="#6563ff" d="M21.5078125,11.9736328c-0.276123,0-0.5,0.223877-0.5,0.5v5c-0.0009155,0.828064-0.671936,1.4990845-1.5,1.5h-15c-0.828064-0.0009155-1.4990845-0.671936-1.5-1.5v-11c0.0002441-0.2310181,0.0570068-0.4471436,0.1503906-0.6425781l7.0859375,7.0859375c0.4674683,0.4680786,1.1021729,0.7305908,1.7636719,0.7294922c0.661499,0.0011597,1.2962036-0.2614136,1.7636719-0.7294922l1.0897827-1.0898438c0.0024414-0.0023804,0.0048218-0.0047607,0.0071411-0.0071411c0.1932983-0.1972046,0.1900635-0.5137939-0.0071411-0.7070312s-0.5137329-0.1900635-0.7069702,0.0072021l-1.0899048,1.0897827c-0.5841675,0.5820312-1.5290527,0.5820312-2.1132812,0L3.8651733,5.1240234C4.0606079,5.0305786,4.2767944,4.973877,4.5078125,4.9736328h6c0.276123,0,0.5-0.223877,0.5-0.5s-0.223877-0.5-0.5-0.5h-6c-1.380188,0.0012817-2.4987183,1.119812-2.5,2.5v11c0.0012817,1.380188,1.119812,2.4987183,2.5,2.5h15c1.380188-0.0012817,2.4987183-1.119812,2.5-2.5v-5C22.0078125,12.1975098,21.7839355,11.9736328,21.5078125,11.9736328z M15.3727417,8.6876831c0.8096924,0.7911987,1.9136353,1.282959,3.1350708,1.2839966c1.1932983,0.0021973,2.3382568-0.4711914,3.1816406-1.3154297c0.8431396-0.8423462,1.3173218-1.9850464,1.3183594-3.1768799c0.0021362-2.4831543-2.0091553-4.4978638-4.4923096-4.5s-4.4978638,2.0091553-4.5,4.4923096c-0.0010376,1.2218628,0.4890747,2.3270874,1.2793579,3.1381226C15.3182373,8.6390991,15.3434448,8.6643066,15.3727417,8.6876831z M20.9824219,7.9492188c-1.2608032,1.2039185-3.1741943,1.2990112-4.5529175,0.3106689l4.8707886-4.8717041C22.3253174,4.7590332,22.2282104,6.7033691,20.9824219,7.9492188z M18.5078125,1.9736938v-0.000061c0.7590942,0.0001221,1.4851074,0.2579346,2.0861816,0.7068481L15.7145996,7.56073c-0.4488525-0.6011353-0.706665-1.3272095-0.7067261-2.0863647C15.0076294,3.5411987,16.574646,1.973877,18.5078125,1.9736938z"/></svg>