<svg xmlns="http://www.w3.org/2000/svg" enable-background="new 0 0 24 24" viewBox="0 0 24 24"><path fill="#6563ff" d="M13.5,10h2.4199219c0.1328125,0,0.2597656-0.0527344,0.3535156-0.1464844l5.5800781-5.5800781c0.1953125-0.1953125,0.1953125-0.5117188,0-0.7070312l-2.4199219-2.4199219c-0.1953125-0.1953125-0.5117188-0.1953125-0.7070312,0l-5.5800781,5.5800781C13.0527344,6.8203125,13,6.9472656,13,7.0800781V9.5C13,9.7763672,13.2236328,10,13.5,10z M14,7.2871094l5.0800781-5.0800781l1.7128906,1.7128906L15.7128906,9H14V7.2871094z M21.5,9C21.2236328,9,21,9.2236328,21,9.5v8c0,0.8271484-0.6728516,1.5-1.5,1.5h-15C3.6728516,19,3,18.3271484,3,17.5v-11c0-0.2324219,0.0576172-0.4499512,0.1523438-0.6464844l7.0859375,7.0859375c0.4863281,0.4863281,1.125,0.7294922,1.7636719,0.7294922s1.2773438-0.2431641,1.7636719-0.7294922c0.1953125-0.1953125,0.1953125-0.5117188,0-0.7070312s-0.5117188-0.1953125-0.7070312,0c-0.5820312,0.5820312-1.53125,0.5820312-2.1132812,0L3.861145,5.1482544C4.0557251,5.0558472,4.2706909,5,4.5,5h6C10.7763672,5,11,4.7763672,11,4.5S10.7763672,4,10.5,4h-6C3.1210938,4,2,5.1210938,2,6.5v11C2,18.8789062,3.1210938,20,4.5,20h15c1.3789062,0,2.5-1.1210938,2.5-2.5v-8C22,9.2236328,21.7763672,9,21.5,9z"/></svg>