<svg xmlns="http://www.w3.org/2000/svg" enable-background="new 0 0 24 24" viewBox="0 0 24 24"><path fill="#6563ff" d="M21.5078125,12.9736328c-0.276123,0-0.5,0.223877-0.5,0.5v4c-0.0009155,0.828064-0.671936,1.4990845-1.5,1.5h-15c-0.828064-0.0009155-1.4990845-0.671936-1.5-1.5v-11c0.0002441-0.2310181,0.0569458-0.4472046,0.1503906-0.6426392l7.0859375,7.0859985c0.4629517,0.4641113,1.0915527,0.7247925,1.7470703,0.7246094c0.0732422,0,0.1474609-0.0029297,0.2206421-0.0097046c0.2750854-0.024353,0.4783325-0.2669678,0.4541626-0.5420532c-0.0308838-0.2715454-0.2692261-0.4712524-0.5420532-0.4541016c-0.4351196,0.0421143-0.8660278-0.1143188-1.1728516-0.4257812L3.8651733,5.1240234C4.0606079,5.0305786,4.2767944,4.973877,4.5078125,4.9736328h5c0.276123,0,0.5-0.223877,0.5-0.5s-0.223877-0.5-0.5-0.5h-5c-1.380188,0.0012817-2.4987183,1.119812-2.5,2.5v11c0.0012817,1.380188,1.119812,2.4987183,2.5,2.5h15c1.380188-0.0012817,2.4987183-1.119812,2.5-2.5v-4C22.0078125,13.1975098,21.7839355,12.9736328,21.5078125,12.9736328z M14.6767578,6.8125l-0.3212891,1.9569702c-0.0682373,0.3931274,0.0960083,0.7903442,0.421875,1.0205078c0.1671143,0.1190796,0.3670654,0.1832275,0.5722656,0.1836548c0.1674194-0.0001221,0.3320923-0.0428467,0.4785156-0.1240845l1.6796875-0.921875l1.6787109,0.9208984c0.3322754,0.1862183,0.7422485,0.1633911,1.0517578-0.0585938c0.3258667-0.2301636,0.4901123-0.6273804,0.421875-1.0204468l-0.3115234-1.9970703l1.3613892-1.3857422c0.276123-0.2808838,0.3701782-0.6935425,0.2431641-1.0664062c-0.1178589-0.3626709-0.4298096-0.6281738-0.8066406-0.6865234l-1.8886719-0.2958984l-0.8408203-1.7802734c-0.1629028-0.3551636-0.5174561-0.5831909-0.9082031-0.5839844h-0.0010376c-0.3908081,0.0004883-0.7456665,0.2280273-0.9091797,0.5830078l-0.8476562,1.7919922l-1.8818359,0.2851562C13.4925537,3.6920166,13.1806641,3.9570312,13.0625,4.3193359c-0.1264648,0.3731689-0.0324707,0.7857666,0.2431641,1.0673828L14.6767578,6.8125z M15.9013672,4.3369141c0.3327026-0.0522461,0.6177979-0.2663574,0.7607422-0.5712891l0.8505859-1.78125l0.8408203,1.781311c0.1429443,0.3049316,0.4280396,0.519043,0.7607422,0.5712891l1.8828125,0.3486328l-1.3613281,1.3857422c-0.2327881,0.2388306-0.3379517,0.5742798-0.2832031,0.9033203l0.3154297,1.9979858L17.984375,8.0488281c-0.1459351-0.0805664-0.3098755-0.1229248-0.4765625-0.1230469c-0.166687,0.0001221-0.3306274,0.0424194-0.4765625,0.1230469h-0.0009766l-1.6884766,0.8827515l0.3212891-1.9569702c0.0547485-0.3290405-0.050415-0.6644287-0.2832031-0.9033203l-1.3603516-1.4492188L15.9013672,4.3369141z"/></svg>