<svg xmlns="http://www.w3.org/2000/svg" enable-background="new 0 0 24 24" viewBox="0 0 24 24"><path fill="#6563ff" d="M17.5078125,22.9736328h-12.5c-2.2081909-0.0023804-3.9976196-1.7918091-4-4v-8.5c0-0.276123-0.223877-0.5-0.5-0.5s-0.5,0.223877-0.5,0.5v8.5c0.0032349,2.7600708,2.2399292,4.9967651,5,5h12.5c0.276123,0,0.5-0.223877,0.5-0.5S17.7839355,22.9736328,17.5078125,22.9736328z M21.0078125,3.9736328h-14c-1.6561279,0.0018311-2.9981689,1.3438721-3,3v10c0.0018311,1.6561279,1.3438721,2.9981689,3,3h14c1.6561279-0.0018311,2.9981689-1.3438721,3-3v-10C24.0059814,5.3175049,22.6639404,3.9754639,21.0078125,3.9736328z M7.0078125,4.9736328h14c0.3700562,0.0004883,0.7122192,0.1081543,1.0094604,0.2835693l-6.9489136,6.9489136c-0.5864868,0.5839844-1.534668,0.5839844-2.1210938,0L5.9985962,5.256958C6.2957764,5.081665,6.6378784,4.9740601,7.0078125,4.9736328z M23.0078125,16.9736328c-0.0014038,1.1039429-0.8959961,1.9985352-2,2h-14c-1.1040649-0.0012817-1.9987183-0.8959351-2-2v-10c0.0004272-0.3701782,0.1082153-0.7124634,0.2836914-1.0097656l6.9487305,6.9492188c0.4683838,0.4692993,1.1045532,0.7325439,1.7675781,0.7314453c0.6630249,0.0010986,1.2991333-0.262146,1.7675781-0.7314453l6.9488525-6.9489136c0.175415,0.2972412,0.2830811,0.6394043,0.2835693,1.0094604V16.9736328z"/></svg>