<svg xmlns="http://www.w3.org/2000/svg" enable-background="new 0 0 24 24" viewBox="0 0 24 24"><path fill="#6563ff" d="M21.5,12c-0.276123,0-0.5,0.223877-0.5,0.5v5c-0.0009155,0.828064-0.671936,1.4990845-1.5,1.5h-15c-0.828064-0.0009155-1.4990845-0.671936-1.5-1.5v-11c0-0.2332153,0.0577393-0.4512329,0.15271-0.6480713l7.0914917,7.0914307c0.4674072,0.4680786,1.1021118,0.7306519,1.7636719,0.7294922c0.661499,0.0011597,1.2962036-0.2614136,1.7636719-0.7294922l1.6395874-1.6396484c0.1904907-0.194397,0.1904907-0.5054321,0-0.6998291c-0.1932983-0.1972046-0.5098267-0.2004395-0.7070312-0.0072021l-1.6396484,1.6397095c-0.5841675,0.5820312-1.5290527,0.5820312-2.1132812,0L3.8619995,5.1472168C4.0562134,5.0554199,4.270874,5,4.5,5h8C12.776123,5,13,4.776123,13,4.5S12.776123,4,12.5,4h-8C3.119812,4.0012817,2.0012817,5.119812,2,6.5v11c0.0012817,1.380188,1.119812,2.4987183,2.5,2.5h15c1.380188-0.0012817,2.4987183-1.119812,2.5-2.5v-5C22,12.223877,21.776123,12,21.5,12z M22.8613281,5.1394043c-0.1972046-0.1932983-0.5137329-0.1901245-0.7069702,0.0070801L20,7.3008423V0.5C20,0.223877,19.776123,0,19.5,0S19,0.223877,19,0.5v6.7850952l-2.1386719-2.1385498c-0.194397-0.1905518-0.5054932-0.1905518-0.6998901,0c-0.1972046,0.1932373-0.2003784,0.5097656-0.0070801,0.7069702l3,3C19.2479858,8.9474487,19.3752441,9.0001831,19.5078735,9c0.1326294,0.0001221,0.2598267-0.0526123,0.3534546-0.1464844l3-3c0.0023804-0.0023804,0.0047607-0.0047607,0.0071411-0.0071411C23.0617065,5.6491699,23.0585327,5.3326416,22.8613281,5.1394043z"/></svg>