<svg xmlns="http://www.w3.org/2000/svg" enable-background="new 0 0 24 24" viewBox="0 0 24 24"><path fill="#6563ff" d="M19.5,4h-15C3.119812,4.0012817,2.0012817,5.119812,2,6.5v11c0.0012817,1.380188,1.119812,2.4987183,2.5,2.5h15c1.380188-0.0012817,2.4987183-1.119812,2.5-2.5v-11C21.9987183,5.119812,20.880188,4.0012817,19.5,4z M21,17.5c-0.0009155,0.828064-0.671936,1.4990845-1.5,1.5h-15c-0.828064-0.0009155-1.4990845-0.671936-1.5-1.5V8.0913696l8.7392578,5.3353882c0.0080566,0.0048828,0.0184326,0.0030518,0.0266724,0.0075073C11.836731,13.4725952,11.9138184,13.500061,12,13.5c0.0905762,0.000061,0.1763306-0.0263672,0.2519531-0.0707397c0.0026855-0.0015869,0.0061646-0.0008545,0.0087891-0.0025024L21,8.0913696V17.5z M21,6.9194946l-0.2387695,0.145752c-0.0070801,0.0038452-0.0150146,0.0037842-0.0219727,0.0079956l-8.7313843,5.3359985L12,12.4140625l-0.0078735-0.0048218L3.2607422,7.0732422C3.2603149,7.072998,3.2598877,7.0727539,3.2594604,7.0724487c-0.006958-0.0042114-0.0149536-0.0041504-0.0220337-0.0079956L3,6.9194946V6.5C3.0009155,5.671936,3.671936,5.0009155,4.5,5h15c0.828064,0.0009155,1.4990845,0.671936,1.5,1.5V6.9194946z"/></svg>