<svg xmlns="http://www.w3.org/2000/svg" enable-background="new 0 0 24 24" viewBox="0 0 24 24"><path fill="#6563ff" d="M21.5079346,9.098877c0.3451538,0,0.625-0.2798462,0.625-0.625c0-0.3452148-0.2798462-0.625-0.625-0.625c-0.3452148,0-0.625,0.2797852-0.625,0.625C20.8829346,8.8190308,21.1627197,9.098877,21.5079346,9.098877z M21.5078125,6.9736328c0.0001831,0,0.0003662,0,0.0005493,0c0.276001-0.0001831,0.4996338-0.223999,0.4994507-0.5v-4c0-0.276123-0.223877-0.5-0.5-0.5s-0.5,0.223877-0.5,0.5v4c0,0.0001831,0,0.0003662,0,0.0005493C21.0079956,6.7501831,21.2318115,6.9737549,21.5078125,6.9736328z M21.5078125,11.9736328c-0.276123,0-0.5,0.223877-0.5,0.5v5c-0.0009155,0.828064-0.671936,1.4990845-1.5,1.5h-15c-0.828064-0.0009155-1.4990845-0.671936-1.5-1.5v-11c0.0002441-0.2310181,0.0570068-0.4471436,0.1503906-0.6425781l7.0820312,7.0820312c0.4683838,0.4692993,1.1045532,0.7325439,1.7675781,0.7314453c0.6630249,0.0010376,1.2991333-0.262207,1.7675781-0.7314453l3.5859375-3.5859375c0.0023804-0.0023804,0.0047607-0.0047607,0.0070801-0.0071411c0.1932983-0.1972046,0.1900635-0.5137329-0.0070801-0.7070312c-0.1972046-0.1932373-0.5137329-0.1900635-0.7070312,0.0071411l-3.5859375,3.5859985c-0.5864868,0.5839844-1.534668,0.5839844-2.1210938,0L3.8651733,5.1240234C4.0606079,5.0305786,4.2767944,4.973877,4.5078125,4.9736328h13c0.276123,0,0.5-0.223877,0.5-0.5s-0.223877-0.5-0.5-0.5h-13c-1.380188,0.0012817-2.4987183,1.119812-2.5,2.5v11c0.0012817,1.380188,1.119812,2.4987183,2.5,2.5h15c1.380188-0.0012817,2.4987183-1.119812,2.5-2.5v-5C22.0078125,12.1975098,21.7839355,11.9736328,21.5078125,11.9736328z"/></svg>