<svg xmlns="http://www.w3.org/2000/svg" enable-background="new 0 0 24 24" viewBox="0 0 24 24"><path fill="#6563ff" d="M16.6474609,7.3417969c0.093689,0.0939331,0.2208862,0.1466675,0.3535156,0.1464844c0.1326294,0.0001221,0.2598877-0.0526123,0.3535156-0.1464844l4.5-4.5c0.1904907-0.194397,0.1904907-0.5055542,0-0.6999512c-0.1932983-0.1971436-0.5098267-0.2003174-0.7070312-0.0070801L17.0009766,6.28125l-2.1464844-2.1464233c-0.0023804-0.0024414-0.0047607-0.0048218-0.0072021-0.0072021c-0.1972046-0.1932373-0.5137329-0.1900635-0.7069702,0.0072021c-0.1932373,0.1972046-0.1900635,0.5137329,0.0071411,0.7069702L16.6474609,7.3417969z M21.5078125,6.9736328c-0.276123,0-0.5,0.223877-0.5,0.5v10c-0.0009155,0.828064-0.671936,1.4990845-1.5,1.5h-15c-0.828064-0.0009155-1.4990845-0.671936-1.5-1.5v-11c0.0002441-0.2310181,0.0570068-0.4471436,0.1503906-0.6425781l7.0859375,7.0859375c0.4643555,0.4656372,1.0953369,0.7268066,1.7529297,0.7255859c0.6781006-0.0012207,1.3276978-0.2729492,1.8046875-0.7548828l1.7196655-1.7207031c0.1904907-0.194397,0.1904907-0.5054321,0-0.6998291c-0.1932373-0.1972046-0.5097656-0.2004395-0.7070312-0.0072021l-1.75,1.75c-0.5841675,0.5820923-1.5290527,0.5820923-2.1132812,0L3.8651733,5.1240234C4.0606079,5.0305786,4.2767944,4.973877,4.5078125,4.9736328h7c0.276123,0,0.5-0.223877,0.5-0.5s-0.223877-0.5-0.5-0.5h-7c-1.380188,0.0012817-2.4987183,1.119812-2.5,2.5v11c0.0012817,1.380188,1.119812,2.4987183,2.5,2.5h15c1.380188-0.0012817,2.4987183-1.119812,2.5-2.5v-10C22.0078125,7.1975098,21.7839355,6.9736328,21.5078125,6.9736328z"/></svg>