<svg xmlns="http://www.w3.org/2000/svg" enable-background="new 0 0 24 24" viewBox="0 0 24 24"><path fill="#6563ff" d="M21.5,15c-0.276123,0-0.5,0.223877-0.5,0.5v2c-0.0009155,0.828064-0.671936,1.4990845-1.5,1.5h-15c-0.828064-0.0009155-1.4990845-0.671936-1.5-1.5v-11c0-0.2420654,0.0626831-0.4674072,0.1644897-0.6697998l7.0718384,7.0718384c0.4804688,0.4804688,1.109375,0.7314453,1.7470703,0.7314453c0.4033203,0,0.8105469-0.1005859,1.1855469-0.3056641c0.2421875-0.1318359,0.3320312-0.4355469,0.1992188-0.6777344c-0.1308594-0.2431641-0.4345703-0.3320312-0.6777344-0.1992188c-0.5800781,0.3134766-1.2802734,0.2109375-1.7470703-0.2558594L3.8837891,5.135437C4.0722046,5.0501709,4.2797241,5,4.5,5h7C11.776123,5,12,4.776123,12,4.5S11.776123,4,11.5,4h-7C3.119812,4.0012817,2.0012817,5.119812,2,6.5v11c0.0012817,1.380188,1.119812,2.4987183,2.5,2.5h15c1.380188-0.0012817,2.4987183-1.119812,2.5-2.5v-2C22,15.223877,21.776123,15,21.5,15z M21.0078125,5.0244751V3.4736328c0-1.3807373-1.1192627-2.5-2.5-2.5s-2.5,1.1192627-2.5,2.5v1.5508423c-1.1405029,0.2324219-1.9989014,1.2402344-2,2.4491577v2c0.0012817,1.380188,1.119812,2.4987183,2.5,2.5h4c1.380188-0.0012817,2.4987183-1.119812,2.5-2.5v-2C23.0067139,6.2647095,22.1483154,5.256897,21.0078125,5.0244751z M17.0078125,3.4736328c0-0.8284302,0.6715698-1.5,1.5-1.5s1.5,0.6715698,1.5,1.5v1.5h-3V3.4736328z M22.0078125,9.4736328c-0.0009155,0.828064-0.671936,1.4990845-1.5,1.5h-4c-0.828064-0.0009155-1.4990845-0.671936-1.5-1.5v-2c0.0009155-0.828064,0.671936-1.4990845,1.5-1.5h4c0.828064,0.0009155,1.4990845,0.671936,1.5,1.5V9.4736328z"/></svg>