<svg xmlns="http://www.w3.org/2000/svg" enable-background="new 0 0 24 24" viewBox="0 0 24 24"><path fill="#6563ff" d="M21.0078125,5.9736328c-0.6000977,0-1.1322021,0.2697754-1.4987793,0.6882935l-1.5479126-0.7675171c0.0292969-0.1358643,0.0465088-0.2761841,0.0466919-0.4207764c0-0.1446533-0.0170288-0.2850342-0.0462036-0.4209595l1.5474243-0.767334c0.3665771,0.4185181,0.8986816,0.6882935,1.4987793,0.6882935c1.1040039-0.0014648,1.9985962-0.8960571,2-2c0-1.1045532-0.8954468-2-2-2s-2,0.8954468-2,2c0,0.1446533,0.0170288,0.2850952,0.0462036,0.4210205l-1.5474243,0.7672729c-0.3665771-0.4185181-0.8986816-0.6882935-1.4987793-0.6882935c-1.1045532,0-2,0.8954468-2,2s0.8954468,2,2,2c0.5996704-0.0007935,1.1312866-0.2705688,1.4978027-0.6887817l1.5484009,0.7677612c-0.0291748,0.1359253-0.0462036,0.2763672-0.0462036,0.4210205c0,1.1045532,0.8954468,2,2,2c1.1040039-0.0014648,1.9985962-0.8960571,2-2C23.0078125,6.8690796,22.1123657,5.9736328,21.0078125,5.9736328z M21.0078125,1.9736328c0.552124,0.0003662,0.9996338,0.447876,1,1c0,0.5523071-0.4476929,1-1,1s-1-0.4476929-1-1S20.4555054,1.9736328,21.0078125,1.9736328z M16.0078125,6.4736328c-0.5523071,0-1-0.4476929-1-1s0.4476929-1,1-1c0.552124,0.0003662,0.9996338,0.447876,1,1C17.0078125,6.0259399,16.5601196,6.4736328,16.0078125,6.4736328z M21.0078125,8.9736328c-0.5523071,0-1-0.4476929-1-1s0.4476929-1,1-1c0.552124,0.0003662,0.9996338,0.447876,1,1C22.0078125,8.5259399,21.5601196,8.9736328,21.0078125,8.9736328z M21.5078125,11.9736328c-0.276123,0-0.5,0.223877-0.5,0.5v4.5c-0.0014038,1.1039429-0.8959961,1.9985352-2,2h-14c-1.1040039-0.0014648-1.9985962-0.8960571-2-2v-10c0.0004883-0.3700562,0.1081543-0.7121582,0.2835693-1.0093994l6.9527588,6.9527588c0.4643555,0.4656372,1.0953369,0.7268066,1.7529297,0.7255859c0.6781006-0.0012207,1.3276978-0.2729492,1.8046875-0.7548828l1.7196655-1.7207031c0.1904907-0.194397,0.1904907-0.5054321,0-0.6998291c-0.1932373-0.1972046-0.5097656-0.2004395-0.7070312-0.0072021l-1.75,1.75c-0.5841675,0.5820923-1.5290527,0.5820923-2.1132812,0L3.9983521,5.2572021c0.2972412-0.175415,0.6394043-0.2830811,1.0094604-0.2835693h6.5c0.276123,0,0.5-0.223877,0.5-0.5s-0.223877-0.5-0.5-0.5h-6.5c-1.6561279,0.0018311-2.9981689,1.3438721-3,3v10c0.0018311,1.6561279,1.3438721,2.9981689,3,3h14c1.6561279-0.0018311,2.9981689-1.3438721,3-3v-4.5C22.0078125,12.1975098,21.7839355,11.9736328,21.5078125,11.9736328z"/></svg>