<svg xmlns="http://www.w3.org/2000/svg" enable-background="new 0 0 24 24" viewBox="0 0 24 24"><path fill="#6563ff" d="M21.8213501,2.7177734c-0.1169434-0.0957642-0.2716064-0.1322021-0.4190063-0.0986328c-0.9057007,0.2005615-1.8539429-0.0002441-2.6005859-0.5507812c-0.175415-0.1269531-0.4124756-0.1269531-0.5878906,0c-0.7460938,0.5517578-1.6948853,0.7527466-2.6005859,0.5507812c-0.1473999-0.032959-0.3017578,0.003418-0.4189453,0.0986328c-0.1178589,0.0949707-0.1864624,0.2382202-0.1865234,0.3896484V6.421875c-0.00354,1.2952271,0.6032715,2.5164185,1.6376953,3.2958984l1.5645142,1.1582031c0.0864868,0.0631714,0.1907349,0.0973511,0.2977905,0.0976562c0.1071167-0.0003052,0.2113647-0.0344849,0.2978516-0.0976562l1.5644531-1.1591797c1.0349121-0.7786255,1.6419067-1.9998169,1.6377563-3.2949219V3.1074219C22.0078125,2.9559937,21.939209,2.8128052,21.8213501,2.7177734z M21.0078125,6.421875c0.0050049,0.9785156-0.4521484,1.9019775-1.2333984,2.4912109l-1.2666016,0.9384766l-1.2666016-0.9375c-0.7807617-0.5900879-1.237793-1.5135498-1.2333984-2.4921875V3.6835938c0.8765259,0.0628052,1.7506714-0.1503296,2.5-0.609375c0.7495117,0.4584961,1.6235352,0.6715698,2.5,0.609375V6.421875z M21.5078125,12.9736328c-0.276123,0-0.5,0.223877-0.5,0.5v4c-0.0009155,0.828064-0.671936,1.4990845-1.5,1.5h-15c-0.828064-0.0009155-1.4990845-0.671936-1.5-1.5v-11c0.0002441-0.241272,0.0626831-0.4658813,0.1640625-0.6677856c0.0213013,0.0384521,0.039978,0.0782471,0.0722046,0.111145l7,7c0.4645386,0.4660645,1.0959473,0.7272339,1.7539062,0.7255859c0.6768188-0.0014038,1.3251343-0.2723389,1.8017578-0.7528687l0.8896484-0.8798828c0.0032349-0.0031738,0.0064697-0.0063477,0.0096436-0.0095825c0.1937256-0.1968384,0.1911621-0.5134277-0.0056763-0.7070923s-0.5134277-0.1911011-0.7070923,0.0057373l-0.921875,0.9110718c-0.5842285,0.5820923-1.5291138,0.5820923-2.1132812,0l-7-7C3.9182739,5.1777954,3.8786621,5.1588135,3.840271,5.1375122C4.0421143,5.0362549,4.2666626,4.973877,4.5078125,4.9736328h7c0.276123,0,0.5-0.223877,0.5-0.5s-0.223877-0.5-0.5-0.5h-7c-1.380188,0.0012817-2.4987183,1.119812-2.5,2.5v11c0.0012817,1.380188,1.119812,2.4987183,2.5,2.5h15c1.380188-0.0012817,2.4987183-1.119812,2.5-2.5v-4C22.0078125,13.1975098,21.7839355,12.9736328,21.5078125,12.9736328z"/></svg>