<svg xmlns="http://www.w3.org/2000/svg" enable-background="new 0 0 24 24" viewBox="0 0 24 24"><path fill="#6563ff" d="M21.5078125,11.9736328c-0.276123,0-0.5,0.223877-0.5,0.5v5c-0.0009155,0.828064-0.671936,1.4990845-1.5,1.5h-15c-0.828064-0.0009155-1.4990845-0.671936-1.5-1.5v-11c0.0002441-0.2311401,0.0570068-0.4474487,0.1505127-0.6429443l7.0863037,7.0863037c0.4664307,0.4695435,1.1013184,0.7329102,1.7631836,0.7314453c0.6619873,0.0015259,1.2970581-0.2619019,1.7636719-0.7314453l1.4199219-1.4199829c0.0023804-0.0023804,0.0047607-0.0047607,0.0071411-0.0072021c0.1932373-0.1972046,0.1900635-0.5137329-0.0071411-0.7069702c-0.1972656-0.1932373-0.5137939-0.1900635-0.7070312,0.0071411l-1.4199829,1.4199829c-0.590332,0.5664673-1.5223999,0.5664673-2.1127319,0L3.8654785,5.1238403c0.1953735-0.0933228,0.411438-0.1499634,0.642334-0.1502075h6c0.276123,0,0.5-0.223877,0.5-0.5s-0.223877-0.5-0.5-0.5h-6c-1.380127,0.0014648-2.4985352,1.119873-2.5,2.5v11c0.0014648,1.380127,1.119873,2.4985352,2.5,2.5h15c1.380188-0.0012817,2.4987183-1.119812,2.5-2.5v-5C22.0078125,12.1975098,21.7839355,11.9736328,21.5078125,11.9736328z M22.8648071,8.1237793l-1.7111206-1.7111206c1.2172241-1.5688477,1.1229248-3.8261719-0.317749-5.2671509c-1.5823975-1.5117188-4.0738525-1.5117188-5.65625,0l-0.0014648,0.0014648c-1.5610962,1.5619507-1.5604858,4.093689,0.0014648,5.6547852c0.74823,0.7529297,1.7666626,1.1749268,2.828125,1.171875c0.8916626-0.0001831,1.7423096-0.3127441,2.4396362-0.8532715l1.7103882,1.7103882c0.194397,0.1905518,0.5054321,0.1905518,0.6998291,0C23.0548706,8.6375122,23.0581055,8.3209839,22.8648071,8.1237793z M20.1289062,6.0947266c-1.1871948,1.1328125-3.0549927,1.1328125-4.2421875,0c-0.5628052-0.5626221-0.8789673-1.3259277-0.8789062-2.1217651c0.0001831-1.6566772,1.3433228-2.9995117,3-2.9993286c0.7954102,0.0001221,1.5581665,0.3161011,2.1206665,0.878479C21.3001709,3.0235596,21.300354,4.9230347,20.1289062,6.0947266z"/></svg>