<svg xmlns="http://www.w3.org/2000/svg" enable-background="new 0 0 24 24" viewBox="0 0 24 24"><path fill="#6563ff" d="M12,1C5.9248657,1,1,5.9248657,1,12s4.9248657,11,11,11c6.0722656-0.0068359,10.9931641-4.9277344,11-11C23,5.9248657,18.0751343,1,12,1z M12,22C6.4771729,22,2,17.5228271,2,12S6.4771729,2,12,2c5.5201416,0.0064697,9.9935303,4.4798584,10,10C22,17.5228271,17.5228271,22,12,22z M12.5878296,7.1670532c1.1972656,0.0269775,2.3129272,0.6123047,3.015625,1.5819702c0.1682739,0.2189941,0.4822388,0.2600708,0.7012329,0.0917969c0.2189331-0.1682739,0.2600708-0.4821777,0.0917969-0.7011719c-0.8910522-1.2171021-2.300354-1.9470825-3.8085938-1.9726562C10.3015747,6.2764282,8.392395,7.8488159,7.7869873,10H6c-0.276123,0-0.5,0.223877-0.5,0.5S5.723877,11,6,11h1.5830688c-0.1005249,0.6634521-0.1005249,1.3365479,0,2H6c-0.276123,0-0.5,0.223877-0.5,0.5S5.723877,14,6,14h1.7869873c0.6054077,2.1511841,2.5145874,3.7235718,4.8009033,3.8330078c1.5081787-0.0255737,2.9175415-0.7554932,3.8085938-1.9725952c0.1682739-0.2189941,0.1271362-0.5328979-0.0917969-0.7011719c-0.2189941-0.1682739-0.532959-0.1271973-0.7012329,0.0917969c-0.7026978,0.9696655-1.8183594,1.5549927-3.015625,1.5820312C10.8522949,16.7255859,9.3995972,15.5819702,8.8330078,14H12c0.276123,0,0.5-0.223877,0.5-0.5S12.276123,13,12,13H8.5958252c-0.1173096-0.6619263-0.1173096-1.3380737,0-2H12c0.276123,0,0.5-0.223877,0.5-0.5S12.276123,10,12,10H8.8330688C9.3997192,8.4180908,10.8522949,7.2744751,12.5878296,7.1670532z"/></svg>