<svg xmlns="http://www.w3.org/2000/svg" enable-background="new 0 0 24 24" viewBox="0 0 24 24"><path fill="#6563ff" d="M18.5976562,17.703125c-1.1693115,1.6998901-3.0801392,2.7391357-5.1425781,2.796875c-3.0905762,0-5.7525024-2.4388428-6.6437988-6H13c0.276123,0,0.5-0.223877,0.5-0.5s-0.223877-0.5-0.5-0.5H6.6206055c-0.1463013-0.9954224-0.1463013-2.0045776,0-3H13c0.276123,0,0.5-0.223877,0.5-0.5S13.276123,9.5,13,9.5H6.8112793c0.8912964-3.5611572,3.5532227-6,6.6437988-6c2.062439,0.0577393,3.9732666,1.0969849,5.1425781,2.796875c0.1639404,0.222229,0.4769897,0.2694092,0.6992188,0.1054688s0.2694092-0.4769897,0.1054688-0.6992188C18.0459595,3.7460938,15.8355713,2.555603,13.4550781,2.5c-3.6291504,0-6.729126,2.8596191-7.6677246,7H3c-0.276123,0-0.5,0.223877-0.5,0.5s0.223877,0.5,0.5,0.5h2.6120605c-0.1334839,0.9963379-0.1334839,2.0036621,0,3H3c-0.276123,0-0.5,0.223877-0.5,0.5s0.223877,0.5,0.5,0.5h2.7873535c0.9385376,4.1403809,4.0386353,7,7.6677246,7c2.3804932-0.055603,4.5908813-1.2460938,5.9472656-3.203125c0.1639404-0.222229,0.1167603-0.5352783-0.1054688-0.6992188S18.7615967,17.480896,18.5976562,17.703125z"/></svg>