<svg xmlns="http://www.w3.org/2000/svg" enable-background="new 0 0 24 24" viewBox="0 0 24 24"><path fill="#6563ff" d="M17.5009766,13h-15c-0.1325684,0-0.2597046,0.0526733-0.3534546,0.1464233c-0.1952515,0.1952515-0.1953125,0.5118408-0.000061,0.7070923l4.4990234,4.5C6.7401123,18.4474487,6.8673706,18.5001831,7,18.5c0.1325684,0,0.2597046-0.0526733,0.3534546-0.1464233c0.1952515-0.1952515,0.1953125-0.5118408,0.000061-0.7070923L3.7080078,14h13.7929688c0.2761841,0,0.5-0.223877,0.5-0.5S17.7771606,13,17.5009766,13z M21.8534546,10.1465454l-4.5-4.5c-0.1937256-0.1871948-0.5009766-0.1871948-0.6947021,0c-0.1986084,0.1918335-0.2041016,0.5083618-0.0122681,0.7069702L20.2930298,10H6.5C6.223877,10,6,10.223877,6,10.5S6.223877,11,6.5,11h15c0.1325073-0.000061,0.2595825-0.0526733,0.3533325-0.1463623C22.048645,10.6583862,22.0487061,10.3417969,21.8534546,10.1465454z"/></svg>