<svg xmlns="http://www.w3.org/2000/svg" enable-background="new 0 0 24 24" viewBox="0 0 24 24"><path fill="#6563ff" d="M21.4990234,13h-15c-0.2761841,0-0.5,0.223877-0.5,0.5s0.2238159,0.5,0.5,0.5h13.7929688l-3.6445312,3.6464844c-0.093689,0.09375-0.1463623,0.2208862-0.1463623,0.3534546c-0.000061,0.276123,0.2237549,0.5,0.4998779,0.500061c0.1326294,0.0001221,0.2598267-0.0525513,0.3535156-0.1464844l4.4980469-4.5c0.093689-0.09375,0.1463623-0.2208862,0.1464233-0.3534546C21.9989624,13.223938,21.7751465,13.000061,21.4990234,13z M18.0009766,10.5c0-0.276123-0.2238159-0.5-0.5-0.5H3.7080078l3.6464844-3.6465454c0.0023804-0.0023193,0.0047607-0.0046997,0.0071411-0.0071411c0.1932373-0.1972046,0.1900635-0.5137329-0.0071411-0.7069702S6.8407593,5.4492798,6.6474609,5.6464844l-4.5,4.5c-0.093689,0.09375-0.1463623,0.2208862-0.1464233,0.3534546c0,0.276123,0.2238159,0.5,0.499939,0.500061h15C17.7771606,11,18.0009766,10.776123,18.0009766,10.5z"/></svg>