<svg xmlns="http://www.w3.org/2000/svg" enable-background="new 0 0 24 24" viewBox="0 0 24 24"><path fill="#6563ff" d="M9.5,8H8.4994507C8.2234497,8.0001831,7.9998169,8.223999,8,8.5v1.0005493C8.0001831,9.7765503,8.223999,10.0001831,8.5,10h0.0006104C8.7765503,9.9998169,9.0001831,9.776001,9,9.5V9h0.5C9.776123,9,10,8.776123,10,8.5S9.776123,8,9.5,8z M8.5,11C8.223877,11,8,11.223877,8,11.5v1.0005493C8.0001831,12.7765503,8.223999,13.0001831,8.5,13h0.0006104C8.7765503,12.9998169,9.0001831,12.776001,9,12.5v-1C9,11.223877,8.776123,11,8.5,11z M12.5,15h-1c-0.276123,0-0.5,0.223877-0.5,0.5s0.223877,0.5,0.5,0.5h1c0.276123,0,0.5-0.223877,0.5-0.5S12.776123,15,12.5,15z M21.5,8H16V2.4993896C15.9998169,2.2234497,15.776001,1.9998169,15.5,2H2.4993896C2.2234497,2.0001831,1.9998169,2.223999,2,2.5v13.0005493C2.0001831,15.7765503,2.223999,16.0001831,2.5,16H8v5.5005493C8.0001831,21.7765503,8.223999,22.0001831,8.5,22h13.0006104C21.7765503,21.9998169,22.0001831,21.776001,22,21.5V8.4993896C21.9998169,8.2234497,21.776001,7.9998169,21.5,8z M21,21H9v-5h0.5c0.276123,0,0.5-0.223877,0.5-0.5S9.776123,15,9.5,15H9v-0.5C9,14.223877,8.776123,14,8.5,14S8,14.223877,8,14.5V15H3V3h12v5h-0.5C14.223877,8,14,8.223877,14,8.5S14.223877,9,14.5,9H15v0.5005493C15.0001831,9.7765503,15.223999,10.0001831,15.5,10h0.0006104C15.7765503,9.9998169,16.0001831,9.776001,16,9.5V9h5V21z M15.5,11c-0.276123,0-0.5,0.223877-0.5,0.5v1.0005493C15.0001831,12.7765503,15.223999,13.0001831,15.5,13h0.0006104C15.7765503,12.9998169,16.0001831,12.776001,16,12.5v-1C16,11.223877,15.776123,11,15.5,11z M15.5,14c-0.276123,0-0.5,0.223877-0.5,0.5V15h-0.5c-0.276123,0-0.5,0.223877-0.5,0.5s0.223877,0.5,0.5,0.5h1.0006104C15.7765503,15.9998169,16.0001831,15.776001,16,15.5v-1C16,14.223877,15.776123,14,15.5,14z M12.5,8h-1C11.223877,8,11,8.223877,11,8.5S11.223877,9,11.5,9h1C12.776123,9,13,8.776123,13,8.5S12.776123,8,12.5,8z"/></svg>