<svg xmlns="http://www.w3.org/2000/svg" enable-background="new 0 0 24 24" viewBox="0 0 24 24"><path fill="#6563ff" d="M15.5350952,8.4771118c-0.1918335-0.1986084-0.5083618-0.2041016-0.7069702-0.0122681L8.4648438,14.828125c-0.09375,0.09375-0.1464233,0.2208862-0.1464233,0.3534546c0,0.276123,0.2238159,0.5,0.499939,0.500061c0.1326294,0.0001831,0.2598877-0.0525513,0.3535156-0.1464844l6.3632202-6.3633423C15.722229,8.9780884,15.722229,8.6708984,15.5350952,8.4771118z M9.847229,9.8596191c0.1986084-0.1918335,0.2041016-0.5083618,0.0122681-0.7069702L3.7068481,3H7.5C7.776123,3,8,2.776123,8,2.5S7.776123,2,7.5,2H2.4993896C2.2234497,2.0001831,1.9998169,2.223999,2,2.5v5.0006104C2.0001831,7.7765503,2.223999,8.0001831,2.5,8h0.0006104C2.7765503,7.9998169,3.0001831,7.776001,3,7.5V3.7071533l6.1524658,6.1524658C9.3462524,10.046814,9.6534424,10.046814,9.847229,9.8596191z M21.5,16c-0.276123,0-0.5,0.223877-0.5,0.5v3.7930908l-6.1465454-6.1465454c-0.1937256-0.1871338-0.5009155-0.1871338-0.6947021,0c-0.1986084,0.1918335-0.2041016,0.5083618-0.0122681,0.7069702L20.2929688,21H16.5c-0.276123,0-0.5,0.223877-0.5,0.5s0.223877,0.5,0.5,0.5h5.0006104C21.7765503,21.9998169,22.0001831,21.776001,22,21.5v-5C22,16.223877,21.776123,16,21.5,16z"/></svg>