<svg xmlns="http://www.w3.org/2000/svg" enable-background="new 0 0 24 24" viewBox="0 0 24 24"><path fill="#6563ff" d="M10.1464844,13.1464844L3,20.2929688V16.5C3,16.223877,2.776123,16,2.5,16S2,16.223877,2,16.5v5.0005493C2.0001831,21.7765503,2.223999,22.0001831,2.5,22h5C7.776123,22,8,21.776123,8,21.5S7.776123,21,7.5,21H3.7069092l7.1465454-7.1465454c0.1871338-0.1937256,0.1871338-0.5009155,0-0.6947021C10.6616211,12.960144,10.3450928,12.9546509,10.1464844,13.1464844z M21.5,2h-5C16.223877,2,16,2.223877,16,2.5S16.223877,3,16.5,3h3.7930908l-7.1526489,7.1526489c-0.1871948,0.1937256-0.1871948,0.5009766,0,0.6947021c0.1918335,0.1986084,0.5083618,0.2041016,0.7069702,0.0122681L21,3.7070312v3.7935791C21.0001831,7.7765503,21.223999,8.0001831,21.5,8h0.0006104C21.7765503,7.9998169,22.0001831,7.776001,22,7.5V2.4993896C21.9998169,2.2234497,21.776001,1.9998169,21.5,2z"/></svg>