<svg xmlns="http://www.w3.org/2000/svg" enable-background="new 0 0 24 24" viewBox="0 0 24 24"><path fill="#6563ff" d="M21.5,2h-5C16.223877,2,16,2.223877,16,2.5S16.223877,3,16.5,3h3.7929688l-8.2930298,8.2930298L3.7069092,3H7.5C7.776123,3,8,2.776123,8,2.5S7.776123,2,7.5,2H2.4993896C2.2234497,2.0001831,1.9998169,2.223999,2,2.5v5.0006104C2.0001831,7.7765503,2.223999,8.0001831,2.5,8h0.0006104C2.7765503,7.9998169,3.0001831,7.776001,3,7.5V3.7070312L11.2929688,12L3,20.2929688V16.5C3,16.223877,2.776123,16,2.5,16S2,16.223877,2,16.5v5.0005493C2.0001831,21.7765503,2.223999,22.0001831,2.5,22h5C7.776123,22,8,21.776123,8,21.5S7.776123,21,7.5,21H3.7069092l8.2930298-8.2930298L20.2929688,21H16.5c-0.276123,0-0.5,0.223877-0.5,0.5s0.223877,0.5,0.5,0.5h5.0006104C21.7765503,21.9998169,22.0001831,21.776001,22,21.5v-5c0-0.276123-0.223877-0.5-0.5-0.5S21,16.223877,21,16.5v3.7930908L12.7069092,12L21,3.7069092v3.7937012C21.0001831,7.7765503,21.223999,8.0001831,21.5,8h0.0006104C21.7765503,7.9998169,22.0001831,7.776001,22,7.5V2.4993896C21.9998169,2.2234497,21.776001,1.9998169,21.5,2z"/></svg>