<svg xmlns="http://www.w3.org/2000/svg" enable-background="new 0 0 24 24" viewBox="0 0 24 24"><path fill="#6563ff" d="M10.5,6h-4C6.223877,6,6,6.223877,6,6.5S6.223877,7,6.5,7h4C10.776123,7,11,6.776123,11,6.5S10.776123,6,10.5,6z M19.5,2h-15C3.119812,2.0012817,2.0012817,3.119812,2,4.5v15c0.0012817,1.380188,1.119812,2.4987183,2.5,2.5h15c1.380188-0.0012817,2.4987183-1.119812,2.5-2.5v-15C21.9987183,3.119812,20.880188,2.0012817,19.5,2z M3,19.5v-15C3.0009155,3.671936,3.671936,3.0009155,4.5,3h15c0.2297363,0.0002441,0.4448853,0.0561523,0.6394653,0.1486206L3.1520996,20.145752C3.0576782,19.9495239,3.0002441,19.7322998,3,19.5z M21,19.5c-0.0009155,0.828064-0.671936,1.4990845-1.5,1.5h-15c-0.2297363-0.0002441-0.4448853-0.0562134-0.6394653-0.1486816L20.8479004,3.854126C20.9423218,4.050415,20.9997559,4.2677002,21,4.5V19.5z M17.5,15H16v-1.5c0-0.276123-0.223877-0.5-0.5-0.5S15,13.223877,15,13.5V15h-1.5c-0.276123,0-0.5,0.223877-0.5,0.5s0.223877,0.5,0.5,0.5H15v1.5c0,0.0001831,0,0.0003662,0,0.0005493C15.0001831,17.7765503,15.223999,18.0001831,15.5,18c0.0001831,0,0.0003662,0,0.0006104,0C15.7765503,17.9998169,16.0001831,17.776001,16,17.5V16h1.5c0.276123,0,0.5-0.223877,0.5-0.5S17.776123,15,17.5,15z"/></svg>