<svg xmlns="http://www.w3.org/2000/svg" enable-background="new 0 0 24 24" viewBox="0 0 24 24"><path fill="#6563ff" d="M10.5,8H9V6.5C9,6.223877,8.776123,6,8.5,6S8,6.223877,8,6.5V8H6.5C6.223877,8,6,8.223877,6,8.5S6.223877,9,6.5,9H8v1.5005493C8.0001831,10.7765503,8.223999,11.0001831,8.5,11h0.0006104C8.7765503,10.9998169,9.0001831,10.776001,9,10.5V9h1.5C10.776123,9,11,8.776123,11,8.5S10.776123,8,10.5,8z M19.5,2h-15C3.119812,2.0012817,2.0012817,3.119812,2,4.5v15c0.0012817,1.380188,1.119812,2.4987183,2.5,2.5h15c1.380188-0.0012817,2.4987183-1.119812,2.5-2.5v-15C21.9987183,3.119812,20.880188,2.0012817,19.5,2z M3,19.5v-15C3.0009155,3.671936,3.671936,3.0009155,4.5,3h15c0.2310181,0.0002441,0.4471436,0.0570068,0.6425781,0.1503906L3.1503906,20.1425781C3.0570068,19.9471436,3.0002441,19.7310181,3,19.5z M21,19.5c-0.0009155,0.828064-0.671936,1.4990845-1.5,1.5h-15c-0.2310181-0.0002441-0.4471436-0.0570068-0.6425781-0.1503906L20.8496094,3.8574219C20.9429932,4.0528564,20.9997559,4.2689819,21,4.5V19.5z M17.5,17h-4c-0.276123,0-0.5,0.223877-0.5,0.5s0.223877,0.5,0.5,0.5h4c0.276123,0,0.5-0.223877,0.5-0.5S17.776123,17,17.5,17z"/></svg>