<svg xmlns="http://www.w3.org/2000/svg" enable-background="new 0 0 24 24" viewBox="0 0 24 24"><path fill="#6563ff" d="M9.4423828,5.4492188C10.2617188,5.1497192,11.1276245,4.9976196,12,5c3.6386719,0,7.0556641,2.6767578,8.9560547,7c-0.4645996,1.0734253-1.0595703,2.0856323-1.7714844,3.0136719c-0.0683594,0.0879517-0.1053467,0.196167-0.1051636,0.3074951c0.0004272,0.276123,0.2246094,0.4995728,0.5006714,0.4991455c0.1546631,0.0003052,0.3007202-0.071106,0.3955078-0.1932983c0.8071899-1.0537109,1.4745483-2.2075195,1.9854126-3.4326782c0.0524292-0.1246338,0.052063-0.2652588-0.0009766-0.3896484C19.9180298,6.9902344,16.1015625,4,12,4c-0.9904175-0.0026855-1.9734497,0.1705933-2.9033203,0.5117188c-0.2589111,0.095459-0.3913574,0.3826904-0.2958984,0.6416016S9.1834717,5.5446777,9.4423828,5.4492188z M13.0283203,8.1367188c-0.2669678-0.0706787-0.5406494,0.088501-0.6113281,0.3554688c-0.0706177,0.2669678,0.088501,0.5406494,0.3554688,0.6113281c1.0396118,0.2792358,1.8500366,1.093811,2.1240234,2.1347656c0.0583496,0.2191162,0.2566528,0.3717651,0.4833984,0.3720703c0.0432129,0.0001831,0.0862427-0.0053711,0.1279907-0.0166016c0.2667847-0.0709229,0.4257812-0.3444214,0.3554688-0.6113281C15.4969482,9.5941162,14.4152222,8.5083618,13.0283203,8.1367188z M2.8534546,2.1465454c-0.1937256-0.1871948-0.5009155-0.1871948-0.6947021,0C1.960144,2.3383789,1.9546509,2.6549072,2.1464844,2.8535156l3.645752,3.645752c-1.6338501,1.4639893-2.9298706,3.2677002-3.7532349,5.3063965c-0.0524292,0.1246338-0.052063,0.2652588,0.0009766,0.3896484C4.0819702,17.0097656,7.8984375,20,12,20c1.9680786-0.0268555,3.8692017-0.6806641,5.4434204-1.8495483l3.703064,3.703064C21.2401123,21.9474487,21.3673706,22.0001831,21.5,22c0.1325073-0.000061,0.2595825-0.0526733,0.3533325-0.1463623c0.1953125-0.1952515,0.1953735-0.5118408,0.0001221-0.7070923L2.8534546,2.1465454z M9.5621338,10.269165l4.1687012,4.1687012C13.2293701,14.7998657,12.6268921,15.0033569,12,15c-1.6561279-0.0018311-2.9981689-1.3438721-3-3C8.9966431,11.3731079,9.2001343,10.7706299,9.5621338,10.269165z M12,19c-3.6386719,0-7.0556641-2.6767578-8.9550781-7C3.81604,10.1572266,5.0059814,8.5276489,6.4974976,7.2045288l2.3580933,2.3580933C8.3102417,10.2564697,7.9959717,11.1077271,8,12c0.0021973,2.208252,1.791748,3.9978027,4,4c0.892334,0.0048218,1.7438354-0.3095703,2.437439-0.8555298l2.2927246,2.2927246C15.3512573,18.4228516,13.7036743,18.9732056,12,19z"/></svg>