<svg xmlns="http://www.w3.org/2000/svg" enable-background="new 0 0 24 24" viewBox="0 0 24 24"><path fill="#6563ff" d="M20.5,3h-8c-1.380188,0.0012817-2.4987183,1.119812-2.5,2.5v15c0,0.0001831,0,0.0003662,0,0.0005493C10.0001831,20.7765503,10.223999,21.0001831,10.5,21c0.0001831,0,0.0003662,0,0.0006104,0C10.7765503,20.9998169,11.0001831,20.776001,11,20.5V12h7.5c0.276123,0,0.5-0.223877,0.5-0.5S18.776123,11,18.5,11H11V5.5c0.0009155-0.828064,0.671936-1.4990845,1.5-1.5h8C20.776123,4,21,3.776123,21,3.5S20.776123,3,20.5,3z M6,3C4.8954468,3,4,3.8954468,4,5s0.8954468,2,2,2c1.1040039-0.0014038,1.9985962-0.8959961,2-2C8,3.8954468,7.1045532,3,6,3z M6,6C5.4476929,6,5,5.5523071,5,5s0.4476929-1,1-1c0.552124,0.0003662,0.9996338,0.447876,1,1C7,5.5523071,6.5523071,6,6,6z"/></svg>