<svg xmlns="http://www.w3.org/2000/svg" enable-background="new 0 0 24 24" viewBox="0 0 24 24"><path fill="#6563ff" d="M5.5078125,10.9736328h-3c-0.276123,0-0.5,0.223877-0.5,0.5s0.223877,0.5,0.5,0.5h3c0.276123,0,0.5-0.223877,0.5-0.5S5.7839355,10.9736328,5.5078125,10.9736328z M19.3731079,6.9736328h-7.9375C9.9580078,6.9679565,8.6984253,8.0436401,8.4727173,9.5039062l-0.7930298,5c-0.0246582,0.1553955-0.0369873,0.3125-0.0369873,0.4697876c0,1.6567993,1.3430786,2.999939,2.9998779,2.999939h7.9375c1.4776001,0.0056763,2.7371826-1.0700073,2.9629517-2.5302734l0.7938843-5c0.0244751-0.1547241,0.0368042-0.3110962,0.0368042-0.4677734C22.3740845,8.3179932,21.0306396,6.973999,19.3731079,6.9736328z M11.4355469,7.9736328h7.9375c0.1043701,0.000061,0.2086182,0.0082397,0.3117065,0.0245361c0.3353882,0.0530396,0.631958,0.1936035,0.8853149,0.3847656l-4.6081543,3.7342529c-0.6226807,0.5137329-1.541687,0.4360962-2.0693359-0.1748047l-3.3276367-3.763916C10.8303223,8.0499878,11.1237793,7.9723511,11.4355469,7.9736328z M21.3485718,10.2871094l-0.7938843,5c-0.1500244,0.9734497-0.9896851,1.6906128-1.9746094,1.6865234h-7.9375c-0.1060791,0.000061-0.2120361-0.0083008-0.3167725-0.0250244c-1.0897217-0.1741333-1.8319702-1.1987305-1.6578369-2.2884521l0.7929688-5c0.0478516-0.3103027,0.1717529-0.5898438,0.3421021-0.8330078l3.338562,3.7753906c0.4719849,0.5432739,1.156311,0.8553467,1.8759766,0.8554688c0.574707-0.0001831,1.1315308-0.2000122,1.5751953-0.5654297l4.6046143-3.7310791C21.3499146,9.5031128,21.411377,9.8900757,21.3485718,10.2871094z M6.5078125,6.9736328h-4c-0.276123,0-0.5,0.223877-0.5,0.5s0.223877,0.5,0.5,0.5h4c0.276123,0,0.5-0.223877,0.5-0.5S6.7839355,6.9736328,6.5078125,6.9736328z"/></svg>