<svg xmlns="http://www.w3.org/2000/svg" enable-background="new 0 0 24 24" viewBox="0 0 24 24"><path fill="#6563ff" d="M22.0078125,7.4736328c0-0.276123-0.223877-0.5-0.5-0.5h-4c-0.276123,0-0.5,0.223877-0.5,0.5s0.223877,0.5,0.5,0.5h4C21.7839355,7.9736328,22.0078125,7.7497559,22.0078125,7.4736328z M21.5078125,10.9736328h-3c-0.276123,0-0.5,0.223877-0.5,0.5s0.223877,0.5,0.5,0.5h3c0.276123,0,0.5-0.223877,0.5-0.5S21.7839355,10.9736328,21.5078125,10.9736328z M15.5430298,9.5039062c-0.225769-1.4602661-1.4853516-2.5359497-2.9629517-2.5302734h-7.9375c-0.1573486,0-0.3143921,0.0123901-0.4697876,0.0369873C2.536377,7.2700806,1.420166,8.8070068,1.6796875,10.4433594l0.7929688,5c0.225708,1.4602661,1.4852905,2.5359497,2.9628906,2.5302734h7.937561c0.1566162-0.000061,0.3130493-0.0123291,0.4677734-0.0368042c1.6372681-0.258667,2.7547607-1.7956543,2.4960327-3.4329224L15.5430298,9.5039062z M4.6425781,7.9736328h7.937561c0.3117065-0.0012817,0.6052246,0.076355,0.8706055,0.204834l-3.3286743,3.7658691c-0.5296021,0.6080933-1.4471436,0.6838379-2.0693359,0.1708984L3.4436035,8.3812866C3.7785645,8.1286011,4.1907349,7.9733276,4.6425781,7.9736328z M13.3731079,16.9736328h-7.9375c-0.9849243,0.0040894-1.824646-0.7130737-1.9746094-1.6865234l-0.7929688-5c-0.0167847-0.1047363-0.0251465-0.2106323-0.0250854-0.3167114C2.6431274,9.6816406,2.7073364,9.4088745,2.817749,9.1610718l4.604126,3.7295532C7.8662109,13.257019,8.4240723,13.4575806,9,13.4580078c0.7183838-0.0003662,1.4014282-0.3115845,1.8729858-0.8535156l3.3396606-3.7774658c0.1703491,0.2431641,0.2943115,0.5227661,0.3421021,0.8331299l0.7939453,5c0.0162964,0.1030884,0.0245361,0.2073364,0.0245361,0.3117065C15.3737183,16.0769653,14.4782104,16.9732056,13.3731079,16.9736328z"/></svg>