<svg xmlns="http://www.w3.org/2000/svg" enable-background="new 0 0 24 24" viewBox="0 0 24 24"><path fill="#6563ff" d="M22.5,1h-7.5605469c-1.1908569,0.0023193-2.2155151,0.8424683-2.4511719,2.0097656l-1,5c-0.0322876,0.1613159-0.0485229,0.3254395-0.0485229,0.4899292C11.4395752,9.8804321,12.5587158,10.9998169,13.9394531,11H17.15625c0.0487671-0.000061,0.09729,0.007019,0.1439819,0.0210571c0.2645264,0.0792236,0.4147339,0.3579102,0.3355103,0.6224976l-0.1083984,0.3603516c-0.0869751,0.2896118-0.1311646,0.5904541-0.1311035,0.8928223C17.3963623,14.6107788,18.7859497,16.0001221,20.5,16c0.2102051-0.000061,0.3978882-0.1315918,0.4697266-0.3291016l2-5.5C22.9899902,10.1162109,23.0002441,10.0583496,23,10V1.5c0-0.0001831,0-0.0003662,0-0.0006104C22.9998169,1.2234497,22.776001,0.9998169,22.5,1z M22,9.9121094l-1.8408203,5.0605469c-0.0883789-0.0145874-0.1757812-0.034729-0.2615967-0.0604248c-1.1140747-0.3336182-1.7467651-1.5071411-1.413208-2.6212158l0.1083984-0.3603516c0.0418701-0.1397095,0.0631714-0.28479,0.0631714-0.430603C18.6560669,10.6716919,17.9846191,10.0001221,17.15625,10h-3.2167969c-0.098877,0-0.1974487-0.0098267-0.2943726-0.0292358c-0.812439-0.1627197-1.3390503-0.9532471-1.1763306-1.765686l1-5C13.6104126,2.5050049,14.2251587,2.0012817,14.9394531,2H22V9.9121094z M10.0605469,13H6.8442383c-0.0490723,0.000061-0.0978394-0.0070801-0.1448364-0.0212402c-0.2640991-0.0795288-0.4137573-0.3581543-0.3341675-0.6223145l0.1079102-0.3613281c0.0866089-0.2890625,0.1306152-0.5891724,0.1306763-0.8909302C6.6039429,9.3898926,5.2142944,8.0001221,3.5,8C3.2897949,8.000061,3.1021118,8.1315918,3.0302734,8.3291016l-2,5.5C1.0101929,13.8838501,1,13.9417114,1,14v8.5c0,0.0001831,0,0.0003662,0,0.0005493C1.0001831,22.7765503,1.223999,23.0001831,1.5,23h7.5605469c1.1907959-0.0025024,2.2153931-0.8425903,2.4511719-2.0097656l1-5c0.0322876-0.1613159,0.0485229-0.3254395,0.0485229-0.4899292C12.5604248,14.1195679,11.4412842,13.0001831,10.0605469,13z M11.53125,15.7949219l-1,5C10.3894043,21.4949341,9.7747803,21.9985352,9.0605469,22H2v-7.9121094l1.840332-5.0605469c0.0891113,0.0145874,0.177124,0.0349731,0.2636108,0.0608521c1.1131592,0.3337402,1.7449341,1.5067139,1.4111938,2.619812l-0.1079102,0.3613281c-0.0419312,0.1398315-0.0632324,0.2850952-0.0631714,0.4310913C5.3442383,13.3287964,6.0158691,14.0001831,6.8442383,14h3.2163086c0.098877,0,0.1974487,0.0098267,0.2943726,0.0292358C11.1673584,14.1919556,11.6939697,14.9824829,11.53125,15.7949219z"/></svg>