<svg xmlns="http://www.w3.org/2000/svg" enable-background="new 0 0 24 24" viewBox="0 0 24 24"><path fill="#6563ff" d="M20,18c-0.6000977,0-1.1322021,0.2697754-1.4987793,0.6882935l-1.5479126-0.7675171C16.982605,17.7849121,16.9998169,17.6445923,17,17.5c0-0.1446533-0.0170288-0.2850952-0.0462036-0.4210205l1.5474243-0.7672729C18.8677979,16.7302246,19.3999023,17,20,17c1.1040039-0.0014038,1.9985962-0.8959961,2-2c0-1.1045532-0.8954468-2-2-2s-2,0.8954468-2,2c0,0.1446533,0.0170288,0.2850952,0.0462036,0.4210205l-1.5474243,0.7672729C16.1322021,15.7697754,15.6000977,15.5,15,15.5c-1.1045532,0-2,0.8954468-2,2s0.8954468,2,2,2c0.5996704-0.0007324,1.1312866-0.2705078,1.4978027-0.6887817l1.5484009,0.7677612C18.0170288,19.7149048,18,19.8553467,18,20c0,1.1045532,0.8954468,2,2,2c1.1040039-0.0014038,1.9985962-0.8959961,2-2C22,18.8954468,21.1045532,18,20,18z M20,14c0.552124,0.0003662,0.9996338,0.447876,1,1c0,0.5523071-0.4476929,1-1,1s-1-0.4476929-1-1S19.4476929,14,20,14z M15,18.5c-0.5523071,0-1-0.4476929-1-1s0.4476929-1,1-1c0.552124,0.0003662,0.9996338,0.447876,1,1C16,18.0523071,15.5523071,18.5,15,18.5z M20,21c-0.5523071,0-1-0.4476929-1-1s0.4476929-1,1-1c0.552124,0.0003662,0.9996338,0.447876,1,1C21,20.5523071,20.5523071,21,20,21z M14.5,21H7c-1.1040039-0.0014038-1.9985962-0.8959961-2-2V5c0.0014038-1.1040039,0.8959961-1.9985962,2-2h6v3.6669922C13.0016479,7.9547729,14.0452271,8.9983521,15.3330078,9H19v1.5c0,0.276123,0.223877,0.5,0.5,0.5s0.5-0.223877,0.5-0.5v-2c0-0.1326294-0.0526733-0.2597656-0.1464844-0.3535156l-6-6C13.7597656,2.0526733,13.6326294,2,13.5,2H7C5.3438721,2.0018311,4.0018311,3.3438721,4,5v14c0.0018311,1.6561279,1.3438721,2.9981689,3,3h7.5c0.276123,0,0.5-0.223877,0.5-0.5S14.776123,21,14.5,21z M14,3.7069702L18.2930298,8h-2.960022C14.5970459,7.9993896,14.0006104,7.4029541,14,6.6669922V3.7069702z M8.5,9h2C10.776123,9,11,8.776123,11,8.5S10.776123,8,10.5,8h-2C8.223877,8,8,8.223877,8,8.5S8.223877,9,8.5,9z M8.5,16C8.223877,16,8,16.223877,8,16.5S8.223877,17,8.5,17h2c0.276123,0,0.5-0.223877,0.5-0.5S10.776123,16,10.5,16H8.5z M15,12.5c0-0.276123-0.223877-0.5-0.5-0.5h-6C8.223877,12,8,12.223877,8,12.5S8.223877,13,8.5,13h6C14.776123,13,15,12.776123,15,12.5z"/></svg>