<svg xmlns="http://www.w3.org/2000/svg" enable-background="new 0 0 24 24" viewBox="0 0 24 24"><path fill="#6563ff" d="M12,11.9169922c-0.9613647-0.6514282-2.2498169-0.5289307-3.071228,0.2919922c-0.9462891,0.9456787-0.9467773,2.4794922-0.0010376,3.4257812l2.71875,2.71875C11.7401123,18.4474487,11.8673706,18.5001831,12,18.5c0.1326294,0.0001831,0.2598877-0.0525513,0.3535156-0.1464844l2.71875-2.71875c0.8209229-0.8214111,0.9434204-2.1098633,0.2919922-3.071228C14.6137695,11.4559937,13.1075439,11.1665039,12,11.9169922z M14.3652344,14.9277344L12,17.2929688l-2.3652344-2.3652344c-0.2670288-0.2668457-0.4168701-0.6289673-0.416626-1.0064697c0.0006104-0.7849731,0.6374512-1.4208374,1.4224854-1.4202881c0.3772583-0.0006714,0.7392578,0.1490479,1.0059204,0.4160156c0,0.000061,0.000061,0.0001221,0.0001221,0.0001221c0.1951904,0.1951904,0.5117188,0.1951294,0.7068481-0.0001221c0.5552368-0.555481,1.4557495-0.5557251,2.0112305-0.0004883C14.9202881,13.4718018,14.9204712,14.3722534,14.3652344,14.9277344z M19.8535156,8.1464844l-6-6C13.7597656,2.0526733,13.6326294,2,13.5,2H7C5.3438721,2.0018311,4.0018311,3.3438721,4,5v14c0.0018311,1.6561279,1.3438721,2.9981689,3,3h10c1.6561279-0.0018311,2.9981689-1.3438721,3-3V8.5C20,8.3673706,19.9473267,8.2402344,19.8535156,8.1464844z M14,3.7069702L18.2930298,8h-2.960022C14.5970459,7.9993896,14.0006104,7.4029541,14,6.6669922V3.7069702z M19,19c-0.0014038,1.1040039-0.8959961,1.9985962-2,2H7c-1.1040039-0.0014038-1.9985962-0.8959961-2-2V5c0.0014038-1.1040039,0.8959961-1.9985962,2-2h6v3.6669922C13.0016479,7.9547729,14.0452271,8.9983521,15.3330078,9H19V19z"/></svg>