<svg xmlns="http://www.w3.org/2000/svg" enable-background="new 0 0 24 24" viewBox="0 0 24 24"><path fill="#6563ff" d="M22.8134766,14.7441406c-0.1171265-0.0953369-0.2715454-0.1317139-0.4189453-0.0986328c-0.9057617,0.1952515-1.8517456-0.005127-2.6005859-0.5507812c-0.175415-0.1269531-0.4124756-0.1269531-0.5878906,0c-0.7487793,0.5457764-1.6948242,0.7461548-2.6005859,0.5507812c-0.1473999-0.032959-0.3017578,0.003418-0.4189453,0.0986328C16.0686646,14.8391724,16.000061,14.9823608,16,15.1337891v2.3144531c-0.0039673,1.2947998,0.6030273,2.515564,1.6376953,3.2939453l1.5644531,1.1591797C19.2883301,21.96521,19.3927002,21.9997559,19.5,22c0.1072388-0.0001831,0.2116699-0.034729,0.2978516-0.0985718l1.5644531-1.1591797C22.3970337,19.9638672,23.0039673,18.743042,23,17.4482422v-2.3144531C22.999939,14.9823608,22.9313354,14.8391724,22.8134766,14.7441406z M22,17.4482422c0.0045776,0.9783936-0.4525146,1.9016724-1.2333984,2.4912109L19.5,20.8779297l-1.2666016-0.9384766C17.4525146,19.3499146,16.9954224,18.4266968,17,17.4482422v-1.7392578c0.8765259,0.0643311,1.7510376-0.1484985,2.5-0.6083984c0.7493286,0.4590454,1.6235962,0.671814,2.5,0.6083984V17.4482422z M8.5,16C8.223877,16,8,16.223877,8,16.5S8.223877,17,8.5,17h4c0.276123,0,0.5-0.223877,0.5-0.5S12.776123,16,12.5,16H8.5z M14,12.5c0-0.276123-0.223877-0.5-0.5-0.5h-5C8.223877,12,8,12.223877,8,12.5S8.223877,13,8.5,13h5C13.776123,13,14,12.776123,14,12.5z M8.5,9h2C10.776123,9,11,8.776123,11,8.5S10.776123,8,10.5,8h-2C8.223877,8,8,8.223877,8,8.5S8.223877,9,8.5,9z M19,9v2.5c0,0.276123,0.223877,0.5,0.5,0.5s0.5-0.223877,0.5-0.5v-3c0-0.1326294-0.0526733-0.2597656-0.1464844-0.3535156l-6-6C13.7597656,2.0526733,13.6326294,2,13.5,2H7C5.3438721,2.0018311,4.0018311,3.3438721,4,5v14c0.0018311,1.6561279,1.3438721,2.9981689,3,3h7.5c0.276123,0,0.5-0.223877,0.5-0.5S14.776123,21,14.5,21H7c-1.1040039-0.0014038-1.9985962-0.8959961-2-2V5c0.0014038-1.1040039,0.8959961-1.9985962,2-2h6v3.6669922C13.0016479,7.9547729,14.0452271,8.9983521,15.3330078,9H19z M14,6.6669922v-2.960022L18.2930298,8h-2.960022C14.5970459,7.9993896,14.0006104,7.4029541,14,6.6669922z"/></svg>