<svg xmlns="http://www.w3.org/2000/svg" enable-background="new 0 0 24 24" viewBox="0 0 24 24"><path fill="#6563ff" d="M12.3538208,11.6467896c-0.0461426-0.0462646-0.1014404-0.0828247-0.1627808-0.1082153c-0.0606079-0.0250244-0.1248779-0.0380859-0.1894531-0.038269C12.0010376,11.5003052,12.0005493,11.5,12,11.5c-0.0651245,0-0.1300659,0.0132446-0.1911621,0.0385742c-0.0612183,0.0253906-0.1164551,0.0620117-0.1625977,0.1082153l-1.9996948,1.9996948c-0.1871338,0.1937866-0.1871338,0.5009155,0,0.6947021c0.1918335,0.1986084,0.5083618,0.2041626,0.7069702,0.0123291L11.5,13.2069702v3.7935791C11.5001831,17.2765503,11.723999,17.5001831,12,17.5h0.0006104C12.2765503,17.4998169,12.5001831,17.276001,12.5,17v-3.7930298l1.1464844,1.1465454C13.7401123,14.4474487,13.8673706,14.5001831,14,14.5c0.1325684,0,0.2597046-0.0526733,0.3534546-0.1464233c0.1952515-0.1951904,0.1953125-0.5117798,0.000061-0.7070923L12.3538208,11.6467896z M19.9611206,8.3074951c-0.0253906-0.06073-0.0620117-0.1154785-0.1079102-0.1613159l-5.9993896-5.9993896c-0.0458374-0.0458984-0.1005859-0.0825195-0.1613159-0.1079102C13.632019,2.0136108,13.5667725,2,13.5,2H7C5.3438721,2.0018311,4.0018311,3.3438721,4,5v14c0.0018311,1.6561279,1.3438721,2.9981689,3,3h10c1.6561279-0.0018311,2.9981689-1.3438721,3-3V8.5C20,8.4332275,19.9863892,8.367981,19.9611206,8.3074951z M14,3.7069702L18.2930298,8h-2.960022C14.5970459,7.9993896,14.0006104,7.4029541,14,6.6669922V3.7069702z M19,19c-0.0014038,1.1040039-0.8959961,1.9985962-2,2H7c-1.1040039-0.0014038-1.9985962-0.8959961-2-2V5c0.0014038-1.1040039,0.8959961-1.9985962,2-2h6v3.6669922C13.0016479,7.9547729,14.0452271,8.9983521,15.3330078,9H19V19z"/></svg>