<svg xmlns="http://www.w3.org/2000/svg" enable-background="new 0 0 24 24" viewBox="0 0 24 24"><path fill="#6563ff" d="M15.5,21H7c-1.1040649-0.0012817-1.9987183-0.8959351-2-2V5c0.0012817-1.1040649,0.8959351-1.9987183,2-2h6v3.6669922C13.0016479,7.9547729,14.0452271,8.9983521,15.3330078,9H19v4.5c0,0.276123,0.223877,0.5,0.5,0.5s0.5-0.223877,0.5-0.5v-5c0-0.1326294-0.0526733-0.2597656-0.1464844-0.3535156l-6-6C13.7597656,2.0526733,13.6326294,2,13.5,2H7C5.3438721,2.0018311,4.0018311,3.3438721,4,5v14c0.0018311,1.6561279,1.3438721,2.9981689,3,3h8.5c0.276123,0,0.5-0.223877,0.5-0.5S15.776123,21,15.5,21z M14,3.7069702L18.2930298,8h-2.960022C14.5970459,7.9993896,14.0006104,7.4029541,14,6.6669922V3.7069702z M21.8535156,18.1464844l-2-2c-0.000061-0.000061-0.000061-0.000061-0.0001221-0.0001221c-0.1952515-0.1951904-0.5117188-0.1951294-0.7068481,0.0001221l-2,2c-0.1871948,0.1937866-0.1871948,0.5009766,0,0.6947632c0.1918335,0.1986084,0.5083618,0.2041016,0.7069702,0.0122681L19,17.7069702v3.7935791C19.0001831,21.7765503,19.223999,22.0001831,19.5,22h0.0006104C19.7765503,21.9998169,20.0001831,21.776001,20,21.5v-3.7930298l1.1464844,1.1465454C21.2401123,18.9474487,21.3673706,19.0001831,21.5,19c0.1325684,0,0.2597046-0.0526733,0.3534546-0.1464233C22.0487061,18.6583862,22.0487671,18.3417969,21.8535156,18.1464844z M13.5,17c0.276123,0,0.5-0.223877,0.5-0.5S13.776123,16,13.5,16h-5C8.223877,16,8,16.223877,8,16.5S8.223877,17,8.5,17H13.5z M8.5,8C8.223877,8,8,8.223877,8,8.5S8.223877,9,8.5,9h2C10.776123,9,11,8.776123,11,8.5S10.776123,8,10.5,8H8.5z M15.5,12h-7C8.223877,12,8,12.223877,8,12.5S8.223877,13,8.5,13h7c0.276123,0,0.5-0.223877,0.5-0.5S15.776123,12,15.5,12z"/></svg>