<svg xmlns="http://www.w3.org/2000/svg" enable-background="new 0 0 24 24" viewBox="0 0 24 24"><path fill="#6563ff" d="M12.6,15.3l-1.3-1.1C11.2,14,11.1,14,11,14c-0.1,0-0.3,0.1-0.3,0.2l-2.5,3C8,17.3,8,17.4,8,17.5C8,17.8,8.2,18,8.5,18c0.1,0,0.3-0.1,0.4-0.2l2.2-2.6l1.3,1.2c0.1,0.1,0.2,0.1,0.4,0.1c0.1,0,0.3-0.1,0.3-0.2l2.8-3.5c0.2-0.2,0.1-0.5-0.1-0.7s-0.5-0.1-0.7,0.1L12.6,15.3z M20,8.3c0-0.1-0.1-0.1-0.1-0.2l-6-6c0,0-0.1-0.1-0.2-0.1c-0.1,0-0.1,0-0.2,0H7C5.3,2,4,3.3,4,5v14c0,1.7,1.3,3,3,3h10c1.7,0,3-1.3,3-3V8.5C20,8.4,20,8.4,20,8.3z M14,3.7L18.3,8h-3C14.6,8,14,7.4,14,6.7V3.7z M19,19c0,1.1-0.9,2-2,2H7c-1.1,0-2-0.9-2-2V5c0-1.1,0.9-2,2-2h6v3.7C13,8,14,9,15.3,9H19V19z M8.5,9h2C10.8,9,11,8.8,11,8.5S10.8,8,10.5,8h-2C8.2,8,8,8.2,8,8.5S8.2,9,8.5,9z"/></svg>