<svg xmlns="http://www.w3.org/2000/svg" enable-background="new 0 0 24 24" viewBox="0 0 24 24"><path fill="#6563ff" d="M12,15h0.0006104c0.2759399-0.0001831,0.4995728-0.223999,0.4993896-0.5v-3c0-0.276123-0.223877-0.5-0.5-0.5s-0.5,0.223877-0.5,0.5v3.0005493C11.5001831,14.7765503,11.723999,15.0001831,12,15z M12,15.875c-0.3451538,0-0.625,0.2798462-0.625,0.625s0.2798462,0.625,0.625,0.625s0.625-0.2798462,0.625-0.625S12.3451538,15.875,12,15.875z M19.9611206,8.3074951c-0.0253906-0.06073-0.0620117-0.1154785-0.1079102-0.1613159l-5.9993896-5.9993896c-0.0458374-0.0458984-0.1005859-0.0825195-0.1613159-0.1079102C13.632019,2.0136108,13.5667725,2,13.5,2H7C5.3438721,2.0018311,4.0018311,3.3438721,4,5v14c0.0018311,1.6561279,1.3438721,2.9981689,3,3h10c1.6561279-0.0018311,2.9981689-1.3438721,3-3V8.5C20,8.4332275,19.9863892,8.367981,19.9611206,8.3074951z M14,3.7069702L18.2930298,8h-2.960022C14.5970459,7.9993896,14.0006104,7.4029541,14,6.6669922V3.7069702z M19,19c-0.0014038,1.1040039-0.8959961,1.9985962-2,2H7c-1.1040039-0.0014038-1.9985962-0.8959961-2-2V5c0.0014038-1.1040039,0.8959961-1.9985962,2-2h6v3.6669922C13.0016479,7.9547729,14.0452271,8.9983521,15.3330078,9H19V19z"/></svg>