<svg xmlns="http://www.w3.org/2000/svg" enable-background="new 0 0 24 24" viewBox="0 0 24 24"><path fill="#6563ff" d="M22.8535156,9.1464844l-6-6C16.7597656,3.0526733,16.6326294,3,16.5,3H8C6.3438721,3.0018311,5.0018311,4.3438721,5,6v8c0.0018311,1.6561279,1.3438721,2.9981689,3,3h12c1.6561279-0.0018311,2.9981689-1.3438721,3-3V9.5C23,9.3673706,22.9473267,9.2402344,22.8535156,9.1464844z M17,4.7069702L21.2930298,9h-2.960022C17.5970459,8.9993896,17.0006104,8.4029541,17,7.6669922V4.7069702z M22,14c-0.0014038,1.1040039-0.8959961,1.9985962-2,2H8c-1.1040039-0.0014038-1.9985962-0.8959961-2-2V6c0.0014038-1.1040039,0.8959961-1.9985962,2-2h8v3.6669922C16.0016479,8.9547729,17.0452271,9.9983521,18.3330078,10H22V14z M18.5,20H6c-2.208252-0.0021973-3.9978027-1.791748-4-4V7.5C2,7.223877,1.776123,7,1.5,7S1,7.223877,1,7.5V16c0.0032349,2.7600708,2.2399292,4.9967651,5,5h12.5c0.276123,0,0.5-0.223877,0.5-0.5S18.776123,20,18.5,20z M9.5,8.5h3C12.776123,8.5,13,8.276123,13,8s-0.223877-0.5-0.5-0.5h-3C9.223877,7.5,9,7.723877,9,8S9.223877,8.5,9.5,8.5z M14.5,11.5h-5C9.223877,11.5,9,11.723877,9,12s0.223877,0.5,0.5,0.5h5c0.276123,0,0.5-0.223877,0.5-0.5S14.776123,11.5,14.5,11.5z"/></svg>