<svg xmlns="http://www.w3.org/2000/svg" enable-background="new 0 0 24 24" viewBox="0 0 24 24"><path fill="#6563ff" d="M14,8.5h5c0.1325684,0,0.2597046-0.0526733,0.3534546-0.1464233c0.1952515-0.1952515,0.1953125-0.5118408,0.000061-0.7070923l-4.9996948-4.9996948c-0.0458374-0.0458984-0.1005859-0.0825195-0.1613159-0.1079102c-0.0556641-0.0232544-0.1157837-0.0338135-0.177002-0.0357666C14.0100708,2.5029297,14.0054932,2.5,14,2.5H7C5.619812,2.5012817,4.5012817,3.619812,4.5,5v14c0.0012817,1.380188,1.119812,2.4987183,2.5,2.5h5c0.276123,0,0.5-0.223877,0.5-0.5s-0.223877-0.5-0.5-0.5H7c-0.828064-0.0009155-1.4990845-0.671936-1.5-1.5V5C5.5009155,4.171936,6.171936,3.5009155,7,3.5h6.5v4.5006104C13.5001831,8.2765503,13.723999,8.5001831,14,8.5z M14.5,4.2069702L17.7930298,7.5H14.5V4.2069702z M23.3534546,21.6465454l-1.9096069-1.9096069C21.4786377,19.5797729,21.5,19.4176636,21.5,19.25c0-1.2426147-1.0073853-2.25-2.25-2.25h-0.5430908l-1.9588623-1.9588623C16.9744873,14.7218628,17.3287964,14.5,17.75,14.5H21c0.276123,0,0.5-0.223877,0.5-0.5s-0.223877-0.5-0.5-0.5h-2V12c0-0.276123-0.223877-0.5-0.5-0.5S18,11.723877,18,12v1.5h-0.25c-0.696228,0-1.310791,0.322876-1.7235107,0.8195801l-1.6730347-1.6730347c-0.1937256-0.1871338-0.5009155-0.1871338-0.6947021,0c-0.1986084,0.1918335-0.2041016,0.5083618-0.0122681,0.7069702l1.9096069,1.9096069C15.5213013,15.4202881,15.5,15.5823975,15.5,15.75c0,1.2426147,1.0073853,2.25,2.25,2.25h0.5429688l1.9589233,1.9589233C20.0253906,20.2781372,19.6712036,20.5,19.25,20.5H16c-0.276123,0-0.5,0.223877-0.5,0.5s0.223877,0.5,0.5,0.5h2v1.5005493c0.0001831,0.276001,0.223999,0.4996338,0.5,0.4994507h0.0006104C18.7765503,23.4998169,19.0001831,23.276001,19,23v-1.5h0.25c0.696167,0,1.31073-0.322876,1.7234497-0.819519l1.6730347,1.6730347C22.7401123,22.4474487,22.8673706,22.5001831,23,22.5c0.1325073-0.000061,0.2595825-0.0526733,0.3533325-0.1463623C23.548645,22.1583862,23.5487061,21.8417969,23.3534546,21.6465454z"/></svg>