<svg xmlns="http://www.w3.org/2000/svg" enable-background="new 0 0 24 24" viewBox="0 0 24 24"><path fill="#6563ff" d="M14.5,21H7c-1.1040039-0.0014038-1.9985962-0.8959961-2-2V5c0.0014038-1.1040039,0.8959961-1.9985962,2-2h6v3.6619873c0.0016479,1.2877808,1.0452271,2.3312988,2.3330078,2.3329468H19V11.5c0,0.276123,0.223877,0.5,0.5,0.5s0.5-0.223877,0.5-0.5v-3c0-0.1326294-0.0526733-0.2597656-0.1464844-0.3535156l-6-6C13.7597656,2.0526733,13.6326294,2,13.5,2H7C5.3438721,2.0018311,4.0018311,3.3438721,4,5v14c0.0018311,1.6561279,1.3438721,2.9981689,3,3h7.5c0.276123,0,0.5-0.223877,0.5-0.5S14.776123,21,14.5,21z M14,3.7069702l4.2879639,4.2879639h-2.9549561C14.5970459,7.9943848,14.0006104,7.3978882,14,6.6619873V3.7069702z M23.8499146,21.1430054l-1.5574951-1.5574951c1.0247192-1.3706055,0.9276123-3.3143921-0.3178101-4.5601196c-1.3851929-1.3212891-3.5640259-1.3212891-4.9492188,0C16.3687744,15.6818237,15.999939,16.5722656,16,17.5007324C16.0001831,19.4335327,17.5671997,21.0001831,19.5,21c0.7590332-0.0001221,1.4850464-0.2578735,2.0860596-0.7067871l1.5568237,1.5568237c0.0023193,0.0023804,0.0046997,0.0046997,0.0070801,0.007019c0.1972046,0.1932983,0.5137329,0.1901245,0.7069702-0.007019C24.0502319,21.652832,24.0470581,21.3363037,23.8499146,21.1430054z M21.2675781,19.2675781c-0.9888306,0.9453125-2.5463257,0.9453125-3.5351562,0C17.2634277,18.7987061,16.999939,18.1626587,17,17.4995117C17.0001221,16.1188965,18.1194458,14.9998779,19.5,15c0.6634521-0.0020752,1.3000488,0.2617188,1.7675781,0.7324219c0.0003052,0.0003052,0.0006104,0.0006104,0.0009155,0.0009155C22.2442017,16.7095337,22.2437744,18.2918701,21.2675781,19.2675781z M8.5,8C8.223877,8,8,8.223877,8,8.5S8.223877,9,8.5,9h2C10.776123,9,11,8.776123,11,8.5S10.776123,8,10.5,8H8.5z M15.5,12h-7C8.223877,12,8,12.223877,8,12.5S8.223877,13,8.5,13h7c0.276123,0,0.5-0.223877,0.5-0.5S15.776123,12,15.5,12z M13.5,17c0.276123,0,0.5-0.223877,0.5-0.5S13.776123,16,13.5,16h-5C8.223877,16,8,16.223877,8,16.5S8.223877,17,8.5,17H13.5z"/></svg>