<svg xmlns="http://www.w3.org/2000/svg" enable-background="new 0 0 24 24" viewBox="0 0 24 24"><path fill="#6563ff" d="M8.5,8C8.223877,8,8,8.223877,8,8.5S8.223877,9,8.5,9h2C10.776123,9,11,8.776123,11,8.5S10.776123,8,10.5,8H8.5z M13.5,21H7c-1.1040649-0.0012817-1.9987183-0.8959351-2-2V5c0.0012817-1.1040649,0.8959351-1.9987183,2-2h6v3.6669922C13.0016479,7.9547729,14.0452271,8.9983521,15.3330078,9H19v1.5c0,0.276123,0.223877,0.5,0.5,0.5s0.5-0.223877,0.5-0.5v-2c0-0.1326294-0.0526733-0.2597656-0.1464844-0.3535156l-6-6C13.7597656,2.0526733,13.6326294,2,13.5,2H7C5.3438721,2.0018311,4.0018311,3.3438721,4,5v14c0.0018311,1.6561279,1.3438721,2.9981689,3,3h6.5c0.276123,0,0.5-0.223877,0.5-0.5S13.776123,21,13.5,21z M14,3.7069702L18.2930298,8h-2.960022C14.5970459,7.9993896,14.0006104,7.4029541,14,6.6669922V3.7069702z M14.5,12h-6C8.223877,12,8,12.223877,8,12.5S8.223877,13,8.5,13h6c0.276123,0,0.5-0.223877,0.5-0.5S14.776123,12,14.5,12z M22,16.0508423V15.5c0-1.3807373-1.1192627-2.5-2.5-2.5S17,14.1192627,17,15.5v0.5508423C15.8594971,16.2832642,15.0010986,17.2910767,15,18.5v1c0.0012817,1.380188,1.119812,2.4987183,2.5,2.5h4c1.380188-0.0012817,2.4987183-1.119812,2.5-2.5v-1C23.9989014,17.2910767,23.1405029,16.2832642,22,16.0508423z M18,15.5c0-0.8284302,0.6715698-1.5,1.5-1.5s1.5,0.6715698,1.5,1.5V16h-3V15.5z M23,19.5c-0.0009155,0.828064-0.671936,1.4990845-1.5,1.5h-4c-0.828064-0.0009155-1.4990845-0.671936-1.5-1.5v-1c0.0009155-0.828064,0.671936-1.4990845,1.5-1.5h4c0.828064,0.0009155,1.4990845,0.671936,1.5,1.5V19.5z M11.5,17c0.276123,0,0.5-0.223877,0.5-0.5S11.776123,16,11.5,16h-3C8.223877,16,8,16.223877,8,16.5S8.223877,17,8.5,17H11.5z"/></svg>