<svg xmlns="http://www.w3.org/2000/svg" enable-background="new 0 0 24 24" viewBox="0 0 24 24"><path fill="#6563ff" d="M13.5,12h-5C8.223877,12,8,12.223877,8,12.5S8.223877,13,8.5,13h5c0.276123,0,0.5-0.223877,0.5-0.5S13.776123,12,13.5,12z M8.5,9h2C10.776123,9,11,8.776123,11,8.5S10.776123,8,10.5,8h-2C8.223877,8,8,8.223877,8,8.5S8.223877,9,8.5,9z M13.5,16h-5C8.223877,16,8,16.223877,8,16.5S8.223877,17,8.5,17h5c0.276123,0,0.5-0.223877,0.5-0.5S13.776123,16,13.5,16z M22.5,13h-5.0005493C17.2234497,13.0001831,16.9998169,13.223999,17,13.5v8c0.0007935,0.1845093,0.1033325,0.3535156,0.2666016,0.4394531c0.1639404,0.0857544,0.3616333,0.0752563,0.515625-0.0273438L20,20.4248047l2.2001953,1.4755859C22.2868042,21.9649658,22.3919678,21.9998779,22.5,22h0.0003662C22.7764282,21.9998779,23.0001221,21.776062,23,21.5v-8.0006104C22.9998169,13.2234497,22.776001,12.9998169,22.5,13z M22,20.5625l-1.7216797-1.1542969c-0.1682739-0.1132812-0.3883667-0.1132812-0.5566406,0L18,20.5625V14h4V20.5625z M19,10.5c0,0.276123,0.223877,0.5,0.5,0.5s0.5-0.223877,0.5-0.5v-2c0-0.1326294-0.0526733-0.2597656-0.1464844-0.3535156l-6-6C13.7597656,2.0526733,13.6326294,2,13.5,2H7C5.3438721,2.0018311,4.0018311,3.3438721,4,5v14c0.0018311,1.6561279,1.3438721,2.9981689,3,3h6.5c0.276123,0,0.5-0.223877,0.5-0.5S13.776123,21,13.5,21H7c-1.1040039-0.0014038-1.9985962-0.8959961-2-2V5c0.0014038-1.1040039,0.8959961-1.9985962,2-2h6v3.6669922C13.0016479,7.9547729,14.0452271,8.9983521,15.3330078,9H19V10.5z M15.3330078,8C14.5970459,7.9993896,14.0006104,7.4029541,14,6.6669922v-2.960022L18.2930298,8H15.3330078z"/></svg>