<svg xmlns="http://www.w3.org/2000/svg" enable-background="new 0 0 24 24" viewBox="0 0 24 24"><path fill="#6563ff" d="M14.6464844,12.6464844L11,16.2929688l-1.6465454-1.6464233c-0.1937256-0.1871338-0.5009155-0.1871338-0.6947021,0c-0.1986084,0.1918335-0.2041016,0.5083618-0.0122681,0.7069702l2,2C10.7401123,17.4474487,10.8673706,17.5001831,11,17.5c0.1326294,0.0001221,0.2598267-0.0525513,0.3534546-0.1464844l4-4c0.1871338-0.1937866,0.1871338-0.5009766,0-0.6947021C15.1616211,12.4602051,14.8450928,12.4546509,14.6464844,12.6464844z M19.8535156,8.1464844l-6-6C13.7597656,2.0526733,13.6326294,2,13.5,2H7C5.3438721,2.0018311,4.0018311,3.3438721,4,5v14c0.0018311,1.6561279,1.3438721,2.9981689,3,3h10c1.6561279-0.0018311,2.9981689-1.3438721,3-3V8.5C20,8.3673706,19.9473267,8.2402344,19.8535156,8.1464844z M14,3.7069702L18.2930298,8h-2.960022C14.5970459,7.9993896,14.0006104,7.4029541,14,6.6669922V3.7069702z M19,19c-0.0014038,1.1040039-0.8959961,1.9985962-2,2H7c-1.1040649-0.0012817-1.9987183-0.8959351-2-2V5c0.0012817-1.1040649,0.8959351-1.9987183,2-2h6v3.6669922C13.0016479,7.9547729,14.0452271,8.9983521,15.3330078,9H19V19z"/></svg>