<svg xmlns="http://www.w3.org/2000/svg" enable-background="new 0 0 24 24" viewBox="0 0 24 24"><path fill="#6563ff" d="M13.5,21H7c-1.1040039-0.0014038-1.9985962-0.8959961-2-2V5c0.0014038-1.1040039,0.8959961-1.9985962,2-2h6v3.6669922C13.0016479,7.9547729,14.0452271,8.9983521,15.3330078,9H19v6.5c0,0.276123,0.223877,0.5,0.5,0.5s0.5-0.223877,0.5-0.5v-7c0-0.1326294-0.0526733-0.2597656-0.1464844-0.3535156l-6-6C13.7597656,2.0526733,13.6326294,2,13.5,2H7C5.3438721,2.0018311,4.0018311,3.3438721,4,5v14c0.0018311,1.6561279,1.3438721,2.9981689,3,3h6.5c0.276123,0,0.5-0.223877,0.5-0.5S13.776123,21,13.5,21z M14,3.7069702L18.2930298,8h-2.960022C14.5970459,7.9993896,14.0006104,7.4029541,14,6.6669922V3.7069702z M8.5,8C8.223877,8,8,8.223877,8,8.5S8.223877,9,8.5,9h2C10.776123,9,11,8.776123,11,8.5S10.776123,8,10.5,8H8.5z M22.8534546,17.1587524c-0.1918335-0.1986084-0.5083618-0.2041016-0.7069702-0.0122681L18.5,20.7929688l-1.6465454-1.6464233c-0.1937256-0.1871948-0.5009766-0.1871948-0.6947021,0c-0.1986694,0.1918335-0.2041016,0.5083618-0.0122681,0.7069702l2,2C18.2401123,21.9474487,18.3673706,22.0001831,18.5,22c0.1326294,0.0001221,0.2598267-0.0525513,0.3534546-0.1464844l4-4C23.0406494,17.659729,23.0406494,17.3525391,22.8534546,17.1587524z M13.5,16h-5C8.223877,16,8,16.223877,8,16.5S8.223877,17,8.5,17h5c0.276123,0,0.5-0.223877,0.5-0.5S13.776123,16,13.5,16z M15.5,12h-7C8.223877,12,8,12.223877,8,12.5S8.223877,13,8.5,13h7c0.276123,0,0.5-0.223877,0.5-0.5S15.776123,12,15.5,12z"/></svg>