<svg xmlns="http://www.w3.org/2000/svg" enable-background="new 0 0 24 24" viewBox="0 0 24 24"><path fill="#6563ff" d="M8.5,9h2C10.776123,9,11,8.776123,11,8.5S10.776123,8,10.5,8h-2C8.223877,8,8,8.223877,8,8.5S8.223877,9,8.5,9z M14.5,12h-6C8.223877,12,8,12.223877,8,12.5S8.223877,13,8.5,13h6c0.276123,0,0.5-0.223877,0.5-0.5S14.776123,12,14.5,12z M14.5,16h-6C8.223877,16,8,16.223877,8,16.5S8.223877,17,8.5,17h6c0.276123,0,0.5-0.223877,0.5-0.5S14.776123,16,14.5,16z M15.5,21H7c-1.1040039-0.0014038-1.9985962-0.8959961-2-2V5c0.0014038-1.1040039,0.8959961-1.9985962,2-2h6v3.6669922C13.0016479,7.9547729,14.0452271,8.9983521,15.3330078,9H19v2.5c0,0.276123,0.223877,0.5,0.5,0.5s0.5-0.223877,0.5-0.5v-3c0-0.1326294-0.0526733-0.2597656-0.1464844-0.3535156l-6-6C13.7597656,2.0526733,13.6326294,2,13.5,2H7C5.3438721,2.0018311,4.0018311,3.3438721,4,5v14c0.0018311,1.6561279,1.3438721,2.9981689,3,3h8.5c0.276123,0,0.5-0.223877,0.5-0.5S15.776123,21,15.5,21z M14,3.7069702L18.2930298,8h-2.960022C14.5970459,7.9993896,14.0006104,7.4029541,14,6.6669922V3.7069702z M21.4423828,15.4559937c-0.2033081-0.9188843-0.9059448-1.6453857-1.8175659-1.8792114c-1.3356934-0.3425903-2.6962891,0.4624634-3.0388794,1.7982178c-0.0690308,0.2675171,0.0918579,0.5403442,0.359375,0.609375s0.5403442-0.0918579,0.609375-0.359375c0.12677-0.492981,0.4949341-0.8880005,0.9777832-1.0490723c0.7856445-0.2620239,1.6349487,0.1624146,1.8969727,0.947998c0.2620239,0.7856445-0.1623535,1.6349487-0.947998,1.8969727C18.8778076,17.6452026,18.4834595,18.2283325,18.5,18.8720703v0.628479C18.5001831,19.7765503,18.723999,20.0001831,19,20h0.0005493c0.276001-0.0001831,0.4996338-0.223999,0.4994507-0.5v-0.6279907c-0.0114746-0.2142944,0.1088257-0.4139404,0.3037109-0.5039062C21.0089111,17.9528809,21.7129517,16.7017212,21.4423828,15.4559937z M19,21c-0.276123,0-0.5,0.223877-0.5,0.5S18.723877,22,19,22s0.5-0.223877,0.5-0.5S19.276123,21,19,21z"/></svg>