<svg xmlns="http://www.w3.org/2000/svg" enable-background="new 0 0 24 24" viewBox="0 0 24 24"><path fill="#6563ff" d="M12.5,21H7c-1.1040039-0.0014038-1.9985962-0.8959961-2-2V5c0.0014038-1.1040039,0.8959961-1.9985962,2-2h6v3.6669922C13.0016479,7.9547729,14.0452271,8.9983521,15.3330078,9H19v2.5c0,0.276123,0.223877,0.5,0.5,0.5s0.5-0.223877,0.5-0.5v-3c0-0.1326294-0.0526733-0.2597656-0.1464844-0.3535156l-6-6C13.7597656,2.0526733,13.6326294,2,13.5,2H7C5.3438721,2.0018311,4.0018311,3.3438721,4,5v14c0.0018311,1.6561279,1.3438721,2.9981689,3,3h5.5c0.276123,0,0.5-0.223877,0.5-0.5S12.776123,21,12.5,21z M14,3.7069702L18.2930298,8h-2.960022C14.5970459,7.9993896,14.0006104,7.4029541,14,6.6669922V3.7069702z M8.5,8C8.223877,8,8,8.223877,8,8.5S8.223877,9,8.5,9h2C10.776123,9,11,8.776123,11,8.5S10.776123,8,10.5,8H8.5z M11.5,17c0.276123,0,0.5-0.223877,0.5-0.5S11.776123,16,11.5,16h-3C8.223877,16,8,16.223877,8,16.5S8.223877,17,8.5,17H11.5z M14.5,12h-6C8.223877,12,8,12.223877,8,12.5S8.223877,13,8.5,13h6c0.276123,0,0.5-0.223877,0.5-0.5S14.776123,12,14.5,12z M21.5,15c-0.276123,0-0.5,0.223877-0.5,0.5v0.5610962C20.3568115,15.4016724,19.4649048,14.9992676,18.4946899,15c-1.9329834,0.0014648-3.4987793,1.5696411-3.4973145,3.5026855C14.9988403,20.4356689,16.5670166,22.0014648,18.5,22c0.8496704-0.0028076,1.6696777-0.3129272,2.3085938-0.8731079c0.0007935-0.0006714,0.0015869-0.0014038,0.0023804-0.0020752c0.2076416-0.1818848,0.2284546-0.4976196,0.0465698-0.7052612c-0.1818848-0.2075806-0.4976196-0.2284546-0.7052002-0.0465698C19.6953735,20.7747192,19.1083984,20.9974365,18.5,21c-1.1387329,0.0004272-2.1337891-0.769043-2.4198608-1.8712158c-0.3467407-1.3359375,0.4551392-2.7000122,1.7910767-3.0467529c1.1096191-0.2879639,2.2297363,0.2232666,2.7791138,1.1679688H19.25c-0.276123,0-0.5,0.223877-0.5,0.5s0.223877,0.5,0.5,0.5h2.2506104C21.7765503,18.2498169,22.0001831,18.026001,22,17.75V15.5C22,15.223877,21.776123,15,21.5,15z"/></svg>