<svg xmlns="http://www.w3.org/2000/svg" enable-background="new 0 0 24 24" viewBox="0 0 24 24"><path fill="#6563ff" d="M12,16.875c-0.3451538,0-0.625,0.2798462-0.625,0.625s0.2798462,0.625,0.625,0.625s0.625-0.2798462,0.625-0.625S12.3451538,16.875,12,16.875z M19.8535156,8.1464844l-6-6C13.7597656,2.0526733,13.6326294,2,13.5,2H7C5.3438721,2.0018311,4.0018311,3.3438721,4,5v14c0.0018311,1.6561279,1.3438721,2.9981689,3,3h10c1.6561279-0.0018311,2.9981689-1.3438721,3-3V8.5C20,8.3673706,19.9473267,8.2402344,19.8535156,8.1464844z M14,3.7069702L18.2930298,8h-2.960022C14.5970459,7.9993896,14.0006104,7.4029541,14,6.6669922V3.7069702z M19,19c-0.0014038,1.1040039-0.8959961,1.9985962-2,2H7c-1.1040039-0.0014038-1.9985962-0.8959961-2-2V5c0.0014038-1.1040039,0.8959961-1.9985962,2-2h6v3.6669922C13.0016479,7.9547729,14.0452271,8.9983521,15.3330078,9H19V19z M12.6726074,11.1204224c-1.0391846-0.3699951-2.1815186,0.1724854-2.5515137,1.2116089c-0.0914307,0.2590942,0.0432739,0.543335,0.3016968,0.6365356c0.2596436,0.093689,0.5460815-0.0408936,0.6397095-0.3005371c0.0948486-0.2698364,0.3006592-0.486084,0.5654297-0.5940552c0.5111084-0.2084351,1.0944214,0.0368652,1.3028564,0.5479736s-0.0368652,1.0944214-0.5479736,1.3028564C11.8390503,14.1572876,11.4900513,14.6958008,11.5,15.2871094v0.2134399C11.5001831,15.7765503,11.723999,16.0001831,12,16h0.0006104c0.2759399-0.0001831,0.4995728-0.223999,0.4993896-0.5v-0.2128906c-0.006897-0.1854858,0.0965576-0.3575439,0.2636719-0.4384766c0.5234375-0.2156982,0.9307251-0.6433716,1.1206055-1.1766968C14.2542725,12.6327515,13.711792,11.4904175,12.6726074,11.1204224z"/></svg>