<svg xmlns="http://www.w3.org/2000/svg" enable-background="new 0 0 24 24" viewBox="0 0 24 24"><path fill="#6563ff" d="M21.5,20c0-0.276123-0.223877-0.5-0.5-0.5h-6.7110596C13.9674072,18.7651978,13.3051147,18.2138672,12.5,18.050415V15h4c1.380188-0.0012817,2.4987183-1.119812,2.5-2.5v-5c0-0.0029907-0.0016479-0.0054321-0.001709-0.0084229c-0.0010986-0.0621948-0.0127563-0.1240845-0.0368652-0.1824951c-0.0253906-0.0613403-0.0619507-0.1166992-0.1082153-0.1629028l-5.9993896-5.9993896c-0.0458374-0.0458984-0.1005859-0.0825195-0.1613159-0.1079102c-0.0556641-0.0232544-0.1157837-0.0338135-0.177002-0.0357666C12.5100708,1.0029297,12.5054932,1,12.5,1h-5C6.119812,1.0012817,5.0012817,2.119812,5,3.5v9c0.0012817,1.380188,1.119812,2.4987183,2.5,2.5h4v3.050415c-0.9827271,0.1995239-1.7548828,0.9754639-1.9506226,1.9595337C9.5323486,20.0081787,9.5175171,20,9.5,20h-7C2.223877,20,2,20.223877,2,20.5S2.223877,21,2.5,21h7c0.0175171,0,0.0323486-0.0081787,0.0493774-0.0099487C9.7772827,22.1359253,10.7871094,23,12,23c1.2123413-0.0010986,2.2215576-0.8647461,2.4501953-2.0100708C14.4674072,20.9916992,14.4823608,21,14.5,21h7c0.276123,0,0.5-0.223877,0.5-0.5S21.776123,20,21.5,20z M13,2.7069702L17.2930298,7H14.5c-0.828064-0.0009155-1.4990845-0.671936-1.5-1.5V2.7069702z M7.5,14c-0.828064-0.0009155-1.4990845-0.671936-1.5-1.5v-9C6.0009155,2.671936,6.671936,2.0009155,7.5,2H12v3.5c0.0012817,1.380188,1.119812,2.4987183,2.5,2.5H18v4.5c-0.0009155,0.828064-0.671936,1.4990845-1.5,1.5H7.5z M12,22c-0.8284302,0-1.5-0.6715698-1.5-1.5S11.1715698,19,12,19c0.828064,0.0009155,1.4990845,0.671936,1.5,1.5C13.5,21.3284302,12.8284302,22,12,22z"/></svg>