<svg xmlns="http://www.w3.org/2000/svg" enable-background="new 0 0 24 24" viewBox="0 0 24 24"><path fill="#6563ff" d="M21.8535156,17.5664062l-2.4199829-2.4199219c0-0.000061-0.000061-0.0001221-0.0001221-0.0001831c-0.1952515-0.1951294-0.5117188-0.1950684-0.7068481,0.0001831l-3.5800781,3.5800781C15.0526733,18.8203125,15,18.9474487,15,19.0800781v2.4204712C15.0001831,21.7765503,15.223999,22.0001831,15.5,22h2.4199219c0.1326294,0,0.2597656-0.0526733,0.3535156-0.1464844l3.5800781-3.5800781c0-0.000061,0.000061-0.0001221,0.0001221-0.0001831C22.0487671,18.0780029,22.0487061,17.7615356,21.8535156,17.5664062z M17.7128906,21H16v-1.7128906l3.0800781-3.0801392l1.7129517,1.7129517L17.7128906,21z M8.5,16C8.223877,16,8,16.223877,8,16.5S8.223877,17,8.5,17h3c0.276123,0,0.5-0.223877,0.5-0.5S11.776123,16,11.5,16H8.5z M16,12.5c0-0.276123-0.223877-0.5-0.5-0.5h-7C8.223877,12,8,12.223877,8,12.5S8.223877,13,8.5,13h7C15.776123,13,16,12.776123,16,12.5z M8.5,9h2C10.776123,9,11,8.776123,11,8.5S10.776123,8,10.5,8h-2C8.223877,8,8,8.223877,8,8.5S8.223877,9,8.5,9z M12.5,21H7c-1.1040039-0.0014038-1.9985962-0.8959961-2-2V5c0.0014038-1.1040039,0.8959961-1.9985962,2-2h6v3.6669922C13.0016479,7.9547729,14.0452271,8.9983521,15.3330078,9H19v3.5c0,0.276123,0.223877,0.5,0.5,0.5s0.5-0.223877,0.5-0.5v-4c0-0.1326294-0.0526733-0.2597656-0.1464844-0.3535156l-6-6C13.7597656,2.0526733,13.6326294,2,13.5,2H7C5.3438721,2.0018311,4.0018311,3.3438721,4,5v14c0.0018311,1.6561279,1.3438721,2.9981689,3,3h5.5c0.276123,0,0.5-0.223877,0.5-0.5S12.776123,21,12.5,21z M14,3.7069702L18.2930298,8h-2.960022C14.5970459,7.9993896,14.0006104,7.4029541,14,6.6669922V3.7069702z"/></svg>