<svg xmlns="http://www.w3.org/2000/svg" enable-background="new 0 0 24 24" viewBox="0 0 24 24"><path fill="#6563ff" d="M8.4375,8c-0.276123,0-0.5,0.223877-0.5,0.5S8.161377,9,8.4375,9h2c0.276123,0,0.5-0.223877,0.5-0.5s-0.223877-0.5-0.5-0.5H8.4375z M15.4375,21h-8.5c-1.1040039-0.0014038-1.9985962-0.8959961-2-2V5c0.0014038-1.1040039,0.8959961-1.9985962,2-2h6v3.6669922C12.9391479,7.9547729,13.9827271,8.9983521,15.2705078,9H18.9375v3.5c0,0.276123,0.223877,0.5,0.5,0.5s0.5-0.223877,0.5-0.5v-4c0-0.1326294-0.0526733-0.2597656-0.1464844-0.3535156l-6-6C13.6972656,2.0526733,13.5701294,2,13.4375,2h-6.5c-1.6561279,0.0018311-2.9981689,1.3438721-3,3v14c0.0018311,1.6561279,1.3438721,2.9981689,3,3h8.5c0.276123,0,0.5-0.223877,0.5-0.5S15.713623,21,15.4375,21z M13.9375,3.7070312L18.2305298,8h-2.960022C14.5345459,7.9993896,13.9381104,7.4029541,13.9375,6.6669922V3.7070312z M19.4375,18c-0.276123,0-0.5,0.223877-0.5,0.5v3c0,0.0001831,0,0.0003662,0,0.0005493c0.0001831,0.276001,0.223999,0.4996338,0.5,0.4994507c0.0001831,0,0.0003662,0,0.0006104,0c0.2759399-0.0001831,0.4995728-0.223999,0.4993896-0.5v-3C19.9375,18.223877,19.713623,18,19.4375,18z M19.4375,17.125c0.3451538,0,0.625-0.2798462,0.625-0.625s-0.2798462-0.625-0.625-0.625s-0.625,0.2798462-0.625,0.625S19.0923462,17.125,19.4375,17.125z M15.4375,16h-7c-0.276123,0-0.5,0.223877-0.5,0.5s0.223877,0.5,0.5,0.5h7c0.276123,0,0.5-0.223877,0.5-0.5S15.713623,16,15.4375,16z M15.4375,12h-7c-0.276123,0-0.5,0.223877-0.5,0.5s0.223877,0.5,0.5,0.5h7c0.276123,0,0.5-0.223877,0.5-0.5S15.713623,12,15.4375,12z"/></svg>