<svg xmlns="http://www.w3.org/2000/svg" enable-background="new 0 0 24 24" viewBox="0 0 24 24"><path fill="#6563ff" d="M6.5,11h5c0.276123,0,0.5-0.223877,0.5-0.5S11.776123,10,11.5,10h-5C6.223877,10,6,10.223877,6,10.5S6.223877,11,6.5,11z M6,14.5C6,14.776123,6.223877,15,6.5,15h11c0.276123,0,0.5-0.223877,0.5-0.5S17.776123,14,17.5,14h-11C6.223877,14,6,14.223877,6,14.5z M21.8535156,10.1464844l-6-6C15.7597656,4.0526733,15.6326294,4,15.5,4H5C3.3438721,4.0018311,2.0018311,5.3438721,2,7v10c0.0018311,1.6561279,1.3438721,2.9981689,3,3h14c1.6561279-0.0018311,2.9981689-1.3438721,3-3v-6.5C22,10.3673706,21.9473267,10.2402344,21.8535156,10.1464844z M16,5.7069702L20.2930298,10h-2.960022C16.5970459,9.9993896,16.0006104,9.4029541,16,8.6669922V5.7069702z M21,17c-0.0014038,1.1040039-0.8959961,1.9985962-2,2H5c-1.1040039-0.0014038-1.9985962-0.8959961-2-2V7c0.0014038-1.1040039,0.8959961-1.9985962,2-2h10v3.6669922C15.0016479,9.9547729,16.0452271,10.9983521,17.3330078,11H21V17z"/></svg>