<svg xmlns="http://www.w3.org/2000/svg" enable-background="new 0 0 24 24" viewBox="0 0 24 24"><path fill="#6563ff" d="M19.5,15.5h-7.8l2.1-2.1c0.2-0.2,0.2-0.5,0-0.7c-0.2-0.2-0.5-0.2-0.7,0l-3,3c0,0,0,0,0,0c0,0,0,0,0,0.1c0,0-0.1,0.1-0.1,0.1c0,0.1,0,0.1,0,0.2c0,0,0,0,0,0c0,0,0,0,0,0c0,0.1,0,0.1,0,0.2c0,0.1,0.1,0.1,0.1,0.2l3,3c0.1,0.1,0.2,0.1,0.4,0.1c0.1,0,0.3-0.1,0.4-0.1c0.2-0.2,0.2-0.5,0-0.7l-2.1-2.1h7.8c0.3,0,0.5-0.2,0.5-0.5C20,15.7,19.8,15.5,19.5,15.5z M18.5,19C18.3,19,18,19.1,18,19.4c-0.2,0.9-1,1.6-2,1.6H6c-1.1,0-2-0.9-2-2V5c0-1.1,0.9-2,2-2h6v3.7C12,8,13,9,14.3,9H18v3.5c0,0.3,0.2,0.5,0.5,0.5s0.5-0.2,0.5-0.5v-4c0-0.1,0-0.1,0-0.2c0-0.1-0.1-0.1-0.1-0.2l-6-6c0,0-0.1-0.1-0.2-0.1c-0.1,0-0.1,0-0.2,0H6C4.3,2,3,3.3,3,5v14c0,1.7,1.3,3,3,3h10c1.4,0,2.7-1,2.9-2.4C19,19.3,18.8,19.1,18.5,19z M13,3.7L17.3,8h-3C13.6,8,13,7.4,13,6.7V3.7z"/></svg>