<svg xmlns="http://www.w3.org/2000/svg" enable-background="new 0 0 24 24" viewBox="0 0 24 24"><path fill="#6563ff" d="M8.5,8C8.223877,8,8,8.223877,8,8.5S8.223877,9,8.5,9h2C10.776123,9,11,8.776123,11,8.5S10.776123,8,10.5,8H8.5z M14.5,21H7c-1.1040039-0.0014038-1.9985962-0.8959961-2-2V5c0.0014038-1.1040039,0.8959961-1.9985962,2-2h6v3.6669922C13.0016479,7.9547729,14.0452271,8.9983521,15.3330078,9H19v3.5c0,0.276123,0.223877,0.5,0.5,0.5s0.5-0.223877,0.5-0.5v-4c0-0.0667725-0.0136108-0.132019-0.0388794-0.1925049c-0.0253906-0.06073-0.0620117-0.1154785-0.1079102-0.1613159l-5.9993896-5.9993896c-0.0458374-0.0458984-0.1005859-0.0825195-0.1613159-0.1079102C13.632019,2.0136108,13.5667725,2,13.5,2H7C5.3438721,2.0018311,4.0018311,3.3438721,4,5v14c0.0018311,1.6561279,1.3438721,2.9981689,3,3h7.5c0.276123,0,0.5-0.223877,0.5-0.5S14.776123,21,14.5,21z M14,3.7069702L18.2930298,8h-2.960022C14.5970459,7.9993896,14.0006104,7.4029541,14,6.6669922V3.7069702z M21.9746094,16.0253906c-1.3847656-1.3222656-3.5644531-1.3222656-4.9492188,0C16.3687744,16.6818237,15.999939,17.5722656,16,18.5007324C16.0001831,20.4335327,17.5671997,22.0001831,19.5,22c0.9287109,0.0023804,1.8197632-0.3668213,2.4746094-1.0253906l0.0012817-0.0012817C23.3418579,19.6066284,23.3413086,17.3913574,21.9746094,16.0253906z M17,18.4995117C17.0001221,17.1188965,18.1194458,15.9998779,19.5,16c0.4937134,0.000061,0.9718628,0.1470337,1.3776855,0.4152832l-3.4624023,3.4624023C17.1469116,19.4717407,16.999939,18.9933472,17,18.4995117z M21.2675781,20.2675781c-0.8649292,0.8268433-2.164917,0.9304199-3.138855,0.31073l3.4567261-3.4567261C22.2282715,18.0921631,22.1225586,19.4123535,21.2675781,20.2675781z M15.5,12h-7C8.223877,12,8,12.223877,8,12.5S8.223877,13,8.5,13h7c0.276123,0,0.5-0.223877,0.5-0.5S15.776123,12,15.5,12z M13.5,17c0.276123,0,0.5-0.223877,0.5-0.5S13.776123,16,13.5,16h-5C8.223877,16,8,16.223877,8,16.5S8.223877,17,8.5,17H13.5z"/></svg>