<svg xmlns="http://www.w3.org/2000/svg" enable-background="new 0 0 24 24" viewBox="0 0 24 24"><path fill="#6563ff" d="M16.5,17c-0.3,0-0.5,0.2-0.5,0.5v2c0,0.8-0.7,1.5-1.5,1.5h-9C4.7,21,4,20.3,4,19.5v-15C4,3.7,4.7,3,5.5,3h9C15.3,3,16,3.7,16,4.5v2C16,6.8,16.2,7,16.5,7S17,6.8,17,6.5v-2C17,3.1,15.9,2,14.5,2h-9C4.1,2,3,3.1,3,4.5v15C3,20.9,4.1,22,5.5,22h9c1.4,0,2.5-1.1,2.5-2.5v-2C17,17.2,16.8,17,16.5,17z M22,12c0-0.1,0-0.1,0-0.2c0-0.1-0.1-0.1-0.1-0.2l-3-3c-0.2-0.2-0.5-0.2-0.7,0c-0.2,0.2-0.2,0.5,0,0.7l2.1,2.1h-7.8c-0.3,0-0.5,0.2-0.5,0.5s0.2,0.5,0.5,0.5h7.8l-2.1,2.1C18.1,14.7,18,14.9,18,15c0,0.3,0.2,0.5,0.5,0.5c0.1,0,0.3-0.1,0.4-0.1l3-3c0,0,0.1-0.1,0.1-0.2C22,12.1,22,12.1,22,12C22,12,22,12,22,12C22,12,22,12,22,12z"/></svg>