<svg xmlns="http://www.w3.org/2000/svg" enable-background="new 0 0 24 24" viewBox="0 0 24 24"><path fill="#6563ff" d="M6.8,3C6.9,3,7,3,7,3h6v3.7C13,8,14,9,15.3,9H19v6.3c0,0.3,0.2,0.5,0.5,0.5h0c0.3,0,0.5-0.2,0.5-0.5V8.5c0-0.1,0-0.1,0-0.2c0-0.1-0.1-0.1-0.1-0.2l-6-6c0,0-0.1-0.1-0.2-0.1c-0.1,0-0.1,0-0.2,0H7C6.9,2,6.8,2,6.7,2c-0.3,0-0.5,0.3-0.4,0.6C6.3,2.8,6.6,3,6.8,3z M14,3.7L18.3,8h-3C14.6,8,14,7.4,14,6.7V3.7z M21.9,21.1l-19-19C2.7,2,2.4,2,2.2,2.1C2,2.3,2,2.7,2.1,2.9L4,4.7C4,4.8,4,4.9,4,5v14c0,1.7,1.3,3,3,3h10c1.1,0,2.2-0.7,2.7-1.6l1.5,1.5c0.1,0.1,0.2,0.1,0.4,0.1c0.1,0,0.3-0.1,0.4-0.1C22,21.7,22,21.3,21.9,21.1z M17,21H7c-1.1,0-2-0.9-2-2V5.7l13.9,13.9C18.6,20.4,17.9,21,17,21z"/></svg>