<svg xmlns="http://www.w3.org/2000/svg" enable-background="new 0 0 24 24" viewBox="0 0 24 24"><path fill="#6563ff" d="M15.4375,20.9375h-8.5c-1.1040039-0.0014038-1.9985962-0.8959961-2-2v-14c0.0014038-1.1039429,0.8959961-1.9985352,2-2h6v3.6669922c0.0016479,1.2877808,1.0452271,2.3313599,2.3330078,2.3330078H18.9375v3.5c0,0.2761841,0.2238159,0.5,0.5,0.5c0.276123,0,0.5-0.2238159,0.5-0.5v-4c0-0.1325684-0.0526733-0.2597656-0.1464844-0.3535156l-6-6C13.6972656,1.9901733,13.5701294,1.9375,13.4375,1.9375h-6.5c-1.6561279,0.0018311-2.9981689,1.3438721-3,3v14c0.0018311,1.6561279,1.3438721,2.9981689,3,3h8.5c0.276123,0,0.5-0.2238159,0.5-0.5C15.9375,21.161377,15.713623,20.9375,15.4375,20.9375z M13.9375,3.6445312L18.2304688,7.9375h-2.9599609C14.5345459,7.9368896,13.9381104,7.3404541,13.9375,6.6044922V3.6445312z M19.4375,15.9375c-0.276123,0-0.5,0.223877-0.5,0.5v3.0005493c0.0001831,0.276001,0.223999,0.4996338,0.5,0.4994507h0.0006104c0.2759399-0.0001831,0.4995728-0.223999,0.4993896-0.5v-3C19.9375,16.161377,19.713623,15.9375,19.4375,15.9375z M19.4375,20.8125c-0.3451538,0-0.625,0.2798462-0.625,0.625s0.2798462,0.625,0.625,0.625s0.625-0.2798462,0.625-0.625S19.7826538,20.8125,19.4375,20.8125z M15.4375,11.9375h-7c-0.276123,0-0.5,0.223877-0.5,0.5s0.223877,0.5,0.5,0.5h7c0.276123,0,0.5-0.223877,0.5-0.5S15.713623,11.9375,15.4375,11.9375z M15.4375,15.9375h-7c-0.276123,0-0.5,0.223877-0.5,0.5s0.223877,0.5,0.5,0.5h7c0.276123,0,0.5-0.223877,0.5-0.5S15.713623,15.9375,15.4375,15.9375z M8.4375,7.9375c-0.276123,0-0.5,0.223877-0.5,0.5s0.223877,0.5,0.5,0.5h2c0.276123,0,0.5-0.223877,0.5-0.5s-0.223877-0.5-0.5-0.5H8.4375z"/></svg>