<svg xmlns="http://www.w3.org/2000/svg" enable-background="new 0 0 24 24" viewBox="0 0 24 24"><path fill="#6563ff" d="M22,10.3c0-0.1-0.1-0.1-0.1-0.2l-6-6c0,0-0.1-0.1-0.2-0.1c-0.1,0-0.1,0-0.2,0H8.8C8.5,4,8.3,4.2,8.3,4.5S8.5,5,8.8,5H15v3.7c0,1.3,1,2.3,2.3,2.3H21v6c0,0.1,0,0.1,0,0.3c0,0.3,0.2,0.5,0.5,0.5c0,0,0,0,0,0c0.3,0,0.5-0.2,0.5-0.5c0-0.1,0-0.2,0-0.3v-6.5C22,10.4,22,10.4,22,10.3z M17.3,10C16.6,10,16,9.4,16,8.7v-3l4.3,4.3H17.3z M2.9,2.1C2.7,2,2.4,2,2.2,2.1C2,2.3,2,2.7,2.1,2.9l1.5,1.5C2.7,4.8,2,5.9,2,7v10c0,1.7,1.3,3,3,3h14c0.1,0,0.2,0,0.3,0l1.9,1.9c0.1,0.1,0.2,0.1,0.4,0.1c0.1,0,0.3-0.1,0.4-0.1c0.2-0.2,0.2-0.5,0-0.7L2.9,2.1z M5,19c-1.1,0-2-0.9-2-2V7c0-0.9,0.6-1.6,1.4-1.9L18.3,19H5z"/></svg>