<svg xmlns="http://www.w3.org/2000/svg" enable-background="new 0 0 24 24" viewBox="0 0 24 24"><path fill="#6563ff" d="M21.5,2C21.223877,2,21,2.223877,21,2.5v3h-3v-3C18,2.223877,17.776123,2,17.5,2S17,2.223877,17,2.5v2H7v-2C7,2.223877,6.776123,2,6.5,2S6,2.223877,6,2.5v3H3v-3C3,2.223877,2.776123,2,2.5,2S2,2.223877,2,2.5v19.0005493C2.0001831,21.7765503,2.223999,22.0001831,2.5,22h0.0006104C2.7765503,21.9998169,3.0001831,21.776001,3,21.5v-3h3v3.0005493C6.0001831,21.7765503,6.223999,22.0001831,6.5,22h0.0006104C6.7765503,21.9998169,7.0001831,21.776001,7,21.5v-2h10v2.0005493C17.0001831,21.7765503,17.223999,22.0001831,17.5,22h0.0006104C17.7765503,21.9998169,18.0001831,21.776001,18,21.5v-3h3v3.0005493C21.0001831,21.7765503,21.223999,22.0001831,21.5,22h0.0006104C21.7765503,21.9998169,22.0001831,21.776001,22,21.5v-19C22,2.223877,21.776123,2,21.5,2z M6,17.5H3v-3h3V17.5z M6,13.5H3v-3h3V13.5z M6,9.5H3v-3h3V9.5z M17,18.5H7v-6h10V18.5z M17,11.5H7v-6h10V11.5z M21,17.5h-3v-3h3V17.5z M21,13.5h-3v-3h3V13.5z M21,9.5h-3v-3h3V9.5z"/></svg>