<svg xmlns="http://www.w3.org/2000/svg" enable-background="new 0 0 24 24" viewBox="0 0 24 24"><path fill="#6563ff" d="M19.5,2h-15C3.119812,2.0012817,2.0012817,3.119812,2,4.5v2.1279297C2.0009766,7.322937,2.2902832,7.9863281,2.7988281,8.460022L9,14.2177734V21.5C9,21.776123,9.223877,22,9.5,22c0.0635986,0.0001221,0.1266479-0.012146,0.1855469-0.0361328l5-2C14.8756104,19.8884277,15.0003052,19.7044678,15,19.5v-5.2822266l6.2021484-5.7578735C21.710083,7.9859009,21.9989014,7.3226929,22,6.6279297V4.5C21.9987183,3.119812,20.880188,2.0012817,19.5,2z M14.1601562,13.6337891C14.0579834,13.7281494,13.999939,13.8609009,14,14v5.1611328l-4,1.6005859V14c0.000061-0.1390991-0.0579834-0.2718506-0.1601562-0.3662109L3.7728882,8h16.4551392L14.1601562,13.6337891z M21,6.6279297C20.9997559,6.755188,20.9783936,6.8789673,20.9471436,7H3.0529175C3.0216675,6.8789673,3.0002441,6.755188,3,6.6279297V4.5C3.0009155,3.671936,3.671936,3.0009155,4.5,3h15c0.828064,0.0009155,1.4990845,0.671936,1.5,1.5V6.6279297z"/></svg>