<svg xmlns="http://www.w3.org/2000/svg" enable-background="new 0 0 24 24" viewBox="0 0 24 24"><path fill="#6563ff" d="M16.4,15.7C16.4,15.7,16.4,15.7,16.4,15.7C16.4,15.7,16.4,15.7,16.4,15.7l-5.5-5.5c0,0,0,0,0,0l-4-4c0,0,0,0,0,0l-4-4C2.7,2,2.4,2,2.2,2.1C2,2.3,2,2.7,2.1,2.9l3.4,3.4C4.6,6.6,4,7.5,4,8.5v1.6c0,0.7,0.3,1.4,0.8,1.8l5.2,4.8v4.8c0,0.3,0.2,0.5,0.5,0.5c0.1,0,0.1,0,0.2,0l5-2c0.2-0.1,0.3-0.3,0.3-0.5v-2.8l0,0l5.1,5.1c0.1,0.1,0.2,0.1,0.4,0.1c0.1,0,0.3-0.1,0.4-0.1c0.2-0.2,0.2-0.5,0-0.7L16.4,15.7z M5,8.5C5,7.7,5.6,7.1,6.3,7l3,3H5V8.5z M15.2,16.1c-0.1,0.1-0.2,0.2-0.2,0.4v2.7l-4,1.6v-4.3c0-0.1-0.1-0.3-0.2-0.4l-5.4-4.9c-0.1-0.1-0.1-0.1-0.2-0.2h5l5,5L15.2,16.1z M19.5,6h-8.7c-0.3,0-0.5,0.2-0.5,0.5S10.5,7,10.8,7h8.7C20.3,7,21,7.7,21,8.5V10h-6.3c-0.3,0-0.5,0.2-0.5,0.5s0.2,0.5,0.5,0.5h6c-0.1,0.1-0.1,0.2-0.2,0.2l-2.6,2.4c-0.1,0.1-0.2,0.2-0.2,0.4c0,0.3,0.2,0.5,0.5,0.5c0.1,0,0.2,0,0.3-0.1l2.6-2.4c0.5-0.5,0.8-1.1,0.8-1.8V8.5C22,7.1,20.9,6,19.5,6z"/></svg>