<svg xmlns="http://www.w3.org/2000/svg" enable-background="new 0 0 24 24" viewBox="0 0 24 24"><path fill="#6563ff" d="M20.0893555,11.7820435c-0.4054565-1.2562256-1.0980835-2.4006958-2.0229492-3.3425903c-0.0415039-0.0384521-0.0874023-0.0718994-0.1367188-0.0996094c-0.1189575-0.0657959-0.2593994-0.0809326-0.3896484-0.0419922c-0.1306152,0.0396729-0.2393188,0.1310425-0.3007812,0.2529297c-0.5879517,1.1537476-1.5157471,2.0993042-2.6582031,2.7089844c1.2845459-3.7355957-0.269165-7.8566895-3.7001953-9.8144531c-0.2404175-0.1359253-0.5455322-0.0512085-0.6814575,0.189209c-0.0369263,0.0653687-0.0587158,0.1382446-0.0636597,0.2131348C10.0137329,3.899353,9.0570068,5.8117065,7.4882812,7.1396484L7.2324219,7.3476562C6.5097046,7.831604,5.8702393,8.4295654,5.3388672,9.1181641c-2.9129639,3.6697998-2.2994385,9.0061646,1.3703613,11.9191284c0.6328735,0.5023193,1.3341675,0.9116821,2.0827637,1.2156372c0.1540527,0.0635986,0.3297729,0.0456543,0.4677734-0.0478516c0.1378784-0.0931396,0.22052-0.2485962,0.2207031-0.414978c-0.0007324-0.0610352-0.0119629-0.121521-0.0332031-0.1787109c-0.3817139-1.4301758-0.3293457-2.9415283,0.1503906-4.3417969c0.7384644,2.3162842,2.4343872,4.2049561,4.6582031,5.1875c0.0643921,0.0281372,0.1338501,0.0427246,0.2041016,0.0429688c0.0524292,0.0001221,0.1044922-0.0081177,0.1542969-0.0244141C19.0791626,21.0346069,21.5303955,16.2468872,20.0893555,11.7820435z M16.7765503,20.1703491c-0.6807251,0.5621948-1.4553833,0.9997559-2.288269,1.2925415c-1.987854-0.937439-3.4628296-2.7017212-4.0332031-4.8242188c-0.0819092-0.3358154-0.1455078-0.6758423-0.1904297-1.0185547c-0.0302734-0.2112427-0.190918-0.380127-0.4003906-0.4208984c-0.03125-0.0057983-0.0629272-0.0087891-0.0947266-0.0087891c-0.178772,0.0001831-0.3439331,0.0953979-0.4335938,0.25c-0.9556885,1.6484375-1.3265991,3.5713501-1.0527344,5.4569702c-3.5922852-2.043457-4.8479004-6.6121216-2.8043823-10.2044678c0.190979-0.3357544,0.4077148-0.65625,0.6481934-0.9585571c0.4706421-0.611145,1.0383911-1.1409912,1.680603-1.5683594c0.0130005-0.0082397,0.0253906-0.017395,0.0371094-0.0273438L8.140625,7.8964844v0.0009766c1.5557861-1.3163452,2.5856934-3.1487427,2.9013672-5.1621094c1.8773193,1.3600464,2.9880371,3.538269,2.9863281,5.8564453c-0.0036621,1.1744385-0.2901001,2.3307495-0.835022,3.3710938c-0.09375,0.1790161-0.0701904,0.3969116,0.0595703,0.5517578c0.1300659,0.1541138,0.3393555,0.2159424,0.5322266,0.1572266c1.6509399-0.5170898,3.0665894-1.5997925,3.9980469-3.0576172C20.420166,12.8071899,19.9694824,17.5333252,16.7765503,20.1703491z"/></svg>