<svg xmlns="http://www.w3.org/2000/svg" enable-background="new 0 0 24 24" viewBox="0 0 24 24"><path fill="#6563ff" d="M15,7.6328125V3h1.5C16.776123,3,17,2.776123,17,2.5S16.776123,2,16.5,2h-9C7.223877,2,7,2.223877,7,2.5S7.223877,3,7.5,3H9v4.6328125c-2.7342529,1.1922607-4.5014038,3.8921509-4.4998779,6.875061C4.5022583,18.6478271,7.8600464,22.0021362,12,22c2.9829102,0.0015259,5.6828003-1.765625,6.875061-4.4998779C20.5297852,13.7052612,18.7948608,9.2875366,15,7.6328125z M9.6787109,8.4345703C9.8720703,8.3604736,9.9998169,8.1748657,10,7.9677734V3h4v4.9677734c0.0001831,0.2070923,0.1279297,0.3927002,0.3212891,0.4667969C15.6294556,8.9347534,16.7276001,9.8401489,17.4709473,11H6.53479C7.2580566,9.8704834,8.3297729,8.9503174,9.6787109,8.4345703z M14.3212891,20.5773315c-3.3531494,1.2819824-7.1106567-0.3969727-8.3926392-3.7501221C5.3077393,15.2032471,5.3865356,13.4865112,6.0085449,12h11.9807739c0.026062,0.0622559,0.0578613,0.1213379,0.0820312,0.1846313C19.3533936,15.5377808,17.6744385,19.2952881,14.3212891,20.5773315z M14.5,15c-0.8284302,0-1.5,0.6715698-1.5,1.5s0.6715698,1.5,1.5,1.5c0.828064-0.0009155,1.4990845-0.671936,1.5-1.5C16,15.6715698,15.3284302,15,14.5,15z M14.5,17c-0.276123,0-0.5-0.223877-0.5-0.5s0.223877-0.5,0.5-0.5c0.2759399,0.0005493,0.4994507,0.2240601,0.5,0.5C15,16.776123,14.776123,17,14.5,17z M9.5,14C8.6715698,14,8,14.6715698,8,15.5S8.6715698,17,9.5,17c0.828064-0.0009155,1.4990845-0.671936,1.5-1.5C11,14.6715698,10.3284302,14,9.5,14z M9.5,16C9.223877,16,9,15.776123,9,15.5S9.223877,15,9.5,15c0.2759399,0.0005493,0.4994507,0.2240601,0.5,0.5C10,15.776123,9.776123,16,9.5,16z"/></svg>