<svg xmlns="http://www.w3.org/2000/svg" enable-background="new 0 0 24 24" viewBox="0 0 24 24"><path fill="#6563ff" d="M10,14c-0.8284302,0-1.5,0.6715698-1.5,1.5S9.1715698,17,10,17c0.828064-0.0009155,1.4990845-0.671936,1.5-1.5C11.5,14.6715698,10.8284302,14,10,14z M10,16c-0.276123,0-0.5-0.223877-0.5-0.5S9.723877,15,10,15c0.2759399,0.0005493,0.4994507,0.2240601,0.5,0.5C10.5,15.776123,10.276123,16,10,16z M14,15c-0.8284302,0-1.5,0.6715698-1.5,1.5S13.1715698,18,14,18c0.828064-0.0009155,1.4990845-0.671936,1.5-1.5C15.5,15.6715698,14.8284302,15,14,15z M14,17c-0.276123,0-0.5-0.223877-0.5-0.5S13.723877,16,14,16c0.2759399,0.0005493,0.4994507,0.2240601,0.5,0.5C14.5,16.776123,14.276123,17,14,17z M20.2695312,18.2783203L15,8.8691406V3h1.5C16.776123,3,17,2.776123,17,2.5S16.776123,2,16.5,2h-9C7.223877,2,7,2.223877,7,2.5S7.223877,3,7.5,3H9v5.8691406l-5.2695312,9.4091797c-0.2086182,0.3729248-0.3182373,0.7930298-0.3183594,1.2203369c-0.0003662,1.3811035,1.1188965,2.5009766,2.5,2.5013428h12.1757812c0.4273071-0.0001221,0.8474121-0.1097412,1.2203369-0.3183594C20.5134888,21.0073242,20.9438477,19.4835815,20.2695312,18.2783203z M9.9365234,9.2441406C9.9783936,9.1696167,10.0003052,9.0855103,10,9V3h4v6c-0.0003052,0.0855103,0.0216064,0.1696167,0.0634766,0.2441406L15.046814,11H8.953186L9.9365234,9.2441406z M18.0878906,21H5.9121094c-0.2567749,0-0.5092773-0.065918-0.7333374-0.1914673c-0.7227173-0.4050293-0.9802856-1.3192139-0.5752563-2.0419312L8.3931274,12h7.2137451l3.7896118,6.7666016c0.1255493,0.223999,0.1914673,0.4765015,0.1914673,0.7333374C19.5879517,20.3283691,18.9163818,21,18.0878906,21z"/></svg>