<svg xmlns="http://www.w3.org/2000/svg" enable-background="new 0 0 24 24" viewBox="0 0 24 24"><path fill="#6563ff" d="M8.4833984,19.3642578c-1.1213989-0.4199829-2.1401978-1.0745239-2.9882812-1.9199219c-1.9230347-1.9271851-2.8130493-4.6552124-2.3964844-7.3457031c0.956604-0.1421509,1.9302368-0.1239624,2.8808594,0.0537109c0.2698364,0.0487061,0.5285034-0.1292725,0.5795288-0.3986816C6.6103516,9.482605,6.4321899,9.2212524,6.1611328,9.1699219C4.9747925,8.9464111,3.757019,8.9480591,2.5712891,9.1748047C2.3708496,9.2141113,2.2141113,9.3708496,2.1748047,9.5712891c-0.6088867,3.1165771,0.3704834,6.3320312,2.6132812,8.5800781c0.9481201,0.9451294,2.0866699,1.6774902,3.3398438,2.1483765c0.0568848,0.0211792,0.1170654,0.0321045,0.1777344,0.0322266v0.000061c0.2079468,0.0001221,0.3942261-0.1283569,0.4680176-0.3227539C8.8716431,19.7509766,8.7416382,19.4622192,8.4833984,19.3642578z M12.2802734,4.0859375c-0.1690674-0.1152344-0.3914795-0.1152344-0.5605469,0C10.6913452,4.776123,9.807373,5.6601562,9.1171875,6.6884766c-2.9334717,4.3708496-1.7682495,10.2921143,2.6025391,13.2255859C11.8024292,19.9701538,11.9000854,20.0001221,12,20c0.0999146,0.0001221,0.1975708-0.0298462,0.2802734-0.0859375c1.0283813-0.6901855,1.9123535-1.5742188,2.6025391-2.6025391C17.8162842,12.9406738,16.651062,7.0194092,12.2802734,4.0859375z M12,18.8886719c-0.7122803-0.5200195-1.3395996-1.1472778-1.8595581-1.8595581C7.362915,13.2246094,8.1954956,7.888855,12,5.1113281c0.7122803,0.5200195,1.3395996,1.1472778,1.8595581,1.8595581C16.637085,10.7753906,15.8045044,16.111145,12,18.8886719z M21.8251953,9.5712891c-0.0393066-0.2005005-0.1960449-0.3571777-0.3964844-0.3965454c-1.1856689-0.2271729-2.4035645-0.2288208-3.5898438-0.0048828c-0.2694092,0.0510254-0.4473267,0.3096924-0.3986816,0.5795288c0.0490112,0.2715454,0.3088379,0.4519043,0.5803223,0.4028931c0.9506226-0.1776733,1.9242554-0.1958008,2.8808594-0.0537109c0.4165649,2.6904907-0.4734497,5.4185181-2.3964844,7.3457642c-0.8480835,0.8453369-1.8668823,1.499939-2.9882812,1.9199219c-0.194397,0.0737305-0.322937,0.2600708-0.3227539,0.4679565c0.0001831,0.2762451,0.2242432,0.5,0.5004883,0.4997559c0.0606689-0.0001221,0.1208496-0.0110474,0.1777344-0.0322266c1.2531738-0.4708862,2.3917236-1.2032471,3.3398438-2.1483765C21.4547119,15.9033203,22.434082,12.6878662,21.8251953,9.5712891z"/></svg>