<svg xmlns="http://www.w3.org/2000/svg" enable-background="new 0 0 24 24" viewBox="0 0 24 24"><path fill="#6563ff" d="M15,11.5h-2.5V9c0-0.276123-0.223877-0.5-0.5-0.5S11.5,8.723877,11.5,9v2.5H9c-0.276123,0-0.5,0.223877-0.5,0.5s0.223877,0.5,0.5,0.5h2.5v2.5005493C11.5001831,15.2765503,11.723999,15.5001831,12,15.5h0.0006104C12.2765503,15.4998169,12.5001831,15.276001,12.5,15v-2.5H15c0.276123,0,0.5-0.223877,0.5-0.5S15.276123,11.5,15,11.5z M7.5,2h-3C3.119812,2.0012817,2.0012817,3.119812,2,4.5v3.0006104C2.0001831,7.7765503,2.223999,8.0001831,2.5,8h0.0006104C2.7765503,7.9998169,3.0001831,7.776001,3,7.5v-3C3.0009155,3.671936,3.671936,3.0009155,4.5,3h3C7.776123,3,8,2.776123,8,2.5S7.776123,2,7.5,2z M7.5,21h-3c-0.828064-0.0009155-1.4990845-0.671936-1.5-1.5v-3C3,16.223877,2.776123,16,2.5,16S2,16.223877,2,16.5v3c0.0012817,1.380188,1.119812,2.4987183,2.5,2.5h3C7.776123,22,8,21.776123,8,21.5S7.776123,21,7.5,21z M21.5,16c-0.276123,0-0.5,0.223877-0.5,0.5v3c-0.0009155,0.828064-0.671936,1.4990845-1.5,1.5h-3c-0.276123,0-0.5,0.223877-0.5,0.5s0.223877,0.5,0.5,0.5h3c1.380188-0.0012817,2.4987183-1.119812,2.5-2.5v-3C22,16.223877,21.776123,16,21.5,16z M19.5,2h-3C16.223877,2,16,2.223877,16,2.5S16.223877,3,16.5,3h3c0.828064,0.0009155,1.4990845,0.671936,1.5,1.5v3.0006104C21.0001831,7.7765503,21.223999,8.0001831,21.5,8h0.0006104C21.7765503,7.9998169,22.0001831,7.776001,22,7.5v-3C21.9987183,3.119812,20.880188,2.0012817,19.5,2z"/></svg>