<svg xmlns="http://www.w3.org/2000/svg" enable-background="new 0 0 24 24" viewBox="0 0 24 24"><path fill="#6563ff" d="M7.5,21h-3c-0.828064-0.0009155-1.4990845-0.671936-1.5-1.5v-3C3,16.223877,2.776123,16,2.5,16S2,16.223877,2,16.5v3c0.0012817,1.380188,1.119812,2.4987183,2.5,2.5h3C7.776123,22,8,21.776123,8,21.5S7.776123,21,7.5,21z M2.5,8h0.0006104C2.7765503,7.9998169,3.0001831,7.776001,3,7.5v-3C3.0009155,3.671936,3.671936,3.0009155,4.5,3h3C7.776123,3,8,2.776123,8,2.5S7.776123,2,7.5,2h-3C3.119812,2.0012817,2.0012817,3.119812,2,4.5v3.0006104C2.0001831,7.7765503,2.223999,8.0001831,2.5,8z M18,12c0-0.276123-0.223877-0.5-0.5-0.5h-1.550415C15.7218628,9.6951294,14.3048706,8.2781372,12.5,8.050415V6.5C12.5,6.223877,12.276123,6,12,6s-0.5,0.223877-0.5,0.5v1.550415C9.6951294,8.2781372,8.2781372,9.6951294,8.050415,11.5H6.5C6.223877,11.5,6,11.723877,6,12s0.223877,0.5,0.5,0.5h1.550415C8.2781372,14.3048706,9.6951294,15.7218628,11.5,15.949585v1.5509644C11.5001831,17.7765503,11.723999,18.0001831,12,18h0.0006104c0.2759399-0.0001831,0.4995728-0.223999,0.4993896-0.5v-1.5508423C14.303894,15.7200928,15.7200928,14.303894,15.9491577,12.5H17.5C17.776123,12.5,18,12.276123,18,12z M12,15c-1.6568604,0-3-1.3431396-3-3s1.3431396-3,3-3c1.6561279,0.0018311,2.9981689,1.3438721,3,3C15,13.6568604,13.6568604,15,12,15z M19.5,2h-3C16.223877,2,16,2.223877,16,2.5S16.223877,3,16.5,3h3c0.828064,0.0009155,1.4990845,0.671936,1.5,1.5v3.0006104C21.0001831,7.7765503,21.223999,8.0001831,21.5,8h0.0006104C21.7765503,7.9998169,22.0001831,7.776001,22,7.5v-3C21.9987183,3.119812,20.880188,2.0012817,19.5,2z M21.5,16c-0.276123,0-0.5,0.223877-0.5,0.5v3c-0.0009155,0.828064-0.671936,1.4990845-1.5,1.5h-3c-0.276123,0-0.5,0.223877-0.5,0.5s0.223877,0.5,0.5,0.5h3c1.380188-0.0012817,2.4987183-1.119812,2.5-2.5v-3C22,16.223877,21.776123,16,21.5,16z"/></svg>