<svg xmlns="http://www.w3.org/2000/svg" enable-background="new 0 0 24 24" viewBox="0 0 24 24"><path fill="#6563ff" d="M19,5h-6.1396484l-0.3163452-0.9492188C12.1364746,2.8253784,10.989624,1.9989014,9.6982422,2H5C3.3438721,2.0018311,2.0018311,3.3438721,2,5v13c0.0018311,1.6561279,1.3438721,2.9981689,3,3h14c1.6561279-0.0018311,2.9981689-1.3438721,3-3V8C21.9981689,6.3438721,20.6561279,5.0018311,19,5z M21,18c-0.0014038,1.1040039-0.8959961,1.9985962-2,2H5c-1.1040039-0.0014038-1.9985962-0.8959961-2-2V5c0.0014038-1.1040039,0.8959961-1.9985962,2-2h4.6982422c0.8607788-0.0007324,1.6251831,0.550293,1.8964844,1.3671875l0.4306641,1.2910156C12.09375,5.8622437,12.28479,5.9998169,12.5,6H19c1.1040039,0.0014038,1.9985962,0.8959961,2,2V18z M12,9.9169922c-0.9613647-0.6514282-2.2498169-0.5289307-3.071228,0.2919922c-0.9462891,0.9456787-0.9467773,2.4794922-0.0010376,3.4257812l2.71875,2.71875C11.7401123,16.4474487,11.8673706,16.5001831,12,16.5c0.1326294,0.0001831,0.2598877-0.0525513,0.3535156-0.1464844l2.71875-2.71875c0.8209229-0.8214111,0.9434204-2.1098633,0.2919922-3.071228C14.6137695,9.4559937,13.1075439,9.1665039,12,9.9169922z M14.3652344,12.9277344L12,15.2930298l-2.3652344-2.3652954c-0.2670288-0.2668457-0.4168701-0.6289673-0.416626-1.0064697c0.0006104-0.7849731,0.6374512-1.4208374,1.4224854-1.4202881c0.3772583-0.0006714,0.7392578,0.1490479,1.0059204,0.4160156c0,0.000061,0.000061,0.0001221,0.0001221,0.0001221c0.1951904,0.1951904,0.5117188,0.1951294,0.7068481-0.0001221c0.5552368-0.555481,1.4557495-0.5557251,2.0112305-0.0004883C14.9202881,11.4718018,14.9204712,12.3722534,14.3652344,12.9277344z"/></svg>