<svg xmlns="http://www.w3.org/2000/svg" enable-background="new 0 0 24 24" viewBox="0 0 24 24"><path fill="#6563ff" d="M12,15.875c-0.3451538,0-0.625,0.2798462-0.625,0.625s0.2798462,0.625,0.625,0.625c0.3452148,0,0.625-0.2798462,0.625-0.625S12.3452148,15.875,12,15.875z M12.625,9.0769653C11.2895508,8.7345581,9.9293823,9.5395508,9.5869141,10.875c-0.0690308,0.2672729,0.0916138,0.539856,0.3588867,0.6088867s0.539856-0.0916138,0.6088867-0.3588867c0.12677-0.4924927,0.4944458-0.887207,0.9767456-1.0484619c0.7854614-0.2625732,1.6350708,0.1612549,1.8977051,0.9467163c0.2625732,0.7854004-0.1612549,1.6350708-0.9467163,1.897644c-0.604126,0.223877-0.9989624,0.8071289-0.9824219,1.4511719V14.5c0,0.0001831,0,0.0003662,0,0.0005493C11.5001831,14.7765503,11.723999,15.0001831,12,15c0.0001831,0,0.0003662,0,0.0006104,0c0.2759399-0.0001831,0.4995728-0.223999,0.4993896-0.5v-0.1279907c-0.0114746-0.2142944,0.1088257-0.4139404,0.3037109-0.5039062c1.2050781-0.4154053,1.9089966-1.6664429,1.6386719-2.9121094C14.2391968,10.0371704,13.5365601,9.31073,12.625,9.0769653z M19,5h-6.1396484l-0.3163452-0.9492188C12.1365967,2.8252563,10.9896851,1.9987793,9.6982422,2H5C3.3438721,2.0018311,2.0018311,3.3438721,2,5v13c0.0018311,1.6561279,1.3438721,2.9981689,3,3h14c1.6561279-0.0018311,2.9981689-1.3438721,3-3V8C21.9981689,6.3438721,20.6561279,5.0018311,19,5z M21,18c-0.0014038,1.1040039-0.8959961,1.9985962-2,2H5c-1.1040649-0.0012817-1.9987183-0.8959351-2-2V5c0.0012817-1.1040649,0.8959351-1.9987183,2-2h4.6982422c0.8609619-0.0006714,1.6255493,0.550293,1.8974609,1.3671875l0.4301758,1.2910156C12.093811,5.8623657,12.2848511,6.000061,12.5,6H19c1.1040039,0.0014038,1.9985962,0.8959961,2,2V18z"/></svg>