<svg xmlns="http://www.w3.org/2000/svg" enable-background="new 0 0 24 24" viewBox="0 0 24 24"><path fill="#6563ff" d="M12,14.875c-0.3451538,0-0.625,0.2798462-0.625,0.625s0.2798462,0.625,0.625,0.625s0.625-0.2798462,0.625-0.625S12.3451538,14.875,12,14.875z M12,14c0.0001831,0,0.0003662,0,0.0006104,0c0.2759399-0.0001831,0.4995728-0.223999,0.4993896-0.5v-2c0-0.276123-0.223877-0.5-0.5-0.5s-0.5,0.223877-0.5,0.5v2c0,0.0001831,0,0.0003662,0,0.0005493C11.5001831,13.7765503,11.723999,14.0001831,12,14z M19,5h-6.1396484l-0.3163452-0.9492188C12.1364746,2.8253784,10.989624,1.9989014,9.6982422,2H5C3.3438721,2.0018311,2.0018311,3.3438721,2,5v13c0.0018311,1.6561279,1.3438721,2.9981689,3,3h14c1.6561279-0.0018311,2.9981689-1.3438721,3-3V8C21.9981689,6.3438721,20.6561279,5.0018311,19,5z M21,18c-0.0014038,1.1040039-0.8959961,1.9985962-2,2H5c-1.1040039-0.0014038-1.9985962-0.8959961-2-2V5c0.0014038-1.1040039,0.8959961-1.9985962,2-2h4.6982422c0.8607788-0.0007324,1.6251831,0.550293,1.8964844,1.3671875l0.4306641,1.2910156C12.09375,5.8622437,12.28479,5.9998169,12.5,6H19c1.1040039,0.0014038,1.9985962,0.8959961,2,2V18z"/></svg>