<svg xmlns="http://www.w3.org/2000/svg" enable-background="new 0 0 24 24" viewBox="0 0 24 24"><path fill="#6563ff" d="M19,5h-6.1396484l-0.3163452-0.9492188C12.1364746,2.8253784,10.989624,1.9989014,9.6982422,2H5C3.3438721,2.0018311,2.0018311,3.3438721,2,5v13c0.0018311,1.6561279,1.3438721,2.9981689,3,3h14c1.6561279-0.0018311,2.9981689-1.3438721,3-3V8C21.9981689,6.3438721,20.6561279,5.0018311,19,5z M21,18c-0.0014038,1.1040039-0.8959961,1.9985962-2,2H5c-1.1040039-0.0014038-1.9985962-0.8959961-2-2V5c0.0014038-1.1040039,0.8959961-1.9985962,2-2h4.6982422c0.8607788-0.0007324,1.6251831,0.550293,1.8964844,1.3671875l0.4306641,1.2910156C12.09375,5.8622437,12.28479,5.9998169,12.5,6H19c1.1040039,0.0014038,1.9985962,0.8959961,2,2V18z M12.3538208,10.6467896c-0.0461426-0.0462646-0.1014404-0.0828247-0.1627808-0.1082153c-0.0606079-0.0250244-0.1248779-0.0380859-0.1894531-0.038269C12.0010376,10.5003052,12.0005493,10.5,12,10.5c-0.0651245,0-0.1300659,0.0132446-0.1911621,0.0385742c-0.0612183,0.0253906-0.1164551,0.0620117-0.1625977,0.1082153l-1.9996948,1.9996948c-0.1871338,0.1937866-0.1871338,0.5009155,0,0.6947021c0.1918335,0.1986084,0.5083618,0.2041626,0.7069702,0.0123291L11.5,12.2069702V16c0,0.0001831,0,0.0003662,0,0.0005493C11.5001831,16.2765503,11.723999,16.5001831,12,16.5c0.0001831,0,0.0003662,0,0.0006104,0C12.2765503,16.4998169,12.5001831,16.276001,12.5,16v-3.7930298l1.1464844,1.1465454C13.7401123,13.4474487,13.8673706,13.5001831,14,13.5c0.1325684,0,0.2597046-0.0526733,0.3534546-0.1464233c0.1952515-0.1951904,0.1953125-0.5117798,0.000061-0.7070923L12.3538208,10.6467896z"/></svg>