<svg xmlns="http://www.w3.org/2000/svg" enable-background="new 0 0 24 24" viewBox="0 0 24 24"><path fill="#6563ff" d="M21.5,19h-7.050415c-0.1988525-0.9794922-0.9700928-1.7507324-1.949585-1.949585V14h4.6669922C18.178894,13.9988403,18.9988403,13.178894,19,12.1669922V5.8330078C18.9988403,4.821106,18.178894,4.0011597,17.1669922,4h-4.3066406l-0.2480469-0.7460938C12.3631592,2.5045166,11.6618042,1.9991455,10.8720703,2H6.8330078C5.821106,2.0011597,5.0011597,2.821106,5,3.8330078v8.3339844C5.0011597,13.178894,5.821106,13.9988403,6.8330078,14H11.5v3.050415C10.5205078,17.2492676,9.7492676,18.0205078,9.550415,19H2.5C2.223877,19,2,19.223877,2,19.5S2.223877,20,2.5,20h7.050415C9.7821045,21.1411133,10.7905273,22,12,22c1.2089233-0.0010986,2.2167358-0.8594971,2.4491577-2H21.5c0.276123,0,0.5-0.223877,0.5-0.5S21.776123,19,21.5,19z M6.8330078,13C6.373291,12.9992676,6.0007324,12.626709,6,12.1669922V3.8330078C6.0007324,3.373291,6.373291,3.0007324,6.8330078,3h4.0390625c0.3590088-0.0002441,0.6778564,0.2295532,0.7910156,0.5703125l0.3623047,1.0878906C12.09375,4.8622437,12.28479,4.9998169,12.5,5h4.6669922C17.626709,5.0007324,17.9992676,5.373291,18,5.8330078v6.3339844C17.9992676,12.626709,17.626709,12.9992676,17.1669922,13H6.8330078z M12,21c-0.8284302,0-1.5-0.6715698-1.5-1.5S11.1715698,18,12,18c0.828064,0.0009155,1.4990845,0.671936,1.5,1.5C13.5,20.3284302,12.8284302,21,12,21z"/></svg>