<svg xmlns="http://www.w3.org/2000/svg" enable-background="new 0 0 24 24" viewBox="0 0 24 24"><path fill="#6563ff" d="M14.6464844,10.6464844L11,14.2930298l-1.6465454-1.6464844c-0.1937256-0.1871338-0.5009155-0.1871338-0.6947021,0c-0.1986084,0.1918335-0.2041016,0.5083618-0.0122681,0.7069702l2,2C10.7401123,15.4474487,10.8673706,15.5001831,11,15.5c0.1326294,0.0001221,0.2598267-0.0525513,0.3534546-0.1464844l4-4c0.1871338-0.1937866,0.1871338-0.5009155,0-0.6947021C15.1616211,10.4602051,14.8450928,10.4546509,14.6464844,10.6464844z M19,5h-6.1396484l-0.3163452-0.9492188C12.1364746,2.8253784,10.989624,1.9989014,9.6982422,2H5C3.3438721,2.0018311,2.0018311,3.3438721,2,5v13c0.0018311,1.6561279,1.3438721,2.9981689,3,3h14c1.6561279-0.0018311,2.9981689-1.3438721,3-3V8C21.9981689,6.3438721,20.6561279,5.0018311,19,5z M21,18c-0.0014038,1.1040039-0.8959961,1.9985962-2,2H5c-1.1040039-0.0014038-1.9985962-0.8959961-2-2V5c0.0014038-1.1040039,0.8959961-1.9985962,2-2h4.6982422c0.8607788-0.0007324,1.6251831,0.550293,1.8964844,1.3671875l0.4306641,1.2910156C12.09375,5.8622437,12.28479,5.9998169,12.5,6H19c1.1040039,0.0014038,1.9985962,0.8959961,2,2V18z"/></svg>