<svg xmlns="http://www.w3.org/2000/svg" enable-background="new 0 0 24 24" viewBox="0 0 24 24"><path fill="#6563ff" d="M12.7069092,13l1.6465454-1.6465454c0.1871338-0.1937256,0.1871338-0.5009155,0-0.6947021c-0.1918335-0.1986084-0.5083618-0.2041016-0.7069702-0.0122681l-1.6465454,1.6465454l-1.6464844-1.6464844c-0.1937256-0.1871338-0.5009155-0.1871338-0.6947021,0c-0.1986084,0.1918335-0.2041016,0.5083618-0.0122681,0.7069702L11.2929688,13l-1.6464844,1.6464844c-0.09375,0.09375-0.1464233,0.2208862-0.1464233,0.3534546C9.5,15.276062,9.723877,15.499939,10,15.5c0.1326294,0.0001221,0.2598267-0.0526123,0.3534546-0.1465454l1.6464844-1.6464844l1.6465454,1.6465454C13.7401123,15.4474487,13.8673706,15.5001831,14,15.5c0.1325073-0.000061,0.2595825-0.0526733,0.3533325-0.1463623c0.1953125-0.1952515,0.1953735-0.5118408,0.0001221-0.7070923L12.7069092,13z M19,5h-6.1396484l-0.3163452-0.9492188C12.1364746,2.8253784,10.989624,1.9989014,9.6982422,2H5C3.3438721,2.0018311,2.0018311,3.3438721,2,5v13c0.0018311,1.6561279,1.3438721,2.9981689,3,3h14c1.6561279-0.0018311,2.9981689-1.3438721,3-3V8C21.9981689,6.3438721,20.6561279,5.0018311,19,5z M21,18c-0.0014038,1.1040039-0.8959961,1.9985962-2,2H5c-1.1040039-0.0014038-1.9985962-0.8959961-2-2V5c0.0014038-1.1040039,0.8959961-1.9985962,2-2h4.6982422c0.8607788-0.0007324,1.6251831,0.550293,1.8964844,1.3671875l0.4306641,1.2910156C12.09375,5.8622437,12.28479,5.9998169,12.5,6H19c1.1040039,0.0014038,1.9985962,0.8959961,2,2V18z"/></svg>