<svg xmlns="http://www.w3.org/2000/svg" enable-background="new 0 0 24 24" viewBox="0 0 24 24"><path fill="#6563ff" d="M8.8,5h1.9c0.9,0,1.6,0.6,1.9,1.4L13,7.7C13.1,7.9,13.3,8,13.5,8H18c1.1,0,2,0.9,2,2v6.3c0,0.3,0.2,0.5,0.5,0.5h0c0.3,0,0.5-0.2,0.5-0.5V10c0-1.7-1.3-3-3-3h-4.1l-0.3-0.9C13.1,4.8,12,4,10.7,4H8.8C8.5,4,8.3,4.2,8.3,4.5S8.5,5,8.8,5z M21.9,21.1l-19-19C2.7,2,2.4,2,2.2,2.1C2,2.3,2,2.7,2.1,2.9L4,4.7C3.4,5.3,3,6.1,3,7v11c0,1.7,1.3,3,3,3h12c0.6,0,1.2-0.2,1.7-0.6l1.4,1.4c0.1,0.1,0.2,0.1,0.4,0.1c0.1,0,0.3-0.1,0.4-0.1C22,21.7,22,21.3,21.9,21.1z M18,20H6c-1.1,0-2-0.9-2-2V7c0-0.6,0.3-1.2,0.7-1.5L19,19.7C18.7,19.9,18.4,20,18,20z"/></svg>