<svg xmlns="http://www.w3.org/2000/svg" enable-background="new 0 0 24 24" viewBox="0 0 24 24"><path fill="#6563ff" d="M21.5,21H20V2.5c0.0001831-0.276001-0.2234497-0.4998169-0.4993896-0.5H15.5c-0.1777954-0.000061-0.3421631,0.0944214-0.4316406,0.2480469L4.1300659,21H2.5C2.223877,21,2,21.223877,2,21.5S2.223877,22,2.5,22h4C6.776123,22,7,21.776123,7,21.5S6.776123,21,6.5,21H5.2872925l4.409729-7.5595703H19V21h-1.5c-0.276123,0-0.5,0.223877-0.5,0.5s0.223877,0.5,0.5,0.5h4c0.276123,0,0.5-0.223877,0.5-0.5S21.776123,21,21.5,21z M19,12.4404297h-8.7197266L15.7871094,3H19V12.4404297z"/></svg>