<svg xmlns="http://www.w3.org/2000/svg" enable-background="new 0 0 24 24" viewBox="0 0 24 24"><path fill="#6563ff" d="M20.0664062,6.109375c-1.8817749-2.5811768-4.8841553-4.1071167-8.0784912-4.1057739C6.4694214,2.0059814,1.9976807,6.4815063,2,12c0,0.1904297,0,0.3798828,0.0117188,0.5546875c0.0804443,1.5544434,0.5328979,3.0668945,1.3193359,4.4101562C5.1027832,20.0822144,8.4143066,22.0056763,12,22c0.6303101,0.0031738,1.2593994-0.0563354,1.8779297-0.1777344c2.5601807-0.4971924,4.8266602-1.970459,6.3203125-4.1083984C22.6491089,14.2182007,22.5960693,9.5484619,20.0664062,6.109375z M19.5977783,7.2455444c0.8032837,1.2744751,1.2566528,2.694397,1.3564453,4.1438599l-2.1846924-1.5895996L19.5977783,7.2455444z M18.8745728,6.2338257l-1.1027222,3.4000244l-1.9887695,0.9568481L12.5,8.2432861V5.7548218l2.8676147-2.0804443C16.71698,4.2229614,17.9210205,5.0961914,18.8745728,6.2338257z M15.140625,11.3583984L13.9453125,15h-3.8955078l-1.1875-3.6327515l3.1386719-2.2520142L15.140625,11.3583984z M12,3c0.75177,0.0018311,1.4898071,0.102417,2.2027588,0.2841797L12,4.8818359L9.7990112,3.2854614C10.517395,3.1016846,11.255188,2.9985962,12,3z M8.6132812,3.6690063c0.0025635-0.0010376,0.0053101-0.00177,0.0078735-0.0028076L11.5,5.7548218v2.4888916l-3.2762451,2.3502197l-1.9956055-0.960083L5.1248779,6.2316895C6.048584,5.1312866,7.2251587,4.2338257,8.6132812,3.6690063z M4.3961182,7.2265015l0.8343506,2.5742798L3.046875,11.3892212C3.1518555,9.8846436,3.6192627,8.461853,4.3961182,7.2265015z M4.3830566,16.7560425c-0.0605469-0.0974731-0.1275024-0.1887207-0.1848145-0.2892456c-0.684082-1.1671753-1.0801392-2.4776611-1.1723022-3.8261108l2.8450928-2.0696411l1.9919434,0.958313l1.2630615,3.8624268L7.9504395,16.758606L4.3830566,16.7560425z M5.1008911,17.7566528l2.7155151,0.0021362l0.8432617,2.5905151C7.3021851,19.8058472,6.0734863,18.9287109,5.1008911,17.7566528z M14.1641235,20.7293091c-1.4423828,0.3588257-2.9272461,0.347229-4.3297729-0.0019531L8.7421265,17.371582L9.921814,16h4.1564331l1.1793213,1.3712158L14.1641235,20.7293091z M16.4487305,19.8217773c-0.361084,0.2058105-0.732605,0.3737183-1.1077271,0.5246582l0.8425903-2.5876465l2.7145996-0.0021362C18.2106934,18.5830688,17.3862915,19.2872925,16.4487305,19.8217773z M19.6053467,16.7560425l-3.5557861,0.0025635l-1.1791992-1.3710327l1.265564-3.857666l1.993042-0.9588623l2.8233032,2.0533447C20.8519897,14.0670166,20.4057617,15.4830933,19.6053467,16.7560425z"/></svg>