<svg xmlns="http://www.w3.org/2000/svg" enable-background="new 0 0 24 24" viewBox="0 0 24 24"><path fill="#6563ff" d="M21.9,5.3c-0.2-1.7-1.5-3.1-3.2-3.3c-1.2-0.1-2.3-0.1-3.5,0c-8.2,1-14,8.4-13,16.6c0.2,1.7,1.5,3.1,3.2,3.3C5.9,22,6.5,22,7.1,22c3.9,0,7.7-1.6,10.5-4.4C20.9,14.4,22.4,9.9,21.9,5.3z M16.9,3c0.6,0,1.1,0,1.7,0.1c0.5,0.1,0.9,0.2,1.2,0.5c0,0-0.1,0-0.1,0.1L17,6.3l-3-3C14.9,3.1,15.9,3,16.9,3z M12.9,3.6C12.9,3.6,12.9,3.6,12.9,3.6L16.3,7l-2.9,2.9L12,8.4c-0.2-0.2-0.5-0.2-0.7,0c-0.2,0.2-0.2,0.5,0,0.7l1.4,1.4l-2.2,2.2l-1.4-1.4c0,0,0,0,0,0c-0.2-0.2-0.5-0.2-0.7,0c-0.2,0.2-0.2,0.5,0,0.7l1.4,1.4L7,16.3l-3.4-3.4c0,0,0,0,0,0C4.9,8.4,8.4,4.9,12.9,3.6z M3.6,19.8c-0.2-0.4-0.4-0.8-0.5-1.2C3,18,3,17.5,3,16.9c0-1,0.1-2,0.3-2.9l3,3L3.6,19.8C3.6,19.7,3.6,19.7,3.6,19.8z M5.5,20.9c-0.5-0.1-0.9-0.2-1.2-0.5c0,0,0.1,0,0.1-0.1L7,17.7l3,3C8.5,21,7,21.1,5.5,20.9z M16.9,16.9c-1.6,1.7-3.6,2.8-5.8,3.5c0,0,0,0,0,0L7.7,17l2.9-2.9l1.4,1.4c0.1,0.1,0.2,0.1,0.4,0.1v0c0.1,0,0.3-0.1,0.4-0.1c0.2-0.2,0.2-0.5,0-0.7l-1.4-1.4l2.2-2.2l1.4,1.4c0.1,0.1,0.2,0.1,0.4,0.1c0.1,0,0.3-0.1,0.4-0.1c0.2-0.2,0.2-0.5,0-0.7l-1.4-1.4L17,7.7l3.4,3.4C19.7,13.3,18.6,15.3,16.9,16.9z M20.7,10l-3-3l2.7-2.7c0,0,0,0,0,0c0,0,0-0.1,0.1-0.1c0.2,0.4,0.4,0.8,0.5,1.2C21.1,7,21,8.5,20.7,10z"/></svg>