<svg xmlns="http://www.w3.org/2000/svg" enable-background="new 0 0 24 24" viewBox="0 0 24 24"><path fill="#6563ff" d="M14.5,6h5.7930298l-2.1465454,2.1464844c-0.09375,0.09375-0.1464233,0.2208862-0.1464233,0.3534546c0,0.276123,0.2238159,0.5,0.499939,0.500061c0.1326294,0.0001221,0.2598267-0.0525513,0.3534546-0.1464844l3-3c0.000061-0.000061,0.0001221-0.000061,0.0001831-0.0001221c0.1951294-0.1952515,0.1950684-0.5117188-0.0001831-0.7068481l-3-3c-0.1937256-0.1871948-0.5009155-0.1871948-0.6947021,0c-0.1986084,0.1918335-0.2041016,0.5083618-0.0122681,0.7069702L20.2930298,5H14.5C14.223877,5,14,5.223877,14,5.5S14.223877,6,14.5,6z M19.5673828,12.9277344c-0.1972656-0.0371094-0.3935547-0.0800781-0.5888672-0.1269531c-0.4104004-0.100708-0.8143921-0.2255859-1.210022-0.3740234c-0.9512939-0.361084-2.0223389,0.0457153-2.4941406,0.9472656l-0.75,1.4414062c-1.1104736-0.6295166-2.1299438-1.4075317-3.0302734-2.3125c-0.9022827-0.9032593-1.6776123-1.9249878-2.3046875-3.0371094l1.4335938-0.7460938c0.8991699-0.4733887,1.3052368-1.5421143,0.9473267-2.4931641c-0.1487427-0.3966064-0.2739258-0.8015747-0.375-1.2128906c-0.046875-0.1953125-0.0898438-0.3916016-0.1269531-0.5898438c-0.2705078-1.4181519-1.5142822-2.4414673-2.9580078-2.4335938H5.0341797C4.1486816,1.9904785,3.307373,2.3770752,2.7304688,3.0488281c-0.5721436,0.6620483-0.8264771,1.5410156-0.6962891,2.40625c1.331604,8.5020752,7.9979248,15.1730957,16.4990234,16.5107422C18.6812134,21.9883423,18.8307495,21.9997559,18.9804688,22c0.7195435-0.0008545,1.414978-0.2596436,1.9599609-0.7294922C21.6130371,20.6932983,22.000061,19.8511353,22,18.9648438v-3.078125C22.0082397,14.4429932,20.9854126,13.1988525,19.5673828,12.9277344z M21,18.9648438c-0.0002441,0.5947876-0.2602539,1.1598511-0.7119141,1.546875c-0.4417725,0.3810425-1.0274048,0.5510254-1.6044922,0.4658203C10.6148071,19.7076416,4.2873535,13.3762207,3.0224609,5.3066406C2.9360352,4.7286987,3.1065674,4.1418457,3.4892578,3.7002563c0.3867798-0.4506836,0.9510498-0.710022,1.5449219-0.710022h3.0761719c0.9614258-0.0076904,1.7915649,0.6713867,1.9746094,1.6152344C10.125,4.8212891,10.171875,5.0371094,10.2246094,5.2509766c0.1099243,0.4498291,0.246582,0.8926392,0.4091797,1.3261719c0.1815796,0.4779053-0.0210571,1.0162354-0.4726562,1.2558594L8.2773438,8.8134766C8.2767944,8.8137817,8.2762451,8.8140259,8.2756958,8.8143311c-0.2442017,0.1275024-0.3387451,0.428833-0.2112427,0.6729736c1.432312,2.7609253,3.6794434,5.0142822,6.4364624,6.4541016c0.1182251,0.0599976,0.2550659,0.0718994,0.3818359,0.0332031c0.1265869-0.0396729,0.2320557-0.1282959,0.2930298-0.2460938l0.9853516-1.8935547c0.2401733-0.4504395,0.7772217-0.65271,1.2548828-0.4726562c0.4331055,0.1629639,0.8756104,0.2996216,1.3251953,0.4091797c0.2119141,0.0527344,0.4257812,0.0976562,0.6425781,0.1386719C20.3283081,14.0936279,21.0077515,14.9245605,21,15.8867188V18.9648438z"/></svg>