<svg xmlns="http://www.w3.org/2000/svg" enable-background="new 0 0 24 24" viewBox="0 0 24 24"><path fill="#6563ff" d="M20.4169922,10.1240234L13.75,6.2744141c-0.3291016-0.1900635-0.7023315-0.2902222-1.0823975-0.2904053C11.4710693,5.9833984,10.5006104,6.9528809,10.5,8.1494141v0.864624L5.75,6.2763672c-0.3283081-0.1893311-0.7005005-0.2892456-1.0794678-0.289856C3.4736328,5.9846802,2.5018311,6.9534912,2.5,8.1503906v7.6992188c-0.0039673,0.7734375,0.4091797,1.4889526,1.0810547,1.8720703c0.3297119,0.1921997,0.7042847,0.2939453,1.0859375,0.2949219C5.0474854,18.0158081,5.4210205,17.9147949,5.75,17.7236328l4.75-2.7376709v0.864624c0.0032959,1.1953735,0.9706421,2.1640625,2.1660156,2.1689453c0.3809204-0.0006104,0.7548828-0.1020508,1.0839844-0.2939453l6.6669922-3.8496094c0.3292236-0.1900635,0.6026611-0.463501,0.7927856-0.7927246C21.8080444,12.0471191,21.453064,10.722229,20.4169922,10.1240234z M10.5,13.8306274l-5.25,3.0258179c-0.1762085,0.1016235-0.3758545,0.1554565-0.5792847,0.1561279C4.0263062,17.0147095,3.5021362,16.4940796,3.5,15.8496094V8.1503906C3.5006714,7.9470215,3.5545044,7.7473145,3.6561279,7.571106C3.9782104,7.0129395,4.6917725,6.8214722,5.25,7.1435547l5.25,3.0258179V13.8306274z M19.9169922,13.0108032L13.25,16.8604126c-0.1773071,0.102417-0.378418,0.156311-0.5831299,0.1563721C12.022583,17.0169678,11.5001831,16.494873,11.5,15.850647V8.1494751c0.0015259-0.6436768,0.5223389-1.1654053,1.1660156-1.1680298C12.8712158,6.9817505,13.0726929,7.036377,13.25,7.1396484l6.6669922,3.8496704c0.1768799,0.1022949,0.3237915,0.2492065,0.4261475,0.4260864C20.6660156,11.9736328,20.4752197,12.6879272,19.9169922,13.0108032z"/></svg>