<svg xmlns="http://www.w3.org/2000/svg" enable-background="new 0 0 24 24" viewBox="0 0 24 24"><path fill="#6563ff" d="M21.5,18H19v-3.5c0-0.0001831,0-0.0003662,0-0.0006104C18.9998169,14.2234497,18.776001,13.9998169,18.5,14h-6v-3.2143555l2.2324219,1.1577148C14.8034668,11.9807129,14.8826294,12.0001831,14.9628906,12c0.0292969,0.000061,0.0585938-0.0025024,0.0874634-0.0076294c0.2714844-0.0479126,0.4526367-0.3068237,0.4047241-0.5783081l-0.5195312-2.9941406l2.2050781-2.1220703c0.079834-0.0770264,0.1318359-0.1783447,0.1477661-0.288147c0.039856-0.2734985-0.1496582-0.5275269-0.4231567-0.5673218l-3.0537109-0.4375l-1.3642578-2.7285156c-0.0440674-0.0736084-0.1056519-0.1351929-0.1792603-0.1792603c-0.2470093-0.1480103-0.5672607-0.067749-0.715271,0.1792603l-1.3642578,2.7285156l-3.0537109,0.4375C7.0250244,5.458374,6.923645,5.5103149,6.8466187,5.5901489C6.6547241,5.7891235,6.6604614,6.105957,6.859375,6.2978516l2.2050781,2.1220703l-0.5195312,2.9941406c-0.019165,0.1084595-0.0018921,0.2202148,0.0490723,0.3178101c0.1276245,0.2444458,0.4291992,0.3391113,0.673584,0.2114868L11.5,10.7856445V14h-6c-0.0001831,0-0.0003662,0-0.0006104,0C5.2234497,14.0001831,4.9998169,14.223999,5,14.5V18H2.5c-0.0001831,0-0.0003662,0-0.0006104,0C2.2234497,18.0001831,1.9998169,18.223999,2,18.5v3C2,21.776123,2.223877,22,2.5,22S3,21.776123,3,21.5V19h5v2.5c0,0.0001831,0,0.0003662,0,0.0005493C8.0001831,21.7765503,8.223999,22.0001831,8.5,22c0.0001831,0,0.0003662,0,0.0006104,0C8.7765503,21.9998169,9.0001831,21.776001,9,21.5v-3c0-0.0001831,0-0.0003662,0-0.0006104C8.9998169,18.2234497,8.776001,17.9998169,8.5,18H6v-3h6h0.0006104H18v3h-2.5c-0.0001831,0-0.0003662,0-0.0005493,0C15.2234497,18.0001831,14.9998169,18.223999,15,18.5v3c0,0.276123,0.223877,0.5,0.5,0.5s0.5-0.223877,0.5-0.5V19h2.5h0.0006104H21v2.5c0,0.0001831,0,0.0003662,0,0.0005493C21.0001831,21.7765503,21.223999,22.0001831,21.5,22c0.0001831,0,0.0003662,0,0.0006104,0C21.7765503,21.9998169,22.0001831,21.776001,22,21.5v-3c0-0.0001831,0-0.0003662,0-0.0006104C21.9998169,18.2234497,21.776001,17.9998169,21.5,18z M12,9.4628906c-0.0802612-0.0001221-0.1594238,0.0192871-0.2304688,0.0566406l-2.0673828,1.0722656l0.3925781-2.2617188c0.0292969-0.1637573-0.0253296-0.3312988-0.1455078-0.4462891L8.289978,6.2871094l2.2998657-0.3291016c0.1621704-0.0234985,0.3026123-0.124939,0.3759766-0.2714844L12,3.6181641l1.0341797,2.0683594c0.0733643,0.1465454,0.2138062,0.2479858,0.3760376,0.2714844l2.2998047,0.3291016l-1.6592407,1.5966797c-0.1201782,0.1149902-0.1748047,0.2825317-0.1455078,0.4462891l0.3925781,2.2617188l-2.0673828-1.0722656C12.1594238,9.4821777,12.0802612,9.4627686,12,9.4628906z"/></svg>