<svg xmlns="http://www.w3.org/2000/svg" enable-background="new 0 0 24 24" viewBox="0 0 24 24"><path fill="#6563ff" d="M18.5,7h-1.7785645C17.2003174,6.4683838,17.5,5.7718506,17.5,5c0-1.6568604-1.3431396-3-3-3c-1.0447998,0-1.9627686,0.5353394-2.5,1.3453979C11.4627686,2.5353394,10.5447998,2,9.5,2c-1.6568604,0-3,1.3431396-3,3c0,0.7718506,0.2996826,1.4683838,0.7785645,2H5.5C4.119812,7.0012817,3.0012817,8.119812,3,9.5v3.0005493C3.0001831,12.7765503,3.223999,13.0001831,3.5,13H5v6.5c0.0012817,1.380188,1.119812,2.4987183,2.5,2.5h9c1.380188-0.0012817,2.4987183-1.119812,2.5-2.5V13h1.5006104C20.7765503,12.9998169,21.0001831,12.776001,21,12.5v-3C20.9987183,8.119812,19.880188,7.0012817,18.5,7z M9.5,3c1.1040039,0.0014038,1.9985962,0.8959961,2,2v2h-2c-1.1045532,0-2-0.8954468-2-2S8.3954468,3,9.5,3z M11.5,21h-4c-0.828064-0.0009155-1.4990845-0.671936-1.5-1.5V13h5.5V21z M11.5,8.0020142V12H4V9.5C4.0009155,8.671936,4.671936,8.0009155,5.5,8h6.0004272C11.5004272,8.0007324,11.5,8.0012817,11.5,8.0020142z M12.5,5c0-1.1045532,0.8954468-2,2-2s2,0.8954468,2,2s-0.8954468,2-2,2h-2V5z M18,19.5c-0.0009155,0.828064-0.671936,1.4990845-1.5,1.5h-4v-8H18V19.5z M20,12h-7.5V8.0020142C12.5,8.0012817,12.4995728,8.0007324,12.4995728,8H18.5c0.828064,0.0009155,1.4990845,0.671936,1.5,1.5V12z"/></svg>