<svg xmlns="http://www.w3.org/2000/svg" enable-background="new 0 0 24 24" viewBox="0 0 24 24"><path fill="#6563ff" d="M19.5,1.9931641h-15c-0.0185547,0-0.0370483,0.0010376-0.055481,0.0031128C4.1699829,2.0269165,3.97229,2.274292,4.0029297,2.5488281l1.8925781,16.7802734c0.1704712,1.5176392,1.4542847,2.6647949,2.9815063,2.6640625h6.2460327c1.5271606,0.0006714,2.8109741-1.1464233,2.9814453-2.6640625l1.8925781-16.7802734c0.0020752-0.0184326,0.0031128-0.0369873,0.0031128-0.055481C20.0001831,2.2171021,19.7762451,1.9931641,19.5,1.9931641z M17.1104126,19.2177734c-0.1138306,1.0114746-0.9694824,1.7758789-1.9873047,1.7753906H8.8770142c-1.0178833,0.0004883-1.8735352-0.763916-1.9873657-1.7753906L5.7935181,9.5h12.4129639L17.1104126,19.2177734z M18.3192749,8.5H5.6807251L5.0595703,2.9931641h13.8808594L18.3192749,8.5z"/></svg>