<svg xmlns="http://www.w3.org/2000/svg" enable-background="new 0 0 24 24" viewBox="0 0 24 24"><path fill="#6563ff" d="M21.8916016,2.8105469C21.961853,2.7221069,22.000061,2.6124268,22,2.4994507C21.9998779,2.2234497,21.776001,1.9998779,21.5,2h-19C2.3870239,1.999939,2.2774048,2.038147,2.1889038,2.1083984C1.9727783,2.2800903,1.9367676,2.5944214,2.1083984,2.8105469L11.5,14.673645V21h-6C5.223877,21,5,21.223877,5,21.5S5.223877,22,5.5,22h13c0.276123,0,0.5-0.223877,0.5-0.5S18.776123,21,18.5,21h-6v-6.326355L21.8916016,2.8105469z M3.5332031,3h16.9335938l-3.5626831,4.5H7.0958862L3.5332031,3z M12,13.6943359L7.8875732,8.5h8.2248535L12,13.6943359z"/></svg>