<svg xmlns="http://www.w3.org/2000/svg" enable-background="new 0 0 24 24" viewBox="0 0 24 24"><path fill="#6563ff" d="M18.5,21h-6v-6.0257568C17.2341919,14.7084961,20.994751,10.7994995,21,6c0.003418-1.2797852-0.2714844-2.5449829-0.8056641-3.7080078C20.1131592,2.1141968,19.9356689,2.000061,19.7402344,2H4.2597656C4.0643311,2.000061,3.8868408,2.1141968,3.8056641,2.2919922C3.2714844,3.4550171,2.996582,4.7202148,3,6c0.005249,4.7994995,3.7658081,8.7084961,8.5,8.9742432V21h-6C5.223877,21,5,21.223877,5,21.5S5.223877,22,5.5,22h13c0.276123,0,0.5-0.223877,0.5-0.5S18.776123,21,18.5,21z M4,6C3.9973145,4.9711304,4.1970825,3.9517822,4.5878906,3h14.8242188C19.8029175,3.9517822,20.0026855,4.9711304,20,6c0,4.4182739-3.5817261,8-8,8S4,10.4182739,4,6z"/></svg>