<svg xmlns="http://www.w3.org/2000/svg" enable-background="new 0 0 24 24" viewBox="0 0 24 24"><path fill="#6563ff" d="M12.8,7h5.7l-2.3,3C16,10,16,10.2,16,10.3c0,0.3,0.2,0.5,0.5,0.5c0.2,0,0.3-0.1,0.4-0.2l3-3.8C20,6.7,20,6.6,20,6.5C20,6.2,19.8,6,19.5,6h-6.7c-0.3,0-0.5,0.2-0.5,0.5S12.5,7,12.8,7z M12.9,10.1C12.9,10.1,12.9,10.1,12.9,10.1l-4-4c0,0,0,0,0,0l-4-4C4.7,2,4.4,2,4.2,2.1C4,2.3,4,2.7,4.1,2.9L7.3,6H4.5C4.4,6,4.3,6,4.2,6.1C4,6.3,3.9,6.6,4.1,6.8l7.4,9.3V21h-5C6.2,21,6,21.2,6,21.5S6.2,22,6.5,22h11c0.3,0,0.5-0.2,0.5-0.5S17.8,21,17.5,21h-5v-4.9l2.2-2.7l4.5,4.5c0.1,0.1,0.2,0.1,0.4,0.1c0.1,0,0.3-0.1,0.4-0.1c0.2-0.2,0.2-0.5,0-0.7L12.9,10.1z M5.5,7h2.8l3,3H7.9L5.5,7z M12,15.1L8.7,11h3.6l1.7,1.7L12,15.1z"/></svg>