<svg xmlns="http://www.w3.org/2000/svg" enable-background="new 0 0 24 24" viewBox="0 0 24 24"><path fill="#6563ff" d="M17.1542969,2H6.8457031C6.7539673,2.000061,6.6623535,2.005127,6.571167,2.0152588C5.1984863,2.1674805,4.2091064,3.4036865,4.3613281,4.7763672l1.6660156,14.9990234C6.1665649,21.0426025,7.237854,22.0015259,8.5126953,22h6.9746094c1.2744751,0.0015869,2.3457031-0.9567871,2.4853516-2.2236328l1.6660156-15c0.0101318-0.0911255,0.0151978-0.1828003,0.0152588-0.2744751C19.654541,3.1207275,18.5354004,2.0006104,17.1542969,2z M16.9785156,19.6660156C16.8948364,20.4261475,16.2520142,21.0011597,15.4873047,21H8.5126953c-0.7650146,0.0010376-1.407959-0.5745239-1.4911499-1.335022L5.9480591,10H18.052002L16.9785156,19.6660156z M18.6445312,4.664978L18.1630859,9H5.8370361L5.3555298,4.664978C5.3088989,4.2410278,5.444519,3.8171997,5.7285156,3.4990234C6.0117188,3.1795654,6.4188232,2.9977417,6.8457031,3h10.3085938c0.4268799-0.0022583,0.8340454,0.1795654,1.1172485,0.4990234C18.555542,3.8171997,18.6911011,4.2410278,18.6445312,4.664978z M14,18h0.0006104c0.2759399-0.0001831,0.4995728-0.223999,0.4993896-0.5v-5c0-0.276123-0.223877-0.5-0.5-0.5s-0.5,0.223877-0.5,0.5v5.0005493C13.5001831,17.7765503,13.723999,18.0001831,14,18z M10,18h0.0006104c0.2759399-0.0001831,0.4995728-0.223999,0.4993896-0.5v-5c0-0.276123-0.223877-0.5-0.5-0.5s-0.5,0.223877-0.5,0.5v5.0005493C9.5001831,17.7765503,9.723999,18.0001831,10,18z"/></svg>