<svg xmlns="http://www.w3.org/2000/svg" enable-background="new 0 0 24 24" viewBox="0 0 24 24"><path fill="#6563ff" d="M21.4910889,10.4812622c-0.0068359-0.1693115-0.0906982-0.3319702-0.2498779-0.4197998l-10.0004883-5.5c-0.0160522-0.0088501-0.0338135-0.0088501-0.050354-0.0157471c-0.0318604-0.0133667-0.0629272-0.0236816-0.0968628-0.0302124C11.0618896,4.5093994,11.0316772,4.506897,11,4.506958c-0.0316772-0.000061-0.0618896,0.0024414-0.0935059,0.0085449c-0.0339355,0.0065308-0.0650024,0.0168457-0.0968628,0.0302124c-0.0165405,0.006897-0.0343018,0.006897-0.050354,0.0157471l-10,5.5c-0.0831909,0.0457764-0.1516724,0.1141968-0.1973877,0.1974487c-0.1331787,0.2421265-0.0447998,0.5463867,0.1973877,0.6795654L4,12.7208862V18c0.0014648,1.380127,1.119873,2.4985352,2.5,2.5h9c1.380188-0.0012817,2.4987183-1.119812,2.5-2.5v-5.2789307l2.5-1.374939v3.6544189C20.5001831,15.2765503,20.723999,15.5001831,21,15.5h0.0006104C21.2765503,15.4998169,21.5001831,15.276001,21.5,15v-4.5C21.5,10.4928589,21.4923706,10.4880371,21.4910889,10.4812622z M17,18c-0.0009155,0.828064-0.671936,1.4990845-1.5,1.5h-9C5.671936,19.4990845,5.0009155,18.828064,5,18v-4.729126l5.7592773,3.1676025c0.0065308,0.0036011,0.0147095,0.0021973,0.0213623,0.0054932c0.0657349,0.0326538,0.137146,0.0544434,0.215332,0.0551147c0.0012207,0,0.0023193,0.0009155,0.00354,0.0009155c0.0001221,0,0.0003052-0.0001221,0.0004272-0.0001221c0.0001831,0,0.0003662,0.0001221,0.0005493,0.0001221c0.0839844,0.0001831,0.166687-0.0209961,0.2402344-0.0615234L17,13.2710571V18z M11,15.4291382L2.0375977,10.5L11,5.5708618L19.9628906,10.5L11,15.4291382z"/></svg>