<svg xmlns="http://www.w3.org/2000/svg" enable-background="new 0 0 24 24" viewBox="0 0 24 24"><path fill="#6563ff" d="M22.5,10h-4.0005493C18.2234497,10.0001831,17.9998169,10.223999,18,10.5v12.0005493C18.0001831,22.7765503,18.223999,23.0001831,18.5,23h4.0006104C22.7765503,22.9998169,23.0001831,22.776001,23,22.5V10.4993896C22.9998169,10.2234497,22.776001,9.9998169,22.5,10z M22,22h-3V11h3V22z M14.5,2h-4.0005493C10.2234497,2.0001831,9.9998169,2.223999,10,2.5v20.0005493C10.0001831,22.7765503,10.223999,23.0001831,10.5,23h4.0006104C14.7765503,22.9998169,15.0001831,22.776001,15,22.5V2.4993896C14.9998169,2.2234497,14.776001,1.9998169,14.5,2z M14,22h-3V3h3V22z M6.5,14H2.4993896C2.2234497,14.0001831,1.9998169,14.223999,2,14.5v8.0005493C2.0001831,22.7765503,2.223999,23.0001831,2.5,23h4.0006104C6.7765503,22.9998169,7.0001831,22.776001,7,22.5v-8.0006104C6.9998169,14.2234497,6.776001,13.9998169,6.5,14z M6,22H3v-7h3V22z"/></svg>