<svg xmlns="http://www.w3.org/2000/svg" enable-background="new 0 0 24 24" viewBox="0 0 24 24"><path fill="#6563ff" d="M20,13.1837158V13c0-4.4182739-3.5817261-8-8-8s-8,3.5817261-8,8v0.1837158C2.8374634,13.5969849,2,14.6956787,2,16c0,1.6568604,1.3431396,3,3,3h14c1.6568604,0,3-1.3431396,3-3C22,14.6956787,21.1625366,13.5969849,20,13.1837158z M19,18H5c-1.1045532,0-2-0.8954468-2-2s0.8954468-2,2-2h2.5C7.776123,14,8,13.776123,8,13.5S7.776123,13,7.5,13H5c0-2.9838867,1.8704224-5.5248413,4.5-6.5321655v4.5327148C9.5001831,11.2765503,9.723999,11.5001831,10,11.5h0.0006104C10.2765503,11.4998169,10.5001831,11.276001,10.5,11V6.1651611C10.9837036,6.0594482,11.4846191,6,12,6s1.0162964,0.0594482,1.5,0.1651611v4.8353882C13.5001831,11.2765503,13.723999,11.5001831,14,11.5h0.0006104C14.2765503,11.4998169,14.5001831,11.276001,14.5,11V6.4678345C17.1295776,7.4751587,19,10.0161133,19,13h-2.5c-0.276123,0-0.5,0.223877-0.5,0.5s0.223877,0.5,0.5,0.5H19c1.1045532,0,2,0.8954468,2,2S20.1045532,18,19,18z"/></svg>