<svg xmlns="http://www.w3.org/2000/svg" enable-background="new 0 0 24 24" viewBox="0 0 24 24"><path fill="#6563ff" d="M17.5,16c-0.8284302,0-1.5,0.6715698-1.5,1.5s0.6715698,1.5,1.5,1.5c0.828064-0.0009155,1.4990845-0.671936,1.5-1.5C19,16.6715698,18.3284302,16,17.5,16z M17.5,18c-0.276123,0-0.5-0.223877-0.5-0.5s0.223877-0.5,0.5-0.5c0.2759399,0.0005493,0.4994507,0.2240601,0.5,0.5C18,17.776123,17.776123,18,17.5,18z M21.9910889,15.4124756c-0.0004272-0.0222778,0.0065308-0.0431519,0.0030518-0.0657959l-0.0283203-0.1831055c-0.0103149-0.0753784-0.0178223-0.151001-0.034729-0.2241211L20.2558594,4.1181641C20.0731201,2.8966064,19.0212402,1.9945068,17.7861328,2H6.2138672C4.9787598,1.9945068,3.9268799,2.8966064,3.7441406,4.1181641L2.0689087,14.9394531c-0.0169067,0.0731201-0.0244141,0.1487427-0.034729,0.2241211l-0.0283203,0.1831055c-0.0031128,0.0215454,0.0036621,0.0413818,0.0033569,0.0626221C2.0080566,15.4400635,2,15.4689331,2,15.5v4c0.0012817,1.380188,1.119812,2.4987183,2.5,2.5h15c1.380188-0.0012817,2.4987183-1.119812,2.5-2.5v-4C22,15.4700317,21.9921875,15.4421997,21.9910889,15.4124756z M4.7324219,4.2705078C4.8417358,3.5376587,5.4729004,2.9963989,6.2138672,3h11.5722656c0.7409668-0.0036011,1.3721313,0.5376587,1.4814453,1.2705078l1.3981323,9.0314331C20.3162231,13.1159058,19.9234619,13.0003662,19.5,13h-15c-0.4234619,0.0003662-0.8162231,0.1159058-1.1657104,0.3019409L4.7324219,4.2705078z M21,19.5c-0.0009155,0.828064-0.671936,1.4990845-1.5,1.5h-15c-0.828064-0.0009155-1.4990845-0.671936-1.5-1.5v-4c0.000061-0.0388184,0.008606-0.0753174,0.0115356-0.1134033l0.0391235-0.2528076C3.215332,14.4837646,3.7990112,14.0007935,4.5,14h15c0.7009888,0.0007935,1.284668,0.4837646,1.4493408,1.1337891l0.0391235,0.2528076C20.991394,15.4246826,20.999939,15.4611816,21,15.5V19.5z"/></svg>