<svg xmlns="http://www.w3.org/2000/svg" enable-background="new 0 0 24 24" viewBox="0 0 24 24"><path fill="#6563ff" d="M12,3C6.4771729,3,2,7.4771729,2,13v7.5005493C2.0001831,20.7765503,2.223999,21.0001831,2.5,21h3c1.380188-0.0012817,2.4987183-1.119812,2.5-2.5v-2c-0.0012817-1.380188-1.119812-2.4987183-2.5-2.5H3v-1c0-4.9705811,4.0294189-9,9-9s9,4.0294189,9,9v1h-2.5c-1.380188,0.0012817-2.4987183,1.119812-2.5,2.5v2c0.0012817,1.380188,1.119812,2.4987183,2.5,2.5h3.0006104C21.7765503,20.9998169,22.0001831,20.776001,22,20.5V13C22,7.4771729,17.5228271,3,12,3z M5.5,15c0.828064,0.0009155,1.4990845,0.671936,1.5,1.5v2c-0.0009155,0.828064-0.671936,1.4990845-1.5,1.5H3v-5H5.5z M21,20h-2.5c-0.828064-0.0009155-1.4990845-0.671936-1.5-1.5v-2c0.0009155-0.828064,0.671936-1.4990845,1.5-1.5H21V20z"/></svg>