<svg xmlns="http://www.w3.org/2000/svg" enable-background="new 0 0 24 24" viewBox="0 0 24 24"><path fill="#6563ff" d="M20,14.1846313V11c0-4.4182739-3.5817261-8-8-8s-8,3.5817261-8,8v3.1846313C2.8383179,14.5986328,2.0014648,15.6964111,2,17v1c0.0018311,1.6561279,1.3438721,2.9981689,3,3h2.5006104C7.7765503,20.9998169,8.0001831,20.776001,8,20.5v-6.0006104C7.9998169,14.2234497,7.776001,13.9998169,7.5,14H5v-3c0-3.8659668,3.1340332-7,7-7s7,3.1340332,7,7v3h-2.5005493C16.2234497,14.0001831,15.9998169,14.223999,16,14.5v6.0005493C16.0001831,20.7765503,16.223999,21.0001831,16.5,21H19c1.6561279-0.0018311,2.9981689-1.3438721,3-3v-1C21.9985352,15.6964111,21.1616821,14.5986328,20,14.1846313z M7,15v5H5c-1.1040039-0.0014038-1.9985962-0.8959961-2-2v-1c0.0014038-1.1040039,0.8959961-1.9985962,2-2H7z M21,18c-0.0014038,1.1040039-0.8959961,1.9985962-2,2h-2v-5h2c1.1040039,0.0014038,1.9985962,0.8959961,2,2V18z"/></svg>