<svg xmlns="http://www.w3.org/2000/svg" enable-background="new 0 0 24 24" viewBox="0 0 24 24"><path fill="#6563ff" d="M20.2246094,4.9541016C17.991394,2.7095337,14.4054565,2.56604,12,4.625C9.5947876,2.56604,6.0089111,2.7095337,3.7758789,4.9541016c-2.3637695,2.3800049-2.3637695,6.2215576,0,8.6015625l6.5581055,6.5800781C10.7739258,20.5808716,11.3741455,20.8306885,12,20.8291016c0.6257935,0.0014648,1.2260132-0.248291,1.6660156-0.6933594l6.5585938-6.5800781C22.5878906,11.1754761,22.5878906,7.3342896,20.2246094,4.9541016z M19.515686,12.8505859l-6.5585938,6.5800781c-0.5348511,0.5136719-1.3797607,0.5136719-1.9145508,0l-6.5585938-6.5800781c-1.9755859-1.9901123-1.9755859-5.2012939,0-7.1914062C5.430481,4.7040405,6.7202759,4.1679688,8.0649414,4.1708984c1.3447266-0.0029297,2.6345825,0.5331421,3.5811157,1.4882812c0.197998,0.1894531,0.5100098,0.1894531,0.7080078,0c0.0057373-0.0057373,0.0114746-0.0114746,0.0172119-0.0172119c1.9776611-1.9681396,5.1762695-1.9603882,7.1444092,0.0172119C21.491272,7.649292,21.491272,10.8604736,19.515686,12.8505859z"/></svg>