<svg xmlns="http://www.w3.org/2000/svg" enable-background="new 0 0 24 24" viewBox="0 0 24 24"><path fill="#6563ff" d="M20.2246094,4.5693359C17.9908447,2.3260498,14.4058838,2.1826172,12,4.2402344C9.5941162,2.1826172,6.0091553,2.3260498,3.7753906,4.5693359c-2.3632812,2.3798218-2.3632812,6.2207642,0,8.6005859l7.8701172,7.8955078c0.09375,0.0944824,0.2213745,0.147583,0.3544922,0.1474609c0.1331177,0.0001221,0.2607422-0.0529785,0.3544922-0.1474609l7.8701172-7.8955078C22.5878906,10.7901001,22.5878906,6.9491577,20.2246094,4.5693359z M19.515625,12.4649048L12,20.0048828l-7.515625-7.5400391c-1.9755859-1.9897461-1.9755859-5.2007446,0-7.1904297C5.430603,4.319458,6.7201538,3.7837524,8.0644531,3.7871094c1.3446655-0.00354,2.6345825,0.5322266,3.5810547,1.4873657c0.1983643,0.1894531,0.5106201,0.1894531,0.7089844,0c0.0047607-0.0047607,0.0094604-0.0095215,0.0142212-0.0142822c1.9775391-1.9696045,5.1773071-1.9632568,7.1469116,0.0142822C21.4912109,7.2641602,21.4912109,10.4751587,19.515625,12.4649048z"/></svg>