<svg xmlns="http://www.w3.org/2000/svg" enable-background="new 0 0 24 24" viewBox="0 0 24 24"><path fill="#6563ff" d="M14,11.5h-1.5V10c0-0.276123-0.223877-0.5-0.5-0.5s-0.5,0.223877-0.5,0.5v1.5H10c-0.276123,0-0.5,0.223877-0.5,0.5s0.223877,0.5,0.5,0.5h1.5v1.5005493C11.5001831,14.2765503,11.723999,14.5001831,12,14.5h0.0006104C12.2765503,14.4998169,12.5001831,14.276001,12.5,14v-1.5H14c0.276123,0,0.5-0.223877,0.5-0.5S14.276123,11.5,14,11.5z M20.2246094,5.0068359C17.9908447,2.7635498,14.4058838,2.6201172,12,4.6777344C9.5940552,2.619751,6.008667,2.7636719,3.7753906,5.0078125c-2.3632812,2.3805542-2.3632812,6.2219238,0,8.6025391l6.3779297,6.3984375C10.6416626,20.5009155,11.3067017,20.7770386,12,20.7753906c0.6937866,0.0015259,1.3591919-0.2749023,1.8476562-0.7675781l6.3769531-6.3984375C22.5878906,11.2288208,22.5878906,7.3874512,20.2246094,5.0068359z M19.515686,12.9042969l-6.3759766,6.3974609c-0.6365356,0.6105957-1.6412354,0.6110229-2.2783203,0.0009766L4.484375,12.9042969c-1.9755859-1.9904785-1.9755859-5.2019043,0-7.1923828C5.430603,4.756958,6.7201538,4.2212524,8.0644531,4.2246094c1.3446655-0.0036011,2.6345825,0.5321655,3.5811157,1.4872437c0.1983643,0.1895142,0.5106201,0.1895142,0.7089844,0c0.946228-0.954895,2.2357788-1.4906616,3.5800781-1.4872437h0.0009766c1.3444824-0.0030518,2.6339722,0.53302,3.5800781,1.4882812C21.4922485,7.7025757,21.4922485,10.9145508,19.515686,12.9042969z"/></svg>