<svg xmlns="http://www.w3.org/2000/svg" enable-background="new 0 0 24 24" viewBox="0 0 24 24"><path fill="#6563ff" d="M20.2,4.6C18,2.3,14.4,2.2,12,4.2C9.6,2.2,6,2.3,3.8,4.6c-2.4,2.4-2.4,6.2,0,8.6l7.9,7.9c0.1,0.1,0.2,0.1,0.4,0.1c0.1,0,0.3-0.1,0.4-0.1l7.9-7.9C22.6,10.8,22.6,6.9,20.2,4.6z M19.5,12.5L12,20l-7.5-7.5c-2-2-2-5.2,0-7.2c0.9-1,2.2-1.5,3.6-1.5c1.3,0,2.5,0.5,3.5,1.4l-2,4.6c0,0,0,0,0,0.1c-0.1,0.3,0.1,0.5,0.4,0.6l3.4,0.9l-1.9,3.9c0,0.1-0.1,0.1-0.1,0.2c0,0.3,0.2,0.5,0.5,0.5c0.2,0,0.4-0.1,0.4-0.3l2.2-4.5c0,0,0-0.1,0-0.1c0.1-0.3-0.1-0.5-0.4-0.6l-3.4-0.9l2-4.6c0.9-0.8,2.1-1.2,3.3-1.2h0c1.3,0,2.6,0.5,3.6,1.5C21.5,7.3,21.5,10.5,19.5,12.5z"/></svg>