<svg xmlns="http://www.w3.org/2000/svg" enable-background="new 0 0 24 24" viewBox="0 0 24 24"><path fill="#6563ff" d="M16.3182983,15.1474609l-3.3369141,3.3466797c-0.5481567,0.5266724-1.4141846,0.5270996-1.9628906,0.0010376L5.3125,12.7715454c-1.7480469-1.7590332-1.7480469-4.5993652,0-6.3583984c0.8369751-0.8447876,1.9777832-1.3186646,3.1669922-1.3154297c1.1889038-0.0031738,2.3294067,0.4706421,3.1660156,1.3154297c0.1983643,0.1894531,0.5106201,0.1894531,0.7089844,0c0.6055298-0.6085815,1.3736572-1.0296631,2.2123413-1.2127686c2.4085693-0.5257568,4.7872925,1.0004883,5.3130493,3.4090576c0.0007324,0.003418,0.0015259,0.006897,0.0023193,0.0103149c0.0626221,0.2661743,0.3291626,0.4312134,0.5953369,0.3685913c0.2694092-0.0608521,0.4388428-0.328125,0.3789062-0.5976562c-0.546875-2.5083618-2.7686768-4.2958984-5.3359375-4.2930298h-0.0009766C14.2310181,4.0938721,12.9832764,4.5491333,12,5.3818359c-0.9832764-0.8327026-2.2310181-1.2879639-3.5194702-1.2841797H8.4794922c-1.4554443-0.0036621-2.8516235,0.576355-3.8759766,1.6103516c-2.1347656,2.1499023-2.1347656,5.6196289,0,7.7695312l5.7060547,5.7236328C10.7565918,19.6516724,11.3653564,19.904541,12,19.9033203c0.6348877,0.0012817,1.2437744-0.2519531,1.6904297-0.703125l3.3369141-3.3476562c0.1947021-0.1957397,0.1937866-0.5123291-0.0019531-0.7070312C16.8295898,14.9508057,16.5130005,14.9517212,16.3182983,15.1474609z M22,10.9140625h-2.5c-0.1325684,0-0.2597656,0.0526733-0.3535156,0.1464844l-1.6220703,1.6220703l-3.1483765-3.5976562c-0.0908813-0.1043701-0.2210693-0.1663208-0.359436-0.1708984c-0.1365356,0.0046997-0.2672729,0.0564575-0.3701172,0.1464844l-1.8534546,1.8535156H10c-0.276123,0-0.5,0.223877-0.5,0.5s0.223877,0.5,0.5,0.5h2c0.1326294,0,0.2597656-0.0526733,0.3535156-0.1464844l1.6220703-1.6220703l3.1484375,3.5976562c0.0908813,0.1043701,0.2210693,0.1663208,0.359375,0.1708984H17.5c0.1326294,0,0.2597656-0.0526733,0.3535156-0.1464844l1.8535156-1.8535156H22c0.276123,0,0.5-0.223877,0.5-0.5S22.276123,10.9140625,22,10.9140625z"/></svg>