<svg xmlns="http://www.w3.org/2000/svg" enable-background="new 0 0 24 24" viewBox="0 0 24 24"><path fill="#6563ff" d="M22.5185547,11.125l-10.1875-9c-0.1894531-0.1660156-0.4726562-0.1660156-0.6621094,0l-10.1875,9c-0.1074829,0.0949097-0.1690063,0.2314453-0.1690674,0.3748169C1.3123779,11.776062,1.5362549,12,1.8125,12H4v9.5c0,0.0001831,0,0.0003662,0,0.0005493C4.0001831,21.7765503,4.223999,22.0001831,4.5,22h5h5h0.0006104H19.5c0.0001831,0,0.0003662,0,0.0006104,0C19.7765503,21.9998169,20.0001831,21.776001,20,21.5V12h2.1875c0.1433716,0,0.2799072-0.0615845,0.3748169-0.1690674C22.7451782,11.6239014,22.7255859,11.3078613,22.5185547,11.125z M14,21h-4v-4c0-1.1045532,0.8954468-2,2-2s2,0.8954468,2,2V21z M19,21h-4v-4c0-1.6568604-1.3431396-3-3-3s-3,1.3431396-3,3v4H5v-9h14V21z M19.5,11h-15c-0.0001831,0-0.0003662,0-0.0006104,0H3.1337891L12,3.1669922L20.8662109,11H19.5z"/></svg>