<svg xmlns="http://www.w3.org/2000/svg" enable-background="new 0 0 24 24" viewBox="0 0 24 24"><path fill="#6563ff" d="M9.5,2C9.223877,2,9,2.223877,9,2.5V5H4.5C4.4998169,5,4.4996338,5,4.4993896,5C4.2234497,5.0001831,3.9998169,5.223999,4,5.5v13c0,0.0001831,0,0.0003662,0,0.0005493C4.0001831,18.7765503,4.223999,19.0001831,4.5,19H9v2.5c0,0.0001831,0,0.0003662,0,0.0005493C9.0001831,21.7765503,9.223999,22.0001831,9.5,22c0.0001831,0,0.0003662,0,0.0006104,0C9.7765503,21.9998169,10.0001831,21.776001,10,21.5v-3v-13V5.4993896V2.5C10,2.223877,9.776123,2,9.5,2z M9,18H5V6h4V18z M19.5,2C19.223877,2,19,2.223877,19,2.5V4h-6.5c-0.0001831,0-0.0003662,0-0.0005493,0C12.2234497,4.0001831,11.9998169,4.223999,12,4.5v15c0,0.0001831,0,0.0003662,0,0.0005493C12.0001831,19.7765503,12.223999,20.0001831,12.5,20H19v1.5c0,0.0001831,0,0.0003662,0,0.0005493C19.0001831,21.7765503,19.223999,22.0001831,19.5,22c0.0001831,0,0.0003662,0,0.0006104,0C19.7765503,21.9998169,20.0001831,21.776001,20,21.5v-2v-15V4.4993896V2.5C20,2.223877,19.776123,2,19.5,2z M19,19h-6V5h6V19z"/></svg>