<svg xmlns="http://www.w3.org/2000/svg" enable-background="new 0 0 24 24" viewBox="0 0 24 24"><path fill="#6563ff" d="M11.5,4h-3V2.5C8.5,2.223877,8.276123,2,8,2S7.5,2.223877,7.5,2.5V4H4.4993896C4.2234497,4.0001831,3.9998169,4.223999,4,4.5v15.0005493C4.0001831,19.7765503,4.223999,20.0001831,4.5,20h3v1.5005493C7.5001831,21.7765503,7.723999,22.0001831,8,22h0.0006104C8.2765503,21.9998169,8.5001831,21.776001,8.5,21.5V20h3.0006104C11.7765503,19.9998169,12.0001831,19.776001,12,19.5V4.4993896C11.9998169,4.2234497,11.776001,3.9998169,11.5,4z M11,19H5V5h6V19z M19.5,5h-2V2.5C17.5,2.223877,17.276123,2,17,2s-0.5,0.223877-0.5,0.5V5h-2.0005493C14.2234497,5.0001831,13.9998169,5.223999,14,5.5v13.0005493C14.0001831,18.7765503,14.223999,19.0001831,14.5,19h2v2.5005493C16.5001831,21.7765503,16.723999,22.0001831,17,22h0.0006104c0.2759399-0.0001831,0.4995728-0.223999,0.4993896-0.5V19h2.0006104C19.7765503,18.9998169,20.0001831,18.776001,20,18.5V5.4993896C19.9998169,5.2234497,19.776001,4.9998169,19.5,5z M19,18h-4V6h4V18z"/></svg>