<svg xmlns="http://www.w3.org/2000/svg" enable-background="new 0 0 24 24" viewBox="0 0 24 24"><path fill="#6563ff" d="M21.5,2C21.223877,2,21,2.223877,21,2.5V6H8.4994507C8.2234497,6.0001831,7.9998169,6.223999,8,6.5V11H2.4993896C2.2234497,11.0001831,1.9998169,11.223999,2,11.5v6.0005493C2.0001831,17.7765503,2.223999,18.0001831,2.5,18H21v3.5005493C21.0001831,21.7765503,21.223999,22.0001831,21.5,22h0.0006104C21.7765503,21.9998169,22.0001831,21.776001,22,21.5v-19C22,2.223877,21.776123,2,21.5,2z M21,17H3v-5h18V17z M21,11H9V7h12V11z"/></svg>