<svg xmlns="http://www.w3.org/2000/svg" enable-background="new 0 0 24 24" viewBox="0 0 24 24"><path fill="#6563ff" d="M21.5,11H19V6.4993896C18.9998169,6.2234497,18.776001,5.9998169,18.5,6h-6V2.5C12.5,2.223877,12.276123,2,12,2s-0.5,0.223877-0.5,0.5V6H5.4993896C5.2234497,6.0001831,4.9998169,6.223999,5,6.5V11H2.4993896C2.2234497,11.0001831,1.9998169,11.223999,2,11.5v6.0005493C2.0001831,17.7765503,2.223999,18.0001831,2.5,18h9v3.5005493C11.5001831,21.7765503,11.723999,22.0001831,12,22h0.0006104c0.2759399-0.0001831,0.4995728-0.223999,0.4993896-0.5V18h9.0006104C21.7765503,17.9998169,22.0001831,17.776001,22,17.5v-6.0006104C21.9998169,11.2234497,21.776001,10.9998169,21.5,11z M6,7h12v4H6V7z M21,17H3v-5h18V17z"/></svg>