<svg xmlns="http://www.w3.org/2000/svg" enable-background="new 0 0 24 24" viewBox="0 0 24 24"><path fill="#6563ff" d="M19.5,5H15V2.5C15,2.223877,14.776123,2,14.5,2S14,2.223877,14,2.5v3v13v0.0005493V21.5c0,0.0001831,0,0.0003662,0,0.0005493C14.0001831,21.7765503,14.223999,22.0001831,14.5,22c0.0001831,0,0.0003662,0,0.0006104,0C14.7765503,21.9998169,15.0001831,21.776001,15,21.5V19h4.5c0.0001831,0,0.0003662,0,0.0006104,0C19.7765503,18.9998169,20.0001831,18.776001,20,18.5v-13c0-0.0001831,0-0.0003662,0-0.0006104C19.9998169,5.2234497,19.776001,4.9998169,19.5,5z M19,18h-4V6h4V18z M11.5,4H5V2.5C5,2.223877,4.776123,2,4.5,2S4,2.223877,4,2.5v2v15v0.0005493V21.5c0,0.0001831,0,0.0003662,0,0.0005493C4.0001831,21.7765503,4.223999,22.0001831,4.5,22c0.0001831,0,0.0003662,0,0.0006104,0C4.7765503,21.9998169,5.0001831,21.776001,5,21.5V20h6.5c0.0001831,0,0.0003662,0,0.0006104,0C11.7765503,19.9998169,12.0001831,19.776001,12,19.5v-15c0-0.0001831,0-0.0003662,0-0.0006104C11.9998169,4.2234497,11.776001,3.9998169,11.5,4z M11,19H5V5h6V19z"/></svg>