<svg xmlns="http://www.w3.org/2000/svg" enable-background="new 0 0 24 24" viewBox="0 0 24 24"><path fill="#6563ff" d="M19.5,22H18v-3.4365234c0.0009766-1.1312866-0.4252319-2.2212524-1.1933594-3.0517578l-0.8789062-0.9511719C15.3308716,13.9140625,14.9995728,13.0664062,15,12.1865234v-0.3729858c-0.0003662-0.8798828,0.3308716-1.7275391,0.9277344-2.3740234l0.8789062-0.9511719C17.5748291,7.6578369,18.0010376,6.5678101,18,5.4365234V2h1.5C19.776123,2,20,1.776123,20,1.5S19.776123,1,19.5,1h-15C4.223877,1,4,1.223877,4,1.5S4.223877,2,4.5,2H6v3.4365234C5.9990234,6.5678101,6.4252319,7.6577759,7.1933594,8.4882812l0.8789062,0.9511719C8.6691284,10.0859375,9.0004272,10.9335938,9,11.8134766v0.3729858c0.0003662,0.8798828-0.3308716,1.7275391-0.9277344,2.3740234l-0.8789062,0.9511719C6.4251709,16.3421631,5.9989624,17.4321899,6,18.5634766V22H4.5C4.223877,22,4,22.223877,4,22.5S4.223877,23,4.5,23h15c0.276123,0,0.5-0.223877,0.5-0.5S19.776123,22,19.5,22z M7.006897,5.5106201C7.0063477,5.4855957,7,5.4616089,7,5.4365234V2h10v3.4365234c0,0.0250854-0.0063477,0.0490723-0.006897,0.0740967C16.975769,5.5060425,16.9581909,5.5025024,16.9404297,5.5H7.0595703C7.0418091,5.5025024,7.024231,5.5060425,7.006897,5.5106201z M8.8066406,8.7617188L7.9277344,7.8105469C7.5856934,7.4334717,7.3302612,6.986145,7.1791992,6.5h9.6416016c-0.151062,0.486145-0.4064941,0.9334717-0.7485352,1.3105469l-0.8789062,0.9511719C14.4984741,9.5129395,14.0811768,10.4790649,14.0107422,11.5H9.9892578C9.9188232,10.4790649,9.5015259,9.5129395,8.8066406,8.7617188z M7.9277344,16.1894531l0.8789062-0.9511719C9.5015869,14.4870605,9.9188232,13.5209351,9.9892578,12.5h4.0214844c0.0704346,1.0209351,0.4877319,1.9870605,1.1826172,2.7382812l0.8789062,0.9511719c0.3445435,0.3799438,0.6011963,0.8311768,0.7516479,1.3215332C16.8060303,17.5062256,16.7878418,17.5025635,16.7695312,17.5H7.2304688c-0.0183105,0.0025635-0.036499,0.0062256-0.0543823,0.0109863C7.3265381,17.0206299,7.5831909,16.569397,7.9277344,16.1894531z M17,22H7v-3.4365234c0-0.0403442,0.0097656-0.0791626,0.0111694-0.1193237C7.0789185,18.4796753,7.1539917,18.4987793,7.2304688,18.5h9.5390625c0.0764771-0.0012207,0.1515503-0.0203247,0.2192993-0.0558472C16.9902344,18.484314,17,18.5231323,17,18.5634766V22z"/></svg>