<svg xmlns="http://www.w3.org/2000/svg" enable-background="new 0 0 24 24" viewBox="0 0 24 24"><path fill="#6563ff" d="M7.8,4h10.7C19.3,4,20,4.7,20,5.5v8.4l-2.2-2.2c-0.6-0.5-1.3-0.8-2.1-0.7c0,0,0,0,0,0c-0.3,0-0.5,0.3-0.4,0.6c0,0.3,0.3,0.5,0.6,0.4c0.5-0.1,0.9,0.1,1.2,0.4l2.9,2.9v0.9c0,0.3,0.2,0.5,0.5,0.5h0c0.3,0,0.5-0.2,0.5-0.5V5.5C21,4.1,19.9,3,18.5,3H7.8C7.5,3,7.3,3.2,7.3,3.5S7.5,4,7.8,4z M21.9,21.1L10.7,10c0,0,0,0,0,0c0,0,0,0,0,0L4.5,3.7c0,0,0,0,0,0c0,0,0,0,0,0L2.9,2.1C2.7,2,2.4,2,2.2,2.1C2,2.3,2,2.7,2.1,2.9l1.3,1.3C3.1,4.5,3,5,3,5.5v13C3,19.9,4.1,21,5.5,21h13c0.5,0,1-0.1,1.4-0.4l1.3,1.3c0.1,0.1,0.2,0.1,0.4,0.1c0.1,0,0.3-0.1,0.4-0.1C22,21.7,22,21.3,21.9,21.1z M4,5.5c0-0.2,0.1-0.4,0.2-0.6l4.4,4.4c-0.5,0.1-1,0.3-1.4,0.7L4,13.1V5.5z M18.5,20h-13C4.7,20,4,19.3,4,18.5v-3.9l3.9-3.9c0.6-0.6,1.5-0.6,2.1,0l9.2,9.2C18.9,19.9,18.7,20,18.5,20z"/></svg>