<svg xmlns="http://www.w3.org/2000/svg" enable-background="new 0 0 24 24" viewBox="0 0 24 24"><path fill="#6563ff" d="M21.8498535,10.1430054l-2.0211792-2.0211792c1.1467896-1.4952393,1.0512085-3.6367798-0.3179321-5.0046387C18.7957153,2.4019165,17.8258057,2,16.8144531,1.9998779c-2.105896-0.0003052-3.8132935,1.706665-3.8135376,3.812561c-0.0003052,2.105896,1.706665,3.8132935,3.812561,3.8135376c0.8423462,0.0007324,1.6467285-0.2909546,2.3085938-0.796814l2.020813,2.020813c0.0023193,0.0024414,0.0046997,0.0047607,0.0070801,0.0071411c0.1972046,0.1932373,0.5137329,0.1900635,0.7070312-0.0071411C22.0502319,10.652771,22.0470581,10.3362427,21.8498535,10.1430054z M16.8198853,8.6259766c-1.5530396,0.00177-2.8134766-1.2557373-2.8151855-2.8087769c-0.00177-1.5530396,1.2557373-2.8134155,2.8087769-2.8151855c0.7462769-0.0012207,1.4624023,0.2946777,1.9902344,0.8222656c0.5274048,0.5266724,0.8240967,1.2412109,0.8249512,1.9865112C19.6304321,7.3638306,18.3728638,8.6242065,16.8198853,8.6259766z M19.5,13c-0.276123,0-0.5,0.223877-0.5,0.5v1.9326172l-2.6523438-2.6523438c-0.9743042-0.9716187-2.5502319-0.9746704-3.5283203-0.0068359l-0.9247437,0.9169922l-2.703186-2.7061157c-0.9790039-0.9701538-2.557251-0.9692383-3.5351562,0.0020142L3,13.6425781V6.5C3.0009155,5.671936,3.671936,5.0009155,4.5,5h5C9.776123,5,10,4.776123,10,4.5S9.776123,4,9.5,4h-5C3.119812,4.0012817,2.0012817,5.119812,2,6.5v13c0.0012817,1.380188,1.119812,2.4987183,2.5,2.5h13c1.380188-0.0012817,2.4987183-1.119812,2.5-2.5v-6C20,13.223877,19.776123,13,19.5,13z M17.5,21h-13c-0.828064-0.0009155-1.4990845-0.671936-1.5-1.5v-4.4433594l3.3632812-3.3632812c0.5875244-0.5817871,1.5339355-0.5822754,2.1220703-0.0009766l9.2713013,9.2814941C17.6728516,20.9884644,17.5878906,20.9998779,17.5,21z M19,19.5c-0.0004272,0.3637695-0.135376,0.692749-0.3508911,0.9523926l-6.046936-6.0535889l0.9222412-0.9154053c0.5870361-0.5794678,1.531311-0.5777588,2.1162109,0.0039062L19,16.8466797V19.5z"/></svg>