<svg xmlns="http://www.w3.org/2000/svg" enable-background="new 0 0 24 24" viewBox="0 0 24 24"><path fill="#6563ff" d="M22.8134766,1.7441406c-0.1167603-0.0961304-0.2715454-0.1325684-0.4189453-0.0986328c-0.9057617,0.1958618-1.8519897-0.0045776-2.6005859-0.5507812c-0.175415-0.1269531-0.4124756-0.1269531-0.5878906,0c-0.7486572,0.5461426-1.6948242,0.746521-2.6005859,0.5507812c-0.1473999-0.0330811-0.3018188,0.0032959-0.4189453,0.0986328C16.0686646,1.8391724,16.000061,1.9823608,16,2.1337891v3.3144531c-0.0039673,1.2947998,0.6030273,2.515564,1.6376953,3.2939453l1.5644531,1.1591797C19.2883301,9.96521,19.3927002,9.9997559,19.5,10c0.1072998-0.0002441,0.2116699-0.03479,0.2978516-0.0986328l1.5644531-1.1591187C22.3970337,7.9638672,23.0039673,6.743042,23,5.4482422V2.1337891C22.999939,1.9823608,22.9313354,1.8391724,22.8134766,1.7441406z M22,5.4482422c0.0045776,0.9783936-0.4525146,1.9016724-1.2333984,2.4912109L19.5,8.8779297l-1.2666016-0.9384766C17.4525146,7.3499146,16.9954224,6.4266357,17,5.4482422V2.7089844c0.8763428,0.062561,1.7503662-0.1501465,2.5-0.6083984c0.7497559,0.4579468,1.6236572,0.6705933,2.5,0.6083984V5.4482422z M19.5,13c-0.276123,0-0.5,0.223877-0.5,0.5v1.9326172l-2.6523438-2.6523438c-0.9743042-0.9716187-2.5502319-0.9746704-3.5283203-0.0068359l-0.9247437,0.9169922l-2.703186-2.7061157c-0.9790039-0.9701538-2.557251-0.9692383-3.5351562,0.0020142L3,13.6425781V6.5C3.0009155,5.671936,3.671936,5.0009155,4.5,5h8C12.776123,5,13,4.776123,13,4.5S12.776123,4,12.5,4h-8C3.119812,4.0012817,2.0012817,5.119812,2,6.5v13c0.0012817,1.380188,1.119812,2.4987183,2.5,2.5h13c1.380188-0.0012817,2.4987183-1.119812,2.5-2.5v-6C20,13.223877,19.776123,13,19.5,13z M17.5,21h-13c-0.828064-0.0009155-1.4990845-0.671936-1.5-1.5v-4.4433594l3.3632812-3.3632812c0.5875244-0.5817871,1.5339355-0.5822754,2.1220703-0.0009766l9.2713013,9.2814941C17.6728516,20.9884644,17.5878906,20.9998779,17.5,21z M19,19.5c-0.0004272,0.3637695-0.135376,0.692749-0.3508911,0.9523926l-6.046936-6.0535889l0.9222412-0.9154053c0.5870361-0.5794678,1.531311-0.5777588,2.1162109,0.0039062L19,16.8466797V19.5z"/></svg>