<svg xmlns="http://www.w3.org/2000/svg" enable-background="new 0 0 24 24" viewBox="0 0 24 24"><path fill="#6563ff" d="M19.5,13c-0.276123,0-0.5,0.223877-0.5,0.5v1.9326172l-2.6523438-2.6523438c-0.9743042-0.9716187-2.5502319-0.9746704-3.5283203-0.0068359l-0.9247437,0.9169922l-2.703186-2.7061157c-0.9790039-0.9701538-2.557251-0.9692383-3.5351562,0.0020142L3,13.6425781V6.5C3.0009155,5.671936,3.671936,5.0009155,4.5,5h6C10.776123,5,11,4.776123,11,4.5S10.776123,4,10.5,4h-6C3.119812,4.0012817,2.0012817,5.119812,2,6.5v13c0.0012817,1.380188,1.119812,2.4987183,2.5,2.5h13c1.380188-0.0012817,2.4987183-1.119812,2.5-2.5v-6C20,13.223877,19.776123,13,19.5,13z M17.5,21h-13c-0.828064-0.0009155-1.4990845-0.671936-1.5-1.5v-4.4433594l3.3632812-3.3632812c0.5875244-0.5817871,1.5339355-0.5822754,2.1220703-0.0009766l9.2713013,9.2814941C17.6728516,20.9884644,17.5878906,20.9998779,17.5,21z M19,19.5c-0.0004272,0.3637695-0.135376,0.692749-0.3508911,0.9523926l-6.046936-6.0535889l0.9222412-0.9154053c0.5870361-0.5794678,1.531311-0.5777588,2.1162109,0.0039062L19,16.8466797V19.5z M20,7c-0.5995483,0-1.1312256,0.2692261-1.4978027,0.6871338L16.9682007,6.920105C16.9973755,6.7844238,17.0144653,6.6443481,17.0146484,6.5c0-0.1444092-0.0169678-0.2846069-0.0460205-0.4203491l1.5335693-0.7667847C18.8687744,5.7307739,19.4004517,6,20,6c1.1040039-0.0014038,1.9985962-0.8959961,2-2c0-1.1045532-0.8954468-2-2-2s-2,0.8954468-2,2c0,0.1452026,0.0172729,0.2860718,0.0466919,0.4224854L16.513855,5.1888428C16.1472778,4.7699585,15.6149902,4.5,15.0146484,4.5c-1.1045532,0-2,0.8954468-2,2s0.8954468,2,2,2c0.5999756-0.0007324,1.1317749-0.2706909,1.498291-0.6893311l1.5337524,0.7668457C18.0172729,8.7139282,18,8.8547974,18,9c0,1.1045532,0.8954468,2,2,2c1.1040039-0.0014038,1.9985962-0.8959961,2-2C22,7.8954468,21.1045532,7,20,7z M20,3c0.552124,0.0003662,0.9996338,0.447876,1,1c0,0.5523071-0.4476929,1-1,1s-1-0.4476929-1-1S19.4476929,3,20,3z M15.0146484,7.5c-0.5523071,0-1-0.4476929-1-1s0.4476929-1,1-1c0.552124,0.0003662,0.9996338,0.447876,1,1C16.0146484,7.0523071,15.5669556,7.5,15.0146484,7.5z M20,10c-0.5523071,0-1-0.4476929-1-1s0.4476929-1,1-1c0.552124,0.0003662,0.9996338,0.447876,1,1C21,9.5523071,20.5523071,10,20,10z"/></svg>