<svg xmlns="http://www.w3.org/2000/svg" enable-background="new 0 0 24 24" viewBox="0 0 24 24"><path fill="#6563ff" d="M1.5,9.0488281h0.0005493c0.276001-0.0001221,0.4995728-0.223999,0.4994507-0.5V8.4521484C1.9998169,8.4414062,1.9992676,8.4306641,1.9983521,8.4199829C1.9764404,8.166687,1.7532959,7.9790649,1.5,8.0009766C1.2150879,8.0234985,0.99646,8.2630615,1,8.5488281v0.0006104C1.0001831,8.8254395,1.223999,9.0490112,1.5,9.0488281z M1.5,3.0244141c0.0765991,0.000061,0.1520996-0.0186768,0.2197266-0.0546875C1.9095459,2.8922729,2.0310669,2.704895,2.0244141,2.5C2.0130615,2.2191772,1.7810059,1.9979858,1.5,2C1.2147827,2.0234375,0.9963379,2.2636108,1,2.5498047c0.000061,0.0059204,0.0001831,0.0118408,0.0004883,0.0177612C1.0122681,2.831665,1.2359009,3.0361938,1.5,3.0244141z M1.5,6.0498657v-0.000061h0.0006104C1.7765503,6.0496216,2.0001831,5.8258057,2,5.5498047V5.453125C1.9998169,5.4425659,1.9993286,5.4320679,1.9984131,5.4215088C1.9769287,5.1677856,1.7537842,4.9794922,1.5,5.0009766C1.2149048,5.0239868,0.9963379,5.263855,1,5.5498657V5.550415C1.0001831,5.826416,1.223999,6.0499878,1.5,6.0498657z M7.4521484,3h0.0966797c0.0105591-0.0001831,0.0211182-0.0006714,0.0316162-0.0015869C7.8342285,2.9769287,8.0224609,2.7537842,8.0009766,2.5C7.9780273,2.2149048,7.7380981,1.9963989,7.4521484,2c-0.276123,0-0.5,0.223877-0.5,0.5S7.1760254,3,7.4521484,3z M22.5,3.0244141C22.7808228,3.0130615,23.0020142,2.7810059,23,2.5c-0.0234375-0.2852173-0.2636108-0.5036621-0.5498047-0.5c-0.0059204,0.000061-0.0118408,0.0001831-0.0177612,0.0004883C22.168335,2.0122681,21.9638062,2.2359009,21.9755859,2.5c-0.000061,0.0765991,0.0186768,0.1520996,0.0546875,0.2197266C22.1077271,2.9095459,22.295105,3.0310669,22.5,3.0244141z M13.4511719,3h0.0966797c0.0107422-0.0001831,0.0214844-0.0007324,0.0322266-0.0016479C13.833374,2.9764404,14.0209961,2.7532959,13.9990234,2.5c-0.0224609-0.2849121-0.2620239-0.50354-0.5478516-0.5c-0.276123,0-0.5,0.223877-0.5,0.5S13.1750488,3,13.4511719,3z M10.4511719,3h0.0966797c0.0107422-0.0001831,0.0214844-0.0007324,0.0322266-0.0016479C10.833374,2.9764404,11.0209961,2.7532959,10.9990234,2.5c-0.0224609-0.2849121-0.2620239-0.50354-0.5478516-0.5c-0.276123,0-0.5,0.223877-0.5,0.5S10.1750488,3,10.4511719,3z M4.4521484,3h0.0966797c0.0105591-0.0001831,0.0211182-0.0006714,0.0316162-0.0015869C4.8342285,2.9769287,5.0224609,2.7537842,5.0009766,2.5C4.9780273,2.2149048,4.7380981,1.9963989,4.4521484,2c-0.276123,0-0.5,0.223877-0.5,0.5S4.1760254,3,4.4521484,3z M19.4501953,2c-0.276123,0-0.5,0.223877-0.5,0.5s0.223877,0.5,0.5,0.5h0.0966797c0.0105591-0.0001831,0.0211182-0.0006714,0.0316162-0.0015869C19.8322754,2.9769287,20.0205078,2.7537842,19.9990234,2.5C19.9760742,2.2149048,19.736145,1.9963989,19.4501953,2z M22.5,11.4482422c-0.276123,0-0.5,0.2238159-0.5,0.5v0.1030884c0.0001831,0.276001,0.223999,0.4995728,0.5,0.4994507h0.0006104c0.2759399-0.0001831,0.4995728-0.2240601,0.4993896-0.5v-0.1025391C23,11.6720581,22.776123,11.4482422,22.5,11.4482422z M22.5,14.6152344c-0.276123,0-0.5,0.223877-0.5,0.5v0.1030884c0.0001831,0.276001,0.223999,0.4996338,0.5,0.4994507h0.0006104c0.2759399-0.0001831,0.4995728-0.223999,0.4993896-0.5v-0.1025391C23,14.8391113,22.776123,14.6152344,22.5,14.6152344z M22.5,8.28125c-0.276123,0-0.5,0.223877-0.5,0.5v0.1030884c0.0001831,0.276001,0.223999,0.4995728,0.5,0.4994507h0.0006104C22.7765503,9.383606,23.0001831,9.15979,23,8.8837891V8.78125C23,8.505127,22.776123,8.28125,22.5,8.28125z M22.5,17.7822266c-0.276123,0-0.5,0.223877-0.5,0.5v0.1030884c0.0001831,0.276001,0.223999,0.4996338,0.5,0.4994507h0.0005493c0.276001-0.0001221,0.4996338-0.223999,0.4994507-0.5v-0.1025391C23,18.0061035,22.776123,17.7822266,22.5,17.7822266z M22.5,5.1142578c-0.276123,0-0.5,0.223877-0.5,0.5v0.1030884c0.0001831,0.276001,0.223999,0.4995728,0.5,0.4994507h0.0005493c0.276001-0.0001221,0.4996338-0.223999,0.4994507-0.5V5.6142578C23,5.3381348,22.776123,5.1142578,22.5,5.1142578z M16.4501953,2c-0.276123,0-0.5,0.223877-0.5,0.5s0.223877,0.5,0.5,0.5h0.0966797c0.0105591-0.0001831,0.0211182-0.0006714,0.0316162-0.0015869C16.8322754,2.9769287,17.0205078,2.7537842,16.9990234,2.5C16.9760742,2.2149048,16.736145,1.9963989,16.4501953,2z M15.8857422,21h-0.1074219c-0.276123,0-0.5,0.223877-0.5,0.5s0.223877,0.5,0.5,0.5h0.1074219c0.276123,0,0.5-0.223877,0.5-0.5S16.1618652,21,15.8857422,21z M13.5117188,10.9863281H1.5111694c-0.276001,0.0001831-0.4996338,0.223999-0.4994507,0.5v10.0006104c0.0001831,0.2759399,0.223999,0.4995728,0.5,0.4993896h12.0006104c0.2759399-0.0001831,0.4995728-0.223999,0.4993896-0.5V11.4857788C14.0115356,11.2097778,13.7877197,10.986145,13.5117188,10.9863281z M13.0117188,20.9863281H5.0732422l3.5234375-3.5517578c0.5950317-0.5722046,1.5358276-0.5722046,2.1308594,0l2.2841797,2.3027344V20.9863281z M13.0117188,18.3173218l-1.5751953-1.5878296c-0.991333-0.953125-2.5584717-0.953125-3.5498047,0l-4.2219238,4.2568359H2.0117188v-9h11V18.3173218z M19.2216797,21h-0.1074219c-0.276123,0-0.5,0.223877-0.5,0.5s0.223877,0.5,0.5,0.5h0.1074219c0.276123,0,0.5-0.223877,0.5-0.5S19.4978027,21,19.2216797,21z M22.2802734,21.0302734C22.0904541,21.1077271,21.9689331,21.295105,21.9755859,21.5C21.9869385,21.7808228,22.2189941,22.0020142,22.5,22c0.2852173-0.0234375,0.5036621-0.2636108,0.5-0.5498047c-0.0039673-0.065918-0.0209351-0.1303711-0.0499268-0.1896973C22.8286743,21.0119629,22.5288086,20.9088745,22.2802734,21.0302734z"/></svg>