<svg xmlns="http://www.w3.org/2000/svg" enable-background="new 0 0 24 24" viewBox="0 0 24 24"><path fill="#6563ff" d="M22.5,1C22.223877,1,22,1.223877,22,1.5v1.1987915C21.1650391,1.6557617,19.8954468,0.9990234,18.4937134,1c-2.4852295,0.001709-4.4985962,2.0178223-4.4968262,4.5031128C13.9985962,7.9884033,16.0147095,10.001709,18.5,10c1.0927734-0.0033569,2.1473389-0.4022827,2.96875-1.1229858c0.2067261-0.1816406,0.2280273-0.4960327,0.0477295-0.7038574c-0.1811523-0.2087402-0.4971924-0.2311401-0.7059326-0.0500488c-0.414856,0.3661499-0.9105225,0.6288452-1.4464722,0.7666016c-1.8745117,0.4818726-3.784729-0.6470947-4.2666016-2.5216675c-0.4818726-1.8745117,0.6470947-3.784729,2.5216675-4.2666016C19.2745361,1.6759033,20.9541016,2.5089722,21.6567993,4H19.5C19.223877,4,19,4.223877,19,4.5S19.223877,5,19.5,5h3c0.0001831,0,0.0003662,0,0.0006104,0C22.7765503,4.9998169,23.0001831,4.776001,23,4.5v-3C23,1.223877,22.776123,1,22.5,1z M19.5,13c-0.276123,0-0.5,0.223877-0.5,0.5v1.9326172l-2.6523438-2.6523438c-0.9743042-0.9716187-2.5502319-0.9746704-3.5283203-0.0068359l-0.9247437,0.9169922l-2.703186-2.7061157c-0.9790039-0.9701538-2.557251-0.9692383-3.5351562,0.0020142L3,13.6425781V6.5C3.0009155,5.671936,3.671936,5.0009155,4.5,5h6C10.776123,5,11,4.776123,11,4.5S10.776123,4,10.5,4h-6C3.119812,4.0012817,2.0012817,5.119812,2,6.5v13c0.0012817,1.380188,1.119812,2.4987183,2.5,2.5h13c1.380188-0.0012817,2.4987183-1.119812,2.5-2.5v-6C20,13.223877,19.776123,13,19.5,13z M17.5,21h-13c-0.828064-0.0009155-1.4990845-0.671936-1.5-1.5v-4.4433594l3.3632812-3.3632812c0.5875244-0.5817871,1.5339355-0.5822754,2.1220703-0.0009766l9.2713013,9.2814941C17.6728516,20.9884644,17.5878906,20.9998779,17.5,21z M19,19.5c-0.0004272,0.3637695-0.135376,0.692749-0.3508911,0.9523926l-6.046936-6.0535889l0.9222412-0.9154053c0.5870361-0.5794678,1.531311-0.5777588,2.1162109,0.0039062L19,16.8466797V19.5z"/></svg>