<svg xmlns="http://www.w3.org/2000/svg" enable-background="new 0 0 24 24" viewBox="0 0 24 24"><path fill="#6563ff" d="M2.5,8.3740234h0.0005493C2.7765503,8.3738403,3.0001831,8.1499634,3,7.8740234V7.7880249c-0.0001221-0.0095825-0.0005493-0.019165-0.0012817-0.0286865C2.9793091,7.5033569,2.7559814,7.3115845,2.5,7.3309937C2.2158813,7.3511963,1.9967041,7.5892334,2,7.8740234v0.0005493C2.0001831,8.1505737,2.223999,8.3741455,2.5,8.3740234z M13.5068359,9.9863281H2.5688477C2.5454712,9.9838867,2.524231,9.9744873,2.5,9.9755859C2.2191772,9.9869385,1.9979858,10.2189941,2,10.5v0.0005493c0,0.0119629,0.0059814,0.0219727,0.0068359,0.0337524v10.9526367c0.0001831,0.2759399,0.223999,0.4995728,0.5,0.4993896h11.0005493c0.276001-0.0001831,0.4996338-0.223999,0.4994507-0.5V10.4857788C14.0067139,10.2097778,13.7828369,9.986145,13.5068359,9.9863281z M13.0068359,20.9863281H3.2138672l5.484375-5.6123047c0.5075684-0.5009766,1.3234863-0.5009766,1.8310547,0l2.4775391,2.5351562V20.9863281z M13.0068359,16.4782104l-1.7626953-1.8034058c-0.90625-0.8862305-2.3544922-0.8862305-3.2607422,0l-4.9765625,5.0923462v-8.7808228h10V16.4782104z M2.5,5.7119141h0.0006714C2.7766724,5.7116699,3.0001831,5.487793,3,5.211792V5.1259155C2.9998779,5.116333,2.9994507,5.1067505,2.9987183,5.097229C2.9793091,4.8412476,2.7559814,4.6494751,2.5,4.6688843C2.2158813,4.6890869,1.9967041,4.927124,2,5.2119141v0.0005493C2.0001831,5.4884644,2.223999,5.7120361,2.5,5.7119141z M11.9482422,3h0.1025391c0.276123,0,0.5-0.223877,0.5-0.5s-0.223877-0.5-0.5-0.5h-0.1025391c-0.2761841,0-0.5,0.223877-0.5,0.5S11.6720581,3,11.9482422,3z M2.5,3.0244141c0.0765991,0.000061,0.1520996-0.0186768,0.2197266-0.0546875C2.9095459,2.8922729,3.0310669,2.704895,3.0244141,2.5C3.0130615,2.2191772,2.7810059,1.9979858,2.5,2C2.2147827,2.0234375,1.9963379,2.2636108,2,2.5498047c0.000061,0.0059204,0.0001831,0.0118408,0.0004883,0.0177612C2.0122681,2.831665,2.2359009,3.0361938,2.5,3.0244141z M21.5,3.0244141C21.7808228,3.0130615,22.0020142,2.7810059,22,2.5c-0.0234375-0.2852173-0.2636108-0.5036621-0.5498047-0.5c-0.0059204,0.000061-0.0118408,0.0001831-0.0177612,0.0004883C21.168335,2.0122681,20.9638062,2.2359009,20.9755859,2.5c-0.000061,0.0765991,0.0186768,0.1520996,0.0546875,0.2197266C21.1077271,2.9095459,21.295105,3.0310669,21.5,3.0244141z M5.6142578,3h0.1025391c0.276123,0,0.5-0.223877,0.5-0.5s-0.223877-0.5-0.5-0.5H5.6142578c-0.276123,0-0.5,0.223877-0.5,0.5S5.3381348,3,5.6142578,3z M8.78125,3h0.1025391c0.276123,0,0.5-0.223877,0.5-0.5s-0.223877-0.5-0.5-0.5H8.78125c-0.276123,0-0.5,0.223877-0.5,0.5S8.505127,3,8.78125,3z M18.8847656,2.5c0-0.276123-0.223877-0.5-0.5-0.5h-0.1025391c-0.276123,0-0.5,0.223877-0.5,0.5s0.223877,0.5,0.5,0.5h0.1025391C18.6608887,3,18.8847656,2.776123,18.8847656,2.5z M15.2177734,2h-0.1025391c-0.276123,0-0.5,0.223877-0.5,0.5s0.223877,0.5,0.5,0.5h0.1025391c0.276123,0,0.5-0.223877,0.5-0.5S15.4938965,2,15.2177734,2z M21.5,11.4482422c-0.276123,0-0.5,0.2238159-0.5,0.5v0.1030884c0.0001831,0.276001,0.223999,0.4995728,0.5,0.4994507h0.0006104c0.2759399-0.0001831,0.4995728-0.2240601,0.4993896-0.5v-0.1025391C22,11.6720581,21.776123,11.4482422,21.5,11.4482422z M21.5,8.28125c-0.276123,0-0.5,0.223877-0.5,0.5v0.1030884c0.0001831,0.276001,0.223999,0.4995728,0.5,0.4994507h0.0006104C21.7765503,9.383606,22.0001831,9.15979,22,8.8837891V8.78125C22,8.505127,21.776123,8.28125,21.5,8.28125z M21.5,5.1142578c-0.276123,0-0.5,0.223877-0.5,0.5v0.1030884c0.0001831,0.276001,0.223999,0.4995728,0.5,0.4994507h0.0005493c0.276001-0.0001221,0.4996338-0.223999,0.4994507-0.5V5.6142578C22,5.3381348,21.776123,5.1142578,21.5,5.1142578z M21.5,14.6152344c-0.276123,0-0.5,0.223877-0.5,0.5v0.1030884c0.0001831,0.276001,0.223999,0.4996338,0.5,0.4994507h0.0006104c0.2759399-0.0001831,0.4995728-0.223999,0.4993896-0.5v-0.1025391C22,14.8391113,21.776123,14.6152344,21.5,14.6152344z M18.8740234,21h-0.0859985c-0.0095825,0.0001221-0.019165,0.0005493-0.0286865,0.0012817C18.5033569,21.0206909,18.3115845,21.2440186,18.3309937,21.5c0.0202026,0.2841187,0.2582397,0.5032959,0.5430298,0.5c0.276123,0,0.5-0.223877,0.5-0.5S19.1501465,21,18.8740234,21z M21.5,17.7822266c-0.276123,0-0.5,0.223877-0.5,0.5v0.1030884c0.0001831,0.276001,0.223999,0.4996338,0.5,0.4994507h0.0005493c0.276001-0.0001221,0.4996338-0.223999,0.4994507-0.5v-0.1025391C22,18.0061035,21.776123,17.7822266,21.5,17.7822266z M16.211792,21h-0.0858765c-0.0095825,0.0001221-0.019165,0.0005493-0.0286865,0.0012817C15.8412476,21.0206909,15.6494751,21.2440186,15.6688843,21.5c0.0202026,0.2841187,0.2581787,0.5032959,0.5429688,0.5c0.2761841,0,0.499939-0.223877,0.499939-0.5S16.4879761,21,16.211792,21z M21.2802734,21.0302734C21.0904541,21.1077271,20.9689331,21.295105,20.9755859,21.5C20.9869385,21.7808228,21.2189941,22.0020142,21.5,22c0.2852173-0.0234375,0.5036621-0.2636108,0.5-0.5498047c-0.0040283-0.0656738-0.0209351-0.1300049-0.0497437-0.1891479C21.8289795,21.0123291,21.5289917,20.9089966,21.2802734,21.0302734z"/></svg>