<svg xmlns="http://www.w3.org/2000/svg" enable-background="new 0 0 24 24" viewBox="0 0 24 24"><path fill="#6563ff" d="M19.5,8.875c-0.3451538,0-0.625,0.2798462-0.625,0.625s0.2798462,0.625,0.625,0.625s0.625-0.2798462,0.625-0.625S19.8451538,8.875,19.5,8.875z M19.5011597,2.0011597C18.1204224,2.0004883,17.0006104,3.1192627,17,4.5C17,4.776123,17.223877,5,17.5,5S18,4.776123,18,4.5c0.0001831-0.645752,0.4135132-1.2189331,1.026123-1.4230957c0.7861328-0.2619019,1.6358032,0.1630859,1.8977051,0.9492188c0.2619019,0.7861938-0.1630859,1.6358032-0.9492188,1.8977051C19.3759766,6.1399536,18.9832153,6.715332,19,7.3515625v0.1490479C19.0001831,7.7765503,19.223999,8.0001831,19.5,8h0.0006104C19.7765503,7.9998169,20.0001831,7.776001,20,7.5V7.3515625c-0.0112915-0.2040405,0.1038818-0.394104,0.289978-0.4785156C21.31073,6.5330811,21.9995117,5.578186,22,4.5023193C22.0006104,3.121582,20.8818359,2.00177,19.5011597,2.0011597z M19.5,13c-0.276123,0-0.5,0.223877-0.5,0.5v1.9326172l-2.6523438-2.6523438c-0.9743042-0.9716187-2.5502319-0.9746704-3.5283203-0.0068359l-0.9247437,0.9169922l-2.703186-2.7061157c-0.9790039-0.9701538-2.557251-0.9692383-3.5351562,0.0020142L3,13.6425781V6.5C3.0009155,5.671936,3.671936,5.0009155,4.5,5h9C13.776123,5,14,4.776123,14,4.5S13.776123,4,13.5,4h-9C3.119812,4.0012817,2.0012817,5.119812,2,6.5v13c0.0012817,1.380188,1.119812,2.4987183,2.5,2.5h13c1.380188-0.0012817,2.4987183-1.119812,2.5-2.5v-6C20,13.223877,19.776123,13,19.5,13z M17.5,21h-13c-0.828064-0.0009155-1.4990845-0.671936-1.5-1.5v-4.4433594l3.3632812-3.3632812c0.5875244-0.5817871,1.5339355-0.5822754,2.1220703-0.0009766l9.2713013,9.2814941C17.6728516,20.9884644,17.5878906,20.9998779,17.5,21z M19,19.5c-0.0004272,0.3637695-0.135376,0.692749-0.3508911,0.9523926l-6.046936-6.0535889l0.9222412-0.9154053c0.5870361-0.5794678,1.531311-0.5777588,2.1162109,0.0039062L19,16.8466797V19.5z"/></svg>