<svg xmlns="http://www.w3.org/2000/svg" enable-background="new 0 0 24 24" viewBox="0 0 24 24"><path fill="#6563ff" d="M18,15V5c-0.0018311-1.6561279-1.3438721-2.9981689-3-3H5C3.3438721,2.0018311,2.0018311,3.3438721,2,5v10c0.0018311,1.6561279,1.3438721,2.9981689,3,3h10C16.6561279,17.9981689,17.9981689,16.6561279,18,15z M3,5c0.0014038-1.1040039,0.8959961-1.9985962,2-2h10c1.1040039,0.0014038,1.9985962,0.8959961,2,2v5.4257812l-2.2324219-2.2324219c-0.9000244-0.8613281-2.3187256-0.8613281-3.21875,0l-1.0962524,1.0961304L9.5059204,8.3427124c-1.0894165-1.0858765-2.8520508-1.0858765-3.9414673,0L3,10.9072266V5z M3,15v-2.6787109l3.2714844-3.2714844c0.6981812-0.6972656,1.8291626-0.6972656,2.5273438,0l0.9462891,0.9462891l0.0009155-0.0001221l-6.2764893,6.2757568C3.1812134,15.9252319,3.0006104,15.4859009,3,15z M4.2914429,16.8637695l7.9644165-7.9633789c0.5048218-0.4824219,1.2998657-0.4824219,1.8046875,0L17,11.8398438V15c-0.0014038,1.1040039-0.8959961,1.9985962-2,2H5C4.7495728,16.9996948,4.5123291,16.9480591,4.2914429,16.8637695z M21.5,6C21.223877,6,21,6.223877,21,6.5V17c-0.0021973,2.208252-1.791748,3.9978027-4,4H6.5C6.223877,21,6,21.223877,6,21.5S6.223877,22,6.5,22H17c2.7600708-0.0032349,4.9967651-2.2399292,5-5V6.5C22,6.223877,21.776123,6,21.5,6z"/></svg>