<svg xmlns="http://www.w3.org/2000/svg" enable-background="new 0 0 24 24" viewBox="0 0 24 24"><path fill="#6563ff" d="M20,5.0508423V3.5C20,2.1192627,18.8807373,1,17.5,1S15,2.1192627,15,3.5v1.5508423C13.8594971,5.2832642,13.0010986,6.2910767,13,7.5v2c0.0012817,1.380188,1.119812,2.4987183,2.5,2.5h4c1.380188-0.0012817,2.4987183-1.119812,2.5-2.5v-2C21.9989014,6.2910767,21.1405029,5.2832642,20,5.0508423z M16,3.5C16,2.6715698,16.6715698,2,17.5,2S19,2.6715698,19,3.5V5h-3V3.5z M21,9.5c-0.0009155,0.828064-0.671936,1.4990845-1.5,1.5h-4c-0.828064-0.0009155-1.4990845-0.671936-1.5-1.5v-2c0.0009155-0.828064,0.671936-1.4990845,1.5-1.5h4c0.828064,0.0009155,1.4990845,0.671936,1.5,1.5V9.5z M19.5,14c-0.276123,0-0.5,0.223877-0.5,0.5v0.9326782l-1.2861328-1.2861328c-0.0023804-0.0024414-0.0047607-0.0048218-0.0071411-0.0071411c-0.1972046-0.1932983-0.5137329-0.1900635-0.7069702,0.0071411c-0.1932983,0.1971436-0.1901245,0.5137329,0.0070801,0.7069702L19,16.8466797V19.5c-0.0004272,0.3637695-0.135376,0.692749-0.3508911,0.9523926L9.1914062,10.984314c-0.9790039-0.9701538-2.557251-0.9692383-3.5351562,0.0020142L3,13.6425781V6.5C3.0009155,5.671936,3.671936,5.0009155,4.5,5h6C10.776123,5,11,4.776123,11,4.5S10.776123,4,10.5,4h-6C3.119812,4.0012817,2.0012817,5.119812,2,6.5v13c0.0012817,1.380188,1.119812,2.4987183,2.5,2.5h13c1.380188-0.0012817,2.4987183-1.119812,2.5-2.5v-5C20,14.223877,19.776123,14,19.5,14z M17.5,21h-13c-0.828064-0.0009155-1.4990845-0.671936-1.5-1.5v-4.4433594l3.3632812-3.3632812c0.5875244-0.5817871,1.5339355-0.5822754,2.1220703-0.0009766l9.2713013,9.2814941C17.6728516,20.9884644,17.5878906,20.9998779,17.5,21z"/></svg>