<svg xmlns="http://www.w3.org/2000/svg" enable-background="new 0 0 24 24" viewBox="0 0 24 24"><path fill="#6563ff" d="M19.5,10c-0.276123,0-0.5,0.223877-0.5,0.5v4.9326172l-2.6523438-2.6523438c-0.9743042-0.9716187-2.5502319-0.9746704-3.5283203-0.0068359l-0.9247437,0.9169922l-2.703186-2.7061157c-0.9790039-0.9701538-2.557251-0.9692383-3.5351562,0.0020142L3,13.6425781V6.5C3.0009155,5.671936,3.671936,5.0009155,4.5,5h9C13.776123,5,14,4.776123,14,4.5S13.776123,4,13.5,4h-9C3.119812,4.0012817,2.0012817,5.119812,2,6.5v13c0.0012817,1.380188,1.119812,2.4987183,2.5,2.5h13c1.380188-0.0012817,2.4987183-1.119812,2.5-2.5v-9C20,10.223877,19.776123,10,19.5,10z M17.5,21h-13c-0.828064-0.0009155-1.4990845-0.671936-1.5-1.5v-4.4433594l3.3632812-3.3632812c0.5875244-0.5817871,1.5339355-0.5822754,2.1220703-0.0009766l9.2713013,9.2814941C17.6728516,20.9884644,17.5878906,20.9998779,17.5,21z M19,19.5c-0.0004272,0.3637695-0.135376,0.692749-0.3508911,0.9523926l-6.046936-6.0535889l0.9222412-0.9154053c0.5870361-0.5794678,1.531311-0.5777588,2.1162109,0.0039062L19,16.8466797V19.5z M19.7216187,5.0038452l1.6464844-1.6464844c0.0024414-0.0023193,0.0047607-0.0046997,0.0071411-0.0070801c0.1932373-0.1972046,0.1900635-0.5137329-0.0071411-0.7069702c-0.1971436-0.1932983-0.5136719-0.1901245-0.7069702,0.0070801L19.0146484,4.296875L17.368103,2.6503906c-0.194397-0.1904907-0.5054932-0.1904907-0.6998901,0c-0.1971436,0.1932983-0.2003784,0.5098267-0.0070801,0.7070312l1.6464844,1.6464844l-1.6464844,1.6464844c-0.09375,0.09375-0.1464233,0.2208862-0.1464233,0.3534546c0,0.276123,0.2238159,0.5,0.499939,0.500061c0.1326294,0.0001221,0.2598267-0.0526123,0.3534546-0.1465454l1.6464844-1.6464844l1.6465454,1.6465454c0.0936279,0.0939331,0.2208862,0.1466675,0.3535156,0.1464844v0.000061c0.1325684-0.000061,0.2596436-0.0527344,0.3533936-0.1464233c0.1953125-0.1952515,0.1953125-0.5118408,0.000061-0.7071533L19.7216187,5.0038452z"/></svg>