<svg xmlns="http://www.w3.org/2000/svg" enable-background="new 0 0 24 24" viewBox="0 0 24 24"><path fill="#6563ff" d="M19,2H5C3.3438721,2.0018311,2.0018311,3.3438721,2,5v5.75c0,0.1325684,0.0526733,0.2597046,0.1464233,0.3534546c0.1952515,0.1952515,0.5118408,0.1953125,0.7070923,0.000061L5.5,8.4569702l2.6465454,2.6465454c0,0.000061,0.000061,0.0001221,0.0001221,0.0001221c0.1951904,0.1951904,0.5117188,0.1951294,0.7068481-0.0001221L11.5,8.4569702l3.1464844,3.1465454C14.7401123,11.6974487,14.8673706,11.7501831,15,11.75c0.1326294,0.0001221,0.2598877-0.0525513,0.3535156-0.1464844L18.5,8.4569702l2.6464844,2.6465454c0.09375,0.09375,0.2208862,0.1464233,0.3534546,0.1464233C21.776062,11.25,21.999939,11.026123,22,10.75V5C21.9981689,3.3438721,20.6561279,2.0018311,19,2z M21,9.5430298l-2.1465454-2.1465454c0,0-0.000061-0.000061-0.0001221-0.0001221c-0.1951904-0.1951294-0.5117188-0.1950684-0.7068481,0.0001221L15,10.5430298l-3.1464844-3.1465454C11.7598877,7.3025513,11.6326294,7.2498169,11.5,7.25c-0.1326294-0.0001221-0.2598877,0.0525513-0.3535156,0.1464844L8.5,10.0430298L5.8534546,7.3964844c0-0.000061-0.000061-0.0001221-0.0001221-0.0001221C5.6581421,7.2011719,5.3416138,7.2012329,5.1464844,7.3964844L3,9.5430298V5c0.0014038-1.1040039,0.8959961-1.9985962,2-2h14c1.1040039,0.0014038,1.9985962,0.8959961,2,2V9.5430298z M18.8534546,12.3964844c0,0-0.000061-0.000061-0.0001221-0.0001221c-0.1951904-0.1951294-0.5117188-0.1950684-0.7068481,0.0001221L15,15.5430298l-3.1465454-3.1465454c0,0-0.000061-0.000061-0.0001221-0.0001221c-0.1951904-0.1951294-0.5117188-0.1950684-0.7068481,0.0001221L8.5,15.0430298l-2.6465454-2.6465454c0-0.000061-0.000061-0.0001221-0.0001221-0.0001221c-0.1951904-0.1951904-0.5117188-0.1951294-0.7068481,0.0001221l-3,3C2.0526733,15.4902344,2,15.6173706,2,15.75V19c0.0018311,1.6561279,1.3438721,2.9981689,3,3h14c1.6561279-0.0018311,2.9981689-1.3438721,3-3v-3.25c0-0.1326294-0.0527344-0.2597656-0.1465454-0.3535156L18.8534546,12.3964844z M21,19c-0.0014038,1.1040039-0.8959961,1.9985962-2,2H5c-1.1040039-0.0014038-1.9985962-0.8959961-2-2v-3.0430298l2.5-2.5l2.6465454,2.6465454c0,0.000061,0.000061,0.0001221,0.0001221,0.0001221c0.1951904,0.1951904,0.5117188,0.1951294,0.7068481-0.0001221L11.5,13.4569702l3.1465454,3.1465454c0,0,0.000061,0.000061,0.0001221,0.0001221c0.1951904,0.1951294,0.5117188,0.1950684,0.7068481-0.0001221L18.5,13.4569702l2.5,2.5V19z"/></svg>