<svg xmlns="http://www.w3.org/2000/svg" enable-background="new 0 0 24 24" viewBox="0 0 24 24"><path fill="#6563ff" d="M19,4H5C3.3438721,4.0018311,2.0018311,5.3438721,2,7v10c0.0018311,1.6561279,1.3438721,2.9981689,3,3h14c1.6561279-0.0018311,2.9981689-1.3438721,3-3V7C21.9981689,5.3438721,20.6561279,4.0018311,19,4z M5,19c-1.1040649-0.0012817-1.9987183-0.8959351-2-2v-2.7226562l3.7636719-3.7636719c0.6832886-0.6816406,1.7893677-0.6816406,2.4726562,0L17.7324219,19H5z M21,17c-0.0013428,1.0582275-0.8258667,1.9151611-1.866272,1.9863892l-5.4244995-5.4182739l1.0544434-1.0544434c0.6912231-0.6621094,1.7814331-0.6621094,2.4726562,0L21,16.2773438V17z M21,14.8632812l-3.0565796-3.0566406c-1.0737305-1.0722046-2.8130493-1.0722046-3.8867188,0l-1.0548706,1.0549316L9.9433594,9.8066406c-1.0737305-1.0722656-2.8129883-1.0722656-3.8867188,0L3,12.8632812V7c0.0012817-1.1040649,0.8959351-1.9987183,2-2h14c1.1040039,0.0014038,1.9985962,0.8959961,2,2V14.8632812z"/></svg>