<svg xmlns="http://www.w3.org/2000/svg" enable-background="new 0 0 24 24" viewBox="0 0 24 24"><path fill="#6563ff" d="M18.9,19.1C18.9,19.1,18.9,19.1,18.9,19.1l-17-17C1.7,2,1.4,2,1.2,2.1C1,2.3,1,2.7,1.1,2.9L3,4.7C2.4,5.3,2,6.1,2,7v7.1V17c0,0,0,0,0,0s0,0,0,0c0,1.7,1.3,3,3,3h13.3l1.9,1.9c0.1,0.1,0.2,0.1,0.4,0.1c0.1,0,0.3-0.1,0.4-0.1c0.2-0.2,0.2-0.5,0-0.7L18.9,19.1z M3,7c0-0.6,0.3-1.2,0.7-1.5l3.6,3.6c-0.5,0.1-1,0.4-1.3,0.7L3,12.9V7z M5,19c-1.1,0-2-0.9-2-2v-2.7l3.8-3.8c0.4-0.4,1-0.6,1.6-0.5l9,9H5z M19,4H7.8C7.5,4,7.3,4.2,7.3,4.5S7.5,5,7.8,5H19c1.1,0,2,0.9,2,2v7.9l-3.1-3.1c-0.8-0.8-2.1-1-3.2-0.5c-0.2,0.1-0.4,0.4-0.2,0.7s0.4,0.4,0.7,0.2c0.7-0.3,1.5-0.2,2,0.3l3.8,3.8V17c0,0.3-0.1,0.6-0.2,0.8c0,0.1,0,0.1,0,0.2c0,0.3,0.2,0.5,0.5,0.5c0.2,0,0.4-0.1,0.5-0.3c0.2-0.4,0.3-0.8,0.3-1.2V7C22,5.3,20.7,4,19,4z"/></svg>