<svg xmlns="http://www.w3.org/2000/svg" enable-background="new 0 0 24 24" viewBox="0 0 24 24"><path fill="#6563ff" d="M21.8535156,3.5664062l-2.4199829-2.4199219c0-0.000061-0.000061-0.0001221-0.0001221-0.0001831c-0.1952515-0.1951294-0.5117188-0.1950684-0.7068481,0.0001831l-5.5800781,5.5800781C13.0526733,6.8203125,13,6.9474487,13,7.0800781V9.5c0,0.0001831,0,0.0003662,0,0.0005493C13.0001831,9.7765503,13.223999,10.0001831,13.5,10h2.4199219c0.1326294,0,0.2597656-0.0526733,0.3535156-0.1464844l5.5800781-5.5800781c0-0.000061,0.000061-0.0001221,0.0001221-0.0001831C22.0487671,4.0780029,22.0487061,3.7615356,21.8535156,3.5664062z M15.7128906,9H14V7.2871094l5.0800781-5.0801392l1.7129517,1.7129517L15.7128906,9z M19.5,11c-0.276123,0-0.5,0.223877-0.5,0.5v3.9326172l-2.6523438-2.6523438c-0.9743042-0.9716187-2.5502319-0.9746704-3.5283203-0.0068359l-0.9247437,0.9169922l-2.703186-2.7061157c-0.9790039-0.9701538-2.557251-0.9692383-3.5351562,0.0020142L3,13.6425781V6.5C3.0009155,5.671936,3.671936,5.0009155,4.5,5h7C11.776123,5,12,4.776123,12,4.5S11.776123,4,11.5,4h-7C3.119812,4.0012817,2.0012817,5.119812,2,6.5v13c0.0012817,1.380188,1.119812,2.4987183,2.5,2.5h13c1.380188-0.0012817,2.4987183-1.119812,2.5-2.5v-8C20,11.223877,19.776123,11,19.5,11z M17.5,21h-13c-0.828064-0.0009155-1.4990845-0.671936-1.5-1.5v-4.4433594l3.3632812-3.3632812c0.5875244-0.5817871,1.5339355-0.5822754,2.1220703-0.0009766l9.2713013,9.2814941C17.6728516,20.9884644,17.5878906,20.9998779,17.5,21z M19,19.5c-0.0004272,0.3637695-0.135376,0.692749-0.3508911,0.9523926l-6.046936-6.0535889l0.9222412-0.9154053c0.5870361-0.5794678,1.531311-0.5777588,2.1162109,0.0039062L19,16.8466797V19.5z"/></svg>