<svg xmlns="http://www.w3.org/2000/svg" enable-background="new 0 0 24 24" viewBox="0 0 24 24"><path fill="#6563ff" d="M20.6816406,2.3135986c-1.7584839-1.7558594-4.6074219-1.7537231-6.3632812,0.0047607C13.4741211,3.1623535,12.9998779,4.3071899,13,5.5009766C13.0002441,7.9859619,15.0150146,10.0002441,17.5,10c1.1941528,0.00354,2.3399658-0.4712524,3.1816406-1.3183594l0.0047607-0.0047607C22.4422607,6.918396,22.4401245,4.069458,20.6816406,2.3135986z M14,5.4992676C14.0001831,3.5664673,15.5671997,1.9998169,17.5,2c0.7590332,0.0001221,1.4850464,0.2579346,2.0861206,0.7068481l-4.8793335,4.8793335C14.2577515,6.9849243,13.9998779,6.258606,14,5.4992676z M19.9746094,7.9746094c-1.2608032,1.2039185-3.1740723,1.2990112-4.5528564,0.3106689l4.8707275-4.8707275C21.3171387,4.7851562,21.2200317,6.7288818,19.9746094,7.9746094z M19.5,13c-0.276123,0-0.5,0.223877-0.5,0.5v1.9326172l-2.6523438-2.6523438c-0.9743042-0.9716187-2.5502319-0.9746704-3.5283203-0.0068359l-0.9247437,0.9169922l-2.703186-2.7061157c-0.9790039-0.9701538-2.557251-0.9692383-3.5351562,0.0020142L3,13.6425781V6.5C3.0009155,5.671936,3.671936,5.0009155,4.5,5h5C9.776123,5,10,4.776123,10,4.5S9.776123,4,9.5,4h-5C3.119812,4.0012817,2.0012817,5.119812,2,6.5v13c0.0012817,1.380188,1.119812,2.4987183,2.5,2.5h13c1.380188-0.0012817,2.4987183-1.119812,2.5-2.5v-6C20,13.223877,19.776123,13,19.5,13z M17.5,21h-13c-0.828064-0.0009155-1.4990845-0.671936-1.5-1.5v-4.4433594l3.3632812-3.3632812c0.5875244-0.5817871,1.5339355-0.5822754,2.1220703-0.0009766l9.2713013,9.2814941C17.6728516,20.9884644,17.5878906,20.9998779,17.5,21z M19,19.5c-0.0004272,0.3637695-0.135376,0.692749-0.3508911,0.9523926l-6.046936-6.0535889l0.9222412-0.9154053c0.5870361-0.5794678,1.531311-0.5777588,2.1162109,0.0039062L19,16.8466797V19.5z"/></svg>