<svg xmlns="http://www.w3.org/2000/svg" enable-background="new 0 0 24 24" viewBox="0 0 24 24"><path fill="#6563ff" d="M21.8565063,2.1416626c-0.1958008-0.1947632-0.5123901-0.1939087-0.7070923,0.0018921l-4.2080078,4.1474609l-2.0830078-2.1396484c-0.1921387-0.1954956-0.5058594-0.1998291-0.7033691-0.0097046c-0.1989136,0.1915283-0.2049561,0.5080566-0.0134277,0.7069702l2.4345703,2.5C16.6757202,7.4371948,16.8016968,7.4904175,16.9345703,7.5c0.1311646,0,0.2570801-0.0515747,0.3505859-0.1435547l4.5654297-4.5c0.0026245-0.0025635,0.005249-0.005127,0.0078125-0.0076904C22.0531616,2.6529541,22.0523071,2.3363647,21.8565063,2.1416626z M19.5,9C19.223877,9,19,9.223877,19,9.5v5.9326172l-2.6523438-2.6523438c-0.9743042-0.9716187-2.5502319-0.9746704-3.5283203-0.0068359l-0.9247437,0.9169922l-2.703186-2.7061157c-0.9790039-0.9701538-2.557251-0.9692383-3.5351562,0.0020142L3,13.6425781V6.5C3.0009155,5.671936,3.671936,5.0009155,4.5,5h7C11.776123,5,12,4.776123,12,4.5S11.776123,4,11.5,4h-7C3.119812,4.0012817,2.0012817,5.119812,2,6.5v13c0.0012817,1.380188,1.119812,2.4987183,2.5,2.5h13c1.380188-0.0012817,2.4987183-1.119812,2.5-2.5v-10C20,9.223877,19.776123,9,19.5,9z M17.5,21h-13c-0.828064-0.0009155-1.4990845-0.671936-1.5-1.5v-4.4433594l3.3632812-3.3632812c0.5875244-0.5817871,1.5339355-0.5822754,2.1220703-0.0009766l9.2713013,9.2814941C17.6728516,20.9884644,17.5878906,20.9998779,17.5,21z M19,19.5c-0.0004272,0.3637695-0.135376,0.692749-0.3508911,0.9523926l-6.046936-6.0535889l0.9222412-0.9154053c0.5870361-0.5794678,1.531311-0.5777588,2.1162109,0.0039062L19,16.8466797V19.5z"/></svg>