<svg xmlns="http://www.w3.org/2000/svg" enable-background="new 0 0 24 24" viewBox="0 0 24 24"><path fill="#6563ff" d="M11.6464844,14.8535156C11.7401123,14.9474487,11.8673706,15.0001831,12,15c0.1326294,0.0001221,0.2598267-0.0525513,0.3534546-0.1464844l4.5-4.5c0.1871948-0.1937866,0.1871948-0.5009766,0-0.6947632c-0.1918335-0.1986084-0.5083618-0.2041016-0.7069702-0.0122681L12.5,13.2930298V2.5C12.5,2.223877,12.276123,2,12,2s-0.5,0.223877-0.5,0.5v10.7930298L7.8534546,9.6465454c-0.1937256-0.1871338-0.5009155-0.1871338-0.6947021,0c-0.1986084,0.1918335-0.2041016,0.5083618-0.0122681,0.7069702L11.6464844,14.8535156z M21.5,14c-0.276123,0-0.5,0.223877-0.5,0.5v5c-0.0009155,0.828064-0.671936,1.4990845-1.5,1.5h-15c-0.828064-0.0009155-1.4990845-0.671936-1.5-1.5v-5C3,14.223877,2.776123,14,2.5,14S2,14.223877,2,14.5v5c0.0012817,1.380188,1.119812,2.4987183,2.5,2.5h15c1.380188-0.0012817,2.4987183-1.119812,2.5-2.5v-5C22,14.223877,21.776123,14,21.5,14z"/></svg>