<svg xmlns="http://www.w3.org/2000/svg" enable-background="new 0 0 24 24" viewBox="0 0 24 24"><path fill="#6563ff" d="M12,8.375c-0.3451538,0-0.625,0.2798462-0.625,0.625S11.6548462,9.625,12,9.625S12.625,9.3451538,12.625,9S12.3451538,8.375,12,8.375z M12,10.5c-0.276123,0-0.5,0.223877-0.5,0.5v4.0005493C11.5001831,15.2765503,11.723999,15.5001831,12,15.5h0.0006104C12.2765503,15.4998169,12.5001831,15.276001,12.5,15v-4C12.5,10.723877,12.276123,10.5,12,10.5z M12,2C6.4771729,2,2,6.4771729,2,12s4.4771729,10,10,10c5.5201416-0.0064697,9.9935303-4.4798584,10-10C22,6.4771729,17.5228271,2,12,2z M12,21c-4.9705811,0-9-4.0294189-9-9s4.0294189-9,9-9c4.9683228,0.0054321,8.9945679,4.0316772,9,9C21,16.9705811,16.9705811,21,12,21z"/></svg>