<svg xmlns="http://www.w3.org/2000/svg" enable-background="new 0 0 24 24" viewBox="0 0 24 24"><path fill="#6563ff" d="M18.1425781,15.6503906l-2.4091797,2.4570312c-0.0601807,0.0615234-0.1034546,0.1375732-0.1256714,0.2207031c-0.0712891,0.2669067,0.0873413,0.5410156,0.354187,0.6123047l1.0957031,0.2929688l-1.9101562,1.9130859c-0.093689,0.09375-0.1463623,0.2208862-0.1464233,0.3534546c0,0.276123,0.2238159,0.5,0.499939,0.500061c0.1326294,0.0001831,0.2598877-0.0525513,0.3535156-0.1464844l2.5224609-2.5253906c0.0626221-0.062439,0.107605-0.1403198,0.130249-0.225769c0.0708008-0.2667847-0.0880737-0.5403442-0.3548584-0.611145l-1.1044922-0.2958984l1.8095703-1.8457031c0.1885376-0.1965332,0.1851196-0.5077515-0.0076904-0.7000732C18.6541748,15.4544678,18.3376465,15.454895,18.1425781,15.6503906z M6.9423828,19.2333984l1.0957031-0.2930298c0.0831909-0.0222168,0.1591797-0.0654907,0.2207642-0.1256714c0.1974487-0.1931763,0.2009277-0.5098267,0.0077515-0.7073364l-2.4091797-2.4569702c-0.1923218-0.1928101-0.5036011-0.196228-0.7001343-0.0077515c-0.1992798,0.1911621-0.2058716,0.5076904-0.0147095,0.7069702l1.8095703,1.8457031l-1.1044922,0.2958984c-0.0854492,0.022644-0.1633911,0.067627-0.2258301,0.130249c-0.1948242,0.1954346-0.1942749,0.5118408,0.0012207,0.706665l2.5224609,2.5253906C8.2391357,21.9474487,8.366394,22.0001831,8.4990234,22c0.1325684,0,0.2597046-0.0526733,0.3534546-0.1464233c0.1952515-0.1952515,0.1953125-0.5118408,0.000061-0.7070923L6.9423828,19.2333984z M21.5,4C21.223877,4,21,4.223877,21,4.5V5h-4V4.5c-0.0012817-1.380188-1.119812-2.4987183-2.5-2.5h-5C8.119812,2.0012817,7.0012817,3.119812,7,4.5V5H3V4.5C3,4.223877,2.776123,4,2.5,4S2,4.223877,2,4.5v2.0006104C2.0001831,6.7765503,2.223999,7.0001831,2.5,7h0.0006104C2.7765503,6.9998169,3.0001831,6.776001,3,6.5V6h4v3.5c0.001709,1.1875,0.836853,2.2106934,2,2.4501953V13.5c0.0009155,0.828064,0.671936,1.4990845,1.5,1.5h1v6.5005493C11.5001831,21.7765503,11.723999,22.0001831,12,22h0.0006104c0.2759399-0.0001831,0.4995728-0.223999,0.4993896-0.5V15h1c0.828064-0.0009155,1.4990845-0.671936,1.5-1.5v-1.5498047C16.163147,11.7106934,16.998291,10.6875,17,9.5V6h4v0.5006104C21.0001831,6.7765503,21.223999,7.0001831,21.5,7h0.0006104C21.7765503,6.9998169,22.0001831,6.776001,22,6.5v-2C22,4.223877,21.776123,4,21.5,4z M16,9.5c-0.0009155,0.828064-0.671936,1.4990845-1.5,1.5h-0.0005493C14.2234497,11.0001831,13.9998169,11.223999,14,11.5v2c-0.0005493,0.2759399-0.2240601,0.4994507-0.5,0.5h-3c-0.2759399-0.0005493-0.4994507-0.2240601-0.5-0.5v-2.0006104C9.9998169,11.2234497,9.776001,10.9998169,9.5,11C8.671936,10.9990845,8.0009155,10.328064,8,9.5v-5C8.0009155,3.671936,8.671936,3.0009155,9.5,3h5c0.828064,0.0009155,1.4990845,0.671936,1.5,1.5V9.5z M12,5.9960938c-0.276123,0-0.5,0.223877-0.5,0.5v2.0044556C11.5001831,8.7765503,11.723999,9.0001831,12,9h0.0006104C12.2765503,8.9998169,12.5001831,8.776001,12.5,8.5V6.4960938C12.5,6.2199707,12.276123,5.9960938,12,5.9960938z"/></svg>