<svg xmlns="http://www.w3.org/2000/svg" enable-background="new 0 0 24 24" viewBox="0 0 24 24"><path fill="#6563ff" d="M19.5,17c-0.5094604,0-0.9820557,0.1541748-1.3772583,0.4158325l-2.1029663-2.1029663c2.7462158-2.8493652,4.7713623-6.3165283,5.8835449-10.1194458c0.1264038-0.4465332,0.1264038-0.9194336,0-1.3659668C21.526123,2.4949341,20.1401367,1.72052,18.8076172,2.0977173C14.9489746,3.2338257,11.5006714,5.279541,8.6876221,7.9807129l-2.104126-2.104126C6.8451538,5.4815674,6.9995117,5.0092163,7,4.5C7,3.1192627,5.8807373,2,4.5,2S2,3.1192627,2,4.5S3.1192627,7,4.5,7c0.5091553-0.0004883,0.9815674-0.1548462,1.3765259-0.4164429l2.104126,2.104126c-2.701355,2.8126831-4.7474365,6.2606201-5.8839722,10.1190186c-0.0601807,0.2138062-0.0917358,0.4346924-0.093811,0.6567993c-0.0133057,1.3886719,1.1016235,2.5252075,2.4902954,2.5385132c0.2365723-0.0001221,0.4719849-0.0336304,0.6992188-0.0996704c3.8032227-1.1116943,7.270752-3.1365967,10.1204224-5.8825073l2.1029663,2.1029663C17.1541138,18.5179443,17,18.9906006,17,19.5c0,1.3807373,1.1192627,2.5,2.5,2.5c1.380188-0.0012817,2.4987183-1.119812,2.5-2.5C22,18.1192627,20.8807373,17,19.5,17z M4.5,6C3.6715698,6,3,5.3284302,3,4.5S3.6715698,3,4.5,3C5.328064,3.0009155,5.9990845,3.671936,6,4.5C6,5.3284302,5.3284302,6,4.5,6z M19.085022,3.0585938c0.1351318-0.0393066,0.2752075-0.0593872,0.4159546-0.0595703c0.1303101,0.0015259,0.2598267,0.0198364,0.385376,0.0545654c0.8059082,0.2226562,1.2786865,1.0565186,1.0560303,1.8624268c-0.6628418,2.2657471-1.6674805,4.4053955-2.9597778,6.3596191l-5.253418-5.253418C14.6659546,4.7427368,16.7991333,3.7320557,19.085022,3.0585938z M4.914978,20.9414062c-0.2648926,0.0738525-0.5449219,0.0738525-0.8098755,0c-0.802124-0.2236328-1.2711182-1.0552368-1.0474854-1.8574219c0.6737671-2.2856445,1.6845703-4.4186401,2.9641724-6.3551636l5.253418,5.253418C9.3208008,19.274353,7.1809692,20.2788086,4.914978,20.9414062z M12.1082153,17.4012451l-5.5064087-5.5064087c0.6384277-0.8815308,1.3345947-1.7166748,2.0858154-2.5001831l5.9180908,5.9180908C13.8203125,16.0684204,12.9857178,16.7650146,12.1082153,17.4012451z M15.3127441,14.605835L9.3946533,8.6877441c0.7835693-0.7511597,1.6187744-1.4472656,2.5004272-2.0856323l5.5064087,5.5064087C16.7651367,12.9859619,16.0685425,13.8204346,15.3127441,14.605835z M19.5,21c-0.8284302,0-1.5-0.6715698-1.5-1.5s0.6715698-1.5,1.5-1.5c0.828064,0.0009155,1.4990845,0.671936,1.5,1.5C21,20.3284302,20.3284302,21,19.5,21z"/></svg>