<svg xmlns="http://www.w3.org/2000/svg" enable-background="new 0 0 24 24" viewBox="0 0 24 24"><path fill="#6563ff" d="M14,13.5h-4c-0.2999878,0-0.5,0.2000122-0.5,0.5s0.2000122,0.5,0.5,0.5h4c0.2999878,0,0.5-0.2000122,0.5-0.5S14.2999878,13.5,14,13.5z M10,10.5999756c0.3313599,0,0.5999756-0.2686157,0.5999756-0.5999756S10.3313599,9.4000244,10,9.4000244S9.4000244,9.6686401,9.4000244,10S9.6686401,10.5999756,10,10.5999756z M6,9.4000244c-0.3313599,0-0.5999756,0.2686157-0.5999756,0.5999756S5.6686401,10.5999756,6,10.5999756S6.5999756,10.3313599,6.5999756,10S6.3313599,9.4000244,6,9.4000244z M6,13.4000244c-0.3313599,0-0.5999756,0.2686157-0.5999756,0.5999756S5.6686401,14.5999756,6,14.5999756S6.5999756,14.3313599,6.5999756,14S6.3313599,13.4000244,6,13.4000244z M14,9.4000244c-0.3313599,0-0.5999756,0.2686157-0.5999756,0.5999756S13.6686401,10.5999756,14,10.5999756S14.5999756,10.3313599,14.5999756,10S14.3313599,9.4000244,14,9.4000244z M20,5.5H4C2.5999756,5.5,1.5,6.5999756,1.5,8v8c0,1.4000244,1.0999756,2.5,2.5,2.5h16c1.4000244,0,2.5-1.0999756,2.5-2.5V8C22.5,6.5999756,21.4000244,5.5,20,5.5z M21.5,16c0,0.7999878-0.7000122,1.5-1.5,1.5H4c-0.7999878,0-1.5-0.7000122-1.5-1.5V8c0-0.7999878,0.7000122-1.5,1.5-1.5h16c0.7999878,0,1.5,0.7000122,1.5,1.5V16z M18,9.4000244c-0.3313599,0-0.5999756,0.2686157-0.5999756,0.5999756S17.6686401,10.5999756,18,10.5999756S18.5999756,10.3313599,18.5999756,10S18.3313599,9.4000244,18,9.4000244z M18,13.4000244c-0.3313599,0-0.5999756,0.2686157-0.5999756,0.5999756S17.6686401,14.5999756,18,14.5999756S18.5999756,14.3313599,18.5999756,14S18.3313599,13.4000244,18,13.4000244z"/></svg>