<svg xmlns="http://www.w3.org/2000/svg" enable-background="new 0 0 24 24" viewBox="0 0 24 24"><path fill="#6563ff" d="M6,6.4C5.7,6.4,5.4,6.7,5.4,7S5.7,7.6,6,7.6S6.6,7.3,6.6,7S6.3,6.4,6,6.4z M10,7.6c0.3,0,0.6-0.3,0.6-0.6S10.3,6.4,10,6.4S9.4,6.7,9.4,7S9.7,7.6,10,7.6z M14,10.5h-4c-0.3,0-0.5,0.2-0.5,0.5s0.2,0.5,0.5,0.5h4c0.3,0,0.5-0.2,0.5-0.5S14.3,10.5,14,10.5z M12.4,18.1C12.4,18.1,12.4,18.1,12.4,18.1c-0.2-0.2-0.5-0.2-0.7,0l-2.5,2.5c-0.2,0.2-0.2,0.5,0,0.7c0.2,0.2,0.5,0.2,0.7,0l2.1-2.1l2.1,2.1c0.1,0.1,0.2,0.1,0.4,0.1c0.1,0,0.3-0.1,0.4-0.1c0.2-0.2,0.2-0.5,0-0.7L12.4,18.1z M6,10.4c-0.3,0-0.6,0.3-0.6,0.6s0.3,0.6,0.6,0.6s0.6-0.3,0.6-0.6S6.3,10.4,6,10.4z M18,6.4c-0.3,0-0.6,0.3-0.6,0.6s0.3,0.6,0.6,0.6s0.6-0.3,0.6-0.6S18.3,6.4,18,6.4z M20,2.5H4C2.6,2.5,1.5,3.6,1.5,5v8c0,1.4,1.1,2.5,2.5,2.5h16c1.4,0,2.5-1.1,2.5-2.5V5C22.5,3.6,21.4,2.5,20,2.5z M21.5,13c0,0.8-0.7,1.5-1.5,1.5H4c-0.8,0-1.5-0.7-1.5-1.5V5c0-0.8,0.7-1.5,1.5-1.5h16c0.8,0,1.5,0.7,1.5,1.5V13z M14,6.4c-0.3,0-0.6,0.3-0.6,0.6s0.3,0.6,0.6,0.6s0.6-0.3,0.6-0.6S14.3,6.4,14,6.4z M18,10.4c-0.3,0-0.6,0.3-0.6,0.6s0.3,0.6,0.6,0.6s0.6-0.3,0.6-0.6S18.3,10.4,18,10.4z"/></svg>