<svg xmlns="http://www.w3.org/2000/svg" enable-background="new 0 0 24 24" viewBox="0 0 24 24"><path fill="#6563ff" d="M12,8c-1.1045532,0-2,0.8954468-2,2c0,0.9308472,0.638855,1.7062378,1.5,1.9292603v3.5712891C11.5001831,15.7765503,11.723999,16.0001831,12,16h0.0006104c0.2759399-0.0001831,0.4995728-0.223999,0.4993896-0.5v-3.5712891C13.3604736,11.7049561,13.9988403,10.9302979,14,10C14,8.8954468,13.1045532,8,12,8z M12,11c-0.5523071,0-1-0.4476929-1-1s0.4476929-1,1-1c0.552124,0.0003662,0.9996338,0.447876,1,1C13,10.5523071,12.5523071,11,12,11z M12,2C6.4771729,2,2,6.4771729,2,12s4.4771729,10,10,10c5.5201416-0.0064697,9.9935303-4.4798584,10-10C22,6.4771729,17.5228271,2,12,2z M12,21c-4.9705811,0-9-4.0294189-9-9s4.0294189-9,9-9c4.9683228,0.0054321,8.9945679,4.0316772,9,9C21,16.9705811,16.9705811,21,12,21z"/></svg>