<svg xmlns="http://www.w3.org/2000/svg" enable-background="new 0 0 24 24" viewBox="0 0 24 24"><path fill="#6563ff" d="M19.5,2h-15C3.119812,2.0012817,2.0012817,3.119812,2,4.5v15c0.0012817,1.380188,1.119812,2.4987183,2.5,2.5h15c1.380188-0.0012817,2.4987183-1.119812,2.5-2.5v-15C21.9987183,3.119812,20.880188,2.0012817,19.5,2z M21,19.5c-0.0009155,0.828064-0.671936,1.4990845-1.5,1.5h-15c-0.828064-0.0009155-1.4990845-0.671936-1.5-1.5v-15C3.0009155,3.671936,3.671936,3.0009155,4.5,3h15c0.828064,0.0009155,1.4990845,0.671936,1.5,1.5V19.5z M12,8c-1.1045532,0-2,0.8954468-2,2c0,0.9308472,0.638855,1.7062378,1.5,1.9292603v3.5712891C11.5001831,15.7765503,11.723999,16.0001831,12,16h0.0006104c0.2759399-0.0001831,0.4995728-0.223999,0.4993896-0.5v-3.5712891C13.3604736,11.7049561,13.9988403,10.9302979,14,10C14,8.8954468,13.1045532,8,12,8z M12,11c-0.5523071,0-1-0.4476929-1-1s0.4476929-1,1-1c0.552124,0.0003662,0.9996338,0.447876,1,1C13,10.5523071,12.5523071,11,12,11z"/></svg>