<svg xmlns="http://www.w3.org/2000/svg" enable-background="new 0 0 24 24" viewBox="0 0 24 24"><path fill="#6563ff" d="M21.5,2h-19C2.4998169,2,2.4996338,2,2.4993896,2C2.2234497,2.0001831,1.9998169,2.223999,2,2.5v19c0,0.0001831,0,0.0003662,0,0.0005493C2.0001831,21.7765503,2.223999,22.0001831,2.5,22h19c0.0001831,0,0.0003662,0,0.0006104,0C21.7765503,21.9998169,22.0001831,21.776001,22,21.5v-19c0-0.0001831,0-0.0003662,0-0.0006104C21.9998169,2.2234497,21.776001,1.9998169,21.5,2z M21,21H3V3h18V21z M11.5,11.9292603V15.5c0,0.0001831,0,0.0003662,0,0.0005493C11.5001831,15.7765503,11.723999,16.0001831,12,16c0.0001831,0,0.0003662,0,0.0006104,0c0.2759399-0.0001831,0.4995728-0.223999,0.4993896-0.5v-3.5712891C13.3604736,11.7049561,13.9988403,10.9302979,14,10c0-1.1045532-0.8954468-2-2-2s-2,0.8954468-2,2C10,10.9308472,10.638855,11.7062378,11.5,11.9292603z M12,9c0.552124,0.0003662,0.9996338,0.447876,1,1c0,0.5523071-0.4476929,1-1,1s-1-0.4476929-1-1S11.4476929,9,12,9z"/></svg>