<svg xmlns="http://www.w3.org/2000/svg" enable-background="new 0 0 24 24" viewBox="0 0 24 24"><path fill="#6563ff" d="M10.5,10c0-0.8284302-0.6715698-1.5-1.5-1.5S7.5,9.1715698,7.5,10s0.6715698,1.5,1.5,1.5C9.828064,11.4990845,10.4990845,10.828064,10.5,10z M9,10.5c-0.276123,0-0.5-0.223877-0.5-0.5S8.723877,9.5,9,9.5C9.2759399,9.5005493,9.4994507,9.7240601,9.5,10C9.5,10.276123,9.276123,10.5,9,10.5z M15,8.5c-0.8284302,0-1.5,0.6715698-1.5,1.5s0.6715698,1.5,1.5,1.5c0.828064-0.0009155,1.4990845-0.671936,1.5-1.5C16.5,9.1715698,15.8284302,8.5,15,8.5z M15,10.5c-0.276123,0-0.5-0.223877-0.5-0.5s0.223877-0.5,0.5-0.5c0.2759399,0.0005493,0.4994507,0.2240601,0.5,0.5C15.5,10.276123,15.276123,10.5,15,10.5z M12,2C6.4771729,2,2,6.4771729,2,12s4.4771729,10,10,10c5.5201416-0.0064697,9.9935303-4.4798584,10-10C22,6.4771729,17.5228271,2,12,2z M12,21c-4.9705811,0-9-4.0294189-9-9c0-4.2224121,2.9117432-7.7556763,6.8340454-8.7266235C9.6275024,3.637146,9.5,4.0518188,9.5,4.5C9.5,5.8807373,10.6192627,7,12,7c0.276123,0,0.5-0.223877,0.5-0.5S12.276123,6,12,6c-0.8284302,0-1.5-0.6715698-1.5-1.5S11.1715698,3,12,3c4.9683228,0.0054321,8.9945679,4.0316772,9,9C21,16.9705811,16.9705811,21,12,21z M14.7199097,14.2028198c-0.2479248-0.1210327-0.5471191-0.0181885-0.6681519,0.2297974C13.6937866,15.256958,12.8977661,15.805542,12,15.8466797c-0.8977661-0.0411377-1.6937866-0.5897827-2.0517578-1.4140625c-0.0004883-0.0010376-0.0009766-0.0020142-0.0014648-0.0030518c-0.1227417-0.2471313-0.4226074-0.3480225-0.6697388-0.2252808s-0.3480225,0.4225464-0.2252808,0.6697388C9.5754395,16.0420532,10.720459,16.8082275,12,16.8466797c1.279541-0.0384521,2.4245605-0.8045654,2.9482422-1.9726562c0.0004883-0.0010376,0.0009766-0.0020142,0.0014648-0.0029907C15.0708008,14.6230469,14.9678955,14.3239136,14.7199097,14.2028198z"/></svg>