<svg xmlns="http://www.w3.org/2000/svg" enable-background="new 0 0 24 24" viewBox="0 0 24 24"><path fill="#6563ff" d="M20.8535156,11.6464844l-5.5-5.5C15.2597656,6.0526733,15.1326294,6,15,6H4C2.3438721,6.0018311,1.0018311,7.3438721,1,9v6c0.0018311,1.6561279,1.3438721,2.9981689,3,3h11c0.1326294,0,0.2597656-0.0526733,0.3535156-0.1465454l5.5-5.5c0.000061,0,0.0001221-0.000061,0.0001221-0.0001221C21.0488281,12.1581421,21.0487671,11.8416138,20.8535156,11.6464844z M14.7930298,17H4c-1.1040649-0.0012817-1.9987183-0.8959351-2-2V9c0.0012817-1.1040649,0.8959351-1.9987183,2-2h10.7930298l5,5L14.7930298,17z"/></svg>