<svg xmlns="http://www.w3.org/2000/svg" enable-background="new 0 0 24 24" viewBox="0 0 24 24"><path fill="#6563ff" d="M14.5,12c0,0.8284302,0.6715698,1.5,1.5,1.5c0.828064-0.0009155,1.4990845-0.671936,1.5-1.5c0-0.8284302-0.6715698-1.5-1.5-1.5S14.5,11.1715698,14.5,12z M16,11.5c0.2759399,0.0005493,0.4994507,0.2240601,0.5,0.5c0,0.276123-0.223877,0.5-0.5,0.5s-0.5-0.223877-0.5-0.5S15.723877,11.5,16,11.5z M21.8535156,11.6464844l-5.5-5.5C16.2597656,6.0526733,16.1326294,6,16,6H5C3.3438721,6.0018311,2.0018311,7.3438721,2,9v6c0.0018311,1.6561279,1.3438721,2.9981689,3,3h11c0.1326294,0,0.2597656-0.0526733,0.3535156-0.1465454l5.5-5.5c0.000061,0,0.0001221-0.000061,0.0001221-0.0001221C22.0488281,12.1581421,22.0487671,11.8416138,21.8535156,11.6464844z M15.7930298,17H5c-1.1040039-0.0014038-1.9985962-0.8959961-2-2V9c0.0014038-1.1040039,0.8959961-1.9985962,2-2h10.7930298l5,5L15.7930298,17z"/></svg>