<svg xmlns="http://www.w3.org/2000/svg" enable-background="new 0 0 24 24" viewBox="0 0 24 24"><path fill="#6563ff" d="M21.5,19h-7.050415c-0.1988525-0.9794922-0.9700928-1.7507324-1.949585-1.949585V13h6h0.0006104H20.5c0.276123,0,0.5-0.223877,0.5-0.5S20.776123,12,20.5,12H19V4.5c-0.0012817-1.380188-1.119812-2.4987183-2.5-2.5h-9C6.119812,2.0012817,5.0012817,3.119812,5,4.5V12H3.5C3.223877,12,3,12.223877,3,12.5S3.223877,13,3.5,13h2h6v4.050415C10.5205078,17.2492676,9.7492676,18.0205078,9.550415,19H2.5C2.223877,19,2,19.223877,2,19.5S2.223877,20,2.5,20h7.050415C9.7821045,21.1411133,10.7905273,22,12,22c1.2089233-0.0010986,2.2167358-0.8594971,2.4491577-2H21.5c0.276123,0,0.5-0.223877,0.5-0.5S21.776123,19,21.5,19z M6,12V4.5C6.0009155,3.671936,6.671936,3.0009155,7.5,3h9c0.828064,0.0009155,1.4990845,0.671936,1.5,1.5V12H6z M12,21c-0.8284302,0-1.5-0.6715698-1.5-1.5S11.1715698,18,12,18c0.828064,0.0009155,1.4990845,0.671936,1.5,1.5C13.5,20.3284302,12.8284302,21,12,21z"/></svg>