<svg xmlns="http://www.w3.org/2000/svg" enable-background="new 0 0 24 24" viewBox="0 0 24 24"><path fill="#6563ff" d="M4.5,10H10c1.2472534-0.0001831,2.3643188-0.7719727,2.8057861-1.9384766c0.5864868-1.5498047-0.194458-3.2816772-1.7442627-3.8681641c-0.5474854-1.0838623-1.5582886-1.8598022-2.7468262-2.1086426C6.1555786,1.6327515,4.0388794,3.0166626,3.5869141,5.1757812C2.6291504,5.5510254,1.9992676,6.4749756,2,7.5036011C2.0010376,8.8833618,3.1203003,10.0009766,4.5,10z M4.1459961,6.046875c0.2035522-0.0480347,0.3554688-0.2180786,0.3803711-0.4257812C4.7142334,4.1222534,5.9894409,2.99823,7.5,3c1.1904297,0.0006104,2.2671509,0.7070923,2.7416992,1.7988281c0.0593262,0.1367188,0.1766357,0.2398682,0.3198242,0.28125C11.4140015,5.3295288,11.9998779,6.1113281,12,6.9995728C12.0001221,8.104248,11.1046753,8.9998779,10,9H4.5C3.8074341,9.0011597,3.2044067,8.5272217,3.0418701,7.8540039C2.8477173,7.0501099,3.342041,6.2410278,4.1459961,6.046875z M21.5,16H20V8.5c-0.0012817-1.380188-1.119812-2.4987183-2.5-2.5h-2C15.223877,6,15,6.223877,15,6.5S15.223877,7,15.5,7h2c0.828064,0.0009155,1.4990845,0.671936,1.5,1.5V16H5v-3.5C5,12.223877,4.776123,12,4.5,12S4,12.223877,4,12.5V16H2.5c-0.0001831,0-0.0003662,0-0.0006104,0C2.2234497,16.0001831,1.9998169,16.223999,2,16.5v3c0.0014648,1.380127,1.119873,2.4985352,2.5,2.5h15c1.380188-0.0012817,2.4987183-1.119812,2.5-2.5v-3c0-0.0001831,0-0.0003662,0-0.0006104C21.9998169,16.2234497,21.776001,15.9998169,21.5,16z M21,19.5c-0.0009155,0.828064-0.671936,1.4990845-1.5,1.5h-15c-0.828064-0.0009155-1.4990845-0.671936-1.5-1.5V17h1.5h15h0.0006104H21V19.5z"/></svg>