<svg xmlns="http://www.w3.org/2000/svg" enable-background="new 0 0 24 24" viewBox="0 0 24 24"><path fill="#6563ff" d="M14.5175781,11.8535156C14.6112061,11.9474487,14.7384644,12.0001831,14.8710938,12c0.1325073-0.000061,0.2595825-0.0526733,0.3533325-0.1463623c0.1953125-0.1952515,0.1953735-0.5118408,0.0001831-0.7070923L14.078064,10l1.1465454-1.1465454c0.1904907-0.194397,0.1904907-0.5054321,0-0.6998291c-0.1932983-0.1972046-0.5098267-0.2003784-0.7070312-0.0071411l-1.5,1.5c-0.09375,0.09375-0.1463623,0.2208862-0.1464233,0.3534546c0,0.1380615,0.0559082,0.2631226,0.1464233,0.3535767L14.5175781,11.8535156z M10.2246094,10.3534546c0.0016479-0.001709,0.0021362-0.0040283,0.0037842-0.0057373c0.1901245-0.1956177,0.1896362-0.5076904-0.0037842-0.7011719l-1.5-1.5c-0.194397-0.1904907-0.5054932-0.1904907-0.6998901,0C7.8275146,8.3397827,7.8243408,8.656311,8.0175781,8.8535156L9.1640625,10l-1.1464844,1.1464844c-0.09375,0.09375-0.1463623,0.2208862-0.1464233,0.3534546c0,0.276123,0.2238159,0.5,0.499939,0.500061c0.1326294,0.0001221,0.2598267-0.0526123,0.3535156-0.1465454L10.2246094,10.3534546z M12,2C6.4771729,2,2,6.4771729,2,12s4.4771729,10,10,10c5.5201416-0.0064697,9.9935303-4.4798584,10-10C22,6.4771729,17.5228271,2,12,2z M12,21c-4.9705811,0-9-4.0294189-9-9s4.0294189-9,9-9c4.9683228,0.0054321,8.9945679,4.0316772,9,9C21,16.9705811,16.9705811,21,12,21z M14.6787109,14.6171875c-1.5650024,1.2558594-3.7924194,1.2558594-5.3574219,0c-0.2114258-0.1774292-0.5266724-0.1499023-0.7041016,0.0615234s-0.1499023,0.5266724,0.0615234,0.7041016C9.6098022,16.1627808,10.7854004,16.5906982,12,16.5917969c1.2145996-0.0010986,2.3901978-0.4290161,3.3212891-1.2089844c0.2114258-0.1774292,0.2389526-0.4926758,0.0615234-0.7041016S14.8901367,14.4397583,14.6787109,14.6171875z"/></svg>