<svg xmlns="http://www.w3.org/2000/svg" enable-background="new 0 0 24 24" viewBox="0 0 24 24"><path fill="#6563ff" d="M9,4.8l3-1.8L20.5,8l-5.1,2.9c-0.2,0.1-0.3,0.3-0.3,0.4c0,0.3,0.2,0.5,0.5,0.5c0.1,0,0.2,0,0.2-0.1l5.9-3.4c0.1,0,0.1-0.1,0.2-0.2C22.1,8,22,7.7,21.8,7.5l-9.5-5.5c-0.2-0.1-0.3-0.1-0.5,0L8.4,4C8.2,4.1,8.1,4.4,8.3,4.7S8.7,5,9,4.8z M21.9,11.7c-0.1-0.2-0.4-0.3-0.7-0.2l-3.4,2c-0.2,0.1-0.2,0.3-0.2,0.4c0,0.3,0.2,0.5,0.5,0.5c0.1,0,0.2,0,0.3-0.1l3.4-2C22,12.2,22.1,11.9,21.9,11.7z M21.9,21.1l-6-6c0,0,0,0,0,0c0,0,0,0,0,0l-2.5-2.5c0,0,0,0,0,0c0,0,0,0,0,0L6.4,5.7c0,0,0,0,0,0c0-0.1-0.1-0.1-0.2-0.1L2.9,2.1C2.7,2,2.4,2,2.2,2.1C2,2.3,2,2.7,2.1,2.9l3,3L2.3,7.5c-0.1,0-0.1,0.1-0.2,0.2C1.9,8,2,8.3,2.2,8.4l9.5,5.5c0.1,0,0.2,0.1,0.2,0.1c0.1,0,0.2,0,0.2-0.1l0.6-0.3l1.8,1.8L12,16.9l-9.2-5.4c-0.2-0.1-0.5-0.1-0.7,0.2S2,12.2,2.2,12.3l9.5,5.5c0.1,0,0.2,0.1,0.3,0.1c0.1,0,0.2,0,0.3-0.1l3.1-1.8l1.8,1.8l-5.2,3l-9.2-5.4c-0.2-0.1-0.5-0.1-0.7,0.2c-0.1,0.2-0.1,0.5,0.2,0.7l9.5,5.5c0.1,0,0.2,0.1,0.3,0.1c0.1,0,0.2,0,0.3-0.1l5.6-3.3l3.3,3.3c0.1,0.1,0.2,0.1,0.4,0.1c0.1,0,0.3-0.1,0.4-0.1C22,21.7,22,21.3,21.9,21.1z M12,12.9L3.5,8l2.4-1.4l6.2,6.2L12,12.9z M21.2,15.5L20.4,16c-0.2,0.1-0.2,0.3-0.2,0.4c0,0.3,0.2,0.5,0.5,0.5c0.1,0,0.2,0,0.3-0.1l0.8-0.5c0.2-0.1,0.3-0.4,0.2-0.7C21.8,15.4,21.5,15.3,21.2,15.5z"/></svg>