<svg xmlns="http://www.w3.org/2000/svg" enable-background="new 0 0 24 24" viewBox="0 0 24 24"><path fill="#6563ff" d="M21.2,14.6l-1.4,0.8c-0.2,0.1-0.2,0.3-0.2,0.4c0,0.3,0.2,0.5,0.5,0.5c0.1,0,0.2,0,0.2-0.1l1.4-0.8c0.2-0.1,0.3-0.4,0.2-0.7S21.5,14.4,21.2,14.6z M10.2,6.1l1.8-1l8.5,4.9l-3.8,2.2c-0.2,0.1-0.2,0.3-0.2,0.4c0,0.3,0.2,0.5,0.5,0.5c0.1,0,0.2,0,0.2-0.1l4.6-2.7c0.1,0,0.1-0.1,0.2-0.2c0.1-0.2,0.1-0.5-0.2-0.7l-9.5-5.5c-0.2-0.1-0.3-0.1-0.5,0l-2,1.2C9.5,5.4,9.4,5.7,9.5,5.9C9.7,6.2,10,6.3,10.2,6.1z M21.9,21.1l-7.2-7.2c0,0,0,0,0,0c0,0,0,0,0,0L7.6,6.9c0,0,0,0-0.1-0.1L2.9,2.1C2.7,2,2.4,2,2.2,2.1C2,2.3,2,2.7,2.1,2.9l4.3,4.3L2.2,9.5c-0.1,0-0.1,0.1-0.2,0.2C1.9,10,2,10.3,2.2,10.4l9.5,5.5c0.1,0,0.2,0.1,0.3,0.1c0.1,0,0.2,0,0.2-0.1l1.9-1.1l2.4,2.4L12,19.9l-9.2-5.4c-0.2-0.1-0.5-0.1-0.7,0.2C1.9,15,2,15.3,2.2,15.4l9.5,5.5c0.1,0,0.2,0.1,0.3,0.1c0.1,0,0.2,0,0.3-0.1l5-2.9l3.8,3.8c0.1,0.1,0.2,0.1,0.4,0.1c0.1,0,0.3-0.1,0.4-0.1C22,21.7,22,21.3,21.9,21.1z M12,14.9L3.5,10l3.7-2.1l6.2,6.2L12,14.9z"/></svg>