<svg xmlns="http://www.w3.org/2000/svg" enable-background="new 0 0 24 24" viewBox="0 0 24 24"><path fill="#6563ff" d="M8.5,10H9v4.5C9,14.776123,9.223877,15,9.5,15s0.5-0.223877,0.5-0.5V3h3v11.5c0,0.276123,0.223877,0.5,0.5,0.5s0.5-0.223877,0.5-0.5V3h2c0.276123,0,0.5-0.223877,0.5-0.5S16.276123,2,16,2H8.5c-2.2091675,0-4,1.7908325-4,4S6.2908325,10,8.5,10z M8.5,3H9v6H8.5c-1.6568604,0-3-1.3431396-3-3S6.8431396,3,8.5,3z M21.3536377,17.6466064c-0.000061-0.000061-0.0001221-0.000061-0.0001221-0.0001221l-3.5-3.5c-0.1986084-0.1918335-0.5151367-0.1863403-0.7069702,0.0122681c-0.1871948,0.1937866-0.1871948,0.5009766,0,0.6947021L19.7930298,17.5H3c-0.276123,0-0.5,0.223877-0.5,0.5s0.223877,0.5,0.5,0.5h16.7930298l-2.6465454,2.6464844c-0.1986084,0.1918335-0.2041016,0.5083618-0.012207,0.7069702c0.1918335,0.1986694,0.5083618,0.2041016,0.7069702,0.0122681c0.0041504-0.0040283,0.0082397-0.0081177,0.0122681-0.0122681l3.5-3.5C21.5487671,18.1583252,21.5487671,17.8417969,21.3536377,17.6466064z"/></svg>