<svg xmlns="http://www.w3.org/2000/svg" enable-background="new 0 0 24 24" viewBox="0 0 24 24"><path fill="#6563ff" d="M2.5,3C2.223877,3,2,3.223877,2,3.5v17c0,0.0001831,0,0.0003662,0,0.0005493C2.0001831,20.7765503,2.223999,21.0001831,2.5,21c0.0001831,0,0.0003662,0,0.0006104,0C2.7765503,20.9998169,3.0001831,20.776001,3,20.5v-17C3,3.223877,2.776123,3,2.5,3z M21.5,11.5H7.7069702l3.6464844-3.6464844c0.1871338-0.1937866,0.1871338-0.5009155,0-0.6947021c-0.1918335-0.1986084-0.5083618-0.2041016-0.7069702-0.0122681l-4.5,4.5c-0.000061,0-0.0001221,0.000061-0.0001221,0.0001221c-0.1951904,0.1951904-0.1951294,0.5117188,0.0001221,0.7068481l4.5,4.5C10.7401123,16.9474487,10.8673706,17.0001831,11,17c0.1325684,0,0.2597046-0.0526733,0.3533936-0.1464233c0.1953125-0.1952515,0.1953125-0.5118408,0.0001221-0.7070923L7.7069702,12.5H21.5c0.276123,0,0.5-0.223877,0.5-0.5S21.776123,11.5,21.5,11.5z"/></svg>