<svg xmlns="http://www.w3.org/2000/svg" enable-background="new 0 0 24 24" viewBox="0 0 24 24"><path fill="#6563ff" d="M17.5,11.5H3.7069702l3.6464844-3.6464844c0.1871948-0.1937866,0.1871948-0.5009766,0-0.6947021C7.1616211,6.9602051,6.8450928,6.9546509,6.6464844,7.1465454l-4.5,4.5c-0.000061,0-0.0001221,0.000061-0.0001221,0.0001221c-0.1951904,0.1951904-0.1951294,0.5117188,0.0001221,0.7068481l4.5,4.5C6.7401123,16.9474487,6.8673706,17.0001831,7,17c0.1325684,0,0.2597046-0.0526733,0.3533936-0.1464233c0.1953125-0.1952515,0.1953125-0.5118408,0.0001221-0.7070923L3.7069702,12.5H17.5c0.276123,0,0.5-0.223877,0.5-0.5S17.776123,11.5,17.5,11.5z M21.5,4C21.223877,4,21,4.223877,21,4.5v15.0005493C21.0001831,19.7765503,21.223999,20.0001831,21.5,20h0.0006104C21.7765503,19.9998169,22.0001831,19.776001,22,19.5v-15C22,4.223877,21.776123,4,21.5,4z"/></svg>