<svg xmlns="http://www.w3.org/2000/svg" enable-background="new 0 0 24 24" viewBox="0 0 24 24"><path fill="#6563ff" d="M21.4082642,8.6379395c-0.0045776-0.0196533-0.00177-0.0393677-0.0088501-0.0588379c-0.0072021-0.0197754-0.0222778-0.0333862-0.0316162-0.0516968c-1.0109863-2.7250977-3.170105-4.8842163-5.8952026-5.8952026c-0.0183105-0.0093384-0.0319214-0.0244141-0.0516968-0.0316162c-0.0194702-0.0070801-0.0391846-0.0042725-0.0588379-0.0088501C14.3099365,2.2155762,13.1814575,2,12,2S9.6900635,2.2155762,8.6379395,2.5917358c-0.0196533,0.0045776-0.0393677,0.00177-0.0588379,0.0088501C8.5593262,2.6077881,8.5457153,2.6228638,8.5274048,2.6322021c-2.7250977,1.0109863-4.8842163,3.170105-5.8952026,5.8952026C2.6228638,8.5457153,2.6077881,8.5593262,2.6005859,8.5791016C2.5935059,8.5985718,2.5963135,8.6182861,2.5917358,8.6379395C2.2155762,9.6900635,2,10.8185425,2,12c0,1.1846313,0.2167358,2.315979,0.5948486,3.3705444c0.0101929,0.0401611,0.0221558,0.0778198,0.0415039,0.1134644c1.0113525,2.7160645,3.1637573,4.8684082,5.8798218,5.8796997c0.0357056,0.0193481,0.0733643,0.031311,0.1135864,0.0415649C9.6842041,21.7833252,10.8154907,22,12,22c1.1714478-0.0013428,2.2907104-0.2142944,3.335144-0.5853271c0.0284424-0.0050049,0.0577393-0.005127,0.085022-0.0150146c0.0255127-0.0092773,0.0436401-0.027832,0.0665894-0.0405884c2.7192383-1.0159912,4.8726807-3.1748047,5.8815918-5.897522c0.0076904-0.0157471,0.0249023-0.0237427,0.0310059-0.0404663c0.0090332-0.0248413,0.0064087-0.0499878,0.0113525-0.0751343C21.7841797,14.2984009,21.9985962,13.1754761,22,12C22,10.8185425,21.7844238,9.6900635,21.4082642,8.6379395z M15.5420532,3.7294312c2.1192017,0.9102173,3.8182983,2.609314,4.7285156,4.7285156l-3.7825928,1.3764648c-0.4907227-1.0142822-1.3081055-1.831665-2.3223877-2.3223877L15.5420532,3.7294312z M16,12c0,2.2091675-1.7908325,4-4,4s-4-1.7908325-4-4s1.7908325-4,4-4C14.208252,8.0021973,15.9978027,9.791748,16,12z M12,3c0.9053955,0.0009766,1.7781982,0.1387329,2.602417,0.3881226l-1.3759766,3.7813721C12.8319092,7.069397,12.4255981,7,12,7s-0.8319092,0.069397-1.2264404,0.1694946L9.3967285,3.3858032C10.2212524,3.1369629,11.0943604,3,12,3z M8.4568481,3.7265015l1.3775635,3.7855225c-1.0142822,0.4907227-1.831665,1.3081055-2.3223877,2.3223877L3.7265015,8.4568481C4.6359863,6.3360596,6.3360596,4.6359863,8.4568481,3.7265015z M3,12c0-0.9056396,0.1369629-1.7787476,0.3858032-2.6032715l3.7836914,1.3768311C7.069397,11.1680908,7,11.5744019,7,12s0.069397,0.8319092,0.1694946,1.2264404l-3.7836914,1.3768311C3.1369629,13.7787476,3,12.9056396,3,12z M8.4568481,20.2734985c-2.1207886-0.9094849-3.8208618-2.6095581-4.7303467-4.7303467l3.7855225-1.3775635c0.4907227,1.0142822,1.3081055,1.831665,2.3223877,2.3223877L8.4568481,20.2734985z M12,21c-0.9056396,0-1.7787476-0.1369629-2.6032715-0.3858032l1.3768311-3.7836914C11.1680908,16.930603,11.5744019,17,12,17c0.4254761-0.0004883,0.831665-0.0702515,1.2260132-0.1706543l1.3772583,3.7848511C13.7787476,20.8630371,12.9056396,21,12,21z M15.5431519,20.2734985L14.164917,16.486145c1.0134888-0.4910889,1.8301392-1.3077393,2.321228-2.321228l3.7873535,1.3782349C19.3640137,17.6639404,17.6639404,19.3640137,15.5431519,20.2734985z M20.6141968,14.6032715l-3.7848511-1.3772583C16.9297485,12.831665,16.9995117,12.4254761,17,12c0-0.4255981-0.069397-0.8319092-0.1694946-1.2264404l3.7813721-1.3759766C20.8612671,10.2218018,20.9990234,11.0946045,21,12C21,12.9056396,20.8630371,13.7787476,20.6141968,14.6032715z"/></svg>