<svg xmlns="http://www.w3.org/2000/svg" enable-background="new 0 0 24 24" viewBox="0 0 24 24"><path fill="#6563ff" d="M13.6101074,1.2346191C9.8450928,0.34198,6.0693359,2.6705322,5.1767578,6.4355469c-0.4715576,2.0723267,0.0081177,4.2470093,1.3076172,5.9287109c0.8115845,0.9834595,1.2698975,2.2106934,1.3017578,3.4853516v0.3394775C7.3203735,16.4436646,7.0006104,16.9318848,7,17.5v2c0.0009155,0.828064,0.671936,1.4990845,1.5,1.5h1v1.5c0,0.0001831,0,0.0003662,0,0.0005493C9.5001831,22.7765503,9.723999,23.0001831,10,23c0.0001831,0,0.0003662,0,0.0006104,0c0.2759399-0.0001831,0.4995728-0.223999,0.4993896-0.5V21h3v1.5c0,0.0001831,0,0.0003662,0,0.0005493C13.5001831,22.7765503,13.723999,23.0001831,14,23c0.0001831,0,0.0003662,0,0.0006104,0c0.2759399-0.0001831,0.4995728-0.223999,0.4993896-0.5V21h1c0.828064-0.0009155,1.4990845-0.671936,1.5-1.5v-2c-0.0006104-0.5681152-0.3203735-1.0563354-0.7861328-1.3109131v-0.5006104c0.0274658-1.1889648,0.4629517-2.3322754,1.2333984-3.2382812c0.6565552-0.8140259,1.1225586-1.7646484,1.3637695-2.7822876C19.7036743,5.9029541,17.3751221,2.1271973,13.6101074,1.2346191z M16,19.5c-0.0005493,0.2759399-0.2240601,0.4994507-0.5,0.5h-7c-0.2759399-0.0005493-0.4994507-0.2240601-0.5-0.5v-2c0.0005493-0.2759399,0.2240601-0.4994507,0.5-0.5h7c0.2759399,0.0005493,0.4994507,0.2240601,0.5,0.5V19.5z M16.6679688,11.8232422c-0.9143066,1.0831299-1.4277344,2.4480591-1.4541016,3.8652344V16H8.7861328v-0.1503906c-0.0310669-1.4976807-0.5637207-2.9415894-1.5126953-4.1005859C5.5414429,9.5427246,5.56604,6.4317627,7.3327026,4.2531738c2.0903931-2.5778809,5.8747559-2.9730225,8.4526367-0.8826294C18.3632202,5.4609985,18.7583618,9.2453613,16.6679688,11.8232422z"/></svg>