<svg xmlns="http://www.w3.org/2000/svg" enable-background="new 0 0 24 24" viewBox="0 0 24 24"><path fill="#6563ff" d="M19.840271,7.4115601c-0.8788452-4.3341064-5.1047974-7.1351318-9.4389038-6.2562866C9.171936,1.4042969,8.0183716,1.939209,7.0340576,2.7167969C3.5707397,5.4526367,2.980957,10.4780273,5.7167969,13.9413452C6.5205078,14.9071045,6.9729004,16.1168823,7,17.3729858V20.5c0.0012817,1.380188,1.119812,2.4987183,2.5,2.5h5c1.380188-0.0012817,2.4987183-1.119812,2.5-2.5v-2.9785156c0.0307007-1.3359375,0.5043945-2.6237793,1.3466797-3.6611328C19.4229126,12.4691162,20.0046387,10.7589111,20,9C19.9998169,8.4665527,19.9462891,7.9343872,19.840271,7.4115601z M16,20.5c-0.0009155,0.828064-0.671936,1.4990845-1.5,1.5h-5c-0.828064-0.0009155-1.4990845-0.671936-1.5-1.5V18h4c0.0001831,0,0.0003662,0,0.0006104,0H16V20.5z M17.5537109,13.2509766C16.6865845,14.3256226,16.1820679,15.6329346,16.0532227,17H12.5v-3.5c0-0.276123-0.223877-0.5-0.5-0.5s-0.5,0.223877-0.5,0.5V17H7.961792c-0.1015015-1.3453369-0.5963135-2.6331177-1.4597778-3.6777344c-0.6793213-0.8595581-1.1470337-1.8667603-1.3655396-2.9403687c-0.7698364-3.7832642,1.6730347-7.4743652,5.4562988-8.2442017c0.4581299-0.0896606,0.9238281-0.1347656,1.390625-0.1347656c0.0094604-0.000061,0.0189209-0.000061,0.0284424-0.000061C15.8737183,2.0053711,19.0024414,5.1380615,19,9C19.0043945,10.5384521,18.4954224,12.0344238,17.5537109,13.2509766z"/></svg>