<svg xmlns="http://www.w3.org/2000/svg" enable-background="new 0 0 24 24" viewBox="0 0 24 24"><path fill="#6563ff" d="M10.7827148,18.1708984l-1.7680664,1.7675781c-1.3673706,1.3651123-3.5819092,1.3650513-4.9491577-0.0002441c-1.3686523-1.3666992-1.3702393-3.5842285-0.003479-4.9528809L8.656311,10.390564c1.3687744-1.3652344,3.5842896-1.3652344,4.953125,0c0.1943359,0.1904907,0.5054321,0.1904907,0.6998291,0c0.1972046-0.1932373,0.2003784-0.5097656,0.0071411-0.7069702c-1.7592163-1.7558594-4.6079712-1.7558594-6.3671875,0l-4.5942383,4.5947266c-0.8447876,0.8446655-1.3190308,1.9904785-1.3183594,3.1851196c0.0015259,2.4854126,2.0175171,4.4989624,4.5029297,4.4974976c1.1934204,0.0020752,2.338562-0.4712524,3.1821289-1.3154297l1.7680054-1.7675781c0.0023804-0.0023804,0.0047607-0.0047607,0.0071411-0.0071411c0.1932373-0.1972046,0.1900635-0.5137329-0.0071411-0.7070312C11.2924805,17.97052,10.9759521,17.9736938,10.7827148,18.1708984z M20.6816406,3.3184204c-1.7582397-1.7582397-4.6089478-1.7582397-6.3671875,0l-1.7670898,1.7675781c-0.0015869,0.0015869-0.0032349,0.0031738-0.0048218,0.0048218c-0.1939087,0.1966553-0.1916504,0.5133057,0.0050659,0.7072144s0.5133667,0.1916504,0.7072754-0.0050049l1.7665405-1.7676392c1.3863525-1.3233643,3.5684204-1.3220825,4.953125,0.0029297c0.0002441,0.0002441,0.0004272,0.0004272,0.0006104,0.0006104c1.3666382,1.3669434,1.366394,3.5830078-0.0006104,4.949646l-4.5947266,4.59375c-1.3856812,1.3232422-3.5668945,1.3232422-4.9526367,0c-0.194397-0.1904907-0.5054321-0.1904907-0.6998291,0c-0.1972046,0.1932373-0.2003784,0.5097656-0.0071411,0.7069702c0.8423462,0.8474121,1.9887695,1.3225098,3.1835938,1.3193359c1.1947021,0.0032959,2.3410034-0.4718628,3.1831055-1.3193359l4.5947266-4.593689C22.4398804,7.9273682,22.4398804,5.0766602,20.6816406,3.3184204z"/></svg>