<svg xmlns="http://www.w3.org/2000/svg" enable-background="new 0 0 24 24" viewBox="0 0 24 24"><path fill="#6563ff" d="M14.1,9.1l-5,5C9.1,14.2,9,14.4,9,14.5C9,14.8,9.2,15,9.5,15c0.1,0,0.3-0.1,0.4-0.1l5-5c0.2-0.2,0.2-0.5,0-0.7C14.7,9,14.3,9,14.1,9.1z M13.1,15.8L9,20c-1.4,1.4-3.6,1.4-5,0c-1.4-1.4-1.4-3.6,0-5l4.2-4.2l0,0c0.2-0.2,0.2-0.5,0-0.7c-0.2-0.2-0.5-0.2-0.7,0l-4.2,4.2c-0.8,0.8-1.3,2-1.3,3.2C2,20,4,22,6.5,22c1.2,0,2.3-0.5,3.2-1.3l4.2-4.2c0,0,0,0,0,0c0.2-0.2,0.2-0.5,0-0.7C13.7,15.6,13.3,15.6,13.1,15.8z M20.7,9.7c1.8-1.8,1.8-4.6,0-6.4c-1.8-1.8-4.6-1.8-6.4,0l-4.2,4.2c0,0,0,0,0,0c-0.2,0.2-0.2,0.5,0,0.7c0.2,0.2,0.5,0.2,0.7,0L15,4c1.4-1.4,3.6-1.4,5,0c1.4,1.4,1.4,3.6,0,5l-4.2,4.2c-0.1,0.1-0.1,0.2-0.1,0.4c0,0.3,0.2,0.5,0.5,0.5c0.1,0,0.3-0.1,0.4-0.1L20.7,9.7L20.7,9.7z M21.5,19H20v-1.5c0-0.3-0.2-0.5-0.5-0.5S19,17.2,19,17.5V19h-1.5c-0.3,0-0.5,0.2-0.5,0.5s0.2,0.5,0.5,0.5H19v1.5c0,0.3,0.2,0.5,0.5,0.5h0c0.3,0,0.5-0.2,0.5-0.5V20h1.5c0.3,0,0.5-0.2,0.5-0.5S21.8,19,21.5,19z"/></svg>