<svg xmlns="http://www.w3.org/2000/svg" enable-background="new 0 0 24 24" viewBox="0 0 24 24"><path fill="#6563ff" d="M21.8681641,3.722229c-0.4388428-1.3171997-1.8624268-2.0292358-3.1796875-1.5903931L3.71875,7.1220703c-0.7133789,0.237854-1.2827148,0.7826538-1.5518799,1.4848022c-0.4968262,1.2962036,0.1511841,2.7498169,1.4473877,3.2466431l5.538147,2.1210938c0.4007568,0.1549072,0.7176514,0.4714966,0.8729858,0.8720703l2.1210938,5.5390625c0.3653564,0.9763794,1.3012695,1.6209717,2.34375,1.6142578c0.0195312,0,0.0390625,0,0.0585938-0.0009766c1.0639038-0.0154419,2.0001221-0.7059326,2.3291016-1.7177734l4.9902344-14.9697266C22.0400391,4.7957153,22.0400391,4.2380981,21.8681641,3.722229z M20.9190063,4.9951172l-4.9902954,14.9697266C15.7351685,20.5774536,15.1688232,20.9955444,14.5263672,21c-0.637146,0.0079346-1.2128296-0.3788452-1.4462891-0.9717407l-2.1210938-5.539978c-0.2567139-0.664917-0.7822876-1.1905518-1.4472656-1.4472656H9.5107422l-5.5390625-2.1210938c-0.4232788-0.1620483-0.7515869-0.5053711-0.8946533-0.9354248C2.8132935,9.1915894,3.2422485,8.335022,4.0351562,8.0712891l14.9697266-4.9902954C19.1628418,3.0276489,19.3283691,3.0003052,19.4951172,3c0.1552734,0.0019531,0.3093262,0.02771,0.4567871,0.0762939C20.7488403,3.3391113,21.1818237,4.1981812,20.9190063,4.9951172z"/></svg>