<svg xmlns="http://www.w3.org/2000/svg" enable-background="new 0 0 24 24" viewBox="0 0 24 24"><path fill="#6563ff" d="M12,6c-2.4852905,0-4.5,2.0147095-4.5,4.5S9.5147095,15,12,15c2.4841309-0.0026855,4.4973145-2.0158691,4.5-4.5C16.5,8.0147095,14.4852905,6,12,6z M12,14c-1.9329834,0-3.5-1.5670166-3.5-3.5S10.0670166,7,12,7c1.9320068,0.0023193,3.4976807,1.5679932,3.5,3.5C15.5,12.4329834,13.9329834,14,12,14z M18.0107422,4.4892578c-3.3196411-3.3196411-8.7018433-3.3196411-12.0214844,0s-3.3196411,8.7018433,0,12.0214844l5.6572266,5.65625C11.7401123,22.2609253,11.8673706,22.3136597,12,22.3134766c0.1326294,0.0001831,0.2598877-0.0525513,0.3535156-0.1464844l5.6572266-5.65625C21.3303833,13.1911011,21.3303833,7.8088989,18.0107422,4.4892578z M17.3037109,15.8037109L12,21.1064453l-5.3037109-5.3027344c-2.9291382-2.9291382-2.9291382-7.6782837,0-10.6074219s7.6782837-2.9291382,10.6074219,0S20.2328491,12.8745728,17.3037109,15.8037109z"/></svg>