<svg xmlns="http://www.w3.org/2000/svg" enable-background="new 0 0 24 24" viewBox="0 0 24 24"><path fill="#6563ff" d="M21.7168579,18.234375l-7.3848267-14.8125c-0.2526855-0.508606-0.6647339-0.9206543-1.1733398-1.1734009c-1.2879639-0.6398926-2.850769-0.114563-3.4906616,1.1734009l-7.3848267,14.8125c-0.1773682,0.3560181-0.2713623,0.7477417-0.2747192,1.1454468c-0.0123291,1.4460449,1.1499023,2.6283569,2.5960083,2.640686c0.3701172-0.0007324,0.7359009-0.0799561,1.0731812-0.2323608l5.6680298-2.5361328c0.4164429-0.1855469,0.8921509-0.1855469,1.3085938,0l5.6680298,2.5360718c0.7136841,0.317688,1.5321655,0.2989502,2.2305908-0.0510864C21.8415527,21.0911865,22.3626709,19.5230103,21.7168579,18.234375z M20.855835,20.0549927c-0.3601685,0.8135986-1.3117065,1.1812134-2.1253052,0.8209839l-5.6679688-2.5361328c-0.6760254-0.3027344-1.4490356-0.3027344-2.125,0l-5.6680298,2.5361328c-0.4404297,0.1950073-0.9449463,0.1826782-1.3753662-0.0335083c-0.7950439-0.3994141-1.1158447-1.3676758-0.7164307-2.1627808l7.3847656-14.8125C10.8287354,3.3169556,11.3887939,2.9699707,12,2.9765625c0.6112061-0.0065918,1.1712646,0.3403931,1.4375,0.890625l7.3848267,14.8125C21.0385132,19.1101074,21.0507812,19.614624,20.855835,20.0549927z"/></svg>