<svg xmlns="http://www.w3.org/2000/svg" enable-background="new 0 0 24 24" viewBox="0 0 24 24"><path fill="#6563ff" d="M12,12c1.6561279-0.0018311,2.9981689-1.3438721,3-3c0-1.6568604-1.3431396-3-3-3S9,7.3431396,9,9S10.3431396,12,12,12z M12,7c1.1040039,0.0014038,1.9985962,0.8959961,2,2c0,1.1045532-0.8954468,2-2,2s-2-0.8954468-2-2S10.8954468,7,12,7z M19.5,21h-15C4.223877,21,4,21.223877,4,21.5S4.223877,22,4.5,22h15c0.276123,0,0.5-0.223877,0.5-0.5S19.776123,21,19.5,21z M11.6464844,18.5458984C11.7401123,18.6398315,11.8673706,18.6925659,12,18.6923828c0.1326294,0.0001831,0.2598877-0.0525513,0.3535156-0.1464844l4.5966797-4.5947266v-0.0009766c0.0001831-0.0001831,0.0003662-0.0003662,0.0004883-0.0005493c2.7336426-2.734436,2.7329712-7.1672363-0.0014648-9.9008789c-2.7344971-2.7336426-7.1672974-2.7329712-9.9009399,0.0014648c-2.7336426,2.7344971-2.7329712,7.1672974,0.0015259,9.9009399L11.6464844,18.5458984z M12,3.0029297c1.5934448-0.0014038,3.1219482,0.6314087,4.2480469,1.7587891c2.3404541,2.3432007,2.3382568,6.1400146-0.0048828,8.4804688L12,17.4853516l-4.2431641-4.2421875c-1.1275024-1.1261597-1.760498-2.6547852-1.7590942-4.2483521C6.0006104,5.6827393,8.6879272,3.000061,12,3.0029297z"/></svg>