<svg xmlns="http://www.w3.org/2000/svg" enable-background="new 0 0 24 24" viewBox="0 0 24 24"><path fill="#6563ff" d="M17,9V7c0-2.7614136-2.2385864-5-5-5S7,4.2385864,7,7v2c-1.6561279,0.0018311-2.9981689,1.3438721-3,3v7c0.0018311,1.6561279,1.3438721,2.9981689,3,3h10c1.6561279-0.0018311,2.9981689-1.3438721,3-3v-7C19.9981689,10.3438721,18.6561279,9.0018311,17,9z M8,7c0-2.2091675,1.7908325-4,4-4s4,1.7908325,4,4v2H8V7z M19,19c-0.0014038,1.1040039-0.8959961,1.9985962-2,2H7c-1.1040039-0.0014038-1.9985962-0.8959961-2-2v-7c0.0014038-1.1040039,0.8959961-1.9985962,2-2h0.5h9h0.0006104H17c1.1040039,0.0014038,1.9985962,0.8959961,2,2V19z"/></svg>