<svg xmlns="http://www.w3.org/2000/svg" enable-background="new 0 0 24 24" viewBox="0 0 24 24"><path fill="#6563ff" d="M12,16.5L12,16.5c0.3,0,0.5-0.2,0.5-0.5v-2c0-0.3-0.2-0.5-0.5-0.5s-0.5,0.2-0.5,0.5v2C11.5,16.3,11.7,16.5,12,16.5z M9.6,5.2C10.2,4.5,11.1,4,12,4c1.7,0,3,1.3,3,3v2h-1.2c-0.3,0-0.5,0.2-0.5,0.5s0.2,0.5,0.5,0.5H16c1.1,0,2,0.9,2,2v2.3c0,0.3,0.2,0.5,0.5,0.5h0c0.3,0,0.5-0.2,0.5-0.5V12c0-1.7-1.3-3-3-3V7c0-1.3-0.6-2.5-1.6-3.2c-1.8-1.3-4.3-0.9-5.6,0.8C8.6,4.9,8.7,5.2,8.9,5.3S9.4,5.4,9.6,5.2z M21.9,21.1l-19-19C2.7,2,2.4,2,2.2,2.1C2,2.3,2,2.7,2.1,2.9L8,8.7V9c-1.7,0-3,1.3-3,3v6c0,1.7,1.3,3,3,3h8c1.1,0,2.2-0.7,2.7-1.6l2.5,2.5c0.1,0.1,0.2,0.1,0.4,0.1c0.1,0,0.3-0.1,0.4-0.1C22,21.7,22,21.3,21.9,21.1z M16,20H8c-1.1,0-2-0.9-2-2v-6c0-1.1,0.9-2,2-2h1.3l8.6,8.6C17.6,19.4,16.9,20,16,20z"/></svg>