<svg xmlns="http://www.w3.org/2000/svg" enable-background="new 0 0 24 24" viewBox="0 0 24 24"><path fill="#6563ff" d="M2.5,9c0.0001831,0,0.0003662,0,0.0006104,0C2.7765503,8.9998169,3.0001831,8.776001,3,8.5V3h5.5C8.776123,3,9,2.776123,9,2.5S8.776123,2,8.5,2h-6C2.4998169,2,2.4996338,2,2.4993896,2C2.2234497,2.0001831,1.9998169,2.223999,2,2.5v6c0,0.0001831,0,0.0003662,0,0.0005493C2.0001831,8.7765503,2.223999,9.0001831,2.5,9z M8.5,21H3v-5.5C3,15.223877,2.776123,15,2.5,15S2,15.223877,2,15.5v6c0,0.0001831,0,0.0003662,0,0.0005493C2.0001831,21.7765503,2.223999,22.0001831,2.5,22h6C8.776123,22,9,21.776123,9,21.5S8.776123,21,8.5,21z M21.5,2h-6C15.223877,2,15,2.223877,15,2.5S15.223877,3,15.5,3H21v5.5c0,0.0001831,0,0.0003662,0,0.0005493C21.0001831,8.7765503,21.223999,9.0001831,21.5,9c0.0001831,0,0.0003662,0,0.0006104,0C21.7765503,8.9998169,22.0001831,8.776001,22,8.5v-6c0-0.0001831,0-0.0003662,0-0.0006104C21.9998169,2.2234497,21.776001,1.9998169,21.5,2z M17,16v-4c-0.0014038-1.1040039-0.8959961-1.9985962-2-2V9c0-1.6568604-1.3431396-3-3-3S9,7.3431396,9,9v1c-1.1040039,0.0014038-1.9985962,0.8959961-2,2v4c0.0014038,1.1040039,0.8959961,1.9985962,2,2h6C16.1040039,17.9985962,16.9985962,17.1040039,17,16z M10,9c0-1.1045532,0.8954468-2,2-2s2,0.8954468,2,2v1h-4V9z M8,16v-4c0.0003662-0.552124,0.447876-0.9996338,1-1h0.5h5h0.0006104H15c0.552124,0.0003662,0.9996338,0.447876,1,1v4c-0.0003662,0.552124-0.447876,0.9996338-1,1H9C8.447876,16.9996338,8.0003662,16.552124,8,16z M21.5,15c-0.276123,0-0.5,0.223877-0.5,0.5V21h-5.5c-0.276123,0-0.5,0.223877-0.5,0.5s0.223877,0.5,0.5,0.5h6c0.0001831,0,0.0003662,0,0.0006104,0C21.7765503,21.9998169,22.0001831,21.776001,22,21.5v-6C22,15.223877,21.776123,15,21.5,15z"/></svg>