<svg xmlns="http://www.w3.org/2000/svg" enable-background="new 0 0 24 24" viewBox="0 0 24 24"><path fill="#6563ff" d="M21.5,13c-0.276123,0-0.5,0.223877-0.5,0.5V16h-3V8c-0.0018311-1.6561279-1.3438721-2.9981689-3-3H5C3.3438721,5.0018311,2.0018311,6.3438721,2,8v8.5005493C2.0001831,16.7765503,2.223999,17.0001831,2.5,17H5c0,1.6568604,1.3431396,3,3,3c1.6561279-0.0018311,2.9981689-1.3438721,3-3h10.5006104C21.7765503,16.9998169,22.0001831,16.776001,22,16.5v-3C22,13.223877,21.776123,13,21.5,13z M8,19c-1.1045532,0-2-0.8954468-2-2s0.8954468-2,2-2c1.1040039,0.0014038,1.9985962,0.8959961,2,2C10,18.1045532,9.1045532,19,8,19z M17,16h-6.1837158C10.4030151,14.8374634,9.3043213,14,8,14s-2.4030151,0.8374634-2.8162842,2H3v-6h14V16z M17,9H3V8c0.0014038-1.1040039,0.8959961-1.9985962,2-2h10c1.1040039,0.0014038,1.9985962,0.8959961,2,2V9z"/></svg>