<svg xmlns="http://www.w3.org/2000/svg" enable-background="new 0 0 24 24" viewBox="0 0 24 24"><path fill="#6563ff" d="M10,10.5H8c-0.276123,0-0.5,0.223877-0.5,0.5s0.223877,0.5,0.5,0.5h2c0.276123,0,0.5-0.223877,0.5-0.5S10.276123,10.5,10,10.5z M17.5,6H11V3h1.5C12.776123,3,13,2.776123,13,2.5S12.776123,2,12.5,2h-2.0005493C10.2234497,2.0001831,9.9998169,2.223999,10,2.5V6H6.5C4.5679932,6.0023193,3.0023193,7.5679932,3,9.5v7.0005493C3.0001831,16.7765503,3.223999,17.0001831,3.5,17H10v4.5005493C10.0001831,21.7765503,10.223999,22.0001831,10.5,22h0.0006104C10.7765503,21.9998169,11.0001831,21.776001,11,21.5V17h9.5006104C20.7765503,16.9998169,21.0001831,16.776001,21,16.5v-7C21,7.5670166,19.4329834,6,17.5,6z M14,16H4V9.5C4.0012817,8.119812,5.119812,7.0012817,6.5,7h8.555603C14.4057617,7.635437,14,8.5192871,14,9.5V16z M20,16h-5V9.5C15,8.1192627,16.1192627,7,17.5,7c1.380188,0.0012817,2.4987183,1.119812,2.5,2.5V16z"/></svg>