<svg xmlns="http://www.w3.org/2000/svg" enable-background="new 0 0 24 24" viewBox="0 0 24 24"><path fill="#6563ff" d="M10.5,13h3c0.276123,0,0.5-0.223877,0.5-0.5S13.776123,12,13.5,12h-3c-0.276123,0-0.5,0.223877-0.5,0.5S10.223877,13,10.5,13z M19.5,21H18V9h1.5C19.776123,9,20,8.776123,20,8.5S19.776123,8,19.5,8H18c0-3.3137207-2.6862793-6-6-6S6,4.6862793,6,8H4.5C4.223877,8,4,8.223877,4,8.5S4.223877,9,4.5,9H6v12H4.5C4.223877,21,4,21.223877,4,21.5S4.223877,22,4.5,22h15c0.276123,0,0.5-0.223877,0.5-0.5S19.776123,21,19.5,21z M17,21H7v-3h10V21z M17,17H7V9h10V17z M7,8c0-2.7614136,2.2385864-5,5-5s5,2.2385864,5,5H7z"/></svg>