<svg xmlns="http://www.w3.org/2000/svg" enable-background="new 0 0 24 24" viewBox="0 0 24 24"><path fill="#6563ff" d="M12,9.953125c-0.276123,0-0.5,0.223877-0.5,0.5v3c0,0.0001831,0,0.0003662,0,0.0005493c0.0001831,0.276001,0.223999,0.4996338,0.5,0.4994507c0.0001831,0,0.0003662,0,0.0006104,0c0.2759399-0.0001831,0.4995728-0.223999,0.4993896-0.5v-3C12.5,10.177002,12.276123,9.953125,12,9.953125z M12,7.875c-0.3451538,0-0.625,0.2798462-0.625,0.625S11.6548462,9.125,12,9.125s0.625-0.2798462,0.625-0.625S12.3451538,7.875,12,7.875z M18.0107422,4.4892578c-3.3196411-3.3196411-8.7018433-3.3196411-12.0214844,0s-3.3196411,8.7018433,0,12.0214844l5.6572266,5.65625C11.7401123,22.2609253,11.8673706,22.3136597,12,22.3134766c0.1326294,0.0001831,0.2598877-0.0525513,0.3535156-0.1464844l5.6572266-5.65625C21.3303833,13.1911011,21.3303833,7.8088989,18.0107422,4.4892578z M17.3037109,15.8037109L12,21.1064453l-5.3037109-5.3027344c-2.9291382-2.9291382-2.9291382-7.6782837,0-10.6074219s7.6782837-2.9291382,10.6074219,0S20.2328491,12.8745728,17.3037109,15.8037109z"/></svg>