<svg xmlns="http://www.w3.org/2000/svg" enable-background="new 0 0 24 24" viewBox="0 0 24 24"><path fill="#6563ff" d="M8.8,4.8c2-1,4.4-1,6.3,0c3.4,1.8,4.8,6,3,9.4c0,0.1-0.1,0.2-0.1,0.2c0,0.3,0.2,0.5,0.5,0.5c0.2,0,0.4-0.1,0.4-0.3c1.2-2.3,1.2-5,0-7.3c-2-3.9-6.8-5.5-10.7-3.5c0,0,0,0,0,0C8.1,4,8,4.3,8.2,4.5S8.6,4.9,8.8,4.8z M21.9,21.1l-4.7-4.7c0,0,0-0.1-0.1-0.1c0,0-0.1,0-0.1,0l-2.5-2.5c0,0,0,0,0,0c0-0.1-0.1-0.1-0.2-0.1l-5-5c0-0.1-0.1-0.1-0.1-0.2c0,0,0,0,0,0L6.7,6c0-0.1-0.1-0.1-0.1-0.2c0,0-0.1,0-0.1-0.1L2.9,2.1C2.7,2,2.4,2,2.2,2.1C2,2.3,2,2.7,2.1,2.9l3.4,3.4c-2.3,3.1-2,7.5,0.8,10.3l5.3,5.3c0.1,0.1,0.2,0.1,0.4,0.1c0.1,0,0.3-0.1,0.4-0.1l4.4-4.4l4.4,4.4c0.1,0.1,0.2,0.1,0.4,0.1c0.1,0,0.3-0.1,0.4-0.1C22,21.7,22,21.3,21.9,21.1z M9,9.7l4.2,4.2c-1,0.4-2.1,0.3-3-0.3C8.9,12.8,8.4,11.1,9,9.7z M12,20.8l-4.9-4.9C4.7,13.5,4.4,9.7,6.3,7l2,2C8,9.6,7.8,10.3,7.8,11c0,2.3,1.9,4.2,4.2,4.2c0.7,0,1.4-0.2,2-0.5l2.1,2.1L12,20.8z M15.7,12C15.7,12,15.7,12,15.7,12c0.3,0,0.5-0.2,0.5-0.5c0-0.3,0-0.7,0-1c-0.3-2.3-2.4-4-4.7-3.7l0,0C11.2,6.8,11,7,11,7.3c0,0.3,0.3,0.5,0.6,0.4c1-0.1,2,0.2,2.7,0.9c0.7,0.7,1.1,1.7,0.9,2.8C15.2,11.7,15.4,11.9,15.7,12z"/></svg>