<svg xmlns="http://www.w3.org/2000/svg" enable-background="new 0 0 24 24" viewBox="0 0 24 24"><path fill="#6563ff" d="M18.0107422,4.4892578c-3.3196411-3.3196411-8.7018433-3.3196411-12.0214844,0s-3.3196411,8.7018433,0,12.0214844l5.6572266,5.65625C11.7401123,22.2609253,11.8673706,22.3136597,12,22.3134766c0.1326294,0.0001831,0.2598877-0.0525513,0.3535156-0.1464844l5.6572266-5.65625C21.3303833,13.1911011,21.3303833,7.8088989,18.0107422,4.4892578z M17.3037109,15.8037109L12,21.1064453l-5.3037109-5.3027344c-2.9291382-2.9291382-2.9291382-7.6782837,0-10.6074219s7.6782837-2.9291382,10.6074219,0S20.2328491,12.8745728,17.3037109,15.8037109z M12.0014038,13.3184204c-0.3451538,0-0.625,0.2797852-0.625,0.625c0,0.3451538,0.2798462,0.625,0.625,0.625c0.3452148,0,0.625-0.2798462,0.625-0.625C12.6264038,13.5982056,12.3466187,13.3184204,12.0014038,13.3184204z M12.6307983,6.5215454c-1.359375-0.3378906-2.6953125,0.453125-3.0424805,1.796875C9.5189819,8.585022,9.6796265,8.8584595,9.9467163,8.9277954c0.2651367,0.0664062,0.5400391-0.0917969,0.609375-0.359375c0.1831055-0.7070312,0.9199219-1.2998047,1.8349609-1.0761719c0.5283203,0.1298828,0.9599609,0.578125,1.0742188,1.1162109c0.1855469,0.8710938-0.3535156,1.5429688-0.9814453,1.7558594c-0.5878906,0.2001953-0.9824219,0.7832031-0.9824219,1.4511719v0.1279297c0,0.2763672,0.2236328,0.5,0.5,0.5s0.5-0.2236328,0.5-0.5v-0.1279297c0-0.2324219,0.1279297-0.4443359,0.3037109-0.5039062c1.2011719-0.4082031,1.9052734-1.6601562,1.6386719-2.9121094C14.2514038,7.4961548,13.5219116,6.741272,12.6307983,6.5215454z"/></svg>