<svg xmlns="http://www.w3.org/2000/svg" enable-background="new 0 0 24 24" viewBox="0 0 24 24"><path fill="#6563ff" d="M14,9.953125h-1.5v-1.5c0-0.276123-0.223877-0.5-0.5-0.5s-0.5,0.223877-0.5,0.5v1.5H10c-0.276123,0-0.5,0.223877-0.5,0.5s0.223877,0.5,0.5,0.5h1.5v1.5005493c0.0001831,0.276001,0.223999,0.4996338,0.5,0.4994507h0.0006104c0.2759399-0.0001831,0.4995728-0.223999,0.4993896-0.5v-1.5H14c0.276123,0,0.5-0.223877,0.5-0.5S14.276123,9.953125,14,9.953125z M18.0109863,4.4911499C14.6919556,1.1710815,9.3098755,1.1702271,5.9897461,4.4892578c-3.3134766,3.3222046-3.3134766,8.6992798,0,12.0214844l5.6567383,5.65625C11.7401123,22.2609253,11.8673706,22.3136597,12,22.3134766c0.1326294,0.0001831,0.2598877-0.0525513,0.3535156-0.1464844l5.6572266-5.65625C21.3292847,13.1914062,21.3294067,7.8106079,18.0109863,4.4911499z M17.3037109,15.8037109L12,21.1064453l-5.3032227-5.3027344c-2.9238281-2.9313354-2.9238281-7.6760864,0-10.6074219l0.012146-0.012146c2.9324951-2.9256592,7.6815186-2.920105,10.6071777,0.0123901S20.2362061,12.8780518,17.3037109,15.8037109z"/></svg>