<svg xmlns="http://www.w3.org/2000/svg" enable-background="new 0 0 24 24" viewBox="0 0 24 24"><path fill="#6563ff" d="M18.0107422,4.4892578c-3.3196411-3.3196411-8.7018433-3.3196411-12.0214844,0s-3.3196411,8.7018433,0,12.0214844l5.6572266,5.65625C11.7401123,22.2609253,11.8673706,22.3136597,12,22.3134766c0.1326294,0.0001831,0.2598877-0.0525513,0.3535156-0.1464844l5.6572266-5.65625C21.3303833,13.1911011,21.3303833,7.8088989,18.0107422,4.4892578z M17.3037109,15.8037109L12,21.1064453l-5.3037109-5.3027344c-2.9291382-2.9291382-2.9291382-7.6782837,0-10.6074219s7.6782837-2.9291382,10.6074219,0S20.2328491,12.8745728,17.3037109,15.8037109z M14.5185547,7.0195312c-0.7749023,0.1657715-1.5836792-0.0057373-2.2246094-0.4716797c-0.175415-0.1269531-0.4124756-0.1269531-0.5878906,0c-0.6410522,0.4656982-1.449707,0.637146-2.2246094,0.4716797C9.446228,7.0117798,9.4102173,7.0079346,9.3741455,7.0079346C9.0982666,7.0081177,8.8748169,7.2319336,8.875,7.5078125v2.9003906c-0.0038452,1.152832,0.5365601,2.2398071,1.4580078,2.9326172l1.3691406,1.0136719C11.7883301,14.418335,11.8927002,14.4528809,12,14.453125c0.1072998-0.0002441,0.2116699-0.03479,0.2978516-0.0986328l1.3691406-1.0136719c0.9214478-0.6928101,1.461853-1.7797852,1.4580078-2.9326172V7.5078125c0-0.0360718-0.0038452-0.0720825-0.0115967-0.1072998C15.0543213,7.1310425,14.7880249,6.9604492,14.5185547,7.0195312z M14.125,10.4082031c0.0042114,0.8363647-0.3862915,1.6257324-1.0537109,2.1298218L12,13.3310547l-1.0712891-0.7929688C10.2612915,12.0339966,9.8707275,11.2445679,9.875,10.4082031V8.078125C10.6196289,8.1137085,11.3583984,7.9303589,12,7.5507812c0.6416626,0.3794556,1.3803711,0.5628052,2.125,0.5273438V10.4082031z"/></svg>