<svg xmlns="http://www.w3.org/2000/svg" enable-background="new 0 0 24 24" viewBox="0 0 24 24"><path fill="#6563ff" d="M14.6025391,12.2705078c-0.2702026-0.0566406-0.5351562,0.1165161-0.5917969,0.3867188s0.1165161,0.5351562,0.3867188,0.5917969C17.1503906,13.8261719,19,15.3339844,19,17c0,2.1679688-3.2059937,4-7,4s-7-1.8320312-7-4c0-1.6660156,1.8496094-3.1738281,4.6025391-3.7509766c0.2702026-0.0566406,0.4433594-0.3215942,0.3867188-0.5917969s-0.3215942-0.4433594-0.5917969-0.3867188C6.1689453,12.9472656,4,14.8486328,4,17c0,2.8037109,3.5136719,5,8,5s8-2.1962891,8-5C20,14.8486328,17.8310547,12.9472656,14.6025391,12.2705078z M11.5,9.949585v7.5509644C11.5001831,17.7765503,11.723999,18.0001831,12,18h0.0006104c0.2759399-0.0001831,0.4995728-0.223999,0.4993896-0.5V9.9491577C14.4694824,9.6990356,15.9979858,8.0369873,16,6c0-2.2091675-1.7908325-4-4-4S8,3.7908325,8,6C8,8.0379028,9.529541,9.7009888,11.5,9.949585z M12,3c1.6561279,0.0018311,2.9981689,1.3438721,3,3c0,1.6568604-1.3431396,3-3,3S9,7.6568604,9,6S10.3431396,3,12,3z"/></svg>