<svg xmlns="http://www.w3.org/2000/svg" enable-background="new 0 0 24 24" viewBox="0 0 24 24"><path fill="#6563ff" d="M11.5,11.949585v5.552002c0.0001831,0.2759399,0.223999,0.4995728,0.5,0.4993896h0.0005493c0.276001-0.0001221,0.4996338-0.223999,0.4994507-0.5v-5.5518799C15.0216675,11.6921997,16.9969482,9.5888062,17,7c0-2.7614136-2.2385864-5-5-5S7,4.2385864,7,7C7,9.5901489,8.9768677,11.6953125,11.5,11.949585z M12,3c2.208252,0.0021973,3.9978027,1.791748,4,4c0,2.2091675-1.7908325,4-4,4S8,9.2091675,8,7S9.7908325,3,12,3z M14.5625,14.1640625c-0.2739868-0.0345459-0.5240479,0.1596069-0.5585938,0.4335938S14.1635132,15.1217041,14.4375,15.15625C17.6601562,15.5634766,20,16.7587891,20,18c0,1.4189453-3.2851562,3-8,3s-8-1.5810547-8-3c0-1.2412109,2.3398438-2.4365234,5.5625-2.84375c0.2739868-0.0345459,0.4681396-0.2846069,0.4335938-0.5585938S9.7114868,14.1295166,9.4375,14.1640625C5.5263672,14.6582031,3,16.1630859,3,18c0,2.2431641,3.953125,4,9,4s9-1.7568359,9-4C21,16.1630859,18.4736328,14.6582031,14.5625,14.1640625z"/></svg>