<svg xmlns="http://www.w3.org/2000/svg" enable-background="new 0 0 24 24" viewBox="0 0 24 24"><path fill="#6563ff" d="M14,9.953125h-4c-0.276123,0-0.5,0.223877-0.5,0.5s0.223877,0.5,0.5,0.5h4c0.276123,0,0.5-0.223877,0.5-0.5S14.276123,9.953125,14,9.953125z M18.0107422,4.4929199C14.6921387,1.1723022,9.3099365,1.1706543,5.9892578,4.4892578c-3.3134766,3.3222046-3.3134766,8.6992798,0,12.0214844l5.6572266,5.65625C11.7401123,22.2609253,11.8673706,22.3136597,12,22.3134766c0.1326294,0.0001831,0.2598877-0.0525513,0.3535156-0.1464844l5.6572266-5.65625C21.3279419,13.1915283,21.3279419,7.8121338,18.0107422,4.4929199z M17.3037109,15.8037109L12,21.1064453l-5.3037109-5.3027344c-2.9238281-2.9313354-2.9238281-7.6760864,0-10.6074219c2.9284668-2.9251099,7.6729126-2.9251099,10.6013794,0C20.2285156,8.1237793,20.2312012,12.8728638,17.3037109,15.8037109z"/></svg>