<svg xmlns="http://www.w3.org/2000/svg" enable-background="new 0 0 24 24" viewBox="0 0 24 24"><path fill="#6563ff" d="M18.0107422,4.4929199C14.6921387,1.1723022,9.3099365,1.1706543,5.9892578,4.4892578c-3.3134766,3.3222046-3.3134766,8.6992798,0,12.0214844l5.6572266,5.65625C11.7401123,22.2609253,11.8673706,22.3136597,12,22.3134766c0.1326294,0.0001831,0.2598877-0.0525513,0.3535156-0.1464844l5.6572266-5.65625C21.3279419,13.1915283,21.3279419,7.8121338,18.0107422,4.4929199z M17.3037109,15.8037109L12,21.1064453l-5.3037109-5.3027344c-2.9238281-2.9313354-2.9238281-7.6760864,0-10.6074219c2.9284668-2.9251099,7.6729126-2.9251099,10.6013794,0C20.2285156,8.1237793,20.2312012,12.8728638,17.3037109,15.8037109z M11.9986572,6c-2.4852905,0.0003662-4.4996948,2.0153809-4.4993286,4.5006714S9.5147095,15.0003662,12,15c1.1930542-0.0001831,2.3372192-0.4741211,3.1809692-1.317688c1.7575684-1.7571411,1.7578125-4.6063843,0.0006714-6.3639526C14.3375244,6.4740601,13.1925049,5.9998169,11.9986572,6z M14.4746094,12.9746094c-1.3847656,1.3222656-3.5644531,1.3222656-4.9492188,0C8.8687744,12.3181763,8.4998779,11.4277344,8.5,10.4992676C8.5001831,8.5664673,10.0671997,6.9998169,12,7c0.9287109-0.0023804,1.8197632,0.3668213,2.4746094,1.0253906l0.0012817,0.0012817C15.8418579,9.3933716,15.8413086,11.6086426,14.4746094,12.9746094z"/></svg>