<svg xmlns="http://www.w3.org/2000/svg" enable-background="new 0 0 24 24" viewBox="0 0 24 24"><path fill="#6563ff" d="M18.0107422,4.4929199C14.6921387,1.1723022,9.3099365,1.1706543,5.9892578,4.4892578c-3.3134766,3.3222046-3.3134766,8.6992798,0,12.0214844l5.6572266,5.65625C11.7401123,22.2609253,11.8673706,22.3136597,12,22.3134766c0.1326294,0.0001831,0.2598877-0.0525513,0.3535156-0.1464844l5.6572266-5.65625C21.3279419,13.1915283,21.3279419,7.8121338,18.0107422,4.4929199z M17.3037109,15.8037109L12,21.1064453l-5.3037109-5.3027344c-2.9238281-2.9313354-2.9238281-7.6760864,0-10.6074219c2.9284668-2.9251099,7.6729126-2.9251099,10.6013794,0C20.2285156,8.1237793,20.2312012,12.8728638,17.3037109,15.8037109z M13.4335327,6.5996094c0-0.000061-0.000061-0.0001221-0.0001221-0.0001221c-0.1952515-0.1951904-0.5117188-0.1951294-0.7068481,0.0001221l-3.5800781,3.5800781C9.0526733,10.2734375,9,10.4005737,9,10.5332031v2.4204712c0.0001831,0.276001,0.223999,0.4996338,0.5,0.4994507h2.4199219c0.1326294,0,0.2597656-0.0527344,0.3535156-0.1465454l3.5800781-3.5800781c0,0,0.000061-0.000061,0.0001221-0.0001221c0.1951294-0.1952515,0.1950684-0.5117188-0.0001221-0.7068481L13.4335327,6.5996094z M11.7128906,12.453125H10v-1.7128906l3.0800781-3.0800781l1.7129517,1.7128296L11.7128906,12.453125z"/></svg>