<svg xmlns="http://www.w3.org/2000/svg" enable-background="new 0 0 24 24" viewBox="0 0 24 24"><path fill="#6563ff" d="M21.6582031,5.1953125l-6.5-2.1699219c-0.026123-0.008667-0.053894-0.0089111-0.0809937-0.0131226c-0.0182495-0.0029907-0.0352783-0.0077515-0.053894-0.008728c-0.0072021-0.0003052-0.0140381-0.003479-0.0212402-0.003479C14.9752197,3,14.9520874,3.0111694,14.9263916,3.0151978c-0.0283203,0.0041504-0.0564575,0.0009155-0.0845947,0.0101929L8.9992676,4.9729004l-6.342041-2.107666C2.6064453,2.8483887,2.5532227,2.8397827,2.4996948,2.8397827C2.2236328,2.8399048,1.9998779,3.0637817,2,3.3398438v14.9902344c0.0001831,0.21521,0.1377563,0.40625,0.3417969,0.4746094l6.5,2.1699219C8.8928833,20.9912109,8.9462891,20.9997559,9,21c0.0537109-0.0002441,0.1071167-0.0087891,0.1582031-0.0253906l5.8416748-1.9472046l6.3419189,2.1171265c0.0510864,0.0166016,0.1044922,0.0251465,0.1582031,0.0253906c0.2758789-0.0006714,0.4993286-0.2241211,0.5-0.5v-15C21.9998169,5.4547119,21.8622437,5.2636719,21.6582031,5.1953125z M8.5,19.8056641L3,17.9697266V4.0332031l5.5,1.8271484V19.8056641z M14.5,18.1396484l-5,1.6669922V5.8603516l5-1.6669922V18.1396484z M21,19.9755859l-5.5-1.8359375V4.1943359L21,6.0302734V19.9755859z"/></svg>