<svg xmlns="http://www.w3.org/2000/svg" enable-background="new 0 0 24 24" viewBox="0 0 24 24"><path fill="#6563ff" d="M20,3.5h-5c-0.276123,0-0.5,0.223877-0.5,0.5s0.223877,0.5,0.5,0.5h3.7929688l-3.7131958,3.7131958c-1.2258911-1.0617676-2.8206177-1.7089844-4.5697021-1.7102661C6.645752,6.5001221,3.5107422,9.6305542,3.5079956,13.4949341C3.505188,17.359314,6.6356201,20.4942627,10.5,20.4970703c1.8566284,0.0031128,3.6379395-0.7334595,4.9501953-2.046875c1.3125-1.3111572,2.0505981-3.0899048,2.0519409-4.9451294c0.0012207-1.755249-0.6486206-3.355835-1.715332-4.5849609L19.5,5.2069092v3.7936401C19.5001831,9.2765503,19.723999,9.5001831,20,9.5h0.0006104C20.2765503,9.4998169,20.5001831,9.276001,20.5,9V3.9993896C20.4998169,3.7234497,20.276001,3.4998169,20,3.5z M16.5022583,13.494812c0.0028687,3.3120728-2.6798096,5.9993896-5.9918823,6.0022583s-5.9993896-2.6798096-6.0022583-5.9918823S7.1879272,7.5057983,10.5,7.5029297c1.5914307-0.0032349,3.1184692,0.6279907,4.2431641,1.7539062C15.8681641,10.3804321,16.5008545,11.9048462,16.5022583,13.494812z"/></svg>