<svg xmlns="http://www.w3.org/2000/svg" enable-background="new 0 0 24 24" viewBox="0 0 24 24"><path fill="#6563ff" d="M20.6602173,5.5819702l-5.2001953-3c-0.0004272-0.0002441-0.0009155-0.0004883-0.0013428-0.0007324c-0.2387695-0.1375122-0.5438232-0.0553589-0.6812744,0.1834106l-2.7752075,4.807312l-2.779541-4.807312c-0.0008545-0.0015869-0.00177-0.0031128-0.0026855-0.0046387C9.0813599,2.5230713,8.7769775,2.4434204,8.5400391,2.5819702l-5.2001953,3C3.338623,5.5827026,3.3374023,5.5834351,3.3361206,5.5841064c-0.2373047,0.1385498-0.3173828,0.4432373-0.178894,0.680542l4.072937,7.0562744c-0.4384766,0.7896118-0.6900024,1.6972656-0.6901855,2.6644287c0.0037842,3.0360107,2.4640503,5.4962158,5.5,5.5c1.0649414-0.0003662,2.1068726-0.3097534,2.9993896-0.890625c2.4539795-1.5971069,3.1898193-4.8128052,1.7588501-7.3239136l4.0446167-7.0061646c0.0006714-0.0012207,0.0014038-0.0024414,0.0020752-0.0036621C20.9813843,6.0224609,20.8986816,5.7185059,20.6602173,5.5819702z M4.2724609,6.1982422l4.3340454-2.5009766l3.9448242,6.8202515c-0.1688843-0.0157471-0.3377686-0.0320435-0.5092773-0.0321045c-1.6744385-0.0003662-3.1714478,0.750061-4.1806641,1.9300537L4.2724609,6.1982422z M12.039978,20.4853516c-2.4852295,0-4.5-2.0147095-4.5-4.5s2.0147705-4.5,4.5-4.5c1.5219727-0.0043335,2.9420166,0.7643433,3.7705078,2.0410156c0.4752808,0.7321167,0.7286377,1.5861206,0.7294922,2.4589844C16.539978,18.4706421,14.5252686,20.4853516,12.039978,20.4853516z M16.1704102,12.3595581c-0.6272583-0.7141724-1.4252319-1.244873-2.3115234-1.5559082c-0.0076294-0.0169678-0.0083618-0.0353394-0.0180664-0.0517578l-1.2612305-2.1812744l2.8139648-4.8733521l4.3339844,2.5009766L16.1704102,12.3595581z"/></svg>