<svg xmlns="http://www.w3.org/2000/svg" enable-background="new 0 0 24 24" viewBox="0 0 24 24"><path fill="#6563ff" d="M16.5,10h-2.4990234V7.5c0-0.0001831,0-0.0003662,0-0.0005493c-0.0001221-0.276001-0.223999-0.4996338-0.5-0.4994507h-3c-0.0001831,0-0.0003662,0-0.0005493,0c-0.276001,0.0001831-0.4995728,0.223999-0.4994507,0.5V10H7.5c-0.0001831,0-0.0003662,0-0.0006104,0C7.2234497,10.0001831,6.9998169,10.223999,7,10.5v3c0,0.0001831,0,0.0003662,0,0.0005493C7.0001831,13.7765503,7.223999,14.0001831,7.5,14h2.5009766v2.5c0,0.0001831,0,0.0003662,0,0.0005493c0.0001831,0.276001,0.2240601,0.4996338,0.5,0.4994507h3c0.0001831,0,0.0004272,0,0.0006104,0c0.2759399-0.0001831,0.4995728-0.223999,0.4993896-0.5V14H16.5c0.0001831,0,0.0003662,0,0.0006104,0C16.7765503,13.9998169,17.0001831,13.776001,17,13.5v-3c0-0.0001831,0-0.0003662,0-0.0006104C16.9998169,10.2234497,16.776001,9.9998169,16.5,10z M16,13h-2.4990234c-0.0001831,0-0.0003662,0-0.0005493,0c-0.276001,0.0001831-0.4995728,0.223999-0.4994507,0.5V16h-2v-2.5c0-0.0001831,0-0.0003662,0-0.0005493c-0.0001221-0.276001-0.223999-0.4996338-0.5-0.4994507H8v-2h2.5009766c0.0001831,0,0.0004272,0,0.0006104,0c0.2759399-0.0001831,0.4995728-0.223999,0.4993896-0.5V8h2v2.5c0,0.0001831,0,0.0003662,0,0.0005493c0.0001831,0.276001,0.2240601,0.4996338,0.5,0.4994507H16V13z M19,2H5C3.3438721,2.0018311,2.0018311,3.3438721,2,5v14c0.0018311,1.6561279,1.3438721,2.9981689,3,3h14c1.6561279-0.0018311,2.9981689-1.3438721,3-3V5C21.9981689,3.3438721,20.6561279,2.0018311,19,2z M21,19c-0.0014038,1.1040039-0.8959961,1.9985962-2,2H5c-1.1040039-0.0014038-1.9985962-0.8959961-2-2V5c0.0014038-1.1040039,0.8959961-1.9985962,2-2h14c1.1040039,0.0014038,1.9985962,0.8959961,2,2V19z"/></svg>