<svg xmlns="http://www.w3.org/2000/svg" enable-background="new 0 0 24 24" viewBox="0 0 24 24"><path fill="#6563ff" d="M6.5,15H9v2.5c0,0.0001831,0,0.0003662,0,0.0005493C9.0001831,17.7765503,9.223999,18.0001831,9.5,18h5c0.0001831,0,0.0003662,0,0.0006104,0C14.7765503,17.9998169,15.0001831,17.776001,15,17.5V15h2.5c0.0001831,0,0.0003662,0,0.0006104,0C17.7765503,14.9998169,18.0001831,14.776001,18,14.5v-5c0-0.0001831,0-0.0003662,0-0.0006104C17.9998169,9.2234497,17.776001,8.9998169,17.5,9H15V6.5c0-0.0001831,0-0.0003662,0-0.0006104C14.9998169,6.2234497,14.776001,5.9998169,14.5,6h-5C9.4998169,6,9.4996338,6,9.4994507,6C9.2234497,6.0001831,8.9998169,6.223999,9,6.5V9H6.5C6.4998169,9,6.4996338,9,6.4993896,9C6.2234497,9.0001831,5.9998169,9.223999,6,9.5v5c0,0.0001831,0,0.0003662,0,0.0005493C6.0001831,14.7765503,6.223999,15.0001831,6.5,15z M7,10h2.5c0.0001831,0,0.0003662,0,0.0006104,0C9.7765503,9.9998169,10.0001831,9.776001,10,9.5V7h4v2.5c0,0.0001831,0,0.0003662,0,0.0005493C14.0001831,9.7765503,14.223999,10.0001831,14.5,10H17v4h-2.5c-0.0001831,0-0.0003662,0-0.0005493,0C14.2234497,14.0001831,13.9998169,14.223999,14,14.5V17h-4v-2.5c0-0.0001831,0-0.0003662,0-0.0006104C9.9998169,14.2234497,9.776001,13.9998169,9.5,14H7V10z M21.5,2h-19C2.4998169,2,2.4996338,2,2.4993896,2C2.2234497,2.0001831,1.9998169,2.223999,2,2.5v19c0,0.0001831,0,0.0003662,0,0.0005493C2.0001831,21.7765503,2.223999,22.0001831,2.5,22h19c0.0001831,0,0.0003662,0,0.0006104,0C21.7765503,21.9998169,22.0001831,21.776001,22,21.5v-19c0-0.0001831,0-0.0003662,0-0.0006104C21.9998169,2.2234497,21.776001,1.9998169,21.5,2z M21,21H3V3h18V21z"/></svg>