<svg xmlns="http://www.w3.org/2000/svg" enable-background="new 0 0 24 24" viewBox="0 0 24 24"><path fill="#6563ff" d="M17.5,6H15V3h2.5C17.776123,3,18,2.776123,18,2.5S17.776123,2,17.5,2h-9C6.0158691,2.0026855,4.0026855,4.0158691,4,6.5v15.0005493C4.0001831,21.7765503,4.223999,22.0001831,4.5,22h0.0006104C4.7765503,21.9998169,5.0001831,21.776001,5,21.5v-15C5.0023193,4.5679932,6.5679932,3.0023193,8.5,3H14v3h-2.5C10.119812,6.0012817,9.0012817,7.119812,9,8.5v5.9296875c-0.0009766,0.8361206,0.4170532,1.6171265,1.1132812,2.0800781L12,17.7675781V18.5c0.0009155,0.828064,0.671936,1.4990845,1.5,1.5H14v1.5005493C14.0001831,21.7765503,14.223999,22.0001831,14.5,22h0.0006104C14.7765503,21.9998169,15.0001831,21.776001,15,21.5V20h0.5c0.828064-0.0009155,1.4990845-0.671936,1.5-1.5v-0.7324219l1.8867188-1.2578125C19.5829468,16.046814,20.0009766,15.2658081,20,14.4296875V8.5C19.9987183,7.119812,18.880188,6.0012817,17.5,6z M19,9h-3.5C15.223877,9,15,9.223877,15,9.5s0.223877,0.5,0.5,0.5H19v2h-2.5c-0.276123,0-0.5,0.223877-0.5,0.5s0.223877,0.5,0.5,0.5H19v1.4297485c0.0003662,0.5015869-0.2504272,0.9700928-0.6679688,1.2479858l-2.109375,1.40625C16.0837402,17.1768799,16.0002441,17.3328857,16,17.5v1c-0.0005493,0.2759399-0.2240601,0.4994507-0.5,0.5h-2c-0.2759399-0.0005493-0.4994507-0.2240601-0.5-0.5v-1c-0.0002441-0.1671143-0.0837402-0.3231201-0.2226562-0.4160156l-2.109314-1.406311C10.2504272,15.3997803,9.9996338,14.9312744,10,14.4296875V8.5c0.0009155-0.828064,0.671936-1.4990845,1.5-1.5h6c0.828064,0.0009155,1.4990845,0.671936,1.5,1.5V9z"/></svg>