<svg xmlns="http://www.w3.org/2000/svg" enable-background="new 0 0 24 24" viewBox="0 0 24 24"><path fill="#6563ff" d="M19.5,6H17V4.5c-0.0012817-1.380188-1.119812-2.4987183-2.5-2.5h-5C8.119812,2.0012817,7.0012817,3.119812,7,4.5V6H4.5C3.119812,6.0012817,2.0012817,7.119812,2,8.5v11c0.0012817,1.380188,1.119812,2.4987183,2.5,2.5h15c1.380188-0.0012817,2.4987183-1.119812,2.5-2.5v-11C21.9987183,7.119812,20.880188,6.0012817,19.5,6z M8,4.5C8.0009155,3.671936,8.671936,3.0009155,9.5,3h5c0.828064,0.0009155,1.4990845,0.671936,1.5,1.5V6H8V4.5z M21,19.5c-0.0009155,0.828064-0.671936,1.4990845-1.5,1.5h-15c-0.828064-0.0009155-1.4990845-0.671936-1.5-1.5V12h18V19.5z M21,11H3V8.5C3.0009155,7.671936,3.671936,7.0009155,4.5,7h15c0.828064,0.0009155,1.4990845,0.671936,1.5,1.5V11z M10,16.5h1.5v1.5005493C11.5001831,18.2765503,11.723999,18.5001831,12,18.5h0.0006104C12.2765503,18.4998169,12.5001831,18.276001,12.5,18v-1.5H14c0.276123,0,0.5-0.223877,0.5-0.5s-0.223877-0.5-0.5-0.5h-1.5V14c0-0.276123-0.223877-0.5-0.5-0.5s-0.5,0.223877-0.5,0.5v1.5H10c-0.276123,0-0.5,0.223877-0.5,0.5S9.723877,16.5,10,16.5z"/></svg>