<svg xmlns="http://www.w3.org/2000/svg" enable-background="new 0 0 24 24" viewBox="0 0 24 24"><path fill="#6563ff" d="M6.5,10h3C9.776123,10,10,9.776123,10,9.5S9.776123,9,9.5,9h-3C6.223877,9,6,9.223877,6,9.5S6.223877,10,6.5,10z M21.5,4h-9V2.5C12.5,2.223877,12.276123,2,12,2s-0.5,0.223877-0.5,0.5V4H2.4993896C2.2234497,4.0001831,1.9998169,4.223999,2,4.5v11c0.0012817,1.380188,1.119812,2.4987183,2.5,2.5h6.2929688l-3.1464844,3.1464844c-0.09375,0.09375-0.1464233,0.2208862-0.1464233,0.3534546C7.5,21.776062,7.723877,21.999939,8,22c0.1326294,0.0001221,0.2598267-0.0526123,0.3534546-0.1465454L11.5,18.7069092v2.7936401C11.5001831,21.7765503,11.723999,22.0001831,12,22h0.0006104c0.2759399-0.0001831,0.4995728-0.223999,0.4993896-0.5v-2.7929688l3.1464844,3.1464844C15.7401123,21.9474487,15.8673706,22.0001831,16,22c0.1325073-0.000061,0.2595825-0.0526733,0.3533325-0.1463623c0.1953125-0.1952515,0.1953735-0.5118408,0.0001221-0.7070923L13.2069092,18H19.5c1.380188-0.0012817,2.4987183-1.119812,2.5-2.5V4.4993896C21.9998169,4.2234497,21.776001,3.9998169,21.5,4z M21,15.5c-0.0009155,0.828064-0.671936,1.4990845-1.5,1.5h-15c-0.828064-0.0009155-1.4990845-0.671936-1.5-1.5V5h18V15.5z M6.5,14h7c0.276123,0,0.5-0.223877,0.5-0.5S13.776123,13,13.5,13h-7C6.223877,13,6,13.223877,6,13.5S6.223877,14,6.5,14z"/></svg>