<svg xmlns="http://www.w3.org/2000/svg" enable-background="new 0 0 24 24" viewBox="0 0 24 24"><path fill="#6563ff" d="M20.5006104,2H20.5c-0.276001-0.0001831-0.4998169,0.2234497-0.5,0.4993896v0.8184204C18.1987915,5.6326294,15.4330444,6.9904785,12.5,7h-7C4.119812,7.0012817,3.0012817,8.119812,3,9.5v3c0.0012817,1.380188,1.119812,2.4987183,2.5,2.5h1.2412109L4.039978,21.3027344c-0.1084595,0.2544556,0.0099487,0.5487061,0.2644043,0.6571655C4.3662109,21.9862671,4.4327393,21.9998779,4.5,22h4c0.2000122,0,0.3809204-0.1190186,0.460022-0.3027344L11.8302002,15H12.5c2.9330444,0.0095215,5.6987915,1.3673706,7.5,3.6821899V19.5c0,0.276123,0.223877,0.5,0.5,0.5s0.5-0.223877,0.5-0.5v-17C21.0001831,2.223999,20.7765503,2.0001831,20.5006104,2z M5.5,14c-0.828064-0.0009155-1.4990845-0.671936-1.5-1.5v-3C4.0009155,8.671936,4.671936,8.0009155,5.5,8H7v6H5.5z M8.1699219,21H5.2578125l2.5722656-6h2.9121094L8.1699219,21z M20,17.1643066C18.0236816,15.1491089,15.3225708,14.0094604,12.5,14H8V8h4.5c2.8225708-0.0094604,5.5236816-1.1491089,7.5-3.1643066V17.1643066z"/></svg>