<svg xmlns="http://www.w3.org/2000/svg" enable-background="new 0 0 24 24" viewBox="0 0 24 24"><path fill="#6563ff" d="M9.5605469,10.1894531c0.0936279,0.0939331,0.2208862,0.1466675,0.3535156,0.1464844v0.000061c0.1325684-0.000061,0.2597046-0.0527344,0.3534546-0.1464233c0.1953125-0.1952515,0.1953125-0.5118408,0.0001221-0.7071533c-0.9888306-0.9452515-2.5463867-0.9452515-3.5352173,0c-0.1904907,0.194397-0.1904907,0.5054932,0,0.6998901c0.1932983,0.1972046,0.5098267,0.2003784,0.7070312,0.0071411C8.0361328,9.6308594,8.9638672,9.6308594,9.5605469,10.1894531z M15,14.5H9c-0.276123,0-0.5,0.223877-0.5,0.5s0.223877,0.5,0.5,0.5h6c0.276123,0,0.5-0.223877,0.5-0.5S15.276123,14.5,15,14.5z M12,2C6.4771729,2,2,6.4771729,2,12s4.4771729,10,10,10c5.5201416-0.0064697,9.9935303-4.4798584,10-10C22,6.4771729,17.5228271,2,12,2z M12,21c-4.9705811,0-9-4.0294189-9-9s4.0294189-9,9-9c4.9683228,0.0054321,8.9945679,4.0316772,9,9C21,16.9705811,16.9705811,21,12,21z M13.7324219,9.4824219c-0.1904907,0.194397-0.1904907,0.5054932,0,0.6998901c0.1932983,0.1972046,0.5098267,0.2003784,0.7070312,0.0071411c0.5966797-0.5585938,1.5244141-0.5585938,2.1210938,0c0.0936279,0.0939331,0.2208862,0.1466675,0.3535156,0.1464844l0.000061,0.000061c0.1325684-0.000061,0.2597046-0.0527344,0.3533936-0.1464233c0.1953125-0.1952515,0.1953125-0.5118408,0.0001221-0.7071533C16.2788086,8.5371704,14.7212524,8.5371704,13.7324219,9.4824219z"/></svg>