<svg xmlns="http://www.w3.org/2000/svg" enable-background="new 0 0 24 24" viewBox="0 0 24 24"><path fill="#6563ff" d="M9,10.5h1c0.276123,0,0.5-0.223877,0.5-0.5S10.276123,9.5,10,9.5H9c-0.276123,0-0.5,0.223877-0.5,0.5S8.723877,10.5,9,10.5z M15,14.5H9c-0.276123,0-0.5,0.223877-0.5,0.5s0.223877,0.5,0.5,0.5h6c0.276123,0,0.5-0.223877,0.5-0.5S15.276123,14.5,15,14.5z M12,2C6.4771729,2,2,6.4771729,2,12s4.4771729,10,10,10c5.5201416-0.0064697,9.9935303-4.4798584,10-10C22,6.4771729,17.5228271,2,12,2z M12,21c-4.9705811,0-9-4.0294189-9-9s4.0294189-9,9-9c4.9683228,0.0054321,8.9945679,4.0316772,9,9C21,16.9705811,16.9705811,21,12,21z M15,9.5h-1c-0.276123,0-0.5,0.223877-0.5,0.5s0.223877,0.5,0.5,0.5h1c0.276123,0,0.5-0.223877,0.5-0.5S15.276123,9.5,15,9.5z"/></svg>