<svg xmlns="http://www.w3.org/2000/svg" enable-background="new 0 0 24 24" viewBox="0 0 24 24"><path fill="#6563ff" d="M20.3642578,9.5947266L5.6181641,3.53125C5.0461426,3.2956543,4.4088135,3.2717896,3.8207397,3.4640503C2.4562988,3.9100342,1.711731,5.3776855,2.1577148,6.7421875L3.8759766,12l-1.7182617,5.2578735c-0.0828857,0.2549438-0.1259766,0.5211792-0.1276245,0.7893066c-0.0090942,1.4389038,1.1500854,2.612793,2.5890503,2.6218262c0.3426514-0.0006104,0.6818848-0.0682983,0.9985352-0.1992798l14.746582-6.0644531c0.6419067-0.2640991,1.1516113-0.7738037,1.4157104-1.4157104C22.3264771,11.6611328,21.692627,10.1412354,20.3642578,9.5947266z M3.1079102,6.4316406C3.0587158,6.2792969,3.0325928,6.1204834,3.0303345,5.9604492C3.0177612,5.0725708,3.727356,4.3426514,4.6152344,4.3300781c0.2138062,0.0006714,0.425354,0.043457,0.6225586,0.1259766l14.7456055,6.0644531c0.395874,0.1624146,0.710144,0.4766846,0.8725586,0.8725586c0.020813,0.0507202,0.0305176,0.1027832,0.0458374,0.1542358C20.838501,11.5183105,20.7694702,11.5,20.6953125,11.5H4.7642212L3.1079102,6.4316406z M19.9833984,13.4794922L5.2373047,19.5449219c-0.3514404,0.1442871-0.7427979,0.1588745-1.1040039,0.0410767c-0.840332-0.2739868-1.2993774-1.1773071-1.0253906-2.0176392L4.7642212,12.5h15.9310913c0.074707,0,0.1439819-0.0187378,0.2076416-0.0480957C20.7698975,12.8999634,20.4494629,13.288269,19.9833984,13.4794922z"/></svg>