<svg xmlns="http://www.w3.org/2000/svg" enable-background="new 0 0 24 24" viewBox="0 0 24 24"><path fill="#6563ff" d="M16,14.375c-0.3451538,0-0.625,0.2798462-0.625,0.625s0.2798462,0.625,0.625,0.625s0.625-0.2798462,0.625-0.625S16.3451538,14.375,16,14.375z M19.0561523,19.3491211c1.6499634-0.93396,2.5132446-2.8222046,2.1401367-4.6810913l-1.6933594-9C19.1010742,3.541687,17.2440186,2.0015869,15.0800781,2H8.9199219C6.7559814,2.0015869,4.8989258,3.541687,4.4970703,5.6680298l-1.6933594,9c-0.3731079,1.8588867,0.4901733,3.7471313,2.1401367,4.6810913l-1.7973633,1.7973633c-0.1986084,0.1918335-0.2041016,0.5083618-0.0122681,0.7069702c0.1918335,0.1986694,0.5083618,0.2041626,0.7069702,0.0122681c0.0042114-0.0039673,0.0083008-0.0080566,0.0122681-0.0122681l2.0700073-2.0699463C6.3444214,19.9196777,6.7832031,19.9926758,7.2255859,20h9.5488281c0.4423218-0.0073242,0.8811646-0.0803223,1.302063-0.2164917l2.0700073,2.0700073c0.1986084,0.1918335,0.5151367,0.1863403,0.7069702-0.0122681c0.1871948-0.1937256,0.1871948-0.5009766,0-0.6947632L19.0561523,19.3491211z M5.4794922,5.8535156C5.7920532,4.1994629,7.2365723,3.0013428,8.9199219,3h6.1601562c1.6833496,0.0013428,3.1278687,1.1994629,3.4404297,2.8535156l0.4643555,2.4680176c-2.6467285,3.857605-7.9196167,4.8392334-11.7772217,2.1925049C6.3481445,9.9243164,5.6048584,9.1810303,5.0151367,8.3215332L5.4794922,5.8535156z M17.4196777,18.9398804C17.2069092,18.9797974,16.9909058,18.999939,16.7744141,19H7.2255859c-1.9332275-0.0004272-3.500061-1.5679932-3.4995728-3.5012207c0.000061-0.2164917,0.0201416-0.4324951,0.0601196-0.6452637l0.979187-5.2042847c3.3881836,3.9956055,9.3739014,4.4880371,13.3695068,1.0998535c0.3961182-0.3359375,0.7639771-0.7037354,1.0998535-1.0998535l0.979187,5.2042847C20.5706787,16.75354,19.3196411,18.5830688,17.4196777,18.9398804z M8,14.375c-0.3451538,0-0.625,0.2798462-0.625,0.625S7.6548462,15.625,8,15.625S8.625,15.3451538,8.625,15S8.3451538,14.375,8,14.375z"/></svg>