<svg xmlns="http://www.w3.org/2000/svg" enable-background="new 0 0 24 24" viewBox="0 0 24 24"><path fill="#6563ff" d="M20,11c0-0.276123-0.223877-0.5-0.5-0.5S19,10.723877,19,11c0,3.8659668-3.1340332,7-7,7s-7-3.1340332-7-7c0-0.276123-0.223877-0.5-0.5-0.5S4,10.723877,4,11c0.0048828,4.2473755,3.3180542,7.7104492,7.5,7.9741821V22h-3C8.223877,22,8,22.223877,8,22.5S8.223877,23,8.5,23H12c0.0001831,0,0.0003662,0,0.0006104,0H15.5c0.276123,0,0.5-0.223877,0.5-0.5S15.776123,22,15.5,22h-3v-3.0258179C16.6819458,18.7104492,19.9951172,15.2473755,20,11z M12,15c2.208252-0.0021973,3.9978027-1.791748,4-4V5c0-2.2091675-1.7908325-4-4-4S8,2.7908325,8,5v6C8.0021973,13.208252,9.791748,14.9978027,12,15z M9,5c0.0018311-1.6561279,1.3438721-2.9981689,3-3c1.6561279,0.0018311,2.9981689,1.3438721,3,3v6c0,1.6568604-1.3431396,3-3,3s-3-1.3431396-3-3V5z"/></svg>