<svg xmlns="http://www.w3.org/2000/svg" enable-background="new 0 0 24 24" viewBox="0 0 24 24"><path fill="#6563ff" d="M16.5,11.5h-9C7.223877,11.5,7,11.723877,7,12s0.223877,0.5,0.5,0.5h9c0.276123,0,0.5-0.223877,0.5-0.5S16.776123,11.5,16.5,11.5z M19,2H5C3.3438721,2.0018311,2.0018311,3.3438721,2,5v14c0.0018311,1.6561279,1.3438721,2.9981689,3,3h14c1.6561279-0.0018311,2.9981689-1.3438721,3-3V5C21.9981689,3.3438721,20.6561279,2.0018311,19,2z M21,19c-0.0014038,1.1040039-0.8959961,1.9985962-2,2H5c-1.1040039-0.0014038-1.9985962-0.8959961-2-2V5c0.0014038-1.1040039,0.8959961-1.9985962,2-2h14c1.1040039,0.0014038,1.9985962,0.8959961,2,2V19z"/></svg>