<svg xmlns="http://www.w3.org/2000/svg" enable-background="new 0 0 24 24" viewBox="0 0 24 24"><path fill="#6563ff" d="M2.5,10.5996094h0.0006104c0.2759399-0.0001831,0.4995728-0.223999,0.4993896-0.5V7.8994141c0-0.276123-0.223877-0.5-0.5-0.5s-0.5,0.223877-0.5,0.5v2.2008057C2.0001831,10.3761597,2.223999,10.5997925,2.5,10.5996094z M14.5,3H15v0.5006104C15.0001831,3.7765503,15.223999,4.0001831,15.5,4h0.0006104C15.7765503,3.9998169,16.0001831,3.776001,16,3.5V2.4993896C15.9998169,2.2234497,15.776001,1.9998169,15.5,2h-1C14.223877,2,14,2.223877,14,2.5S14.223877,3,14.5,3z M7.9003906,3h2.2001953c0.276123,0,0.5-0.223877,0.5-0.5s-0.223877-0.5-0.5-0.5H7.9003906c-0.276123,0-0.5,0.223877-0.5,0.5S7.6242676,3,7.9003906,3z M21.5,8H16V7.5C16,7.223877,15.776123,7,15.5,7S15,7.223877,15,7.5V8H8.4994507C8.2234497,8.0001831,7.9998169,8.223999,8,8.5V15H7.5C7.223877,15,7,15.223877,7,15.5S7.223877,16,7.5,16H8v5.5005493C8.0001831,21.7765503,8.223999,22.0001831,8.5,22h13.0006104C21.7765503,21.9998169,22.0001831,21.776001,22,21.5V8.4993896C21.9998169,8.2234497,21.776001,7.9998169,21.5,8z M21,21H9V9h12V21z M3.5,2H2.4993896C2.2234497,2.0001831,1.9998169,2.223999,2,2.5v1.0006104C2.0001831,3.7765503,2.223999,4.0001831,2.5,4h0.0006104C2.7765503,3.9998169,3.0001831,3.776001,3,3.5V3h0.5C3.776123,3,4,2.776123,4,2.5S3.776123,2,3.5,2z M3.5,15H3v-0.5C3,14.223877,2.776123,14,2.5,14S2,14.223877,2,14.5v1.0005493C2.0001831,15.7765503,2.223999,16.0001831,2.5,16h1C3.776123,16,4,15.776123,4,15.5S3.776123,15,3.5,15z"/></svg>