<svg xmlns="http://www.w3.org/2000/svg" enable-background="new 0 0 24 24" viewBox="0 0 24 24"><path fill="#6563ff" d="M21.7,15c-5.8-4-13.6-4-19.4,0c-0.7,0.5-1.2,1.3-1.3,2.2c-0.1,0.9,0.2,1.8,0.9,2.4l1.6,1.6c0.9,0.9,2.3,1,3.4,0.3c0.1-0.1,0.3-0.2,0.4-0.3c0.3-0.2,0.6-0.4,1-0.5c0.8-0.4,1.2-1.3,1-2.2l-0.4-1.3c1-0.3,2.1-0.4,3.1-0.4h0c1.1,0,2.1,0.1,3.2,0.4l-0.4,1.3c-0.3,0.9,0.1,1.8,1,2.2c0.3,0.1,0.6,0.3,1,0.5c0.1,0.1,0.3,0.2,0.4,0.3c0.4,0.3,0.9,0.5,1.5,0.5c0.7,0,1.4-0.3,1.9-0.8l1.6-1.6c0.6-0.6,1-1.5,0.9-2.4C22.9,16.3,22.4,15.5,21.7,15z M21.4,18.9l-1.6,1.6c-0.6,0.6-1.4,0.7-2.1,0.2c-0.2-0.1-0.3-0.2-0.5-0.3c-0.3-0.2-0.7-0.4-1.1-0.6c-0.4-0.2-0.6-0.6-0.4-1l0.5-1.7c0,0,0,0,0,0c0.1-0.3-0.1-0.5-0.3-0.6c-1.3-0.4-2.6-0.6-3.9-0.6c-1.3,0-2.7,0.2-3.9,0.6c0,0,0,0,0,0c-0.3,0.1-0.4,0.4-0.3,0.6l0.6,1.8c0.1,0.4-0.1,0.8-0.4,1c-0.4,0.2-0.7,0.4-1.1,0.6c-0.2,0.1-0.3,0.2-0.5,0.3c-0.7,0.4-1.5,0.4-2.1-0.2l-1.6-1.6c-0.4-0.4-0.6-1-0.6-1.6c0-0.6,0.4-1.1,0.8-1.4c5.5-3.8,12.8-3.8,18.3,0c0.5,0.3,0.8,0.9,0.8,1.4C22,17.9,21.8,18.5,21.4,18.9z M5.5,8L5.5,8C5.7,8,6,7.8,6,7.5V4.7l4.2,4.2c0.5,0.5,1.1,0.7,1.8,0.7c0.7,0,1.3-0.3,1.8-0.7l5.1-5.1c0,0,0,0,0,0c0.2-0.2,0.2-0.5,0-0.7c-0.2-0.2-0.5-0.2-0.7,0L13,8.2c-0.6,0.6-1.5,0.6-2.1,0L6.7,4h2.8C9.7,4,10,3.8,10,3.5S9.7,3,9.5,3h-4C5.2,3,5,3.2,5,3.5v4C5,7.8,5.2,8,5.5,8z"/></svg>