<svg xmlns="http://www.w3.org/2000/svg" enable-background="new 0 0 24 24" viewBox="0 0 24 24"><path fill="#6563ff" d="M3.2,8.6c0.1,0,0.3-0.1,0.4-0.1l5-5c0,0,0,0,0,0c0.2-0.2,0.2-0.5,0-0.7C8.3,2.6,8,2.6,7.8,2.8l-5,5C2.7,7.9,2.7,8,2.7,8.1C2.7,8.4,2.9,8.6,3.2,8.6z M20.5,15.5l-5,5c-0.1,0.1-0.1,0.2-0.1,0.4c0,0.3,0.2,0.5,0.5,0.5c0.1,0,0.3-0.1,0.4-0.1l5-5c0.2-0.2,0.2-0.5,0-0.7C21,15.3,20.7,15.3,20.5,15.5z M8.8,13.7L8.8,13.7c-0.8,0-1.5,0.7-1.5,1.5s0.7,1.5,1.5,1.5h0c0.8,0,1.5-0.7,1.5-1.5S9.6,13.7,8.8,13.7z M9.2,15.5c-0.1,0.1-0.2,0.1-0.4,0.1h0c-0.3,0-0.5-0.2-0.5-0.5s0.2-0.5,0.5-0.5h0c0.1,0,0.3,0.1,0.4,0.1C9.4,15,9.4,15.3,9.2,15.5z M20.8,11.6c1-1,1-2.6,0-3.5l-5-5c-1-0.9-2.5-0.9-3.5,0l-9.2,9.2c0,0,0,0,0,0c-1,1-1,2.6,0,3.5l5,5c0.5,0.5,1.1,0.7,1.8,0.7c0.7,0,1.3-0.3,1.8-0.7L20.8,11.6C20.8,11.6,20.8,11.6,20.8,11.6z M20.1,10.9l-9.2,9.2c-0.6,0.6-1.5,0.6-2.1,0l-5-5c0,0,0,0,0,0c-0.6-0.6-0.6-1.5,0-2.1l9.2-9.2c0.3-0.3,0.7-0.4,1.1-0.4c0.4,0,0.8,0.2,1.1,0.4l5,5c0,0,0,0,0,0C20.7,9.4,20.7,10.4,20.1,10.9z"/></svg>