<svg xmlns="http://www.w3.org/2000/svg" enable-background="new 0 0 24 24" viewBox="0 0 24 24"><path fill="#6563ff" d="M16,2H8C6.3438721,2.0018311,5.0018311,3.3438721,5,5v14c0.0018311,1.6561279,1.3438721,2.9981689,3,3h8c1.6561279-0.0018311,2.9981689-1.3438721,3-3V5C18.9981689,3.3438721,17.6561279,2.0018311,16,2z M18,19c-0.0014038,1.1040039-0.8959961,1.9985962-2,2H8c-1.1040039-0.0014038-1.9985962-0.8959961-2-2v-2h12V19z M18,16H6V5c0.0014038-1.1040039,0.8959961-1.9985962,2-2h8c1.1040039,0.0014038,1.9985962,0.8959961,2,2V16z"/></svg>