<svg xmlns="http://www.w3.org/2000/svg" enable-background="new 0 0 24 24" viewBox="0 0 24 24"><path fill="#6563ff" d="M16,2H8C6.3438721,2.0018311,5.0018311,3.3438721,5,5v14c0.0018311,1.6561279,1.3438721,2.9981689,3,3h8c1.6561279-0.0018311,2.9981689-1.3438721,3-3V5C18.9981689,3.3438721,17.6561279,2.0018311,16,2z M18,19c-0.0014038,1.1040039-0.8959961,1.9985962-2,2H8c-1.1040039-0.0014038-1.9985962-0.8959961-2-2V5c0.0014038-1.1040039,0.8959961-1.9985962,2-2h8c1.1040039,0.0014038,1.9985962,0.8959961,2,2V19z M12,15.5c-0.8284302,0-1.5,0.6715698-1.5,1.5s0.6715698,1.5,1.5,1.5c0.828064-0.0009155,1.4990845-0.671936,1.5-1.5C13.5,16.1715698,12.8284302,15.5,12,15.5z M12,17.5c-0.276123,0-0.5-0.223877-0.5-0.5s0.223877-0.5,0.5-0.5c0.2759399,0.0005493,0.4994507,0.2240601,0.5,0.5C12.5,17.276123,12.276123,17.5,12,17.5z"/></svg>