<svg xmlns="http://www.w3.org/2000/svg" enable-background="new 0 0 24 24" viewBox="0 0 24 24"><path fill="#6563ff" d="M11.6464844,9.8535156C11.7401123,9.9474487,11.8673706,10.0001831,12,10c0.1326294,0.0001221,0.2598267-0.0525513,0.3534546-0.1464844l2.75-2.75c0.1871338-0.1937866,0.1871338-0.5009155,0-0.6947021c-0.1918335-0.1986084-0.5083618-0.2041626-0.7069702-0.0123291L12.5,8.2930298V2.5C12.5,2.223877,12.276123,2,12,2s-0.5,0.223877-0.5,0.5v5.7930298L9.6034546,6.3965454c-0.1937256-0.1871338-0.5009155-0.1871338-0.6947021,0C8.710144,6.5883789,8.7046509,6.9049072,8.8964844,7.1035156L11.6464844,9.8535156z M18,16.5c0.828064-0.0009155,1.4990845-0.671936,1.5-1.5c0-0.8284302-0.6715698-1.5-1.5-1.5s-1.5,0.6715698-1.5,1.5S17.1715698,16.5,18,16.5z M18,14.5c0.2759399,0.0005493,0.4994507,0.2240601,0.5,0.5c0,0.276123-0.223877,0.5-0.5,0.5s-0.5-0.223877-0.5-0.5S17.723877,14.5,18,14.5z M20,8h-2.5C17.223877,8,17,8.223877,17,8.5S17.223877,9,17.5,9H20c1.1040039,0.0014038,1.9985962,0.8959961,2,2v8c-0.0014038,1.1040039-0.8959961,1.9985962-2,2H4c-1.1040039-0.0014038-1.9985962-0.8959961-2-2v-8c0.0014038-1.1040039,0.8959961-1.9985962,2-2h2.5C6.776123,9,7,8.776123,7,8.5S6.776123,8,6.5,8H4c-1.6561279,0.0018311-2.9981689,1.3438721-3,3v8c0.0018311,1.6561279,1.3438721,2.9981689,3,3h16c1.6561279-0.0018311,2.9981689-1.3438721,3-3v-8C22.9981689,9.3438721,21.6561279,8.0018311,20,8z M4.5,15c0,0.8284302,0.6715698,1.5,1.5,1.5c0.828064-0.0009155,1.4990845-0.671936,1.5-1.5c0-0.8284302-0.6715698-1.5-1.5-1.5S4.5,14.1715698,4.5,15z M6.5,15c0,0.276123-0.223877,0.5-0.5,0.5S5.5,15.276123,5.5,15s0.223877-0.5,0.5-0.5C6.2759399,14.5005493,6.4994507,14.7240601,6.5,15z M9.5,15c0,1.3807373,1.1192627,2.5,2.5,2.5c1.380188-0.0012817,2.4987183-1.119812,2.5-2.5c0-1.3807373-1.1192627-2.5-2.5-2.5S9.5,13.6192627,9.5,15z M13.5,15c0,0.8284302-0.6715698,1.5-1.5,1.5s-1.5-0.6715698-1.5-1.5s0.6715698-1.5,1.5-1.5C12.828064,13.5009155,13.4990845,14.171936,13.5,15z"/></svg>