<svg xmlns="http://www.w3.org/2000/svg" enable-background="new 0 0 24 24" viewBox="0 0 24 24"><path fill="#6563ff" d="M22.5,2H1.4993896C1.2234497,2.0001831,0.9998169,2.223999,1,2.5v9.0005493C1.0001831,11.7765503,1.223999,12.0001831,1.5,12H5v9.5005493C5.0001831,21.7765503,5.223999,22.0001831,5.5,22h13.0006104C18.7765503,21.9998169,19.0001831,21.776001,19,21.5V12h3.5006104C22.7765503,11.9998169,23.0001831,11.776001,23,11.5V2.4993896C22.9998169,2.2234497,22.776001,1.9998169,22.5,2z M8.7226562,21H6v-2.7226562C6.3023682,18.0966797,6.6478271,18.0009155,7,18c1.1040039,0.0014038,1.9985962,0.8959961,2,2C8.9998169,20.3522949,8.9039917,20.697937,8.7226562,21z M18,21h-2.7226562C15.0960083,20.697937,15.0001831,20.3522949,15,20c0.0014038-1.1040039,0.8959961-1.9985962,2-2c0.3521729,0.0009155,0.6976318,0.0966797,1,0.2773438V21z M18,17.1809692C17.6739502,17.0635986,17.3294678,16.9987183,16.9782715,17C15.3273926,17.0059814,13.9940186,18.3491821,14,20c0.0003662,0.343689,0.0640869,0.6809082,0.1790771,1H9.8184204c0.3372803-0.9360962,0.1967773-2.0023193-0.4312744-2.8251953C8.5758667,17.1118164,7.1942749,16.7589111,6,17.1903687V7h12V17.1809692z M22,11h-3V6.4993896C18.9998169,6.2234497,18.776001,5.9998169,18.5,6H5.4993896C5.2234497,6.0001831,4.9998169,6.223999,5,6.5V11H2V3h20V11z M12,15c1.6561279-0.0018311,2.9981689-1.3438721,3-3c0-1.6568604-1.3431396-3-3-3s-3,1.3431396-3,3S10.3431396,15,12,15z M12,10c1.1040039,0.0014038,1.9985962,0.8959961,2,2c0,1.1045532-0.8954468,2-2,2s-2-0.8954468-2-2S10.8954468,10,12,10z"/></svg>