<svg xmlns="http://www.w3.org/2000/svg" enable-background="new 0 0 24 24" viewBox="0 0 24 24"><path fill="#6563ff" d="M19.5,6h-1.8291016c-0.0042725,0.000061-0.0083618-0.0001831-0.0125732,0H16V4.5c-0.0012817-1.380188-1.119812-2.4987183-2.5-2.5h-3C9.119812,2.0012817,8.0012817,3.119812,8,4.5V6H4.5C3.119812,6.0012817,2.0012817,7.119812,2,8.5v1.8284302c0.000061,0.0046997-0.0002441,0.0091553,0,0.0137939V19.5c0.0012817,1.380188,1.119812,2.4987183,2.5,2.5h15c1.380188-0.0012817,2.4987183-1.119812,2.5-2.5v-1.8291016c-0.000061-0.0042725,0.0001831-0.0083008,0-0.0125732v-7.3195801c0.0001831-0.0048218-0.000061-0.0093384,0-0.0142212V8.5C21.9987183,7.119812,20.880188,6.0012817,19.5,6z M9,4.5C9.0009155,3.671936,9.671936,3.0009155,10.5,3h3c0.828064,0.0009155,1.4990845,0.671936,1.5,1.5V6H9V4.5z M3,8.5C3.0009155,7.671936,3.671936,7.0009155,4.5,7h1.4423218C5.9780884,7.1643677,6.0015259,7.3311157,6,7.5C5.9987183,8.880188,4.880188,9.9987183,3.5,10C3.3311157,10.0015259,3.1643677,9.9780273,3,9.9422607V8.5z M5.9423218,21H4.5c-0.828064-0.0009155-1.4990845-0.671936-1.5-1.5v-1.4423218C3.1643677,18.0219116,3.3311157,17.9984741,3.5,18c1.380188,0.0012817,2.4987183,1.119812,2.5,2.5C6.0015259,20.6688843,5.9780884,20.8356323,5.9423218,21z M21,19.5c-0.0009155,0.828064-0.671936,1.4990845-1.5,1.5h-1.4422607C18.0219727,20.8356323,17.9984741,20.6688843,18,20.5c0.0012817-1.380188,1.119812-2.4987183,2.5-2.5c0.1688843-0.0015259,0.3356323,0.0219116,0.5,0.0576782V19.5z M21,17.043396C20.8345337,17.0186768,20.6679688,16.9989624,20.5,17c-1.9320068,0.0023193-3.4976807,1.5679932-3.5,3.5c-0.0010376,0.1679688,0.0186768,0.3345337,0.043396,0.5H6.956604C6.9813232,20.8345337,7.0010376,20.6679688,7,20.5c-0.0023193-1.9320068-1.5679932-3.4976807-3.5-3.5c-0.1679688-0.0010376-0.3345337,0.0186768-0.5,0.043396v-6.086792C3.1654663,10.9813232,3.3320312,11.0010376,3.5,11C5.4320068,10.9976807,6.9976807,9.4320068,7,7.5C7.0010376,7.3320312,6.9813232,7.1654663,6.956604,7h10.086792C17.0186768,7.1654663,16.9989624,7.3320312,17,7.5c0.0023193,1.9320068,1.5679932,3.4976807,3.5,3.5c0.1679688,0.0010376,0.3345337-0.0186768,0.5-0.043396V17.043396z M21,9.9422607C20.8356323,9.9780273,20.6688843,10.0015259,20.5,10c-1.380188-0.0012817-2.4987183-1.119812-2.5-2.5c-0.0015259-0.1688843,0.0219727-0.3356323,0.0577393-0.5H19.5c0.828064,0.0009155,1.4990845,0.671936,1.5,1.5V9.9422607z M12,11c-1.6568604,0-3,1.3431396-3,3s1.3431396,3,3,3c1.6561279-0.0018311,2.9981689-1.3438721,3-3C15,12.3431396,13.6568604,11,12,11z M12,16c-1.1045532,0-2-0.8954468-2-2s0.8954468-2,2-2c1.1040039,0.0014038,1.9985962,0.8959961,2,2C14,15.1045532,13.1045532,16,12,16z"/></svg>