<svg xmlns="http://www.w3.org/2000/svg" enable-background="new 0 0 24 24" viewBox="0 0 24 24"><path fill="#6563ff" d="M20.5,2h-17C2.119812,2.0012817,1.0012817,3.119812,1,4.5v16c0.0012817,1.380188,1.119812,2.4987183,2.5,2.5h17c1.380188-0.0012817,2.4987183-1.119812,2.5-2.5v-16C22.9987183,3.119812,21.880188,2.0012817,20.5,2z M8,22H3.5c-0.828064-0.0009155-1.4990845-0.671936-1.5-1.5v-2.0125122C2.4188232,18.8042603,2.9345093,18.9994507,3.5,19H8V22z M8,18H3.5c-0.828064-0.0009155-1.4990845-0.671936-1.5-1.5v-2.0125122C2.4188232,14.8042603,2.9345093,14.9994507,3.5,15H8V18z M8,14H3.5c-0.828064-0.0009155-1.4990845-0.671936-1.5-1.5v-8C2.0009155,3.671936,2.671936,3.0009155,3.5,3H8V14z M15,22H9v-7h6V22z M15,14H9V3h6V14z M22,20.5c-0.0009155,0.828064-0.671936,1.4990845-1.5,1.5H16v-3h4.5c0.5654907-0.0005493,1.0811768-0.1957397,1.5-0.5125122V20.5z M22,16.5c-0.0009155,0.828064-0.671936,1.4990845-1.5,1.5H16v-3h4.5c0.5654907-0.0005493,1.0811768-0.1957397,1.5-0.5125122V16.5z M22,12.5c-0.0009155,0.828064-0.671936,1.4990845-1.5,1.5H16V3h4.5c0.828064,0.0009155,1.4990845,0.671936,1.5,1.5V12.5z M18.5,7C17.6715698,7,17,7.6715698,17,8.5s0.6715698,1.5,1.5,1.5c0.828064-0.0009155,1.4990845-0.671936,1.5-1.5C20,7.6715698,19.3284302,7,18.5,7z M18.5,9C18.223877,9,18,8.776123,18,8.5S18.223877,8,18.5,8c0.2759399,0.0005493,0.4994507,0.2240601,0.5,0.5C19,8.776123,18.776123,9,18.5,9z M5.5,10C6.328064,9.9990845,6.9990845,9.328064,7,8.5C7,7.6715698,6.3284302,7,5.5,7S4,7.6715698,4,8.5S4.6715698,10,5.5,10z M5.5,8C5.7759399,8.0005493,5.9994507,8.2240601,6,8.5C6,8.776123,5.776123,9,5.5,9S5,8.776123,5,8.5S5.223877,8,5.5,8z"/></svg>