<svg xmlns="http://www.w3.org/2000/svg" enable-background="new 0 0 24 24" viewBox="0 0 24 24"><path fill="#6563ff" d="M12,12.5c-1.3807373,0-2.5,1.1192627-2.5,2.5s1.1192627,2.5,2.5,2.5c1.380127-0.0014648,2.4985352-1.119873,2.5-2.5C14.5,13.6192627,13.3807373,12.5,12,12.5z M12,16.5c-0.8284302,0-1.5-0.6715698-1.5-1.5s0.6715698-1.5,1.5-1.5c0.828064,0.0009155,1.4990845,0.671936,1.5,1.5C13.5,15.8284302,12.8284302,16.5,12,16.5z M9.6035156,5.6035156L11.5,3.7069702V9.5c0,0.0001831,0,0.0003662,0,0.0005493C11.5001831,9.7765503,11.723999,10.0001831,12,10c0.0001831,0,0.0003662,0,0.0006104,0C12.2765503,9.9998169,12.5001831,9.776001,12.5,9.5V3.7069702l1.8964844,1.8965454C14.4901123,5.6974487,14.6173706,5.7501831,14.75,5.75c0.1325073,0,0.2596436-0.0526733,0.3533936-0.1463623c0.1953125-0.1952515,0.1953735-0.5118408,0.0001221-0.7070923l-2.7495728-2.7495728c-0.0462036-0.0463257-0.1016235-0.0830078-0.1630249-0.1083984c-0.0580444-0.0239258-0.1194458-0.0354004-0.1812134-0.0366211C12.0062866,2.0018921,12.003418,2,12,2c-0.0023804,0-0.0043945,0.0012817-0.0067749,0.0013428C11.930481,2.0021973,11.8678589,2.0142212,11.80896,2.0385742c-0.0614014,0.0253906-0.1166382,0.0620728-0.1628418,0.1083984L8.8965454,4.8965454c-0.1871948,0.1937256-0.1871948,0.5009155,0,0.6947021C9.0883789,5.789856,9.4049072,5.7953491,9.6035156,5.6035156z M4.5,15c0,0.8284302,0.6715698,1.5,1.5,1.5c0.828064-0.0009155,1.4990845-0.671936,1.5-1.5c0-0.8284302-0.6715698-1.5-1.5-1.5S4.5,14.1715698,4.5,15z M6.5,15c0,0.276123-0.223877,0.5-0.5,0.5S5.5,15.276123,5.5,15s0.223877-0.5,0.5-0.5C6.276001,14.5003662,6.4996338,14.723999,6.5,15z M19.5,15c0-0.8284302-0.6715698-1.5-1.5-1.5s-1.5,0.6715698-1.5,1.5s0.6715698,1.5,1.5,1.5C18.828064,16.4990845,19.4990845,15.828064,19.5,15z M17.5,15c0-0.276123,0.223877-0.5,0.5-0.5c0.2759399,0.0005493,0.4994507,0.2240601,0.5,0.5c0,0.276123-0.223877,0.5-0.5,0.5S17.5,15.276123,17.5,15z M20,8h-5c-0.276123,0-0.5,0.223877-0.5,0.5S14.723877,9,15,9h5c1.1040039,0.0014038,1.9985962,0.8959961,2,2v8c-0.0014038,1.1040039-0.8959961,1.9985962-2,2H4c-1.1040649-0.0012817-1.9987183-0.8959351-2-2v-8c0.0012817-1.1040649,0.8959351-1.9987183,2-2h5c0.276123,0,0.5-0.223877,0.5-0.5S9.276123,8,9,8H4c-1.6561279,0.0018311-2.9981689,1.3438721-3,3v8c0.0018311,1.6561279,1.3438721,2.9981689,3,3h16c1.6561279-0.0018311,2.9981689-1.3438721,3-3v-8C22.9981689,9.3438721,21.6561279,8.0018311,20,8z"/></svg>