<svg xmlns="http://www.w3.org/2000/svg" enable-background="new 0 0 24 24" viewBox="0 0 24 24"><path fill="#6563ff" d="M22.5,18h-21C1.223877,18,1,18.223877,1,18.5S1.223877,19,1.5,19h21c0.276123,0,0.5-0.223877,0.5-0.5S22.776123,18,22.5,18z M22.5,22h-21C1.223877,22,1,22.223877,1,22.5S1.223877,23,1.5,23h21c0.276123,0,0.5-0.223877,0.5-0.5S22.776123,22,22.5,22z M12,5.5c-1.3807373,0-2.5,1.1192627-2.5,2.5s1.1192627,2.5,2.5,2.5c1.380188-0.0012817,2.4987183-1.119812,2.5-2.5C14.5,6.6192627,13.3807373,5.5,12,5.5z M12,9.5c-0.8284302,0-1.5-0.6715698-1.5-1.5s0.6715698-1.5,1.5-1.5c0.828064,0.0009155,1.4990845,0.671936,1.5,1.5C13.5,8.8284302,12.8284302,9.5,12,9.5z M6,6.5C5.1715698,6.5,4.5,7.1715698,4.5,8S5.1715698,9.5,6,9.5C6.828064,9.4990845,7.4990845,8.828064,7.5,8C7.5,7.1715698,6.8284302,6.5,6,6.5z M6,8.5C5.723877,8.5,5.5,8.276123,5.5,8S5.723877,7.5,6,7.5C6.2759399,7.5005493,6.4994507,7.7240601,6.5,8C6.5,8.276123,6.276123,8.5,6,8.5z M20,1H4C2.3438721,1.0018311,1.0018311,2.3438721,1,4v8c0.0018311,1.6561279,1.3438721,2.9981689,3,3h16c1.6561279-0.0018311,2.9981689-1.3438721,3-3V4C22.9981689,2.3438721,21.6561279,1.0018311,20,1z M22,12c-0.0014038,1.1040039-0.8959961,1.9985962-2,2H4c-1.1040039-0.0014038-1.9985962-0.8959961-2-2V4c0.0014038-1.1040039,0.8959961-1.9985962,2-2h16c1.1040039,0.0014038,1.9985962,0.8959961,2,2V12z M18,6.5c-0.8284302,0-1.5,0.6715698-1.5,1.5s0.6715698,1.5,1.5,1.5c0.828064-0.0009155,1.4990845-0.671936,1.5-1.5C19.5,7.1715698,18.8284302,6.5,18,6.5z M18,8.5c-0.276123,0-0.5-0.223877-0.5-0.5s0.223877-0.5,0.5-0.5c0.2759399,0.0005493,0.4994507,0.2240601,0.5,0.5C18.5,8.276123,18.276123,8.5,18,8.5z"/></svg>