<svg xmlns="http://www.w3.org/2000/svg" enable-background="new 0 0 24 24" viewBox="0 0 24 24"><path fill="#6563ff" d="M18,10.5c-0.8284302,0-1.5,0.6715698-1.5,1.5s0.6715698,1.5,1.5,1.5c0.828064-0.0009155,1.4990845-0.671936,1.5-1.5C19.5,11.1715698,18.8284302,10.5,18,10.5z M18,12.5c-0.276123,0-0.5-0.223877-0.5-0.5s0.223877-0.5,0.5-0.5c0.2759399,0.0005493,0.4994507,0.2240601,0.5,0.5C18.5,12.276123,18.276123,12.5,18,12.5z M6,10.5c-0.8284302,0-1.5,0.6715698-1.5,1.5s0.6715698,1.5,1.5,1.5c0.828064-0.0009155,1.4990845-0.671936,1.5-1.5C7.5,11.1715698,6.8284302,10.5,6,10.5z M6,12.5c-0.276123,0-0.5-0.223877-0.5-0.5s0.223877-0.5,0.5-0.5c0.2759399,0.0005493,0.4994507,0.2240601,0.5,0.5C6.5,12.276123,6.276123,12.5,6,12.5z M20,5H4C2.3438721,5.0018311,1.0018311,6.3438721,1,8v8c0.0018311,1.6561279,1.3438721,2.9981689,3,3h16c1.6561279-0.0018311,2.9981689-1.3438721,3-3V8C22.9981689,6.3438721,21.6561279,5.0018311,20,5z M22,16c-0.0014038,1.1040039-0.8959961,1.9985962-2,2H4c-1.1040039-0.0014038-1.9985962-0.8959961-2-2V8c0.0014038-1.1040039,0.8959961-1.9985962,2-2h16c1.1040039,0.0014038,1.9985962,0.8959961,2,2V16z M12,9.5c-1.3807373,0-2.5,1.1192627-2.5,2.5s1.1192627,2.5,2.5,2.5c1.380188-0.0012817,2.4987183-1.119812,2.5-2.5C14.5,10.6192627,13.3807373,9.5,12,9.5z M12,13.5c-0.8284302,0-1.5-0.6715698-1.5-1.5s0.6715698-1.5,1.5-1.5c0.828064,0.0009155,1.4990845,0.671936,1.5,1.5C13.5,12.8284302,12.8284302,13.5,12,13.5z"/></svg>