<svg xmlns="http://www.w3.org/2000/svg" enable-background="new 0 0 24 24" viewBox="0 0 24 24"><path fill="#6563ff" d="M18.1,12.5c-0.2,0.1-0.4,0.3-0.4,0.5c0,0.3,0.2,0.5,0.5,0.5c0,0,0.1,0,0.1,0c0.7-0.2,1.2-0.8,1.2-1.5c0-0.8-0.7-1.5-1.5-1.5c-0.7,0-1.3,0.5-1.5,1.2c-0.1,0.3,0.1,0.5,0.4,0.6s0.5-0.1,0.6-0.4c0.1-0.2,0.3-0.4,0.5-0.4c0.3,0,0.5,0.2,0.5,0.5C18.5,12.2,18.3,12.4,18.1,12.5z M19.9,18.1C19.9,18.1,19.9,18.1,19.9,18.1l-13-13c0,0,0,0,0,0l-3-3C3.7,2,3.4,2,3.2,2.1C3,2.3,3,2.7,3.1,2.9L5.3,5H4C2.3,5,1,6.3,1,8v8c0,1.7,1.3,3,3,3h15.3l2.9,2.9c0.1,0.1,0.2,0.1,0.4,0.1c0.1,0,0.3-0.1,0.4-0.1c0.2-0.2,0.2-0.5,0-0.7L19.9,18.1z M11.1,10.8l2.1,2.1c-0.2,0.2-0.3,0.4-0.6,0.5c-0.8,0.3-1.6,0-2-0.8C10.3,12,10.6,11.2,11.1,10.8z M4,18c-1.1,0-2-0.9-2-2V8c0-1.1,0.9-2,2-2h2.3l4.1,4.1c-0.6,0.5-0.9,1.2-0.9,1.9c0,1.4,1.1,2.5,2.5,2.5c0.7,0,1.4-0.3,1.9-0.9l4.4,4.4H4z M20,5h-9.2c-0.3,0-0.5,0.2-0.5,0.5S10.5,6,10.8,6H20c1.1,0,2,0.9,2,2v8c0,0.3-0.1,0.6-0.2,0.8c0,0.1,0,0.1,0,0.2c0,0.3,0.2,0.5,0.5,0.5c0.2,0,0.4-0.1,0.5-0.3c0.2-0.4,0.3-0.8,0.3-1.3V8C23,6.3,21.7,5,20,5z M6,10.5c-0.8,0-1.5,0.7-1.5,1.5s0.7,1.5,1.5,1.5c0.8,0,1.5-0.7,1.5-1.5C7.5,11.2,6.8,10.5,6,10.5z M6,12.5c-0.3,0-0.5-0.2-0.5-0.5s0.2-0.5,0.5-0.5c0.3,0,0.5,0.2,0.5,0.5C6.5,12.3,6.3,12.5,6,12.5z"/></svg>