<svg xmlns="http://www.w3.org/2000/svg" enable-background="new 0 0 24 24" viewBox="0 0 24 24"><path fill="#6563ff" d="M19,2H5C3.3438721,2.0018311,2.0018311,3.3438721,2,5v10c0.0018311,1.6561279,1.3438721,2.9981689,3,3h2.6365356l-0.5848389,0.9736328c-0.1871948,0.3120117-0.2855835,0.6692505-0.284668,1.0331421C6.7698364,21.1104126,7.6668091,22.0028076,8.7704468,22h6.460022c0.3610229-0.0005493,0.71521-0.098938,1.0247803-0.284668c0.9460449-0.567627,1.2528076-1.7946777,0.6852417-2.7407227L16.3602295,18H19c1.6561279-0.0018311,2.9981689-1.3438721,3-3V5C21.9981689,3.3438721,20.6561279,2.0018311,19,2z M15.2305298,21h-6.460022c-0.1824951,0.0009155-0.3616943-0.0482178-0.5182495-0.1420288c-0.4729614-0.2834473-0.6265869-0.8967285-0.3431396-1.3696899L8.8035889,18h6.3926392l0.8858643,1.4873047c0.0929565,0.1544189,0.142395,0.3311157,0.1430054,0.5114136C16.2269287,20.5498657,15.7816772,20.9981689,15.2305298,21z M21,15c-0.0014038,1.1040039-0.8959961,1.9985962-2,2H5c-1.1040649-0.0012817-1.9987183-0.8959351-2-2v-1h18V15z M21,13H3V5c0.0012817-1.1040649,0.8959351-1.9987183,2-2h14c1.1040039,0.0014038,1.9985962,0.8959961,2,2V13z"/></svg>