<svg xmlns="http://www.w3.org/2000/svg" enable-background="new 0 0 24 24" viewBox="0 0 24 24"><path fill="#6563ff" d="M8.5,19C8.776123,19,9,18.776123,9,18.5S8.776123,18,8.5,18S8,18.223877,8,18.5S8.223877,19,8.5,19z M19.5,2h-15C3.119812,2.0012817,2.0012817,3.119812,2,4.5v15c0.0012817,1.380188,1.119812,2.4987183,2.5,2.5h15c1.380188-0.0012817,2.4987183-1.119812,2.5-2.5v-15C21.9987183,3.119812,20.880188,2.0012817,19.5,2z M21,19.5c-0.0009155,0.828064-0.671936,1.4990845-1.5,1.5h-15c-0.828064-0.0009155-1.4990845-0.671936-1.5-1.5V16h18V19.5z M21,15H3V9.5h5c0.1326294,0,0.2597656-0.0526733,0.3535156-0.1464844l1.6220703-1.6220703l3.1484375,3.5976562c0.0908813,0.1043701,0.2210693,0.1663208,0.359375,0.1708984H13.5c0.1326294,0,0.2597656-0.0526733,0.3535156-0.1464844L15.7069702,9.5H21V15z M21,8.5h-5.5c-0.1326294,0-0.2597656,0.0526733-0.3535156,0.1464844l-1.6220703,1.6220703l-3.1484375-3.5976562C10.2850952,6.5665283,10.1549072,6.5045776,10.0166016,6.5C9.878418,6.49646,9.744812,6.5493774,9.6464844,6.6464844L7.7930298,8.5H3v-4C3.0009155,3.671936,3.671936,3.0009155,4.5,3h15c0.828064,0.0009155,1.4990845,0.671936,1.5,1.5V8.5z M5.5,19C5.776123,19,6,18.776123,6,18.5S5.776123,18,5.5,18S5,18.223877,5,18.5S5.223877,19,5.5,19z"/></svg>