<svg xmlns="http://www.w3.org/2000/svg" enable-background="new 0 0 24 24" viewBox="0 0 24 24"><path fill="#6563ff" d="M12,2C6.4771729,2,2,6.4771729,2,12s4.4771729,10,10,10c5.5201416-0.0064697,9.9935303-4.4798584,10-10C22,6.4771729,17.5228271,2,12,2z M3,12c0-4.1876831,2.8641357-7.6968994,6.7374878-8.7017822c3.2164917,0.8233032,5.7238159,3.3483887,6.508728,6.5807495c1.1622925,4.7869263-1.7466431,9.6049805-6.5047607,10.8238525C5.8660889,19.6992798,3,16.1890869,3,12z M12,21c-0.06427,0-0.1264038-0.0082397-0.1903687-0.0095825c2.6746216-1.2789917,4.6922607-3.6837769,5.4085083-6.6343384c1.1312866-4.6605835-1.2107544-9.3480835-5.3640747-11.3486938C11.9031372,3.0065918,11.9507446,3,12,3c4.9683228,0.0054321,8.9945679,4.0316772,9,9C21,16.9705811,16.9705811,21,12,21z"/></svg>