<svg xmlns="http://www.w3.org/2000/svg" enable-background="new 0 0 24 24" viewBox="0 0 24 24"><path fill="#6563ff" d="M22.0482178,13.2746582c-0.1265259-0.2453003-0.4279175-0.3416138-0.6732178-0.2150879C20.1774902,13.6793823,18.8483887,14.0019531,17.5,14c-0.8480835-0.0005493-1.6913452-0.1279297-2.50177-0.3779297c-4.4887085-1.3847046-7.0050049-6.1460571-5.6203003-10.6347656c0.0320435-0.1033325,0.0296021-0.2142944-0.0068359-0.3161621C9.2781372,2.411377,8.9921875,2.2761841,8.7324219,2.3691406C4.6903076,3.800293,1.9915771,7.626709,2,11.9146729C2.0109863,17.4956055,6.5440674,22.0109863,12.125,22c4.9342651,0.0131226,9.1534424-3.5461426,9.9716797-8.4121094C22.1149292,13.4810181,22.0979614,13.3710327,22.0482178,13.2746582z M16.0877075,20.0958252c-4.5321045,2.1853027-9.9776611,0.2828979-12.1630249-4.2492065S3.6417236,5.8689575,8.1738281,3.6835938C8.0586548,4.2776489,8.0004272,4.8814087,8,5.4865723C7.9962769,10.7369385,12.2495728,14.9962769,17.5,15c1.1619263,0.0023193,2.3140869-0.2119751,3.3974609-0.6318359C20.1879272,16.8778076,18.4368896,18.9630127,16.0877075,20.0958252z"/></svg>