<svg xmlns="http://www.w3.org/2000/svg" enable-background="new 0 0 24 24" viewBox="0 0 24 24"><path fill="#6563ff" d="M10.5,20h-4C6.223877,20,6,20.223877,6,20.5S6.223877,21,6.5,21h4c0.276123,0,0.5-0.223877,0.5-0.5S10.776123,20,10.5,20z M19.5,16h-2.480957c1.0751953-1.2264404,1.7611084-2.7573242,1.9350586-4.3994141c0.0082397-0.0774536-0.00177-0.1558228-0.0291748-0.2287598c-0.097229-0.2583008-0.385376-0.388916-0.6436768-0.291748C17.5523071,11.3563232,16.77948,11.4985352,16,11.5c-0.4815063,0.0008545-0.9615479-0.0518799-1.4313965-0.1572266c-3.496582-0.7841187-5.6954956-4.2543945-4.911377-7.7509766c0.0166016-0.0755005,0.0154419-0.1538696-0.0033569-0.2288208C9.586792,3.0948486,9.3150024,2.9318848,9.046875,2.9990234C7.4084473,3.4100952,5.9423828,4.3297119,4.8591919,5.6259766C2.302124,8.6860352,2.4324341,13.0901489,4.9777832,16H2.5C2.223877,16,2,16.223877,2,16.5S2.223877,17,2.5,17h17c0.276123,0,0.5-0.223877,0.5-0.5S19.776123,16,19.5,16z M6.3735352,16c-0.8646851-0.7607422-1.5281372-1.7232666-1.9312134-2.802124C3.0906982,9.5806885,4.9273071,5.5527344,8.5444336,4.2011719C8.5148926,4.4664307,8.500061,4.7330933,8.5,5c0.0045166,4.1402588,3.3597412,7.4954834,7.5,7.5c0.6186523-0.0003052,1.2348022-0.0784302,1.8339844-0.2324219C17.5115356,13.7158813,16.7352905,15.0234985,15.6181641,16H6.3735352z M15.5,20h-2c-0.276123,0-0.5,0.223877-0.5,0.5s0.223877,0.5,0.5,0.5h2c0.276123,0,0.5-0.223877,0.5-0.5S15.776123,20,15.5,20z"/></svg>