<svg xmlns="http://www.w3.org/2000/svg" enable-background="new 0 0 24 24" viewBox="0 0 24 24"><path fill="#6563ff" d="M21.9267578,18.2392578l-5.5-9c-0.0350952-0.050293-0.0787964-0.0940552-0.1290894-0.1291504c-0.2357178-0.1643677-0.5600586-0.1065674-0.7244263,0.1291504l-1.4603271,2.3896484L10.4326172,5.25c-0.0380249-0.0570068-0.0869751-0.105957-0.1439819-0.1439819C10.0496826,4.9465942,9.7268066,5.0110474,9.5673828,5.25l-7.5,13c-0.0438232,0.0758667-0.0668945,0.1619873-0.0670166,0.2496338C2.0001831,18.7757568,2.223877,18.9997559,2.5,19h19c0.092041,0,0.182312-0.0253906,0.2608643-0.0733643C21.996521,18.7826538,22.0707397,18.4748535,21.9267578,18.2392578z M10.2194824,18h-6.854248L10,6.5009766l3.5195312,6.0986328l-1.2374268,2.0251465L10.2194824,18z M11.3916016,18L16,10.4589844L20.6083984,18H11.3916016z"/></svg>