<svg xmlns="http://www.w3.org/2000/svg" enable-background="new 0 0 24 24" viewBox="0 0 24 24"><path fill="#6563ff" d="M16.4267578,12.2392578c-0.0350952-0.050293-0.0787964-0.0940552-0.1290894-0.1291504c-0.2357178-0.1643677-0.5600586-0.1065674-0.7244263,0.1291504l-1.4603271,2.3896484L10.4326172,8.25c-0.0380249-0.0570068-0.0869751-0.105957-0.1439819-0.1439819C10.0496826,7.9465942,9.7268066,8.0110474,9.5673828,8.25l-7.5,13c-0.0438232,0.0758667-0.0668945,0.1619873-0.0670166,0.2496338C2.0001831,21.7757568,2.223877,21.9997559,2.5,22h19c0.092041,0,0.182312-0.0253906,0.2608643-0.0733643c0.2356567-0.1439819,0.3098755-0.4517822,0.1658936-0.6873779L16.4267578,12.2392578z M3.3652344,21L10,9.5009766l3.5195312,6.0986328l-1.2374268,2.0251465L10.2194824,21H3.3652344z M11.3916016,21L16,13.4589844L20.6083984,21H11.3916016z M18,10c2.208252-0.0021973,3.9978027-1.791748,4-4c0-2.2091675-1.7908325-4-4-4s-4,1.7908325-4,4S15.7908325,10,18,10z M18,3c1.6561279,0.0018311,2.9981689,1.3438721,3,3c0,1.6568604-1.3431396,3-3,3s-3-1.3431396-3-3S16.3431396,3,18,3z"/></svg>