<svg xmlns="http://www.w3.org/2000/svg" enable-background="new 0 0 24 24" viewBox="0 0 24 24"><path fill="#6563ff" d="M12,6.0009766c-0.276123,0-0.5,0.223877-0.5,0.5v3.0006104c0.0001831,0.2759399,0.223999,0.4995728,0.5,0.4993896h0.0005493c0.276001-0.0001221,0.4996338-0.223999,0.4994507-0.5v-3C12.5,6.2248535,12.276123,6.0009766,12,6.0009766z M12,2C8.1340332,2,5,5.1340332,5,9v6c0.0046997,3.8640747,3.1359253,6.9953003,7,7c3.8640747-0.0046997,6.9953003-3.1359253,7-7V9C19,5.1340332,15.8659668,2,12,2z M18,15c0,3.3137207-2.6862793,6-6,6s-6-2.6862793-6-6V9c0.0036011-3.3121948,2.6878052-5.9963989,6-6c3.3121948,0.0036011,5.9963989,2.6878052,6,6V15z"/></svg>