<svg xmlns="http://www.w3.org/2000/svg" enable-background="new 0 0 24 24" viewBox="0 0 24 24"><path fill="#6563ff" d="M12,2C8.1340332,2,5,5.1340332,5,9v6c0.0046997,3.8640747,3.1359253,6.9953003,7,7c3.8640747-0.0046997,6.9953003-3.1359253,7-7V9C19,5.1340332,15.8659668,2,12,2z M6,9c0.003418-3.1433716,2.4224854-5.7166138,5.5-5.9742432v7.9752197H6V9z M18,15c0,3.3137207-2.6862793,6-6,6s-6-2.6862793-6-6v-2.9990234h12V15z M18,11.0009766h-5.5V3.0257568C15.5775146,3.2833862,17.996582,5.8566284,18,9V11.0009766z"/></svg>