<svg xmlns="http://www.w3.org/2000/svg" enable-background="new 0 0 24 24" viewBox="0 0 24 24"><path fill="#6563ff" d="M18.8076172,2.1054688c-0.1209717-0.0953369-0.27948-0.1289062-0.4287109-0.0908203l-8,2C10.15625,4.0703735,10,4.2704468,10,4.5v5.9985352C10,10.4990234,9.9997559,10.4995117,9.9997559,10.5C9.9997559,10.5004272,10,10.5007935,10,10.5012207v6.2773438C9.4683838,16.2996826,8.7718506,16,8,16c-1.6568604,0-3,1.3431396-3,3s1.3431396,3,3,3c1.6561279-0.0018311,2.9981689-1.3438721,3-3v-8.109375l7.6210938-1.9052734c0.0132446-0.0033569,0.0227661-0.0126343,0.0355225-0.0169678c0.03302-0.0110474,0.0620117-0.0264282,0.0915527-0.0437622c0.0263672-0.015564,0.0516357-0.0303955,0.0744019-0.0501709c0.026123-0.0224609,0.0467529-0.0479736,0.067749-0.0753784c0.0176392-0.0231323,0.0344238-0.045105,0.0477905-0.0709229c0.0161133-0.0308228,0.026001-0.0631104,0.0354614-0.097229c0.0079956-0.0289917,0.0149536-0.0569458,0.0176392-0.0872803C18.9926147,8.5285034,19,8.5155029,19,8.5v-6C18.999939,2.3458862,18.9290161,2.2004395,18.8076172,2.1054688z M8,21c-1.1045532,0-2-0.8954468-2-2s0.8954468-2,2-2c1.1040039,0.0014038,1.9985962,0.8959961,2,2C10,20.1045532,9.1045532,21,8,21z M18,8.109375l-7,1.75v-4.96875l7-1.75V8.109375z"/></svg>