<svg xmlns="http://www.w3.org/2000/svg" enable-background="new 0 0 24 24" viewBox="0 0 24 24"><path fill="#6563ff" d="M11.5,8.6601562c0.276123,0,0.5-0.223877,0.5-0.5V4.890625l7-1.75v4.96875l-5.7509766,1.4355469c-0.2228394,0.055542-0.3792114,0.2557373-0.3791504,0.4853516c0.000061,0.2762451,0.2240601,0.500061,0.5002441,0.5c0.0408325-0.0001221,0.0814209-0.0050049,0.1210938-0.0146484l6.1298828-1.5302734C19.84375,8.9296265,20,8.7295532,20,8.5v-6c0.000061-0.0410156-0.0050049-0.0819092-0.0149536-0.1217041c-0.0669556-0.2678223-0.3383179-0.430603-0.6061401-0.3636475l-8,2C11.15625,4.0703735,11,4.2704468,11,4.5v3.6601562C11,8.4362793,11.223877,8.6601562,11.5,8.6601562z M21.8534546,21.1465454l-19-19c-0.1937256-0.1871948-0.5009155-0.1871948-0.6947021,0C1.960144,2.3383789,1.9546509,2.6549072,2.1464844,2.8535156L11,11.7070312v5.0715332C10.4683838,16.2996826,9.7718506,16,9,16c-1.6568604,0-3,1.3431396-3,3s1.3431396,3,3,3c1.6561279-0.0018311,2.9981689-1.3438721,3-3v-6.2929688l9.1464844,9.1464844C21.2401123,21.9474487,21.3673706,22.0001831,21.5,22c0.1325073-0.000061,0.2595825-0.0526733,0.3533325-0.1463623C22.048645,21.6583862,22.0487061,21.3417969,21.8534546,21.1465454z M9,21c-1.1045532,0-2-0.8954468-2-2s0.8954468-2,2-2c1.1040039,0.0014038,1.9985962,0.8959961,2,2C11,20.1045532,10.1045532,21,9,21z"/></svg>