<svg xmlns="http://www.w3.org/2000/svg" enable-background="new 0 0 24 24" viewBox="0 0 24 24"><path fill="#6563ff" d="M21.9941406,2.4235229c-0.0421753-0.2728271-0.2974854-0.4598389-0.5703125-0.4176636l-14,2.1640625C7.1799316,4.2074585,6.999939,4.4172974,7,4.6640625v12.102417C6.4608154,16.2838745,5.7540894,16,4.9998169,15.999939c-1.6571655-0.0002441-3.0007324,1.3429565-3.0009155,3.0001221c-0.0002441,1.6571655,1.3429565,3.0007324,3.0001221,3.0009155c0.3837891-0.0005493,0.763916-0.074707,1.119873-0.2183838c1.1633301-0.4695435,1.8695679-1.5849609,1.8778076-2.7662354C7.9968872,19.0106201,8,19.0057983,8,19v-7.500061c0.0255127-0.000061,0.0509033-0.0020142,0.0761719-0.0057983L21,9.5058594v5.2727051C20.4683838,14.2996826,19.7718506,14,19,14c-1.6568604,0-3,1.3431396-3,3s1.3431396,3,3,3c1.6561279-0.0018311,2.9981689-1.3438721,3-3V2.5C22,2.4744263,21.9980469,2.4488525,21.9941406,2.4235229z M5.0029907,21c-1.1048584,0.0018921-2.0020752-0.8922119-2.0039673-1.9970703s0.8922119-2.0020142,1.9970703-2.0039062c0.8154297,0.0001831,1.5496216,0.4938354,1.8574219,1.2489624C6.9498291,18.4856567,6.9995728,18.739624,7,18.9960327C7.0018921,20.1008911,6.1077881,20.9981079,5.0029907,21z M19,19c-1.1045532,0-2-0.8954468-2-2s0.8954468-2,2-2c1.1040039,0.0014038,1.9985962,0.8959961,2,2C21,18.1045532,20.1045532,19,19,19z M21,8.508667c-0.0256958,0.0001831-0.0500488-0.0070801-0.0761719-0.0028076L8,10.4941406V5.0927734l13-2.0097656V8.508667z"/></svg>