<svg xmlns="http://www.w3.org/2000/svg" enable-background="new 0 0 24 24" viewBox="0 0 24 24"><path fill="#6563ff" d="M8.5,6C8.223877,6,8,6.223877,8,6.5v9.0390625L2.9384766,6.2607422C2.8509521,6.0999756,2.6824341,5.999939,2.4993896,6.000061C2.2234497,6.0001831,1.9998779,6.2240601,2,6.5v10.9853516c0,0.276123,0.223877,0.5,0.5,0.5s0.5-0.223877,0.5-0.5V8.4609375l5.0615234,9.2783203C8.1489868,17.8998413,8.3171387,17.9998169,8.5,18C8.776123,18,9,17.776123,9,17.5v-11C9,6.223877,8.776123,6,8.5,6z M12,4c-0.276123,0-0.5,0.223877-0.5,0.5v15c0,0.0001831,0,0.0003662,0,0.0005493C11.5001831,19.7765503,11.723999,20.0001831,12,20c0.0001831,0,0.0003662,0,0.0006104,0c0.2759399-0.0001831,0.4995728-0.223999,0.4993896-0.5v-15C12.5,4.223877,12.276123,4,12,4z M19,6h-1c-1.6561279,0.0018311-2.9981689,1.3438721-3,3v8.5c0,0.276123,0.223877,0.5,0.5,0.5s0.5-0.223877,0.5-0.5v-5h5v5c0,0.0001831,0,0.0003662,0,0.0005493C21.0001831,17.7765503,21.223999,18.0001831,21.5,18c0.0001831,0,0.0003662,0,0.0006104,0C21.7765503,17.9998169,22.0001831,17.776001,22,17.5V9C21.9981689,7.3438721,20.6561279,6.0018311,19,6z M21,11.5h-5V9c0.0014038-1.1040039,0.8959961-1.9985962,2-2h1c1.1040039,0.0014038,1.9985962,0.8959961,2,2V11.5z"/></svg>