<svg xmlns="http://www.w3.org/2000/svg" enable-background="new 0 0 24 24" viewBox="0 0 24 24"><path fill="#6563ff" d="M20.5585938,9.6669922L5.7822266,2.2773438c-0.697998-0.3486328-1.5153809-0.3665161-2.2280273-0.0488892C2.2380371,2.8151245,1.6467285,4.357666,2.2333984,5.6738281l2.5302734,5.6708984c0.1865234,0.4169312,0.1865234,0.8936157,0,1.3105469l-2.5302734,5.6708984c-0.1456909,0.3285522-0.222168,0.6836548-0.2245483,1.0430298c-0.0097046,1.4448853,1.1536865,2.6240234,2.5985718,2.633728c0.4080811-0.0007935,0.8103638-0.0967407,1.1748047-0.2802734l14.7763672-7.3896484c0.5043335-0.2523804,0.913269-0.6613159,1.1656494-1.1656494C22.3689575,11.8789062,21.8470459,10.3117065,20.5585938,9.6669922z M20.1113892,13.4384766L5.335022,20.828125c-0.4302979,0.2149048-0.9342041,0.2259521-1.3735352,0.0300903c-0.8112793-0.3616943-1.1757202-1.312561-0.8140259-2.1237793l2.5302734-5.6708984C5.758606,12.8814697,5.8138428,12.6921387,5.8511963,12.5h7.6937256c0.276123,0,0.5-0.223877,0.5-0.5s-0.223877-0.5-0.5-0.5H5.8511963c-0.0373535-0.1921387-0.0925903-0.3814697-0.1734619-0.5634766L3.147522,5.265625C2.9516602,4.8262939,2.9626465,4.3223877,3.1775513,3.8920898C3.5744629,3.0974731,4.5403442,2.7750244,5.335022,3.171875l14.7763672,7.3895874c0.3109131,0.1555786,0.5630493,0.4077759,0.7186279,0.718689C21.2276001,12.074585,20.9058228,13.0408936,20.1113892,13.4384766z"/></svg>