<svg xmlns="http://www.w3.org/2000/svg" enable-background="new 0 0 24 24" viewBox="0 0 24 24"><path fill="#6563ff" d="M12,2C6.4771729,2,2,6.4771729,2,12s4.4771729,10,10,10c5.5201416-0.0064697,9.9935303-4.4798584,10-10C22,6.4771729,17.5228271,2,12,2z M12,3c3.7268066,0.0040894,6.9234009,2.2705688,8.2906494,5.5h-2.8019409c-0.4563599-0.6038208-1.1734619-1-1.9887085-1c-0.9771118,0-1.814209,0.565918-2.2254639,1.3829956c-0.7921143-0.4560547-1.7622681-0.4402466-2.5442505,0.0089111C10.3207397,8.0699463,9.4807129,7.5,8.5,7.5c-0.8152466,0-1.5323486,0.3961792-1.9887085,1H3.7061157C5.0715942,5.2681274,8.270874,3,12,3z M17,10c0,0.8284302-0.6715698,1.5-1.5,1.5S14,10.8284302,14,10s0.6715698-1.5,1.5-1.5C16.328064,8.5009155,16.9990845,9.171936,17,10z M10,10c0,0.8284302-0.6715698,1.5-1.5,1.5S7,10.8284302,7,10s0.6715698-1.5,1.5-1.5C9.328064,8.5009155,9.9990845,9.171936,10,10z M12,21c-4.9705811,0-9-4.0294189-9-9c0-0.8684692,0.1296997-1.7054443,0.3592529-2.5H6.050415C6.0175781,9.6616211,6,9.8287354,6,10c0,1.3807373,1.1192627,2.5,2.5,2.5c1.380188-0.0012817,2.4987183-1.119812,2.5-2.5c0-0.0316162-0.0081787-0.0610352-0.0093384-0.0924072c0.5836792-0.5139771,1.4476318-0.4979858,2.0178833,0.0073242C13.0075684,9.9438477,13,9.9708252,13,10c0,1.3807373,1.1192627,2.5,2.5,2.5c1.380188-0.0012817,2.4987183-1.119812,2.5-2.5c0-0.1712646-0.0175781-0.3383789-0.050415-0.5h2.6887207C20.8685303,10.2944946,20.9990234,11.1314697,21,12C21,16.9705811,16.9705811,21,12,21z M14.6787109,14.6171875c-1.5650024,1.2558594-3.7924194,1.2558594-5.3574219,0c-0.2114258-0.1774292-0.5266724-0.1499023-0.7041016,0.0615234s-0.1499023,0.5266724,0.0615234,0.7041016C9.6098022,16.1627808,10.7854004,16.5906982,12,16.5917969c1.2145996-0.0010986,2.3901978-0.4290161,3.3212891-1.2089844c0.2114258-0.1774292,0.2389526-0.4926758,0.0615234-0.7041016S14.8901367,14.4397583,14.6787109,14.6171875z"/></svg>