<svg xmlns="http://www.w3.org/2000/svg" enable-background="new 0 0 24 24" viewBox="0 0 24 24"><path fill="#6563ff" d="M12,2C6.4771729,2,2,6.4771729,2,12s4.4771729,10,10,10c5.5201416-0.0064697,9.9935303-4.4798584,10-10C22,6.4771729,17.5228271,2,12,2z M12,3c2.1387939,0.0023193,4.1004028,0.7529907,5.6444092,2H6.348938C7.894104,3.7510376,9.8584595,3,12,3z M5.3052368,6H18.68927C20.1193237,7.5928955,20.9974976,9.6913452,21,12H3C3,9.6916504,3.8764648,7.5930786,5.3052368,6z M12,21c-4.6322021,0-8.4434204-3.5005493-8.9413452-8h17.8826904C20.4434204,17.4994507,16.6322021,21,12,21z M8,7.5C7.1715698,7.5,6.5,8.1715698,6.5,9s0.6715698,1.5,1.5,1.5C8.828064,10.4990845,9.4990845,9.828064,9.5,9C9.5,8.1715698,8.8284302,7.5,8,7.5z M8,9.5C7.723877,9.5,7.5,9.276123,7.5,9S7.723877,8.5,8,8.5C8.2759399,8.5005493,8.4994507,8.7240601,8.5,9C8.5,9.276123,8.276123,9.5,8,9.5z M11.5,17.5595703c0.180603,0.0001221,0.347229-0.0973511,0.4355469-0.2548828C12.5563965,16.1940918,13.7276611,15.5043335,15,15.5c0.276123,0,0.5-0.223877,0.5-0.5s-0.223877-0.5-0.5-0.5c-1.6334839,0.0043945-3.1377563,0.8890381-3.9355469,2.3144531c-0.0419312,0.074646-0.0640259,0.1588745-0.0640869,0.2445068C11.000061,17.3352051,11.2238159,17.5593262,11.5,17.5595703z M14,7.5c-0.8284302,0-1.5,0.6715698-1.5,1.5s0.6715698,1.5,1.5,1.5c0.828064-0.0009155,1.4990845-0.671936,1.5-1.5C15.5,8.1715698,14.8284302,7.5,14,7.5z M14,9.5c-0.276123,0-0.5-0.223877-0.5-0.5s0.223877-0.5,0.5-0.5c0.2759399,0.0005493,0.4994507,0.2240601,0.5,0.5C14.5,9.276123,14.276123,9.5,14,9.5z"/></svg>