<svg xmlns="http://www.w3.org/2000/svg" enable-background="new 0 0 24 24" viewBox="0 0 24 24"><path fill="#6563ff" d="M21.5,21h-1.7034302L15.0087891,3.8291016C14.7055054,2.7493896,13.7220459,2.0024414,12.6005859,2h-1.2011719c-1.1211548,0.0024414-2.1044922,0.7488403-2.4082031,1.828125L4.2033691,21H2.5C2.223877,21,2,21.223877,2,21.5S2.223877,22,2.5,22h2.0830078h14.8339844H21.5c0.276123,0,0.5-0.223877,0.5-0.5S21.776123,21,21.5,21z M9.9541016,4.0966797C10.1367798,3.4492798,10.7267456,3.0016479,11.3994141,3h1.2011719c0.6729736,0.001709,1.2630615,0.4498291,1.4453125,1.0976562L15.4128418,9H8.5869751L9.9541016,4.0966797z M8.3081665,10h7.3834839l1.394165,5H6.9141235L8.3081665,10z M5.2412109,21l1.394043-5H17.364624l1.394165,5H5.2412109z"/></svg>