<svg xmlns="http://www.w3.org/2000/svg" enable-background="new 0 0 24 24" viewBox="0 0 24 24"><path fill="#6563ff" d="M16.5,14h-9C7.223877,14,7,14.223877,7,14.5S7.223877,15,7.5,15h9c0.276123,0,0.5-0.223877,0.5-0.5S16.776123,14,16.5,14z M20.5,4h-4V2.5C16.5,2.223877,16.276123,2,16,2s-0.5,0.223877-0.5,0.5V4h-3V2.5C12.5,2.223877,12.276123,2,12,2s-0.5,0.223877-0.5,0.5V4h-3V2.5C8.5,2.223877,8.276123,2,8,2S7.5,2.223877,7.5,2.5V4h-4C3.4998169,4,3.4996338,4,3.4993896,4C3.2234497,4.0001831,2.9998169,4.223999,3,4.5v15c0.0012817,1.380188,1.119812,2.4987183,2.5,2.5h13c1.380188-0.0012817,2.4987183-1.119812,2.5-2.5v-15c0-0.0001831,0-0.0003662,0-0.0006104C20.9998169,4.2234497,20.776001,3.9998169,20.5,4z M20,19.5c-0.0009155,0.828064-0.671936,1.4990845-1.5,1.5h-13c-0.828064-0.0009155-1.4990845-0.671936-1.5-1.5V5h3.5v1.5c0,0.0001831,0,0.0003662,0,0.0006104C7.5001831,6.7765503,7.723999,7.0001831,8,7c0.0001831,0,0.0003662,0,0.0006104,0C8.2765503,6.9998169,8.5001831,6.776001,8.5,6.5V5h3v1.5c0,0.0001831,0,0.0003662,0,0.0006104C11.5001831,6.7765503,11.723999,7.0001831,12,7c0.0001831,0,0.0003662,0,0.0006104,0C12.2765503,6.9998169,12.5001831,6.776001,12.5,6.5V5h3v1.5c0,0.0001831,0,0.0003662,0,0.0006104C15.5001831,6.7765503,15.723999,7.0001831,16,7c0.0001831,0,0.0003662,0,0.0006104,0C16.2765503,6.9998169,16.5001831,6.776001,16.5,6.5V5H20V19.5z M9.5,10C9.223877,10,9,10.223877,9,10.5S9.223877,11,9.5,11h7c0.276123,0,0.5-0.223877,0.5-0.5S16.776123,10,16.5,10H9.5z"/></svg>