<svg xmlns="http://www.w3.org/2000/svg" enable-background="new 0 0 24 24" viewBox="0 0 24 24"><path fill="#6563ff" d="M21.8535156,7.7119141l-5.5654297-5.5654297C16.1943359,2.0526733,16.0671997,2,15.9345703,2H8.0654297C7.9328003,2,7.8056641,2.0526733,7.7119141,2.1464844L2.1464844,7.7119141C2.0526733,7.8056641,2,7.9328003,2,8.0654297v7.8691406c0,0.1326294,0.0526733,0.2597656,0.1464844,0.3535156l5.5654297,5.5654297C7.8056641,21.9473267,7.9328003,22,8.0654297,22h7.8691406c0.1326294,0,0.2597656-0.0526733,0.3535156-0.1464844l5.5654297-5.5654297C21.9473267,16.1943359,22,16.0671997,22,15.9345703V8.0654297C22,7.9328003,21.9473267,7.8056641,21.8535156,7.7119141z M21,15.7275391L15.7275391,21H8.2724609L3,15.7275391V8.2724609L8.2724609,3h7.4550781L21,8.2724609V15.7275391z"/></svg>