<svg xmlns="http://www.w3.org/2000/svg" enable-background="new 0 0 24 24" viewBox="0 0 24 24"><path fill="#6563ff" d="M21.5,2h-5C16.223877,2,16,2.223877,16,2.5S16.223877,3,16.5,3h3.7930908l-5.1526489,5.1526489c-0.1871948,0.1937256-0.1871948,0.5009766,0,0.6947021c0.1918335,0.1986084,0.5083618,0.2041016,0.7069702,0.0122681L21,3.7070312V7.5c0,0.0001831,0,0.0003662,0,0.0006104C21.0001831,7.7765503,21.223999,8.0001831,21.5,8c0.0001831,0,0.0003662,0,0.0006104,0C21.7765503,7.9998169,22.0001831,7.776001,22,7.5v-5c0-0.0001831,0-0.0003662,0-0.0006104C21.9998169,2.2234497,21.776001,1.9998169,21.5,2z M19.5673828,12.9375c-0.1972656-0.0371704-0.3935547-0.0801392-0.5888672-0.1269531c-0.4103394-0.100708-0.8143921-0.2255859-1.2099609-0.3740234c-0.9510498-0.3596802-2.0210571,0.0462646-2.4941406,0.9462891l-0.7510376,1.4423828c-1.1099854-0.6298828-2.1290894-1.4078369-3.0292969-2.3125c-0.9022827-0.9032593-1.6776123-1.9249878-2.3046875-3.0371094l1.4335938-0.7460938c0.8991699-0.4733887,1.3052368-1.5421143,0.9473267-2.4931641c-0.1488037-0.397522-0.2740479-0.8035278-0.375-1.2158203c-0.0488281-0.1933594-0.0898438-0.3896484-0.1269531-0.5869141C10.7978516,3.0154419,9.5540771,1.9921265,8.1103516,2H5.0341797C4.1488647,2.0001221,3.3076172,2.3862915,2.7304688,3.0576172c-0.5722046,0.6624146-0.8264771,1.541687-0.6962891,2.4072266c1.331604,8.5020752,7.9979248,15.1730957,16.4990234,16.5107422c0.1480103,0.022522,0.2975464,0.0339355,0.4472656,0.0341797c0.7195435-0.0008545,1.414978-0.2596436,1.9599609-0.7294922C21.6130371,20.703064,22.000061,19.8609009,22,18.9746094v-3.078125C22.0082397,14.4527588,20.9854126,13.2086182,19.5673828,12.9375z M21,18.9746094c-0.0002441,0.5947876-0.2603149,1.15979-0.7119141,1.546875c-0.4417725,0.3809814-1.0274048,0.5510254-1.6044922,0.4658203C10.6148071,19.7174072,4.2873535,13.3859863,3.0224609,5.3164673C2.9361572,4.7386475,3.1062622,4.1519775,3.4882812,3.710022C3.8755493,3.2594604,4.4400635,3.0001831,5.0341797,3h3.0761719c0.9614258-0.0076904,1.7915649,0.6713867,1.9746094,1.6152344C10.125,4.8320312,10.171875,5.0478516,10.2246094,5.2607422c0.1102905,0.449707,0.2468872,0.8925171,0.4091797,1.3261719c0.1815796,0.4779053-0.0210571,1.0162354-0.4726562,1.2558594L8.2773438,8.8232422C8.2767944,8.8235474,8.2762451,8.8237915,8.2756958,8.8240967c-0.2441406,0.1275024-0.3387451,0.428772-0.2112427,0.6729736c0.7114258,1.3723145,1.6289673,2.6274414,2.7207031,3.7216797c1.0909424,1.0958252,2.3438721,2.017395,3.7148438,2.7324219c0.1181641,0.0600586,0.2550049,0.0719604,0.3817749,0.0332031c0.1263428-0.0396118,0.2316895-0.1278076,0.2930298-0.2451172l0.9863281-1.8945312c0.2393799-0.4512939,0.7772217-0.6538696,1.2548828-0.4726562c0.4331055,0.1629639,0.8756104,0.2996216,1.3251953,0.4091797c0.2119141,0.0527344,0.4257812,0.0976562,0.6425781,0.1386719C20.3283081,14.1033936,21.0077515,14.9343262,21,15.8964844V18.9746094z"/></svg>