<svg xmlns="http://www.w3.org/2000/svg" enable-background="new 0 0 24 24" viewBox="0 0 24 24"><path fill="#6563ff" d="M18.5,1h-9C8.119873,1.0014648,7.0014648,2.119873,7,3.5V4H5.5C4.119873,4.0014648,3.0014648,5.119873,3,6.5v4c0.0014648,1.380127,1.119873,2.4985352,2.5,2.5h7c0.828064,0.0009155,1.4990845,0.671936,1.5,1.5V15h-0.5c-0.828064,0.0009155-1.4990845,0.671936-1.5,1.5v5c0.0009155,0.828064,0.671936,1.4990845,1.5,1.5h2c0.828064-0.0009155,1.4990845-0.671936,1.5-1.5v-5c-0.0009155-0.828064-0.671936-1.4990845-1.5-1.5H15v-0.5c-0.0012817-1.380188-1.119812-2.4987183-2.5-2.5h-7c-0.828064-0.0009155-1.4990845-0.671936-1.5-1.5v-4C4.0009155,5.671936,4.671936,5.0009155,5.5,5H7v0.5C7.0014648,6.880127,8.119873,7.9985352,9.5,8h9c1.380188-0.0012817,2.4987183-1.119812,2.5-2.5v-2C20.9987183,2.119812,19.880188,1.0012817,18.5,1z M15.5,16c0.2759399,0.0005493,0.4994507,0.2240601,0.5,0.5v5c-0.0005493,0.2759399-0.2240601,0.4994507-0.5,0.5h-2c-0.2759399-0.0005493-0.4994507-0.2240601-0.5-0.5v-5c0.0005493-0.2759399,0.2240601-0.4994507,0.5-0.5H15.5z M20,5.5c-0.0009155,0.828064-0.671936,1.4990845-1.5,1.5h-9C8.671936,6.9990845,8.0009155,6.328064,8,5.5v-2C8.0009155,2.671936,8.671936,2.0009155,9.5,2h9c0.828064,0.0009155,1.4990845,0.671936,1.5,1.5V5.5z"/></svg>