<svg xmlns="http://www.w3.org/2000/svg" enable-background="new 0 0 24 24" viewBox="0 0 24 24"><path fill="#6563ff" d="M8.1298828,14.7421875H8.1289062c-0.8275146,0.0003052-1.4980469,0.6713257-1.4978027,1.4987793c0.0003052,0.8274536,0.6713257,1.4980469,1.4987793,1.4977417c0.8274536-0.0002441,1.4980469-0.6712646,1.4977417-1.4987793C9.6273804,15.4129028,8.9569702,14.7424927,8.1298828,14.7421875z M8.4824219,16.5966797c-0.1956177,0.1951294-0.5123901,0.1947632-0.7075195-0.0009155c-0.1951294-0.1956177-0.1947632-0.5123291,0.0009155-0.7074585c0.093689-0.0935059,0.2207031-0.1460571,0.3530884-0.1461182h0.0009766c0.1323853-0.0002441,0.2593384,0.0524902,0.3525391,0.1464844C8.6776733,16.0842285,8.6776123,16.401062,8.4824219,16.5966797z M22.2568359,7.0834961C19.5240479,1.6376343,12.8938599-0.5617065,7.447998,2.1711426C3.8388672,3.9822388,1.5075684,7.6204834,1.3701172,11.65625c-0.1768799,6.0855103,4.6130371,11.1622314,10.6985474,11.3391113c0.7751465,0.022522,1.5504761-0.0368042,2.3131714-0.177002c0.9294434-0.170105,1.7501831-0.7099609,2.2744141-1.4960938c0.5692749-0.8582764,0.7718506-1.9085693,0.5625-2.9169922c-0.5445557-2.6643677,0.8396606-5.3484497,3.3261719-6.449707c0.880188-0.3930664,1.55896-1.1321411,1.8759766-2.0424805C22.7526245,8.9867554,22.6934204,7.965332,22.2568359,7.0834961z M21.4794922,9.5766602c-0.2264404,0.652771-0.7122803,1.1831665-1.3427734,1.4658203c-2.9147949,1.2931519-4.536499,4.4408569-3.8974609,7.5649414c0.156189,0.7446289,0.0077515,1.520813-0.4121094,2.1552734c-0.3747559,0.5629883-0.961792,0.9498901-1.6269531,1.0723267C8.7697754,22.84729,3.546936,19.2657471,2.5346069,13.8353271C1.5223389,8.4049683,5.1038818,3.1820679,10.5343018,2.1697998c0.4232788-0.0789185,0.8511963-0.1304321,1.2811279-0.1541748C12.0048828,2.0053711,12.1933594,2.0001831,12.3808594,2c3.7992554-0.0037842,7.2753296,2.137085,8.9814453,5.5317383C21.6774902,8.1691895,21.7197876,8.9074097,21.4794922,9.5766602z M7.8720703,12c0-0.8284302-0.6715698-1.5-1.5-1.5s-1.5,0.6715698-1.5,1.5s0.6715698,1.5,1.5,1.5C7.2001343,13.4990845,7.8711548,12.828064,7.8720703,12z M6.3720703,12.5c-0.276123,0-0.5-0.223877-0.5-0.5s0.223877-0.5,0.5-0.5s0.5,0.223877,0.5,0.5C6.8717041,12.276001,6.6480713,12.4996338,6.3720703,12.5z M12.3720703,16.5c-0.8284302,0-1.5,0.6715698-1.5,1.5s0.6715698,1.5,1.5,1.5s1.5-0.6715698,1.5-1.5C13.8711548,17.171936,13.2001343,16.5009155,12.3720703,16.5z M12.3720703,18.5c-0.276123,0-0.5-0.223877-0.5-0.5s0.223877-0.5,0.5-0.5s0.5,0.223877,0.5,0.5C12.871521,18.2759399,12.6480103,18.4994507,12.3720703,18.5z M12.3720703,4.5c-0.8284302,0-1.5,0.6715698-1.5,1.5s0.6715698,1.5,1.5,1.5s1.5-0.6715698,1.5-1.5C13.8711548,5.171936,13.2001343,4.5009155,12.3720703,4.5z M12.3720703,6.5c-0.276123,0-0.5-0.223877-0.5-0.5s0.223877-0.5,0.5-0.5s0.5,0.223877,0.5,0.5C12.8717041,6.276001,12.6480713,6.4996338,12.3720703,6.5z M8.1298828,6.2573242H8.1289062c-0.8284302,0-1.5,0.6715698-1.5,1.5s0.6715698,1.5,1.5,1.5h0.0009766c0.8284302,0,1.5-0.6715698,1.5-1.5S8.958313,6.2573242,8.1298828,6.2573242z M8.4824219,8.1113281C8.3890381,8.2050171,8.262146,8.2575684,8.1298828,8.2573242H8.1289062c-0.2761841,0-0.5-0.223877-0.5-0.5s0.2238159-0.5,0.5-0.5h0.0009766C8.2622681,7.257019,8.3892212,7.3098145,8.4824219,7.4038086C8.6777344,7.5991821,8.6777344,7.9159546,8.4824219,8.1113281z M12.3720703,10.5c-0.8284302,0-1.5,0.6715698-1.5,1.5s0.6715698,1.5,1.5,1.5s1.5-0.6715698,1.5-1.5C13.8711548,11.171936,13.2001343,10.5009155,12.3720703,10.5z M12.3720703,12.5c-0.276123,0-0.5-0.223877-0.5-0.5s0.223877-0.5,0.5-0.5s0.5,0.223877,0.5,0.5C12.8717041,12.276001,12.6480713,12.4996338,12.3720703,12.5z M15.5537109,6.6967773c-0.5857544,0.5856934-0.5857544,1.5353394,0,2.1210938c0.5856934,0.5856934,1.5353394,0.5856934,2.1210938,0c0.5856934-0.5857544,0.5856934-1.5354004,0-2.1210938C17.0887451,6.1118164,16.1397705,6.1118164,15.5537109,6.6967773z M16.9679565,8.1106567c-0.000061,0.000061-0.0001221,0.0001221-0.0001831,0.0001831c-0.1952515,0.1948853-0.5115356,0.1946411-0.7064209-0.0006104c-0.1949463-0.1951904-0.1946411-0.5114746,0.0005493-0.7064209c0.1950073-0.1947021,0.5108643-0.1947021,0.7058716,0C17.1630249,7.598999,17.1630859,7.9154663,16.9679565,8.1106567z"/></svg>