<svg xmlns="http://www.w3.org/2000/svg" enable-background="new 0 0 24 24" viewBox="0 0 24 24"><path fill="#6563ff" d="M21.5,4H20V2.5C20,2.2,19.8,2,19.5,2S19,2.2,19,2.5V4h-1.5C17.2,4,17,4.2,17,4.5S17.2,5,17.5,5H19v1.5c0,0,0,0,0,0C19,6.8,19.2,7,19.5,7c0,0,0,0,0,0C19.8,7,20,6.8,20,6.5V5h1.5C21.8,5,22,4.8,22,4.5S21.8,4,21.5,4z M17.5,10H13V2.5c0,0,0,0,0,0C13,2.2,12.8,2,12.5,2h-5c0,0,0,0,0,0C7.2,2,7,2.2,7,2.5V8H2.5c0,0,0,0,0,0C2.2,8,2,8.2,2,8.5v13c0,0,0,0,0,0C2,21.8,2.2,22,2.5,22h5c0,0,0,0,0,0h5c0,0,0,0,0,0h5c0,0,0,0,0,0c0.3,0,0.5-0.2,0.5-0.5v-11c0,0,0,0,0,0C18,10.2,17.8,10,17.5,10z M7,21H3V9h4V21z M12,10.5V21H8V8.5c0,0,0,0,0,0V3h4V10.5z M17,21h-4V11h4V21z"/></svg>