<svg xmlns="http://www.w3.org/2000/svg" enable-background="new 0 0 24 24" viewBox="0 0 24 24"><path fill="#6563ff" d="M21.7695312,5.0791016c-0.1427002-0.0928955-0.3233032-0.1054688-0.4775391-0.0332031C18.3525391,6.2805176,15.1876831,6.8878784,12,6.8291016c-3.1876831,0.0587769-6.3525391-0.548584-9.2919922-1.7832031C2.553772,4.9736328,2.37323,4.9862061,2.2304688,5.0791016C2.0869751,5.1710205,2.0001221,5.3295898,2,5.5v13c0.0001221,0.1704102,0.0869751,0.3289795,0.2304688,0.4208984c0.1425781,0.0933838,0.3234253,0.105957,0.4775391,0.0332031C5.6474609,17.7194824,8.8123169,17.1121216,12,17.1708984c3.1876831-0.0587769,6.3525391,0.548584,9.2919922,1.7832031C21.3570557,18.9846191,21.4281006,19.0003052,21.5,19c0.0955811,0.0003052,0.18927-0.0271606,0.2695312-0.0791016C21.9130249,18.8289795,21.9998779,18.6704102,22,18.5v-13C21.9998779,5.3295898,21.9130249,5.1710205,21.7695312,5.0791016z M21,17.7412109c-2.8761597-1.0787964-5.9284058-1.6113892-9-1.5703125c-3.0715942-0.0410767-6.1238403,0.4915161-9,1.5703125V6.2587891c2.8761597,1.0787964,5.9284058,1.6113892,9,1.5703125c3.0715942,0.0410767,6.1238403-0.4915161,9-1.5703125V17.7412109z"/></svg>