<svg xmlns="http://www.w3.org/2000/svg" enable-background="new 0 0 24 24" viewBox="0 0 24 24"><path fill="#6563ff" d="M18.9541016,21.2919922C17.7196655,18.352478,17.1123047,15.1876831,17.1708984,12c-0.0587769-3.1876831,0.548584-6.3525391,1.7832031-9.2919922c0.0299683-0.0653687,0.0454712-0.1364136,0.0455322-0.208313C18.9996338,2.2237549,18.7759399,2,18.5,2h-13C5.4281006,2,5.3570557,2.0155029,5.291687,2.0455322C5.0408936,2.1605835,4.9308472,2.4571533,5.0458984,2.7080078C6.2805176,5.6474609,6.8878784,8.8123169,6.8291016,12c0.0585938,3.1876831-0.5487671,6.352478-1.7832031,9.2919922C5.015564,21.3578491,4.9998779,21.4295044,5,21.5019531C5.0005493,21.7775879,5.2244263,22.0005493,5.5,22h13c0.0725098,0.0001221,0.144165-0.0155029,0.2099609-0.0458984C18.9602051,21.8386841,19.069519,21.5422363,18.9541016,21.2919922z M6.2587891,21c1.0787354-2.8762207,1.6112671-5.9284668,1.5703125-9c0.0410767-3.0715942-0.4915161-6.1238403-1.5703125-9h11.4824219c-1.0787964,2.8761597-1.6113281,5.9284058-1.5703125,9c-0.0409546,3.0715332,0.4915771,6.1237793,1.5703125,9H6.2587891z"/></svg>