<svg xmlns="http://www.w3.org/2000/svg" enable-background="new 0 0 24 24" viewBox="0 0 24 24"><path fill="#6563ff" d="M21.4375,5.4854126c-0.0341797-0.1972656-0.1829834-0.3549194-0.3779297-0.4003906l-0.1181641-0.0283203c-5.8778076-1.4023438-12.0030518-1.4023438-17.8808594,0L2.9404297,5.085022C2.7455444,5.1304932,2.5966797,5.2880859,2.5625,5.4852905c-0.7519531,4.3105469-0.7519531,8.71875,0,13.0292969c0.0341797,0.1972656,0.1829834,0.3549194,0.3779297,0.4003906l0.1181641,0.0283813C5.9873047,19.6450806,8.9884033,19.9996948,12,20c3.0109863-0.0001831,6.0114136-0.3547974,8.9394531-1.0565796l0.1201172-0.0283203c0.1949463-0.0455322,0.34375-0.203186,0.3779297-0.4003906C22.1894531,14.2041626,22.1894531,9.7959595,21.4375,5.4854126z M20.5078125,18.0185547c-5.5970459,1.3027344-11.4185791,1.3027344-17.015625,0c-0.6554565-3.9855347-0.6580811-8.052002,0-12.0371094c5.5970459-1.3027344,11.4185791-1.3027344,17.015625,0C21.1660156,9.9667969,21.1660156,14.0332031,20.5078125,18.0185547z"/></svg>