<svg xmlns="http://www.w3.org/2000/svg" enable-background="new 0 0 24 24" viewBox="0 0 24 24"><path fill="#6563ff" d="M6.5,14h2C8.776123,14,9,13.776123,9,13.5S8.776123,13,8.5,13h-2C6.223877,13,6,13.223877,6,13.5S6.223877,14,6.5,14z M19.5,2h-15C3.119812,2.0012817,2.0012817,3.119812,2,4.5v15c0.0012817,1.380188,1.119812,2.4987183,2.5,2.5h15c1.380188-0.0012817,2.4987183-1.119812,2.5-2.5v-15C21.9987183,3.119812,20.880188,2.0012817,19.5,2z M14,3v4.6630859l-1.7607422-0.9472656c-0.1480713-0.0800781-0.3265381-0.0800781-0.4746094,0l-1.7617188,0.9482422L10,3H14z M21,19.5c-0.0009155,0.828064-0.671936,1.4990845-1.5,1.5h-15c-0.828064-0.0009155-1.4990845-0.671936-1.5-1.5v-15C3.0009155,3.671936,3.671936,3.0009155,4.5,3h4.5003052l0.0036011,5.5c0,0.0827637,0.0205688,0.1642456,0.0597534,0.2371216c0.1309814,0.2432251,0.4343262,0.3342896,0.6775513,0.2033081l2.2608032-1.2167969l2.2606812,1.2167969C14.3356323,8.9796143,14.4171753,9.000061,14.5,9h0.0032349C14.7785034,8.9990845,15.0009155,8.7752686,15,8.5V3h4.5c0.828064,0.0009155,1.4990845,0.671936,1.5,1.5V19.5z M12.5,17h-6C6.223877,17,6,17.223877,6,17.5S6.223877,18,6.5,18h6c0.276123,0,0.5-0.223877,0.5-0.5S12.776123,17,12.5,17z"/></svg>