<svg xmlns="http://www.w3.org/2000/svg" enable-background="new 0 0 24 24" viewBox="0 0 24 24"><path fill="#6563ff" d="M12.5,7.5H9.9994507C9.7234497,7.5001831,9.4998169,7.723999,9.5,8v8.0005493C9.5001831,16.2765503,9.723999,16.5001831,10,16.5h0.0006104C10.2765503,16.4998169,10.5001831,16.276001,10.5,16v-2.5h2c1.6568604,0,3-1.3431396,3-3S14.1568604,7.5,12.5,7.5z M12.5,12.5h-2v-4h2c1.1045532,0,2,0.8954468,2,2S13.6045532,12.5,12.5,12.5z M12,2C6.4771729,2,2,6.4771729,2,12s4.4771729,10,10,10c5.5201416-0.0064697,9.9935303-4.4798584,10-10C22,6.4771729,17.5228271,2,12,2z M12,21c-4.9705811,0-9-4.0294189-9-9s4.0294189-9,9-9c4.9683228,0.0054321,8.9945679,4.0316772,9,9C21,16.9705811,16.9705811,21,12,21z"/></svg>