<svg xmlns="http://www.w3.org/2000/svg" enable-background="new 0 0 24 24" viewBox="0 0 24 24"><path fill="#6563ff" d="M12,6.5H8.9994507C8.7234497,6.5001831,8.4998169,6.723999,8.5,7v10.0005493C8.5001831,17.2765503,8.723999,17.5001831,9,17.5h0.0006104C9.2765503,17.4998169,9.5001831,17.276001,9.5,17v-3.5H12c1.9329834,0,3.5-1.5670166,3.5-3.5S13.9329834,6.5,12,6.5z M12,12.5H9.5v-5H12c1.3807373,0,2.5,1.1192627,2.5,2.5S13.3807373,12.5,12,12.5z M19.5,2h-15C3.119873,2.0014648,2.0014648,3.119873,2,4.5v15c0.0014648,1.380127,1.119873,2.4985352,2.5,2.5h15c1.380188-0.0012817,2.4987183-1.119812,2.5-2.5v-15C21.9987183,3.119812,20.880188,2.0012817,19.5,2z M21,19.5c-0.0009155,0.828064-0.671936,1.4990845-1.5,1.5h-15c-0.828064-0.0009155-1.4990845-0.671936-1.5-1.5v-15C3.0009155,3.671936,3.671936,3.0009155,4.5,3h15c0.828064,0.0009155,1.4990845,0.671936,1.5,1.5V19.5z"/></svg>