<svg xmlns="http://www.w3.org/2000/svg" enable-background="new 0 0 24 24" viewBox="0 0 24 24"><path fill="#6563ff" d="M9.5,21H9v-0.5C9,20.223877,8.776123,20,8.5,20S8,20.223877,8,20.5v1c0,0.0001831,0,0.0003662,0,0.0005493C8.0001831,21.7765503,8.223999,22.0001831,8.5,22h1c0.276123,0,0.5-0.223877,0.5-0.5S9.776123,21,9.5,21z M14.5,3H15v0.5c0,0.0001831,0,0.0003662,0,0.0006104C15.0001831,3.7765503,15.223999,4.0001831,15.5,4c0.0001831,0,0.0003662,0,0.0006104,0C15.7765503,3.9998169,16.0001831,3.776001,16,3.5v-1c0-0.0001831,0-0.0003662,0-0.0006104C15.9998169,2.2234497,15.776001,1.9998169,15.5,2h-1C14.223877,2,14,2.223877,14,2.5S14.223877,3,14.5,3z M7.9003906,3h2.2001953c0.276123,0,0.5-0.223877,0.5-0.5s-0.223877-0.5-0.5-0.5H7.9003906c-0.276123,0-0.5,0.223877-0.5,0.5S7.6242676,3,7.9003906,3z M3.5,2h-1C2.4998169,2,2.4996338,2,2.4993896,2C2.2234497,2.0001831,1.9998169,2.223999,2,2.5v1c0,0.0001831,0,0.0003662,0,0.0006104C2.0001831,3.7765503,2.223999,4.0001831,2.5,4c0.0001831,0,0.0003662,0,0.0006104,0C2.7765503,3.9998169,3.0001831,3.776001,3,3.5V3h0.5C3.776123,3,4,2.776123,4,2.5S3.776123,2,3.5,2z M2.5,10.5996094c0.0001831,0,0.0003662,0,0.0006104,0c0.2759399-0.0001831,0.4995728-0.223999,0.4993896-0.5V7.8994141c0-0.276123-0.223877-0.5-0.5-0.5s-0.5,0.223877-0.5,0.5v2.2001953c0,0.0001831,0,0.0003662,0,0.0006104C2.0001831,10.3761597,2.223999,10.5997925,2.5,10.5996094z M3.5,15H3v-0.5C3,14.223877,2.776123,14,2.5,14S2,14.223877,2,14.5v1c0,0.0001831,0,0.0003662,0,0.0005493C2.0001831,15.7765503,2.223999,16.0001831,2.5,16h1C3.776123,16,4,15.776123,4,15.5S3.776123,15,3.5,15z M7.5,15h-1C6.223877,15,6,15.223877,6,15.5S6.223877,16,6.5,16h1C7.776123,16,8,15.776123,8,15.5S7.776123,15,7.5,15z M21.5,8h-1C20.223877,8,20,8.223877,20,8.5S20.223877,9,20.5,9H21v0.5c0,0.0001831,0,0.0003662,0,0.0005493C21.0001831,9.7765503,21.223999,10.0001831,21.5,10c0.0001831,0,0.0003662,0,0.0006104,0C21.7765503,9.9998169,22.0001831,9.776001,22,9.5v-1c0-0.0001831,0-0.0003662,0-0.0006104C21.9998169,8.2234497,21.776001,7.9998169,21.5,8z M21.5,13.4003906c-0.276123,0-0.5,0.223877-0.5,0.5v2.2001953c0,0.0001831,0,0.0003662,0,0.0005493c0.0001831,0.276001,0.223999,0.4996338,0.5,0.4994507c0.0001831,0,0.0003662,0,0.0005493,0c0.276001-0.0001221,0.4996338-0.223999,0.4994507-0.5v-2.2001953C22,13.6242676,21.776123,13.4003906,21.5,13.4003906z M21.5,20c-0.276123,0-0.5,0.223877-0.5,0.5V21h-0.5c-0.276123,0-0.5,0.223877-0.5,0.5s0.223877,0.5,0.5,0.5h1c0.0001831,0,0.0003662,0,0.0006104,0C21.7765503,21.9998169,22.0001831,21.776001,22,21.5v-1C22,20.223877,21.776123,20,21.5,20z M16.5,8h-0.9993896C15.7765503,7.9998169,16.0001831,7.776001,16,7.5v-1C16,6.223877,15.776123,6,15.5,6S15,6.223877,15,6.5v1c0,0.0001831,0,0.0003662,0,0.0006104C15.0001831,7.7765503,15.223999,8.0001831,15.5,8h-7C8.4998169,8,8.4996338,8,8.4994507,8C8.2234497,8.0001831,7.9998169,8.223999,8,8.5v7c0,0.0001831,0,0.0003662,0,0.0005493V16.5c0,0.0001831,0,0.0003662,0,0.0005493C8.0001831,16.7765503,8.223999,17.0001831,8.5,17c0.0001831,0,0.0003662,0,0.0006104,0C8.7765503,16.9998169,9.0001831,16.776001,9,16.5V16h6.5c0.0001831,0,0.0003662,0,0.0006104,0C15.7765503,15.9998169,16.0001831,15.776001,16,15.5V9h0.5C16.776123,9,17,8.776123,17,8.5S16.776123,8,16.5,8z M15,15H9V9h6V15z M16.0996094,21h-2.2001953c-0.276123,0-0.5,0.223877-0.5,0.5s0.223877,0.5,0.5,0.5h2.2001953c0.276123,0,0.5-0.223877,0.5-0.5S16.3757324,21,16.0996094,21z"/></svg>