<svg xmlns="http://www.w3.org/2000/svg" enable-background="new 0 0 24 24" viewBox="0 0 24 24"><path fill="#6563ff" d="M21.5,8H16V2.5c0-0.0001831,0-0.0003662,0-0.0006104C15.9998169,2.2234497,15.776001,1.9998169,15.5,2h-13C2.4998169,2,2.4996338,2,2.4993896,2C2.2234497,2.0001831,1.9998169,2.223999,2,2.5v13c0,0.0001831,0,0.0003662,0,0.0005493C2.0001831,15.7765503,2.223999,16.0001831,2.5,16H8v5.5c0,0.0001831,0,0.0003662,0,0.0005493C8.0001831,21.7765503,8.223999,22.0001831,8.5,22h13c0.0001831,0,0.0003662,0,0.0006104,0C21.7765503,21.9998169,22.0001831,21.776001,22,21.5v-13c0-0.0001831,0-0.0003662,0-0.0006104C21.9998169,8.2234497,21.776001,7.9998169,21.5,8z M21,21H9v-5.5c0-0.0001831,0-0.0003662,0-0.0006104C8.9998169,15.2234497,8.776001,14.9998169,8.5,15H3V3h12v5.5c0,0.0001831,0,0.0003662,0,0.0005493C15.0001831,8.7765503,15.223999,9.0001831,15.5,9H21V21z"/></svg>