<svg xmlns="http://www.w3.org/2000/svg" enable-background="new 0 0 24 24" viewBox="0 0 24 24"><path fill="#6563ff" d="M10,7C9.723877,7,9.5,7.223877,9.5,7.5v9.0005493C9.5001831,16.7765503,9.723999,17.0001831,10,17h0.0006104c0.2759399-0.0001831,0.4995728-0.223999,0.4993896-0.5v-9C10.5,7.223877,10.276123,7,10,7z M14,7c-0.276123,0-0.5,0.223877-0.5,0.5v9.0005493C13.5001831,16.7765503,13.723999,17.0001831,14,17h0.0006104c0.2759399-0.0001831,0.4995728-0.223999,0.4993896-0.5v-9C14.5,7.223877,14.276123,7,14,7z M12,2C6.4771729,2,2,6.4771729,2,12s4.4771729,10,10,10c5.5201416-0.0064697,9.9935303-4.4798584,10-10C22,6.4771729,17.5228271,2,12,2z M12,21c-4.9705811,0-9-4.0294189-9-9s4.0294189-9,9-9c4.9683228,0.0054321,8.9945679,4.0316772,9,9C21,16.9705811,16.9705811,21,12,21z"/></svg>