<svg xmlns="http://www.w3.org/2000/svg" enable-background="new 0 0 24 24" viewBox="0 0 24 24"><path fill="#6563ff" d="M16,2c-1.6568604,0-3,1.3431396-3,3v14c0.0018311,1.6561279,1.3438721,2.9981689,3,3c1.6561279-0.0018311,2.9981689-1.3438721,3-3V5C19,3.3431396,17.6568604,2,16,2z M18,19c0,1.1045532-0.8954468,2-2,2s-2-0.8954468-2-2V5c0.0014038-1.1040039,0.8959961-1.9985962,2-2c1.1040039,0.0014038,1.9985962,0.8959961,2,2V19z M8,2C6.3431396,2,5,3.3431396,5,5v14c0.0018311,1.6561279,1.3438721,2.9981689,3,3c1.6561279-0.0018311,2.9981689-1.3438721,3-3V5C11,3.3431396,9.6568604,2,8,2z M10,19c0,1.1045532-0.8954468,2-2,2s-2-0.8954468-2-2V5c0.0014038-1.1040039,0.8959961-1.9985962,2-2c1.1040039,0.0014038,1.9985962,0.8959961,2,2V19z"/></svg>