<svg xmlns="http://www.w3.org/2000/svg" enable-background="new 0 0 24 24" viewBox="0 0 24 24"><path fill="#6563ff" d="M21.8534546,7.1464844l-5-5c0-0.000061-0.000061-0.0001221-0.0001221-0.0001221c-0.1951904-0.1951904-0.5117188-0.1951294-0.7068481,0.0001221l-14,14C2.0526733,16.2402344,2,16.3673706,2,16.5v5.0005493C2.0001831,21.7765503,2.223999,22.0001831,2.5,22h5c0.1326294,0,0.2597656-0.0527344,0.3534546-0.1465454l14-14c0.000061,0,0.0001221-0.000061,0.0001831-0.0001221C22.0487671,7.6581421,22.0487061,7.3416138,21.8534546,7.1464844z M7.2930298,21H3v-4.2930298l10.671814-10.671814l4.2926025,4.293457L7.2930298,21z M18.6714478,9.621582l-4.2926636-4.293396L16.5,3.2069702L20.7930298,7.5L18.6714478,9.621582z"/></svg>