<svg xmlns="http://www.w3.org/2000/svg" enable-background="new 0 0 24 24" viewBox="0 0 24 24"><path fill="#6563ff" d="M17,14c-1.6568604,0-3,1.3431396-3,3s1.3431396,3,3,3s3-1.3431396,3-3C19.9981689,15.3438721,18.6561279,14.0018311,17,14z M17,19c-1.1045532,0-2-0.8954468-2-2s0.8954468-2,2-2s2,0.8954468,2,2C18.9985962,18.1040039,18.1040039,18.9985962,17,19z M7,10c1.6568604,0,3-1.3431396,3-3S8.6568604,4,7,4S4,5.3431396,4,7C4.0018311,8.6561279,5.3438721,9.9981689,7,10z M7,5c1.1045532,0,2,0.8954468,2,2S8.1045532,9,7,9S5,8.1045532,5,7C5.0014038,5.8959961,5.8959961,5.0014038,7,5z M19.8536377,4.1466064c0-0.000061-0.000061-0.000061-0.0001221-0.0001221c-0.1951294-0.1952515-0.5116577-0.1953125-0.7068481-0.0001221c-0.000061,0-0.0001221,0.000061-0.0001221,0.0001221l-15,15c-0.1986694,0.1918335-0.2041626,0.5083618-0.0123291,0.7069702c0.1918945,0.1986694,0.5084229,0.2041626,0.7070312,0.0123291c0.0041504-0.0040283,0.0082397-0.0081177,0.0122681-0.0123291l15-15C20.0487671,4.6583252,20.0488281,4.3418579,19.8536377,4.1466064z"/></svg>