<svg xmlns="http://www.w3.org/2000/svg" enable-background="new 0 0 24 24" viewBox="0 0 24 24"><path fill="#6563ff" d="M16.9550781,10.4267578c-0.0006714,0.0048218-0.0013428,0.0095825-0.0018921,0.0144043c-0.0302734,0.2653809,0.1603394,0.505127,0.4257202,0.5354004c0.022583,0.0039062,0.0454712,0.0058594,0.0683594,0.0058594c0.2530518-0.0064697,0.4648438-0.1939087,0.5019531-0.4443359C17.9794922,10.3602295,17.99646,10.1803589,18,10c-0.0021973-2.208252-1.791748-3.9978027-4-4c-0.1922607,0.0042114-0.3838501,0.0231934-0.5732422,0.0565796l0.1816406,0.9833984C13.7377319,7.0168457,13.8686523,7.003479,14,7c1.6561279,0.0018311,2.9981689,1.3438721,3,3c-0.003479,0.1313477-0.0168457,0.2622681-0.039978,0.3916016L16.9550781,10.4267578z M12.5996094,3.140625c0.9215088-0.1875,1.8712769-0.1875,2.7927856,0c3.7905273,0.7711792,6.2381592,4.4692383,5.46698,8.2597656c-0.006958,0.0338135-0.010376,0.0682373-0.0101929,0.1027832C20.8504028,11.7788086,21.0749512,12.0012817,21.3505859,12c0.2374268-0.0004883,0.4417725-0.1677856,0.4892578-0.4003906c0.213562-1.0515137,0.213562-2.1352539,0-3.1868286c-0.8800049-4.333252-5.1062012-7.1326294-9.4394531-6.2526245c-0.0010376,0.0001831-0.0020752,0.0004272-0.0031128,0.0006104c-0.2705688,0.0559082-0.4446411,0.3204956-0.3887329,0.5911255C12.0643921,3.0224609,12.3290405,3.1964722,12.5996094,3.140625z M19.5654297,12.9316406c-0.1962891-0.0371094-0.3925781-0.0791016-0.5869141-0.1259766c-0.4107056-0.1010742-0.8150024-0.2262573-1.2109375-0.375c-0.9508057-0.361084-2.0214233,0.0452881-2.4931641,0.9462891l-0.7510376,1.4423828c-2.2285767-1.2672729-4.0719604-3.1150513-5.3339844-5.3466797l1.4335938-0.7460938c0.8994751-0.4731445,1.3052979-1.5423584,0.9462891-2.4931641c-0.1482544-0.3966064-0.2731323-0.8016357-0.3739624-1.2128906c-0.0488281-0.1953125-0.0898438-0.390625-0.1269531-0.5878906C10.7974243,3.0148926,9.5537109,1.9921265,8.1103516,2H5.0341797C4.1486206,1.9998169,3.3071289,2.3864746,2.7304688,3.0585938C2.1583252,3.7198486,1.9039917,4.5982056,2.0341797,5.4628906c1.3331299,8.4998169,7.9995117,15.1677856,16.4990234,16.5029297C18.6812134,21.9883423,18.8307495,21.9997559,18.9804688,22C20.6512451,21.9937134,22.0018311,20.6365967,22,18.9658203v-3.0761719C22.0078125,14.4456177,20.9839478,13.2017212,19.5654297,12.9316406z M21,18.9658203c-0.0001221,0.5943604-0.2597656,1.1589966-0.7109375,1.5458984c-0.4415894,0.381958-1.0280151,0.552124-1.6054688,0.4658203C10.6164551,19.710083,4.2888794,13.3817749,3.0224609,5.3144531C2.9361572,4.7375488,3.1063232,4.1517944,3.4882812,3.7109375C3.8751831,3.2597656,4.4398193,3.0001221,5.0341797,3h3.0761719c0.9612427-0.0081177,1.7915039,0.6706543,1.9746094,1.6143188c0.0403442,0.2164307,0.0869141,0.4316406,0.1396484,0.6455078c0.1098633,0.4494629,0.246521,0.8919678,0.4091797,1.3251953c0.1811523,0.4776001-0.0214233,1.0154419-0.4726562,1.2548218L8.2773438,8.8203125C8.2767944,8.8206177,8.2762451,8.8208618,8.2756958,8.821167C8.0315552,8.9486694,7.9369507,9.249939,8.0644531,9.4941406C9.496521,12.2542114,11.7434082,14.5065308,14.5,15.9453125c0.2449341,0.1272583,0.5466309,0.0325317,0.6748047-0.2119141l0.9863281-1.8945312c0.2398682-0.4501953,0.7765503-0.6525269,1.2539062-0.4726562c0.4332886,0.1635132,0.8762207,0.3004761,1.3261719,0.4101562c0.2125854,0.0527344,0.4267578,0.0986328,0.6425781,0.1376953C20.3280029,14.0974121,21.0073853,14.9277954,21,15.8896484V18.9658203z"/></svg>