<svg xmlns="http://www.w3.org/2000/svg" enable-background="new 0 0 24 24" viewBox="0 0 24 24"><path fill="#6563ff" d="M19.6,12.9c-0.2,0-0.4-0.1-0.6-0.1c-0.4-0.1-0.8-0.2-1.2-0.4c-1-0.4-2,0-2.5,0.9l-0.8,1.4c-2.2-1.3-4.1-3.1-5.3-5.3l1.4-0.7c0.9-0.5,1.3-1.5,0.9-2.5c-0.1-0.4-0.3-0.8-0.4-1.2c0-0.2-0.1-0.4-0.1-0.6C10.8,3,9.6,2,8.1,2H5C4.1,2,3.3,2.4,2.7,3.1C2.2,3.7,1.9,4.6,2,5.5C3.4,14,10,20.6,18.5,22c0.1,0,0.3,0,0.4,0c1.7,0,3-1.4,3-3v-3.1C22,14.4,21,13.2,19.6,12.9z M21,19c0,0.6-0.3,1.2-0.7,1.5c-0.4,0.4-1,0.6-1.6,0.5C10.6,19.7,4.3,13.4,3,5.3C2.9,4.7,3.1,4.2,3.5,3.7C3.9,3.3,4.4,3,5,3h3.1c1,0,1.8,0.7,2,1.6c0,0.2,0.1,0.4,0.1,0.6c0.1,0.4,0.2,0.9,0.4,1.3c0.2,0.5,0,1-0.5,1.3l-1.9,1c0,0,0,0,0,0C8,8.9,7.9,9.2,8.1,9.5c1.4,2.8,3.7,5,6.4,6.5c0.2,0.1,0.5,0,0.7-0.2l1-1.9c0.2-0.5,0.8-0.7,1.3-0.5c0.4,0.2,0.9,0.3,1.3,0.4c0.2,0.1,0.4,0.1,0.6,0.1c0.9,0.2,1.6,1,1.6,2V19z M18.5,10C18.5,10,18.5,10,18.5,10c0.3,0,0.5-0.2,0.5-0.5v-5C19,4.2,18.8,4,18.5,4S18,4.2,18,4.5v5c0,0,0,0,0,0C18,9.8,18.2,10,18.5,10z M15.5,10C15.5,10,15.5,10,15.5,10c0.3,0,0.5-0.2,0.5-0.5v-5C16,4.2,15.8,4,15.5,4S15,4.2,15,4.5v5c0,0,0,0,0,0C15,9.8,15.2,10,15.5,10z"/></svg>