<svg xmlns="http://www.w3.org/2000/svg" enable-background="new 0 0 24 24" viewBox="0 0 24 24"><path fill="#6563ff" d="M19.5673828,12.9375c-0.1972656-0.0371704-0.3935547-0.0801392-0.5888672-0.1269531c-0.4103394-0.100708-0.8143921-0.2255859-1.2099609-0.3740234c-0.9510498-0.3594971-2.0209351,0.0464478-2.4941406,0.9462891l-0.7510376,1.4423828c-1.1098633-0.6300659-2.1292114-1.4076538-3.0302734-2.3115234c-0.901123-0.9044189-1.6760254-1.9263306-2.3037109-3.0380859l1.4335938-0.7460938c0.8998413-0.4733276,1.3059082-1.5429688,0.9468384-2.4941406c-0.1488647-0.3961792-0.2739258-0.8008423-0.3745117-1.2119141c-0.0476685-0.1950073-0.0898438-0.3916016-0.1264648-0.5898438C10.7977295,3.0153809,9.5537109,1.9922485,8.1098633,2H5.0341797C4.1484985,1.999939,3.3069458,2.3865967,2.7299805,3.0585938c-0.5717163,0.6622314-0.8259888,1.5410156-0.6962891,2.40625c1.331665,8.5021973,7.9981689,15.1733398,16.4995117,16.5107422c0.1480103,0.022522,0.2975464,0.0339355,0.4472656,0.0341797c0.7195435-0.0008545,1.414978-0.2596436,1.9599609-0.7294922C21.6130371,20.703064,22.000061,19.8609009,22,18.9746094v-3.078125C22.0082397,14.4527588,20.9854126,13.2086182,19.5673828,12.9375z M21,18.9746094c-0.0002441,0.5947876-0.2603149,1.15979-0.7119141,1.546875c-0.4417725,0.3809814-1.0274048,0.5510254-1.6044922,0.4658203C10.614624,19.7179565,4.2869873,13.3862305,3.0229492,5.3164062c-0.0866089-0.5773926,0.083374-1.1638794,0.465332-1.6054688C3.875061,3.2595825,4.4398193,2.9998779,5.0341797,3h3.0756836c0.9616699-0.0077515,1.7921143,0.6712036,1.975647,1.6152344c0.0395508,0.2158203,0.0864258,0.4316406,0.1381836,0.6455078c0.1104126,0.4497681,0.2473755,0.8925781,0.4101562,1.3261719c0.1817017,0.4780273-0.0212402,1.0165405-0.4731445,1.2558594L8.2769165,8.8232422c-0.244751,0.1273804-0.3400269,0.4289551-0.2128906,0.6738281c0.711731,1.3721924,1.6293945,2.6273193,2.7211304,3.7216797c1.0911865,1.095459,2.3440552,2.0170288,3.7148438,2.7324219c0.1181641,0.0601196,0.2550049,0.0720215,0.3817749,0.0332031c0.1263428-0.0396118,0.2316895-0.1278076,0.2930298-0.2451172l0.9863281-1.8945312c0.2393799-0.4512939,0.7772217-0.6538696,1.2548828-0.4726562c0.4331055,0.1629639,0.8756104,0.2996216,1.3251953,0.4091797c0.2119141,0.0527344,0.4257812,0.0976562,0.6425781,0.1386719C20.3283081,14.1033936,21.0077515,14.9343262,21,15.8964844V18.9746094z"/></svg>