<svg xmlns="http://www.w3.org/2000/svg" enable-background="new 0 0 24 24" viewBox="0 0 24 24"><path fill="#6563ff" d="M5.2470703,13.6220703c0.0932007,0.1364136,0.2478638,0.2179565,0.4130859,0.2177734h0.000061c0.1009521,0.0001221,0.199585-0.0303345,0.2828369-0.0873413c0.2278442-0.1559448,0.2861328-0.467041,0.130249-0.6948853c-1.5903931-2.3164062-2.6329956-4.9642944-3.0488281-7.7431641C2.9385986,4.7376099,3.1087036,4.1519775,3.4902954,3.7109375C3.8753052,3.2606812,4.4378052,3.0010376,5.0302734,3h3.0800781c0.9616699-0.0090942,1.7932739,0.6685181,1.9785156,1.6122437c0.0419922,0.2207642,0.0839844,0.4404297,0.1367188,0.6513672c0.1142578,0.4453125,0.2480469,0.8798828,0.40625,1.3223267c0.1830444,0.4767456-0.0206909,1.0150146-0.4736328,1.2509766L8.2783203,8.8164062C8.1611328,8.8863525,8.0761719,8.9996948,8.0419922,9.1318359c-0.0362549,0.1353149-0.019104,0.2793579,0.0478516,0.4023438c0.140625,0.2597656,0.2822266,0.5195312,0.4521484,0.7792969c0.0004883,0.0007324,0.0009766,0.0015259,0.0014648,0.0022583c0.1516724,0.2304688,0.4613647,0.2943115,0.6918335,0.1426392c0.2304077-0.1516113,0.2943115-0.4613647,0.1426392-0.6917725C9.3134766,9.6669922,9.2539062,9.5683594,9.1953125,9.4667969l1.4228516-0.7421875c0.9003296-0.4668579,1.3093872-1.5332031,0.9521484-2.4824219c-0.1435547-0.4052734-0.2695312-0.8105469-0.375-1.2236328c-0.0478516-0.1904297-0.0859375-0.390625-0.1240234-0.5908203C10.7974243,3.0112305,9.5531006,1.9909058,8.1103516,2H5.0302734c-0.1452026,0.0001221-0.2902222,0.0106201-0.43396,0.0315552C2.9415283,2.2723999,1.7952881,3.809082,2.0361328,5.4638672C2.4738159,8.3916016,3.5718384,11.1813965,5.2470703,13.6220703z M19.4823608,12.913147c-0.1660156-0.0332642-0.3369141-0.0673828-0.5097656-0.1104126c-0.4090576-0.1003418-0.8120117-0.223938-1.2070312-0.3700562c-0.949646-0.3620605-2.0198975,0.0447998-2.4891968,0.9462891l-0.7529297,1.4384155c-0.9634399-0.5484009-1.8404541-1.2282715-2.65271-1.9812012l9.9827271-9.9827271c0.1871948-0.1937256,0.1871948-0.5009155,0-0.6947021c-0.1918335-0.1986084-0.5083618-0.2041016-0.7069702-0.0122681l-19,19c-0.09375,0.09375-0.1464233,0.2208862-0.1464233,0.3534546C2,21.776062,2.223877,21.999939,2.5,22c0.1326294,0.0001221,0.2598267-0.0526123,0.3534546-0.1465454l5.0895996-5.0895996c2.9116211,2.7776489,6.6043701,4.6029663,10.5921021,5.2000122c0.1477051,0.022522,0.296875,0.0339355,0.4462891,0.0341797C20.6491089,21.9902344,21.9976196,20.6373901,22,18.9697266v-3.0800781C21.998291,14.4165039,20.9347534,13.1591797,19.4823608,12.913147z M21,18.9697266c-0.0009766,0.5925293-0.2606812,1.1550293-0.7109985,1.5401001c-0.4416504,0.3804932-1.0267334,0.5504761-1.6035156,0.4658203c-3.7767944-0.5653687-7.2745972-2.2918701-10.0354614-4.9187622l2.5019531-2.5019531c1.0015869,0.9439087,2.1262817,1.7493286,3.3470459,2.3884277c0.244873,0.1275635,0.546814,0.0327148,0.6748047-0.2119141l0.9902344-1.8925781c0.2391968-0.453186,0.7805786-0.654541,1.2578125-0.4677734c0.4310303,0.1598511,0.8709106,0.2948608,1.3173828,0.4042969c0.1787109,0.0449219,0.3662109,0.0820312,0.6396484,0.1357422C20.3255005,14.093689,21.0071411,14.9255981,21,15.8896484V18.9697266z"/></svg>