<svg xmlns="http://www.w3.org/2000/svg" enable-background="new 0 0 24 24" viewBox="0 0 24 24"><path fill="#6563ff" d="M20.9765625,11.5527344l-6.3925781-3.1962891V4.0791626c-0.0002441-1.427124-1.1573486-2.5838013-2.5844727-2.5835571c-1.427063,0.0002441-2.5837402,1.1573486-2.5834961,2.5844727v4.2763672l-6.3925781,3.1962891C2.854248,11.6376343,2.7473145,11.8106689,2.7470703,12v3.3349609c-0.0001221,0.0606079,0.0108032,0.1207275,0.0322876,0.1773682c0.0974731,0.2579346,0.3856201,0.3879395,0.6434937,0.2904053l5.9931641-2.2470703v4.7529297l-2.1592407,0.7197266c-0.2040405,0.0683594-0.3416138,0.2593994-0.3417969,0.4746094v2.5015259c0.0001831,0.276001,0.2240601,0.4996338,0.5,0.4994507h9.1705322c0.276001-0.0001221,0.4996338-0.223999,0.4994507-0.5v-2.5009766c-0.0001831-0.21521-0.1377563-0.40625-0.3417969-0.4746094l-2.1591797-0.7197266v-4.7529297l5.9931641,2.2460938c0.0567017,0.0214844,0.1168213,0.0324097,0.1774292,0.0322876c0.2756958-0.0004883,0.4988403-0.2243652,0.4983521-0.500061V12C21.2526855,11.8106689,21.145813,11.6376343,20.9765625,11.5527344z M20.2529907,14.6123047l-5.9931641-2.2460938c-0.0567017-0.0214233-0.1168213-0.0323486-0.1774292-0.0322266c-0.2756958,0.0004272-0.4988403,0.2243042-0.4983521,0.5v5.8349609c0.0001831,0.21521,0.1377563,0.40625,0.3417969,0.4746094l2.1591797,0.7197266v1.640625H7.9151001l-0.0001221-1.640625l2.1592407-0.7197266c0.2040405-0.0683594,0.3416138-0.2593994,0.3417969-0.4745483v-5.835022c0.0001221-0.0606079-0.0108032-0.1207275-0.0322876-0.1773682c-0.0974731-0.2579346-0.3856201-0.3879395-0.6434937-0.2904053l-5.9931641,2.2470703v-2.3046875l6.3925781-3.1963501c0.1691895-0.0848999,0.276123-0.2579346,0.2763672-0.4472656V4.0800171c0-0.8748169,0.7091675-1.5840454,1.5839844-1.5840454s1.5839844,0.7092285,1.5839844,1.5840454V8.664978c0.0002441,0.1893311,0.1071167,0.3624268,0.2763672,0.4473267l6.3926392,3.1962891V14.6123047z"/></svg>