<svg xmlns="http://www.w3.org/2000/svg" enable-background="new 0 0 24 24" viewBox="0 0 24 24"><path fill="#6563ff" d="M24.7089844,9.9375c-0.1380615-0.2389526-0.4436646-0.3206787-0.6826172-0.1826172l-17.3203125,10c-0.1543579,0.0892944-0.2494507,0.2540283-0.2495728,0.432373c-0.0001831,0.276062,0.2234497,0.500061,0.4995728,0.5002441c0.0878296,0.000061,0.1740723-0.0231934,0.25-0.0673828l17.3203125-10C24.7653198,10.4820557,24.8470459,10.1764526,24.7089844,9.9375z M22.5263672,7.15625c0.0006104-0.0003052,0.0011597-0.0006714,0.001709-0.0009766c0.2382202-0.1382446,0.3192139-0.4434814,0.1809082-0.6816406c-0.0006104-0.0010376-0.0012207-0.0020752-0.00177-0.0031128c-1.243042-2.1511841-3.9945068-2.8873901-6.1456909-1.6444092l-3.2148438,1.8564453l-5.78125-3.3046875c-0.15448-0.0882568-0.3442993-0.0875244-0.4980469,0.0019531l-3.03125,1.75C3.9766846,5.1641846,3.9249268,5.2104492,3.8840942,5.265686C3.7200928,5.487793,3.7671509,5.8008423,3.9892578,5.9648438L8.647522,9.3955078l-3.4833984,2.0117188l-5.4179688-0.2451172c-0.2086182-0.0142822-0.402832,0.1069946-0.4814453,0.3007812c-0.0822754,0.190979-0.0379639,0.4129028,0.1113281,0.5576172l4.1473999,4.0126953c0.4683228,0.4506836,1.0932007,0.7020264,1.7431641,0.7011719c0.437439,0.0005493,0.8672485-0.1143188,1.2460938-0.3330078L22.5263672,7.15625z M4.21875,15.3144531l-3.1982422-3.09375l4.2441406,0.1914062c0.0958252,0.0111694,0.1925049-0.0123901,0.2724609-0.0664062l4.2724609-2.4666748C9.8690186,9.8446045,9.9207764,9.7984009,9.9616089,9.743103c0.1640015-0.2220459,0.1169434-0.5350952-0.1051636-0.6990967L5.1982422,5.6132812l2.1201172-1.2246094l5.781311,3.3046875c0.1544189,0.0882568,0.3441772,0.0875244,0.4979858-0.0019531l3.4638672-2c1.5070801-0.869873,3.4243774-0.5009155,4.5009766,0.8662109L6.0126953,15.5361328C5.4317017,15.8682861,4.701416,15.7780151,4.21875,15.3144531z"/></svg>