<svg xmlns="http://www.w3.org/2000/svg" enable-background="new 0 0 24 24" viewBox="0 0 24 24"><path fill="#6563ff" d="M19.6416016,21.8310547L2.3212891,11.8300781c-0.0012207-0.0007324-0.0024414-0.0014038-0.0036621-0.0021362c-0.239563-0.1370239-0.5447998-0.0539551-0.6818848,0.1855469c-0.1370239,0.239502-0.0539551,0.5447388,0.1855469,0.6818237l17.3203125,10.0009766c0.0758667,0.0441895,0.1621704,0.0674438,0.25,0.0673828c0.1783447-0.0001221,0.3430786-0.0952148,0.432373-0.2495117C19.9622192,22.2751465,19.8805542,21.9693604,19.6416016,21.8310547z M20.1777344,12.9022827l-3.2148438-1.8564453l-0.0302734-6.6591797c-0.0007935-0.1777954-0.0959473-0.3417969-0.25-0.4306641l-3.03125-1.75c-0.0598145-0.034668-0.1262207-0.0565186-0.1949463-0.0641479c-0.274292-0.0306396-0.5214844,0.1668701-0.552124,0.4411621l-0.6416016,5.7489624L8.7792969,6.3203125L6.2841797,1.5058594C6.1858521,1.3239746,5.9879761,1.2188721,5.7822266,1.2392578C5.5753784,1.2634888,5.4050903,1.413208,5.3544922,1.6152344L3.9521484,7.2148438C3.6852417,8.2972412,4.1641235,9.4260254,5.1279297,9.9863281l16.0136719,9.2451172c0.0758667,0.0442505,0.1621704,0.0675049,0.25,0.0673828c0.0438232-0.0002441,0.0874023-0.0058594,0.1298828-0.0166626c0.1279297-0.0344849,0.2368164-0.1184692,0.3027344-0.2333984C23.0641479,16.8964233,22.3275146,14.1466064,20.1777344,12.9022827z M21.1777344,18.0985718L5.6279297,9.1210327C5.0494995,8.7844849,4.7623291,8.1066895,4.9228516,7.4569702L6.0039062,3.140625l1.9541016,3.7705078C8.0020142,6.9957886,8.069458,7.065979,8.1523438,7.1132812l4.2724609,2.4667969c0.0598145,0.034668,0.1262207,0.0565186,0.1949463,0.064209c0.274292,0.0306396,0.5214844-0.1668701,0.552124-0.4411621l0.6416016-5.7490234l2.1201172,1.2236328l0.0302734,6.6591797c0.0007935,0.1778564,0.0959473,0.3418579,0.25,0.4306641l3.4638672,2C21.1848755,14.6376343,21.8239136,16.4827881,21.1777344,18.0985718z"/></svg>