<svg xmlns="http://www.w3.org/2000/svg" enable-background="new 0 0 24 24" viewBox="0 0 24 24"><path fill="#6563ff" d="M20.743103,3.2568359c-1.0223389-0.9765625-2.631897-0.9765625-3.6542969,0l-3.0234375,3.0234375l-6.78125-2.2607422C7.1043091,3.9615479,6.9071655,4.0081787,6.7723999,4.140625L4.414978,6.4990234C4.3724365,6.5415039,4.3379517,6.5913086,4.3130493,6.6460571C4.1989746,6.8973389,4.3102417,7.1935425,4.5615234,7.3076172l5.828064,2.6484375l-3.3623047,3.3623047l-2.0351562-1.0185547c-0.192688-0.0949707-0.4243774-0.057373-0.5771484,0.09375l-1.7684937,1.7685547c-0.000061,0.000061-0.0001221,0.0001221-0.0001221,0.0001831c-0.1951904,0.1952515-0.1951294,0.5117188,0.0001221,0.7068481l6.484375,6.484375C9.2244873,21.4474487,9.3517456,21.5001831,9.484375,21.5c0.1326294,0.0001831,0.2598877-0.0525513,0.3535156-0.1464844l1.7686157-1.7685547c0.1519775-0.1522827,0.1897583-0.3845825,0.09375-0.5771484l-1.0175781-2.0361328l3.3613281-3.3613281l2.6483765,5.828186c0.067627,0.1495972,0.2046509,0.2562256,0.3662109,0.2851562c0.1612549,0.0283813,0.3262329-0.0233154,0.4423828-0.1386719l2.3574219-2.3584595c0.1337891-0.1339722,0.1806641-0.3319702,0.1210938-0.5117188l-2.2597656-6.7802734l3.0233765-3.0234375C21.749939,5.901062,21.749939,4.2668457,20.743103,3.2568359z M20.0361328,6.2041016l-3.2421875,3.2421875c-0.1337891,0.1339722-0.1806641,0.3319702-0.1210938,0.5117188l2.2598267,6.7802734l-1.6289062,1.6289062l-2.6484375-5.8271484c-0.067627-0.1495972-0.2045898-0.2562866-0.3662109-0.2851562c-0.1610718-0.0258789-0.3248901,0.0254517-0.4423828,0.1386719l-4.1259766,4.1259766c-0.1520386,0.1522827-0.1897583,0.3845825-0.09375,0.5771484l1.0175171,2.0361328L9.484375,20.2929688L3.7069702,14.515625l1.1602173-1.1601562l2.0351562,1.0185547c0.192688,0.0951538,0.4244995,0.0574951,0.5771484-0.09375l4.1270142-4.1269531c0.0425415-0.0424805,0.0770264-0.0922852,0.1019287-0.1470337c0.1140747-0.2512817,0.0028687-0.5474854-0.2484131-0.6615601l-5.828186-2.6484375l1.6289062-1.6298828l6.78125,2.2607422c0.1797485,0.0601807,0.3780518,0.0132446,0.5117188-0.1210938l3.2421875-3.2421875c0.6271362-0.5976562,1.6130981-0.5976562,2.2402344,0C20.6533203,4.5830688,20.6533203,5.5848999,20.0361328,6.2041016z"/></svg>