<svg xmlns="http://www.w3.org/2000/svg" enable-background="new 0 0 24 24" viewBox="0 0 24 24"><path fill="#6563ff" d="M12,2C6.4771729,2,2,6.4771729,2,12s4.4771729,10,10,10c5.5201416-0.0064697,9.9935303-4.4798584,10-10C22,6.4771729,17.5228271,2,12,2z M12,21c-4.9705811,0-9-4.0294189-9-9s4.0294189-9,9-9c4.9683228,0.0054321,8.9945679,4.0316772,9,9C21,16.9705811,16.9705811,21,12,21z M16.2744141,10.7050781L10.2568359,7.1875c-0.2293701-0.1339722-0.4902344-0.2045898-0.7558594-0.2047119C8.6724243,6.9824219,8.0003662,7.6538086,8,8.4824219v7.0351562c0.0021362,0.8278809,0.6721802,1.4987183,1.5,1.5019531c0.2662354-0.0001221,0.5275879-0.0716553,0.7568359-0.2070312l6.0175781-3.5175781c0.2237549-0.1303711,0.4099121-0.3165283,0.5402832-0.5403442C17.2315063,12.0394287,16.989563,11.1218262,16.2744141,10.7050781z M15.7705078,12.4316406l-6.0175781,3.5175781c-0.0765991,0.0447998-0.1637573,0.0684814-0.2525024,0.0684814C9.2241211,16.0177612,9.000061,15.7938843,9,15.5175781V8.4824219c-0.0014648-0.1794434,0.0946655-0.345459,0.2509766-0.4335938c0.0767212-0.0440674,0.1635132-0.067627,0.2519531-0.0683594c0.0880737,0.0007935,0.1743774,0.0250854,0.25,0.0703125l6.0175781,3.5175781c0.074585,0.043457,0.1366577,0.1055298,0.1801147,0.1801147C16.0895386,11.9868164,16.0089111,12.2927246,15.7705078,12.4316406z"/></svg>