<svg xmlns="http://www.w3.org/2000/svg" enable-background="new 0 0 24 24" viewBox="0 0 24 24"><path fill="#6563ff" d="M19.2304688,9.4345703L9.3134766,3.4238281C8.7665405,3.0925903,8.1394043,2.9174805,7.5,2.9175415C5.5668335,2.9176636,3.9998779,4.4848633,4,6.4180298v11.1639404c-0.0087891,1.2662354,0.6748047,2.4360352,1.7822876,3.0499268c0.524292,0.2979126,1.1166992,0.4553223,1.7197266,0.4569702c0.6394043-0.0013428,1.2661743-0.1787109,1.8114624-0.5126953l9.9169922-6.0107422c0.4147339-0.2509155,0.7623901-0.5985718,1.0133057-1.0133057C21.1010132,12.1353149,20.6473389,10.2918091,19.2304688,9.4345703z M18.7128906,13.7099609l-9.9169922,6.0107422c-0.390686,0.2366943-0.8388062,0.3618164-1.2955933,0.3617554c-1.3809204,0-2.5003662-1.1195068-2.5003052-2.5004883V6.4180298c-0.0063477-0.9046631,0.4821777-1.7404175,1.2734985-2.178772C6.6480103,4.0263672,7.071228,3.9140015,7.5020142,3.9130859c0.456665,0.0012207,0.9042969,0.1279297,1.2938843,0.3662109l9.9169922,6.0107422c0.2763062,0.1671753,0.5079346,0.3988647,0.6751099,0.6751099C19.9595337,11.9095459,19.6572876,13.1384277,18.7128906,13.7099609z"/></svg>