<svg xmlns="http://www.w3.org/2000/svg" enable-background="new 0 0 24 24" viewBox="0 0 24 24"><path fill="#6563ff" d="M19.5,6H16V2.5C16,2.2,15.8,2,15.5,2S15,2.2,15,2.5V6H9V2.5C9,2.2,8.8,2,8.5,2S8,2.2,8,2.5V6H4.5C4.2,6,4,6.2,4,6.5S4.2,7,4.5,7H6v6.5c0,0.1,0.1,0.3,0.1,0.4L9,16.7v4.8C9,21.8,9.2,22,9.5,22h0c0.3,0,0.5-0.2,0.5-0.5V17h4v4.5c0,0.3,0.2,0.5,0.5,0.5h0c0.3,0,0.5-0.2,0.5-0.5v-4.8l2.9-2.9c0.1-0.1,0.1-0.2,0.1-0.4V7h1.5C19.8,7,20,6.8,20,6.5S19.8,6,19.5,6z M17,13.3L14.3,16H9.7L7,13.3V7h10V13.3z M10.5,13h3c0.3,0,0.5-0.2,0.5-0.5S13.8,12,13.5,12h-3c-0.3,0-0.5,0.2-0.5,0.5S10.2,13,10.5,13z"/></svg>