<svg xmlns="http://www.w3.org/2000/svg" enable-background="new 0 0 24 24" viewBox="0 0 24 24"><path fill="#6563ff" d="M7.5,12.5h4v4c0,0.0001831,0,0.0003662,0,0.0005493C11.5001831,16.7765503,11.723999,17.0001831,12,17c0.0001831,0,0.0003662,0,0.0006104,0c0.2759399-0.0001831,0.4995728-0.223999,0.4993896-0.5v-4h4c0.276123,0,0.5-0.223877,0.5-0.5s-0.223877-0.5-0.5-0.5h-4v-4C12.5,7.223877,12.276123,7,12,7s-0.5,0.223877-0.5,0.5v4h-4C7.223877,11.5,7,11.723877,7,12S7.223877,12.5,7.5,12.5z M21.5,2h-19C2.4998169,2,2.4996338,2,2.4993896,2C2.2234497,2.0001831,1.9998169,2.223999,2,2.5v19c0,0.0001831,0,0.0003662,0,0.0005493C2.0001831,21.7765503,2.223999,22.0001831,2.5,22h19c0.0001831,0,0.0003662,0,0.0006104,0C21.7765503,21.9998169,22.0001831,21.776001,22,21.5v-19c0-0.0001831,0-0.0003662,0-0.0006104C21.9998169,2.2234497,21.776001,1.9998169,21.5,2z M21,21H3V3h18V21z"/></svg>