<svg xmlns="http://www.w3.org/2000/svg" enable-background="new 0 0 24 24" viewBox="0 0 24 24"><path fill="#6563ff" d="M19.5,7H7V6.5c0.0011597-1.2446289,0.9134521-2.2681885,2.1043091-2.4597778C9.3215942,4.6008911,9.8626099,5,10.5,5h1C12.3284302,5,13,4.3284302,13,3.5S12.3284302,2,11.5,2h-1C9.8320312,2,9.2727051,2.4395752,9.0784912,3.0429688C7.3477173,3.255127,6.0021362,4.7124023,6,6.5V7H4.5C4.4667358,6.999939,4.4335938,7.0032349,4.4009399,7.0097656C4.1306152,7.0640869,3.9554443,7.3272705,4.0097656,7.5976562l0.6787109,3.3925781C4.9241333,12.1575317,5.9487915,12.9976807,7.1396484,13h0.4126587l0.888855,8H7c-0.276123,0-0.5,0.223877-0.5,0.5S6.723877,22,7,22h10c0.276123,0,0.5-0.223877,0.5-0.5S17.276123,21,17,21h-1.4411621l0.888855-8h0.4126587c1.1908569-0.0023193,2.2155151-0.8424683,2.4511719-2.0097656l0.6787109-3.3925781C19.9967651,7.5650635,20.000061,7.5318604,20,7.4986572C19.9996338,7.2228394,19.7757568,6.9996338,19.5,7z M10.5,3h1C11.776123,3,12,3.223877,12,3.5S11.776123,4,11.5,4h-1C10.223877,4,10,3.776123,10,3.5S10.223877,3,10.5,3z M14.5527344,21H9.4472656l-0.8886719-8h6.8828125L14.5527344,21z M18.3310547,10.7949219C18.1893311,11.4949951,17.574646,11.9987183,16.8603516,12H7.1396484c-0.7142944-0.0012817-1.3289795-0.5050049-1.4707031-1.2050781L5.1103516,8h13.7792969L18.3310547,10.7949219z"/></svg>