<svg xmlns="http://www.w3.org/2000/svg" enable-background="new 0 0 24 24" viewBox="0 0 24 24"><path fill="#6563ff" d="M12,5.5c-3.5898438,0-6.5,2.9101562-6.5,6.5s2.9101562,6.5,6.5,6.5c1.1409912-0.0003662,2.2617798-0.3007812,3.25-0.8710938c0.2389526-0.1380615,0.3206787-0.4436646,0.1826172-0.6826172S14.9889526,16.6256104,14.75,16.7636719c-0.8353882,0.4821777-1.782959,0.736084-2.7474976,0.7363281c-3.0368652,0.0006714-5.4993286-2.4606323-5.5-5.4974976S8.9631348,6.5031738,12,6.5025024S17.4993286,8.9631348,17.5,12v0.5c-0.0003052,0.7360229-0.5969238,1.3326416-1.3329468,1.3329468C15.430603,13.833252,14.833313,13.2364502,14.8330078,12.5V9.6669922c0-0.276123-0.223877-0.5-0.5-0.5s-0.5,0.223877-0.5,0.5v0.1893311C13.3378296,9.4324951,12.7028809,9.1669922,12,9.1669922c-1.5646362,0-2.8330078,1.2683716-2.8330078,2.8330078S10.4353638,14.8330078,12,14.8330078c0.8967896-0.0008545,1.6864624-0.4260864,2.2055054-1.0765991c0.414917,0.6461182,1.1358643,1.0767212,1.9606934,1.0767822C17.4549561,14.833374,18.4998169,13.7887573,18.5,12.5V12C18.5,8.4101562,15.5898438,5.5,12,5.5z M12,13.8330078c-1.0123291,0-1.8330078-0.8206787-1.8330078-1.8330078S10.9876709,10.1669922,12,10.1669922C13.0118408,10.1681519,13.8318481,10.9881592,13.8330078,12C13.8330078,13.0123291,13.0123291,13.8330078,12,13.8330078z M22.5,5h0.0006104C22.7765503,4.9998169,23.0001831,4.776001,23,4.5V1.4993896C22.9998169,1.2234497,22.776001,0.9998169,22.5,1h-3C19.223877,1,19,1.223877,19,1.5c0,0.5523071-0.4476929,1-1,1s-1-0.4476929-1-1C17,1.223877,16.776123,1,16.5,1h-3C13.223877,1,13,1.223877,13,1.5c0,0.5523071-0.4476929,1-1,1s-1-0.4476929-1-1C11,1.223877,10.776123,1,10.5,1h-3C7.223877,1,7,1.223877,7,1.5c0,0.5523071-0.4476929,1-1,1s-1-0.4476929-1-1C5,1.223877,4.776123,1,4.5,1H1.4993896C1.2234497,1.0001831,0.9998169,1.223999,1,1.5v3.0006104C1.0001831,4.7765503,1.223999,5.0001831,1.5,5c0.5523071,0,1,0.4476929,1,1s-0.4476929,1-1,1C1.223877,7,1,7.223877,1,7.5v3.0005493C1.0001831,10.7765503,1.223999,11.0001831,1.5,11c0.5523071,0,1,0.4476929,1,1s-0.4476929,1-1,1C1.223877,13,1,13.223877,1,13.5v3.0005493C1.0001831,16.7765503,1.223999,17.0001831,1.5,17c0.5523071,0,1,0.4476929,1,1s-0.4476929,1-1,1C1.223877,19,1,19.223877,1,19.5v3.0005493C1.0001831,22.7765503,1.223999,23.0001831,1.5,23h3C4.776123,23,5,22.776123,5,22.5c0-0.5523071,0.4476929-1,1-1s1,0.4476929,1,1v0.0005493C7.0001831,22.7765503,7.223999,23.0001831,7.5,23h3c0.276123,0,0.5-0.223877,0.5-0.5c0-0.5523071,0.4476929-1,1-1s1,0.4476929,1,1v0.0005493C13.0001831,22.7765503,13.223999,23.0001831,13.5,23h3c0.276123,0,0.5-0.223877,0.5-0.5c0-0.5523071,0.4476929-1,1-1s1,0.4476929,1,1v0.0005493C19.0001831,22.7765503,19.223999,23.0001831,19.5,23h3.0006104C22.7765503,22.9998169,23.0001831,22.776001,23,22.5v-3c0-0.276123-0.223877-0.5-0.5-0.5c-0.5523071,0-1-0.4476929-1-1s0.4476929-1,1-1h0.0006104C22.7765503,16.9998169,23.0001831,16.776001,23,16.5v-3c0-0.276123-0.223877-0.5-0.5-0.5c-0.5523071,0-1-0.4476929-1-1s0.4476929-1,1-1h0.0006104C22.7765503,10.9998169,23.0001831,10.776001,23,10.5v-3C23,7.223877,22.776123,7,22.5,7c-0.5523071,0-1-0.4476929-1-1S21.9476929,5,22.5,5z M22,7.9292603v2.1414795C21.138855,10.2937622,20.5,11.0691528,20.5,12s0.638855,1.7062378,1.5,1.9292603v2.1414795C21.138855,16.2937622,20.5,17.0691528,20.5,18s0.638855,1.7062378,1.5,1.9292603V22h-2.0707397C19.7062378,21.138855,18.9308472,20.5,18,20.5s-1.7062378,0.638855-1.9292603,1.5h-2.1414795C13.7062378,21.138855,12.9308472,20.5,12,20.5s-1.7062378,0.638855-1.9292603,1.5H7.9292603C7.7062378,21.138855,6.9308472,20.5,6,20.5S4.2937622,21.138855,4.0707397,22H2v-2.0707397C2.861145,19.7062378,3.5,18.9308472,3.5,18S2.861145,16.2937622,2,16.0707397v-2.1414795C2.861145,13.7062378,3.5,12.9308472,3.5,12S2.861145,10.2937622,2,10.0707397V7.9292603C2.861145,7.7062378,3.5,6.9308472,3.5,6S2.861145,4.2937622,2,4.0707397V2h2.0712891C4.2950439,2.8604736,5.0697021,3.4988403,6,3.5C6.9302979,3.4988403,7.7049561,2.8604736,7.9287109,2h2.1425781C10.2950439,2.8604736,11.0697021,3.4988403,12,3.5c0.9302979-0.0011597,1.7049561-0.6395264,1.9287109-1.5h2.1425781C16.2950439,2.8604736,17.0697021,3.4988403,18,3.5c0.9302979-0.0011597,1.7049561-0.6395264,1.9287109-1.5H22v2.0707397C21.138855,4.2937622,20.5,5.0691528,20.5,6S21.138855,7.7062378,22,7.9292603z"/></svg>