<svg xmlns="http://www.w3.org/2000/svg" enable-background="new 0 0 24 24" viewBox="0 0 24 24"><path fill="#6563ff" d="M16.5,11h2c0.0001831,0,0.0003662,0,0.0006104,0C18.7765503,10.9998169,19.0001831,10.776001,19,10.5v-2c0-0.0001831,0-0.0003662,0-0.0006104C18.9998169,8.2234497,18.776001,7.9998169,18.5,8h-2c-0.0001831,0-0.0003662,0-0.0005493,0C16.2234497,8.0001831,15.9998169,8.223999,16,8.5v2c0,0.0001831,0,0.0003662,0,0.0005493C16.0001831,10.7765503,16.223999,11.0001831,16.5,11z M17,9h1v1h-1V9z M22.5,4h-21C1.4998169,4,1.4996338,4,1.4993896,4C1.2234497,4.0001831,0.9998169,4.223999,1,4.5v15c0,0.0001831,0,0.0003662,0,0.0005493C1.0001831,19.7765503,1.223999,20.0001831,1.5,20h21c0.0001831,0,0.0003662,0,0.0006104,0C22.7765503,19.9998169,23.0001831,19.776001,23,19.5v-15c0-0.0001831,0-0.0003662,0-0.0006104C22.9998169,4.2234497,22.776001,3.9998169,22.5,4z M22,19H2V5h20V19z M5.5,16h6c0.276123,0,0.5-0.223877,0.5-0.5S11.776123,15,11.5,15h-6C5.223877,15,5,15.223877,5,15.5S5.223877,16,5.5,16z M5.5,12h6c0.276123,0,0.5-0.223877,0.5-0.5S11.776123,11,11.5,11h-6C5.223877,11,5,11.223877,5,11.5S5.223877,12,5.5,12z"/></svg>