<svg xmlns="http://www.w3.org/2000/svg" enable-background="new 0 0 24 24" viewBox="0 0 24 24"><path fill="#6563ff" d="M20,20.5H6.793457C7.824585,19.6754761,8.4984741,18.4226074,8.5,17v-3.5H15c0.276123,0,0.5-0.223877,0.5-0.5s-0.223877-0.5-0.5-0.5H8.5V8.8945312c0.0002441-1.9271851,1.0283813-3.7078247,2.6972656-4.6715698c2.5803833-1.4899902,5.880127-0.6060791,7.3701172,1.9743042C18.7054443,6.4362183,19.0110474,6.5179443,19.25,6.3798828s0.3206787-0.4436646,0.1826172-0.6826172C18.2903442,3.7188721,16.1793823,2.500061,13.8948975,2.5C10.3631592,2.499939,7.5001221,5.362854,7.5,8.8945312V12.5H4c-0.276123,0-0.5,0.223877-0.5,0.5s0.223877,0.5,0.5,0.5h3.5V17c-0.0023193,1.9320068-1.5679932,3.4976807-3.5,3.5c-0.276123,0-0.5,0.223877-0.5,0.5s0.223877,0.5,0.5,0.5h16c0.276123,0,0.5-0.223877,0.5-0.5S20.276123,20.5,20,20.5z"/></svg>