<svg xmlns="http://www.w3.org/2000/svg" enable-background="new 0 0 24 24" viewBox="0 0 24 24"><path fill="#6563ff" d="M16,15.5H9.9874878C10.3042603,15.0811768,10.4994507,14.5654907,10.5,14v-1.5h3c0.276123,0,0.5-0.223877,0.5-0.5s-0.223877-0.5-0.5-0.5h-3V9.9472656c-0.000061-0.8743286,0.4663696-1.682312,1.2236328-2.1194458c1.1704712-0.6757202,2.6670532-0.2746582,3.3427734,0.895813c0.000061,0.0001221,0.0001221,0.0001831,0.0001831,0.0003052c0.1381226,0.2393799,0.4442139,0.3214722,0.6836548,0.1833496c0.2393799-0.1381836,0.3214722-0.4442139,0.1833496-0.6836548C15.317749,7.1572266,14.1798706,6.5001831,12.9484253,6.5C11.0442505,6.4996948,9.5003052,8.0430908,9.5,9.9472656V11.5H8c-0.276123,0-0.5,0.223877-0.5,0.5s0.223877,0.5,0.5,0.5h1.5V14c-0.0009155,0.828064-0.671936,1.4990845-1.5,1.5c-0.276123,0-0.5,0.223877-0.5,0.5s0.223877,0.5,0.5,0.5h8c0.276123,0,0.5-0.223877,0.5-0.5S16.276123,15.5,16,15.5z M12,1C5.9248657,1,1,5.9248657,1,12s4.9248657,11,11,11c6.0722656-0.0068359,10.9931641-4.9277344,11-11C23,5.9248657,18.0751343,1,12,1z M12,22C6.4771729,22,2,17.5228271,2,12S6.4771729,2,12,2c5.5201416,0.0064697,9.9935303,4.4798584,10,10C22,17.5228271,17.5228271,22,12,22z"/></svg>