<svg xmlns="http://www.w3.org/2000/svg" enable-background="new 0 0 24 24" viewBox="0 0 24 24"><path fill="#6563ff" d="M9.3535156,5.8535156L11.5,3.7069702v6.7935791C11.5001831,10.7765503,11.723999,11.0001831,12,11h0.0006104c0.2759399-0.0001831,0.4995728-0.223999,0.4993896-0.5V3.7069702l2.1464844,2.1465454C14.7401123,5.9474487,14.8673706,6.0001831,15,6c0.1325073,0,0.2596436-0.0526733,0.3533936-0.1463623c0.1953125-0.1952515,0.1953735-0.5118408,0.0001221-0.7070923l-3-3c-0.000061-0.000061-0.000061-0.0001221-0.0001221-0.0001831c-0.1952515-0.1951294-0.5117188-0.1950684-0.7068481,0.0001831l-3,3c-0.1871948,0.1937256-0.1871948,0.5009155,0,0.6947021C8.8383789,6.039856,9.1549072,6.0453491,9.3535156,5.8535156z M18.0106812,7.4775391c-0.0023193-0.0023804-0.0046997-0.0047607-0.0071411-0.0071411c-0.1971436-0.1932373-0.5137329-0.1900635-0.7069702,0.0071411c-0.1932983,0.1972046-0.1900635,0.5137329,0.0071411,0.7069702c0.0019531,0.0019531,0.0038452,0.0039062,0.0057983,0.0058594c2.9291992,2.9324341,2.9265747,7.6841431-0.0057983,10.6132812c-2.9324341,2.9291992-7.6841431,2.9265747-10.6132812-0.0058594c-2.9291992-2.932373-2.9265747-7.684082,0.0058594-10.6132812c0.1904907-0.1943359,0.1904907-0.5054321,0-0.6998291C6.5029907,7.2874756,6.1864624,7.2843018,5.9892578,7.4775391c-1.5982056,1.5957031-2.4958496,3.7617188-2.4949341,6.0202026C3.4963379,18.1932373,7.3045044,21.9981079,12,21.9960938c2.2584839,0.0009766,4.4245605-0.8967285,6.0203247-2.4949951C21.3378906,16.1782227,21.3335571,10.795105,18.0106812,7.4775391z"/></svg>