<svg xmlns="http://www.w3.org/2000/svg" enable-background="new 0 0 24 24" viewBox="0 0 24 24"><path fill="#6563ff" d="M9,11.5c0.1671753,0.000061,0.3233032-0.0834961,0.4160156-0.2226562l1.6621094-2.4921875l1.5683594,1.5683594c0.1089478,0.100769,0.2541504,0.1529541,0.4023438,0.1445312c0.1491699-0.0150757,0.2838745-0.0960083,0.3671875-0.2207031l2-3c0.1485596-0.2279663,0.0875854-0.5328979-0.1372681-0.6861572c-0.2281494-0.1555786-0.5391846-0.0966797-0.6947632,0.1314697L12.921875,9.2148438l-1.5683594-1.5683594c-0.1071777-0.1035767-0.2537231-0.156189-0.4023438-0.1445312c-0.1491699,0.0150146-0.2838745,0.0960083-0.3671875,0.2207031l-2,3C8.5292358,10.8048096,8.500061,10.9012451,8.500061,10.999939C8.5,11.276123,8.723877,11.5,9,11.5z M21.5,15H20V2.4993896C19.9998169,2.2234497,19.776001,1.9998169,19.5,2H4.4993896C4.2234497,2.0001831,3.9998169,2.223999,4,2.5V15H2.5C2.223877,15,2,15.223877,2,15.5S2.223877,16,2.5,16h9v1.4281006l-5.2851562,3.6607666c-0.1349487,0.0935059-0.2153931,0.2472534-0.215271,0.411438C5.9997559,21.7764893,6.2238159,22.0001831,6.5,22c0.1018677-0.0001221,0.2012939-0.0311279,0.2851562-0.0888672L11.5,18.6453857v2.8551636C11.5001831,21.7765503,11.723999,22.0001831,12,22h0.0006104c0.2759399-0.0001831,0.4995728-0.223999,0.4993896-0.5v-2.8546143l4.7148438,3.2657471C17.2987061,21.9688721,17.3981323,21.9998779,17.5,22c0.1641846,0.0001221,0.3179321-0.0803223,0.411438-0.215271c0.1572876-0.2270508,0.100769-0.5385742-0.1262817-0.6958618L12.5,17.4281006V16h9c0.276123,0,0.5-0.223877,0.5-0.5S21.776123,15,21.5,15z M19,15H5V3h14V15z"/></svg>