<svg xmlns="http://www.w3.org/2000/svg" enable-background="new 0 0 24 24" viewBox="0 0 24 24"><path fill="#6563ff" d="M21.5,15H20V3h1.5C21.776123,3,22,2.776123,22,2.5S21.776123,2,21.5,2h-19C2.223877,2,2,2.223877,2,2.5S2.223877,3,2.5,3H4v12H2.5C2.223877,15,2,15.223877,2,15.5S2.223877,16,2.5,16h9v1.486084l-5.28125,3.6008301c-0.1365356,0.0930786-0.2183228,0.2475586-0.2183838,0.4128418C6.0001831,21.7758789,6.223877,21.9998169,6.5,22c0.1004028,0.0001221,0.1984253-0.0302124,0.28125-0.0869141L11.5,18.6957397v2.8048096C11.5001831,21.7765503,11.723999,22.0001831,12,22h0.0006104c0.2759399-0.0001831,0.4995728-0.223999,0.4993896-0.5v-2.8042603l4.71875,3.2173462C17.3015747,21.9697876,17.3995972,22.0001221,17.5,22c0.1652832-0.0001221,0.3197632-0.0818481,0.4128418-0.2183838c0.1555176-0.2282104,0.0965576-0.5392456-0.1315918-0.6947021L12.5,17.486084V16h9c0.276123,0,0.5-0.223877,0.5-0.5S21.776123,15,21.5,15z M19,15H5V3h14V15z M9.3789062,12.296875c0.2247314,0.1330566,0.4810181,0.2035522,0.7421875,0.2041016c0.2497559-0.0004883,0.4952393-0.0650024,0.7128906-0.1875l3.7578125-2.0927734c0.2363281-0.1281738,0.4303589-0.3222046,0.5585327-0.5585327c0.3657227-0.6741943,0.1156616-1.5171509-0.5585327-1.8828735l-3.7578125-2.0927734C10.3810425,5.4309082,9.8259277,5.4372559,9.3789062,5.703125C8.947876,5.9508057,8.682251,6.4100952,8.6826172,6.9072266v4.1855469C8.682251,11.5899048,8.947876,12.0492554,9.3789062,12.296875z M9.6826172,6.9072266c0.0014038-0.1421509,0.0789795-0.272583,0.203125-0.3417969C9.9569702,6.5230713,10.038208,6.5004883,10.1210938,6.5c0.0793457,0.0005493,0.1572266,0.0210571,0.2265625,0.0595703l3.7578125,2.0927734c0.0732422,0.0374146,0.1328125,0.0969849,0.1702271,0.1702271c0.0980225,0.1920166,0.0217896,0.427124-0.1702271,0.5250854l-3.7578125,2.0927734c-0.144104,0.0802002-0.3198853,0.0780029-0.4619141-0.0058594c-0.1241455-0.0692139-0.2017212-0.199646-0.203125-0.3417969V6.9072266z"/></svg>