<svg xmlns="http://www.w3.org/2000/svg" enable-background="new 0 0 24 24" viewBox="0 0 24 24"><path fill="#6563ff" d="M10.6464844,11.3535156C10.7401123,11.4474487,10.8673706,11.5001831,11,11.5c0.1326294,0.0001221,0.2598267-0.0525513,0.3534546-0.1464844l4-4c0.1871338-0.1937866,0.1871338-0.5009155,0-0.6947021c-0.1918335-0.1986084-0.5083618-0.2041626-0.7069702-0.0123291L11,10.2930298L9.3534546,8.6465454c-0.1937256-0.1871338-0.5009155-0.1871338-0.6947021,0C8.460144,8.8383789,8.4546509,9.1549072,8.6464844,9.3535156L10.6464844,11.3535156z M21.5,15H20V3h1.5C21.776123,3,22,2.776123,22,2.5S21.776123,2,21.5,2h-2h-15C4.4998169,2,4.4996338,2,4.4993896,2H2.5C2.223877,2,2,2.223877,2,2.5S2.223877,3,2.5,3H4v12H2.5C2.223877,15,2,15.223877,2,15.5S2.223877,16,2.5,16h2h7v1.4281006l-5.2851562,3.6607666c-0.1349487,0.0935059-0.2153931,0.2472534-0.215271,0.411438C5.9997559,21.7764893,6.2238159,22.0001831,6.5,22c0.1018677-0.0001221,0.2012939-0.0311279,0.2851562-0.0888672L11.5,18.6453857V21.5c0,0.0001831,0,0.0003662,0,0.0005493C11.5001831,21.7765503,11.723999,22.0001831,12,22c0.0001831,0,0.0003662,0,0.0006104,0c0.2759399-0.0001831,0.4995728-0.223999,0.4993896-0.5v-2.8546143l4.7148438,3.2657471C17.2987061,21.9688721,17.3981323,21.9998779,17.5,22c0.1641846,0.0001221,0.3179321-0.0803223,0.411438-0.215271c0.1572876-0.2270508,0.100769-0.5385742-0.1262817-0.6958618L12.5,17.4281006V16h7c0.0001831,0,0.0003662,0,0.0006104,0H21.5c0.276123,0,0.5-0.223877,0.5-0.5S21.776123,15,21.5,15z M19,15H5V3h14V15z"/></svg>