<svg xmlns="http://www.w3.org/2000/svg" enable-background="new 0 0 24 24" viewBox="0 0 24 24"><path fill="#6563ff" d="M21.5,15H20V3h1.5C21.776123,3,22,2.776123,22,2.5S21.776123,2,21.5,2h-2h-15C4.4998169,2,4.4996338,2,4.4993896,2H2.5C2.223877,2,2,2.223877,2,2.5S2.223877,3,2.5,3H4v12H2.5C2.223877,15,2,15.223877,2,15.5S2.223877,16,2.5,16h2h7v1.4281006l-5.2851562,3.6607666c-0.1349487,0.0935059-0.2153931,0.2472534-0.215271,0.411438C5.9997559,21.7764893,6.2238159,22.0001831,6.5,22c0.1018677-0.0001221,0.2012939-0.0311279,0.2851562-0.0888672L11.5,18.6453857V21.5c0,0.0001831,0,0.0003662,0,0.0005493C11.5001831,21.7765503,11.723999,22.0001831,12,22c0.0001831,0,0.0003662,0,0.0006104,0c0.2759399-0.0001831,0.4995728-0.223999,0.4993896-0.5v-2.8546143l4.7148438,3.2657471C17.2987061,21.9688721,17.3981323,21.9998779,17.5,22c0.1641846,0.0001221,0.3179321-0.0803223,0.411438-0.215271c0.1572876-0.2270508,0.100769-0.5385742-0.1262817-0.6958618L12.5,17.4281006V16h7c0.0001831,0,0.0003662,0,0.0006104,0H21.5c0.276123,0,0.5-0.223877,0.5-0.5S21.776123,15,21.5,15z M19,15H5V3h14V15z M10,9.5h1.5V11c0,0.0001831,0,0.0003662,0,0.0005493C11.5001831,11.2765503,11.723999,11.5001831,12,11.5c0.0001831,0,0.0003662,0,0.0006104,0C12.2765503,11.4998169,12.5001831,11.276001,12.5,11V9.5H14c0.276123,0,0.5-0.223877,0.5-0.5S14.276123,8.5,14,8.5h-1.5V7c0-0.276123-0.223877-0.5-0.5-0.5S11.5,6.723877,11.5,7v1.5H10C9.723877,8.5,9.5,8.723877,9.5,9S9.723877,9.5,10,9.5z"/></svg>