<svg xmlns="http://www.w3.org/2000/svg" enable-background="new 0 0 24 24" viewBox="0 0 24 24"><path fill="#6563ff" d="M10.5839844,10.2773438c0.083313,0.1246948,0.2180176,0.2056885,0.3671875,0.2207031c0.1481323,0.0081177,0.2932739-0.0440063,0.4023438-0.1445312l1.5683594-1.5683594l1.6621094,2.4921875C14.6766968,11.4165039,14.8328247,11.500061,15,11.5c0.0986938,0,0.1951904-0.0292358,0.2772827-0.0839844c0.2297974-0.1531372,0.2918701-0.463562,0.1387329-0.6933594l-2-3c-0.083313-0.1246948-0.2180176-0.2056274-0.3671875-0.2207031c-0.1487427-0.0123291-0.2954712,0.0404053-0.4023438,0.1445312L11.078125,9.2148438L9.4160156,6.7226562c-0.0018921-0.0028687-0.0037842-0.0057373-0.0057373-0.008606C9.2546997,6.4859009,8.9436646,6.427002,8.7155151,6.5825806C8.4873047,6.7380981,8.4284668,7.0491943,8.5839844,7.2773438L10.5839844,10.2773438z M21.5,15H20V3h1.5C21.776123,3,22,2.776123,22,2.5S21.776123,2,21.5,2h-19C2.223877,2,2,2.223877,2,2.5S2.223877,3,2.5,3H4v12H2.5C2.223877,15,2,15.223877,2,15.5S2.223877,16,2.5,16h9v1.4281006l-5.2851562,3.6607666c-0.1349487,0.0935059-0.2153931,0.2472534-0.215271,0.411438C5.9997559,21.7764893,6.2238159,22.0001831,6.5,22c0.1018677-0.0001221,0.2012939-0.0311279,0.2851562-0.0888672L11.5,18.6453857v2.8551636C11.5001831,21.7765503,11.723999,22.0001831,12,22h0.0006104c0.2759399-0.0001831,0.4995728-0.223999,0.4993896-0.5v-2.8546143l4.7148438,3.2657471C17.2987061,21.9688721,17.3981323,21.9998779,17.5,22c0.1641846,0.0001221,0.3179321-0.0803223,0.411438-0.215271c0.1572876-0.2270508,0.100769-0.5385742-0.1262817-0.6958618L12.5,17.4281006V16h9c0.276123,0,0.5-0.223877,0.5-0.5S21.776123,15,21.5,15z M19,15H5V3h14V15z"/></svg>