<svg xmlns="http://www.w3.org/2000/svg" enable-background="new 0 0 24 24" viewBox="0 0 24 24"><path fill="#6563ff" d="M21.5009766,15H20V3h1.5009766c0.2761841,0,0.5-0.223877,0.5-0.5s-0.2238159-0.5-0.5-0.5h-19c-0.276123,0-0.5,0.223877-0.5,0.5s0.223877,0.5,0.5,0.5h1.5v12h-1.5c-0.276123,0-0.5,0.223877-0.5,0.5s0.223877,0.5,0.5,0.5H11.5v1.4281006l-5.2851562,3.6607666c-0.1349487,0.0935059-0.2153931,0.2472534-0.215271,0.411438C5.9997559,21.7764893,6.2238159,22.0001831,6.5,22c0.1018677-0.0001221,0.2012939-0.0311279,0.2851562-0.0888672L11.5,18.6453857v2.8551636C11.5001831,21.7765503,11.723999,22.0001831,12,22h0.0006104c0.2759399-0.0001831,0.4995728-0.223999,0.4993896-0.5v-2.8546143l4.7148438,3.2657471C17.2987061,21.9688721,17.3981323,21.9998779,17.5,22c0.1641846,0.0001221,0.3179321-0.0803223,0.411438-0.215271c0.1572876-0.2270508,0.100769-0.5385742-0.1262817-0.6958618L12.5,17.4281006V16h9.0009766c0.2761841,0,0.5-0.223877,0.5-0.5S21.7771606,15,21.5009766,15z M19,15H5.0009766V3H19V15z M9.5009766,12.5h2.4199219c0.1326294,0,0.2597656-0.0526733,0.3535156-0.1464844l3.5802612-3.5802612c0.1951294-0.1952515,0.1950684-0.5117188-0.0001831-0.7068481l-2.4208984-2.4199219l-0.0001831-0.0001831c-0.1951904-0.1951294-0.5116577-0.1950684-0.7068481,0.0001831L9.1474609,9.2265625c-0.093811,0.09375-0.1464844,0.2208862-0.1464844,0.3535156v2.4204712C9.0011597,12.2765503,9.2250366,12.5001831,9.5009766,12.5z M10.0009766,9.7871094l3.0791016-3.0801392l1.7139282,1.7129517L11.7138672,11.5h-1.7128906V9.7871094z"/></svg>