<svg xmlns="http://www.w3.org/2000/svg" enable-background="new 0 0 24 24" viewBox="0 0 24 24"><path fill="#6563ff" d="M19.5,2h-15C3.671936,2.0009155,3.0009155,2.671936,3,3.5v3C3.0009155,7.328064,3.671936,7.9990845,4.5,8H5v11.5c0.0012817,1.380188,1.119812,2.4987183,2.5,2.5h9c1.380188-0.0012817,2.4987183-1.119812,2.5-2.5V8h0.5c0.828064-0.0009155,1.4990845-0.671936,1.5-1.5v-3C20.9990845,2.671936,20.328064,2.0009155,19.5,2z M18,17h-7v-6h7V17z M18,10h-7.5005493C10.2234497,10.0001831,9.9998169,10.223999,10,10.5v7.0005493C10.0001831,17.7765503,10.223999,18.0001831,10.5,18H18v1.5c-0.0009155,0.828064-0.671936,1.4990845-1.5,1.5h-9c-0.828064-0.0009155-1.4990845-0.671936-1.5-1.5V8h12V10z M20,6.5c-0.0005493,0.2759399-0.2240601,0.4994507-0.5,0.5h-15C4.2240601,6.9994507,4.0005493,6.7759399,4,6.5v-3C4.0005493,3.2240601,4.2240601,3.0005493,4.5,3h15c0.2759399,0.0005493,0.4994507,0.2240601,0.5,0.5V6.5z"/></svg>