<svg xmlns="http://www.w3.org/2000/svg" enable-background="new 0 0 24 24" viewBox="0 0 24 24"><path fill="#6563ff" d="M21.5,15H20V3h1.5C21.776123,3,22,2.776123,22,2.5S21.776123,2,21.5,2h-19C2.223877,2,2,2.223877,2,2.5S2.223877,3,2.5,3H4v12H2.5C2.223877,15,2,15.223877,2,15.5S2.223877,16,2.5,16h9v1.486084l-5.28125,3.6008301c-0.1365356,0.0930786-0.2183228,0.2475586-0.2183838,0.4128418C6.0001831,21.7758789,6.223877,21.9998169,6.5,22c0.1004028,0.0001221,0.1984253-0.0302124,0.28125-0.0869141L11.5,18.6957397v2.8048096C11.5001831,21.7765503,11.723999,22.0001831,12,22h0.0006104c0.2759399-0.0001831,0.4995728-0.223999,0.4993896-0.5v-2.8042603l4.71875,3.2173462C17.3015747,21.9697876,17.3995972,22.0001221,17.5,22c0.1652832-0.0001221,0.3197632-0.0818481,0.4128418-0.2183838c0.1555176-0.2282104,0.0965576-0.5392456-0.1315918-0.6947021L12.5,17.486084V16h9c0.276123,0,0.5-0.223877,0.5-0.5S21.776123,15,21.5,15z M19,15H5V3h14V15z"/></svg>