<svg xmlns="http://www.w3.org/2000/svg" enable-background="new 0 0 24 24" viewBox="0 0 24 24"><path fill="#6563ff" d="M7,5.5C6.1715698,5.5,5.5,6.1715698,5.5,7S6.1715698,8.5,7,8.5C7.828064,8.4990845,8.4990845,7.828064,8.5,7C8.5,6.1715698,7.8284302,5.5,7,5.5z M7,7.5C6.723877,7.5,6.5,7.276123,6.5,7S6.723877,6.5,7,6.5C7.2759399,6.5005493,7.4994507,6.7240601,7.5,7C7.5,7.276123,7.276123,7.5,7,7.5z M21.8535156,12.1464844l-10-10C11.7597656,2.0526733,11.6326294,2,11.5,2h-6C5.3673706,2,5.2402344,2.0526733,5.1464844,2.1464844l-3,3C2.0526733,5.2402344,2,5.3673706,2,5.5v6c0,0.1326294,0.0526733,0.2597656,0.1464844,0.3535156l10,10C12.2401123,21.9474487,12.3673706,22.0001831,12.5,22c0.1326294,0.0001221,0.2598877-0.0526123,0.3535156-0.1465454l9-9c0.000061,0,0.0001221-0.000061,0.0001221-0.0001221C22.0488281,12.6581421,22.0487671,12.3416138,21.8535156,12.1464844z M12.5,20.7929688L3,11.2930298V5.7069702L5.7069702,3h5.5860596l9.5,9.5L12.5,20.7929688z"/></svg>