<svg xmlns="http://www.w3.org/2000/svg" enable-background="new 0 0 24 24" viewBox="0 0 24 24"><path fill="#6563ff" d="M17.9,17.1C17.9,17.1,17.9,17.1,17.9,17.1l-3-3c0,0,0,0,0,0l-8-8c0,0,0,0,0,0l-4-4C2.7,2,2.4,2,2.2,2.1C2,2.3,2,2.7,2.1,2.9L5.3,6H4.5C3.1,6,2,7.1,2,8.5V15c0,1.7,1.3,3,3,3h1v3.5c0,0,0,0,0,0C6,21.8,6.2,22,6.5,22h11c0,0,0,0,0,0c0.3,0,0.5-0.2,0.5-0.5v-2.8l3.1,3.1c0.1,0.1,0.2,0.1,0.4,0.1c0.1,0,0.3-0.1,0.4-0.1c0.2-0.2,0.2-0.5,0-0.7L17.9,17.1z M6.5,14C6.2,14,6,14.2,6,14.5V17H5c-1.1,0-2-0.9-2-2V8.5C3,7.7,3.7,7,4.5,7h1.8l7,7H6.5C6.5,14,6.5,14,6.5,14z M17,21H7v-6h7.3l2.7,2.7V21z M19.5,6H18V2.5c0,0,0,0,0,0C18,2.2,17.8,2,17.5,2H6.8C6.5,2,6.3,2.2,6.3,2.5S6.5,3,6.8,3H17v3h-6.2c-0.3,0-0.5,0.2-0.5,0.5S10.5,7,10.8,7h6.7h0h2C20.3,7,21,7.7,21,8.5V15c0,0.5-0.2,0.9-0.5,1.3c-0.1,0.1-0.1,0.2-0.1,0.3c0,0.3,0.2,0.5,0.5,0.5c0.1,0,0.3-0.1,0.4-0.2c0.5-0.5,0.7-1.2,0.7-2V8.5C22,7.1,20.9,6,19.5,6z M7,9.5c-0.8,0-1.5,0.7-1.5,1.5s0.7,1.5,1.5,1.5c0.8,0,1.5-0.7,1.5-1.5C8.5,10.2,7.8,9.5,7,9.5z M7,11.5c-0.3,0-0.5-0.2-0.5-0.5s0.2-0.5,0.5-0.5c0.3,0,0.5,0.2,0.5,0.5C7.5,11.3,7.3,11.5,7,11.5z"/></svg>