<svg xmlns="http://www.w3.org/2000/svg" enable-background="new 0 0 24 24" viewBox="0 0 24 24"><path fill="#6563ff" d="M14.5,9H9.4994507C9.2234497,9.0001831,8.9998169,9.223999,9,9.5v5.0005493C9.0001831,14.7765503,9.223999,15.0001831,9.5,15h5.0006104C14.7765503,14.9998169,15.0001831,14.776001,15,14.5V9.4993896C14.9998169,9.2234497,14.776001,8.9998169,14.5,9z M14,14h-4v-4h4V14z M21.5,12.5c0.276123,0,0.5-0.223877,0.5-0.5s-0.223877-0.5-0.5-0.5H19v-3h2.5C21.776123,8.5,22,8.276123,22,8s-0.223877-0.5-0.5-0.5h-2.5509033C18.7364502,6.2467041,17.7532959,5.2635498,16.5,5.0509033V2.5C16.5,2.223877,16.276123,2,16,2s-0.5,0.223877-0.5,0.5V5h-3V2.5C12.5,2.223877,12.276123,2,12,2s-0.5,0.223877-0.5,0.5V5h-3V2.5C8.5,2.223877,8.276123,2,8,2S7.5,2.223877,7.5,2.5v2.5509033C6.2467041,5.2635498,5.2635498,6.2467041,5.0509033,7.5H2.5C2.223877,7.5,2,7.723877,2,8s0.223877,0.5,0.5,0.5H5v3H2.5C2.223877,11.5,2,11.723877,2,12s0.223877,0.5,0.5,0.5H5v3H2.5C2.223877,15.5,2,15.723877,2,16s0.223877,0.5,0.5,0.5h2.5509033C5.2635498,17.7532959,6.2467041,18.7364502,7.5,18.9490967v2.5514526C7.5001831,21.7765503,7.723999,22.0001831,8,22h0.0006104C8.2765503,21.9998169,8.5001831,21.776001,8.5,21.5V19h3v2.5005493C11.5001831,21.7765503,11.723999,22.0001831,12,22h0.0006104c0.2759399-0.0001831,0.4995728-0.223999,0.4993896-0.5V19h3v2.5005493C15.5001831,21.7765503,15.723999,22.0001831,16,22h0.0006104c0.2759399-0.0001831,0.4995728-0.223999,0.4993896-0.5v-2.5509033c1.2532959-0.2126465,2.2364502-1.1958008,2.4490967-2.4490967H21.5c0.276123,0,0.5-0.223877,0.5-0.5s-0.223877-0.5-0.5-0.5H19v-3H21.5z M18,16c-0.0014038,1.1040039-0.8959961,1.9985962-2,2H8c-1.1040649-0.0012817-1.9987183-0.8959351-2-2V8c0.0012817-1.1040649,0.8959351-1.9987183,2-2h8c1.1040039,0.0014038,1.9985962,0.8959961,2,2V16z"/></svg>