<svg xmlns="http://www.w3.org/2000/svg" enable-background="new 0 0 24 24" viewBox="0 0 24 24"><path fill="#6563ff" d="M18,10V6.5c0-0.0001831,0-0.0003662,0-0.0006104C17.9998169,6.2234497,17.776001,5.9998169,17.5,6H14c0-2.2091675-1.7908325-4-4-4S6,3.7908325,6,6H4.5C3.119812,6.0012817,2.0012817,7.119812,2,8.5v11c0.0012817,1.380188,1.119812,2.4987183,2.5,2.5h13c0.0001831,0,0.0003662,0,0.0006104,0C17.7765503,21.9998169,18.0001831,21.776001,18,21.5V18c2.2091675,0,4-1.7908325,4-4S20.2091675,10,18,10z M18,17c-0.1431885-0.0044556-0.2858276-0.0194702-0.4267578-0.0449219c-0.0245361-0.0036621-0.0492554-0.0054932-0.0740356-0.0054932C17.2233887,16.949707,16.9998779,17.1734009,17,17.4492188V21H4.5c-0.828064-0.0009155-1.4990845-0.671936-1.5-1.5v-11C3.0009155,7.671936,3.671936,7.0009155,4.5,7h2.0507812c0.1469116-0.0064087,0.2838745-0.0758057,0.3759155-0.1904297c0.0949707-0.116394,0.1361084-0.2675781,0.1132812-0.4160156C7.0172119,6.2634888,7.0038452,6.131958,7,6c0-1.6568604,1.3431396-3,3-3s3,1.3431396,3,3c-0.0047607,0.1431274-0.0197754,0.2857666-0.0449219,0.4267578C12.951416,6.4512939,12.949585,6.4760132,12.949585,6.5007935C12.949707,6.7766113,13.1734009,7.0001221,13.4492188,7H17v3.5507812c0.0067749,0.1470337,0.0764771,0.2839966,0.1914062,0.3759155c0.1167603,0.0949707,0.2682495,0.1361084,0.4169922,0.1132812C17.7377319,11.0168457,17.8686523,11.003479,18,11c1.6568604,0,3,1.3431396,3,3S19.6568604,17,18,17z"/></svg>