<svg xmlns="http://www.w3.org/2000/svg" enable-background="new 0 0 24 24" viewBox="0 0 24 24"><path fill="#6563ff" d="M16.5,19h2c0.276001,0.0001831,0.4998169-0.2234497,0.5-0.4994507c0-0.0001831,0-0.0003662,0-0.0005493v-5c0-0.276123-0.223877-0.5-0.5-0.5S18,13.223877,18,13.5V18h-1.5c-0.276123,0-0.5,0.223877-0.5,0.5S16.223877,19,16.5,19z M13.4994507,16c0.0001831,0,0.0003662,0,0.0005493,0c0.276001,0.0001831,0.4998169-0.2234497,0.5-0.4994507c0-0.0001831,0-0.0003662,0-0.0005493V14h1.5c0.276123,0,0.5-0.223877,0.5-0.5S15.776123,13,15.5,13h-2c-0.276001-0.0001831-0.4998169,0.2234497-0.5,0.4993896c0,0.0002441,0,0.0004272,0,0.0006104v2C12.9998169,15.776001,13.2234497,15.9998169,13.4994507,16z M16.625,16c0-0.3451538-0.2798462-0.625-0.625-0.625S15.375,15.6548462,15.375,16s0.2798462,0.625,0.625,0.625S16.625,16.3451538,16.625,16z M19.5,2h-4C15.223877,2,15,2.223877,15,2.5S15.223877,3,15.5,3h4c0.828064,0.0009155,1.4990845,0.671936,1.5,1.5v4C21,8.776123,21.223877,9,21.5,9S22,8.776123,22,8.5v-4C21.9987183,3.119812,20.880188,2.0012817,19.5,2z M13.4994507,11c0.0001831,0,0.0003662,0,0.0005493,0h5c0.276001,0.0001831,0.4998169-0.2234497,0.5-0.4994507c0-0.0001831,0-0.0003662,0-0.0005493v-5c0.0001831-0.276001-0.2234497-0.4998169-0.4993896-0.5C18.5003662,5,18.5001831,5,18.5,5h-5c-0.276001-0.0001831-0.4998169,0.2234497-0.5,0.4993896C13,5.4996338,13,5.4998169,13,5.5v5C12.9998169,10.776001,13.2234497,10.9998169,13.4994507,11z M14,6h4v4h-4V6z M14.5,18H14v-0.5c0-0.276123-0.223877-0.5-0.5-0.5S13,17.223877,13,17.5v1c-0.0001831,0.276001,0.2234497,0.4998169,0.4994507,0.5c0.0001831,0,0.0003662,0,0.0005493,0h1c0.276123,0,0.5-0.223877,0.5-0.5S14.776123,18,14.5,18z M10.5006104,5C10.5003662,5,10.5001831,5,10.5,5h-5C5.223999,4.9998169,5.0001831,5.2234497,5,5.4993896C5,5.4996338,5,5.4998169,5,5.5v5c-0.0001831,0.276001,0.2234497,0.4998169,0.4993896,0.5C5.4996338,11,5.4998169,11,5.5,11h5c0.276001,0.0001831,0.4998169-0.2234497,0.5-0.4994507c0-0.0001831,0-0.0003662,0-0.0005493v-5C11.0001831,5.223999,10.7765503,5.0001831,10.5006104,5z M10,10H6V6h4V10z M10.5006104,13C10.5003662,13,10.5001831,13,10.5,13h-5c-0.276001-0.0001831-0.4998169,0.2234497-0.5,0.4993896C5,13.4996338,5,13.4998169,5,13.5v5c-0.0001831,0.276001,0.2234497,0.4998169,0.4993896,0.5C5.4996338,19,5.4998169,19,5.5,19h5c0.276001,0.0001831,0.4998169-0.2234497,0.5-0.4994507c0-0.0001831,0-0.0003662,0-0.0005493v-5C11.0001831,13.223999,10.7765503,13.0001831,10.5006104,13z M10,18H6v-4h4V18z M21.5006104,15C21.5003662,15,21.5001831,15,21.5,15c-0.276001-0.0001831-0.4998169,0.2234497-0.5,0.4993896c0,0.0002441,0,0.0004272,0,0.0006104v4c-0.0009155,0.828064-0.671936,1.4990845-1.5,1.5h-4c-0.276123,0-0.5,0.223877-0.5,0.5s0.223877,0.5,0.5,0.5h4c1.380188-0.0012817,2.4987183-1.119812,2.5-2.5v-4C22.0001831,15.223999,21.7765503,15.0001831,21.5006104,15z M8.5,21h-4c-0.828064-0.0009155-1.4990845-0.671936-1.5-1.5v-4C3,15.223877,2.776123,15,2.5,15S2,15.223877,2,15.5v4c0.0012817,1.380188,1.119812,2.4987183,2.5,2.5h4C8.776123,22,9,21.776123,9,21.5S8.776123,21,8.5,21z M2.4993896,9C2.4996338,9,2.4998169,9,2.5,9C2.776001,9.0001831,2.9998169,8.7765503,3,8.5005493C3,8.5003662,3,8.5001831,3,8.5v-4C3.0009155,3.671936,3.671936,3.0009155,4.5,3h4C8.776123,3,9,2.776123,9,2.5S8.776123,2,8.5,2h-4C3.119812,2.0012817,2.0012817,3.119812,2,4.5v4C1.9998169,8.776001,2.2234497,8.9998169,2.4993896,9z"/></svg>