<svg xmlns="http://www.w3.org/2000/svg" enable-background="new 0 0 24 24" viewBox="0 0 24 24"><path fill="#6563ff" d="M4.5,12C4.223877,12,4,12.223877,4,12.5S4.223877,13,4.5,13c3.5881348,0.0041504,6.4958496,2.9118652,6.5,6.5v0.0005493C11.0001831,19.7765503,11.223999,20.0001831,11.5,20h0.0006104C11.7765503,19.9998169,12.0001831,19.776001,12,19.5C11.9954834,15.3597412,8.6402588,12.0045166,4.5,12z M4.5,8C4.223877,8,4,8.223877,4,8.5S4.223877,9,4.5,9c5.7963867,0.0063477,10.4936523,4.7036133,10.5,10.5v0.0005493C15.0001831,19.7765503,15.223999,20.0001831,15.5,20h0.0006104C15.7765503,19.9998169,16.0001831,19.776001,16,19.5C15.9926147,13.1517944,10.8482056,8.0073853,4.5,8z M4.5,4C4.223877,4,4,4.223877,4,4.5S4.223877,5,4.5,5c8.0043335,0.0092163,14.4907837,6.4956665,14.5,14.5v0.0005493C19.0001831,19.7765503,19.223999,20.0001831,19.5,20h0.0006104C19.7765503,19.9998169,20.0001831,19.776001,20,19.5C19.9904175,10.9435425,13.0564575,4.0095825,4.5,4z"/></svg>