<svg xmlns="http://www.w3.org/2000/svg" enable-background="new 0 0 24 24" viewBox="0 0 24 24"><path fill="#6563ff" d="M10.5,8.125c0-3.6025391-3.5771484-5.9472656-3.7294922-6.0449219c-0.1655884-0.1088257-0.380127-0.1080322-0.5449219,0.0018921C6.0732422,2.1816406,2.5,4.5654297,2.5,8.125c0.0373535,2.1734009,1.8265381,3.9066772,4,3.875C8.6734619,12.0316772,10.4626465,10.2984009,10.5,8.125z M6.5,11c-1.6212769,0.0318604-2.9628296-1.2538452-3-2.875c0-2.4921875,2.2158203-4.4082031,3.0020142-5.0087891C7.2890625,3.7089844,9.5,5.6025391,9.5,8.125C9.4628296,9.7461548,8.1212769,11.0318604,6.5,11z M17.7705078,2.0800781c-0.1655884-0.1088257-0.380127-0.1080322-0.5449219,0.0018921C17.0732422,2.1816406,13.5,4.5654297,13.5,8.125c0.0373535,2.1734009,1.8265381,3.9066772,4,3.875c2.1735229,0.0316772,3.9626465-1.7015991,4-3.875C21.5,4.5224609,17.9228516,2.1777344,17.7705078,2.0800781z M17.6278076,10.9971924C15.9709473,11.0678101,14.5705566,9.7818604,14.5,8.125c0-2.4921875,2.2158203-4.4082031,3.0020142-5.0087891C18.2890625,3.7089844,20.5,5.6025391,20.5,8.125C20.4336548,9.6829834,19.18573,10.9308472,17.6278076,10.9971924z M12.7705078,12.0800781c-0.1657104-0.1083374-0.3800049-0.1075439-0.5449219,0.0018921C12.0732422,12.1816406,8.5,14.5654297,8.5,18.125c0.0373535,2.1734009,1.8265381,3.9066772,4,3.875c2.1734619,0.0316772,3.9626465-1.7015991,4-3.875C16.5,14.5224609,12.9228516,12.1777344,12.7705078,12.0800781z M12.6278076,20.9971924C10.9709473,21.0678101,9.5705566,19.7818604,9.5,18.125c0-2.4921875,2.2158203-4.4082031,3.0020142-5.0087891C13.2890625,13.7089844,15.5,15.6025391,15.5,18.125C15.4336548,19.6829834,14.18573,20.9308472,12.6278076,20.9971924z"/></svg>