<svg xmlns="http://www.w3.org/2000/svg" enable-background="new 0 0 24 24" viewBox="0 0 24 24"><path fill="#6563ff" d="M11.5214844,10.0800781c-0.1663208-0.1090088-0.3817139-0.1078491-0.546875,0.0029297C10.7919922,10.203125,6.5,13.0859375,6.5,17.375c0.0380249,2.5873413,2.1625977,4.6559448,4.75,4.625c2.5874023,0.0309448,4.7119751-2.0376587,4.75-4.625C16,13.0322266,11.7050781,10.1992188,11.5214844,10.0800781z M11.25,21c-2.0354004,0.0315552-3.7125244-1.5897217-3.75-3.625c0-3.1660156,2.8466797-5.5742188,3.7529297-6.2607422C12.1601562,11.789978,15,14.1611328,15,17.375C14.9625244,19.4102783,13.2854004,21.0315552,11.25,21z M9,7.875c0-2.8632812-2.859375-4.71875-2.9814453-4.796936C5.8529053,2.973999,5.6420288,2.9751587,5.4775391,3.0809937C5.3564453,3.1591797,2.5,5.0458984,2.5,7.875C2.5373535,9.6341553,3.9907227,11.0316162,5.75,11C7.5092773,11.0316162,8.9626465,9.6341553,9,7.875z M5.75,10C4.5428467,10.0320435,3.5369263,9.0820312,3.5,7.875c0-1.8271484,1.6015625-3.2548828,2.2529297-3.7587891C6.4042969,4.6123047,8,6.0185547,8,7.875C7.9630737,9.0820312,6.9571533,10.0320435,5.75,10z M17.7705078,2.0800781c-0.1655884-0.1088257-0.380127-0.1080322-0.5449219,0.0018921C17.0732422,2.1816406,13.5,4.5654297,13.5,8.125c0.0373535,2.1734009,1.8265381,3.9066772,4,3.875c2.1735229,0.0316772,3.9626465-1.7015991,4-3.875C21.5,4.5224609,17.9228516,2.1777344,17.7705078,2.0800781z M17.6278076,10.9971924C15.9709473,11.0678101,14.5705566,9.7818604,14.5,8.125c0-2.4921875,2.2158203-4.4082031,3.0020142-5.0087891C18.2890625,3.7089844,20.5,5.6025391,20.5,8.125C20.4336548,9.6829834,19.18573,10.9308472,17.6278076,10.9971924z"/></svg>