<svg xmlns="http://www.w3.org/2000/svg" enable-background="new 0 0 24 24" viewBox="0 0 24 24"><path fill="#6563ff" d="M9.5,12h-3C6.223877,12,6,12.223877,6,12.5S6.223877,13,6.5,13h3c0.276123,0,0.5-0.223877,0.5-0.5S9.776123,12,9.5,12z M11.5,8h-4C7.223877,8,7,8.223877,7,8.5S7.223877,9,7.5,9h4C11.776123,9,12,8.776123,12,8.5S11.776123,8,11.5,8z M9.5,16h-3C6.223877,16,6,16.223877,6,16.5S6.223877,17,6.5,17h3c0.276123,0,0.5-0.223877,0.5-0.5S9.776123,16,9.5,16z M21.5,12H17V2.5c0.000061-0.0875244-0.0228882-0.1735229-0.0665283-0.2493896c-0.1375732-0.2393188-0.4431152-0.3217773-0.6824951-0.1842041L13,3.9296875L9.7490234,2.0664062c-0.1544189-0.0878906-0.3436279-0.0878906-0.4980469,0L6,3.9296875L2.7490234,2.0664062C2.6731567,2.0227661,2.5871582,1.9998779,2.4996338,1.9998779C2.2235718,2.000061,1.9998779,2.223938,2,2.5v17c0.0012817,1.380188,1.119812,2.4987183,2.5,2.5h14c0.0594482,0,0.1147461-0.0147705,0.1676025-0.0338135C18.7781982,21.9786377,18.8861084,21.9998779,19,22c1.6561279-0.0018311,2.9981689-1.3438721,3-3v-6.5c0-0.0001831,0-0.0003662,0-0.0006104C21.9998169,12.2234497,21.776001,11.9998169,21.5,12z M4.5,21c-0.828064-0.0009155-1.4990845-0.671936-1.5-1.5V3.3623047l2.7412109,1.5712891c0.1613159,0.0878906,0.3562622,0.0878906,0.5175781,0L9.5,3.0761719l3.2412109,1.8574219c0.1613159,0.0878906,0.3562622,0.0878906,0.5175781,0L16,3.3623047V12.5V19c0.0008545,0.7719116,0.3010864,1.4684448,0.7803345,2H4.5z M21,19c0,1.1045532-0.8954468,2-2,2s-2-0.8954468-2-2v-6h4V19z M13.5,12c-0.276123,0-0.5,0.223877-0.5,0.5s0.223877,0.5,0.5,0.5s0.5-0.223877,0.5-0.5S13.776123,12,13.5,12z M13.5,16c-0.276123,0-0.5,0.223877-0.5,0.5s0.223877,0.5,0.5,0.5s0.5-0.223877,0.5-0.5S13.776123,16,13.5,16z"/></svg>