<svg xmlns="http://www.w3.org/2000/svg" enable-background="new 0 0 24 24" viewBox="0 0 24 24"><path fill="#6563ff" d="M12,2C6.4771729,2,2,6.4771729,2,12s4.4771729,10,10,10c5.5201416-0.0064697,9.9935303-4.4798584,10-10C22,6.4771729,17.5228271,2,12,2z M12,21c-4.9705811,0-9-4.0294189-9-9s4.0294189-9,9-9c4.9683228,0.0054321,8.9945679,4.0316772,9,9C21,16.9705811,16.9705811,21,12,21z M12.5,7.5H9.4994507C9.2234497,7.5001831,8.9998169,7.723999,9,8v8c0,0.276123,0.223877,0.5,0.5,0.5S10,16.276123,10,16v-2.5h2.5c0.828064,0.0009155,1.4990845,0.671936,1.5,1.5v1.0005493c0.0001831,0.276001,0.223999,0.4996338,0.5,0.4994507h0.0006104C14.7765503,16.4998169,15.0001831,16.276001,15,16v-1c-0.0007935-0.8217163-0.4028931-1.5443726-1.0151367-2C14.5971069,12.5443726,14.9992065,11.8217163,15,11v-1C14.9987183,8.619812,13.880188,7.5012817,12.5,7.5z M14,11c-0.0009155,0.828064-0.671936,1.4990845-1.5,1.5H10v-4h2.5c0.828064,0.0009155,1.4990845,0.671936,1.5,1.5V11z"/></svg>