<svg xmlns="http://www.w3.org/2000/svg" enable-background="new 0 0 24 24" viewBox="0 0 24 24"><path fill="#6563ff" d="M14.7246094,14.0264282c-0.194397-0.1904907-0.5054932-0.1904907-0.6998901,0c-0.1972046,0.1932373-0.2003784,0.5097656-0.0071411,0.7069702l7,7c0.0936279,0.0939331,0.2208252,0.1466675,0.3534546,0.1464844c0.1325684,0,0.2597046-0.0526733,0.3534546-0.1463623c0.1953125-0.1952515,0.1953125-0.5118408,0.0001221-0.7070923L14.7246094,14.0264282z M21.9345093,6.3665161c-0.1932373-0.1972046-0.5098267-0.2003784-0.7069702-0.0071411L17.899353,9.6875c-0.5935669,0.5664062-1.5274658,0.5664062-2.1210327,0l-0.354187-0.3539429l4.4498291-4.4497681c0.0024414-0.0023804,0.0048218-0.0047607,0.0071411-0.0071411c0.1932983-0.1972046,0.1900635-0.5137329-0.0071411-0.7070312c-0.1971436-0.1932373-0.5137329-0.1900635-0.7069702,0.0071411l-4.4500732,4.4500732l-0.3536377-0.3533936c-0.5839844-0.5864258-0.5839844-1.5346069,0-2.1210938l3.3291016-3.3291016c0.1905518-0.194397,0.1905518-0.5054932,0-0.6998901c-0.1932373-0.1972046-0.5098267-0.2003784-0.7069702-0.0070801L13.656311,5.4453735c-0.9741211,0.9770508-0.9741211,2.5581055,0,3.5351562l0.3535767,0.3533325l-1.9898682,1.9898682L2.9931641,2.296875C2.8621826,2.1642456,2.6676636,2.1166382,2.4902344,2.1738281C2.312561,2.2294922,2.1804199,2.3792114,2.1474609,2.5625c-0.6165161,3.4732666,0.5032959,7.0285645,2.9990234,9.5214844l3.0570679,3.0562134l-6.0365601,6.0365601c-0.09375,0.09375-0.1463623,0.2208862-0.1464233,0.3534546c0,0.276123,0.2238159,0.5,0.499939,0.500061c0.1326294,0.0001221,0.2598267-0.0526123,0.3534546-0.1465454l11.8431396-11.8430786l0.354187,0.3539429c0.4675293,0.4707031,1.104126,0.7344971,1.7675781,0.7324219c0.6633301,0.0016479,1.2998047-0.262085,1.7675171-0.7324829l3.328125-3.328125C22.125061,6.8720093,22.125061,6.5609131,21.9345093,6.3665161z M8.9105835,14.4331665l-3.0570679-3.0561523C3.8364258,9.3618774,2.7971191,6.5681152,3.0068359,3.7246094l8.3061523,8.3061523L8.9105835,14.4331665z"/></svg>