<svg xmlns="http://www.w3.org/2000/svg" enable-background="new 0 0 24 24" viewBox="0 0 24 24"><path fill="#6563ff" d="M21,17.5H4.2069702l2.6465454-2.6464844c0.1918335-0.1986084,0.1862793-0.5151367-0.0123291-0.7069702c-0.1937866-0.1871338-0.5009155-0.1871338-0.6947021,0l-3.5,3.5c-0.1952515,0.1951294-0.1953125,0.5115967-0.0001221,0.7068481c0.000061,0.000061,0.000061,0.000061,0.0001221,0.0001221l3.5,3.5c0.1986084,0.1918335,0.5151367,0.1863403,0.7070312-0.0122681c0.1871338-0.1937866,0.1871338-0.5009766,0-0.6947021L4.2069702,18.5H21c0.276123,0,0.5-0.223877,0.5-0.5S21.276123,17.5,21,17.5z M11.5,10H12v4.5c0,0.276123,0.223877,0.5,0.5,0.5s0.5-0.223877,0.5-0.5V3h3v11.5c0,0.276123,0.223877,0.5,0.5,0.5s0.5-0.223877,0.5-0.5V3h2c0.276123,0,0.5-0.223877,0.5-0.5S19.276123,2,19,2h-7.5c-2.2091675,0-4,1.7908325-4,4S9.2908325,10,11.5,10z M11.5,3H12v6h-0.5c-1.6568604,0-3-1.3431396-3-3S9.8431396,3,11.5,3z"/></svg>