<svg xmlns="http://www.w3.org/2000/svg" enable-background="new 0 0 24 24" viewBox="0 0 24 24"><path fill="#6563ff" d="M15,14.4404297c-0.8284302,0-1.5,0.6715698-1.5,1.5s0.6715698,1.5,1.5,1.5s1.5-0.6715698,1.5-1.5C16.4990845,15.1123657,15.828064,14.4413452,15,14.4404297z M15,16.4404297c-0.276123,0-0.5-0.223877-0.5-0.5s0.223877-0.5,0.5-0.5s0.5,0.223877,0.5,0.5C15.4994507,16.2163696,15.2759399,16.4398804,15,16.4404297z M9,14.4404297c-0.8284302,0-1.5,0.6715698-1.5,1.5s0.6715698,1.5,1.5,1.5s1.5-0.6715698,1.5-1.5C10.4990845,15.1123657,9.828064,14.4413452,9,14.4404297z M9,16.4404297c-0.276123,0-0.5-0.223877-0.5-0.5s0.223877-0.5,0.5-0.5s0.5,0.223877,0.5,0.5C9.4994507,16.2163696,9.2759399,16.4398804,9,16.4404297z M2.5006104,14C2.5003662,14,2.5001831,14,2.5,14c-0.276001-0.0001831-0.4998169,0.2234497-0.5,0.4993896C2,14.4996338,2,14.4998169,2,14.5v3C2,17.776123,2.223877,18,2.5,18S3,17.776123,3,17.5v-3C3.0001831,14.223999,2.7765503,14.0001831,2.5006104,14z M21.5006104,14C21.5003662,14,21.5001831,14,21.5,14c-0.276001-0.0001831-0.4998169,0.2234497-0.5,0.4993896c0,0.0002441,0,0.0004272,0,0.0006104v3c0,0.276123,0.223877,0.5,0.5,0.5s0.5-0.223877,0.5-0.5v-3C22.0001831,14.223999,21.7765503,14.0001831,21.5006104,14z M17,7h-4.5V5.9290161c1.069519-0.2761841,1.7126465-1.3670044,1.4364624-2.4365234C13.6603394,2.4230347,12.569519,1.7798462,11.5,2.0560303c-1.069519,0.276123-1.7126465,1.3670044-1.4364624,2.4364624C10.2454224,5.1969604,10.7955322,5.7471313,11.5,5.9290161V7H7c-1.6561279,0.0018311-2.9981689,1.3438721-3,3v9c0.0018311,1.6561279,1.3438721,2.9981689,3,3h10c1.6561279-0.0018311,2.9981689-1.3438721,3-3v-9C19.9981689,8.3438721,18.6561279,7.0018311,17,7z M11,4c0-0.5523071,0.4476929-1,1-1s1,0.4476929,1,1s-0.4476929,1-1,1C11.447876,4.9996338,11.0003662,4.552124,11,4z M14.359375,8l-0.75,3h-3.21875l-0.75-3H14.359375z M19,19c-0.0014038,1.1040039-0.8959961,1.9985962-2,2H7c-1.1040039-0.0014038-1.9985962-0.8959961-2-2v-9c0.0014038-1.1040039,0.8959961-1.9985962,2-2h1.609375l0.9052734,3.6210938C9.5703735,11.84375,9.7704468,12,10,12h4c0.2295532,0,0.4296265-0.15625,0.4853516-0.3789062L15.390625,8H17c1.1040039,0.0014038,1.9985962,0.8959961,2,2V19z"/></svg>