<svg xmlns="http://www.w3.org/2000/svg" enable-background="new 0 0 24 24" viewBox="0 0 24 24"><path fill="#6563ff" d="M19.5,6.5h-7V3H18c0.276123,0,0.5-0.223877,0.5-0.5S18.276123,2,18,2H6C5.723877,2,5.5,2.223877,5.5,2.5S5.723877,3,6,3h5.5v3.5h-7C3.119812,6.5012817,2.0012817,7.619812,2,9v10.5c0.0012817,1.380188,1.119812,2.4987183,2.5,2.5h15c1.380188-0.0012817,2.4987183-1.119812,2.5-2.5V9C21.9987183,7.619812,20.880188,6.5012817,19.5,6.5z M11.5,21h-7c-0.828064-0.0009155-1.4990845-0.671936-1.5-1.5v-5h8.5V21z M21,19.5c-0.0009155,0.828064-0.671936,1.4990845-1.5,1.5h-7v-6.5H21V19.5z M21,13.5H3V9c0.0009155-0.828064,0.671936-1.4990845,1.5-1.5H12h0.0006104H19.5C20.328064,7.5009155,20.9990845,8.171936,21,9V13.5z"/></svg>