<svg xmlns="http://www.w3.org/2000/svg" enable-background="new 0 0 24 24" viewBox="0 0 24 24"><path fill="#6563ff" d="M19,4.5H5C3.619812,4.5012817,2.5012817,5.619812,2.5,7c0,0.276123,0.223877,0.5,0.5,0.5S3.5,7.276123,3.5,7C3.5009155,6.171936,4.171936,5.5009155,5,5.5h14c0.828064,0.0009155,1.4990845,0.671936,1.5,1.5v10c-0.0009155,0.828064-0.671936,1.4990845-1.5,1.5h-4c-0.276123,0-0.5,0.223877-0.5,0.5s0.223877,0.5,0.5,0.5h4c1.380188-0.0012817,2.4987183-1.119812,2.5-2.5V7C21.4987183,5.619812,20.380188,4.5012817,19,4.5z M3,14c-0.276123,0-0.5,0.223877-0.5,0.5S2.723877,15,3,15c2.208252,0.0021973,3.9978027,1.791748,4,4c0,0.0001831,0,0.0003662,0,0.0005493C7.0001831,19.2765503,7.223999,19.5001831,7.5,19.5c0.0001831,0,0.0003662,0,0.0006104,0C7.7765503,19.4998169,8.0001831,19.276001,8,19C7.9967651,16.2399292,5.7600708,14.0032349,3,14z M3,18.375c-0.3451538,0-0.625,0.2798462-0.625,0.625S2.6548462,19.625,3,19.625S3.625,19.3451538,3.625,19S3.3451538,18.375,3,18.375z M3,10c-0.276123,0-0.5,0.223877-0.5,0.5S2.723877,11,3,11c4.4161987,0.0050659,7.9949341,3.5838013,8,8c0,0.0001831,0,0.0003662,0,0.0005493c0.0001831,0.276001,0.223999,0.4996338,0.5,0.4994507c0.0001831,0,0.0003662,0,0.0006104,0C11.7765503,19.4998169,12.0001831,19.276001,12,19C11.9945679,14.0316772,7.9683228,10.0054321,3,10z"/></svg>