<svg xmlns="http://www.w3.org/2000/svg" enable-background="new 0 0 24 24" viewBox="0 0 24 24"><path fill="#6563ff" d="M6,15c-1.6568604,0-3,1.3431396-3,3s1.3431396,3,3,3c1.6561279-0.0018311,2.9981689-1.3438721,3-3C9,16.3431396,7.6568604,15,6,15z M6,20c-1.1045532,0-2-0.8954468-2-2s0.8954468-2,2-2c1.1040039,0.0014038,1.9985962,0.8959961,2,2C8,19.1045532,7.1045532,20,6,20z M6,11c-0.276123,0-0.5,0.223877-0.5,0.5S5.723877,12,6,12c3.3121948,0.0036011,5.9963989,2.6878052,6,6c0,0.0001831,0,0.0003662,0,0.0005493c0.0001831,0.276001,0.223999,0.4996338,0.5,0.4994507c0.0001831,0,0.0003662,0,0.0006104,0C12.7765503,18.4998169,13.0001831,18.276001,13,18C12.9953003,14.1359253,9.8640747,11.0046997,6,11z M6,7C5.723877,7,5.5,7.223877,5.5,7.5S5.723877,8,6,8c5.5201416,0.0064697,9.9935303,4.4798584,10,10c0,0.0001831,0,0.0003662,0,0.0005493c0.0001831,0.276001,0.223999,0.4996338,0.5,0.4994507c0.0001831,0,0.0003662,0,0.0006104,0C16.7765503,18.4998169,17.0001831,18.276001,17,18C16.9931641,11.9277344,12.0722656,7.0068359,6,7z"/></svg>