<svg xmlns="http://www.w3.org/2000/svg" enable-background="new 0 0 24 24" viewBox="0 0 24 24"><path fill="#6563ff" d="M18.5,7.5h-2.6c-0.3-1.4-1.1-2.7-2.2-3.5h4.8C18.8,4,19,3.8,19,3.5S18.8,3,18.5,3h-12C6.2,3,6,3.2,6,3.5S6.2,4,6.5,4h4.1c2.1,0,3.9,1.5,4.3,3.5H6.5C6.2,7.5,6,7.7,6,8s0.2,0.5,0.5,0.5H15c0,0,0,0,0,0.1c0,2.5-2.1,4.5-4.6,4.4H6.5c0,0,0,0-0.1,0c0,0-0.1,0-0.1,0c0,0-0.1,0-0.1,0.1c0,0,0,0-0.1,0c0,0,0,0,0,0c0,0,0,0.1-0.1,0.1c0,0,0,0,0,0.1c0,0,0,0.1,0,0.1c0,0,0,0.1,0,0.1c0,0,0,0,0,0c0,0,0,0,0,0.1c0,0,0,0.1,0,0.1c0,0,0,0.1,0.1,0.1c0,0,0,0,0,0.1l6,7c0.1,0.1,0.2,0.2,0.4,0.2c0.1,0,0.2,0,0.3-0.1c0.2-0.2,0.2-0.5,0.1-0.7L7.6,14h2.8c0,0,0.1,0,0.1,0c3,0,5.4-2.5,5.4-5.5h2.5C18.8,8.5,19,8.3,19,8S18.8,7.5,18.5,7.5z"/></svg>