<svg xmlns="http://www.w3.org/2000/svg" enable-background="new 0 0 24 24" viewBox="0 0 24 24"><path fill="#6563ff" d="M9.25,10.7070312l0.6464844,0.6464844C9.9901123,11.4474487,10.1173706,11.5001831,10.25,11.5c0.1325684,0,0.2597046-0.0526733,0.3534546-0.1464233c0.1952515-0.1952515,0.1952515-0.5118408,0.000061-0.7070923L9.9569702,10l0.6464844-0.6464844c0.1871338-0.1937256,0.1871338-0.5009155,0-0.6947021c-0.1918335-0.1986084-0.5083618-0.2041016-0.7069702-0.0122681L9.25,9.2930298L8.6035156,8.6465454c-0.1937866-0.1871338-0.5009155-0.1871338-0.6947021,0C7.7102051,8.8383789,7.7046509,9.1549072,7.8964844,9.3535156L8.5430298,10l-0.6465454,0.6464844c-0.09375,0.09375-0.1464233,0.2208862-0.1464233,0.3534546C7.75,11.276062,7.973877,11.499939,8.25,11.5c0.1326294,0.0001831,0.2598267-0.0525513,0.3535156-0.1464844L9.25,10.7070312z M8.6787109,15.7089844c-0.2114258,0.1774292-0.2389526,0.4926758-0.0615234,0.7041016s0.4926758,0.2389526,0.7041016,0.0615234c1.5650024-1.2558594,3.7924194-1.2558594,5.3574219,0C14.7685547,16.5504761,14.8823853,16.592041,15,16.5917969c0.147583-0.0001221,0.2875366-0.0653687,0.3824463-0.1783447c0.1776733-0.2114258,0.1502686-0.5268555-0.0611572-0.7044678C13.3813477,14.1503906,10.6186523,14.1503906,8.6787109,15.7089844z M15.9569702,10l0.6464844-0.6464844c0.1871338-0.1937256,0.1871338-0.5009155,0-0.6947021c-0.1918335-0.1986084-0.5083618-0.2041016-0.7069702-0.0122681L15.25,9.2930298l-0.6464844-0.6464844c-0.1937866-0.1871338-0.5009155-0.1871338-0.6947021,0c-0.1986084,0.1918335-0.2041626,0.5083618-0.0123291,0.7069702L14.5430298,10l-0.6465454,0.6464844c-0.09375,0.09375-0.1464233,0.2208862-0.1464233,0.3534546C13.75,11.276062,13.973877,11.499939,14.25,11.5c0.1326294,0.0001831,0.2598267-0.0525513,0.3535156-0.1464844L15.25,10.7070312l0.6464844,0.6464844C15.9901123,11.4474487,16.1173706,11.5001831,16.25,11.5c0.1325684,0,0.2597046-0.0526733,0.3533936-0.1464233c0.1953125-0.1952515,0.1953125-0.5118408,0.0001221-0.7070923L15.9569702,10z M12,2C6.4771729,2,2,6.4771729,2,12s4.4771729,10,10,10c5.5201416-0.0064697,9.9935303-4.4798584,10-10C22,6.4771729,17.5228271,2,12,2z M12,21c-4.9705811,0-9-4.0294189-9-9s4.0294189-9,9-9c4.9683228,0.0054321,8.9945679,4.0316772,9,9C21,16.9705811,16.9705811,21,12,21z"/></svg>