<svg xmlns="http://www.w3.org/2000/svg" enable-background="new 0 0 24 24" viewBox="0 0 24 24"><path fill="#6563ff" d="M12,2C6.4771729,2,2,6.4771729,2,12s4.4771729,10,10,10c5.5201416-0.0064697,9.9935303-4.4798584,10-10C22,6.4771729,17.5228271,2,12,2z M14.5,20.6407471C13.7054443,20.8703003,12.8684692,21,12,21s-1.7054443-0.1296997-2.5-0.3592529v-4.2858276c1.4944458-1.0800781,3.5055542-1.0800781,5,0V20.6407471z M15.5,20.2938843V10.5H16c0.276123,0,0.5-0.223877,0.5-0.5S16.276123,9.5,16,9.5h-2c-0.276123,0-0.5,0.223877-0.5,0.5s0.223877,0.5,0.5,0.5h0.5v4.6715698c-1.5600586-0.8355103-3.4399414-0.8355103-5,0V10.5H10c0.276123,0,0.5-0.223877,0.5-0.5S10.276123,9.5,10,9.5H8c-0.276123,0-0.5,0.223877-0.5,0.5s0.223877,0.5,0.5,0.5h0.5v9.7938843C5.2681274,18.9284058,3,15.729126,3,12c0-4.9705811,4.0294189-9,9-9c4.9683228,0.0054321,8.9945679,4.0316772,9,9C21,15.729126,18.7318726,18.9284058,15.5,20.2938843z"/></svg>