<svg xmlns="http://www.w3.org/2000/svg" enable-background="new 0 0 24 24" viewBox="0 0 24 24"><path fill="#6563ff" d="M20.9,9.5l-6.4-6.4C14.4,3.1,14.3,3,14.1,3H5.5C4.1,3,3,4.1,3,5.5v13C3,19.9,4.1,21,5.5,21h2h9h0h2c1.4,0,2.5-1.1,2.5-2.5V9.9C21,9.7,20.9,9.6,20.9,9.5z M8,4h5.9L14,4.1V8H8V4z M16,20H8v-4.5C8,14.7,8.7,14,9.5,14h5c0.8,0,1.5,0.7,1.5,1.5V20z M20,18.5c0,0.8-0.7,1.5-1.5,1.5H17v-4.5c0-1.4-1.1-2.5-2.5-2.5h-5C8.1,13,7,14.1,7,15.5V20H5.5C4.7,20,4,19.3,4,18.5v-13C4,4.7,4.7,4,5.5,4H7v4.5c0,0,0,0,0,0C7,8.8,7.2,9,7.5,9h7c0,0,0,0,0,0C14.8,9,15,8.8,15,8.5V5.1l5,5V18.5z"/></svg>