<svg xmlns="http://www.w3.org/2000/svg" enable-background="new 0 0 24 24" viewBox="0 0 24 24"><path fill="#6563ff" d="M21.5,2h-5C16.223877,2,16,2.223877,16,2.5S16.223877,3,16.5,3h3.7929688l-8.2930298,8.2930298l-2.828125-2.828125c-0.1937256-0.1871338-0.5009155-0.1871338-0.6947021,0C8.2785034,8.6567383,8.2730103,8.9732666,8.4648438,9.171875L11.2929688,12L3,20.2929688V16.5C3,16.223877,2.776123,16,2.5,16S2,16.223877,2,16.5v5.0005493C2.0001831,21.7765503,2.223999,22.0001831,2.5,22h5C7.776123,22,8,21.776123,8,21.5S7.776123,21,7.5,21H3.7069092l8.2930298-8.2930298l2.828186,2.828186c0.0936279,0.0939331,0.2208862,0.1466675,0.3535156,0.1464844l-0.000061,0.000061c0.1325684-0.000061,0.2597046-0.0527344,0.3534546-0.1464233c0.1953125-0.1952515,0.1953125-0.5118408,0.000061-0.7070923L12.7069092,12L21,3.7069092v3.7937012C21.0001831,7.7765503,21.223999,8.0001831,21.5,8h0.0006104C21.7765503,7.9998169,22.0001831,7.776001,22,7.5V2.4993896C21.9998169,2.2234497,21.776001,1.9998169,21.5,2z"/></svg>