<svg xmlns="http://www.w3.org/2000/svg" enable-background="new 0 0 24 24" viewBox="0 0 24 24"><path fill="#6563ff" d="M21.5,16c-0.276123,0-0.5,0.223877-0.5,0.5v3.7930908L12.7069092,12l2.828186-2.828186c0.1871338-0.1937256,0.1871338-0.5009155,0-0.6947021c-0.1918335-0.1986084-0.5083618-0.2041016-0.7069702-0.0122681l-2.828186,2.828186L3.7069092,3H7.5C7.776123,3,8,2.776123,8,2.5S7.776123,2,7.5,2H2.4993896C2.2234497,2.0001831,1.9998169,2.223999,2,2.5v5.0006104C2.0001831,7.7765503,2.223999,8.0001831,2.5,8h0.0006104C2.7765503,7.9998169,3.0001831,7.776001,3,7.5V3.7070312L11.2929688,12l-2.828125,2.828125c-0.09375,0.09375-0.1464233,0.2208862-0.1464233,0.3534546c0,0.276123,0.2238159,0.5,0.499939,0.500061c0.1326294,0.0001831,0.2598877-0.0525513,0.3535156-0.1464844L12,12.7070312L20.2929688,21H16.5c-0.276123,0-0.5,0.223877-0.5,0.5s0.223877,0.5,0.5,0.5h5.0006104C21.7765503,21.9998169,22.0001831,21.776001,22,21.5v-5C22,16.223877,21.776123,16,21.5,16z"/></svg>