<svg xmlns="http://www.w3.org/2000/svg" enable-background="new 0 0 24 24" viewBox="0 0 24 24"><path fill="#6563ff" d="M19.5,4H18V2.5C18,2.223877,17.776123,2,17.5,2S17,2.223877,17,2.5V4H7V2.5C7,2.223877,6.776123,2,6.5,2S6,2.223877,6,2.5V4H4.5C3.119812,4.0012817,2.0012817,5.119812,2,6.5v13c0.0012817,1.380188,1.119812,2.4987183,2.5,2.5h15c1.380188-0.0012817,2.4987183-1.119812,2.5-2.5v-13C21.9987183,5.119812,20.880188,4.0012817,19.5,4z M21,19.5c-0.0009155,0.828064-0.671936,1.4990845-1.5,1.5h-15c-0.828064-0.0009155-1.4990845-0.671936-1.5-1.5V10h18V19.5z M21,9H3V6.5C3.0009155,5.671936,3.671936,5.0009155,4.5,5h2h0.0006104H17.5h0.0006104H19.5c0.828064,0.0009155,1.4990845,0.671936,1.5,1.5V9z M17,15c0.828064-0.0009155,1.4990845-0.671936,1.5-1.5c0-0.8284302-0.6715698-1.5-1.5-1.5s-1.5,0.6715698-1.5,1.5S16.1715698,15,17,15z M17,13c0.2759399,0.0005493,0.4994507,0.2240601,0.5,0.5c0,0.276123-0.223877,0.5-0.5,0.5s-0.5-0.223877-0.5-0.5S16.723877,13,17,13z M17,19c0.828064-0.0009155,1.4990845-0.671936,1.5-1.5c0-0.8284302-0.6715698-1.5-1.5-1.5s-1.5,0.6715698-1.5,1.5S16.1715698,19,17,19z M17,17c0.2759399,0.0005493,0.4994507,0.2240601,0.5,0.5c0,0.276123-0.223877,0.5-0.5,0.5s-0.5-0.223877-0.5-0.5S16.723877,17,17,17z M7,19c0.828064-0.0009155,1.4990845-0.671936,1.5-1.5C8.5,16.6715698,7.8284302,16,7,16s-1.5,0.6715698-1.5,1.5S6.1715698,19,7,19z M7,17c0.2759399,0.0005493,0.4994507,0.2240601,0.5,0.5C7.5,17.776123,7.276123,18,7,18s-0.5-0.223877-0.5-0.5S6.723877,17,7,17z M12,19c0.828064-0.0009155,1.4990845-0.671936,1.5-1.5c0-0.8284302-0.6715698-1.5-1.5-1.5s-1.5,0.6715698-1.5,1.5S11.1715698,19,12,19z M12,17c0.2759399,0.0005493,0.4994507,0.2240601,0.5,0.5c0,0.276123-0.223877,0.5-0.5,0.5s-0.5-0.223877-0.5-0.5S11.723877,17,12,17z M7,15c0.828064-0.0009155,1.4990845-0.671936,1.5-1.5C8.5,12.6715698,7.8284302,12,7,12s-1.5,0.6715698-1.5,1.5S6.1715698,15,7,15z M7,13c0.2759399,0.0005493,0.4994507,0.2240601,0.5,0.5C7.5,13.776123,7.276123,14,7,14s-0.5-0.223877-0.5-0.5S6.723877,13,7,13z M12,15c0.828064-0.0009155,1.4990845-0.671936,1.5-1.5c0-0.8284302-0.6715698-1.5-1.5-1.5s-1.5,0.6715698-1.5,1.5S11.1715698,15,12,15z M12,13c0.2759399,0.0005493,0.4994507,0.2240601,0.5,0.5c0,0.276123-0.223877,0.5-0.5,0.5s-0.5-0.223877-0.5-0.5S11.723877,13,12,13z"/></svg>