<svg xmlns="http://www.w3.org/2000/svg" enable-background="new 0 0 24 24" viewBox="0 0 24 24"><path fill="#6563ff" d="M21.8535156,10.6464844l-8.5-8.5c-0.1311035-0.1324463-0.3253174-0.1803589-0.5029297-0.1240234c-0.1772461,0.0557861-0.3091431,0.2049561-0.3427734,0.3876953l-0.972229,5.347229l-2.5001831,2.5001831L8.3662109,9.8544922C8.3654785,9.8540039,8.3646851,9.8535767,8.3639526,9.8531494C8.12677,9.7113647,7.8196411,9.7886963,7.6778564,10.0258179c-0.1417236,0.2371826-0.0643921,0.5443115,0.1727295,0.6860962l0.4558716,0.2745972l-1.8809204,1.8809204l-0.6697388-0.4035645c-0.2367554-0.142395-0.5441284-0.0658569-0.6865234,0.1708984S5.003418,13.178894,5.2401733,13.3212891l0.4564819,0.2750244l-1.8770752,1.8770752l-0.6691895-0.4030762c-0.2362671-0.1412354-0.5421753-0.0650635-0.6846924,0.1704102c-0.1430054,0.2363892-0.0673218,0.5440063,0.1690674,0.6870117l0.4558716,0.2745972l-0.9439697,0.9439697c-0.0458374,0.0458374-0.0824585,0.1005859-0.1077881,0.1613159c-0.0229492,0.0550537-0.0332031,0.114624-0.0354004,0.1751709C2.0032349,17.4888306,2,17.4938965,2,17.5v4c0,0.0001831,0,0.0003662,0,0.0005493C2.0001831,21.7765503,2.223999,22.0001831,2.5,22h4c0.0668335,0.000061,0.1322021-0.0136108,0.192688-0.0388794c0.0606079-0.0253296,0.1152344-0.0620117,0.1610107-0.1077881l2.1118774-2.1119385l0.6691895,0.4031372c0.0779419,0.0465698,0.1670532,0.071167,0.2578125,0.0712891c0.1756592,0.000061,0.3384399-0.09198,0.428894-0.2424927c0.1422729-0.2367554,0.0656738-0.5439453-0.1710815-0.6862183L9.694519,19.0125122l1.8765869-1.8765869l0.6690674,0.4031372c0.0779419,0.0465698,0.1670532,0.071167,0.2578125,0.0712891c0.1756592,0.000061,0.3384399-0.09198,0.428894-0.2424927c0.1422729-0.2367554,0.0656738-0.5439453-0.1710815-0.6862183l-0.4558105-0.2746582l1.8814087-1.8814087l0.6691895,0.4031372C14.9285278,14.9752808,15.0176392,14.9998779,15.1083984,15c0.1756592,0.000061,0.3384399-0.09198,0.428894-0.2424927c0.1422729-0.2367554,0.0656738-0.5439453-0.1710815-0.6862183l-0.4558716-0.2746582l1.3322144-1.3322144l5.34729-0.972229c0.1001587-0.0182495,0.1923828-0.0666504,0.2643433-0.1387329C22.0492554,11.1580811,22.0489502,10.8414917,21.8535156,10.6464844z M6.2929688,21H3v-3.2929688l0.9730835-0.9730835l4.1100464,2.4758911L6.2929688,21z M8.8120728,18.480896l-4.1100464-2.4758911l1.8770142-1.8770142l4.1096802,2.4762573L8.8120728,18.480896z M11.4176025,15.8753662l-4.1096802-2.4762573l1.8809814-1.8809814l4.1100464,2.4758911L11.4176025,15.8753662z M14.0278931,13.2650757l-4.1101074-2.4758911L12,8.7070312L15.2929688,12L14.0278931,13.2650757z M16.1680298,11.4609375l-3.6289673-3.6289673l0.7822266-4.3036499l7.1504517,7.1503906L16.1680298,11.4609375z"/></svg>