<svg xmlns="http://www.w3.org/2000/svg" enable-background="new 0 0 24 24" viewBox="0 0 24 24"><path fill="#6563ff" d="M3.8534546,6.1465454c-0.1937256-0.1871948-0.5009155-0.1871948-0.6947021,0C2.960144,6.3383789,2.9546509,6.6549072,3.1464844,6.8535156L8.2930298,12l-5.1465454,5.1464844c-0.09375,0.09375-0.1464233,0.2208862-0.1464233,0.3534546C3,17.776062,3.223877,17.999939,3.5,18c0.1326294,0.0001221,0.2598267-0.0525513,0.3534546-0.1464844l5.5-5.5c0.000061-0.000061,0.0001221-0.000061,0.0001831-0.0001221c0.1951294-0.1952515,0.1950684-0.5117188-0.0001831-0.7068481L3.8534546,6.1465454z M20.8535156,17.1464844L15.7069702,12l5.1464844-5.1464844c0.1871948-0.1937866,0.1871948-0.5009766,0-0.6947021c-0.1918335-0.1986694-0.5083618-0.2041626-0.7069702-0.0122681l-5.5,5.5c-0.000061,0-0.0001221,0.000061-0.0001221,0.0001221c-0.1951904,0.1951904-0.1951294,0.5117188,0.0001221,0.7068481l5.5,5.5C20.2401123,17.9474487,20.3673706,18.0001831,20.5,18c0.1325684,0,0.2597046-0.0526733,0.3533936-0.1464233C21.0487061,17.6583252,21.0487061,17.3417358,20.8535156,17.1464844z"/></svg>