<svg xmlns="http://www.w3.org/2000/svg" enable-background="new 0 0 24 24" viewBox="0 0 24 24"><path fill="#6563ff" d="M11.6464844,9.3535156C11.7401123,9.4474487,11.8673706,9.5001831,12,9.5c0.1326294,0.0001221,0.2598267-0.0525513,0.3534546-0.1464844l5.5-5.5c0.1871948-0.1937866,0.1871948-0.5009766,0-0.6947632c-0.1918335-0.1986084-0.5083618-0.2041016-0.7069702-0.0122681L12,8.2930298L6.8534546,3.1465454c-0.1937256-0.1871338-0.5009155-0.1871338-0.6947021,0C5.960144,3.3383789,5.9546509,3.6549072,6.1464844,3.8535156L11.6464844,9.3535156z M17.8535156,20.1465454l-5.5-5.5c-0.000061-0.000061-0.000061-0.0001221-0.0001221-0.0001831c-0.1952515-0.1951294-0.5117188-0.1950684-0.7068481,0.0001831l-5.5,5.5c-0.1871948,0.1937256-0.1871948,0.5009766,0,0.6947021c0.1918335,0.1986084,0.5083618,0.2041016,0.7069702,0.0122681L12,15.7069702l5.1464844,5.1465454C17.2401123,20.9474487,17.3673706,21.0001831,17.5,21c0.1325073,0,0.2596436-0.0526733,0.3533936-0.1463623C18.0487061,20.6583862,18.0487671,20.3417969,17.8535156,20.1465454z"/></svg>