<svg xmlns="http://www.w3.org/2000/svg" enable-background="new 0 0 24 24" viewBox="0 0 24 24"><path fill="#6563ff" d="M12,5.375c-0.3451538,0-0.625,0.2798462-0.625,0.625S11.6548462,6.625,12,6.625S12.625,6.3451538,12.625,6S12.3451538,5.375,12,5.375z M16.5,2h-9C6.119873,2.0014648,5.0014648,3.119873,5,4.5v15c0.0014648,1.380127,1.119873,2.4985352,2.5,2.5h9c1.380188-0.0012817,2.4987183-1.119812,2.5-2.5v-15C18.9987183,3.119812,17.880188,2.0012817,16.5,2z M18,19.5c-0.0009155,0.828064-0.671936,1.4990845-1.5,1.5h-9c-0.828064-0.0009155-1.4990845-0.671936-1.5-1.5V18h12V19.5z M12,14c1.8182983,0.0054932,3.4033203,1.2387695,3.8555298,3H8.1438599C8.5967407,15.2389526,10.1817017,14.0059204,12,14z M10,11c0-1.1045532,0.8954468-2,2-2s2,0.8954468,2,2s-0.8954468,2-2,2C10.8959351,12.9987183,10.0012817,12.1040649,10,11z M18,17h-1.1264038c-0.3346558-1.6484985-1.4753418-3.0184937-3.0359497-3.6462402c1.3096313-1.0148926,1.5485229-2.899292,0.5336304-4.2089233s-2.899292-1.548584-4.2089233-0.5336304c-1.3096313,1.0148926-1.548584,2.899292-0.5336304,4.2089233c0.1547241,0.199646,0.3340454,0.3789673,0.5336914,0.5336914C8.6018677,13.9816284,7.4611816,15.3515625,7.1264038,17H6V4.5C6.0009155,3.671936,6.671936,3.0009155,7.5,3h9c0.828064,0.0009155,1.4990845,0.671936,1.5,1.5V17z"/></svg>