<svg xmlns="http://www.w3.org/2000/svg" enable-background="new 0 0 24 24" viewBox="0 0 24 24"><path fill="#6563ff" d="M9,7h2c0.276123,0,0.5-0.223877,0.5-0.5S11.276123,6,11,6H9C8.723877,6,8.5,6.223877,8.5,6.5S8.723877,7,9,7z M15,7.125c0.3451538,0,0.625-0.2798462,0.625-0.625S15.3451538,5.875,15,5.875S14.375,6.1548462,14.375,6.5S14.6548462,7.125,15,7.125z M11,12H9c-0.276123,0-0.5,0.223877-0.5,0.5S8.723877,13,9,13h2c0.276123,0,0.5-0.223877,0.5-0.5S11.276123,12,11,12z M22,10.5v-2c-0.0012817-1.380188-1.119812-2.4987183-2.5-2.5h-1V5.5C18.4987183,4.119812,17.380188,3.0012817,16,3H8C6.619812,3.0012817,5.5012817,4.119812,5.5,5.5V6h-1C3.119812,6.0012817,2.0012817,7.119812,2,8.5v2c0.0007935,0.8217163,0.4028931,1.5443726,1.0151367,2C2.4028931,12.9556274,2.0007935,13.6782837,2,14.5v2c0.0012817,1.380188,1.119812,2.4987183,2.5,2.5h1v0.5C5.5012817,20.880188,6.619812,21.9987183,8,22h8c1.380188-0.0012817,2.4987183-1.119812,2.5-2.5V19h1c1.380188-0.0012817,2.4987183-1.119812,2.5-2.5v-2c-0.0007935-0.8217163-0.4028931-1.5443726-1.0151367-2C21.5971069,12.0443726,21.9992065,11.3217163,22,10.5z M6.5,5.5C6.5009155,4.671936,7.171936,4.0009155,8,4h8c0.828064,0.0009155,1.4990845,0.671936,1.5,1.5v2C17.4990845,8.328064,16.828064,8.9990845,16,9H8C7.171936,8.9990845,6.5009155,8.328064,6.5,7.5V5.5z M17.5,11.5v2c-0.0009155,0.828064-0.671936,1.4990845-1.5,1.5H8c-0.828064-0.0009155-1.4990845-0.671936-1.5-1.5v-2C6.5009155,10.671936,7.171936,10.0009155,8,10h8C16.828064,10.0009155,17.4990845,10.671936,17.5,11.5z M3,10.5v-2C3.0009155,7.671936,3.671936,7.0009155,4.5,7h1v0.5c0.0007935,0.8217163,0.4028931,1.5443726,1.0151367,2C5.9028931,9.9556274,5.5007935,10.6782837,5.5,11.5V12h-1C3.671936,11.9990845,3.0009155,11.328064,3,10.5z M5.5,17.5V18h-1c-0.828064-0.0009155-1.4990845-0.671936-1.5-1.5v-2c0.0009155-0.828064,0.671936-1.4990845,1.5-1.5h1v0.5c0.0007935,0.8217163,0.4028931,1.5443726,1.0151367,2C5.9028931,15.9556274,5.5007935,16.6782837,5.5,17.5z M17.5,19.5c-0.0009155,0.828064-0.671936,1.4990845-1.5,1.5H8c-0.828064-0.0009155-1.4990845-0.671936-1.5-1.5v-2C6.5009155,16.671936,7.171936,16.0009155,8,16h8c0.828064,0.0009155,1.4990845,0.671936,1.5,1.5V19.5z M21,14.5v2c-0.0009155,0.828064-0.671936,1.4990845-1.5,1.5h-1v-0.5c-0.0007935-0.8217163-0.4028931-1.5443726-1.0151367-2c0.6122437-0.4556274,1.0143433-1.1782837,1.0151367-2V13h1C20.328064,13.0009155,20.9990845,13.671936,21,14.5z M21,10.5c-0.0009155,0.828064-0.671936,1.4990845-1.5,1.5h-1v-0.5c-0.0007935-0.8217163-0.4028931-1.5443726-1.0151367-2C18.0971069,9.0443726,18.4992065,8.3217163,18.5,7.5V7h1c0.828064,0.0009155,1.4990845,0.671936,1.5,1.5V10.5z M11,18H9c-0.276123,0-0.5,0.223877-0.5,0.5S8.723877,19,9,19h2c0.276123,0,0.5-0.223877,0.5-0.5S11.276123,18,11,18z M15,17.875c-0.3451538,0-0.625,0.2798462-0.625,0.625s0.2798462,0.625,0.625,0.625s0.625-0.2798462,0.625-0.625S15.3451538,17.875,15,17.875z M15,11.875c-0.3451538,0-0.625,0.2798462-0.625,0.625s0.2798462,0.625,0.625,0.625s0.625-0.2798462,0.625-0.625S15.3451538,11.875,15,11.875z"/></svg>