<svg xmlns="http://www.w3.org/2000/svg" enable-background="new 0 0 24 24" viewBox="0 0 24 24"><path fill="#6563ff" d="M7.5,6C7.223877,6,7,6.223877,7,6.5S7.223877,7,7.5,7S8,6.776123,8,6.5S7.776123,6,7.5,6z M7.5,18C7.223877,18,7,18.223877,7,18.5S7.223877,19,7.5,19S8,18.776123,8,18.5S7.776123,18,7.5,18z M20,7.5v-2c-0.0012817-1.380188-1.119812-2.4987183-2.5-2.5h-11C5.119812,3.0012817,4.0012817,4.119812,4,5.5v2c0.0007935,0.8217163,0.4028931,1.5443726,1.0151367,2C4.4028931,9.9556274,4.0007935,10.6782837,4,11.5v2c0.0007935,0.8217163,0.4028931,1.5443726,1.0151367,2C4.4028931,15.9556274,4.0007935,16.6782837,4,17.5v2c0.0012817,1.380188,1.119812,2.4987183,2.5,2.5h11c1.380188-0.0012817,2.4987183-1.119812,2.5-2.5v-2c-0.0007935-0.8217163-0.4028931-1.5443726-1.0151367-2c0.6122437-0.4556274,1.0143433-1.1782837,1.0151367-2v-2c-0.0007935-0.8217163-0.4028931-1.5443726-1.0151367-2C19.5971069,9.0443726,19.9992065,8.3217163,20,7.5z M19,17.5v2c-0.0009155,0.828064-0.671936,1.4990845-1.5,1.5h-11c-0.828064-0.0009155-1.4990845-0.671936-1.5-1.5v-2c0.0009155-0.828064,0.671936-1.4990845,1.5-1.5h11C18.328064,16.0009155,18.9990845,16.671936,19,17.5z M19,11.5v2c-0.0009155,0.828064-0.671936,1.4990845-1.5,1.5h-11c-0.828064-0.0009155-1.4990845-0.671936-1.5-1.5v-2c0.0009155-0.828064,0.671936-1.4990845,1.5-1.5h11C18.328064,10.0009155,18.9990845,10.671936,19,11.5z M19,7.5c-0.0009155,0.828064-0.671936,1.4990845-1.5,1.5h-11C5.671936,8.9990845,5.0009155,8.328064,5,7.5v-2C5.0009155,4.671936,5.671936,4.0009155,6.5,4h11c0.828064,0.0009155,1.4990845,0.671936,1.5,1.5V7.5z M7.5,12C7.223877,12,7,12.223877,7,12.5S7.223877,13,7.5,13S8,12.776123,8,12.5S7.776123,12,7.5,12z"/></svg>