<svg xmlns="http://www.w3.org/2000/svg" enable-background="new 0 0 24 24" viewBox="0 0 24 24"><path fill="#6563ff" d="M16.5,5.125c0.3451538,0,0.625-0.2798462,0.625-0.625S16.8451538,3.875,16.5,3.875S15.875,4.1548462,15.875,4.5S16.1548462,5.125,16.5,5.125z M7.5,5h3C10.776123,5,11,4.776123,11,4.5S10.776123,4,10.5,4h-3C7.223877,4,7,4.223877,7,4.5S7.223877,5,7.5,5z M10.5,10h-3C7.223877,10,7,10.223877,7,10.5S7.223877,11,7.5,11h3c0.276123,0,0.5-0.223877,0.5-0.5S10.776123,10,10.5,10z M21.5,20h-7c-0.0175171,0-0.0323486,0.0081787-0.0493774,0.0099487c-0.1963501-0.9873047-0.9732666-1.7641602-1.9605713-1.9605713C12.4918213,18.0323486,12.5,18.0175171,12.5,18v-4h5c1.380188-0.0012817,2.4987183-1.119812,2.5-2.5v-2c-0.0007935-0.8217163-0.4028931-1.5443726-1.0151367-2C19.5971069,7.0443726,19.9992065,6.3217163,20,5.5v-2c-0.0012817-1.380188-1.119812-2.4987183-2.5-2.5h-11C5.119812,1.0012817,4.0012817,2.119812,4,3.5v2c0.0007935,0.8217163,0.4028931,1.5443726,1.0151367,2C4.4028931,7.9556274,4.0007935,8.6782837,4,9.5v2c0.0012817,1.380188,1.119812,2.4987183,2.5,2.5h5v4c0,0.0001831,0,0.0003662,0,0.0005493c0,0.017334,0.0081787,0.0319824,0.0098877,0.0488281c-0.9873047,0.1964111-1.7641602,0.9733276-1.9605103,1.9605713C9.5323486,20.0081787,9.5175171,20,9.5,20h-7C2.223877,20,2,20.223877,2,20.5S2.223877,21,2.5,21h7c0.0175171,0,0.0323486-0.0081787,0.0493774-0.0099487C9.7772827,22.1359253,10.7871094,23,12,23c1.2123413-0.0010986,2.2215576-0.8647461,2.4501953-2.0100708C14.4674072,20.9916992,14.4823608,21,14.5,21h7c0.276123,0,0.5-0.223877,0.5-0.5S21.776123,20,21.5,20z M5,5.5v-2C5.0009155,2.671936,5.671936,2.0009155,6.5,2h11c0.828064,0.0009155,1.4990845,0.671936,1.5,1.5v2c-0.0009155,0.828064-0.671936,1.4990845-1.5,1.5h-11C5.671936,6.9990845,5.0009155,6.328064,5,5.5z M6.5,13c-0.828064-0.0009155-1.4990845-0.671936-1.5-1.5v-2C5.0009155,8.671936,5.671936,8.0009155,6.5,8h11c0.828064,0.0009155,1.4990845,0.671936,1.5,1.5v2c-0.0009155,0.828064-0.671936,1.4990845-1.5,1.5H6.5z M12,22c-0.8284302,0-1.5-0.6715698-1.5-1.5S11.1715698,19,12,19c0.828064,0.0009155,1.4990845,0.671936,1.5,1.5C13.5,21.3284302,12.8284302,22,12,22z M16.5,9.875c-0.3451538,0-0.625,0.2798462-0.625,0.625s0.2798462,0.625,0.625,0.625s0.625-0.2798462,0.625-0.625S16.8451538,9.875,16.5,9.875z"/></svg>