<svg xmlns="http://www.w3.org/2000/svg" enable-background="new 0 0 24 24" viewBox="0 0 24 24"><path fill="#6563ff" d="M9.5,11h-4C5.223877,11,5,11.223877,5,11.5S5.223877,12,5.5,12h4c0.276123,0,0.5-0.223877,0.5-0.5S9.776123,11,9.5,11z M18.5,16.875c-0.3451538,0-0.625,0.2798462-0.625,0.625s0.2798462,0.625,0.625,0.625s0.625-0.2798462,0.625-0.625S18.8451538,16.875,18.5,16.875z M18.5,4.875c-0.3451538,0-0.625,0.2798462-0.625,0.625s0.2798462,0.625,0.625,0.625s0.625-0.2798462,0.625-0.625S18.8451538,4.875,18.5,4.875z M15.5,16.875c-0.3451538,0-0.625,0.2798462-0.625,0.625s0.2798462,0.625,0.625,0.625s0.625-0.2798462,0.625-0.625S15.8451538,16.875,15.5,16.875z M9.5,17h-4C5.223877,17,5,17.223877,5,17.5S5.223877,18,5.5,18h4c0.276123,0,0.5-0.223877,0.5-0.5S9.776123,17,9.5,17z M15.5,10.875c-0.3451538,0-0.625,0.2798462-0.625,0.625s0.2798462,0.625,0.625,0.625s0.625-0.2798462,0.625-0.625S15.8451538,10.875,15.5,10.875z M15.5,4.875c-0.3451538,0-0.625,0.2798462-0.625,0.625s0.2798462,0.625,0.625,0.625s0.625-0.2798462,0.625-0.625S15.8451538,4.875,15.5,4.875z M9.5,5h-4C5.223877,5,5,5.223877,5,5.5S5.223877,6,5.5,6h4C9.776123,6,10,5.776123,10,5.5S9.776123,5,9.5,5z M18.5,10.875c-0.3451538,0-0.625,0.2798462-0.625,0.625s0.2798462,0.625,0.625,0.625s0.625-0.2798462,0.625-0.625S18.8451538,10.875,18.5,10.875z M22,6.5v-2c-0.0012817-1.380188-1.119812-2.4987183-2.5-2.5h-15C3.119812,2.0012817,2.0012817,3.119812,2,4.5v2c0.0007935,0.8217163,0.4028931,1.5443726,1.0151367,2C2.4028931,8.9556274,2.0007935,9.6782837,2,10.5v2c0.0007935,0.8217163,0.4028931,1.5443726,1.0151367,2C2.4028931,14.9556274,2.0007935,15.6782837,2,16.5v2c0.0012817,1.380188,1.119812,2.4987183,2.5,2.5h15c1.380188-0.0012817,2.4987183-1.119812,2.5-2.5v-2c-0.0007935-0.8217163-0.4028931-1.5443726-1.0151367-2c0.6122437-0.4556274,1.0143433-1.1782837,1.0151367-2v-2c-0.0007935-0.8217163-0.4028931-1.5443726-1.0151367-2C21.5971069,8.0443726,21.9992065,7.3217163,22,6.5z M21,16.5v2c-0.0009155,0.828064-0.671936,1.4990845-1.5,1.5h-15c-0.828064-0.0009155-1.4990845-0.671936-1.5-1.5v-2c0.0009155-0.828064,0.671936-1.4990845,1.5-1.5h15C20.328064,15.0009155,20.9990845,15.671936,21,16.5z M21,10.5v2c-0.0009155,0.828064-0.671936,1.4990845-1.5,1.5h-15c-0.828064-0.0009155-1.4990845-0.671936-1.5-1.5v-2C3.0009155,9.671936,3.671936,9.0009155,4.5,9h15C20.328064,9.0009155,20.9990845,9.671936,21,10.5z M21,6.5c-0.0009155,0.828064-0.671936,1.4990845-1.5,1.5h-15C3.671936,7.9990845,3.0009155,7.328064,3,6.5v-2C3.0009155,3.671936,3.671936,3.0009155,4.5,3h15c0.828064,0.0009155,1.4990845,0.671936,1.5,1.5V6.5z"/></svg>