<svg xmlns="http://www.w3.org/2000/svg" enable-background="new 0 0 24 24" viewBox="0 0 24 24"><path fill="#6563ff" d="M7,12c-0.8284302,0-1.5,0.6715698-1.5,1.5S6.1715698,15,7,15c0.828064-0.0009155,1.4990845-0.671936,1.5-1.5C8.5,12.6715698,7.8284302,12,7,12z M7,14c-0.276123,0-0.5-0.223877-0.5-0.5S6.723877,13,7,13c0.2759399,0.0005493,0.4994507,0.2240601,0.5,0.5C7.5,13.776123,7.276123,14,7,14z M11,4c-0.8284302,0-1.5,0.6715698-1.5,1.5S10.1715698,7,11,7c0.828064-0.0009155,1.4990845-0.671936,1.5-1.5C12.5,4.6715698,11.8284302,4,11,4z M11,6c-0.276123,0-0.5-0.223877-0.5-0.5S10.723877,5,11,5c0.2759399,0.0005493,0.4994507,0.2240601,0.5,0.5C11.5,5.776123,11.276123,6,11,6z M11,12c-0.8284302,0-1.5,0.6715698-1.5,1.5S10.1715698,15,11,15c0.828064-0.0009155,1.4990845-0.671936,1.5-1.5C12.5,12.6715698,11.8284302,12,11,12z M11,14c-0.276123,0-0.5-0.223877-0.5-0.5S10.723877,13,11,13c0.2759399,0.0005493,0.4994507,0.2240601,0.5,0.5C11.5,13.776123,11.276123,14,11,14z M22,7.5v-4c-0.0012817-1.380188-1.119812-2.4987183-2.5-2.5h-15C3.119812,1.0012817,2.0012817,2.119812,2,3.5v4c0.0007935,0.8217163,0.4028931,1.5443726,1.0151367,2C2.4028931,9.9556274,2.0007935,10.6782837,2,11.5v4c0.0012817,1.380188,1.119812,2.4987183,2.5,2.5h7v4h-9C2.223877,22,2,22.223877,2,22.5S2.223877,23,2.5,23h19c0.276123,0,0.5-0.223877,0.5-0.5S21.776123,22,21.5,22h-9v-4h7c1.380188-0.0012817,2.4987183-1.119812,2.5-2.5v-4c-0.0007935-0.8217163-0.4028931-1.5443726-1.0151367-2C21.5971069,9.0443726,21.9992065,8.3217163,22,7.5z M21,11.5v4c-0.0009155,0.828064-0.671936,1.4990845-1.5,1.5h-15c-0.828064-0.0009155-1.4990845-0.671936-1.5-1.5v-4c0.0009155-0.828064,0.671936-1.4990845,1.5-1.5h15C20.328064,10.0009155,20.9990845,10.671936,21,11.5z M21,7.5c-0.0009155,0.828064-0.671936,1.4990845-1.5,1.5h-15C3.671936,8.9990845,3.0009155,8.328064,3,7.5v-4C3.0009155,2.671936,3.671936,2.0009155,4.5,2h15c0.828064,0.0009155,1.4990845,0.671936,1.5,1.5V7.5z M7,4C6.1715698,4,5.5,4.6715698,5.5,5.5S6.1715698,7,7,7c0.828064-0.0009155,1.4990845-0.671936,1.5-1.5C8.5,4.6715698,7.8284302,4,7,4z M7,6C6.723877,6,6.5,5.776123,6.5,5.5S6.723877,5,7,5c0.2759399,0.0005493,0.4994507,0.2240601,0.5,0.5C7.5,5.776123,7.276123,6,7,6z"/></svg>