<svg xmlns="http://www.w3.org/2000/svg" enable-background="new 0 0 24 24" viewBox="0 0 24 24"><path fill="#6563ff" d="M18,14c-1.4293213,0-2.6744385,0.7554932-3.3817749,1.8830566l-4.9604492-2.2773438C9.8745117,13.1135864,9.9994507,12.5721436,10,12c0-0.5722656-0.1245728-1.1138916-0.3410645-1.6062012l4.9593506-2.2767944C15.3256226,9.2445068,16.5707397,10,18,10c2.208252-0.0021973,3.9978027-1.791748,4-4c0-2.2091675-1.7908325-4-4-4s-4,1.7908325-4,4c0,0.4233398,0.0836182,0.8234253,0.2055054,1.2064209L9.1296997,9.5366821C8.3972168,8.607666,7.2749023,8,6,8c-2.2091675,0-4,1.7908325-4,4s1.7908325,4,4,4c1.2741699-0.0012817,2.3956909-0.6087646,3.1281738-1.5372925l5.0773315,2.3308716C14.0836182,17.1765747,14,17.5766602,14,18c0,2.2091675,1.7908325,4,4,4c2.208252-0.0021973,3.9978027-1.791748,4-4C22,15.7908325,20.2091675,14,18,14z M18,3c1.6561279,0.0018311,2.9981689,1.3438721,3,3c0,1.6568604-1.3431396,3-3,3s-3-1.3431396-3-3S16.3431396,3,18,3z M6,15c-1.6568604,0-3-1.3431396-3-3s1.3431396-3,3-3c1.6561279,0.0018311,2.9981689,1.3438721,3,3C9,13.6568604,7.6568604,15,6,15z M18,21c-1.6568604,0-3-1.3431396-3-3s1.3431396-3,3-3c1.6561279,0.0018311,2.9981689,1.3438721,3,3C21,19.6568604,19.6568604,21,18,21z"/></svg>