<svg xmlns="http://www.w3.org/2000/svg" enable-background="new 0 0 24 24" viewBox="0 0 24 24"><path fill="#6563ff" d="M20.8574829,19.7627563c-0.3170776,0.0935059-0.62146,0.225647-0.90625,0.3935547c-0.8044434,0.4653931-1.7979736,0.458313-2.5957031-0.0185547c-1.2554321-0.7067261-2.7888794-0.7063599-4.0440063,0.0010376c-0.8129272,0.4649658-1.8114014,0.4645996-2.6239624-0.0010376c-1.2553101-0.7053833-2.7874146-0.7057495-4.0430298-0.0009766c-0.7973022,0.4780884-1.7913208,0.4855957-2.5957031,0.0195312c-0.28479-0.1679077-0.5891724-0.3001099-0.90625-0.3935547c-0.2644043-0.0749512-0.5403442,0.0745239-0.6220703,0.3369141c-0.0782471,0.2647705,0.0723877,0.5429077,0.3369141,0.6220703c0.2379761,0.0691528,0.4663086,0.1679077,0.6796875,0.2939453c0.5344849,0.3187256,1.1452637,0.4867554,1.7675781,0.4863281c0.6433105-0.003479,1.2746582-0.1740723,1.8320923-0.4951172c0.9473877-0.5321655,2.1033325-0.5332642,3.0517578-0.0029297c1.1209106,0.645813,2.5007935,0.6461792,3.6220703,0.0009766c0.9482422-0.5322876,2.1055298-0.5311279,3.0527344,0.0029297c1.1092529,0.6567993,2.4875488,0.65979,3.5996094,0.0078125c0.2133789-0.1259766,0.4417114-0.2247314,0.6796875-0.2939453c0.2648315-0.0787354,0.4156494-0.3572388,0.3369141-0.6220703C21.4008179,19.8348999,21.1223145,19.684021,20.8574829,19.7627563z M21.8184204,12.1220703L18,11.2764282V6.4993896C17.9998169,6.2234497,17.776001,5.9998169,17.5,6H15V2.4993896C14.9998169,2.2234497,14.776001,1.9998169,14.5,2H9.4994507C9.2234497,2.0001831,8.9998169,2.223999,9,2.5V6H6.4993896C6.2234497,6.0001831,5.9998169,6.223999,6,6.5v4.7764282l-3.8183594,0.8456421c-0.026062,0.0057983-0.0516357,0.0136719-0.076416,0.0235596c-0.256897,0.1022339-0.3822632,0.3933716-0.2800293,0.6502686l1.9501953,4.8896484c0.1026611,0.2559204,0.3930054,0.3806152,0.649292,0.2788086c0.256897-0.1020508,0.3824463-0.3930054,0.2803955-0.6499023l-1.7324219-4.3427734L11.5,11.0824585v6.4180908C11.5001831,17.7765503,11.723999,18.0001831,12,18h0.0006104c0.2759399-0.0001831,0.4995728-0.223999,0.4993896-0.5v-6.4175415l8.5273438,1.8892212l-1.7324219,4.3427734c-0.1015625,0.2567139,0.0231934,0.5473022,0.2792969,0.6503906C19.6334229,17.987793,19.6962891,17.9996948,19.7597656,18c0.2046509-0.000061,0.3886719-0.1245728,0.4649048-0.3144531l1.9501953-4.8896484c0.0098877-0.0248413,0.0177612-0.050354,0.0235596-0.076416C22.2584839,12.449585,22.0883179,12.1821289,21.8184204,12.1220703z M10,3h4v3h-4V3z M17,11.0549927l-4.8915405-1.083313c-0.0714111-0.015625-0.1453857-0.015625-0.2167969,0L7,11.0549927V7h10V11.0549927z"/></svg>