<svg xmlns="http://www.w3.org/2000/svg" enable-background="new 0 0 24 24" viewBox="0 0 24 24"><path fill="#6563ff" d="M3.5,2h17C20.776123,2,21,1.776123,21,1.5S20.776123,1,20.5,1h-17C3.223877,1,3,1.223877,3,1.5S3.223877,2,3.5,2z M22,5h-4h-0.0005493H14h-0.0005493H10H9.9994507H6H5.9993896H2C1.9998169,5,1.9996338,5,1.9993896,5C1.7234497,5.0001831,1.4998169,5.223999,1.5,5.5v4c0.0009766,1.0240479,0.6184082,1.9015503,1.5,2.2880859V22.5c0,0.0001831,0,0.0003662,0,0.0005493C3.0001831,22.7765503,3.223999,23.0001831,3.5,23h5h7h0.0006104H20.5c0.0001831,0,0.0003662,0,0.0006104,0C20.7765503,22.9998169,21.0001831,22.776001,21,22.5V11.7880859C21.8815918,11.4015503,22.4990234,10.5240479,22.5,9.5v-4c0-0.0001831,0-0.0003662,0-0.0006104C22.4998169,5.2234497,22.276001,4.9998169,22,5z M14.5,6h3v3.5c0,0.8284302-0.6715698,1.5-1.5,1.5s-1.5-0.6715698-1.5-1.5V6z M10.5,6h3v3.5c0,0.8284302-0.6715698,1.5-1.5,1.5s-1.5-0.6715698-1.5-1.5V6z M6.5,6h3v3.5C9.5,10.3284302,8.8284302,11,8,11s-1.5-0.6715698-1.5-1.5V6z M2.5,9.5V6h3v3.5C5.5,10.3284302,4.8284302,11,4,11S2.5,10.3284302,2.5,9.5z M15,22H9v-3c0-1.6568604,1.3431396-3,3-3s3,1.3431396,3,3V22z M20,22h-4v-3c0-2.2091675-1.7908325-4-4-4s-4,1.7908325-4,4v3H4V12c0.8217163-0.0007935,1.5443726-0.4028931,2-1.0151367C6.4556274,11.5971069,7.1782837,11.9992065,8,12c0.8217163-0.0007935,1.5443726-0.4028931,2-1.0151367C10.4556274,11.5971069,11.1782837,11.9992065,12,12c0.8217163-0.0007935,1.5443726-0.4028931,2-1.0151367C14.4556274,11.5971069,15.1782837,11.9992065,16,12c0.8217163-0.0007935,1.5443726-0.4028931,2-1.0151367C18.4556274,11.5971069,19.1782837,11.9992065,20,12V22z M21.5,9.5c0,0.8284302-0.6715698,1.5-1.5,1.5s-1.5-0.6715698-1.5-1.5V6h3V9.5z"/></svg>