<svg xmlns="http://www.w3.org/2000/svg" enable-background="new 0 0 24 24" viewBox="0 0 24 24"><path fill="#6563ff" d="M14,17.5h0.0006104C14.2765503,17.4998169,14.5001831,17.276001,14.5,17v-2c0-0.276123-0.223877-0.5-0.5-0.5s-0.5,0.223877-0.5,0.5v2.0005493C13.5001831,17.2765503,13.723999,17.5001831,14,17.5z M19,6h-1.940918l-1.8618164-3.7236328c-0.1234741-0.2470093-0.4238892-0.347168-0.6708984-0.2236328c-0.2470093,0.1234741-0.347168,0.4238892-0.2236328,0.6708984L15.940918,6H8.059082l1.6381836-3.2763672c0.1235352-0.2470093,0.0233765-0.5474243-0.2236328-0.6708984C9.2266235,1.9291992,8.9262085,2.0293579,8.8027344,2.2763672L6.940918,6H5C3.3431396,6,2,7.3431396,2,9c0,1.3487549,0.8960571,2.4761353,2.1208496,2.8538208l0.6740723,7.4176636C4.9291382,20.8200684,6.2288208,22.0067749,7.7832031,22h8.4335938c1.5543823,0.0067749,2.8540649-1.1799316,2.9882202-2.7285156l0.6740723-7.4176636C21.1039429,11.4761963,22,10.3488159,22,9C22,7.3431396,20.6568604,6,19,6z M18.2089844,19.1816406C18.1190186,20.2136841,17.2527466,21.0043945,16.2167969,21H7.7832031c-1.0359497,0.0043945-1.9022217-0.7863159-1.9921875-1.8183594L5.1386719,12h13.7226562L18.2089844,19.1816406z M19,11H5c-1.1045532,0-2-0.8954468-2-2s0.8954468-2,2-2h14c1.1045532,0,2,0.8954468,2,2S20.1045532,11,19,11z M10,17.5h0.0006104C10.2765503,17.4998169,10.5001831,17.276001,10.5,17v-2c0-0.276123-0.223877-0.5-0.5-0.5S9.5,14.723877,9.5,15v2.0005493C9.5001831,17.2765503,9.723999,17.5001831,10,17.5z"/></svg>