<svg xmlns="http://www.w3.org/2000/svg" enable-background="new 0 0 24 24" viewBox="0 0 24 24"><path fill="#6563ff" d="M21.8955078,7.1885376l-5.0840454-5.0840454c-0.194397-0.1904907-0.5054932-0.1904907-0.6998901,0c-0.1971436,0.1932983-0.2003784,0.5098267-0.0070801,0.7070312L18.2929688,5l-6.3330688,6.3330688l-1.508728-1.4952393c-1.0602417-1.0429688-2.7610474-1.0429688-3.8212891,0l-3.7851562,3.7520142c-0.506958,0.5039062-0.7929077,1.1885376-0.7949219,1.9033203v3.7685547c0.0074463,1.4875488,1.2174683,2.6884766,2.7050781,2.6845703h3.8066406c0.7169189,0.0019531,1.4051514-0.28125,1.9130859-0.7871704l3.7832031-3.7490234c0.0057373-0.0056152,0.0114136-0.0113525,0.0170288-0.0170288c1.039917-1.0493164,1.0322876-2.7429199-0.0170288-3.7827759l-1.5877075-1.5734863l6.329834-6.329834l2.1885376,2.1885376c0.093689,0.0939331,0.2208862,0.1466675,0.3535156,0.1464844c0.1325073,0,0.2596436-0.0526733,0.3533325-0.1463623C22.0906372,7.7003784,22.0906982,7.3838501,21.8955078,7.1885376z M13.5547485,14.3212891c0.0029907,0.0029907,0.0059204,0.0059814,0.0089111,0.0089722c0.6517334,0.6566162,0.6477051,1.7172852-0.0089111,2.3689575l-3.7832031,3.7490234c-0.3212891,0.3200073-0.7565918,0.4992065-1.210022,0.4980469H4.7548828c-0.9356079,0.0045776-1.6983643-0.7489624-1.7050781-1.6845703v-3.7685547c0.0010986-0.4478149,0.1802979-0.8768311,0.4980469-1.1923828l3.7851562-3.7519531c0.3214722-0.3173828,0.755249-0.4949951,1.2069702-0.4941406c0.4520874-0.0010376,0.8862915,0.1765747,1.2080078,0.4941406l1.5048828,1.491272l-2.1063843,2.1063843c-0.09375,0.09375-0.1464233,0.2208862-0.1464233,0.3534546C9,14.776062,9.223877,14.999939,9.5,15c0.1326294,0.0001221,0.2598267-0.0526123,0.3534546-0.1465454l2.1095581-2.1095581L13.5547485,14.3212891z"/></svg>