<svg xmlns="http://www.w3.org/2000/svg" enable-background="new 0 0 24 24" viewBox="0 0 24 24"><path fill="#6563ff" d="M7.8535156,8.6464844c-0.1953125-0.1953125-0.5117188-0.1953125-0.7070312,0s-0.1953125,0.5117188,0,0.7070312L9.2929688,11.5H2.5C2.2236328,11.5,2,11.7236328,2,12s0.2236328,0.5,0.5,0.5h6.7929688l-2.1464844,2.1464844c-0.1953125,0.1953125-0.1953125,0.5117188,0,0.7070312C7.2441406,15.4511719,7.3720703,15.5,7.5,15.5s0.2558594-0.0488281,0.3535156-0.1464844l3-3c0.1953125-0.1953125,0.1953125-0.5117188,0-0.7070312L7.8535156,8.6464844z M21.5,11.5h-6.7929688l2.1464844-2.1464844c0.1953125-0.1953125,0.1953125-0.5117188,0-0.7070312s-0.5117188-0.1953125-0.7070312,0l-3,3c-0.1953125,0.1953125-0.1953125,0.5117188,0,0.7070312l3,3C16.2441406,15.4511719,16.3720703,15.5,16.5,15.5s0.2558594-0.0488281,0.3535156-0.1464844c0.1953125-0.1953125,0.1953125-0.5117188,0-0.7070312L14.7070312,12.5H21.5c0.2763672,0,0.5-0.2236328,0.5-0.5S21.7763672,11.5,21.5,11.5z"/></svg>