<svg xmlns="http://www.w3.org/2000/svg" enable-background="new 0 0 24 24" viewBox="0 0 24 24"><path fill="#6563ff" d="M2.5,10c0.0001831,0,0.0003662,0,0.0006104,0C2.7765503,9.9998169,3.0001831,9.776001,3,9.5V3.7071533l6.1524658,6.1524658c0.1937866,0.1871948,0.5009766,0.1871948,0.6947632,0c0.1986084-0.1918335,0.2041016-0.5083618,0.0122681-0.7069702L3.7068481,3H9.5C9.776123,3,10,2.776123,10,2.5S9.776123,2,9.5,2h-7C2.4998169,2,2.4996338,2,2.4993896,2C2.2234497,2.0001831,1.9998169,2.223999,2,2.5v7c0,0.0001831,0,0.0003662,0,0.0005493C2.0001831,9.7765503,2.223999,10.0001831,2.5,10z M21.8534546,21.1465454l-7-7c-0.1937256-0.1871338-0.5009155-0.1871338-0.6947021,0c-0.1986084,0.1918335-0.2041016,0.5083618-0.0122681,0.7069702l7,7C21.2401123,21.9474487,21.3673706,22.0001831,21.5,22c0.1325073-0.000061,0.2595825-0.0526733,0.3533325-0.1463623C22.048645,21.6583862,22.0487061,21.3417969,21.8534546,21.1465454z M9.5,21H3.7069092L21.8534546,2.8534546c0.1871948-0.1937256,0.1871948-0.5009155,0-0.6947021c-0.1918335-0.1986084-0.5083618-0.2041016-0.7069702-0.0122681L3,20.2929688V14.5C3,14.223877,2.776123,14,2.5,14S2,14.223877,2,14.5v7c0,0.0001831,0,0.0003662,0,0.0005493C2.0001831,21.7765503,2.223999,22.0001831,2.5,22h7c0.276123,0,0.5-0.223877,0.5-0.5S9.776123,21,9.5,21z"/></svg>