<svg xmlns="http://www.w3.org/2000/svg" enable-background="new 0 0 24 24" viewBox="0 0 24 24"><path fill="#6563ff" d="M19.0733643,4.9287109c-3.8974609-3.8984375-10.2416992-3.8984375-14.1420898,0C3.0421143,6.8173828,2.0020752,9.3291016,2.0020752,12s1.0400391,5.1826172,2.9291992,7.0712891c1.949707,1.9492188,4.5102539,2.9238281,7.0712891,2.9238281c2.5600586,0,5.121582-0.9746094,7.0708008-2.9238281C22.9727783,15.171875,22.9727783,8.828125,19.0733643,4.9287109z M20.6875,14.3190308L14.8606567,8.5h5.4276123C21.0656128,10.34729,21.1963501,12.3997192,20.6875,14.3190308z M15.5020752,13.4529419L13.4522705,15.5h-2.9031372l-2.0470581-2.0499878v-2.8939819L10.5498047,8.5h2.895813l2.0564575,2.0537109V13.4529419z M19.7853394,7.5h-8.2275391l3.8306274-3.8389893c1.0842896,0.4385986,2.0999146,1.0967407,2.9779053,1.9747314C18.9346924,6.2042847,19.401123,6.8347778,19.7853394,7.5z M14.3216553,3.3143921l-4.2687988,4.2774048c-0.0229492,0.0166016-0.0449219,0.0351562-0.0654297,0.0556641L8.5020752,9.1390381V3.713562c1.1164551-0.4698486,2.3075562-0.7096558,3.5004883-0.7096558C12.7832642,3.0039062,13.5622559,3.1130371,14.3216553,3.3143921z M5.6383057,5.6357422C6.206604,5.0672607,6.8369141,4.6008911,7.5020752,4.2166138v8.2319946L3.6641846,8.6053467C4.1109619,7.5076904,4.7749023,6.4991455,5.6383057,5.6357422z M3.3146362,9.6712036L9.1359863,15.5H3.7080688C3.246582,14.4067383,3.0020752,13.2225952,3.0020752,12C3.0020752,11.2017822,3.114563,10.4223633,3.3146362,9.6712036z M4.2146606,16.5h8.2362671L8.609375,20.3363647c-1.0819092-0.4387207-2.0950928-1.0960083-2.9710693-1.9721069C5.0748291,17.8007812,4.6040039,17.1712646,4.2146606,16.5z M9.675293,20.684082l5.8267822-5.8181763v5.4208374C13.6521606,21.0653687,11.5965576,21.1954956,9.675293,20.684082z M18.366333,18.3642578c-0.5686035,0.5686035-1.1990356,1.0350952-1.8642578,1.4194336v-8.2313232l3.8387451,3.8335571C19.9022217,16.4703979,19.2441406,17.4862061,18.366333,18.3642578z"/></svg>