<svg xmlns="http://www.w3.org/2000/svg" enable-background="new 0 0 24 24" viewBox="0 0 24 24"><path fill="#6563ff" d="M9,11.5c0.828064-0.0009155,1.4990845-0.671936,1.5-1.5c0-0.8284302-0.6715698-1.5-1.5-1.5S7.5,9.1715698,7.5,10S8.1715698,11.5,9,11.5z M9,9.5C9.2759399,9.5005493,9.4994507,9.7240601,9.5,10c0,0.276123-0.223877,0.5-0.5,0.5S8.5,10.276123,8.5,10S8.723877,9.5,9,9.5z M15,8.5c-0.8284302,0-1.5,0.6715698-1.5,1.5s0.6715698,1.5,1.5,1.5c0.828064-0.0009155,1.4990845-0.671936,1.5-1.5C16.5,9.1715698,15.8284302,8.5,15,8.5z M15,10.5c-0.276123,0-0.5-0.223877-0.5-0.5s0.223877-0.5,0.5-0.5c0.2759399,0.0005493,0.4994507,0.2240601,0.5,0.5C15.5,10.276123,15.276123,10.5,15,10.5z M14.9667969,14.5996094c-0.1777954-0.1328125-0.421814-0.1328125-0.5996094,0l-1.0339966,0.7752686l-1.0333862-0.7752686c-0.1777954-0.1328125-0.421814-0.1328125-0.5996094,0l-1.0333862,0.7752686l-1.0339966-0.7752686c-0.1777954-0.1328125-0.421814-0.1328125-0.5996094,0l-1.3330078,1c-0.2211304,0.1655884-0.2661743,0.4790649-0.1005859,0.7001953s0.4790649,0.2661743,0.7001953,0.1005859L9.3330078,15.625l1.0341797,0.7753906c0.0043945,0.0032959,0.010376,0.0018311,0.0148315,0.0049438c0.0802002,0.0561523,0.1708374,0.0853271,0.2665405,0.088562c0.0153809,0.0006104,0.0285034-0.0015259,0.0439453-0.0023804c0.0960083-0.005188,0.1917725-0.0288086,0.274292-0.0911255L12,15.625l1.0332031,0.7753906C13.1221313,16.4667969,13.2275391,16.5,13.3330078,16.5c0.0980225,0.000061,0.1867676-0.0366821,0.2669067-0.0886841c0.0101318-0.0064697,0.0231323-0.0036621,0.0328979-0.0109253L14.6669922,15.625l1.0332031,0.7753906C15.7866821,16.465271,15.8919067,16.5002441,16,16.5c0.1577148,0.0001221,0.3062134-0.0742188,0.4006958-0.2005005c0.1654053-0.2211304,0.1202393-0.5344849-0.1008911-0.6998901L14.9667969,14.5996094z M12,2C6.4771729,2,2,6.4771729,2,12s4.4771729,10,10,10c5.5201416-0.0064697,9.9935303-4.4798584,10-10C22,6.4771729,17.5228271,2,12,2z M12,21c-4.9705811,0-9-4.0294189-9-9s4.0294189-9,9-9c4.9683228,0.0054321,8.9945679,4.0316772,9,9C21,16.9705811,16.9705811,21,12,21z"/></svg>