<svg xmlns="http://www.w3.org/2000/svg" enable-background="new 0 0 24 24" viewBox="0 0 24 24"><path fill="#6563ff" d="M16.5,17H8.7069702l4.6465454-4.6464844c0.1951904-0.1951294,0.1952515-0.5116577,0.0001221-0.7068481c-0.000061-0.000061-0.0001221-0.0001221-0.0001221-0.0001221L8.7069702,7H16.5C16.776123,7,17,6.776123,17,6.5S16.776123,6,16.5,6h-9C7.223877,6.000061,7,6.223938,7.000061,6.500061c0,0.1325684,0.0526733,0.2597046,0.1464233,0.3534546L12.2930298,12l-5.1465454,5.1464844c-0.1952515,0.1952515-0.1951904,0.5118408,0.000061,0.7070923C7.2402954,17.9473267,7.3674316,18,7.5,18h9c0.276123,0,0.5-0.223877,0.5-0.5S16.776123,17,16.5,17z"/></svg>