<svg xmlns="http://www.w3.org/2000/svg" enable-background="new 0 0 24 24" viewBox="0 0 24 24"><path fill="#6563ff" d="M21.9,11.7l-2-2.5C19.8,9.1,19.7,9,19.5,9h-7V2.5C12.5,2.2,12.3,2,12,2s-0.5,0.2-0.5,0.5V4h-7C4.3,4,4.2,4.1,4.1,4.2l-2,2.5C2,6.9,2,7.1,2.1,7.3l2,2.5C4.2,9.9,4.3,10,4.5,10h7v11h-3C8.2,21,8,21.2,8,21.5S8.2,22,8.5,22h7c0.3,0,0.5-0.2,0.5-0.5S15.8,21,15.5,21h-3v-6h7c0.2,0,0.3-0.1,0.4-0.2l2-2.5C22,12.1,22,11.9,21.9,11.7z M11.5,9H4.7L3.1,7l1.6-2h6.8V9z M19.3,14h-6.8v-4h6.8l1.6,2L19.3,14z"/></svg>