<svg xmlns="http://www.w3.org/2000/svg" enable-background="new 0 0 24 24" viewBox="0 0 24 24"><path fill="#6563ff" d="M10,12c-0.276123,0-0.5,0.223877-0.5,0.5v7c0,0.0001831,0,0.0003662,0,0.0005493C9.5001831,19.7765503,9.723999,20.0001831,10,20c0.0001831,0,0.0003662,0,0.0006104,0c0.2759399-0.0001831,0.4995728-0.223999,0.4993896-0.5v-7C10.5,12.223877,10.276123,12,10,12z M6,15c-0.276123,0-0.5,0.223877-0.5,0.5v4c0,0.0001831,0,0.0003662,0,0.0005493C5.5001831,19.7765503,5.723999,20.0001831,6,20c0.0001831,0,0.0003662,0,0.0006104,0C6.2765503,19.9998169,6.5001831,19.776001,6.5,19.5v-4C6.5,15.223877,6.276123,15,6,15z M14,8c-0.276123,0-0.5,0.223877-0.5,0.5v11c0,0.0001831,0,0.0003662,0,0.0005493C13.5001831,19.7765503,13.723999,20.0001831,14,20c0.0001831,0,0.0003662,0,0.0006104,0c0.2759399-0.0001831,0.4995728-0.223999,0.4993896-0.5v-11C14.5,8.223877,14.276123,8,14,8z M18,4c-0.276123,0-0.5,0.223877-0.5,0.5v15c0,0.0001831,0,0.0003662,0,0.0005493C17.5001831,19.7765503,17.723999,20.0001831,18,20c0.0001831,0,0.0003662,0,0.0006104,0c0.2759399-0.0001831,0.4995728-0.223999,0.4993896-0.5v-15C18.5,4.223877,18.276123,4,18,4z"/></svg>