<svg xmlns="http://www.w3.org/2000/svg" enable-background="new 0 0 24 24" viewBox="0 0 24 24"><path fill="#6563ff" d="M20,12c0-0.276123-0.223877-0.5-0.5-0.5h-8.7930298l2.6464844-2.6464844c0.1871338-0.1937256,0.1871338-0.5009155,0-0.6947021c-0.1918335-0.1986084-0.5083618-0.2041016-0.7069702-0.0122681l-3.5,3.5c-0.000061,0-0.0001221,0.000061-0.0001221,0.0001221c-0.1951904,0.1951904-0.1951294,0.5117188,0.0001221,0.7068481l3.5,3.5C12.7401123,15.9474487,12.8673706,16.0001831,13,16c0.1325684,0,0.2597046-0.0526733,0.3533936-0.1464233c0.1953125-0.1952515,0.1953125-0.5118408,0.0001221-0.7070923L10.7069702,12.5H19.5C19.776123,12.5,20,12.276123,20,12z M17.5,2h-11C5.119812,2.0012817,4.0012817,3.119812,4,4.5v15c0.0012817,1.380188,1.119812,2.4987183,2.5,2.5h11c1.380188-0.0012817,2.4987183-1.119812,2.5-2.5v-4c0-0.276123-0.223877-0.5-0.5-0.5S19,15.223877,19,15.5v4c-0.0009155,0.828064-0.671936,1.4990845-1.5,1.5h-11c-0.828064-0.0009155-1.4990845-0.671936-1.5-1.5v-15C5.0009155,3.671936,5.671936,3.0009155,6.5,3h11c0.828064,0.0009155,1.4990845,0.671936,1.5,1.5v4C19,8.776123,19.223877,9,19.5,9S20,8.776123,20,8.5v-4C19.9987183,3.119812,18.880188,2.0012817,17.5,2z"/></svg>