<svg xmlns="http://www.w3.org/2000/svg" enable-background="new 0 0 24 24" viewBox="0 0 24 24"><path fill="#6563ff" d="M18.8886719,8.1845703l-2.4335938-3C16.3595581,5.0681152,16.217041,5.0004272,16.0664062,5H10V2.5C10,2.223877,9.776123,2,9.5,2S9,2.223877,9,2.5V5H5.4993896C5.2234497,5.0001831,4.9998169,5.223999,5,5.5v6.0005493C5.0001831,11.7765503,5.223999,12.0001831,5.5,12H9v9H6.5C6.223877,21,6,21.223877,6,21.5S6.223877,22,6.5,22h7c0.276123,0,0.5-0.223877,0.5-0.5S13.776123,21,13.5,21H10v-9h6.0664062c0.1506348-0.0004272,0.2931519-0.0681152,0.3886719-0.1845703l2.4335938-3C19.0371094,8.6313477,19.0371094,8.3686523,18.8886719,8.1845703z M15.828125,11H6V6h9.828125l2.0283203,2.5L15.828125,11z"/></svg>