<svg xmlns="http://www.w3.org/2000/svg" enable-background="new 0 0 24 24" viewBox="0 0 24 24"><path fill="#6563ff" d="M15,8.5c-0.8284302,0-1.5,0.6715698-1.5,1.5s0.6715698,1.5,1.5,1.5c0.828064-0.0009155,1.4990845-0.671936,1.5-1.5C16.5,9.1715698,15.8284302,8.5,15,8.5z M15,10.5c-0.276123,0-0.5-0.223877-0.5-0.5s0.223877-0.5,0.5-0.5c0.2759399,0.0005493,0.4994507,0.2240601,0.5,0.5C15.5,10.276123,15.276123,10.5,15,10.5z M9,11.5c0.828064-0.0009155,1.4990845-0.671936,1.5-1.5c0-0.8284302-0.6715698-1.5-1.5-1.5S7.5,9.1715698,7.5,10S8.1715698,11.5,9,11.5z M9,9.5C9.2759399,9.5005493,9.4994507,9.7240601,9.5,10c0,0.276123-0.223877,0.5-0.5,0.5S8.5,10.276123,8.5,10S8.723877,9.5,9,9.5z M12,2C6.4771729,2,2,6.4771729,2,12s4.4771729,10,10,10c5.5201416-0.0064697,9.9935303-4.4798584,10-10C22,6.4771729,17.5228271,2,12,2z M12,21c-4.9705811,0-9-4.0294189-9-9s4.0294189-9,9-9c4.9683228,0.0054321,8.9945679,4.0316772,9,9C21,16.9705811,16.9705811,21,12,21z M16,14.5h-0.5V14c0-0.276123-0.223877-0.5-0.5-0.5s-0.5,0.223877-0.5,0.5v0.5h-2V14c0-0.276123-0.223877-0.5-0.5-0.5s-0.5,0.223877-0.5,0.5v0.5h-2V14c0-0.276123-0.223877-0.5-0.5-0.5S8.5,13.723877,8.5,14v0.5H8c-0.276123,0-0.5,0.223877-0.5,0.5s0.223877,0.5,0.5,0.5h0.5v0.5005493C8.5001831,16.2765503,8.723999,16.5001831,9,16.5h0.0006104C9.2765503,16.4998169,9.5001831,16.276001,9.5,16v-0.5h2v0.5005493C11.5001831,16.2765503,11.723999,16.5001831,12,16.5h0.0006104C12.2765503,16.4998169,12.5001831,16.276001,12.5,16v-0.5h2v0.5005493C14.5001831,16.2765503,14.723999,16.5001831,15,16.5h0.0006104C15.2765503,16.4998169,15.5001831,16.276001,15.5,16v-0.5H16c0.276123,0,0.5-0.223877,0.5-0.5S16.276123,14.5,16,14.5z"/></svg>