<svg xmlns="http://www.w3.org/2000/svg" enable-background="new 0 0 24 24" viewBox="0 0 24 24"><path fill="#6563ff" d="M15.5175781,11.8535156C15.6112061,11.9474487,15.7384644,12.0001831,15.8710938,12c0.1325684,0,0.2597046-0.0526733,0.3534546-0.1464233c0.1952515-0.1952515,0.1953125-0.5118408,0.000061-0.7070923L15.078125,10l1.1464844-1.1464844c0.0023804-0.0023193,0.0047607-0.0046997,0.0070801-0.0071411c0.1932983-0.1971436,0.1900635-0.5136719-0.0070801-0.7069702c-0.1972046-0.1932373-0.5137329-0.1900635-0.7070312,0.0071411l-1.5,1.5c-0.000061,0-0.000061,0.000061-0.0001221,0.0001221c-0.1951904,0.1951904-0.1951294,0.5117188,0.0001221,0.7068481L15.5175781,11.8535156z M7.8711548,11.499939c0,0.276123,0.2238159,0.5,0.499939,0.500061c0.1326294,0.0001221,0.2598267-0.0525513,0.3535156-0.1464844l1.5-1.5c0-0.000061,0.000061-0.000061,0.0001221-0.0001221c0.1951294-0.1952515,0.1950684-0.5117188-0.0001221-0.7068481l-1.5-1.5c-0.194397-0.1904907-0.5054932-0.1904907-0.6998901,0C7.8275146,8.3397827,7.8243408,8.656311,8.0175781,8.8535156L9.1640625,10l-1.1464844,1.1464844C7.9238281,11.2402344,7.8712158,11.3673706,7.8711548,11.499939z M14.9667969,14.5996094c-0.1777954-0.1328125-0.421814-0.1328125-0.5996094,0l-1.0339966,0.7752686l-1.0333862-0.7752686c-0.1777954-0.1328125-0.421814-0.1328125-0.5996094,0l-1.0333862,0.7752686l-1.0339966-0.7752686c-0.1777954-0.1328125-0.421814-0.1328125-0.5996094,0l-1.3330078,1c-0.2211304,0.1655884-0.2661743,0.4790649-0.1005859,0.7001953s0.4790649,0.2661743,0.7001953,0.1005859L9.3330078,15.625l1.0341797,0.7753906c0.0043945,0.0032959,0.010376,0.0018311,0.0148315,0.0049438c0.0802002,0.0561523,0.1708374,0.0853271,0.2665405,0.088562c0.0153809,0.0006104,0.0285034-0.0015259,0.0439453-0.0023804c0.0960083-0.005188,0.1917725-0.0288086,0.274292-0.0911255L12,15.625l1.0332031,0.7753906C13.1221313,16.4667969,13.2275391,16.5,13.3330078,16.5c0.0980225,0.000061,0.1867676-0.0366821,0.2669067-0.0886841c0.0101318-0.0064697,0.0231323-0.0036621,0.0328979-0.0109253L14.6669922,15.625l1.0332031,0.7753906C15.7866821,16.465271,15.8919067,16.5002441,16,16.5c0.1577148,0.0001221,0.3062134-0.0742188,0.4006958-0.2005005c0.1654053-0.2211304,0.1202393-0.5344849-0.1008911-0.6998901L14.9667969,14.5996094z M12,2C6.4771729,2,2,6.4771729,2,12s4.4771729,10,10,10c5.5201416-0.0064697,9.9935303-4.4798584,10-10C22,6.4771729,17.5228271,2,12,2z M12,21c-4.9705811,0-9-4.0294189-9-9s4.0294189-9,9-9c4.9683228,0.0054321,8.9945679,4.0316772,9,9C21,16.9705811,16.9705811,21,12,21z"/></svg>