<svg xmlns="http://www.w3.org/2000/svg" enable-background="new 0 0 24 24" viewBox="0 0 24 24"><path fill="#6563ff" d="M16,7c-0.276123,0-0.5,0.223877-0.5,0.5v2.9630127L9.9658203,7.2255859C9.4626465,6.9277344,8.8379517,6.9247437,8.3319702,7.2177734C7.8132935,7.5113525,7.494751,8.0632324,7.5,8.6591797v6.6816406c-0.0032959,0.9110107,0.7305908,1.6531982,1.6416016,1.6601562c0.2896729-0.0008545,0.5739136-0.0791016,0.8232422-0.2265625L15.5,13.5375366v2.9630127C15.5001831,16.7765503,15.723999,17.0001831,16,17h0.0006104c0.2759399-0.0001831,0.4995728-0.223999,0.4993896-0.5v-9C16.5,7.223877,16.276123,7,16,7z M15.1729126,12.5703125L9.460022,15.9111328c-0.1936646,0.1169434-0.4358521,0.1184692-0.6309204,0.0039062C8.6234131,15.7974243,8.4974976,15.5777588,8.5,15.3408203v-6.684082C8.496582,8.2974243,8.7851562,8.0033569,9.1445312,8c0.1115723,0.0005493,0.2208862,0.03125,0.3164062,0.0888672l5.7109375,3.3408203c0.0985107,0.057312,0.180481,0.1391602,0.2379761,0.2375488C15.593811,11.9820557,15.4877319,12.3863525,15.1729126,12.5703125z M12,2C6.4771729,2,2,6.4771729,2,12s4.4771729,10,10,10c5.5201416-0.0064697,9.9935303-4.4798584,10-10C22,6.4771729,17.5228271,2,12,2z M12,21c-4.9705811,0-9-4.0294189-9-9s4.0294189-9,9-9c4.9683228,0.0054321,8.9945679,4.0316772,9,9C21,16.9705811,16.9705811,21,12,21z"/></svg>