<svg xmlns="http://www.w3.org/2000/svg" enable-background="new 0 0 24 24" viewBox="0 0 24 24"><path fill="#6563ff" d="M2.5,3C2.223877,3,2,3.223877,2,3.5v17.0005493C2.0001831,20.7765503,2.223999,21.0001831,2.5,21h0.0006104C2.7765503,20.9998169,3.0001831,20.776001,3,20.5v-17C3,3.223877,2.776123,3,2.5,3z M20.5078125,9.3203125l-10-6.0039062C9.605957,2.7658081,8.475647,2.7508545,7.5595703,3.2773438C6.5825195,3.8310547,5.9847412,4.8731079,6,5.9960938v12.0078125c-0.0152588,1.1229858,0.5825195,2.1650391,1.5595703,2.71875C7.99823,20.9736328,8.4946289,21.1062012,9,21.1074219c0.5317993-0.0015869,1.0530396-0.1481323,1.5078125-0.4238281l10-6.0039062c0.4141235-0.2565308,0.7631226-0.6055908,1.0196533-1.0196533C22.4442749,12.1800537,21.9877319,10.2371216,20.5078125,9.3203125z M19.9921875,13.8222656l-10,6.0039062c-0.5934448,0.3626099-1.3373413,0.3726807-1.9404297,0.0263672C7.3901978,19.4743042,6.9871216,18.7658691,7,18.0039062V5.9960938C6.9871216,5.2341309,7.3901978,4.5256958,8.0517578,4.1474609C8.3405151,3.9822998,8.6673584,3.8951416,9,3.8945312c0.3499756,0.0011597,0.6929932,0.0977173,0.9921875,0.2792969l10,6.0039062c0.2744751,0.1722412,0.5064697,0.4042358,0.6787109,0.6787109C21.3024902,11.862854,20.9985962,13.1906738,19.9921875,13.8222656z"/></svg>