<svg xmlns="http://www.w3.org/2000/svg" enable-background="new 0 0 24 24" viewBox="0 0 24 24"><path fill="#6563ff" d="M19.5,3C18.1192627,3,17,4.1192627,17,5.5v4.1151733c-0.213501-0.2277222-0.4484863-0.4395752-0.7285156-0.609314L7.3129883,3.5800781C6.7659302,3.2487183,6.1385498,3.0735474,5.4989624,3.0737305C3.5661011,3.0741577,1.9995728,4.6413574,2,6.5742188v10.8515625c-0.0087891,1.2660522,0.6745605,2.435791,1.7817383,3.0498657c0.524292,0.2979736,1.1166992,0.4553833,1.7197266,0.4569702c0.6394653-0.0014038,1.2661743-0.178772,1.8115234-0.5126953l8.9584961-5.4257812C16.5441284,14.8289185,16.7832642,14.6203613,17,14.3897095V18.5c0.0012817,1.380188,1.119812,2.4987183,2.5,2.5c1.380188-0.0012817,2.4987183-1.119812,2.5-2.5v-13C22,4.1192627,20.8807373,3,19.5,3z M15.7539062,14.1386719l-8.9584961,5.4257812c-0.3908081,0.2368164-0.8391113,0.3619385-1.2960815,0.3618774C4.1186523,19.9259644,2.9996338,18.8064575,3,17.4257812V6.5742188c-0.0062866-0.90448,0.4819336-1.7401123,1.2730103-2.1787109c0.3743286-0.2128296,0.7973633-0.3251953,1.2279663-0.3261719c0.4569092,0.0010986,0.9047241,0.1278076,1.2944336,0.3662109l8.9584961,5.4257812c0.3440552,0.2086792,0.6326904,0.4973145,0.8414307,0.8414307C17.3117676,11.8839111,16.9350586,13.4221802,15.7539062,14.1386719z M21,18.5c0,0.8284302-0.6715698,1.5-1.5,1.5S18,19.3284302,18,18.5v-13c0.0009155-0.828064,0.671936-1.4990845,1.5-1.5c0.828064,0.0009155,1.4990845,0.671936,1.5,1.5V18.5z"/></svg>