<svg xmlns="http://www.w3.org/2000/svg" enable-background="new 0 0 24 24" viewBox="0 0 24 24"><path fill="#6563ff" d="M12,18c-0.276123,0-0.5,0.223877-0.5,0.5v3c0,0.0001831,0,0.0003662,0,0.0005493C11.5001831,21.7765503,11.723999,22.0001831,12,22c0.0001831,0,0.0003662,0,0.0006104,0c0.2759399-0.0001831,0.4995728-0.223999,0.4993896-0.5v-3C12.5,18.223877,12.276123,18,12,18z M5.5,10C5.223877,10,5,10.223877,5,10.5v11c0,0.0001831,0,0.0003662,0,0.0005493C5.0001831,21.7765503,5.223999,22.0001831,5.5,22c0.0001831,0,0.0003662,0,0.0006104,0C5.7765503,21.9998169,6.0001831,21.776001,6,21.5v-11C6,10.223877,5.776123,10,5.5,10z M7.5,7H6V2.5C6,2.223877,5.776123,2,5.5,2S5,2.223877,5,2.5V7H3.5C3.223877,7,3,7.223877,3,7.5S3.223877,8,3.5,8h2c0.0001831,0,0.0003662,0,0.0006104,0H7.5C7.776123,8,8,7.776123,8,7.5S7.776123,7,7.5,7z M20.5,11H19V2.5C19,2.223877,18.776123,2,18.5,2S18,2.223877,18,2.5V11h-1.5c-0.276123,0-0.5,0.223877-0.5,0.5s0.223877,0.5,0.5,0.5h2h0.0006104H20.5c0.276123,0,0.5-0.223877,0.5-0.5S20.776123,11,20.5,11z M18.5,14c-0.276123,0-0.5,0.223877-0.5,0.5v7c0,0.0001831,0,0.0003662,0,0.0005493C18.0001831,21.7765503,18.223999,22.0001831,18.5,22c0.0001831,0,0.0003662,0,0.0006104,0C18.7765503,21.9998169,19.0001831,21.776001,19,21.5v-7C19,14.223877,18.776123,14,18.5,14z M14,15h-1.5V2.5C12.5,2.223877,12.276123,2,12,2s-0.5,0.223877-0.5,0.5V15H10c-0.276123,0-0.5,0.223877-0.5,0.5S9.723877,16,10,16h4c0.276123,0,0.5-0.223877,0.5-0.5S14.276123,15,14,15z"/></svg>