<svg xmlns="http://www.w3.org/2000/svg" enable-background="new 0 0 24 24" viewBox="0 0 24 24"><path fill="#6563ff" d="M5.5,6.550415V3c0-0.276123-0.223877-0.5-0.5-0.5S4.5,2.723877,4.5,3v3.550415C3.3588867,6.7821045,2.5,7.7905273,2.5,9s0.8588867,2.2178955,2,2.449585v9.5509644C4.5001831,21.2765503,4.723999,21.5001831,5,21.5h0.0006104C5.2765503,21.4998169,5.5001831,21.276001,5.5,21v-9.5508423C6.6405029,11.2167358,7.4989014,10.2089233,7.5,9C7.5,7.7905273,6.6411133,6.7821045,5.5,6.550415z M5,10.5c-0.8284302,0-1.5-0.6715698-1.5-1.5S4.1715698,7.5,5,7.5C5.828064,7.5009155,6.4990845,8.171936,6.5,9C6.5,9.8284302,5.8284302,10.5,5,10.5z M12.5,14.550415V3c0-0.276123-0.223877-0.5-0.5-0.5S11.5,2.723877,11.5,3v11.550415c-1.1411133,0.2316895-2,1.2401123-2,2.449585s0.8588867,2.2178955,2,2.449585v1.5509644C11.5001831,21.2765503,11.723999,21.5001831,12,21.5h0.0006104C12.2765503,21.4998169,12.5001831,21.276001,12.5,21v-1.5508423c1.1405029-0.2324219,1.9989014-1.2402344,2-2.4491577C14.5,15.7905273,13.6411133,14.7821045,12.5,14.550415z M12,18.5c-0.8284302,0-1.5-0.6715698-1.5-1.5s0.6715698-1.5,1.5-1.5c0.828064,0.0009155,1.4990845,0.671936,1.5,1.5C13.5,17.8284302,12.8284302,18.5,12,18.5z M19.5,8.550415V3c0-0.276123-0.223877-0.5-0.5-0.5S18.5,2.723877,18.5,3v5.550415c-1.1411133,0.2316895-2,1.2401123-2,2.449585s0.8588867,2.2178955,2,2.449585v7.5509644C18.5001831,21.2765503,18.723999,21.5001831,19,21.5h0.0006104C19.2765503,21.4998169,19.5001831,21.276001,19.5,21v-7.5508423c1.1405029-0.2324219,1.9989014-1.2402344,2-2.4491577C21.5,9.7905273,20.6411133,8.7821045,19.5,8.550415z M19,12.5c-0.8284302,0-1.5-0.6715698-1.5-1.5s0.6715698-1.5,1.5-1.5c0.828064,0.0009155,1.4990845,0.671936,1.5,1.5C20.5,11.8284302,19.8284302,12.5,19,12.5z"/></svg>