<svg xmlns="http://www.w3.org/2000/svg" enable-background="new 0 0 24 24" viewBox="0 0 24 24"><path fill="#6563ff" d="M8.6289673,11.499939c0,0.276123,0.2238159,0.5,0.499939,0.500061c0.1326294,0.0001221,0.2598267-0.0526123,0.3534546-0.1465454l1.4995728-1.4995728c0.0001221-0.0001221,0.0002441-0.0001221,0.0003662-0.0002441c0.1953125-0.1952515,0.1953125-0.5118408,0.000061-0.7070923l-1.5-1.5c-0.1943359-0.1904907-0.5054321-0.1904907-0.6998291,0C8.5853271,8.3397827,8.5821533,8.656311,8.7753906,8.8535156L9.921875,10l-1.1464844,1.1464844C8.6816406,11.2402344,8.6289673,11.3673706,8.6289673,11.499939z M14.6787109,14.6171875c-1.5650024,1.2558594-3.7924194,1.2558594-5.3574219,0c-0.2114258-0.1774292-0.5266724-0.1499023-0.7041016,0.0615234s-0.1499023,0.5266724,0.0615234,0.7041016C9.6098022,16.1627808,10.7854004,16.5906982,12,16.5917969c1.2145996-0.0010986,2.3901978-0.4290161,3.3212891-1.2089844c0.2114258-0.1774292,0.2389526-0.4926758,0.0615234-0.7041016S14.8901367,14.4397583,14.6787109,14.6171875z M15,8.5c-0.8284302,0-1.5,0.6715698-1.5,1.5s0.6715698,1.5,1.5,1.5c0.828064-0.0009155,1.4990845-0.671936,1.5-1.5C16.5,9.1715698,15.8284302,8.5,15,8.5z M15,10.5c-0.276123,0-0.5-0.223877-0.5-0.5s0.223877-0.5,0.5-0.5c0.2759399,0.0005493,0.4994507,0.2240601,0.5,0.5C15.5,10.276123,15.276123,10.5,15,10.5z M12,2C6.4771729,2,2,6.4771729,2,12s4.4771729,10,10,10c5.5201416-0.0064697,9.9935303-4.4798584,10-10C22,6.4771729,17.5228271,2,12,2z M12,21c-4.9705811,0-9-4.0294189-9-9s4.0294189-9,9-9c4.9683228,0.0054321,8.9945679,4.0316772,9,9C21,16.9705811,16.9705811,21,12,21z"/></svg>