<svg xmlns="http://www.w3.org/2000/svg" enable-background="new 0 0 24 24" viewBox="0 0 24 24"><path fill="#6563ff" d="M11,10c0-1.1045532-0.8954468-2-2-2s-2,0.8954468-2,2s0.8954468,2,2,2C10.1040039,11.9985962,10.9985962,11.1040039,11,10z M8,10c0-0.5523071,0.4476929-1,1-1c0.552124,0.0003662,0.9996338,0.447876,1,1c0,0.5523071-0.4476929,1-1,1S8,10.5523071,8,10z M12,2C6.4771729,2,2,6.4771729,2,12s4.4771729,10,10,10c5.5201416-0.0064697,9.9935303-4.4798584,10-10C22,6.4771729,17.5228271,2,12,2z M12,21c-4.9705811,0-9-4.0294189-9-9s4.0294189-9,9-9c4.9683228,0.0054321,8.9945679,4.0316772,9,9C21,16.9705811,16.9705811,21,12,21z M15,9.5h-1c-0.276123,0-0.5,0.223877-0.5,0.5s0.223877,0.5,0.5,0.5h1c0.276123,0,0.5-0.223877,0.5-0.5S15.276123,9.5,15,9.5z M14.6787109,14.6171875c-1.5650024,1.2558594-3.7924194,1.2558594-5.3574219,0c-0.2114258-0.1774292-0.5266724-0.1499023-0.7041016,0.0615234s-0.1499023,0.5266724,0.0615234,0.7041016C9.6098022,16.1627808,10.7854004,16.5906982,12,16.5917969c1.2145996-0.0010986,2.3901978-0.4290161,3.3212891-1.2089844c0.2114258-0.1774292,0.2389526-0.4926758,0.0615234-0.7041016S14.8901367,14.4397583,14.6787109,14.6171875z"/></svg>