<svg xmlns="http://www.w3.org/2000/svg" enable-background="new 0 0 24 24" viewBox="0 0 24 24"><path fill="#6563ff" d="M12,2C6.4771729,2,2,6.4771729,2,12s4.4771729,10,10,10c5.5202026-0.0062866,9.9937134-4.4797974,10-10C22,6.4771729,17.5228271,2,12,2z M12,21c-4.9705811,0-9-4.0294189-9-9s4.0294189-9,9-9c4.9682617,0.0056152,8.9943848,4.0317383,9,9C21,16.9705811,16.9705811,21,12,21z M14.5175781,11.8535156C14.6112061,11.9474487,14.7384644,12.0001831,14.8710938,12c0.1325073-0.000061,0.2595825-0.0526733,0.3533325-0.1463623c0.1953125-0.1952515,0.1953735-0.5118408,0.0001831-0.7070923L14.078064,10l1.1465454-1.1465454c0.1904907-0.194397,0.1904907-0.5054321,0-0.6998291c-0.1932983-0.1972046-0.5098267-0.2003784-0.7070312-0.0071411l-1.5,1.5c-0.09375,0.09375-0.1463623,0.2208862-0.1464233,0.3534546c0,0.1380615,0.0559082,0.2631226,0.1464233,0.3535767L14.5175781,11.8535156z M10.5,10c0-0.8284302-0.6715698-1.5-1.5-1.5S7.5,9.1715698,7.5,10s0.6715698,1.5,1.5,1.5C9.828064,11.4990845,10.4990845,10.828064,10.5,10z M8.5,10c0-0.276123,0.223877-0.5,0.5-0.5C9.276001,9.5003662,9.4996338,9.723999,9.5,10c0,0.276123-0.223877,0.5-0.5,0.5S8.5,10.276123,8.5,10z M14.6787109,14.6171875c-1.5651855,1.2553711-3.7922363,1.2553711-5.3574219,0c-0.2114258-0.1774292-0.5266724-0.1499023-0.7041016,0.0615234s-0.1499023,0.5266724,0.0615234,0.7041016C9.6096191,16.1630249,10.7853394,16.5910034,12,16.5917969c1.2145996-0.0010986,2.3901978-0.4290161,3.3212891-1.2089844c0.2114258-0.1774292,0.2389526-0.4926758,0.0615234-0.7041016S14.8901367,14.4397583,14.6787109,14.6171875z"/></svg>