<svg xmlns="http://www.w3.org/2000/svg" enable-background="new 0 0 24 24" viewBox="0 0 24 24"><path fill="#6563ff" d="M18.5,6.9990234c0.3977661,0.0005493,0.7793579-0.1572266,1.0605469-0.4384766c0.281189-0.2808838,0.4393311-0.6619263,0.4396362-1.0593872c0.0006104-0.8278809-0.6699829-1.4995117-1.4978027-1.5001831c-0.8278809-0.0006104-1.4995728,0.6699829-1.5001831,1.4978638C17.0015259,6.3267212,17.6721191,6.9983521,18.5,6.9990234z M18.5,5c0.1326294-0.0001831,0.2598877,0.0525513,0.3535156,0.1464844c0.09375,0.09375,0.1464233,0.2209473,0.1464233,0.3535767c-0.000061,0.276123-0.223938,0.5-0.500061,0.499939c-0.2761841-0.000061-0.5-0.223938-0.499939-0.500061S18.223877,4.999939,18.5,5z M5.5023193,17.0009766c-0.8278198-0.0006104-1.4995117,0.6699829-1.5001221,1.4978638C4.0015259,19.3267212,4.6721191,19.9983521,5.5,19.9990234c0.3977661,0.0005493,0.7793579-0.1572266,1.0605469-0.4384766c0.281189-0.2808838,0.4393311-0.6619263,0.4396362-1.0593872C7.0007935,17.6732788,6.3302002,17.0016479,5.5023193,17.0009766z M5.4998779,19c-0.2761841-0.000061-0.5-0.223938-0.499939-0.500061S5.223877,17.999939,5.5,18c0.1326294-0.0001831,0.2598877,0.0525513,0.3535156,0.1464844c0.09375,0.09375,0.1464233,0.2209473,0.1464233,0.3535767C5.9998779,18.7761841,5.776001,19.000061,5.4998779,19z M21.5,11.5h-3.2929688l2.6464233-2.6464844c0.1871948-0.1937866,0.1871948-0.5009766,0-0.6947021c-0.1918335-0.1986694-0.5083618-0.2041626-0.7069702-0.0122681L16.7930298,11.5h-3.5861206l3.6465454-3.6465454c0.1871948-0.1937256,0.1871948-0.5009155,0-0.6947021c-0.1918335-0.1986084-0.5083618-0.2041016-0.7069702-0.0122681L12.5,10.7929688V7.2069702l3.3534546-3.3534546c0.1871338-0.1937866,0.1871338-0.5009766,0-0.6947021c-0.1918335-0.1986084-0.5083618-0.2041626-0.7069702-0.0123291L12.5,5.7930298V2.5C12.5,2.223877,12.276123,2,12,2s-0.5,0.223877-0.5,0.5v3.2930298L8.8534546,3.1465454c-0.1937256-0.1871338-0.5009155-0.1871338-0.6947021,0C7.960144,3.3383789,7.9546509,3.6549072,8.1464844,3.8535156L11.5,7.2070312v3.5860596L7.8534546,7.1465454c-0.1937256-0.1871338-0.5009155-0.1871338-0.6947021,0C6.960144,7.3383789,6.9546509,7.6549072,7.1464844,7.8535156L10.7929688,11.5H7.2069092L3.8534546,8.1465454c-0.1937256-0.1871338-0.5009155-0.1871338-0.6947021,0C2.960144,8.3383789,2.9546509,8.6549072,3.1464844,8.8535156L5.7930298,11.5H2.5C2.223877,11.5,2,11.723877,2,12s0.223877,0.5,0.5,0.5h3.2930298l-2.6465454,2.6464844c-0.09375,0.09375-0.1464233,0.2208862-0.1464233,0.3534546C3,15.776062,3.223877,15.999939,3.5,16c0.1326294,0.0001221,0.2598267-0.0525513,0.3534546-0.1464844L7.2069702,12.5h3.5859985l-3.6464844,3.6464844c-0.09375,0.09375-0.1464233,0.2208862-0.1464233,0.3534546C7,16.776062,7.223877,16.999939,7.5,17c0.1326294,0.0001221,0.2598267-0.0526123,0.3534546-0.1465454L11.5,13.2069092v3.5861816l-3.3534546,3.3534546c-0.1871948,0.1937256-0.1871948,0.5009155,0,0.6947021c0.1918335,0.1986084,0.5083618,0.2041016,0.7069702,0.0122681L11.5,18.2069702V21.5c0,0.0001831,0,0.0003662,0,0.0005493C11.5001831,21.7765503,11.723999,22.0001831,12,22c0.0001831,0,0.0003662,0,0.0006104,0c0.2759399-0.0001831,0.4995728-0.223999,0.4993896-0.5v-3.2930298l2.6464844,2.6465454C15.2401123,20.9474487,15.3673706,21.0001831,15.5,21c0.1325073,0,0.2596436-0.0526733,0.3533936-0.1463623c0.1953125-0.1952515,0.1953735-0.5118408,0.0001221-0.7070923L12.5,16.7930298v-3.5859985l3.6464844,3.6464844C16.2401123,16.9474487,16.3673706,17.0001831,16.5,17c0.1325073-0.000061,0.2595825-0.0526733,0.3533325-0.1463623c0.1953125-0.1952515,0.1953735-0.5118408,0.0001221-0.7070923L13.2069092,12.5h3.5860596l3.3535156,3.3535156C20.2401123,15.9474487,20.3673706,16.0001831,20.5,16c0.1325684,0,0.2597046-0.0526733,0.3533936-0.1464233c0.1953125-0.1952515,0.1953125-0.5118408,0.0001221-0.7070923L18.2070312,12.5H21.5c0.276123,0,0.5-0.223877,0.5-0.5S21.776123,11.5,21.5,11.5z M18.5023193,17.0009766c-0.8278198-0.0006104-1.4995117,0.6699829-1.5001221,1.4978638C17.0015259,19.3267212,17.6721191,19.9983521,18.5,19.9990234c0.3977661,0.0005493,0.7793579-0.1572266,1.0605469-0.4384766c0.281189-0.2808838,0.4393311-0.6619263,0.4396362-1.0593872C20.0007935,17.6732788,19.3302002,17.0016479,18.5023193,17.0009766z M18.4998779,19c-0.2761841-0.000061-0.5-0.223938-0.499939-0.500061S18.223877,17.999939,18.5,18c0.1326294-0.0001831,0.2598877,0.0525513,0.3535156,0.1464844c0.09375,0.09375,0.1464233,0.2209473,0.1464233,0.3535767C18.9998779,18.7761841,18.776001,19.000061,18.4998779,19z M5.5,6.9990234c0.3977661,0.0005493,0.7793579-0.1572266,1.0605469-0.4384766c0.281189-0.2808838,0.4393311-0.6619263,0.4396362-1.0593872c0.0006104-0.8278809-0.6699829-1.4995117-1.4978638-1.5001831C4.6744995,4.0003662,4.0028076,4.6709595,4.0021973,5.4988403C4.0015259,6.3267212,4.6721191,6.9983521,5.5,6.9990234z M5.5,5c0.1326294-0.0001831,0.2598877,0.0525513,0.3535156,0.1464844c0.09375,0.09375,0.1464233,0.2209473,0.1464233,0.3535767c-0.000061,0.276123-0.223938,0.5-0.500061,0.499939c-0.2761841-0.000061-0.5-0.223938-0.499939-0.500061S5.223877,4.999939,5.5,5z"/></svg>