<svg xmlns="http://www.w3.org/2000/svg" enable-background="new 0 0 24 24" viewBox="0 0 24 24"><path fill="#6563ff" d="M21.34375,16.8173828l-3.7183838-2.1466675l2.9312744-0.7849121c0.2669067-0.071228,0.4255981-0.3453369,0.3544922-0.6123047c-0.0743408-0.2645264-0.3458862-0.4217529-0.6123047-0.3544922l-3.8987427,1.0443115L12.9993286,12l3.4007568-1.9633179l3.8987427,1.0443726c0.0421143,0.0108032,0.0853882,0.0163574,0.1289062,0.0166016c0.2267456,0.0001221,0.4251709-0.1523438,0.4835205-0.37146c0.0710449-0.2669067-0.0877075-0.5408936-0.3546143-0.6119385l-2.9313354-0.7849121L21.34375,7.1826172C21.5827026,7.0445557,21.6644287,6.7389526,21.5263672,6.5S21.0827026,6.1793213,20.84375,6.3173828l-3.7185059,2.1467896L17.9111328,5.53125c0.071106-0.2669678-0.0875854-0.5410767-0.3544922-0.6123047c-0.2661743-0.0654907-0.5365601,0.0910645-0.6123047,0.3544922l-1.0441895,3.8979492L12.5,11.1343994V7.2069702l2.8534546-2.8534546c0.1871338-0.1937866,0.1871338-0.5009155,0-0.6947021c-0.1918335-0.1986084-0.5083618-0.2041626-0.7069702-0.0123291L12.5,5.7930298V1.5C12.5,1.223877,12.276123,1,12,1s-0.5,0.223877-0.5,0.5v4.2930298L9.3534546,3.6465454c-0.1937256-0.1871338-0.5009155-0.1871338-0.6947021,0C8.460144,3.8383789,8.4546509,4.1549072,8.6464844,4.3535156L11.5,7.2070312v3.9273682L8.0998535,9.1713867L7.0556641,5.2734375C6.9807129,5.0093994,6.7096558,4.852478,6.4433594,4.9189453C6.1764526,4.9901733,6.0177612,5.2642822,6.0888672,5.53125l0.7858887,2.9329224L3.15625,6.3173828C2.9172974,6.1793213,2.6116943,6.2610474,2.4736328,6.5S2.4172974,7.0445557,2.65625,7.1826172l3.7184448,2.1467285l-2.9313354,0.7849121c-0.2191162,0.0583496-0.371521,0.2567749-0.37146,0.4835205c0.0001221,0.2761841,0.2241821,0.5,0.5003662,0.4998779c0.0435181-0.0002441,0.086792-0.0057983,0.1289062-0.0166016l3.8987427-1.0443726L11.0006714,12l-3.4007568,1.9633179l-3.8987427-1.0443726c-0.2661743-0.0653076-0.536377,0.0911865-0.6123047,0.3544922c-0.071106,0.2669678,0.0875854,0.5410767,0.3544922,0.6123047l2.9313354,0.7849121L2.65625,16.8173828c-0.1543579,0.0892944-0.2494507,0.2540283-0.2495728,0.432373C2.4064941,17.5258179,2.630188,17.7498169,2.90625,17.75c0.0878296,0.000061,0.1741333-0.0231934,0.25-0.0673828l3.7185059-2.1467896L6.0888672,18.46875c-0.071106,0.2669678,0.0875854,0.5410767,0.3544922,0.6123047c0.0421143,0.0108032,0.0854492,0.0163574,0.1289062,0.0166016c0.2263794-0.0004883,0.4244385-0.1525269,0.4833984-0.3710938l1.0441895-3.8979492L11.5,12.8656006v3.9274902l-2.8534546,2.8534546c-0.1871948,0.1937256-0.1871948,0.5009155,0,0.6947021c0.1918335,0.1986084,0.5083618,0.2041016,0.7069702,0.0122681L11.5,18.2069702v4.2935791C11.5001831,22.7765503,11.723999,23.0001831,12,23h0.0006104c0.2759399-0.0001831,0.4995728-0.223999,0.4993896-0.5v-4.2930298l2.1464844,2.1465454C14.7401123,20.4474487,14.8673706,20.5001831,15,20.5c0.1325073,0,0.2596436-0.0526733,0.3533936-0.1463623c0.1953125-0.1952515,0.1953735-0.5118408,0.0001221-0.7070923L12.5,16.7930298v-3.9274292l3.4001465,1.9630127l1.0441895,3.8979492c0.05896,0.2185669,0.257019,0.3706055,0.4833984,0.3710938c0.043457-0.0001831,0.086792-0.0057983,0.1289062-0.0165405c0.2669067-0.071228,0.4255981-0.3453369,0.3544922-0.6123047l-0.7859497-2.9329834l3.7185669,2.1467896c0.0758667,0.0441895,0.1621704,0.0674438,0.25,0.0673828c0.1783447-0.0001221,0.3430786-0.0952148,0.432373-0.2495728C21.6643677,17.2614746,21.5827026,16.9556274,21.34375,16.8173828z"/></svg>