<svg xmlns="http://www.w3.org/2000/svg" enable-background="new 0 0 24 24" viewBox="0 0 24 24"><path fill="#6563ff" d="M21.5,12h-11c-0.276123,0-0.5,0.223877-0.5,0.5s0.223877,0.5,0.5,0.5h11c0.276123,0,0.5-0.223877,0.5-0.5S21.776123,12,21.5,12z M5.3535156,6.1465454c-0.000061-0.000061-0.000061-0.0001221-0.0001221-0.0001831C5.1581421,5.9512329,4.8416748,5.9512939,4.6465454,6.1465454l-2.5,2.5c-0.1871338,0.1937256-0.1871338,0.5009155,0,0.6947021C2.3383789,9.539856,2.6549072,9.5453491,2.8535156,9.3535156L4.5,7.7069702V17.5c0,0.0001831,0,0.0003662,0,0.0005493C4.5001831,17.7765503,4.723999,18.0001831,5,18c0.0001831,0,0.0003662,0,0.0006104,0C5.2765503,17.9998169,5.5001831,17.776001,5.5,17.5V7.7069702l1.6464844,1.6465454C7.2401123,9.4474487,7.3673706,9.5001831,7.5,9.5c0.1325073,0,0.2596436-0.0526733,0.3533936-0.1463623C8.048645,9.1583862,8.0487671,8.8417969,7.8535156,8.6465454L5.3535156,6.1465454z M10.5,8h11C21.776123,8,22,7.776123,22,7.5S21.776123,7,21.5,7h-11C10.223877,7,10,7.223877,10,7.5S10.223877,8,10.5,8z M21.5,17h-11c-0.276123,0-0.5,0.223877-0.5,0.5s0.223877,0.5,0.5,0.5h11c0.276123,0,0.5-0.223877,0.5-0.5S21.776123,17,21.5,17z"/></svg>