<svg xmlns="http://www.w3.org/2000/svg" enable-background="new 0 0 24 24" viewBox="0 0 24 24"><path fill="#6563ff" d="M11.6464844,9.3535156C11.7401123,9.4474487,11.8673706,9.5001831,12,9.5c0.1326294,0.0001221,0.2598267-0.0525513,0.3534546-0.1464844l3.5-3.5c0.1871338-0.1937866,0.1871338-0.5009155,0-0.6947021c-0.1918335-0.1986084-0.5083618-0.2041626-0.7069702-0.0123291L12,8.2930298L8.8534546,5.1465454c-0.1937256-0.1871338-0.5009155-0.1871338-0.6947021,0C7.960144,5.3383789,7.9546509,5.6549072,8.1464844,5.8535156L11.6464844,9.3535156z M15.8535156,18.1465454l-3.5-3.5c-0.000061-0.000061-0.000061-0.0001221-0.0001221-0.0001831c-0.1952515-0.1951294-0.5117188-0.1950684-0.7068481,0.0001831l-3.5,3.5c-0.1871948,0.1937256-0.1871948,0.5009155,0,0.6947021c0.1918335,0.1986084,0.5083618,0.2041016,0.7069702,0.0122681L12,15.7069702l3.1464844,3.1465454C15.2401123,18.9474487,15.3673706,19.0001831,15.5,19c0.1325073,0,0.2596436-0.0526733,0.3533936-0.1463623C16.0487061,18.6583862,16.0487671,18.3417969,15.8535156,18.1465454z"/></svg>