<svg xmlns="http://www.w3.org/2000/svg" enable-background="new 0 0 24 24" viewBox="0 0 24 24"><path fill="#6563ff" d="M6.8535156,9.3535156L12,4.2069702l5.1464844,5.1465454C17.2401123,9.4474487,17.3673706,9.5001831,17.5,9.5c0.1325073,0,0.2596436-0.0526733,0.3533936-0.1463623c0.1952515-0.1952515,0.1953735-0.5118408,0.0001221-0.7070923l-5.5-5.5c-0.000061-0.000061-0.000061-0.0001221-0.0001221-0.0001831c-0.1952515-0.1951294-0.5117188-0.1950684-0.7068481,0.0001831l-5.5,5.5c-0.1871948,0.1937256-0.1871948,0.5009155,0,0.6947021C6.3383789,9.539856,6.6549072,9.5453491,6.8535156,9.3535156z M17.1464844,14.6464844L12,19.7929688l-5.1465454-5.1464233c-0.1937256-0.1871338-0.5009155-0.1871338-0.6947021,0c-0.1986084,0.1918335-0.2041016,0.5083618-0.0122681,0.7069702l5.5,5.5C11.7401123,20.9474487,11.8673706,21.0001831,12,21c0.1326294,0.0001221,0.2598267-0.0525513,0.3534546-0.1464844l5.5-5.5c0.1871948-0.1937866,0.1871948-0.5009766,0-0.6947632C17.6616211,14.460144,17.3450928,14.4546509,17.1464844,14.6464844z"/></svg>