<svg xmlns="http://www.w3.org/2000/svg" enable-background="new 0 0 24 24" viewBox="0 0 24 24"><path fill="#6563ff" d="M10.5,8h11C21.776123,8,22,7.776123,22,7.5S21.776123,7,21.5,7h-11C10.223877,7,10,7.223877,10,7.5S10.223877,8,10.5,8z M7.1464844,14.6464844L5.5,16.2929688V6.5C5.5,6.223877,5.276123,6,5,6S4.5,6.223877,4.5,6.5v9.7929688l-1.6465454-1.6464233c-0.1937256-0.1871338-0.5009155-0.1871338-0.6947021,0c-0.1986084,0.1918335-0.2041016,0.5083618-0.0122681,0.7069702l2.5,2.5C4.7401123,17.9474487,4.8673706,18.0001831,5,18c0.1326294,0.0001221,0.2598267-0.0525513,0.3534546-0.1464844l2.5-2.5c0.1871948-0.1937866,0.1871948-0.5009766,0-0.6947021C7.6616211,14.460144,7.3450928,14.4546509,7.1464844,14.6464844z M21.5,12h-11c-0.276123,0-0.5,0.223877-0.5,0.5s0.223877,0.5,0.5,0.5h11c0.276123,0,0.5-0.223877,0.5-0.5S21.776123,12,21.5,12z M21.5,17h-11c-0.276123,0-0.5,0.223877-0.5,0.5s0.223877,0.5,0.5,0.5h11c0.276123,0,0.5-0.223877,0.5-0.5S21.776123,17,21.5,17z"/></svg>