<svg xmlns="http://www.w3.org/2000/svg" enable-background="new 0 0 24 24" viewBox="0 0 24 24"><path fill="#6563ff" d="M19.4433594,16.343689c1.0328979-1.0410767,1.6136475-2.4474487,1.6162109-3.9140015c0.0059204-1.4675293-0.5757446-2.8762817-1.6152344-3.9121094l-5.7412109-5.78125c-0.9556274-0.9050293-2.4521484-0.9046021-3.4072266,0.0009766L4.5566406,8.5166016c-1.0400391,1.0359497-1.6220703,2.4451294-1.6162109,3.9130859c0.0024414,1.4656372,0.5823975,2.8712769,1.6142578,3.9121094c1.0327148,1.0344238,2.4338379,1.6164551,3.8955078,1.6181641c0.1699219,0,0.3349609-0.0068359,0.4960938-0.0214844c-0.3049316,1.1828613-0.8497314,2.2904053-1.6005859,3.2539062c-0.0681152,0.0876465-0.1051025,0.1953735-0.1052856,0.3063354C7.2400513,21.7752075,7.4638062,21.9995728,7.7402344,22h8.5195312c0.1110229-0.0001831,0.218811-0.0371704,0.3063965-0.1052856c0.2183228-0.1696167,0.2577515-0.4840698,0.0881348-0.7023926c-0.7546387-0.9634399-1.3010254-2.0731201-1.6044922-3.2587891C16.6794434,18.0956421,18.2947998,17.5111084,19.4433594,16.343689z M15.296875,21H8.7021484c0.6903076-1.0967407,1.1594238-2.3178711,1.3809204-3.5947266c0.0283813-0.1680908-0.0304565-0.3391113-0.15625-0.4541016c-0.1257935-0.1154785-0.302063-0.1582642-0.4667969-0.1132812c-0.329895,0.0845337-0.6693115,0.1255493-1.0098267,0.1221313c-1.1956787-0.0010376-2.3419189-0.4770508-3.1865234-1.3233643c-0.8459473-0.8532104-1.3214111-2.0054932-1.3232422-3.2069702c-0.0050659-1.203064,0.4718018-2.3580322,1.3242188-3.2070312l5.7392578-5.7792969c0.5591431-0.5266113,1.4315796-0.5270386,1.9912109-0.0009766l5.741272,5.78125c0.8518677,0.848877,1.3283691,2.003479,1.3232422,3.2060547c-0.0018921,1.2019653-0.4777222,2.3546753-1.3242798,3.2080078c-1.0947266,1.1116333-2.6932373,1.565979-4.2089844,1.1962891c-0.0645142-0.0153198-0.1314087-0.0176392-0.1968384-0.0068359c-0.2727661,0.0449219-0.4574585,0.3024292-0.4125366,0.5751953C14.1328735,18.6814575,14.6020508,19.9046021,15.296875,21z"/></svg>