<svg xmlns="http://www.w3.org/2000/svg" enable-background="new 0 0 24 24" viewBox="0 0 24 24"><path fill="#6563ff" d="M21.1582642,10.6855469c-0.420105-0.1434326-0.7991333-0.3867188-1.1044922-0.7089844c-0.3827515-0.3769531-0.6593018-0.8482056-0.8017578-1.3662109c-0.2090454-0.8141479-0.7121582-1.5067749-1.3904419-1.9846802c0.1453247-0.3670654,0.2064819-0.7657471,0.1491699-1.166687c-0.0949707-0.7462769-0.4403076-1.4382935-0.9794922-1.9628906c-0.524353-0.5390015-1.2159424-0.8842773-1.9619141-0.9794922c-0.7044678-0.100647-1.4158936,0.1304932-1.9267578,0.6259766c-0.4953613,0.5109253-0.7264404,1.22229-0.6259766,1.9267578c0.095459,0.7458496,0.4406738,1.4373779,0.9794922,1.9619141c0.5245972,0.5391846,1.2166138,0.8845215,1.9628906,0.9794922c0.102478,0.0115967,0.2055054,0.0174561,0.3085938,0.0175781c0.5690918,0.0114746,1.1151123-0.2006226,1.5369263-0.5789795c0.4807739,0.3446045,0.8361206,0.8406372,0.982605,1.4217529c0.1862793,0.6848755,0.5501099,1.3084106,1.0546875,1.8076172c0.4157715,0.4348145,0.9303589,0.7627563,1.5,0.9560547C20.8928223,11.6517334,20.946228,11.6603394,21,11.6601562c0.2153931,0.0001221,0.4066772-0.1376953,0.4747314-0.3421021C21.5620117,11.0560303,21.4202881,10.7728271,21.1582642,10.6855469z M16.6777344,6.6777344c-0.2979126,0.2770996-0.7064819,0.4020386-1.1083984,0.3388672c-0.5205078-0.0698853-1.0020752-0.3139038-1.3662109-0.6923828c-0.3786011-0.3636475-0.6226807-0.8449097-0.6923828-1.3652344c-0.0640259-0.4022217,0.0609741-0.8115845,0.3389282-1.109375C14.0953979,3.6149902,14.4251099,3.4890137,14.7646484,3.5c0.0649414-0.0002441,0.1298218,0.0033569,0.1943359,0.0107422c0.5203247,0.0697021,1.0015869,0.3138428,1.3652344,0.6923828c0.378418,0.3641968,0.6224976,0.8457031,0.6923828,1.3662109C17.0806885,5.9713135,16.9556274,6.3803101,16.6777344,6.6777344z M10.8389282,20.5498047c-0.293335-0.1435547-0.559082-0.3375854-0.7851562-0.5732422c-0.3827515-0.3769531-0.6593018-0.8482056-0.8017578-1.3662109c-0.2090454-0.8141479-0.7121582-1.5067749-1.3904419-1.9846802c0.1453247-0.3670654,0.2064819-0.7657471,0.1491699-1.166687c-0.0949707-0.7462769-0.4403076-1.4382935-0.9794922-1.9628906c-0.524353-0.5390015-1.2159424-0.8842773-1.9619141-0.9794922c-0.7045898-0.1019287-1.4165649,0.1293945-1.9267578,0.6259766c-0.4953613,0.5109253-0.7264404,1.22229-0.6259766,1.9267578c0.095459,0.7458496,0.4406738,1.4373779,0.9794922,1.9619141c0.5245972,0.5391846,1.2166138,0.8845215,1.9628906,0.9794922c0.102478,0.0115967,0.2055054,0.0174561,0.3085938,0.0175781c0.5690918,0.0114746,1.1151123-0.2006226,1.5369263-0.5789795c0.4807739,0.3446045,0.8361206,0.8406372,0.982605,1.4217529c0.1859131,0.684021,0.5490723,1.3068848,1.0527344,1.8056641c0.3058472,0.3179932,0.6651611,0.5797729,1.0615234,0.7734375c0.0681763,0.032959,0.1430054,0.0499878,0.21875,0.0498047h0.000061c0.1917725,0.0001831,0.3668213-0.109314,0.4505005-0.2819214C11.1912231,20.9695435,11.0874634,20.6703491,10.8389282,20.5498047z M6.6777344,16.6777344c-0.2977295,0.2773438-0.7064819,0.4023438-1.1083984,0.3388672c-0.5205078-0.0698853-1.0020752-0.3139038-1.3662109-0.6923828c-0.3786011-0.3636475-0.6226807-0.8449097-0.6923828-1.3652344c-0.0640259-0.4022217,0.0609741-0.8115845,0.3389282-1.109375C4.0953979,13.6149902,4.4251099,13.4890137,4.7646484,13.5c0.0649414-0.0002441,0.1298218,0.0033569,0.1943359,0.0107422c0.5203247,0.0697021,1.0015869,0.3138428,1.3652344,0.6923828c0.378418,0.3641968,0.6224976,0.8457031,0.6923828,1.3662109C7.0806885,15.9713135,6.9556274,16.3803101,6.6777344,16.6777344z M21.2255859,20.5703125c-0.3614502-1.413269-1.4673462-2.5153809-2.8818359-2.8720703c-0.609375-0.1688232-1.1643066-0.4932251-1.6103516-0.9414062c-0.4452515-0.4448242-0.7658081-0.9987793-0.9296875-1.6064453c-0.3856201-1.4077759-1.4856567-2.5074463-2.8935547-2.8925781c-1.2371216-0.336731-2.2033081-1.3036499-2.5390625-2.5410156C10.1771851,8.9973755,9.7817383,8.3560791,9.2479248,7.843811c0.5249023-1.2416382,0.1673584-2.883606-1.0203857-4.0713501c-1.4863281-1.4853516-3.6953125-1.6972656-4.9238281-0.46875s-1.0175781,3.4375,0.46875,4.9238281c0.7595215,0.7860718,1.7978516,1.2417603,2.890625,1.2685547c0.7575684,0.0169678,1.4902344-0.2712402,2.0332031-0.7998047c0.0010986-0.0010986,0.0016479-0.0024414,0.0027466-0.00354c0.3340454,0.3633423,0.5776367,0.8035278,0.7072144,1.28479c0.4279785,1.5805664,1.6619873,2.8157349,3.2421875,3.2451172c1.0650024,0.2908325,1.8972168,1.1226196,2.1884766,2.1875c0.4312744,1.5797729,1.6629028,2.8154907,3.2412109,3.2519531c1.0789185,0.2712402,1.9205933,1.1148071,2.1894531,2.1943359c0.0341797,0.1260986,0.0792847,0.2489014,0.1347656,0.3671875c0.0849609,0.1691895,0.2579346,0.276062,0.4472656,0.2763672c0.0776367,0,0.1542358-0.0180664,0.2236938-0.0527954c0.2470093-0.1235352,0.3471069-0.4238892,0.2235718-0.6708374C21.2671509,20.7098999,21.2432861,20.6409302,21.2255859,20.5703125z M8.2462158,7.6535645C8.2453613,7.6546631,8.2440186,7.6551514,8.2431641,7.65625s-0.0009155,0.0025635-0.00177,0.0036621C8.1711426,7.7782593,8.0887451,7.8896484,7.9892578,7.9892578c-0.8388672,0.8349609-2.4130859,0.6279297-3.5097656-0.46875s-1.3066406-2.6708984-0.46875-3.5097656c0.3565674-0.3426514,0.8357544-0.52771,1.3300781-0.5136719c0.8268433,0.0308228,1.6089478,0.3833618,2.1796875,0.9824219C8.484436,5.4434204,8.7618408,6.7753296,8.2462158,7.6535645z"/></svg>