<svg xmlns="http://www.w3.org/2000/svg" enable-background="new 0 0 24 24" viewBox="0 0 24 24"><path fill="#6563ff" d="M13.0009766,3c-3.8659668,0-7,3.1340332-7,7s3.1340332,7,7,7c2.7614746,0,5-2.2385864,5-5s-2.2385254-5-5-5c-1.6568604,0-3,1.3431396-3,3s1.3431396,3,3,3c0.2761841,0,0.5-0.223877,0.5-0.5s-0.2238159-0.5-0.5-0.5c-1.1045532,0-2-0.8954468-2-2s0.8954468-2,2-2c2.2091675,0,4,1.7908325,4,4s-1.7908325,4-4,4c-3.3136597,0-6-2.6862793-6-6s2.6863403-6,6-6c4.4182739,0.0003052,7.9998169,3.5822144,7.9995117,8.0004883C21.0002441,16.4187622,17.4182739,20.0003052,13,20c-5.5201416-0.0064697-9.9935303-4.4798584-10-10c0-0.276123-0.223877-0.5-0.5-0.5S2,9.723877,2,10c0.006958,6.0726318,4.9283447,10.9935913,11.0009766,11c4.9705811,0,9-4.0294189,9-9S17.9715576,3,13.0009766,3z"/></svg>