<svg xmlns="http://www.w3.org/2000/svg" enable-background="new 0 0 24 24" viewBox="0 0 24 24"><path fill="#6563ff" d="M17.2773438,2H6.7226562C4.1154785,2.0026245,2.0026245,4.1154785,2,6.7226562v10.5546875C2.0026245,19.8845215,4.1154785,21.9973755,6.7226562,22h10.5546875C19.8845215,21.9973755,21.9973755,19.8845215,22,17.2773438V6.7226562C21.9973755,4.1154785,19.8845215,2.0026245,17.2773438,2z M21,17.2773438C20.9977417,19.3323364,19.3323364,20.9977417,17.2773438,21H6.7226562C4.6676636,20.9977417,3.0022583,19.3323364,3,17.2773438V6.7226562C3.0022583,4.6676636,4.6676636,3.0022583,6.7226562,3h10.5546875C19.3323364,3.0022583,20.9977417,4.6676636,21,6.7226562V17.2773438z"/></svg>