<svg xmlns="http://www.w3.org/2000/svg" enable-background="new 0 0 24 24" viewBox="0 0 24 24"><path fill="#6563ff" d="M10.2246094,10.3535156c0-0.000061,0.000061-0.000061,0.0001221-0.0001221c0.1951294-0.1952515,0.1950684-0.5117188-0.0001221-0.7068481l-1.5-1.5c-0.194397-0.1904907-0.5054932-0.1904907-0.6998901,0C7.8275146,8.3397827,7.8243408,8.656311,8.0175781,8.8535156L9.1640625,10l-1.1464844,1.1464844c-0.09375,0.09375-0.1463623,0.2208862-0.1464233,0.3534546c0,0.276123,0.2238159,0.5,0.499939,0.500061c0.1326294,0.0001221,0.2598267-0.0525513,0.3535156-0.1464844L10.2246094,10.3535156z M15,14.5H9c-0.276123,0-0.5,0.223877-0.5,0.5s0.223877,0.5,0.5,0.5h6c0.276123,0,0.5-0.223877,0.5-0.5S15.276123,14.5,15,14.5z M12,2C6.4771729,2,2,6.4771729,2,12s4.4771729,10,10,10c5.5201416-0.0064697,9.9935303-4.4798584,10-10C22,6.4771729,17.5228271,2,12,2z M12,21c-4.9705811,0-9-4.0294189-9-9s4.0294189-9,9-9c4.9683228,0.0054321,8.9945679,4.0316772,9,9C21,16.9705811,16.9705811,21,12,21z M16.2316895,8.8463745c0.1932983-0.1971436,0.1900635-0.5136719-0.0070801-0.7069702c-0.1972046-0.1932373-0.5137329-0.1900635-0.7070312,0.0071411l-1.5,1.5c-0.000061,0-0.000061,0.000061-0.0001221,0.0001221c-0.1951904,0.1951904-0.1951294,0.5117188,0.0001221,0.7068481l1.5,1.5C15.6112061,11.9474487,15.7384644,12.0001831,15.8710938,12c0.1325684,0,0.2597046-0.0526733,0.3534546-0.1464233c0.1952515-0.1952515,0.1953125-0.5118408,0.000061-0.7070923L15.078125,10l1.1464844-1.1464844C16.2269897,8.8511963,16.2293701,8.8488159,16.2316895,8.8463745z"/></svg>