<svg xmlns="http://www.w3.org/2000/svg" enable-background="new 0 0 24 24" viewBox="0 0 24 24"><path fill="#6563ff" d="M12,2C6.4771729,2,2,6.4771729,2,12s4.4771729,10,10,10c5.5201416-0.0064697,9.9935303-4.4798584,10-10C22,6.4771729,17.5228271,2,12,2z M12,21c-4.9705811,0-9-4.0294189-9-9s4.0294189-9,9-9c4.9683228,0.0054321,8.9945679,4.0316772,9,9C21,16.9705811,16.9705811,21,12,21z M15.6680298,7.2177734c-0.5054932-0.2935181-1.130249-0.2905273-1.6328735,0.0078125L8.5,10.4624634V7.5C8.5,7.223877,8.276123,7,8,7S7.5,7.223877,7.5,7.5v9c0,0.0001831,0,0.0003662,0,0.0005493C7.5001831,16.7765503,7.723999,17.0001831,8,17c0.0001831,0,0.0003662,0,0.0006104,0C8.2765503,16.9998169,8.5001831,16.776001,8.5,16.5v-2.9630127l5.5341797,3.2374268C14.2839355,16.9217529,14.5684204,17,14.8583984,17.0009766c0.9110107-0.006958,1.6448975-0.7491455,1.6416016-1.6601562V8.6591797C16.505249,8.0632324,16.1867065,7.5113525,15.6680298,7.2177734z M15.5,15.3408203c0.0025024,0.2369385-0.1234131,0.456604-0.3291016,0.5742188c-0.1954956,0.1142578-0.4377441,0.1127319-0.6318359-0.0039062L8.828125,12.5703125c-0.0984497-0.057312-0.180481-0.1391602-0.2379761-0.2375488c-0.1838989-0.3148193-0.0778198-0.7191162,0.2369995-0.9030762l5.7128906-3.3408203c0.1934814-0.1174316,0.4359131-0.1189575,0.6308594-0.0039062C15.3765869,8.2025757,15.5025024,8.4222412,15.5,8.6591797V15.3408203z"/></svg>