<svg xmlns="http://www.w3.org/2000/svg" enable-background="new 0 0 24 24" viewBox="0 0 24 24"><path fill="#6563ff" d="M21.4938965,4.7609253C20.4927368,3.107605,18.3408203,2.5789185,16.6875,3.5800781L7.7284546,9.0058594C7.4558716,9.1710815,7.2167358,9.3796387,7,9.6102905V5.5C7,4.1192627,5.8807373,3,4.5,3S2,4.1192627,2,5.5v13c0.0012817,1.380188,1.119812,2.4987183,2.5,2.5c1.380188-0.0012817,2.4987183-1.119812,2.5-2.5v-4.1151733c0.213501,0.2277222,0.4484253,0.4395752,0.7284546,0.609314L16.6875,20.4199219c0.5452881,0.3339844,1.1720581,0.5113525,1.8115234,0.5126953c0.6027222-0.0016479,1.1947632-0.1591187,1.71875-0.4570312C21.3251953,19.8617554,22.0087891,18.6919556,22,17.4257812V6.5742188C22.0001221,5.9348755,21.8250732,5.3078003,21.4938965,4.7609253z M6,18.5C6,19.3284302,5.3284302,20,4.5,20S3,19.3284302,3,18.5v-13C3.0009155,4.671936,3.671936,4.0009155,4.5,4C5.328064,4.0009155,5.9990845,4.671936,6,5.5V18.5z M21,17.4257812c0.0002441,0.4572144-0.125,0.9057007-0.3619385,1.2966919c-0.7155151,1.180481-2.2525024,1.5574341-3.4329834,0.84198l-8.9590454-5.4257812c-0.3440552-0.2086792-0.6326904-0.4973145-0.8413696-0.8414307c-0.7164917-1.1811523-0.3397827-2.7194824,0.8413696-3.4359131l8.9590454-5.4257812c0.3895874-0.2382812,0.8372192-0.3649902,1.2939453-0.3662109c0.4307861,0.0009155,0.8540039,0.1132812,1.2285156,0.3261719C20.5183105,4.8342896,21.0062866,5.6699219,21,6.5742188V17.4257812z"/></svg>