<svg xmlns="http://www.w3.org/2000/svg" enable-background="new 0 0 24 24" viewBox="0 0 24 24"><path fill="#6563ff" d="M21.5,3C21.223877,3,21,3.223877,21,3.5v17c0,0.0001831,0,0.0003662,0,0.0005493C21.0001831,20.7765503,21.223999,21.0001831,21.5,21c0.0001831,0,0.0003662,0,0.0006104,0C21.7765503,20.9998169,22.0001831,20.776001,22,20.5v-17C22,3.223877,21.776123,3,21.5,3z M16.4404297,3.2773438c-0.9160767-0.5264893-2.0463867-0.5115356-2.9482422,0.0390625l-10,6.0039062C3.078064,9.5768433,2.7290649,9.9258423,2.4725342,10.3399658c-0.9168091,1.4799805-0.4602661,3.4229126,1.0196533,4.3397217l10,6.0039062C13.9469604,20.9592896,14.4682007,21.105835,15,21.1074219c0.5053711-0.0012207,1.00177-0.1337891,1.4404297-0.3847656c0.9770508-0.5537109,1.5748291-1.5957642,1.5595703-2.71875V5.9960938C18.0152588,4.8731079,17.4174805,3.8310547,16.4404297,3.2773438z M17,18.0039062c0.0128784,0.7619629-0.3901978,1.4703979-1.0517578,1.8486328c-0.6030884,0.3463135-1.3469849,0.3362427-1.9404297-0.0263672l-10-6.0039062c-0.2744751-0.1722412-0.5064697-0.4042358-0.6787109-0.6787109c-0.6315918-1.0064087-0.3276978-2.3342285,0.6787109-2.9658203l10-6.0039062c0.5934448-0.3626099,1.3373413-0.3726807,1.9404297-0.0263672C16.6098022,4.5256958,17.0128784,5.2341309,17,5.9960938V18.0039062z"/></svg>