<svg xmlns="http://www.w3.org/2000/svg" enable-background="new 0 0 24 24" viewBox="0 0 24 24"><path fill="#6563ff" d="M15.5,8H8.4994507C8.2234497,8.0001831,7.9998169,8.223999,8,8.5v7.0005493C8.0001831,15.7765503,8.223999,16.0001831,8.5,16h7.0006104C15.7765503,15.9998169,16.0001831,15.776001,16,15.5V8.4993896C15.9998169,8.2234497,15.776001,7.9998169,15.5,8z M15,15H9V9h6V15z M12,2C6.4771729,2,2,6.4771729,2,12s4.4771729,10,10,10c5.5202026-0.0062866,9.9937134-4.4797974,10-10C22,6.4771729,17.5228271,2,12,2z M12,21c-4.9705811,0-9-4.0294189-9-9s4.0294189-9,9-9c4.9682617,0.0056152,8.9943848,4.0317383,9,9C21,16.9705811,16.9705811,21,12,21z"/></svg>