<svg xmlns="http://www.w3.org/2000/svg" enable-background="new 0 0 24 24" viewBox="0 0 24 24"><path fill="#6563ff" d="M9.4453125,7.4833984C10.2583008,7.1610718,11.1254272,6.9970093,12,7c3.8632812,0.0065308,6.9934692,3.1367188,7,7c0.0029907,0.8745728-0.1610718,1.7416992-0.4833984,2.5546875c-0.0232544,0.0585327-0.0353394,0.1209106-0.0354614,0.1838989c-0.0006714,0.2763672,0.2229004,0.5009766,0.4993286,0.5016479c0.2043457-0.0001221,0.3880615-0.1246948,0.4638672-0.3144531C19.8149414,15.9950562,20.0036011,15.0018311,20,14c-0.0030518-2.027832-0.7653809-3.8733521-2.0100708-5.28302l1.3635254-1.3635254c0.1871948-0.1937256,0.1871948-0.5009155,0-0.6947021c-0.1918335-0.1986084-0.5083618-0.2041016-0.7069702-0.0122681L17.282959,8.0100098C15.873291,6.7653809,14.027771,6.0030518,12,6c-1.0018311-0.0036011-1.9950562,0.1850586-2.9257812,0.5556641c-0.2561646,0.102478-0.3807983,0.3932495-0.2783203,0.6494141S9.1891479,7.5858765,9.4453125,7.4833984z M10,4h4c0.276123,0,0.5-0.223877,0.5-0.5S14.276123,3,14,3h-4C9.723877,3,9.5,3.223877,9.5,3.5S9.723877,4,10,4z M13.3496094,14.6427002C13.4430542,14.4472046,13.4997559,14.2310181,13.5,14c0-0.2311401-0.0565796-0.4475098-0.1499634-0.6430664l1.4780273-1.4780273c0.1904907-0.194397,0.1904907-0.5054321,0-0.6998291c-0.1932373-0.1972046-0.5097656-0.2004395-0.7070312-0.0071411l-1.4780273,1.4780273C12.4474487,12.5565796,12.2311401,12.5,12,12.5c-0.2312012,0-0.4475098,0.0566406-0.6430664,0.1500244l-6.503479-6.503479c-0.1937256-0.1871338-0.5009155-0.1871338-0.6947021,0C3.960144,6.3383789,3.9546509,6.6549072,4.1464844,6.8535156L6.010376,8.7174072C4.722229,10.175354,3.9987793,12.0531006,4,14.0100098C4.0027466,18.4255371,7.5844727,22.0027466,12,22c1.9547119,0.0045776,3.8305054-0.7192993,5.2834473-2.0095215l1.8630371,1.8630371C19.2401123,21.9474487,19.3673706,22.0001831,19.5,22c0.1325073-0.000061,0.2595825-0.0526733,0.3533325-0.1463623c0.1953125-0.1952515,0.1953735-0.5118408,0.0001221-0.7070923L13.3496094,14.6427002z M7.0537109,18.946228c-2.6124268-2.6123657-2.7198486-6.7731323-0.3356934-9.5211792l3.9319458,3.9319458C10.5565796,13.5525513,10.5,13.7688599,10.5,14c0,0.8284302,0.6715698,1.5,1.5,1.5c0.2310181-0.0002441,0.4471436-0.0570068,0.6425781-0.1503906l3.932312,3.932312C13.8268433,21.6660767,9.6660767,21.5586548,7.0537109,18.946228z"/></svg>