<svg xmlns="http://www.w3.org/2000/svg" enable-background="new 0 0 24 24" viewBox="0 0 24 24"><path fill="#6563ff" d="M21.4758301,8.3803711c-0.0054321-0.0219727-0.0033569-0.0443115-0.0119629-0.065918l-0.0026855-0.0067749c-0.0005493-0.0013428-0.0010376-0.0026245-0.0016479-0.0040283l-1.9956665-4.9891968C19.3884277,3.1243896,19.2044678,2.9996948,19,3H5C4.7955322,2.9996948,4.6115723,3.1243896,4.5361328,3.3144531L2.5404663,8.3036499C2.539856,8.3050537,2.5393677,8.3063354,2.5388184,8.3076782L2.5361328,8.3144531C2.5267334,8.3380127,2.5286865,8.3622437,2.5230103,8.3861694C2.5139771,8.4237671,2.5,8.4596558,2.5,8.5c0,0.0025635,0.0007324,0.0048828,0.0007324,0.0074463c0.000061,0.0025635,0.0007324,0.0048828,0.0007935,0.0074463C2.5080566,9.6954346,3.0999756,10.734375,4,11.364502V21.5c0,0.0001831,0,0.0003662,0,0.0005493C4.0001831,21.7765503,4.223999,22.0001831,4.5,22h10h0.0006104H19.5c0.0001831,0,0.0003662,0,0.0006104,0C19.7765503,21.9998169,20.0001831,21.776001,20,21.5V11.364502c0.9003906-0.6303711,1.4924927-1.6697998,1.4985962-2.8509521c0-0.001709,0.0005493-0.0032959,0.0005493-0.0050049C21.4991455,8.5056152,21.5,8.5029297,21.5,8.5C21.5,8.4575806,21.4857788,8.4197388,21.4758301,8.3803711z M14,21h-4v-6h4V21z M19,21h-4v-6.5c0-0.0001831,0-0.0003662,0-0.0006104C14.9998169,14.2234497,14.776001,13.9998169,14.5,14h-5c-0.0001831,0-0.0003662,0-0.0005493,0C9.2234497,14.0001831,8.9998169,14.223999,9,14.5V21H5v-9.1636353C5.3188477,11.932312,5.6500244,11.9995728,6,12c1.2815552-0.0015259,2.3901978-0.6984253,3-1.7263794C9.6098022,11.3015747,10.7184448,11.9984741,12,12c1.2815552-0.0015259,2.3901978-0.6984253,3-1.7263794C15.6098022,11.3015747,16.7184448,11.9984741,18,12c0.3499756-0.0004272,0.6811523-0.067688,1-0.1636353V21z M18,11c-1.3807373,0-2.5-1.1192627-2.5-2.5C15.5,8.223877,15.276123,8,15,8s-0.5,0.223877-0.5,0.5c0,1.3807373-1.1192627,2.5-2.5,2.5S9.5,9.8807373,9.5,8.5C9.5,8.223877,9.276123,8,9,8S8.5,8.223877,8.5,8.5C8.5,9.8807373,7.3807373,11,6,11c-1.3546753,0-2.4511719-1.0792236-2.4923096-2.4238892L5.3388672,4h13.3222656l1.8311768,4.5761108C20.4511719,9.9207764,19.3546753,11,18,11z"/></svg>