<svg xmlns="http://www.w3.org/2000/svg" enable-background="new 0 0 24 24" viewBox="0 0 24 24"><path fill="#6563ff" d="M22,2H1.9993896C1.7234497,2.0001831,1.4998169,2.223999,1.5,2.5v4c0.0009766,1.0394897,0.6361694,1.9294434,1.5390625,2.3065796C3.0140381,8.8660889,3,8.9313965,3,9v12.5005493C3.0001831,21.7765503,3.223999,22.0001831,3.5,22h17.0006104C20.7765503,21.9998169,21.0001831,21.776001,21,21.5V9c0-0.0686035-0.0140381-0.1339111-0.0390625-0.1934204C21.8638306,8.4294434,22.4990234,7.5394897,22.5,6.5V2.4993896C22.4998169,2.2234497,22.276001,1.9998169,22,2z M14.5,3h3v3.5C17.5,7.3284302,16.8284302,8,16,8s-1.5-0.6715698-1.5-1.5V3z M10.5,3h3v3.5C13.5,7.3284302,12.8284302,8,12,8s-1.5-0.6715698-1.5-1.5V3z M6.5,3h3v3.5C9.5,7.3284302,8.8284302,8,8,8S6.5,7.3284302,6.5,6.5V3z M2.5,6.5V3h3v3.5C5.5,7.3284302,4.8284302,8,4,8S2.5,7.3284302,2.5,6.5z M15,21H9v-5c0-1.6568604,1.3431396-3,3-3s3,1.3431396,3,3V21z M20,21h-4v-5c0-2.2091675-1.7908325-4-4-4s-4,1.7908325-4,4v5H4V9c0.8217163-0.0007935,1.5443726-0.4028931,2-1.0151367C6.4556274,8.5971069,7.1782837,8.9992065,8,9c0.8217163-0.0007935,1.5443726-0.4028931,2-1.0151367C10.4556274,8.5971069,11.1782837,8.9992065,12,9c0.8217163-0.0007935,1.5443726-0.4028931,2-1.0151367C14.4556274,8.5971069,15.1782837,8.9992065,16,9c0.8217163-0.0007935,1.5443726-0.4028931,2-1.0151367C18.4556274,8.5971069,19.1782837,8.9992065,20,9V21z M21.5,6.5C21.5,7.3284302,20.8284302,8,20,8s-1.5-0.6715698-1.5-1.5V3h3V6.5z"/></svg>