<svg xmlns="http://www.w3.org/2000/svg" enable-background="new 0 0 24 24" viewBox="0 0 24 24"><path fill="#6563ff" d="M12,11.5c-0.8,0-1.5,0.7-1.5,1.5s0.7,1.5,1.5,1.5c0.8,0,1.5-0.7,1.5-1.5C13.5,12.2,12.8,11.5,12,11.5z M12,13.5c-0.3,0-0.5-0.2-0.5-0.5s0.2-0.5,0.5-0.5c0.3,0,0.5,0.2,0.5,0.5C12.5,13.3,12.3,13.5,12,13.5z M12,2C6.5,2,2,6.5,2,12s4.5,10,10,10c5.5,0,10-4.5,10-10C22,6.5,17.5,2,12,2z M12,3c3.9,0,7.2,2.5,8.5,6h-17C4.8,5.5,8.1,3,12,3z M3,12c0-0.7,0.1-1.4,0.2-2H6v4H3.2C3.1,13.4,3,12.7,3,12z M9,20.5c-2.6-0.9-4.6-2.9-5.5-5.5h3C7.9,15,9,16.1,9,17.5V20.5z M14,20.8c-0.6,0.1-1.3,0.2-2,0.2s-1.4-0.1-2-0.2v-3.3h4V20.8z M14,16.5h-4c-0.1,0-0.1,0-0.2,0c-0.4-1.3-1.5-2.3-2.8-2.5V10h10v4.1c-1.4,0.2-2.5,1.2-2.8,2.5C14.1,16.5,14.1,16.5,14,16.5z M15,20.5v-3c0-1.4,1.1-2.5,2.5-2.5h3C19.6,17.6,17.6,19.6,15,20.5z M18,14v-4h2.8c0.1,0.6,0.2,1.3,0.2,2c0,0.7-0.1,1.4-0.2,2H18z"/></svg>