<svg xmlns="http://www.w3.org/2000/svg" enable-background="new 0 0 24 24" viewBox="0 0 24 24"><path fill="#6563ff" d="M17.5,5h4C21.776123,5,22,4.776123,22,4.5S21.776123,4,21.5,4h-4C17.223877,4,17,4.223877,17,4.5S17.223877,5,17.5,5z M21.5,7H2.4993896C2.2234497,7.0001831,1.9998169,7.223999,2,7.5v4.0005493C2.0001831,11.7765503,2.223999,12.0001831,2.5,12h2.1716919l6.1050415,3.0551758L6.597229,17.1467285C6.1519775,16.4581299,5.3810425,16,4.5,16C3.1192627,16,2,17.1192627,2,18.5S3.1192627,21,4.5,21c1.380188-0.0012817,2.4987183-1.119812,2.5-2.5c0-0.142334-0.019043-0.2796631-0.0418701-0.4154663l0.0521851-0.026123c0.0010376-0.0004883,0.0022583-0.0003052,0.0032959-0.0007935l4.8814087-2.4428101l4.8813477,2.4428101c0.0010376,0.0004883,0.0022583,0.0003052,0.0032959,0.0007935l0.2521362,0.1261597C17.0184937,18.2890015,17,18.3919678,17,18.5c0,1.3807373,1.1192627,2.5,2.5,2.5c1.380188-0.0012817,2.4987183-1.119812,2.5-2.5c0-1.3807373-1.1192627-2.5-2.5-2.5c-0.9146729,0-1.7062988,0.4963989-2.1420898,1.2293701l-4.3446655-2.1741943L19.1182861,12h2.3823242C21.7765503,11.9998169,22.0001831,11.776001,22,11.5V7.4993896C21.9998169,7.2234497,21.776001,6.9998169,21.5,7z M4.5,20C3.6715698,20,3,19.3284302,3,18.5S3.6715698,17,4.5,17c0.828064,0.0009155,1.4990845,0.671936,1.5,1.5C6,19.3284302,5.3284302,20,4.5,20z M19.5,17c0.828064,0.0009155,1.4990845,0.671936,1.5,1.5c0,0.8284302-0.6715698,1.5-1.5,1.5S18,19.3284302,18,18.5S18.6715698,17,19.5,17z M16.7801514,12.0516968c-0.0012207,0.0006104-0.0025635,0.0004272-0.0037842,0.0010376l-4.8813477,2.4428101l-4.8814087-2.4428101c-0.0012207-0.0006104-0.0025024-0.0004272-0.0037231-0.0010376L6.9065552,12h9.9769287L16.7801514,12.0516968z M21,11H3V8h18V11z"/></svg>