<svg xmlns="http://www.w3.org/2000/svg" enable-background="new 0 0 24 24" viewBox="0 0 24 24"><path fill="#6563ff" d="M15.8095703,16.460022C15.8688354,16.4885864,15.9342041,16.5023193,16,16.5c0.0654907,0.0023193,0.1304932-0.0114136,0.1894531-0.039978c0.0612183-0.0238647,0.1160889-0.0616455,0.1601562-0.1103516c0.0061035-0.0057983,0.0120239-0.0117188,0.0178223-0.0178223c0.1834717-0.1933594,0.1755371-0.4988403-0.0178223-0.682373c-0.1949463-0.1894531-0.505249-0.1894531-0.7001953,0c-0.0050049,0.0047607-0.0098877,0.0096436-0.0146484,0.0145874c-0.1852417,0.1933594-0.1787109,0.5003052,0.0146484,0.6856079C15.6918335,16.4002686,15.7471924,16.4384155,15.8095703,16.460022z M18.3828125,2h-0.0449219H5.6621094H5.6171875C4.1723633,2.0014648,3.0014648,3.1723633,3,4.6171875v0.0449219V13.5v0.0005493v3.8822632c0.0010986,1.057373,0.6315918,1.9628296,1.5343628,2.3757935l-1.3878784,1.3878784c-0.09375,0.09375-0.1464233,0.2208862-0.1464233,0.3534546C3,21.776062,3.223877,21.999939,3.5,22c0.1326294,0.0001221,0.2598267-0.0526123,0.3534546-0.1465454L5.7069092,20h12.5860596l1.8535156,1.8535156C20.2401123,21.9474487,20.3673706,22.0001831,20.5,22c0.1325073-0.000061,0.2595825-0.0526733,0.3533325-0.1463623c0.1953125-0.1952515,0.1953735-0.5118408,0.0001221-0.7070923l-1.3879395-1.3879395C20.3682861,19.3457031,20.9989014,18.4402466,21,17.3828125V13.5V4.6621094V4.6171875C20.9985352,3.1723633,19.8276367,2.0014648,18.3828125,2z M4,7h7.5v6H4V7z M20,17.3828125C19.9989014,18.2755127,19.2755127,18.9989014,18.3828125,19H5.6171875C4.7244873,18.9989014,4.0010986,18.2755127,4,17.3828125V14h16V17.3828125z M20,13h-7.5V7H20V13z M20,6H4V4.6621094C4.0013428,3.7446899,4.744751,3.0013428,5.6621094,3h12.6757812C19.2553101,3.0013428,19.9986572,3.744751,20,4.6621094V6z M7.8095703,16.460022C7.8688354,16.4885864,7.9342041,16.5023193,8,16.5c0.0654907,0.0023193,0.1304932-0.0114136,0.1894531-0.0400391c0.0612183-0.0238647,0.1160889-0.0616455,0.1601562-0.1103516C8.4487915,16.2609253,8.5037842,16.1329956,8.5,16c-0.0032959-0.1318359-0.0571289-0.2573242-0.1504517-0.3505249c-0.0419922-0.0508423-0.0975342-0.0887451-0.1601562-0.109375c-0.1855469-0.0762329-0.3987427-0.0330811-0.539978,0.109375c-0.0050049,0.0047607-0.0098877,0.0096436-0.0146484,0.0145874c-0.1852417,0.1933594-0.1787109,0.5003052,0.0146484,0.6856079C7.6918335,16.4002686,7.7471924,16.4384155,7.8095703,16.460022z"/></svg>