<svg xmlns="http://www.w3.org/2000/svg" enable-background="new 0 0 24 24" viewBox="0 0 24 24"><path fill="#6563ff" d="M8,16.5h1c0.276123,0,0.5-0.223877,0.5-0.5S9.276123,15.5,9,15.5H8c-0.276123,0-0.5,0.223877-0.5,0.5S7.723877,16.5,8,16.5z M15,16.5h1c0.276123,0,0.5-0.223877,0.5-0.5s-0.223877-0.5-0.5-0.5h-1c-0.276123,0-0.5,0.223877-0.5,0.5S14.723877,16.5,15,16.5z M21,17V9c-0.0018311-1.6561279-1.3438721-2.9981689-3-3h-5.5V3h5C17.776123,3,18,2.776123,18,2.5S17.776123,2,17.5,2h-11C6.223877,2,6,2.223877,6,2.5S6.223877,3,6.5,3h5v3H6C4.3438721,6.0018311,3.0018311,7.3438721,3,9v8c0.0012817,1.1622314,0.6696167,2.1584473,1.6363525,2.6566162l-1.4898682,1.4898682c-0.09375,0.09375-0.1464233,0.2208862-0.1464233,0.3534546C3,21.776062,3.223877,21.999939,3.5,22c0.1326294,0.0001221,0.2598267-0.0526123,0.3534546-0.1465454l1.8805542-1.8805542C5.8230591,19.980957,5.9088745,19.9998779,6,20h12c0.0910645-0.0001221,0.1768799-0.019043,0.2658691-0.0270996l1.8806152,1.8806152C20.2401123,21.9474487,20.3673706,22.0001831,20.5,22c0.1325073-0.000061,0.2595825-0.0526733,0.3533325-0.1463623c0.1953125-0.1952515,0.1953735-0.5118408,0.0001221-0.7070923l-1.4898682-1.4898682C20.3303833,19.1585083,20.9987183,18.1622925,21,17z M4,9c0.0014038-1.1040039,0.8959961-1.9985962,2-2h5.5v5.5H4V9z M20,17c-0.0014038,1.1040039-0.8959961,1.9985962-2,2H6c-1.1040039-0.0014038-1.9985962-0.8959961-2-2v-3.5h16V17z M20,12.5h-7.5V7H18c1.1040039,0.0014038,1.9985962,0.8959961,2,2V12.5z"/></svg>