<svg xmlns="http://www.w3.org/2000/svg" enable-background="new 0 0 24 24" viewBox="0 0 24 24"><path fill="#6563ff" d="M19.5,6H16V4.5c-0.0009155-0.828064-0.671936-1.4990845-1.5-1.5h-5C8.671936,3.0009155,8.0009155,3.671936,8,4.5V6H4.5C3.119812,6.0012817,2.0012817,7.119812,2,8.5v10c0.0012817,1.380188,1.119812,2.4987183,2.5,2.5h15c1.380188-0.0012817,2.4987183-1.119812,2.5-2.5v-10C21.9987183,7.119812,20.880188,6.0012817,19.5,6z M9,4.5C9.0005493,4.2240601,9.2240601,4.0005493,9.5,4h5c0.2759399,0.0005493,0.4994507,0.2240601,0.5,0.5V6H9V4.5z M21,18.5c-0.0009155,0.828064-0.671936,1.4990845-1.5,1.5h-15c-0.828064-0.0009155-1.4990845-0.671936-1.5-1.5V12h5.5v1.5005493C8.5001831,13.7765503,8.723999,14.0001831,9,14h0.0006104C9.2765503,13.9998169,9.5001831,13.776001,9.5,13.5V12h5v1.5005493C14.5001831,13.7765503,14.723999,14.0001831,15,14h0.0006104c0.2759399-0.0001831,0.4995728-0.223999,0.4993896-0.5V12H21V18.5z M21,11H3V8.5C3.0009155,7.671936,3.671936,7.0009155,4.5,7h15c0.828064,0.0009155,1.4990845,0.671936,1.5,1.5V11z"/></svg>