<svg xmlns="http://www.w3.org/2000/svg" enable-background="new 0 0 24 24" viewBox="0 0 24 24"><path fill="#6563ff" d="M19.5,6H16V5c-0.0014038-1.1040039-0.8959961-1.9985962-2-2h-4C8.8959961,3.0014038,8.0014038,3.8959961,8,5v1H4.5C3.119812,6.0012817,2.0012817,7.119812,2,8.5v10c0.0012817,1.380188,1.119812,2.4987183,2.5,2.5h15c1.380188-0.0012817,2.4987183-1.119812,2.5-2.5v-10C21.9987183,7.119812,20.880188,6.0012817,19.5,6z M9,5c0.0003662-0.552124,0.447876-0.9996338,1-1h4c0.552124,0.0003662,0.9996338,0.447876,1,1v1H9V5z M21,18.5c-0.0009155,0.828064-0.671936,1.4990845-1.5,1.5h-15c-0.828064-0.0009155-1.4990845-0.671936-1.5-1.5V13h6v1.5c0,0.0001831,0,0.0003662,0,0.0005493C9.0001831,14.7765503,9.223999,15.0001831,9.5,15c0.0001831,0,0.0003662,0,0.0006104,0C9.7765503,14.9998169,10.0001831,14.776001,10,14.5V13h4v1.5c0,0.0001831,0,0.0003662,0,0.0005493C14.0001831,14.7765503,14.223999,15.0001831,14.5,15c0.0001831,0,0.0003662,0,0.0006104,0C14.7765503,14.9998169,15.0001831,14.776001,15,14.5V13h6V18.5z M21,12H3V8.5C3.0009155,7.671936,3.671936,7.0009155,4.5,7h4h7h0.0006104H19.5c0.828064,0.0009155,1.4990845,0.671936,1.5,1.5V12z"/></svg>