<svg xmlns="http://www.w3.org/2000/svg" enable-background="new 0 0 24 24" viewBox="0 0 24 24"><path fill="#6563ff" d="M6.3427734,16.9501953l-1.4140625,1.4140625c-0.09375,0.09375-0.1463623,0.2208862-0.1464233,0.3534546c0,0.276123,0.2238159,0.5,0.499939,0.500061c0.1326294,0.0001831,0.2598877-0.0525513,0.3535156-0.1464844l1.4140015-1.4140625c0.0024414-0.0023804,0.0047607-0.0047607,0.0071411-0.0071411c0.1932373-0.1971436,0.1900635-0.5137329-0.0071411-0.7069702C6.8526001,16.7498169,6.5360718,16.7529907,6.3427734,16.9501953z M6.3427734,7.0498047c0.0936279,0.0939331,0.2208862,0.1466675,0.3535156,0.1464844c0.1325684,0,0.2597046-0.0526733,0.3534546-0.1464233c0.1952515-0.1952515,0.1953125-0.5118408,0.000061-0.7070923L5.6356812,4.9287109c-0.1943359-0.1904907-0.5054321-0.1904907-0.6998291,0C4.7386475,5.1220093,4.7354736,5.4385376,4.9287109,5.6357422L6.3427734,7.0498047z M12,5h0.0006104C12.2765503,4.9998169,12.5001831,4.776001,12.5,4.5v-2C12.5,2.223877,12.276123,2,12,2s-0.5,0.223877-0.5,0.5v2.0006104C11.5001831,4.7765503,11.723999,5.0001831,12,5z M17.3037109,7.1962891c0.1326294,0.0001831,0.2598877-0.0525513,0.3535156-0.1464844l1.4140625-1.4141235c0.0023804-0.0023193,0.0047607-0.0046997,0.0070801-0.0070801c0.1932983-0.1972046,0.1900635-0.5137329-0.0070801-0.7070312c-0.1972046-0.1932373-0.5137329-0.1900635-0.7070312,0.0071411l-1.4140625,1.4140625c-0.09375,0.09375-0.1463623,0.2208862-0.1464233,0.3534546C16.803772,6.9723511,17.0275879,7.196228,17.3037109,7.1962891z M5,12c0-0.276123-0.223877-0.5-0.5-0.5h-2C2.223877,11.5,2,11.723877,2,12s0.223877,0.5,0.5,0.5h2C4.776123,12.5,5,12.276123,5,12z M17.6572266,16.9502563c-0.0023804-0.0023804-0.0046997-0.0047607-0.0070801-0.0070801c-0.1972046-0.1932983-0.5137329-0.1901245-0.7070312,0.0070801c-0.1932373,0.1971436-0.1901245,0.5136719,0.0070801,0.7069702l1.4140625,1.4140625c0.0936279,0.0939331,0.2208252,0.1466675,0.3534546,0.1464844c0.1325684,0,0.2597046-0.0526733,0.3534546-0.1463623c0.1953125-0.1952515,0.1953125-0.5118408,0.0001221-0.7070923L17.6572266,16.9502563z M12,19c-0.276123,0-0.5,0.223877-0.5,0.5v2.0005493C11.5001831,21.7765503,11.723999,22.0001831,12,22h0.0006104c0.2759399-0.0001831,0.4995728-0.223999,0.4993896-0.5v-2C12.5,19.223877,12.276123,19,12,19z M21.5,11.5h-2c-0.276123,0-0.5,0.223877-0.5,0.5s0.223877,0.5,0.5,0.5h2c0.276123,0,0.5-0.223877,0.5-0.5S21.776123,11.5,21.5,11.5z M12,6.5c-3.0375366,0-5.5,2.4624634-5.5,5.5s2.4624634,5.5,5.5,5.5c3.0360107-0.0037842,5.4962158-2.4639893,5.5-5.5C17.5,8.9624634,15.0375366,6.5,12,6.5z M12,16.5c-2.4852905,0-4.5-2.0147095-4.5-4.5S9.5147095,7.5,12,7.5c2.4841309,0.0026855,4.4973145,2.0158691,4.5,4.5C16.5,14.4852905,14.4852905,16.5,12,16.5z"/></svg>