<svg xmlns="http://www.w3.org/2000/svg" enable-background="new 0 0 24 24" viewBox="0 0 24 24"><path fill="#6563ff" d="M12,6h0.0006104C12.2765503,5.9998169,12.5001831,5.776001,12.5,5.5v-2C12.5,3.223877,12.276123,3,12,3s-0.5,0.223877-0.5,0.5v2.0006104C11.5001831,5.7765503,11.723999,6.0001831,12,6z M4.5,12.5h-2C2.223877,12.5,2,12.723877,2,13s0.223877,0.5,0.5,0.5h2C4.776123,13.5,5,13.276123,5,13S4.776123,12.5,4.5,12.5z M18.5,16h-1.8936768c1.3865967-2.1205444,1.1589966-4.9865112-0.6844482-6.8614502c-2.1296387-2.1660156-5.6118774-2.1954956-7.7778931-0.0658569C6.243042,10.9417114,5.9896851,13.8513794,7.3952026,16H5.5C5.223877,16,5,16.223877,5,16.5S5.223877,17,5.5,17h13c0.276123,0,0.5-0.223877,0.5-0.5S18.776123,16,18.5,16z M15.3496704,16H8.6504517c-1.5338745-1.7097168-1.5338745-4.300293,0-6.0100098c1.6596069-1.8499756,4.5046387-2.0042114,6.3546143-0.3446045C16.8549805,11.3049927,17.0092773,14.1500854,15.3496704,16z M17.3037109,8.1972656c0.1326294,0.0001831,0.2598877-0.0525513,0.3535156-0.1464844l1.4140625-1.4140625c0.0023804-0.0023804,0.0047607-0.0047607,0.0070801-0.0071411c0.1932983-0.1972046,0.1900635-0.5137329-0.0070801-0.7070312c-0.1972046-0.1932373-0.5137329-0.1900635-0.7070312,0.0071411L16.9501953,7.34375c-0.09375,0.09375-0.1463623,0.2208862-0.1464233,0.3534546C16.803772,7.9733276,17.0275879,8.1972046,17.3037109,8.1972656z M6.3427734,8.0507812c0.0936279,0.0939331,0.2208862,0.1466675,0.3535156,0.1464844c0.1325684,0,0.2597046-0.0526733,0.3534546-0.1464233C7.2449951,7.8555908,7.2450562,7.5390015,7.0498047,7.34375L5.6356812,5.9297485c-0.1943359-0.1905518-0.5054321-0.1905518-0.6998291,0C4.7386475,6.1229858,4.7354736,6.4395142,4.9287109,6.6367188L6.3427734,8.0507812z M21.5,12.5h-2c-0.276123,0-0.5,0.223877-0.5,0.5s0.223877,0.5,0.5,0.5h2c0.276123,0,0.5-0.223877,0.5-0.5S21.776123,12.5,21.5,12.5z M11.5,20h-4C7.223877,20,7,20.223877,7,20.5S7.223877,21,7.5,21h4c0.276123,0,0.5-0.223877,0.5-0.5S11.776123,20,11.5,20z M16.5,20h-2c-0.276123,0-0.5,0.223877-0.5,0.5s0.223877,0.5,0.5,0.5h2c0.276123,0,0.5-0.223877,0.5-0.5S16.776123,20,16.5,20z"/></svg>