<svg xmlns="http://www.w3.org/2000/svg" enable-background="new 0 0 24 24" viewBox="0 0 24 24"><path fill="#6563ff" d="M10.5,9c0-0.8284302-0.6715698-1.5-1.5-1.5S7.5,8.1715698,7.5,9s0.6715698,1.5,1.5,1.5C9.828064,10.4990845,10.4990845,9.828064,10.5,9z M8.5,9c0-0.276123,0.223877-0.5,0.5-0.5C9.276001,8.5003662,9.4996338,8.723999,9.5,9c0,0.276123-0.223877,0.5-0.5,0.5S8.5,9.276123,8.5,9z M15,7.5c-0.8284302,0-1.5,0.6715698-1.5,1.5s0.6715698,1.5,1.5,1.5c0.828064-0.0009155,1.4990845-0.671936,1.5-1.5C16.5,8.1715698,15.8284302,7.5,15,7.5z M15,9.5c-0.276123,0-0.5-0.223877-0.5-0.5s0.223877-0.5,0.5-0.5c0.2759399,0.0005493,0.4994507,0.2240601,0.5,0.5C15.5,9.276123,15.276123,9.5,15,9.5z M12,11c-1.8618164,0.0737305-3.314209,1.6378174-3.25,3.5C8.685791,16.3621826,10.1381836,17.9262695,12,18c1.8618164-0.0737305,3.314209-1.6378174,3.25-3.5C15.314209,12.6378174,13.8618164,11.0737305,12,11z M12,17c-1.3093872-0.0738525-2.3139648-1.1901245-2.25-2.5C9.6860352,13.1901245,10.6906128,12.0738525,12,12c1.3092651,0.0740356,2.3137817,1.1901855,2.25,2.5C14.3137817,15.8098145,13.3092651,16.9259644,12,17z M12,2C6.4771729,2,2,6.4771729,2,12s4.4771729,10,10,10c5.5202026-0.0062866,9.9937134-4.4797974,10-10C22,6.4771729,17.5228271,2,12,2z M12,21c-4.9705811,0-9-4.0294189-9-9s4.0294189-9,9-9c4.9682617,0.0056152,8.9943848,4.0317383,9,9C21,16.9705811,16.9705811,21,12,21z"/></svg>