<svg xmlns="http://www.w3.org/2000/svg" enable-background="new 0 0 24 24" viewBox="0 0 24 24"><path fill="#6563ff" d="M7,15.5c-0.8284302,0-1.5,0.6715698-1.5,1.5s0.6715698,1.5,1.5,1.5c0.828064-0.0009155,1.4990845-0.671936,1.5-1.5C8.5,16.1715698,7.8284302,15.5,7,15.5z M7,17.5c-0.276123,0-0.5-0.223877-0.5-0.5s0.223877-0.5,0.5-0.5c0.2759399,0.0005493,0.4994507,0.2240601,0.5,0.5C7.5,17.276123,7.276123,17.5,7,17.5z M19.0647583,12.0065918l1.2282715-1.2282715c1.1698608-1.1724854,1.1698608-3.0706787,0-4.2431641l-2.828125-2.828125c-1.1724854-1.1698608-3.0707397-1.1698608-4.2431641,0l-1.2283325,1.2283325C11.9563599,3.3098755,10.6339722,2.0018311,9,2H5C3.3438721,2.0018311,2.0018311,3.3438721,2,5v14c0.0018311,1.6561279,1.3438721,2.9981689,3,3h14c1.6561279-0.0018311,2.9981689-1.3438721,3-3v-4C21.9981689,13.3660278,20.6902466,12.0437012,19.0647583,12.0065918z M11,19c-0.0014038,1.1040039-0.8959961,1.9985962-2,2H5c-1.1040039-0.0014038-1.9985962-0.8959961-2-2V5c0.0014038-1.1040039,0.8959961-1.9985962,2-2h4c1.1040039,0.0014038,1.9985962,0.8959961,2,2V19z M12,6.3427734l1.9287109-1.9287109c0.7820435-0.7792969,2.0470581-0.7792969,2.8291016,0l2.828125,2.828125c0.7802734,0.7816162,0.7802734,2.0474854,0,2.8291016L12,17.6572266V6.3427734z M21,19c-0.0014038,1.1040039-0.8959961,1.9985962-2,2h-7.7803345c0.4623413-0.5128174,0.7516479-1.180603,0.7722168-1.9205322L18.0713501,13H19c1.1040039,0.0014038,1.9985962,0.8959961,2,2V19z"/></svg>