<svg xmlns="http://www.w3.org/2000/svg" enable-background="new 0 0 24 24" viewBox="0 0 24 24"><path fill="#6563ff" d="M16.5,10c1.1040039-0.0014038,1.9985962-0.8959961,2-2c0-1.1045532-0.8954468-2-2-2s-2,0.8954468-2,2S15.3954468,10,16.5,10z M16.5,7c0.552124,0.0003662,0.9996338,0.447876,1,1c0,0.5523071-0.4476929,1-1,1s-1-0.4476929-1-1S15.9476929,7,16.5,7z M20.8574829,17.4970703c-0.3170776,0.0934448-0.62146,0.225647-0.90625,0.3935547c-0.8044434,0.4653931-1.7979736,0.458313-2.5957031-0.0185547c-1.2554321-0.7067261-2.7888794-0.7063599-4.0440063,0.0009766c-0.8130493,0.4645386-1.8112793,0.4641724-2.6239624-0.0009766c-1.2553101-0.7053833-2.7874146-0.7058105-4.0430298-0.0009766c-0.7973022,0.4780884-1.7913208,0.4855957-2.5957031,0.0195312c-0.28479-0.1679077-0.5891724-0.3001099-0.90625-0.3935547c-0.2648315-0.0787354-0.543335,0.0720825-0.6220703,0.3369141s0.0720825,0.543335,0.3369141,0.6220703C3.0953979,18.5252686,3.3237305,18.6240234,3.5371094,18.75c0.5344849,0.3187256,1.1452637,0.4867554,1.7675781,0.4863281c0.6433105-0.003479,1.2746582-0.1740723,1.8320923-0.4951172c0.9475098-0.5316772,2.1032104-0.5327759,3.0517578-0.0029297c1.1209106,0.645813,2.5007935,0.6461792,3.6220703,0.0009766c0.9484863-0.531311,2.1052856-0.5302124,3.0527344,0.0029297c1.109375,0.656311,2.4874268,0.6593018,3.5996094,0.0078125c0.2133789-0.1259766,0.4417114-0.2247314,0.6796875-0.2939453c0.2648315-0.0787354,0.4156494-0.3572388,0.3369141-0.6220703S21.1223145,17.418335,20.8574829,17.4970703z M2.8574219,13.4559937C3.0953979,13.5252075,3.3237305,13.6239624,3.5371094,13.75c0.5344849,0.3187256,1.1452637,0.4867554,1.7675781,0.4863281c0.6433105-0.003479,1.2746582-0.1740723,1.8320923-0.4951172c0.9473877-0.5321655,2.1033325-0.5332642,3.0517578-0.0029297c1.1209106,0.645813,2.5007935,0.6462402,3.6220703,0.0010376c0.9484863-0.5313721,2.1052856-0.5302124,3.0527344,0.0029297c1.1094971,0.6557617,2.4872437,0.6587524,3.5996094,0.0078125c0.2133789-0.1260376,0.4417114-0.2247925,0.6796875-0.2940063c0.2648315-0.0787354,0.4156494-0.3572998,0.3369141-0.6220703c-0.0787354-0.2648315-0.3572388-0.4157104-0.6220703-0.3369751c-0.3170776,0.0935059-0.62146,0.225647-0.90625,0.3935547c-0.8043213,0.4658813-1.7980957,0.4588013-2.5957031-0.0185547c-1.2554321-0.7067261-2.7888794-0.7063599-4.0440063,0.0010376c-0.5640869,0.3222656-1.2154541,0.4055176-1.8339844,0.2803345l2.5147095-2.5147095c0.1896362-0.189209,0.196106-0.4943237,0.0146484-0.6914062l-3.0605469-3.3398438c-0.1360474-0.1497192-0.3493042-0.2018433-0.5390625-0.1318359L6.8272095,7.7763672C6.826416,7.7766724,6.8256836,7.7769165,6.8248901,7.7772217C6.5657349,7.8722534,6.4326172,8.1593628,6.5276489,8.4185791C6.6226807,8.6777344,6.90979,8.8108521,7.1690063,8.7158203l3.2665405-1.1865234l2.5107422,2.7412109l-2.4904175,2.4904175c-1.2093506-0.5835571-2.6310425-0.5523682-3.8113403,0.1101074c-0.7971191,0.4786377-1.7914429,0.486084-2.5957031,0.0195312c-0.28479-0.1679077-0.5891724-0.3000488-0.90625-0.3935547c-0.2644043-0.0751953-0.5405273,0.0744019-0.6220703,0.3369141C2.4422607,13.0986938,2.5928955,13.3768921,2.8574219,13.4559937z"/></svg>