<svg xmlns="http://www.w3.org/2000/svg" enable-background="new 0 0 24 24" viewBox="0 0 24 24"><path fill="#6563ff" d="M21.8535156,2.1414795c-0.1968994-0.1941528-0.513855-0.1918945-0.7080078,0.0050049L18.1757202,5.125l-1.0643921-1.0644531c-0.000061-0.000061-0.0001221-0.0001221-0.0001831-0.0001831c-0.1952515-0.1951294-0.5117188-0.1950684-0.7068481,0.0001831l-1.7684937,1.7677612l-1.0606689-1.0606689c-0.1983643-0.1875-0.508606-0.1875-0.7069702,0L4.171814,13.4649048l-1.3183594-1.3183594c-0.1937256-0.1871338-0.5009155-0.1871338-0.6947021,0c-0.1986084,0.1918335-0.2041016,0.5083618-0.0122681,0.7069702l1.671875,1.671875l2.4776611,2.4776611l-2.2296143,2.2332764c-0.0213013,0.0213623-0.0323486,0.0493774-0.0493164,0.0738525l-1.1636353-1.1636353c-0.1937256-0.1871948-0.5009155-0.1871948-0.6947021,0c-0.1986084,0.1918335-0.2041016,0.5083618-0.0122681,0.7069702l3,3C5.2401123,21.9474487,5.3673706,22.0001831,5.5,22c0.1325073-0.000061,0.2595825-0.0526733,0.3533325-0.1463623c0.1953125-0.1952515,0.1953735-0.5118408,0.0001221-0.7070923L4.699646,19.9927368c0.0244751-0.0169678,0.0524902-0.0280151,0.0737915-0.0493774l2.2296143-2.2332764l2.4715576,2.4715576l1.671875,1.671875C11.2401123,21.9474487,11.3673706,22.0001831,11.5,22c0.1325073-0.000061,0.2595825-0.0526733,0.3533325-0.1463623c0.1953125-0.1952515,0.1953735-0.5118408,0.0001221-0.7070923l-1.3183594-1.3183594l8.6972656-8.6963501c0.000061-0.000061,0.0001221-0.0001221,0.0001831-0.0001831c0.1951294-0.1951904,0.1950684-0.5116577-0.0001831-0.7068481l-1.0606079-1.0606079l1.7676392-1.7685547c0.000061-0.000061,0.0001221-0.000061,0.0001831-0.0001221c0.1951294-0.1952515,0.1950684-0.5117188-0.0001831-0.7068481L18.883728,5.8330078l2.9707642-2.9795532c0.0013428-0.0012817,0.0026855-0.0026245,0.0040283-0.0039673C22.0526123,2.6525879,22.050415,2.3355713,21.8535156,2.1414795z M7.0025024,16.2954712L4.8789062,14.171875l2.6863403-2.6867065l2.121582,2.121582L7.0025024,16.2954712z M9.828125,19.1210938l-2.1186523-2.1186523l2.6843262-2.6887207l2.1210327,2.1210327L9.828125,19.1210938z M18.171875,10.7783203l-4.9500732,4.9494629l-4.949585-4.949585l4.9494629-4.9500732L18.171875,10.7783203z M17.4647217,8.6571655l-2.1218872-2.1218872l1.414978-1.4141846l2.1210938,2.1210938L17.4647217,8.6571655z"/></svg>