<svg xmlns="http://www.w3.org/2000/svg" enable-background="new 0 0 24 24" viewBox="0 0 24 24"><path fill="#6563ff" d="M20.5351562,3.4648438C19.59729,2.5267334,18.3250122,1.9998169,16.9985352,2c-2.7614746,0.0004272-4.9996948,2.2393188-4.9992676,5.0007324S14.2385864,12.0004272,17,12c1.3256226-0.0001831,2.5969238-0.5267944,3.5344238-1.4641113C22.4872437,8.5834961,22.4875488,5.4176636,20.5351562,3.4648438z M13,6.9991455C13.0002441,4.7902222,14.7910767,2.9997559,17,3c0.8922729-0.0024414,1.7438965,0.3103027,2.4404297,0.8525391l-5.5870972,5.5870972C13.3126831,8.7420654,12.9998779,7.8911133,13,6.9991455z M19.828125,9.828125c-1.4584961,1.3933716-3.680603,1.4858398-5.2600708,0.31073l5.5779419-5.5779419C21.3640137,6.1297607,21.2694702,8.3875732,19.828125,9.828125z M7.9969482,9.9969482c-3.3145752,0.0007935-6.0008545,2.6884766-6,6.0030518C1.9977417,19.3145752,4.6854248,22.0008545,8,22c1.5921631,0.0044556,3.119812-0.62854,4.2421875-1.7578125C13.368103,19.116333,14.0004272,17.5891724,14,15.9969482C13.9991455,12.682373,11.3114624,9.9960938,7.9969482,9.9969482z M7.9985352,21c-2.7614746-0.0004272-4.9996948-2.2393188-4.9992676-5.0007324c0.0001831-1.2012329,0.4414062-2.2885742,1.147522-3.1505737c0.0040283,0.0044556,0.005249,0.0102539,0.0094604,0.0145874l6.9904785,6.9904785C10.2579956,20.5791016,9.1558838,21.0001831,7.9985352,21z M11.8513184,19.1480103c-0.0032349-0.0033569-0.0042114-0.0079346-0.0075684-0.0112305L4.8632202,12.156311c-0.0042725-0.0042114-0.0100708-0.0054321-0.0144653-0.0094604C5.7109985,11.4407959,6.798584,10.9998169,8,11c1.3256226,0.0001831,2.5969238,0.5267944,3.5344238,1.4641113C13.3667603,14.2960815,13.4572144,17.1838989,11.8513184,19.1480103z"/></svg>