<svg xmlns="http://www.w3.org/2000/svg" enable-background="new 0 0 24 24" viewBox="0 0 24 24"><path fill="#6563ff" d="M20.5,17l-1.6-1.6c-0.4-0.4-0.5-1-0.4-1.5l0.6-1.8c0.5-1.6,0.1-3.4-1.1-4.6L15.6,5c-1.4-1.4-3.3-2.2-5.3-2.2h0c-1.3,0-2.6,0.3-3.7,1c-3.5,2-4.8,6.3-3,9.8c-0.7,0.5-1.2,1.4-1.2,2.4c0,1.7,1.3,3,3,3c0.8,0,1.6-0.3,2.1-0.9l0,0c1.2,1.2,3,1.6,4.6,1.1l1.8-0.6c0.5-0.2,1.1,0,1.5,0.4l1.6,1.6c0.5,0.5,1.1,0.7,1.8,0.7h0c0.7,0,1.3-0.3,1.8-0.7C21.5,19.5,21.5,18,20.5,17z M5.3,17.9c-1.1,0-2-0.9-2-2s0.9-2,2-2v0c0.5,0,1,0.2,1.4,0.6c0.4,0.4,0.6,0.9,0.6,1.4C7.3,17,6.4,17.9,5.3,17.9z M8.2,17.3L8,17.2c0.2-0.4,0.3-0.8,0.3-1.3c0-1.7-1.3-3-3-3c-0.3,0-0.6,0.1-0.9,0.1c-0.4-0.9-0.7-1.8-0.7-2.8c0-3.6,2.9-6.5,6.5-6.5h0c1.7,0,3.4,0.7,4.6,1.9l2.5,2.5c0.2,0.2,0.4,0.5,0.6,0.8l-9,9C8.7,17.8,8.4,17.6,8.2,17.3z M19.8,19.8c-0.6,0.6-1.5,0.6-2.1,0l-1.6-1.6c-0.7-0.7-1.7-0.9-2.6-0.6l-1.8,0.6c-0.6,0.2-1.2,0.2-1.8,0.1l8.3-8.3c0.1,0.6,0.1,1.2-0.1,1.8l-0.6,1.8c-0.3,0.9-0.1,1.9,0.6,2.6l1.6,1.6c0.3,0.3,0.4,0.7,0.4,1.1C20.2,19.1,20.1,19.5,19.8,19.8z"/></svg>