<svg xmlns="http://www.w3.org/2000/svg" enable-background="new 0 0 24 24" viewBox="0 0 24 24"><path fill="#6563ff" d="M20.1501465,8.2033691c-3.199585-4.4993896-9.4407959-5.5530396-13.9401855-2.3535156c-4.4993896,3.199585-5.5531006,9.4408569-2.3535156,13.9402466c0.0025635,0.0036621,0.005127,0.0072632,0.0077515,0.0108643c0.163208,0.2227783,0.4760742,0.2710571,0.6988525,0.1078491c0.2227173-0.163147,0.2710571-0.4760742,0.1078491-0.6987915C3.5827637,17.6907959,2.9984131,15.8686523,3,14c-0.0006714-1.8695068,0.5810547-3.6928101,1.6643677-5.2164917c2.8792114-4.0495605,8.4960327-4.998291,12.5455933-2.1190796c4.0495605,2.8791504,4.9983521,8.4960327,2.1191406,12.5455933c-0.0603027,0.0846558-0.0926514,0.1859741-0.0927124,0.289917c0,0.276123,0.2238159,0.5,0.499939,0.500061c0.1616821-0.0001221,0.3133545-0.0783691,0.4072266-0.210022C21.3531494,18.1018677,22.0024414,16.0767212,22,14C22.0006714,11.9225464,21.354126,9.8964233,20.1501465,8.2033691z M16.1464844,10.1464844l-3.1364136,3.1364136C12.7126465,13.1075439,12.3702393,13,12,13c-1.1045532,0-2,0.8954468-2,2c0,0.3702393,0.1075439,0.7126465,0.2828979,1.0100708l-1.1364136,1.1364136c-0.09375,0.09375-0.1464233,0.2208862-0.1464233,0.3534546C9,17.776062,9.223877,17.999939,9.5,18c0.1326294,0.0001831,0.2598877-0.0525513,0.3535156-0.1464844l1.1362915-1.1364136C11.2872314,16.8925171,11.6296997,17,12,17c1.1040039-0.0014038,1.9985962-0.8959961,2-2c0-0.3702393-0.1074829-0.7126465-0.2828369-1.0100708l3.1362915-3.1364746c0.1871948-0.1937256,0.1871948-0.5009155,0-0.6947021C16.6616211,9.960144,16.3450928,9.9546509,16.1464844,10.1464844z M12,16c-0.5523071,0-1-0.4476929-1-1s0.4476929-1,1-1c0.2749023,0.0001831,0.5235596,0.1116943,0.7042847,0.2913208c0.0014648,0.0014648,0.0029297,0.0028687,0.0043945,0.0043945C12.8883057,14.4764404,12.9998169,14.7250977,13,15C13,15.5523071,12.5523071,16,12,16z"/></svg>