<svg xmlns="http://www.w3.org/2000/svg" enable-background="new 0 0 24 24" viewBox="0 0 24 24"><path fill="#6563ff" d="M21.0859375,10.8789062l-8.7324219-8.7324219C12.2597656,2.0526733,12.1326294,2,12,2H2.5C2.4998169,2,2.4996338,2,2.4993896,2C2.2234497,2.0001831,1.9998169,2.223999,2,2.5V12c0,0.1326294,0.0526733,0.2597656,0.1464844,0.3535156l8.7324219,8.7323608C11.44104,21.6488647,12.2044067,21.9644775,13,21.9628906c0.7955933,0.0015869,1.55896-0.3140259,2.1210938-0.8769531l5.9648438-5.9648438C22.2558594,13.9490356,22.2558594,12.0509644,21.0859375,10.8789062z M20.3789062,14.4140625l-5.9648438,5.9649048c-0.7816772,0.7792358-2.0464478,0.7792358-2.828125,0L3,11.7930298V3h8.7930298l8.5858765,8.5859985C21.1582031,12.3676147,21.1582031,13.6324463,20.3789062,14.4140625z M7.5,6C6.6715698,6,6,6.6715698,6,7.5S6.6715698,9,7.5,9C8.328064,8.9990845,8.9990845,8.328064,9,7.5C9,6.6715698,8.3284302,6,7.5,6z M7.5,8C7.223877,8,7,7.776123,7,7.5S7.223877,7,7.5,7C7.7759399,7.0005493,7.9994507,7.2240601,8,7.5C8,7.776123,7.776123,8,7.5,8z"/></svg>