<svg xmlns="http://www.w3.org/2000/svg" enable-background="new 0 0 24 24" viewBox="0 0 24 24"><path fill="#6563ff" d="M21.4394531,11.2324219l-9.0859375-9.0859375C12.2597656,2.0526733,12.1326294,2,12,2H2.4993896C2.2234497,2.0001831,1.9998169,2.223999,2,2.5V12c0,0.1326294,0.0526733,0.2597656,0.1464844,0.3535156l9.0859375,9.0859375C11.7008057,21.9087524,12.3369751,22.1719971,13,22.1708984c0.6630249,0.0010986,1.2991943-0.262146,1.7675781-0.7314453l6.671875-6.671875C22.4140625,13.7907104,22.4140625,12.2092896,21.4394531,11.2324219z M20.7324219,14.0606079l-6.671875,6.671814c-0.5864258,0.5840454-1.534668,0.5840454-2.1210938,0L3,11.7930298V3h8.7930298l8.9393921,8.9394531C21.3173828,12.5255127,21.3173828,13.4745483,20.7324219,14.0606079z"/></svg>