<svg xmlns="http://www.w3.org/2000/svg" enable-background="new 0 0 24 24" viewBox="0 0 24 24"><path fill="#6563ff" d="M15.5,3h-3C8.9118652,3.0041504,6.0041504,5.9118652,6,9.5V14H4.5C4.223877,14,4,14.223877,4,14.5S4.223877,15,4.5,15H6v3H2.5c-0.0001831,0-0.0003662,0-0.0006104,0C2.2234497,18.0001831,1.9998169,18.223999,2,18.5v2c0,0.0001831,0,0.0003662,0,0.0005493C2.0001831,20.7765503,2.223999,21.0001831,2.5,21c0.0001831,0,0.0003662,0,0.0006104,0C2.7765503,20.9998169,3.0001831,20.776001,3,20.5V19h3.5h4h5c3.5881348-0.0041504,6.4958496-2.9118652,6.5-6.5v-3C21.9958496,5.9118652,19.0881348,3.0041504,15.5,3z M21,12.5c-0.0037842,3.0360107-2.4639893,5.4962158-5.5,5.5h-5H7V9.5C7.0037842,6.4639893,9.4639893,4.0037842,12.5,4h3c3.0360107,0.0037842,5.4962158,2.4639893,5.5,5.5V12.5z M14,7c-2.2091675,0-4,1.7908325-4,4s1.7908325,4,4,4c2.208252-0.0021973,3.9978027-1.791748,4-4C18,8.7908325,16.2091675,7,14,7z M14,14c-1.6568604,0-3-1.3431396-3-3s1.3431396-3,3-3c1.6561279,0.0018311,2.9981689,1.3438721,3,3C17,12.6568604,15.6568604,14,14,14z"/></svg>