<svg xmlns="http://www.w3.org/2000/svg" enable-background="new 0 0 24 24" viewBox="0 0 24 24"><path fill="#6563ff" d="M20,10.6846313V7.5c-0.0018311-1.6561279-1.3438721-2.9981689-3-3h-0.7971191l-0.8669434-2.6552734C15.2688599,1.638916,15.0768433,1.4997559,14.8603516,1.5H9.1396484C8.9231567,1.4997559,8.7311401,1.638916,8.6640625,1.8447266L7.7971191,4.5H7c-1.6561279,0.0018311-2.9981689,1.3438721-3,3v3.1846313C2.8383179,11.0986328,2.0014648,12.1964111,2,13.5V20c0,0.0001831,0,0.0003662,0,0.0005493C2.0001831,20.2765503,2.223999,20.5001831,2.5,20.5h2V22c0,0.0001831,0,0.0003662,0,0.0005493C4.5001831,22.2765503,4.723999,22.5001831,5,22.5c0.0001831,0,0.0003662,0,0.0006104,0C5.2765503,22.4998169,5.5001831,22.276001,5.5,22v-1.5h13V22c0,0.0001831,0,0.0003662,0,0.0005493C18.5001831,22.2765503,18.723999,22.5001831,19,22.5c0.0001831,0,0.0003662,0,0.0006104,0C19.2765503,22.4998169,19.5001831,22.276001,19.5,22v-1.5h2c0.0001831,0,0.0003662,0,0.0006104,0C21.7765503,20.4998169,22.0001831,20.276001,22,20v-6.5C21.9985352,12.1964111,21.1616821,11.0986328,20,10.6846313z M9.5020142,2.5h4.9960327l0.6524658,2H8.8495483L9.5020142,2.5z M5,7.5c0.0014038-1.1040039,0.8959961-1.9985962,2-2h10c1.1040039,0.0014038,1.9985962,0.8959961,2,2v3H5V7.5z M21,19.5H3v-6c0.0014038-1.1040039,0.8959961-1.9985962,2-2h14c1.1040039,0.0014038,1.9985962,0.8959961,2,2V19.5z M7.3495483,15.1494141c-0.1949463-0.1894531-0.505249-0.1894531-0.7001953,0c-0.0505981,0.0421753-0.088501,0.0976562-0.109375,0.1601562C6.5114136,15.3688354,6.4976807,15.4342041,6.5,15.5C6.5064697,15.7734375,6.7265625,15.9935303,7,16c0.2730103-0.0073853,0.4926147-0.2269897,0.5-0.5c0.0023193-0.0657959-0.0114136-0.1311646-0.0401001-0.1904297C7.4382935,15.2471924,7.4001465,15.1918335,7.3495483,15.1494141z M17.1893921,15.0400391c-0.1855469-0.0762329-0.3987427-0.03302-0.539978,0.109375c-0.0966187,0.0942993-0.1505737,0.223938-0.1494141,0.3589478C16.5023193,15.7821655,16.7261963,16.0023193,17,16c0.0654907,0.0023193,0.1305542-0.0114136,0.1895142-0.0400391c0.1203003-0.053894,0.2165527-0.1502075,0.2705078-0.2705078C17.4885864,15.6304932,17.5023193,15.5654907,17.5,15.5c0.0016479-0.1328735-0.0529785-0.2602539-0.1504517-0.3505859C17.3075562,15.0985718,17.2520142,15.0606689,17.1893921,15.0400391z M13.5,15h-3c-0.276123,0-0.5,0.223877-0.5,0.5s0.223877,0.5,0.5,0.5h3c0.276123,0,0.5-0.223877,0.5-0.5S13.776123,15,13.5,15z"/></svg>