<svg xmlns="http://www.w3.org/2000/svg" enable-background="new 0 0 24 24" viewBox="0 0 24 24"><path fill="#6563ff" d="M21.4199219,7.7178345l-1.0351562-3.8652344c-0.3583984-1.3336182-1.7294922-2.1247559-3.0634766-1.7675781l-1.9316406,0.5175171c-0.2664795,0.0717773-0.4246216,0.3456421-0.3535156,0.6123047l0.3884277,1.4498901L4.3164062,7.640625C4.0502319,7.7133789,3.892395,7.9871216,3.9628906,8.2539062l0.3886719,1.4505005l-1.484375,0.3922729c-0.2194824,0.0579834-0.3723145,0.2565918-0.3722534,0.4835815c0.0001221,0.276123,0.2240601,0.499939,0.5001831,0.4998169c0.0432129,0.0001831,0.0862427-0.0053711,0.1279297-0.0166016l1.4873657-0.3930664l0.3876343,1.4467773c0.0593872,0.2181396,0.2573242,0.3696899,0.4833984,0.3701172c0.0438232-0.0003052,0.0874023-0.0058594,0.1298828-0.0166016l3.9072266-1.046814V12.5c0.0004883,0.5084229,0.154541,0.9800415,0.4154053,1.3746338l-5.2728271,5.2718506c-0.09375,0.09375-0.1464233,0.2208862-0.1464233,0.3534546c0,0.276123,0.2238159,0.5,0.499939,0.500061c0.1326294,0.0001831,0.2598877-0.0525513,0.3535156-0.1464844l5.2719116-5.2709961c0.2615356,0.173584,0.5565186,0.3009033,0.8745728,0.3662109v6.5518188c0.0001831,0.276001,0.223999,0.4996338,0.5,0.4994507h0.0006104c0.2759399-0.0001831,0.4995728-0.223999,0.4993896-0.5v-6.550415c0.3192139-0.0645752,0.6153564-0.1911621,0.8779297-0.364624l5.2685547,5.2685547C18.7547607,19.9474487,18.882019,20.0001831,19.0146484,20c0.1325073-0.000061,0.2596436-0.0526733,0.3533325-0.1463623c0.1953125-0.1952515,0.1953735-0.5118408,0.0001221-0.7071533l-5.267334-5.267395c0.2625732-0.3954468,0.4172974-0.8688965,0.4177856-1.3790894v-2.4157104l2.2000732-0.5894775l0.3878174,1.4475708c0.05896,0.2185669,0.257019,0.3706055,0.4833984,0.3710938c0.043457-0.0002441,0.086731-0.0057983,0.1289062-0.0165405l1.9326172-0.5175781h0.0009766C20.9854736,10.4215698,21.7766724,9.0512695,21.4199219,7.7178345z M13.5185547,12.5c0,0.3991089-0.1584473,0.7595215-0.4125977,1.0282593c-0.0132446,0.0109863-0.02948,0.0158081-0.0418091,0.0283813c-0.0103149,0.010498-0.013916,0.024292-0.0230713,0.0354614C12.7728882,13.8432617,12.414978,14,12.0185547,14c-0.8284302,0-1.5-0.6715698-1.5-1.5v-1.3440552l3-0.803772V12.5z M5.835022,11.375L5.0585938,8.4775391l10.6248169-2.8466187l0.7763062,2.8974609L5.835022,11.375z M19.3925781,9.8125l-1.4492188,0.3886719l-0.3875122-1.4465332c-0.0002441-0.0009155,0.000061-0.001709-0.0001831-0.0026245l-1.0351562-3.8633423c-0.0001831-0.0006104-0.0006714-0.0010986-0.0008545-0.001709l-0.3878174-1.4475098l1.4483032-0.3876953c0.0001221-0.000061,0.0003052-0.0001221,0.0004883-0.0001221c0.8000488-0.2147827,1.6226196,0.2597046,1.8374023,1.0596924l1.0350952,3.8652344c0.0002441,0.0009155,0.0004883,0.0018311,0.0007324,0.0026855C20.6669922,8.7785645,20.1918945,9.5993042,19.3925781,9.8125z"/></svg>