<svg xmlns="http://www.w3.org/2000/svg" enable-background="new 0 0 24 24" viewBox="0 0 24 24"><path fill="#6563ff" d="M12.5,15.0707397V8c0-0.276123-0.223877-0.5-0.5-0.5S11.5,7.723877,11.5,8v7.0707397C10.638855,15.2937622,10,16.0691528,10,17c0,1.1045532,0.8954468,2,2,2c1.1040039-0.0014038,1.9985962-0.8959961,2-2C14,16.0691528,13.361145,15.2937622,12.5,15.0707397z M12,18c-0.5523071,0-1-0.4476929-1-1s0.4476929-1,1-1c0.552124,0.0003662,0.9996338,0.447876,1,1C13,17.5523071,12.5523071,18,12,18z M16.5,13.0390625V5.5C16.5,3.0147095,14.4852905,1,12,1S7.5,3.0147095,7.5,5.5v7.5390625c-0.9678955,1.0966797-1.5013428,2.5093994-1.5,3.9721069C6.0031128,20.3217773,8.6893921,23.0031128,12,23c1.4627075,0.0013428,2.8754272-0.5321045,3.9721069-1.5C18.4542847,19.3093262,18.6906738,15.5212402,16.5,13.0390625z M15.6357422,20.4400024c-1.8956909,2.0079956-5.0601807,2.098999-7.0681152,0.2033691c-2.0079956-1.8956909-2.0990601-5.0601807-0.2033691-7.0681763C8.4512939,13.4822388,8.4998169,13.3597412,8.5,13.2324219V5.5C8.5023193,3.5679932,10.0679932,2.0023193,12,2c1.9320068,0.0023193,3.4976807,1.5679932,3.5,3.5v7.7324219c0.0001831,0.1273193,0.0487061,0.2498169,0.1357422,0.3427734C17.4547729,15.5019531,17.4547729,18.5132446,15.6357422,20.4400024z"/></svg>