<svg xmlns="http://www.w3.org/2000/svg" enable-background="new 0 0 24 24" viewBox="0 0 24 24"><path fill="#6563ff" d="M12,15.5c-0.8284302,0-1.5,0.6715698-1.5,1.5s0.6715698,1.5,1.5,1.5c0.828064-0.0009155,1.4990845-0.671936,1.5-1.5C13.5,16.1715698,12.8284302,15.5,12,15.5z M12,17.5c-0.276123,0-0.5-0.223877-0.5-0.5s0.223877-0.5,0.5-0.5c0.2759399,0.0005493,0.4994507,0.2240601,0.5,0.5C12.5,17.276123,12.276123,17.5,12,17.5z M15,13.0020142V5c0-1.6568604-1.3431396-3-3-3S9,3.3431396,9,5v8.0020142c-1.2593384,0.9442749-2.0003052,2.4265137-1.999939,4.0004883C7.0007324,19.7632446,9.2393188,22.0006714,12,22c1.5740356,0.0003662,3.0562744-0.7406006,4.0005493-1.999939C17.6566772,17.7913208,17.2087402,14.6581421,15,13.0020142z M14.2216797,20.3273315c-1.8370361,1.2269897-4.3209839,0.7324219-5.5479736-1.1046143s-0.7324219-4.3209229,1.1046143-5.5479736C9.9169312,13.5821533,10.0001221,13.4264526,10,13.2597656V5c0.0014038-1.1040039,0.8959961-1.9985962,2-2c1.1040039,0.0014038,1.9985962,0.8959961,2,2v8.2597656c-0.0001221,0.166687,0.0830688,0.3223877,0.2216797,0.414978c0.4371948,0.2920532,0.812561,0.6674194,1.1046143,1.1046143C16.5532837,16.616394,16.0587158,19.1003418,14.2216797,20.3273315z"/></svg>