<svg xmlns="http://www.w3.org/2000/svg" enable-background="new 0 0 24 24" viewBox="0 0 24 24"><path fill="#6563ff" d="M12,2C6.4771729,2,2,6.4771729,2,12s4.4771729,10,10,10c5.5202026-0.0062866,9.9937134-4.4797974,10-10C22,6.4771729,17.5228271,2,12,2z M21,12c0,2.0878296-0.7174683,4.0043945-1.9104614,5.531311c-0.8648682-0.5327759-1.5927734-1.2606812-2.1253052-2.1256714c-1.8798828-3.0537109-0.9294434-7.0524902,2.1219482-8.9346924C20.2792969,7.9973145,20.9976196,9.9129028,21,12z M4.9106445,6.4684448c0.864624,0.5326538,1.5921021,1.2602539,2.1245728,2.1248779c1.8812866,3.0549927,0.9299316,7.0564575-2.1245728,8.9382324C3.7175293,16.0046387,3,14.0879517,3,12S3.7175293,7.9953613,4.9106445,6.4684448z M12,21c-2.5257568,0-4.8051147-1.0436401-6.4396362-2.7192993c1.0682983-0.6904907,1.9584351-1.6272583,2.5596313-2.7561646c1.8459473-3.4663086,0.6917725-7.7252197-2.5493164-9.8165894C7.2044678,4.0386963,9.4797363,3,12,3c2.524231,0.0028687,4.802002,1.0467529,6.4360962,2.7215576c-1.0667725,0.6903687-1.9555664,1.6262207-2.5560913,2.7539062c-1.8459473,3.4663086-0.6917725,7.7252197,2.5493164,9.8165894C16.7955322,19.9613037,14.5202637,21,12,21z"/></svg>