<svg xmlns="http://www.w3.org/2000/svg" enable-background="new 0 0 24 24" viewBox="0 0 24 24"><path fill="#6563ff" d="M21,11.4404297h-6c-0.276123,0-0.5,0.223877-0.5,0.5s0.223877,0.5,0.5,0.5h2.5v5.5c0,0.276123,0.223877,0.5,0.5,0.5s0.5-0.223877,0.5-0.5v-5.5H21c0.276123,0,0.5-0.223877,0.5-0.5S21.276123,11.4404297,21,11.4404297z M16,5.5006104V5.5c0.0001831-0.276001-0.2234497-0.4998169-0.4993896-0.5H2.5C2.223877,5,2,5.223877,2,5.5S2.223877,6,2.5,6h6v12.5C8.5,18.776123,8.723877,19,9,19s0.5-0.223877,0.5-0.5V6h6C15.776001,6.0001831,15.9998169,5.7765503,16,5.5006104z"/></svg>