<svg xmlns="http://www.w3.org/2000/svg" enable-background="new 0 0 24 24" viewBox="0 0 24 24"><path fill="#6563ff" d="M22.8534546,22.1465454l-1.4993896-1.4993896c-0.0003662-0.0003662-0.0008545-0.0008545-0.0012207-0.0012207L3.3540649,2.6471558C3.3536987,2.6467896,3.3532104,2.6463013,3.3528442,2.6459351L1.8534546,1.1465454c-0.1937256-0.1871948-0.5009155-0.1871948-0.6947021,0C0.960144,1.3383789,0.9546509,1.6549072,1.1464844,1.8535156L2.5,3.2070312V21c0,0.0001831,0,0.0003662,0,0.0005493C2.5001831,21.2765503,2.723999,21.5001831,3,21.5h17.7929688l1.3535156,1.3535156C22.2401123,22.9474487,22.3673706,23.0001831,22.5,23c0.1325073-0.000061,0.2595825-0.0526733,0.3533325-0.1463623C23.048645,22.6583862,23.0487061,22.3417969,22.8534546,22.1465454z M9.5,10.2070312L13.7929688,14.5H9.5V10.2070312z M3.5,4.2070312L7.7929688,8.5H3.5V4.2070312z M8.5,20.5h-5v-5h5V20.5z M8.5,14.5h-5v-5h5V14.5z M14.5,20.5h-5v-5h5V20.5z M15.5,20.5v-4.2929688L19.7929688,20.5H15.5z M7.1796875,3.5H8.5v1.3203125c0,0.0001831,0,0.0003662,0,0.0005493C8.5001831,5.0968628,8.723999,5.3204956,9,5.3203125c0.0001831,0,0.0003662,0,0.0006104,0c0.2759399-0.0001831,0.4995728-0.223999,0.4993896-0.5V3.5h5v5h-1.3203125c-0.276123,0-0.5,0.223877-0.5,0.5s0.223877,0.5,0.5,0.5H14.5v1.3203125c0,0.0001831,0,0.0003662,0,0.0005493c0.0001831,0.276001,0.223999,0.4996338,0.5,0.4994507c0.0001831,0,0.0003662,0,0.0005493,0c0.276001-0.0001831,0.4996338-0.223999,0.4994507-0.5V9.5h5v5h-1.3203125c-0.276123,0-0.5,0.223877-0.5,0.5s0.223877,0.5,0.5,0.5H20.5v1.3203125c0,0.0001831,0,0.0003662,0,0.0005493c0.0001831,0.276001,0.223999,0.4996338,0.5,0.4994507c0.0001831,0,0.0003662,0,0.0006104,0c0.2759399-0.0001831,0.4995728-0.223999,0.4993896-0.5V3c0-0.0001831,0-0.0003662,0-0.0006104C21.4998169,2.7234497,21.276001,2.4998169,21,2.5H7.1796875c-0.276123,0-0.5,0.223877-0.5,0.5S6.9035645,3.5,7.1796875,3.5z M15.5,3.5h5v5h-5V3.5z"/></svg>