<svg xmlns="http://www.w3.org/2000/svg" enable-background="new 0 0 24 24" viewBox="0 0 24 24"><path fill="#6563ff" d="M20.0361328,2.7832642c-1.8648682-1.1972656-4.3150635-0.9146118-5.8583984,0.6757812l-9.0322266,9.0819702C5.0521851,12.6345825,4.9998169,12.7614136,5,12.8935547v5.3994141l-2.8535156,2.8535156c-0.09375,0.09375-0.1464233,0.2208862-0.1464233,0.3534546C2,21.776062,2.223877,21.999939,2.5,22c0.1326294,0.0001221,0.2598267-0.0526123,0.3534546-0.1465454L5.7069092,19h5.3995361c0.1322021,0.0001831,0.2589722-0.0521851,0.3525391-0.1455078l9.2207031-9.1698608c0.1965942-0.1967773,0.3745728-0.4113159,0.5315552-0.6409302C22.6155396,6.9904175,22.0894165,4.1875,20.0361328,2.7832642z M19.9726562,8.9775391L10.9003906,18H6v-4.9003906l8.8847656-8.9335938c1.1994629-1.2523804,3.1149902-1.4867554,4.5810547-0.5605469c0.1807861,0.1231079,0.3496704,0.2628784,0.5043945,0.4174194C21.3391113,5.3904419,21.3401489,7.6087036,19.9726562,8.9775391z M17.1464844,6.1464844l-8,8c-0.09375,0.09375-0.1464233,0.2208862-0.1464233,0.3534546C9,14.776062,9.223877,14.999939,9.5,15c0.1326294,0.0001221,0.2598267-0.0526123,0.3534546-0.1465454l8-8c0.1871948-0.1937256,0.1871948-0.5009155,0-0.6947021C17.6616211,5.960144,17.3450928,5.9546509,17.1464844,6.1464844z"/></svg>