<svg xmlns="http://www.w3.org/2000/svg" enable-background="new 0 0 24 24" viewBox="0 0 24 24"><path fill="#6563ff" d="M19,2.5h-3c-0.0001831,0-0.0003662,0-0.0005493,0H6.2734375c-1.208374-0.0003662-2.2440186,0.8637695-2.4599609,2.0527344l-1.2724609,7c-0.0268555,0.1477051-0.0403442,0.2974854-0.0403442,0.4475708C2.5008545,13.3810425,3.6203003,14.5001831,5.0009766,14.5h4.5585938c0.0598755-0.000061,0.1193237,0.0106201,0.175415,0.0316162c0.258606,0.0966187,0.3899536,0.3845825,0.293335,0.6431885l-0.5351562,1.4335938c-0.1508789,0.4048462-0.2282104,0.8334351-0.2282715,1.2655029C9.2645264,19.8761597,10.8873901,21.4996338,12.8896484,21.5c0.1976318,0,0.376709-0.116333,0.4570312-0.296875L16.3251343,14.5H19c1.380188-0.0012817,2.4987183-1.119812,2.5-2.5V5C21.4987183,3.619812,20.380188,2.5012817,19,2.5z M15.5,13.8935547l-2.9267578,6.5878906c-0.2050171-0.0249634-0.406311-0.0740356-0.5997925-0.1461792c-1.3586426-0.5065918-2.0493774-2.0186157-1.5427856-3.3772583l0.5351562-1.4335938c0.0618896-0.166748,0.093689-0.3432007,0.0938721-0.5210571C11.0606079,14.1739502,10.3889771,13.5008545,9.5595703,13.5H5.0009766c-0.0905151,0.000061-0.1809082-0.0080566-0.2700195-0.024292c-0.81427-0.1484985-1.3540649-0.9289551-1.2055664-1.7432861l1.2724609-7C4.927002,4.0188599,5.5482788,3.499939,6.2734375,3.5H15.5V13.8935547z M20.5,12c-0.0009155,0.828064-0.671936,1.4990845-1.5,1.5h-2.5v-10H19c0.828064,0.0009155,1.4990845,0.671936,1.5,1.5V12z"/></svg>