<svg xmlns="http://www.w3.org/2000/svg" enable-background="new 0 0 24 24" viewBox="0 0 24 24"><path fill="#6563ff" d="M18.4638672,9h-4.203125c-0.0619507,0.000061-0.1233521-0.0114136-0.1810913-0.0338135c-0.256958-0.0997314-0.3844604-0.388916-0.284729-0.645874l0.375-0.9746094c0.173584-0.4508667,0.2626343-0.9298706,0.2626343-1.4129639C14.4326172,3.7608032,12.671936,2.000061,10.5,2c-0.2000122,0-0.3808594,0.1190186-0.460022,0.3027344L7.1697388,9H4.5C3.119812,9.0012817,2.0012817,10.119812,2,11.5v8c0.0012817,1.380188,1.119812,2.4987183,2.5,2.5h12.8770142c1.6928101,0.0002441,3.1431274-1.2111816,3.4442749-2.8770142l1.0869141-6c0.0372925-0.2060547,0.0560913-0.4151001,0.0560303-0.6245117C21.9636841,10.5657959,20.3965454,8.9995117,18.4638672,9z M7,21H4.5c-0.828064-0.0009155-1.4990845-0.671936-1.5-1.5v-8c0.0009155-0.828064,0.671936-1.4990845,1.5-1.5H7V21z M20.9238892,12.9453125l-1.0869141,6C19.6221313,20.1351929,18.5861206,21.0004883,17.3770142,21H8V9.6025391l2.8222656-6.5859375c0.2498779,0.027771,0.4951782,0.0875244,0.7297974,0.1778564c1.512207,0.5819702,2.2662964,2.2796631,1.6842651,3.7918701l-0.375,0.9746094c-0.0661011,0.1717529-0.1000366,0.354248-0.1001587,0.538269C12.7608643,9.3277588,13.432251,9.9996338,14.2607422,10h4.203125c0.1495361,0,0.2987671,0.0133667,0.4458618,0.0400391C20.2682495,10.2861328,21.1699829,11.586853,20.9238892,12.9453125z"/></svg>