<svg xmlns="http://www.w3.org/2000/svg" enable-background="new 0 0 24 24" viewBox="0 0 24 24"><path fill="#6563ff" d="M12.5078125,16.9736328h-2.1337891l1.2988281-2.25c0.1362305-0.2380981,0.0550537-0.5414429-0.1818237-0.6796875c-0.2383423-0.1390991-0.5443115-0.0586548-0.6834106,0.1796875l-1.7324219,3c-0.0438232,0.0758667-0.0668945,0.1619873-0.0669556,0.2495728c-0.0002441,0.2761841,0.2234497,0.5001831,0.4995728,0.5004272h2.1337891l-1.2988281,2.25c-0.0436401,0.0757446-0.0667114,0.1616211-0.0668335,0.2490845c-0.0004272,0.2762451,0.2232056,0.5004883,0.4994507,0.5009155c0.1785278,0.000061,0.3435059-0.0952759,0.4326172-0.25l1.7324219-3c0.0438232-0.0758667,0.0668945-0.1619873,0.0670166-0.2496338C13.0076294,17.197876,12.7839355,16.973877,12.5078125,16.9736328z M22.5078125,7.4736328h-1.5379028c-0.0898438-0.7138672-0.3692017-1.3867188-0.8054199-1.949646L21.25,4.4384766c0.1905518-0.194397,0.1905518-0.5054932,0-0.6998901c-0.1932373-0.1972046-0.5098267-0.2003784-0.7069702-0.0071411L19.453064,4.8214111c-0.3693848-0.2861938-0.7872925-0.5214233-1.2602539-0.6672363c-0.2276001-0.0701904-0.456604-0.109314-0.6849976-0.1378784V2.4736328c0-0.276123-0.223877-0.5-0.5-0.5s-0.5,0.223877-0.5,0.5v1.5442505C15.7967529,4.1101685,15.1263428,4.388916,14.56604,4.8249512l-1.0934448-1.0934448c-0.194397-0.1905518-0.5054321-0.1905518-0.6998291,0c-0.1972046,0.1932373-0.2003784,0.5097656-0.0071411,0.7069702l1.1000977,1.1000977c-0.1775513,0.2301025-0.3262329,0.4837036-0.4522095,0.755249c-0.6050415-0.2039185-1.2445068-0.3220215-1.9056396-0.3201904C8.5151367,5.9886475,5.9915771,8.2076416,5.593811,11.1738281c-1.8079834,0.4666138-2.916748,2.2868042-2.5020142,4.1074219c0.3934326,1.6043091,1.845459,2.72229,3.4970703,2.6923828h0.4873047c0.276123,0,0.5-0.2238159,0.5-0.5c0-0.276123-0.223877-0.5-0.5-0.5H6.5888672c-1.1812744,0.03125-2.2271729-0.758606-2.5205078-1.9033203c-0.0167847-0.0722656-0.0302124-0.1452637-0.0404053-0.218811c-0.1851196-1.3416748,0.7524414-2.5794067,2.0941162-2.7645874c0.2344971-0.0324097,0.4142456-0.2247314,0.4306641-0.4609375c0.1790771-2.6088257,2.3401489-4.6378784,4.9550781-4.6523438c0.7046509-0.0013428,1.3799438,0.1564331,1.9985352,0.4291992c0.0092163,0.003479,0.015625,0.0108032,0.0251465,0.0137939c0.0043335,0.0013428,0.008667,0.0001221,0.0130005,0.0013428c1.1672974,0.5263062,2.1162109,1.4899292,2.5922241,2.7373047c0.0596313,0.1522827,0.1896973,0.2659912,0.3486328,0.3046875c1.4751587,0.3590088,2.515686,1.6771851,2.5224609,3.1953735c0.0080566,1.824585-1.4644775,3.3102417-3.2890625,3.3182983c-0.276123,0-0.5,0.223877-0.5,0.5s0.223877,0.5,0.5,0.5h0.2226562c0.0384521-0.0001831,0.0767822-0.0044556,0.1143188-0.0126953c1.7536011-0.1444092,3.2428589-1.3412476,3.7611084-3.022644c0.4009399-1.3006592,0.1387329-2.6359253-0.571106-3.6803589c0.0678101-0.0459595,0.1428833-0.081665,0.2075195-0.1315918l1.0897217,1.0904541c0.0936279,0.0939331,0.2208252,0.1466675,0.3534546,0.1464844c0.1325684,0,0.2597046-0.0526733,0.3534546-0.1463623c0.1953125-0.1952515,0.1953125-0.5118408,0.0001221-0.7070923l-1.0975952-1.0983887c0.2944336-0.3778687,0.5340576-0.8000488,0.6782227-1.2675781c0.0686646-0.2226562,0.1061401-0.4467163,0.1349487-0.6702271h1.5422363c0.276123,0,0.5-0.223877,0.5-0.5S22.7839355,7.4736328,22.5078125,7.4736328z M18.5983887,10.5011597c-0.4555054-0.4171143-0.9981689-0.7515259-1.6276245-0.9455566c-0.5426636-1.2577515-1.4950562-2.2462769-2.6536255-2.8668823c0.4894409-1.0373535,1.5377197-1.7188721,2.710144-1.7150879c0.8179321,0.0026855,1.5567627,0.3349609,2.0948486,0.8688354c0.007019,0.0073853,0.0145264,0.0133057,0.0219727,0.0202637c0.5359497,0.5424194,0.866394,1.288147,0.8637085,2.1109009C20.0093384,9.0119629,19.4673462,9.9627686,18.5983887,10.5011597z"/></svg>