<svg xmlns="http://www.w3.org/2000/svg" enable-background="new 0 0 24 24" viewBox="0 0 24 24"><path fill="#6563ff" d="M13.5078125,16.4736328h-3.1337891l1.8759766-3.25c0.1362305-0.2380981,0.0550537-0.5414429-0.1818237-0.6796875c-0.2383423-0.1390991-0.5443115-0.0586548-0.6834106,0.1796875l-2.3095703,4c-0.0438232,0.0758667-0.0668945,0.1619873-0.0669556,0.2495728c-0.0002441,0.2761841,0.2234497,0.5001831,0.4995728,0.5004272h3.1337891l-1.8759766,3.25c-0.0436401,0.0757446-0.0667114,0.1616211-0.0668335,0.2490845c-0.0004272,0.2762451,0.2232056,0.5004883,0.4994507,0.5009155c0.1785278,0.000061,0.3435059-0.0952759,0.4326172-0.25l2.3095703-4c0.0438232-0.0758667,0.0668945-0.1619873,0.0669556-0.2496338C14.0076294,16.697876,13.7839355,16.473877,13.5078125,16.4736328z M18.4257812,8.1904297C17.442749,5.9173584,15.3307495,4.3338623,12.87323,4.0274048c-3.8320312-0.4779663-7.3259888,2.2411499-7.803894,6.0731812c-1.7984009,0.4309082-3.0652466,2.0407104-3.0613403,3.8900146c0.0046387,2.2044067,1.7954102,3.9876709,3.9998169,3.9829712h0.5c0.276123,0,0.5-0.2238159,0.5-0.5c0-0.276123-0.223877-0.5-0.5-0.5h-0.5c-1.5006104,0.0041504-2.7721558-1.1039429-2.9732056-2.5910034c-0.2214966-1.6375122,0.9265137-3.1445312,2.5640259-3.3659668c0.2344971-0.0324097,0.4142456-0.2247314,0.4306641-0.4609375c0.1589966-2.3158569,1.6411743-4.331543,3.8042603-5.1737061c3.0840454-1.2007446,6.5575562,0.3259888,7.7582397,3.4100342c0.0599976,0.1518555,0.1900024,0.2651367,0.3486328,0.3037109c1.8007812,0.4292603,3.0704346,2.039917,3.0673828,3.8911743c-0.0036621,2.2054443-1.7944946,3.9904175-4,3.9867554h-0.5c-0.276123,0-0.5,0.223877-0.5,0.5s0.223877,0.5,0.5,0.5h0.499939c2.2166748,0.0029297,4.1699219-1.4557495,4.7964478-3.5820312C22.5836792,11.7462769,21.071106,8.9699097,18.4257812,8.1904297z"/></svg>