<svg xmlns="http://www.w3.org/2000/svg" enable-background="new 0 0 24 24" viewBox="0 0 24 24"><path fill="#6563ff" d="M12.5078125,16.9736328h-2.1337891l1.2988281-2.25c0.1362305-0.2380981,0.0550537-0.5414429-0.1818237-0.6796875c-0.2383423-0.1390991-0.5443115-0.0586548-0.6834106,0.1796875l-1.7324219,3c-0.0438232,0.0758667-0.0668945,0.1619873-0.0669556,0.2495728c-0.0002441,0.2761841,0.2234497,0.5001831,0.4995728,0.5004272h2.1337891l-1.2988281,2.25c-0.0436401,0.0757446-0.0667114,0.1616211-0.0668335,0.2490845c-0.0004272,0.2762451,0.2232056,0.5004883,0.4994507,0.5009155c0.1785278,0.000061,0.3435059-0.0952759,0.4326172-0.25l1.7324219-3c0.0438232-0.0758667,0.0668945-0.1619873,0.0670166-0.2496338C13.0076294,17.197876,12.7839355,16.973877,12.5078125,16.9736328z M22.9276733,7.7773438c0.0143433-0.0874023,0.005249-0.177063-0.0264282-0.2597656c-0.0986328-0.2577515-0.3876343-0.3867798-0.6454468-0.2880859c-0.3922729,0.1489868-0.8081665,0.2262573-1.2277832,0.2281494c-1.9352417,0.0089722-3.5112915-1.5526733-3.5202026-3.487915c0.0028687-0.427002,0.0846558-0.8497925,0.2412109-1.2470703c0.0643921-0.1672974,0.0342407-0.3562622-0.0791016-0.4951172c-0.1116943-0.1408691-0.291687-0.2091064-0.46875-0.1777344c-2.1444702,0.3500977-3.774231,2.0413818-4.109375,4.1377563c-0.5091553-0.1394043-1.0393066-0.2201538-1.5839844-0.2178345c-2.9934082,0.012146-5.5177002,2.2335815-5.9101562,5.2011719c-1.8085327,0.4647217-2.9199829,2.28302-2.5087891,4.1044922c0.3781738,1.5753784,1.7841797,2.6881714,3.4042969,2.6943359h0.0146484v0.000061c0.2703857-0.0001221,0.4916992-0.2150879,0.4996948-0.4852905c0.0081787-0.276062-0.2089844-0.5065308-0.4850464-0.5147095c-1.1555176-0.0046387-2.163208-0.7862549-2.4550781-1.9042969c-0.0167847-0.0726929-0.0302124-0.1461792-0.0402832-0.2200928C3.8441162,13.5038452,4.7833862,12.2679443,6.125,12.085022c0.2357788-0.0314331,0.416748-0.2246704,0.4326172-0.4620361c0.1734619-2.6097412,2.3347778-4.6414185,4.9502563-4.6532593c0.6326904-0.0025635,1.2396851,0.1286621,1.8059082,0.3501587c0.007019,0.0032349,0.0100708,0.0111694,0.0172729,0.0140991c0.9491577,0.3759766,1.7476196,1.0341187,2.303833,1.8701782c0.013916,0.0213013,0.0289307,0.041687,0.0425415,0.0632324c0.1778564,0.2764282,0.3318481,0.5701904,0.453125,0.8812866c0.000061,0.0002441,0.0002441,0.0004272,0.0003052,0.0006714c0.0297241,0.0767822,0.0773315,0.1439209,0.1375732,0.1965332c0.0601807,0.0526733,0.1329956,0.0909424,0.2130737,0.1101685c0.178894,0.0440063,0.3518677,0.1045532,0.519165,0.1767578c0.0264282,0.0112305,0.0510864,0.0252686,0.0771484,0.0372314c0.1434937,0.0664062,0.2825928,0.1413574,0.4147949,0.2272949c0.0210571,0.0135498,0.041687,0.02771,0.0623779,0.041748c0.1459961,0.0997314,0.2857666,0.2088623,0.4144287,0.3310547c0.0004272,0.0004272,0.0009155,0.0007324,0.0013428,0.0011597c0.1380615,0.1312866,0.2653198,0.2749634,0.3798828,0.4298706c0.0058594,0.0078735,0.015686,0.0109253,0.0219727,0.0183716c0.2669067,0.3656006,0.4611816,0.7879028,0.5605469,1.2468872c0.3855591,1.7816772-0.7462158,3.5385742-2.5278931,3.9241333c-0.2695923,0.0569458-0.4423218,0.321228-0.3861694,0.5910034c0.0562744,0.2702637,0.3209839,0.4437866,0.5912476,0.3875122c1.5244141-0.3274536,2.7521973-1.4543457,3.2089233-2.9451294c0.3395996-1.1085815,0.203064-2.2462158-0.2835693-3.2042847C21.2975464,11.1518555,22.6251221,9.6439209,22.9276733,7.7773438z M18.9501953,10.8515625c-0.1135254-0.1314697-0.237793-0.251709-0.3654175-0.3677979c-0.1008911-0.0914917-0.208313-0.1741943-0.3184814-0.2562866c-0.1148682-0.0860596-0.2319946-0.1676636-0.3547974-0.2417603c-0.0869141-0.052063-0.1738281-0.1022339-0.2651978-0.1484375c-0.2085571-0.1065674-0.4235229-0.2006836-0.6483154-0.2723999c-0.0109863-0.003479-0.0202026-0.0097656-0.031189-0.0131226c-0.1419067-0.3308716-0.3198853-0.6370239-0.5141602-0.9301147c-0.0062256-0.0092773-0.0133057-0.0178833-0.0196533-0.0271606c-0.6029053-0.8985596-1.4279785-1.6138916-2.3919067-2.0657959c0.1671143-1.4775391,1.1400757-2.741333,2.5282593-3.27771c-0.0407715,0.2374268-0.0614014,0.4778442-0.0615234,0.71875c0.0010986,0.2281494,0.0195312,0.4558716,0.0550537,0.6812744c0.3883667,2.4634399,2.7002563,4.1455688,5.1636963,3.7572021C21.2585449,9.6292114,20.2207642,10.5425415,18.9501953,10.8515625z"/></svg>