<svg xmlns="http://www.w3.org/2000/svg" enable-background="new 0 0 24 24" viewBox="0 0 24 24"><path fill="#6563ff" d="M9,13c-0.276123,0-0.5,0.223877-0.5,0.5v1.0005493C8.5001831,14.7765503,8.723999,15.0001831,9,15h0.0006104C9.2765503,14.9998169,9.5001831,14.776001,9.5,14.5v-1C9.5,13.223877,9.276123,13,9,13z M21.5,10.5h0.0006104C21.7765503,10.4998169,22.0001831,10.276001,22,10V5.4993896C21.9998169,5.2234497,21.776001,4.9998169,21.5,5H2.4993896C2.2234497,5.0001831,1.9998169,5.223999,2,5.5L2.0009766,10v0.0005493c0.0001831,0.276001,0.2240601,0.4996338,0.5,0.4994507c0.8284302,0,1.5,0.6715698,1.5,1.5s-0.6715698,1.5-1.5,1.5H2.5004272c-0.276001,0.0001831-0.4995728,0.223999-0.4994507,0.5L2,18.5v0.0005493C2.0001831,18.7765503,2.223999,19.0001831,2.5,19h19.0006104C21.7765503,18.9998169,22.0001831,18.776001,22,18.5v-4.5006104C21.9998169,13.7234497,21.776001,13.4998169,21.5,13.5c-0.8284302,0-1.5-0.6715698-1.5-1.5S20.6715698,10.5,21.5,10.5z M21,14.4501953V18H9.5v-0.5C9.5,17.223877,9.276123,17,9,17s-0.5,0.223877-0.5,0.5V18H3l0.0009766-3.5498047c0.9816284-0.2006226,1.7487183-0.9677734,1.9493408-1.9493408C5.2269287,11.147644,4.354187,9.826416,3.0009766,9.5498047L3,6h5.5v0.5006104C8.5001831,6.7765503,8.723999,7.0001831,9,7h0.0006104C9.2765503,6.9998169,9.5001831,6.776001,9.5,6.5V6H21v3.5498047c-0.9815674,0.2006226-1.7486572,0.9677734-1.9493408,1.9493408C18.7740479,12.852356,19.6467896,14.173584,21,14.4501953z M9,9C8.723877,9,8.5,9.223877,8.5,9.5v1.0005493C8.5001831,10.7765503,8.723999,11.0001831,9,11h0.0006104C9.2765503,10.9998169,9.5001831,10.776001,9.5,10.5v-1C9.5,9.223877,9.276123,9,9,9z"/></svg>