<svg xmlns="http://www.w3.org/2000/svg" enable-background="new 0 0 24 24" viewBox="0 0 24 24"><path fill="#6563ff" d="M19,2H5C3.3438721,2.0018311,2.0018311,3.3438721,2,5v14c0.0018311,1.6561279,1.3438721,2.9981689,3,3h14c1.6561279-0.0018311,2.9981689-1.3438721,3-3V5C21.9981689,3.3438721,20.6561279,2.0018311,19,2z M21,19c-0.0014038,1.1040039-0.8959961,1.9985962-2,2H5c-1.1040039-0.0014038-1.9985962-0.8959961-2-2V5c0.0014038-1.1040039,0.8959961-1.9985962,2-2h14c1.1040039,0.0014038,1.9985962,0.8959961,2,2V19z M12.7069092,12l3.1465454-3.1465454c0.1871338-0.1937256,0.1871338-0.5009155,0-0.6947021c-0.1918335-0.1986084-0.5083618-0.2041016-0.7069702-0.0122681l-3.1465454,3.1465454L8.8534546,8.1465454c-0.1937256-0.1871338-0.5009155-0.1871338-0.6947021,0C7.960144,8.3383789,7.9546509,8.6549072,8.1464844,8.8535156L11.2929688,12l-3.1464844,3.1464844c-0.09375,0.09375-0.1464233,0.2208862-0.1464233,0.3534546C8,15.776062,8.223877,15.999939,8.5,16c0.1326294,0.0001221,0.2598267-0.0526123,0.3534546-0.1465454l3.1464844-3.1464844l3.1465454,3.1465454C15.2401123,15.9474487,15.3673706,16.0001831,15.5,16c0.1325073-0.000061,0.2595825-0.0526733,0.3533325-0.1463623c0.1953125-0.1952515,0.1953735-0.5118408,0.0001221-0.7070923L12.7069092,12z"/></svg>