<svg xmlns="http://www.w3.org/2000/svg" enable-background="new 0 0 24 24" viewBox="0 0 24 24"><path fill="#6563ff" d="M12.3535156,6.1465454c-0.000061-0.000061-0.000061-0.0001221-0.0001221-0.0001831c-0.1952515-0.1951294-0.5117188-0.1950684-0.7068481,0.0001831l-4.5,4.5c-0.1871948,0.1937256-0.1871948,0.5009155,0,0.6947021c0.1918335,0.1986084,0.5083618,0.2041016,0.7069702,0.0122681L11.5,7.7069702v13.7935791C11.5001831,21.7765503,11.723999,22.0001831,12,22h0.0006104c0.2759399-0.0001831,0.4995728-0.223999,0.4993896-0.5V7.7069702l3.6464844,3.6465454C16.2401123,11.4474487,16.3673706,11.5001831,16.5,11.5c0.1325073,0,0.2596436-0.0526733,0.3533936-0.1463623c0.1952515-0.1952515,0.1953735-0.5118408,0.0001221-0.7070923L12.3535156,6.1465454z M19.5,2h-15C4.223877,2,4,2.223877,4,2.5S4.223877,3,4.5,3h15C19.776123,3,20,2.776123,20,2.5S19.776123,2,19.5,2z"/></svg>