<svg xmlns="http://www.w3.org/2000/svg" enable-background="new 0 0 24 24" viewBox="0 0 24 24"><path fill="#6563ff" d="M7.8535156,7.3535156L11.5,3.7069702V17.5c0,0.0001831,0,0.0003662,0,0.0005493C11.5001831,17.7765503,11.723999,18.0001831,12,18c0.0001831,0,0.0003662,0,0.0006104,0c0.2759399-0.0001831,0.4995728-0.223999,0.4993896-0.5V3.7069702l3.6464844,3.6465454C16.2401123,7.4474487,16.3673706,7.5001831,16.5,7.5c0.1325073,0,0.2596436-0.0526733,0.3533936-0.1463623c0.1953125-0.1952515,0.1953735-0.5118408,0.0001221-0.7070923l-4.5-4.5c-0.000061-0.000061-0.000061-0.0001221-0.0001221-0.0001831c-0.1952515-0.1951294-0.5117188-0.1950684-0.7068481,0.0001831l-4.5,4.5c-0.1871948,0.1937256-0.1871948,0.5009155,0,0.6947021C7.3383789,7.539856,7.6549072,7.5453491,7.8535156,7.3535156z M19.5,21h-15C4.223877,21,4,21.223877,4,21.5S4.223877,22,4.5,22h15c0.276123,0,0.5-0.223877,0.5-0.5S19.776123,21,19.5,21z"/></svg>