<svg xmlns="http://www.w3.org/2000/svg" enable-background="new 0 0 24 24" viewBox="0 0 24 24"><path fill="#6563ff" d="M9.5,22h-3C6.223877,22,6,22.223877,6,22.5S6.223877,23,6.5,23h3c0.276123,0,0.5-0.223877,0.5-0.5S9.776123,22,9.5,22z M10.5,18h-6C4.223877,18,4,18.223877,4,18.5S4.223877,19,4.5,19h6c0.276123,0,0.5-0.223877,0.5-0.5S10.776123,18,10.5,18z M17,2.5C17,2.223877,16.776123,2,16.5,2h-15C1.223877,2,1,2.223877,1,2.5S1.223877,3,1.5,3h15C16.776123,3,17,2.776123,17,2.5z M20.5,6h-16C4.223877,6,4,6.223877,4,6.5S4.223877,7,4.5,7h16C20.776123,7,21,6.776123,21,6.5S20.776123,6,20.5,6z M13.5,14h-7C6.223877,14,6,14.223877,6,14.5S6.223877,15,6.5,15h7c0.276123,0,0.5-0.223877,0.5-0.5S13.776123,14,13.5,14z M18.5,10h-10C8.223877,10,8,10.223877,8,10.5S8.223877,11,8.5,11h10c0.276123,0,0.5-0.223877,0.5-0.5S18.776123,10,18.5,10z"/></svg>