<svg xmlns="http://www.w3.org/2000/svg" enable-background="new 0 0 24 24" viewBox="0 0 24 24"><path fill="#6563ff" d="M9.5,7.5h-6C3.223877,7.5,3,7.723877,3,8s0.223877,0.5,0.5,0.5H6V16c0,0.0001831,0,0.0003662,0,0.0005493C6.0001831,16.2765503,6.223999,16.5001831,6.5,16.5c0.0001831,0,0.0003662,0,0.0006104,0C6.7765503,16.4998169,7.0001831,16.276001,7,16V8.5h2.5C9.776123,8.5,10,8.276123,10,8S9.776123,7.5,9.5,7.5z M20.5,7.5c-0.1381226,0-0.2631226,0.0560303-0.3536377,0.1466064L17,10.7930298l-3.1459351-3.145874C13.7635498,7.5563354,13.6383667,7.5,13.5,7.5C13.223877,7.5,13,7.723877,13,8v8c0,0.0001831,0,0.0003662,0,0.0005493c0.0001831,0.276001,0.223999,0.4996338,0.5,0.4994507c0.0001831,0,0.0003662,0,0.0006104,0C13.7765503,16.4998169,14.0001831,16.276001,14,16V9.2070312l2.6464844,2.6464844C16.7401123,11.9474487,16.8673706,12.0001831,17,12c0.1326294,0.0001221,0.2598267-0.0525513,0.3534546-0.1464844L20,9.2069702V16c0,0.0001831,0,0.0003662,0,0.0005493c0.0001831,0.276001,0.223999,0.4996338,0.5,0.4994507c0.0001831,0,0.0003662,0,0.0006104,0C20.7765503,16.4998169,21.0001831,16.276001,21,16V8C21,7.723877,20.776123,7.5,20.5,7.5z"/></svg>