<svg xmlns="http://www.w3.org/2000/svg" enable-background="new 0 0 24 24" viewBox="0 0 24 24"><path fill="#6563ff" d="M10,9.5H7c-0.276123,0-0.5,0.223877-0.5,0.5s0.223877,0.5,0.5,0.5h1v3.5005493C8.0001831,14.2765503,8.223999,14.5001831,8.5,14.5h0.0006104C8.7765503,14.4998169,9.0001831,14.276001,9,14v-3.5h1c0.276123,0,0.5-0.223877,0.5-0.5S10.276123,9.5,10,9.5z M12,2C6.4771729,2,2,6.4771729,2,12s4.4771729,10,10,10c5.5201416-0.0064697,9.9935303-4.4798584,10-10C22,6.4771729,17.5228271,2,12,2z M12,21c-4.9705811,0-9-4.0294189-9-9s4.0294189-9,9-9c4.9683228,0.0054321,8.9945679,4.0316772,9,9C21,16.9705811,16.9705811,21,12,21z M16.6464844,9.6464844L15,11.2930298l-1.6464844-1.6465454c-0.09375-0.09375-0.2208862-0.1464233-0.3534546-0.1464233C12.723938,9.5,12.500061,9.723877,12.5,10v4c0,0.276123,0.223877,0.5,0.5,0.5s0.5-0.223877,0.5-0.5v-2.7930298l1.1465454,1.1465454c0,0,0.000061,0.000061,0.0001221,0.0001221c0.1951904,0.1951294,0.5117188,0.1950684,0.7068481-0.0001221L16.5,11.2069702v2.7935791C16.5001831,14.2765503,16.723999,14.5001831,17,14.5h0.0006104C17.2765503,14.4998169,17.5001831,14.276001,17.5,14v-4c0-0.1325684-0.0526733-0.2597046-0.1464233-0.3533936C17.1583252,9.4512939,16.8417358,9.4512939,16.6464844,9.6464844z"/></svg>