<svg xmlns="http://www.w3.org/2000/svg" enable-background="new 0 0 24 24" viewBox="0 0 24 24"><path fill="#6563ff" d="M21.5,5h-2V3.5C19.5,3.223877,19.276123,3,19,3s-0.5,0.223877-0.5,0.5V5h-2.9022217c-0.0123901-0.0003662-0.0241089-0.0005493-0.036499,0H5.5V3.5C5.5,3.223877,5.276123,3,5,3S4.5,3.223877,4.5,3.5V5H2.4993896C2.2234497,5.0001831,1.9998169,5.223999,2,5.5v7.0005493C2.0001831,12.7765503,2.223999,13.0001831,2.5,13h2v7.5005493C4.5001831,20.7765503,4.723999,21.0001831,5,21h0.0006104C5.2765503,20.9998169,5.5001831,20.776001,5.5,20.5V13h13v7.5005493C18.5001831,20.7765503,18.723999,21.0001831,19,21h0.0006104c0.2759399-0.0001831,0.4995728-0.223999,0.4993896-0.5V13h2.0006104C21.7765503,12.9998169,22.0001831,12.776001,22,12.5V5.4993896C21.9998169,5.2234497,21.776001,4.9998169,21.5,5z M3,6h5.2226562L3,11.2226562V6z M3.6367188,12l5.9998779-6h4.7364502l-6,6H3.6367188z M9.7869873,12l6-6h4.5860596l-6,6H9.7869873z M21,12h-5.2129517L21,6.7869873V12z"/></svg>