<svg xmlns="http://www.w3.org/2000/svg" enable-background="new 0 0 24 24" viewBox="0 0 24 24"><path fill="#6563ff" d="M15.5006104,16C15.5003662,16,15.5001831,16,15.5,16c-0.276001-0.0001831-0.4998169,0.2234497-0.5,0.4993896c0,0.0002441,0,0.0004272,0,0.0006104v2c-0.0009155,0.828064-0.671936,1.4990845-1.5,1.5h-9c-0.828064-0.0009155-1.4990845-0.671936-1.5-1.5V14h3.5C6.776123,14,7,13.776123,7,13.5S6.776123,13,6.5,13H3v-0.5c0.0009155-0.828064,0.671936-1.4990845,1.5-1.5h1C5.776123,11,6,10.776123,6,10.5S5.776123,10,5.5,10h-1c-1.380188,0.0012817-2.4987183,1.119812-2.5,2.5v6c0.0012817,1.380188,1.119812,2.4987183,2.5,2.5h9c1.380188-0.0012817,2.4987183-1.119812,2.5-2.5v-2C16.0001831,16.223999,15.7765503,16.0001831,15.5006104,16z M5,17.4993896C5,17.4996338,5,17.4998169,5,17.5c-0.0001831,0.276001,0.2234497,0.4998169,0.4993896,0.5C5.4996338,18,5.4998169,18,5.5,18h2C7.776123,18,8,17.776123,8,17.5S7.776123,17,7.5,17h-2C5.223999,16.9998169,5.0001831,17.2234497,5,17.4993896z M19.5,3h-9C9.119812,3.0012817,8.0012817,4.119812,8,5.5v6c0.0012817,1.380188,1.119812,2.4987183,2.5,2.5h9c1.380188-0.0012817,2.4987183-1.119812,2.5-2.5v-6C21.9987183,4.119812,20.880188,3.0012817,19.5,3z M21,11.5c-0.0009155,0.828064-0.671936,1.4990845-1.5,1.5h-9c-0.828064-0.0009155-1.4990845-0.671936-1.5-1.5v-6C9.0009155,4.671936,9.671936,4.0009155,10.5,4h9c0.828064,0.0009155,1.4990845,0.671936,1.5,1.5V11.5z M17.5,7.5c-0.3526001,0.0014038-0.6983643,0.097229-1.0014038,0.2775269C16.1963501,7.5978394,15.8516235,7.5020142,15.5,7.5c-1.1045532,0-2,0.8954468-2,2s0.8954468,2,2,2c0.3516235-0.0020142,0.6963501-0.0978394,0.9985962-0.2775269C16.8016357,11.402771,17.1473999,11.4985962,17.5,11.5c1.1045532,0,2-0.8954468,2-2S18.6045532,7.5,17.5,7.5z M16.4140625,9.8998413c-0.0037231,0.0084839-0.0114136,0.0144043-0.0153809,0.0227661c-0.055603,0.116333-0.1328125,0.2210083-0.2276001,0.3084717C15.9892578,10.4020996,15.7495728,10.4981689,15.5,10.5c-0.5523071,0-1-0.4476929-1-1s0.4476929-1,1-1c0.2495728,0.0018311,0.4892578,0.0979004,0.6710815,0.2689209c0.0947876,0.0874634,0.1719971,0.1921387,0.2276001,0.3084717c0.0040283,0.0083618,0.0116577,0.0142822,0.0153809,0.0227661C16.5286255,9.3544312,16.5286255,9.6455688,16.4140625,9.8998413z M17.7555542,10.4658203c-0.166687,0.0438843-0.3418579,0.0438843-0.5084839,0c0.008606-0.0153809,0.0115356-0.0331421,0.0197144-0.0487671c0.0582275-0.1119385,0.1055298-0.229248,0.1413574-0.3502808c0.0102539-0.0338745,0.0228882-0.0662231,0.031311-0.100647c0.0807495-0.305481,0.0807495-0.626709,0-0.932251c-0.0084229-0.0344238-0.0210571-0.0667725-0.031311-0.100647c-0.0358276-0.1209717-0.0831299-0.2382812-0.1413574-0.3502808c-0.0081787-0.015625-0.0111084-0.0333862-0.0197144-0.0487671c0.5333862-0.1403809,1.0796509,0.1782227,1.2200317,0.7116089C18.6075439,9.7791748,18.2889404,10.3254395,17.7555542,10.4658203z"/></svg>