<svg xmlns="http://www.w3.org/2000/svg" enable-background="new 0 0 24 24" viewBox="0 0 24 24"><path fill="#6563ff" d="M16,5c-0.909668,0-1.7509155,0.2612915-2.4857788,0.685791c-0.9255371-2.2081909-3.0806885-3.6866455-5.5174561-3.6859131C4.6838989,2.0007935,1.9990845,4.6871338,2,8v4c0.003418,3.1433716,2.4224854,5.7166138,5.5,5.9742432v3.5263062C7.5001831,21.7765503,7.723999,22.0001831,8,22h0.0006104C8.2765503,21.9998169,8.5001831,21.776001,8.5,21.5v-3.5238037c1.2034912-0.0982056,2.347168-0.5581055,3.2808228-1.3199463c0.8005371,1.2677612,2.151123,2.1331177,3.7191772,2.2928467v2.5514526C15.5001831,21.7765503,15.723999,22.0001831,16,22h0.0006104c0.2759399-0.0001831,0.4995728-0.223999,0.4993896-0.5v-2.5509033C19.0216675,18.6921997,20.9969482,16.5888062,21,14v-4C21,7.2385864,18.7614136,5,16,5z M11.7682495,7.3623047c-0.1260376,0.1998291-0.2410278,0.4058838-0.3371582,0.6211548c-0.0291748,0.065979-0.0524292,0.1338501-0.0787964,0.2012939c-0.0998535,0.2528687-0.1846313,0.5117798-0.2418823,0.7789917c-0.0067749,0.0321655-0.0096436,0.0653076-0.0158081,0.0977173C11.0352173,9.3686523,11,9.6820679,11,10v4c0.0002441,0.3140259,0.0350342,0.6256714,0.0949707,0.9326782c0.0328979,0.1728516,0.0901489,0.3347168,0.1402588,0.5007935c0.0310669,0.100647,0.0474854,0.2051392,0.085083,0.303833C10.5315552,16.4383545,9.5413818,16.8486938,8.5,16.9542236V12.5C8.5,12.223877,8.276123,12,8,12s-0.5,0.223877-0.5,0.5v4.449707C4.9765625,16.6958008,2.9995117,14.590271,3,12V8c0.0032349-2.7600708,2.2399292-4.9967651,5-5c2.0926514,0.0095825,3.9606934,1.3140259,4.6904297,3.2753906c-0.0062866,0.0054932-0.0115967,0.0118408-0.0178833,0.017395c-0.1177979,0.105835-0.2312012,0.2134399-0.338562,0.329895c-0.1383057,0.1480103-0.2664795,0.303833-0.3847656,0.4663086C11.8851318,7.1779175,11.8264771,7.269104,11.7682495,7.3623047z M20,14c0,2.0379028-1.529541,3.7009888-3.5,3.949585V12.5c0-0.276123-0.223877-0.5-0.5-0.5s-0.5,0.223877-0.5,0.5v5.449585c-1.3963013-0.1761475-2.5657959-1.0582275-3.130249-2.2904663c-0.0006714-0.0015259,0.000061-0.0032959-0.0006104-0.0048218C12.1276855,15.1361084,12.001709,14.5716553,12,14v-4c0.0004883-0.2976685,0.0385132-0.590271,0.1033936-0.8748169c0.0137329-0.0611572,0.0387573-0.1174316,0.0552368-0.1775513c0.0620728-0.2230225,0.1365967-0.4418945,0.2360229-0.6498413c0.0274048-0.0578003,0.0610962-0.1116333,0.0911865-0.1678467c0.1120605-0.2078247,0.2385864-0.4077759,0.3865967-0.5933228c0.0296631-0.0375366,0.0603027-0.0740967,0.0912476-0.1105347c0.1832886-0.2133789,0.3846436-0.4134521,0.6135254-0.5862427c0.0007324-0.0005493,0.0008545-0.0015869,0.0015869-0.0021973C14.2525635,6.3206177,15.0852661,6.0009155,16,6c2.208252,0.0021973,3.9978027,1.791748,4,4V14z"/></svg>