<svg xmlns="http://www.w3.org/2000/svg" enable-background="new 0 0 24 24" viewBox="0 0 24 24"><path fill="#6563ff" d="M21.1210938,2.8752441c-0.9772339-0.9752197-2.5599365-0.9735718-3.5351562,0.0036621l-3.1220093,3.1220093c-0.8546143,0.8550415-0.960022,2.1750488-0.3170166,3.1451416l-2.1638794,2.1638794l-2.5426025-2.55896C9.1436768,8.4524536,8.7803345,8.2284546,8.380249,8.0974731C6.9824219,7.6397705,5.4782104,8.4019165,5.0205078,9.7998047l-2.8856812,8.7138672c-0.3248291,0.9671631-0.0714111,2.0348511,0.6533203,2.7529297c0.4962158,0.4979858,1.1699829,0.7783203,1.8729858,0.7792969c0.2893066-0.0001831,0.5765991-0.0477295,0.8505859-0.140625l8.6581421-2.9042969c0.3873901-0.1315308,0.739624-0.3497925,1.0299072-0.6380615c1.0535889-1.0463867,1.0595093-2.7487183,0.0131226-3.8023682l-2.5250854-2.5413208l2.1660156-2.1660767c0.4056396,0.269104,0.8843994,0.4159546,1.3786011,0.4144287C16.895813,10.2692871,17.5322876,10.0055542,18,9.5351562l3.1247559-3.1247559C22.0999756,5.4331665,22.0983276,3.8504028,21.1210938,2.8752441z M14.5039062,15.265625c0.1801758,0.1814575,0.3167114,0.4014893,0.3994141,0.6434326c0.3018188,0.8826294-0.1690674,1.8428345-1.0517578,2.1446533l-8.6582031,2.9042969c-0.5959473,0.2067871-1.2577515,0.0512085-1.6992188-0.3994141C3.0341797,20.1096802,2.8744507,19.43573,3.0839844,18.828125l2.8857422-8.7138062c0.2255249-0.6860352,0.8657837-1.1498413,1.5878906-1.1503906v-0.000061C7.9990234,8.9639893,8.421936,9.1413574,8.7314453,9.4560547l2.5445557,2.5609131l-2.1295166,2.1295166c-0.09375,0.09375-0.1464233,0.2208862-0.1464233,0.3534546C9,14.776062,9.223877,14.999939,9.5,15c0.1326294,0.0001831,0.2598877-0.0525513,0.3535156-0.1464844l2.1272583-2.1272583L14.5039062,15.265625z M20.4140625,5.7069702L17.2929688,8.828064c-0.5892944,0.5623779-1.5126953,0.5634766-2.1068115,0.0091553c-0.005127-0.0055542-0.006897-0.0128174-0.0123291-0.0181885c-0.0042114-0.0041504-0.0099487-0.0053101-0.0142822-0.0092773c-0.5698242-0.5869141-0.5681152-1.522583,0.0123291-2.1027832l3.1210938-3.1210327c0.281189-0.281311,0.6628418-0.4390259,1.0605469-0.4384766v-0.000061c0.3983154-0.0003052,0.7803345,0.1578979,1.0617676,0.4396973C21.0003662,4.1728516,20.9998169,5.1219482,20.4140625,5.7069702z"/></svg>