<svg xmlns="http://www.w3.org/2000/svg" enable-background="new 0 0 24 24" viewBox="0 0 24 24"><path fill="#6563ff" d="M22.5,17h-3.0125122C19.8042603,16.5811768,19.9994507,16.0654907,20,15.5v-6c-0.0012817-1.380188-1.119812-2.4987183-2.5-2.5h-7C9.119812,7.0012817,8.0012817,8.119812,8,9.5v6c0.0005493,0.5654907,0.1957397,1.0811768,0.5125122,1.5H7.5c-0.828064-0.0009155-1.4990845-0.671936-1.5-1.5v-11C5.9987183,3.119812,4.880188,2.0012817,3.5,2h-2C1.223877,2,1,2.223877,1,2.5S1.223877,3,1.5,3h2C4.328064,3.0009155,4.9990845,3.671936,5,4.5v11c0.0012817,1.380188,1.119812,2.4987183,2.5,2.5h0.0112915C7.1947632,18.4188232,7,18.9345093,7,19.5C7,20.8807373,8.1192627,22,9.5,22c1.380188-0.0012817,2.4987183-1.119812,2.5-2.5c0-0.5654907-0.1947632-1.0811768-0.5112915-1.5h5.022583C16.1947632,18.4188232,16,18.9345093,16,19.5c0,1.3807373,1.1192627,2.5,2.5,2.5c1.380188-0.0012817,2.4987183-1.119812,2.5-2.5c0-0.5654907-0.1947632-1.0811768-0.5112915-1.5H22.5c0.276123,0,0.5-0.223877,0.5-0.5S22.776123,17,22.5,17z M9.5,21C8.6715698,21,8,20.3284302,8,19.5S8.6715698,18,9.5,18c0.828064,0.0009155,1.4990845,0.671936,1.5,1.5C11,20.3284302,10.3284302,21,9.5,21z M10.5,17c-0.828064-0.0009155-1.4990845-0.671936-1.5-1.5v-6C9.0009155,8.671936,9.671936,8.0009155,10.5,8h7c0.828064,0.0009155,1.4990845,0.671936,1.5,1.5v6c-0.0009155,0.828064-0.671936,1.4990845-1.5,1.5H10.5z M18.5,21c-0.8284302,0-1.5-0.6715698-1.5-1.5s0.6715698-1.5,1.5-1.5c0.828064,0.0009155,1.4990845,0.671936,1.5,1.5C20,20.3284302,19.3284302,21,18.5,21z"/></svg>