<svg xmlns="http://www.w3.org/2000/svg" enable-background="new 0 0 24 24" viewBox="0 0 24 24"><path fill="#6563ff" d="M22.5,11.6669922L20.5,9c-0.4733887-0.6280518-1.213562-0.9981079-2-1H16V5.5c-0.0012817-1.380188-1.119812-2.4987183-2.5-2.5h-10C2.119812,3.0012817,1.0012817,4.119812,1,5.5v13.0005493C1.0001831,18.7765503,1.223999,19.0001831,1.5,19H3c0,1.6568604,1.3431396,3,3,3c1.6561279-0.0018311,2.9981689-1.3438721,3-3h6c0,1.6568604,1.3431396,3,3,3c1.6561279-0.0018311,2.9981689-1.3438721,3-3h1.5006104C22.7765503,18.9998169,23.0001831,18.776001,23,18.5v-5.3330078C22.9990845,12.6262207,22.8237305,12.1001587,22.5,11.6669922z M6,21c-1.1045532,0-2-0.8954468-2-2s0.8954468-2,2-2c1.1040039,0.0014038,1.9985962,0.8959961,2,2C8,20.1045532,7.1045532,21,6,21z M15,18H8.8162842C8.4030151,16.8374634,7.3043213,16,6,16s-2.4030151,0.8374634-2.8162842,2H2V5.5C2.0009155,4.671936,2.671936,4.0009155,3.5,4h10c0.828064,0.0009155,1.4990845,0.671936,1.5,1.5V18z M16,9h2.5c0.4715576,0.0011597,0.9153442,0.2230225,1.1992188,0.5996094l2.0009766,2.6679688C21.8601685,12.4815063,21.9423828,12.7366333,21.9727783,13H16V9z M18,21c-1.1045532,0-2-0.8954468-2-2s0.8954468-2,2-2c1.1040039,0.0014038,1.9985962,0.8959961,2,2C20,20.1045532,19.1045532,21,18,21z M22,18h-1.1837158C20.4030151,16.8374634,19.3043213,16,18,16c-0.7718506,0-1.4683838,0.2996826-2,0.7785645V14h6V18z"/></svg>