<svg xmlns="http://www.w3.org/2000/svg" enable-background="new 0 0 24 24" viewBox="0 0 24 24"><path fill="#6563ff" d="M11,7.2h1c0,0,0,0,0,0s0,0,0,0h6.3c0.9,0,1.6,0.7,1.6,1.6v7.3c0,0,0,0,0,0c0,0.3,0.2,0.5,0.5,0.5c0,0,0,0,0,0c0.3,0,0.5-0.2,0.5-0.5V8.8c0-1.4-1.2-2.6-2.6-2.6h-5.1l3.4-3.4c0,0,0,0,0,0c0.2-0.2,0.2-0.5,0-0.7c-0.2-0.2-0.5-0.2-0.7,0l-4.1,4.1H11c0,0,0,0,0,0c-0.3,0-0.5,0.2-0.5,0.5C10.5,7,10.7,7.2,11,7.2z M21.9,21.1L7.1,6.4c0,0,0,0,0,0L2.9,2.1C2.7,2,2.4,2,2.2,2.1C2,2.3,2,2.7,2.1,2.9l3.4,3.4C4.1,6.3,3,7.4,3,8.8v8.4c0,1.4,1.2,2.6,2.6,2.6h0.6v1.6c0,0,0,0,0,0c0,0.3,0.2,0.5,0.5,0.5c0,0,0,0,0,0c0.3,0,0.5-0.2,0.5-0.5v-1.6h9.6v1.6c0,0,0,0,0,0c0,0.3,0.2,0.5,0.5,0.5c0,0,0,0,0,0c0.3,0,0.5-0.2,0.5-0.5v-1.6h0.6c0.3,0,0.5,0,0.7-0.1l2.1,2.1c0.1,0.1,0.2,0.1,0.4,0.1c0.1,0,0.3-0.1,0.4-0.1C22,21.7,22,21.3,21.9,21.1z M5.7,18.9c-0.9,0-1.6-0.7-1.6-1.6V8.8c0-0.9,0.7-1.6,1.6-1.6h0.9l11.7,11.7H5.7z"/></svg>