<svg xmlns="http://www.w3.org/2000/svg" enable-background="new 0 0 24 24" viewBox="0 0 24 24"><path fill="#6563ff" d="M18,6h-4.7930908l3.1465454-3.1465454c0.1871338-0.1937256,0.1871338-0.5009155,0-0.6947021c-0.1918335-0.1986084-0.5083618-0.2041016-0.7069702-0.0122681l-3.7096558,3.7096558L10.4335938,3.25C10.2955322,3.0106812,9.989624,2.9285278,9.7502441,3.0664673C9.5107422,3.2044678,9.4284058,3.510498,9.5664062,3.75L10.8642578,6H6C4.3438721,6.0018311,3.0018311,7.3438721,3,9v8c0.0018311,1.6561279,1.3438721,2.9981689,3,3v1.5005493C6.0001831,21.7765503,6.223999,22.0001831,6.5,22h0.0006104C6.7765503,21.9998169,7.0001831,21.776001,7,21.5V20h10v1.5005493C17.0001831,21.7765503,17.223999,22.0001831,17.5,22h0.0006104C17.7765503,21.9998169,18.0001831,21.776001,18,21.5V20c1.6561279-0.0018311,2.9981689-1.3438721,3-3V9C20.9981689,7.3438721,19.6561279,6.0018311,18,6z M20,17c-0.0014038,1.1040039-0.8959961,1.9985962-2,2H6c-1.1040039-0.0014038-1.9985962-0.8959961-2-2V9c0.0014038-1.1040039,0.8959961-1.9985962,2-2h12c1.1040039,0.0014038,1.9985962,0.8959961,2,2V17z"/></svg>