<svg xmlns="http://www.w3.org/2000/svg" enable-background="new 0 0 24 24" viewBox="0 0 24 24"><path fill="#6563ff" d="M12,16c2.7600708-0.0032349,4.9967651-2.2399292,5-5V5.5C17,5.223877,16.776123,5,16.5,5S16,5.223877,16,5.5V11c0,2.2091675-1.7908325,4-4,4s-4-1.7908325-4-4V5.5C8,5.223877,7.776123,5,7.5,5S7,5.223877,7,5.5V11C7.0032349,13.7600708,9.2399292,15.9967651,12,16z M17.5,18h-11C6.223877,18,6,18.223877,6,18.5S6.223877,19,6.5,19h11c0.276123,0,0.5-0.223877,0.5-0.5S17.776123,18,17.5,18z"/></svg>