<svg xmlns="http://www.w3.org/2000/svg" enable-background="new 0 0 24 24" viewBox="0 0 24 24"><path fill="#6563ff" d="M21.6728516,4.53125l-9.5-3.5c-0.1115723-0.0410156-0.2341309-0.0410156-0.3457031,0l-9.5,3.5C2.1305542,4.6034546,1.999939,4.7905884,2,5v3.5C1.9998169,8.776001,2.2234497,8.9998169,2.4993896,9C2.4996338,9,2.4998169,9,2.5,9H4v8.0505371C2.836792,17.2893677,2.0013428,18.3125,2,19.5v2c-0.0001831,0.276001,0.2234497,0.4998169,0.4993896,0.5C2.4996338,22,2.4998169,22,2.5,22h19c0.276001,0.0001831,0.4998169-0.2234497,0.5-0.4994507c0-0.0001831,0-0.0003662,0-0.0005493v-2c-0.0013428-1.1875-0.836792-2.2106323-2-2.4494629V9h1.5c0.276001,0.0001831,0.4998169-0.2234497,0.5-0.4994507C22,8.5003662,22,8.5001831,22,8.5V5C22.000061,4.7905884,21.8694458,4.6034546,21.6728516,4.53125z M21,19.5V21H3v-1.5c0.0009155-0.828064,0.671936-1.4990845,1.5-1.5h15C20.328064,18.0009155,20.9990845,18.671936,21,19.5z M5,17V9h3v8H5z M9,17V9h6v8H9z M16,17V9h3v8H16z M21,8H3V5.3486328l9-3.3154297l9,3.3154297V8z"/></svg>