<svg xmlns="http://www.w3.org/2000/svg" enable-background="new 0 0 24 24" viewBox="0 0 24 24"><path fill="#6563ff" d="M17,9H8V7C7.9996948,5.6627808,8.6677856,4.4139404,9.7802734,3.6719971c1.8375244-1.2254028,4.3204956-0.729248,5.5458984,1.1082764c0.3580322,0.5293579,0.5800171,1.1387939,0.6464844,1.7744141c0.0305786,0.2738647,0.2769775,0.4714355,0.5509033,0.4417114c0.2745972-0.0297852,0.4730225-0.2764893,0.4432373-0.5510864c-0.083252-0.7962646-0.3616943-1.5596924-0.8105469-2.2226562c-0.1818848-0.2709961-0.3898926-0.5234985-0.6210938-0.7539062C14.6029663,2.522583,13.328186,1.992981,12,2C9.2399292,2.0032349,7.0032349,4.2399292,7,7v2c-1.6561279,0.0018311-2.9981689,1.3438721-3,3v7c0.0018311,1.6561279,1.3438721,2.9981689,3,3h10c1.6561279-0.0018311,2.9981689-1.3438721,3-3v-7C19.9981689,10.3438721,18.6561279,9.0018311,17,9z M19,19c-0.0014038,1.1040039-0.8959961,1.9985962-2,2H7c-1.1040039-0.0014038-1.9985962-0.8959961-2-2v-7c0.0014038-1.1040039,0.8959961-1.9985962,2-2h10c1.1040039,0.0014038,1.9985962,0.8959961,2,2V19z M12,13c-0.276123,0-0.5,0.223877-0.5,0.5v4.0005493C11.5001831,17.7765503,11.723999,18.0001831,12,18h0.0006104c0.2759399-0.0001831,0.4995728-0.223999,0.4993896-0.5v-4C12.5,13.223877,12.276123,13,12,13z"/></svg>