<svg xmlns="http://www.w3.org/2000/svg" enable-background="new 0 0 24 24" viewBox="0 0 24 24"><path fill="#6563ff" d="M10.75,8h4.75C15.776123,8,16,7.776123,16,7.5S15.776123,7,15.5,7h-3V5.5C12.5,5.223877,12.276123,5,12,5s-0.5,0.223877-0.5,0.5V7h-0.75C9.2312012,7,8,8.2312012,8,9.75s1.2312012,2.75,2.75,2.75h2.5c0.9664917,0,1.75,0.7835083,1.75,1.75S14.2164917,16,13.25,16H8.5C8.223877,16,8,16.223877,8,16.5S8.223877,17,8.5,17h3v1.5005493C11.5001831,18.7765503,11.723999,19.0001831,12,19h0.0006104c0.2759399-0.0001831,0.4995728-0.223999,0.4993896-0.5V17h0.75c1.5187988,0,2.75-1.2312012,2.75-2.75s-1.2312012-2.75-2.75-2.75h-2.5C9.7835083,11.5,9,10.7164917,9,9.75S9.7835083,8,10.75,8z M19,2H5C3.3438721,2.0018311,2.0018311,3.3438721,2,5v14c0.0018311,1.6561279,1.3438721,2.9981689,3,3h14c1.6561279-0.0018311,2.9981689-1.3438721,3-3V5C21.9981689,3.3438721,20.6561279,2.0018311,19,2z M21,19c-0.0014038,1.1040039-0.8959961,1.9985962-2,2H5c-1.1040039-0.0014038-1.9985962-0.8959961-2-2V5c0.0014038-1.1040039,0.8959961-1.9985962,2-2h14c1.1040039,0.0014038,1.9985962,0.8959961,2,2V19z"/></svg>