<svg xmlns="http://www.w3.org/2000/svg" enable-background="new 0 0 24 24" viewBox="0 0 24 24"><path fill="#6563ff" d="M14.3792725,13.3696899C15.9318237,12.5210571,16.9978027,10.8936157,17,9c0-2.7614136-2.2385864-5-5-5S7,6.2385864,7,9c0,1.8936157,1.0650635,3.5214233,2.6171265,4.3700562c-3.0588379,0.9574585-5.3679199,3.706665-5.5907593,7.0967407c-0.0181885,0.2755737,0.1903076,0.5137329,0.4658203,0.5322266c0.0112305,0.0011597,0.0224609,0.0018921,0.0336914,0.0022583c0.2669067,0.0084229,0.4901123-0.2011719,0.4985352-0.4680786c0.2295532-3.5004272,3.0177612-6.2886963,6.5181885-6.5181885c3.8525391-0.2526245,7.1804199,2.6656494,7.4329834,6.5181885C18.9933472,20.7957764,19.2114258,20.9998169,19.4746094,21c0.0107422,0,0.0214844,0,0.0332031-0.0009766c0.2755737-0.0184937,0.4840088-0.2566528,0.4658203-0.5322266C19.7530518,17.1099243,17.4705811,14.3337402,14.3792725,13.3696899z M12,13c-2.2091675,0-4-1.7908325-4-4s1.7908325-4,4-4c2.208252,0.0021973,3.9978027,1.791748,4,4C16,11.2091675,14.2091675,13,12,13z M23.3534546,13.6465454L22.2069092,12.5l1.1465454-1.1465454c0.1871948-0.1937256,0.1871948-0.5009155,0-0.6947021c-0.1918335-0.1986084-0.5083618-0.2041016-0.7069702-0.0122681l-1.1465454,1.1465454l-1.1464844-1.1464844c-0.1937256-0.1871948-0.5009155-0.1871948-0.6947021,0c-0.1986084,0.1918335-0.2041016,0.5083618-0.0122681,0.7069702L20.7929688,12.5l-1.1464844,1.1464844c-0.09375,0.09375-0.1464233,0.2208862-0.1464233,0.3534546c0,0.276123,0.2238159,0.5,0.499939,0.500061c0.1326294,0.0001221,0.2598267-0.0526123,0.3534546-0.1465454l1.1464844-1.1464844l1.1465454,1.1465454C22.7401123,14.4474487,22.8673706,14.5001831,23,14.5c0.1325073-0.000061,0.2595825-0.0526733,0.3533325-0.1463623C23.548645,14.1583862,23.5487061,13.8417969,23.3534546,13.6465454z"/></svg>