<svg xmlns="http://www.w3.org/2000/svg" enable-background="new 0 0 24 24" viewBox="0 0 24 24"><path fill="#6563ff" d="M17.3809204,13.3710938C18.934082,12.5227661,20,10.8944092,20,9c0-2.7614136-2.2385864-5-5-5c-0.140625,0.0025635-0.2809448,0.0146484-0.4199219,0.0361328l-0.1357422,0.0175781c-0.0012207,0.0001221-0.0024414,0.0002441-0.0036621,0.0004272c-0.2744141,0.0317383-0.4711304,0.2799072-0.4393921,0.5543213c0.0317993,0.2744141,0.2799683,0.4711304,0.5543823,0.4393921l0.1591797-0.0205078C14.8092041,5.0118408,14.9044189,5.0027466,15,5c2.2091675,0,4,1.7908325,4,4s-1.7908325,4-4,4c-0.276123,0-0.5,0.223877-0.5,0.5S14.723877,14,15,14c3.6798096,0.008728,6.7261353,2.8618774,6.9755859,6.5332031C21.9933472,20.7957764,22.2114258,20.9998169,22.4746094,21c0.0107422,0,0.0214844,0,0.0332031-0.0009766c0.2755127-0.0184937,0.4840088-0.2566528,0.4658203-0.5322266C22.7439575,17.0975952,20.4518433,14.3356323,17.3809204,13.3710938z M11.3793945,13.3696289C12.9319458,12.5209961,13.9978027,10.8936157,14,9c0-2.7614136-2.2385864-5-5-5S4,6.2385864,4,9c0,1.8936157,1.0650635,3.5214233,2.6171265,4.3700562c-3.0588379,0.9575195-5.3679199,3.706665-5.5907593,7.0967407c-0.0181885,0.2755737,0.1903076,0.5137329,0.4658203,0.5322266c0.0041504,0.0003052,0.0083618,0.0006104,0.0125122,0.0008545c0.2723999,0.0146484,0.5050659-0.1942749,0.5197144-0.4666748c0.2295532-3.5004272,3.0177612-6.2886963,6.5181885-6.5181885c3.8525391-0.2526245,7.1804199,2.6656494,7.4329834,6.5181885C15.9933472,20.7957764,16.2114258,20.9998169,16.4746094,21c0.0107422,0,0.0214844,0,0.0332031-0.0009766c0.2755737-0.0184937,0.4840088-0.2566528,0.4658203-0.5322266C16.7530518,17.1099243,14.4707031,14.3337402,11.3793945,13.3696289z M9,13c-2.2091675,0-4-1.7908325-4-4s1.7908325-4,4-4c2.208252,0.0021973,3.9978027,1.791748,4,4C13,11.2091675,11.2091675,13,9,13z"/></svg>