<svg xmlns="http://www.w3.org/2000/svg" enable-background="new 0 0 24 24" viewBox="0 0 24 24"><path fill="#6563ff" d="M23,11.5h-1.5V10c0-0.276123-0.223877-0.5-0.5-0.5s-0.5,0.223877-0.5,0.5v1.5H19c-0.276123,0-0.5,0.223877-0.5,0.5s0.223877,0.5,0.5,0.5h1.5V14c0,0.0001831,0,0.0003662,0,0.0005493C20.5001831,14.2765503,20.723999,14.5001831,21,14.5c0.0001831,0,0.0003662,0,0.0006104,0C21.2765503,14.4998169,21.5001831,14.276001,21.5,14v-1.5H23c0.276123,0,0.5-0.223877,0.5-0.5S23.276123,11.5,23,11.5z M14.3792725,13.3696899C15.9318237,12.5210571,16.9978027,10.8936157,17,9c0-2.7614136-2.2385864-5-5-5S7,6.2385864,7,9c0,1.8936157,1.0650635,3.5214233,2.6171265,4.3700562c-3.0588379,0.9574585-5.3679199,3.706665-5.5907593,7.0967407c-0.0181885,0.2755737,0.1903076,0.5137329,0.4658203,0.5322266c0.0126343,0.0013428,0.0252686,0.0021973,0.0379639,0.0025024c0.2658081,0.0072021,0.4871216-0.2025146,0.4942627-0.4683228c0.2295532-3.5004272,3.0177612-6.2886963,6.5181885-6.5181885c3.8525391-0.2526245,7.1804199,2.6656494,7.4329834,6.5181885C18.9933472,20.7957764,19.2114258,20.9998169,19.4746094,21c0.0107422,0,0.0214844,0,0.0332031-0.0009766c0.2755737-0.0184937,0.4840088-0.2566528,0.4658203-0.5322266C19.7530518,17.1099243,17.4705811,14.3337402,14.3792725,13.3696899z M12,13c-2.2091675,0-4-1.7908325-4-4s1.7908325-4,4-4c2.208252,0.0021973,3.9978027,1.791748,4,4C16,11.2091675,14.2091675,13,12,13z"/></svg>