<svg xmlns="http://www.w3.org/2000/svg" enable-background="new 0 0 24 24" viewBox="0 0 24 24"><path fill="#6563ff" d="M15.6,13.7C15.6,13.7,15.6,13.7,15.6,13.7c-0.3-0.1-0.6-0.2-0.9-0.3c2-1,3.3-3,3.3-5.4c0-3.3-2.7-6-6-6S6,4.7,6,8c0,2.4,1.4,4.4,3.3,5.4c-0.3,0.1-0.6,0.2-0.9,0.3c0,0,0,0,0,0c-3.2,1.2-5.7,4.1-6.3,7.7c0,0.3,0.1,0.5,0.4,0.6c0.3,0,0.5-0.1,0.6-0.4c0.5-3.1,2.6-5.7,5.4-6.8l3.1,3.1c0.1,0.1,0.2,0.1,0.4,0.1c0.1,0,0.3-0.1,0.4-0.1l3.1-3.1c2.8,1.2,4.9,3.7,5.4,6.9c0,0.2,0.2,0.4,0.5,0.4c0,0,0.1,0,0.1,0c0.3,0,0.5-0.3,0.4-0.6C21.3,17.9,18.9,14.9,15.6,13.7z M7,8c0-2.8,2.2-5,5-5c2.8,0,5,2.2,5,5c0,0.3,0,0.7-0.1,1H7.1C7,8.7,7,8.3,7,8z M7.4,10h9.2c-0.8,1.8-2.5,3-4.6,3S8.2,11.8,7.4,10z M12,16.8l-2.4-2.4c0.3-0.1,0.7-0.2,1-0.2c1.3-0.2,2.6-0.1,3.9,0.2L12,16.8z"/></svg>