<svg xmlns="http://www.w3.org/2000/svg" enable-background="new 0 0 24 24" viewBox="0 0 24 24"><path fill="#6563ff" d="M14.0007935,12.3638916C14.9042969,11.730957,15.4985962,10.6865234,15.5,9.5C15.5,7.5670166,13.9329834,6,12,6S8.5,7.5670166,8.5,9.5c0,1.1803589,0.588501,2.2191772,1.4835815,2.8530884c-2.1329346,0.7600708-3.7488403,2.6903687-3.9806519,5.0932007c-0.000061,0.0002441-0.000061,0.0004883-0.0001221,0.0007324c-0.0294189,0.274353,0.1691284,0.5206299,0.4434814,0.5500488c0.2734375,0.026062,0.5178223-0.1706543,0.5507812-0.4433594c0.2263794-2.40271,2.1288452-4.3051147,4.5314941-4.5315552c2.7630615-0.2603149,5.2139893,1.7684937,5.4743652,4.5315552C17.0302124,17.807251,17.2440186,17.9995728,17.4990234,18c0.0182495,0,0.036499-0.0009766,0.0546875-0.0029297c0.0002441,0,0.0004883-0.000061,0.0007324-0.000061c0.274292-0.0298462,0.4724731-0.2764282,0.442627-0.5507202C17.7681885,15.0739136,16.1668701,13.1298828,14.0007935,12.3638916z M12,12c-1.3807373,0-2.5-1.1192627-2.5-2.5S10.6192627,7,12,7c1.380188,0.0012817,2.4987183,1.119812,2.5,2.5C14.5,10.8807373,13.3807373,12,12,12z M19.5,2h-15C3.119812,2.0012817,2.0012817,3.119812,2,4.5v15c0.0012817,1.380188,1.119812,2.4987183,2.5,2.5h15c1.380188-0.0012817,2.4987183-1.119812,2.5-2.5v-15C21.9987183,3.119812,20.880188,2.0012817,19.5,2z M21,19.5c-0.0009155,0.828064-0.671936,1.4990845-1.5,1.5h-15c-0.828064-0.0009155-1.4990845-0.671936-1.5-1.5v-15C3.0009155,3.671936,3.671936,3.0009155,4.5,3h15c0.828064,0.0009155,1.4990845,0.671936,1.5,1.5V19.5z"/></svg>