<svg xmlns="http://www.w3.org/2000/svg" enable-background="new 0 0 24 24" viewBox="0 0 24 24"><path fill="#6563ff" d="M14.3793945,13.3696289C15.9319458,12.5209961,16.9978027,10.8936157,17,9c0-2.7614136-2.2385864-5-5-5S7,6.2385864,7,9c0,1.8936157,1.0650635,3.5214233,2.6171265,4.3700562c-3.0587769,0.9575195-5.3679199,3.706665-5.5906982,7.0967407c-0.0001831,0.0026855-0.0003662,0.0054321-0.0005493,0.0081177c-0.0160522,0.2757568,0.194397,0.5123291,0.4701538,0.5284424c0.2757568,0.0160522,0.5123291-0.194397,0.5283813-0.4701538c0.2295532-3.5004272,3.0177612-6.2886963,6.5181885-6.5181885c3.8525391-0.2526245,7.1804199,2.6656494,7.4329834,6.5181885C18.9933472,20.7957764,19.2114258,20.9998169,19.4746094,21c0.0107422,0,0.0214844,0,0.0332642-0.0009766c0.2755127-0.0184937,0.4840088-0.2566528,0.4658203-0.5322266C19.7531128,17.1099243,17.4707031,14.3337402,14.3793945,13.3696289z M12,13c-2.2091675,0-4-1.7908325-4-4s1.7908325-4,4-4c2.2081909,0.0023804,3.9976196,1.7918091,4,4C16,11.2091675,14.2091675,13,12,13z M23.3534546,9.9866333c-0.1932983-0.1972046-0.5098267-0.2003784-0.7070312-0.0070801l-2.3134766,2.3134766l-0.9794922-0.9794922c-0.194397-0.1905518-0.5054321-0.1905518-0.6998291,0c-0.1972046,0.1932373-0.2004395,0.5097656-0.0071411,0.7069702l1.3330078,1.3330078c0.0936279,0.0939331,0.2208862,0.1466675,0.3535156,0.1464844c0.1326294,0.0001221,0.2598267-0.0525513,0.3534546-0.1464844l2.6669922-2.6669922C23.5439453,10.4921265,23.5439453,10.1810303,23.3534546,9.9866333z"/></svg>