<svg xmlns="http://www.w3.org/2000/svg" enable-background="new 0 0 24 24" viewBox="0 0 24 24"><path fill="#6563ff" d="M15.6,14.7C15.6,14.7,15.6,14.7,15.6,14.7c-0.3-0.1-0.6-0.2-0.9-0.3c2.5-1.3,3.9-4.2,3.1-7l0.4-2c0,0,0,0,0,0c0.2-1.4-0.7-2.7-2-2.9l-1-0.2c-2.1-0.4-4.2-0.4-6.3,0l-1,0.2c0,0,0,0,0,0C6.4,2.7,5.6,4,5.8,5.4l0.4,2C6.1,7.9,6,8.5,6,9c0,2.4,1.4,4.4,3.3,5.4c-0.3,0.1-0.6,0.2-0.9,0.3c0,0,0,0,0,0c-3.2,1.2-5.7,4.1-6.3,7.8c0,0.3,0.1,0.5,0.4,0.6c0.3,0,0.5-0.1,0.6-0.4c0.5-3.1,2.6-5.7,5.4-6.9l3.1,3.1c0.1,0.1,0.2,0.1,0.4,0.1c0.1,0,0.3-0.1,0.4-0.1l3.1-3.1c2.8,1.2,4.9,3.7,5.4,6.9c0,0.2,0.2,0.4,0.5,0.4c0,0,0.1,0,0.1,0c0.3,0,0.5-0.3,0.4-0.6C21.3,18.8,18.9,15.9,15.6,14.7z M6.8,5.2C6.7,4.4,7.2,3.6,8,3.4l1-0.2c1.9-0.4,3.9-0.4,5.9,0l1,0.2c0,0,0,0,0,0c0.8,0.2,1.3,0.9,1.2,1.8L16.8,7H7.2L6.8,5.2C6.8,5.2,6.8,5.2,6.8,5.2z M7.1,8h9.8c0.2,0.8,0.1,1.6-0.1,2.4c-0.8,2.6-3.6,4.2-6.2,3.4C8.1,13,6.6,10.5,7.1,8z M12,17.8l-2.4-2.4c0.3-0.1,0.7-0.2,1-0.2c1.3-0.2,2.7-0.1,3.9,0.2L12,17.8z"/></svg>