<svg xmlns="http://www.w3.org/2000/svg" enable-background="new 0 0 24 24" viewBox="0 0 24 24"><path fill="#6563ff" d="M14.9892578,10.4091797c0.4685059,0.4691162,1.1045532,0.7323608,1.7675781,0.7314453c0.6633301,0.0010376,1.2997437-0.262146,1.7684937-0.7315063l2.828125-2.828125c0.0024414-0.0023193,0.0047607-0.0046997,0.0071411-0.0070801c0.1932373-0.1972046,0.1900635-0.5137329-0.0071411-0.7070312c-0.1971436-0.1932373-0.5136719-0.1900635-0.7069702,0.0071411l-2.828125,2.828125c-0.586792,0.5839844-1.5352173,0.5839844-2.1220703,0l-0.3530273-0.3530273l3.8891602-3.8892212c0.0023804-0.0023193,0.0046997-0.0046997,0.0070801-0.0070801c0.1932373-0.1971436,0.1900635-0.5137329-0.0070801-0.7069702c-0.1972046-0.1932983-0.5137329-0.1901245-0.7070312,0.0070801l-3.8891602,3.8891602l-0.3540039-0.3540039c-0.5849609-0.5859985-0.5849609-1.5350342,0-2.1210938l2.8291016-2.828125c0.0023804-0.0023804,0.0047607-0.0047607,0.0070801-0.0071411c0.1932983-0.1972046,0.1900635-0.5137329-0.0070801-0.7069702c-0.1972046-0.1932983-0.5137329-0.1901245-0.7070312,0.0070801l-2.8291016,2.828125c-0.9746094,0.9768677-0.9746094,2.5582886,0,3.5351562l0.3540039,0.3540039l-1.9439087,1.9439087L9.7962646,9.1044312c1.0198975-1.4406128,0.8676147-3.440979-0.4486084-4.6913452C8.0615234,3.1259766,4.6362305,1.6298828,3.125,3.1396484C1.6137695,4.6513672,3.1108398,8.0761719,4.3980103,9.3623047c0.6781006,0.6876221,1.5933838,1.0900879,2.5585327,1.124939c0.0400391,0.0020142,0.0795898,0.0020142,0.1191406,0.0020142c0.7346802,0.0063477,1.4394531-0.2372437,2.0239868-0.6674805l2.1785889,2.1782837l-8.6317749,8.6317749c-0.09375,0.09375-0.1463623,0.2208862-0.1464233,0.3534546c0,0.276123,0.2238159,0.5,0.499939,0.500061c0.1326294,0.0001831,0.2598877-0.0525513,0.3535156-0.1464844l8.9605713-8.9606323c0.0090942-0.0078125,0.0209961-0.0111694,0.029541-0.0197144c0.008606-0.008606,0.0115356-0.0200806,0.0194092-0.0291748l2.2731934-2.2731934L14.9892578,10.4091797z M8.7822876,8.796875C8.307312,9.2677612,7.6569824,9.5184326,6.9888306,9.4882812C6.2775879,9.4611206,5.6036987,9.163147,5.1050415,8.6552734C3.9882812,7.5390625,2.9380493,4.7412109,3.8320312,3.8466797c0.288208-0.2440796,0.6610107-0.3648071,1.0375977-0.3359375C6.2704468,3.6137085,7.597168,4.1799316,8.640686,5.1201172C9.690918,6.0982056,9.7541504,7.7408447,8.7822876,8.796875z M15.1738281,14.4815063c-0.194397-0.1904907-0.5054932-0.1904907-0.6998901,0c-0.1972046,0.1932373-0.2003784,0.5097656-0.0071411,0.7069702l6.1796875,6.1796875C20.7401123,21.4620972,20.8673706,21.5148315,21,21.5146484c0.1325073-0.000061,0.2596436-0.0526733,0.3533936-0.1463623c0.1952515-0.1952515,0.1953125-0.5118408,0.0001221-0.7071533L15.1738281,14.4815063z"/></svg>