<svg xmlns="http://www.w3.org/2000/svg" enable-background="new 0 0 24 24" viewBox="0 0 24 24"><path fill="#6563ff" d="M18,2c-0.276123,0-0.5,0.223877-0.5,0.5v6.2324219l-2,1.3336182V2.5C15.5,2.223877,15.276123,2,15,2s-0.5,0.223877-0.5,0.5v7.56604l-2-1.3336182V2.5C12.5,2.223877,12.276123,2,12,2s-0.5,0.223877-0.5,0.5V9c0.000061,0.1671753,0.0835571,0.3232422,0.2226562,0.4160156L14.5,11.2675781V21.5c0,0.0001831,0,0.0003662,0,0.0005493C14.5001831,21.7765503,14.723999,22.0001831,15,22c0.0001831,0,0.0003662,0,0.0006104,0c0.2759399-0.0001831,0.4995728-0.223999,0.4993896-0.5V11.2675781l2.7773438-1.8515625C18.4162598,9.3231201,18.4997559,9.1671143,18.5,9V2.5C18.5,2.223877,18.276123,2,18,2z M8.4990234,2L7.9951172,2.0009766C5.2369385,2.006897,3.0031738,4.2427979,3,7.0009766V13.5c0,0.0001831,0,0.0003662,0,0.0005493C3.0001831,13.7765503,3.223999,14.0001831,3.5,14H8v7.5c0,0.0001831,0,0.0003662,0,0.0005493C8.0001831,21.7765503,8.223999,22.0001831,8.5,22c0.0001831,0,0.0003662,0,0.0006104,0C8.7765503,21.9998169,9.0001831,21.776001,9,21.5v-8v-1v-10c0.000061-0.1326904-0.0528564-0.2599487-0.1469727-0.3535156C8.7626953,2.0473633,8.6329346,1.9936523,8.4990234,2z M4,13V7.0009766c0.0026245-2.206665,1.789856-3.9954224,3.996582-4L8,13H4z"/></svg>