<svg xmlns="http://www.w3.org/2000/svg" enable-background="new 0 0 24 24" viewBox="0 0 24 24"><path fill="#6563ff" d="M19,9c0-3.8659668-3.1340332-7-7-7S5,5.1340332,5,9c0,3.6971436,2.8684082,6.7174072,6.5,6.9747314V18.5h-2C9.223877,18.5,9,18.723877,9,19s0.223877,0.5,0.5,0.5h2v2.0005493C11.5001831,21.7765503,11.723999,22.0001831,12,22h0.0006104c0.2759399-0.0001831,0.4995728-0.223999,0.4993896-0.5v-2h2c0.276123,0,0.5-0.223877,0.5-0.5s-0.223877-0.5-0.5-0.5h-2v-2.5258179C16.1295776,15.7128296,18.9954834,12.6952515,19,9z M12,15c-3.3137207,0-6-2.6862793-6-6s2.6862793-6,6-6c3.3121948,0.0036011,5.9963989,2.6878052,6,6C18,12.3137207,15.3137207,15,12,15z"/></svg>