<svg xmlns="http://www.w3.org/2000/svg" enable-background="new 0 0 24 24" viewBox="0 0 24 24"><path fill="#6563ff" d="M2.5,10h3h13h0.0006104H21.5c0.276123,0,0.5-0.223877,0.5-0.5S21.776123,9,21.5,9H19V4.5c0-0.0001831,0-0.0003662,0-0.0006104C18.9998169,4.2234497,18.776001,3.9998169,18.5,4h-13C5.4998169,4,5.4996338,4,5.4993896,4C5.2234497,4.0001831,4.9998169,4.223999,5,4.5V9H2.5C2.223877,9,2,9.223877,2,9.5S2.223877,10,2.5,10z M6,5h12v4H6V5z M21.5,19H20v-6.5c0-0.0001831,0-0.0003662,0-0.0006104C19.9998169,12.2234497,19.776001,11.9998169,19.5,12h-15c-0.0001831,0-0.0003662,0-0.0006104,0C4.2234497,12.0001831,3.9998169,12.223999,4,12.5V19H2.5C2.223877,19,2,19.223877,2,19.5S2.223877,20,2.5,20h2h15h0.0006104H21.5c0.276123,0,0.5-0.223877,0.5-0.5S21.776123,19,21.5,19z M19,19H5v-6h14V19z"/></svg>