<svg xmlns="http://www.w3.org/2000/svg" enable-background="new 0 0 24 24" viewBox="0 0 24 24"><path fill="#6563ff" d="M21.5,11.5H18v-6c0-0.0001831,0-0.0003662,0-0.0006104C17.9998169,5.2234497,17.776001,4.9998169,17.5,5H13V2.5c0-0.0001831,0-0.0003662,0-0.0006104C12.9998169,2.2234497,12.776001,1.9998169,12.5,2h-6C6.4998169,2,6.4996338,2,6.4993896,2C6.2234497,2.0001831,5.9998169,2.223999,6,2.5v9H2.5C2.223877,11.5,2,11.723877,2,12s0.223877,0.5,0.5,0.5H6v9c0,0.0001831,0,0.0003662,0,0.0005493C6.0001831,21.7765503,6.223999,22.0001831,6.5,22h6c0.0001831,0,0.0003662,0,0.0006104,0C12.7765503,21.9998169,13.0001831,21.776001,13,21.5V19h4.5c0.0001831,0,0.0003662,0,0.0006104,0C17.7765503,18.9998169,18.0001831,18.776001,18,18.5v-6h3.5c0.276123,0,0.5-0.223877,0.5-0.5S21.776123,11.5,21.5,11.5z M12,5.5v13v0.0005493V21H7V3h5V5.5z M17,18h-4V6h4V18z"/></svg>