<svg xmlns="http://www.w3.org/2000/svg" enable-background="new 0 0 24 24" viewBox="0 0 24 24"><path fill="#6563ff" d="M21.5,15.5H20v-3.0006104C19.9998169,12.2234497,19.776001,11.9998169,19.5,12H4.4993896C4.2234497,12.0001831,3.9998169,12.223999,4,12.5v3H2.5C2.223877,15.5,2,15.723877,2,16s0.223877,0.5,0.5,0.5H4v3.0005493C4.0001831,19.7765503,4.223999,20.0001831,4.5,20h15.0006104C19.7765503,19.9998169,20.0001831,19.776001,20,19.5v-3h1.5c0.276123,0,0.5-0.223877,0.5-0.5S21.776123,15.5,21.5,15.5z M19,19H5v-6h14V19z M2.5,7.5H5v2.0005493C5.0001831,9.7765503,5.223999,10.0001831,5.5,10h13.0006104C18.7765503,9.9998169,19.0001831,9.776001,19,9.5v-2h2.5C21.776123,7.5,22,7.276123,22,7s-0.223877-0.5-0.5-0.5H19V4.4993896C18.9998169,4.2234497,18.776001,3.9998169,18.5,4H5.4993896C5.2234497,4.0001831,4.9998169,4.223999,5,4.5v2H2.5C2.223877,6.5,2,6.723877,2,7S2.223877,7.5,2.5,7.5z M6,5h12v4H6V5z"/></svg>