<svg xmlns="http://www.w3.org/2000/svg" enable-background="new 0 0 24 24" viewBox="0 0 24 24"><path fill="#6563ff" d="M2.5,5H4v6.5c0,0.0001831,0,0.0003662,0,0.0005493C4.0001831,11.7765503,4.223999,12.0001831,4.5,12h15c0.0001831,0,0.0003662,0,0.0006104,0C19.7765503,11.9998169,20.0001831,11.776001,20,11.5V5h1.5C21.776123,5,22,4.776123,22,4.5S21.776123,4,21.5,4h-2h-15H4.4993896H2.5C2.223877,4,2,4.223877,2,4.5S2.223877,5,2.5,5z M5,5h14v6H5V5z M21.5,14h-3h-13H5.4993896H2.5C2.223877,14,2,14.223877,2,14.5S2.223877,15,2.5,15H5v4.5c0,0.0001831,0,0.0003662,0,0.0005493C5.0001831,19.7765503,5.223999,20.0001831,5.5,20h13c0.0001831,0,0.0003662,0,0.0006104,0C18.7765503,19.9998169,19.0001831,19.776001,19,19.5V15h2.5c0.276123,0,0.5-0.223877,0.5-0.5S21.776123,14,21.5,14z M18,19H6v-4h12V19z"/></svg>