<svg xmlns="http://www.w3.org/2000/svg" enable-background="new 0 0 24 24" viewBox="0 0 24 24"><path fill="#6563ff" d="M21.5,21H18V8.5c0-0.0001831,0-0.0003662,0-0.0006104C17.9998169,8.2234497,17.776001,7.9998169,17.5,8H13V2.5c0-0.0001831,0-0.0003662,0-0.0006104C12.9998169,2.2234497,12.776001,1.9998169,12.5,2h-6C6.4998169,2,6.4996338,2,6.4993896,2C6.2234497,2.0001831,5.9998169,2.223999,6,2.5V21H2.5C2.223877,21,2,21.223877,2,21.5S2.223877,22,2.5,22h4h6h0.0006104H17.5h0.0006104H21.5c0.276123,0,0.5-0.223877,0.5-0.5S21.776123,21,21.5,21z M12,8.5V21H7V3h5V8.5z M17,21h-4V9h4V21z"/></svg>