<svg xmlns="http://www.w3.org/2000/svg" enable-background="new 0 0 24 24" viewBox="0 0 24 24"><path fill="#6563ff" d="M21.9470215,7.2755737c-0.1236572-0.2467041-0.4238892-0.3464966-0.6706543-0.2228394L17,9.190918V9c-0.0018311-1.6561279-1.3438721-2.9981689-3-3H5C3.3438721,6.0018311,2.0018311,7.3438721,2,9v6c0.0018311,1.6561279,1.3438721,2.9981689,3,3h9c1.6561279-0.0018311,2.9981689-1.3438721,3-3v-0.190918l4.2763672,2.1381836C21.3458252,16.9819336,21.4223633,16.999939,21.5,17c0.0005493,0,0.0010376,0,0.0015869,0C21.7772827,16.9995728,22.0004272,16.7756958,22,16.5v-9C22.000061,7.4221191,21.9819336,7.3452148,21.9470215,7.2755737z M16,10v4v1c-0.0014038,1.1040039-0.8959961,1.9985962-2,2H5c-1.1040039-0.0014038-1.9985962-0.8959961-2-2V9c0.0014038-1.1040039,0.8959961-1.9985962,2-2h9c1.1040039,0.0014038,1.9985962,0.8959961,2,2V10z M21,15.6914062l-4-2v-3.3828125l4-2V15.6914062z"/></svg>