<svg xmlns="http://www.w3.org/2000/svg" enable-background="new 0 0 24 24" viewBox="0 0 24 24"><path fill="#6563ff" d="M21.9470215,7.2755737c-0.1236572-0.2467041-0.4238892-0.3464966-0.6706543-0.2228394L17,9.190918V9c-0.0018311-1.6561279-1.3438721-2.9981689-3-3h-3.210022c-0.276123,0-0.5,0.223877-0.5,0.5s0.223877,0.5,0.5,0.5H14c1.1040039,0.0014038,1.9985962,0.8959961,2,2v1v2.2304688c0,0.0001831,0,0.0003662,0,0.0006104c0.0001831,0.2759399,0.223999,0.4995728,0.5,0.4993896c0.0001831,0,0.0003662,0,0.0006104,0c0.2759399-0.0001831,0.4995728-0.223999,0.4993896-0.5v-1.921875l4-2v7.3867188l-0.7109375-0.3505249c-0.0177002-0.0114746-0.0360718-0.0218506-0.0551147-0.0310059c-0.2496338-0.1204224-0.5496216-0.015686-0.6700439,0.2339478s-0.015686,0.5496216,0.2339478,0.6700439l1.4804688,0.7304688C21.3473511,16.9819946,21.4231567,16.9996948,21.5,17c0.276123-0.000061,0.499939-0.223877,0.5-0.5v-9C22.000061,7.4221191,21.9819336,7.3452148,21.9470215,7.2755737z M2.8534546,2.1465454c-0.1937256-0.1871948-0.5009155-0.1871948-0.6947021,0C1.960144,2.3383789,1.9546509,2.6549072,2.1464844,2.8535156L5.2929688,6H5C3.3438721,6.0018311,2.0018311,7.3438721,2,9v6c0.0018311,1.6561279,1.3438721,2.9981689,3,3h9c0.8774414-0.0029297,1.6859131-0.3979492,2.2502441-1.0427246l4.8962402,4.8962402C21.2401123,21.9474487,21.3673706,22.0001831,21.5,22c0.1325073-0.000061,0.2595825-0.0526733,0.3533325-0.1463623c0.1953125-0.1952515,0.1953735-0.5118408,0.0001221-0.7070923L2.8534546,2.1465454z M14,17H5c-1.1040039-0.0014038-1.9985962-0.8959961-2-2V9c0.0014038-1.1040039,0.8959961-1.9985962,2-2h1.2929688l9.2486572,9.2486572C15.1642456,16.7095947,14.6084595,16.9967041,14,17z"/></svg>