<svg xmlns="http://www.w3.org/2000/svg" enable-background="new 0 0 24 24" viewBox="0 0 24 24"><path fill="#6563ff" d="M18,8c-2.2091675,0-4,1.7908325-4,4c0,1.2015991,0.5407715,2.2667847,1.3795166,3H8.617981C9.4572754,14.2668457,9.9987793,13.2017212,10,12c0-2.2091675-1.7908325-4-4-4s-4,1.7908325-4,4s1.7908325,4,4,4h12c2.208252-0.0021973,3.9978027-1.791748,4-4C22,9.7908325,20.2091675,8,18,8z M6,15c-1.6568604,0-3-1.3431396-3-3s1.3431396-3,3-3c1.6561279,0.0018311,2.9981689,1.3438721,3,3C9,13.6568604,7.6568604,15,6,15z M18,15c-1.6568604,0-3-1.3431396-3-3s1.3431396-3,3-3c1.6561279,0.0018311,2.9981689,1.3438721,3,3C21,13.6568604,19.6568604,15,18,15z"/></svg>