<svg xmlns="http://www.w3.org/2000/svg" enable-background="new 0 0 24 24" viewBox="0 0 24 24"><path fill="#6563ff" d="M20,4H4C2.3438721,4.0018311,1.0018311,5.3438721,1,7v10c0.0018311,1.6561279,1.3438721,2.9981689,3,3h16c1.6561279-0.0018311,2.9981689-1.3438721,3-3V7C22.9981689,5.3438721,21.6561279,4.0018311,20,4z M22,17c-0.0014038,1.1040039-0.8959961,1.9985962-2,2H4c-1.1040039-0.0014038-1.9985962-0.8959961-2-2V7c0.0014038-1.1040039,0.8959961-1.9985962,2-2h16c1.1040039,0.0014038,1.9985962,0.8959961,2,2V17z M16,9c-1.6568604,0-3,1.3431396-3,3c0,0.7718506,0.2996826,1.4683838,0.7785645,2h-3.5588989c0.479248-0.5315552,0.77948-1.2280884,0.7803345-2c0-1.6568604-1.3431396-3-3-3s-3,1.3431396-3,3s1.3431396,3,3,3h8c1.6561279-0.0018311,2.9981689-1.3438721,3-3C19,10.3431396,17.6568604,9,16,9z M8,14c-1.1045532,0-2-0.8954468-2-2s0.8954468-2,2-2c1.1040039,0.0014038,1.9985962,0.8959961,2,2C10,13.1045532,9.1045532,14,8,14z M16,14c-1.1045532,0-2-0.8954468-2-2s0.8954468-2,2-2c1.1040039,0.0014038,1.9985962,0.8959961,2,2C18,13.1045532,17.1045532,14,16,14z"/></svg>