<svg xmlns="http://www.w3.org/2000/svg" enable-background="new 0 0 24 24" viewBox="0 0 24 24"><path fill="#6563ff" d="M12.0273438,2c-5.5153198-0.0075684-9.9924927,4.4573975-10,9.9726562c-0.0075684,5.5153198,4.4573364,9.9924316,9.9726562,10c5.5164795-0.0024414,9.9899902-4.4698486,10-9.9863281C22,6.4763794,17.5372925,2.0075073,12.0273438,2z M19.7203369,7.3937378c0.5223999,0.873291,0.9055786,1.8382568,1.1077271,2.8707886c-2.5644531-1.1419678-5.4962158-1.1601562-8.0891113-0.0310059c-1.0733032-0.6255493-1.9924927-1.4520264-2.7106323-2.4307251C12.9094238,5.8284302,16.6688232,5.6482544,19.7203369,7.3937378z M12,3c2.5098267,0.0009155,4.7774658,1.0311279,6.4098511,2.6888428c-2.9771118-1.0254517-6.2954712-0.5690918-8.9274292,1.2686768C8.9244995,5.984314,8.5501099,4.9064941,8.3884277,3.7670288C9.4939575,3.2786255,10.7139282,3.0019531,12,3z M5.1325073,6.2125244c0.6550293-0.7798462,1.4425659-1.4415283,2.3244629-1.9621582c0.5299072,2.9873047,2.3894043,5.5726318,5.0749512,7.0166626c-0.0556641,1.444397-0.4543457,2.8141479-1.1296387,4.0280762c-3.7288818-1.1880493-6.2895508-4.6509399-6.2909546-8.5949097C5.1113281,6.5350342,5.1223145,6.3737183,5.1325073,6.2125244z M3.0273438,12c-0.0024414-1.5870361,0.4102783-3.0761719,1.130249-4.3712769c0.3629761,3.9086304,2.9852905,7.258606,6.7095947,8.5444336c-0.9956055,1.3901978-2.3933716,2.484375-4.0525513,3.133728C4.5292969,17.6807861,3.0319214,15.0185547,3.0273438,12z M12.0366821,20.972168c-0.0031738,0-0.0061646,0.0004883-0.0093384,0.0004883c-1.5032959,0.0023193-2.9181519-0.3693848-4.1643066-1.0200806c3.4238892-1.6411133,5.6628418-5.098938,5.692627-8.9564819v-0.0006104c0-0.0040283-0.0021362-0.0073853-0.0021973-0.0114136c0.9124756-0.3455811,1.8617554-0.5383301,2.8184814-0.578064c0.2655029,0.8537598,0.4077759,1.7414551,0.4054565,2.6369629C16.7880249,16.3646851,14.9569702,19.4077759,12.0366821,20.972168z M14.2400513,20.6833496c2.2203369-1.8760986,3.5465698-4.65802,3.5373535-7.6403809c0.0025024-0.8865356-0.1193848-1.7671509-0.354126-2.6196899c1.2271118,0.0922852,2.4342651,0.4334106,3.548584,1.024292C20.9828491,11.62677,20.9996338,11.8044434,21,11.9863281C21,16.178833,18.1245117,19.6912842,14.2400513,20.6833496z"/></svg>