<svg xmlns="http://www.w3.org/2000/svg" enable-background="new 0 0 24 24" viewBox="0 0 24 24"><path fill="#6563ff" d="M11.1875,4.109375L6.3242188,8H2.5C2.4998169,8,2.4996338,8,2.4993896,8C2.2234497,8.0001831,1.9998169,8.223999,2,8.5v7c0,0.0001831,0,0.0003662,0,0.0005493C2.0001831,15.7765503,2.223999,16.0001831,2.5,16h3.8242188L11.1875,19.890625C11.2762451,19.9614258,11.3864746,20,11.5,20c0.2759399-0.0005493,0.4994507-0.2240601,0.5-0.5v-15c-0.0001221-0.1131592-0.0386353-0.2229004-0.1091919-0.3114014C11.7184448,3.9725342,11.4035645,3.9370728,11.1875,4.109375z M11,18.460022l-4.1875-3.350647C6.7235718,15.0388184,6.6135254,15.0003052,6.5,15H3V9h3.5c0.1135254-0.0003052,0.2235718-0.0388184,0.3125-0.109375L11,5.539978V18.460022z M16.5566406,8.9433594c-0.213562-0.1747437-0.5283813-0.1432495-0.703125,0.0703125s-0.1432495,0.5283813,0.0703125,0.703125c0.2107544,0.1744385,0.3963623,0.3771362,0.5516357,0.602356c0.9307251,1.3502808,0.5906372,3.1993408-0.7596436,4.1300659c-0.1348267,0.0933228-0.215332,0.2467651-0.2154541,0.4107666C15.5001831,15.1361084,15.723877,15.3601685,16,15.3603516c0.1016235,0.0003662,0.2008667-0.0307007,0.2841797-0.0888672C17.3582153,14.5285034,17.9994507,13.3059692,18,12C18.0037231,10.8157349,17.4735107,9.6928711,16.5566406,8.9433594z M19.1288452,5.875c-0.2124634-0.1763916-0.52771-0.1470947-0.7041016,0.0654297c-0.1763306,0.2125244-0.1470337,0.52771,0.0654297,0.7041016c0.4830933,0.4019165,0.9095459,0.8673706,1.2677612,1.383728c2.1921387,3.15979,1.4076538,7.4983521-1.7521362,9.6904907c-0.1347656,0.0933228-0.215271,0.2467651-0.2153931,0.4107666c-0.0002441,0.276123,0.2234497,0.5001831,0.4995728,0.5003662c0.1016235,0.0003052,0.2008667-0.0307007,0.2841797-0.0888672c0.5916138-0.4101562,1.1248169-0.8986206,1.585083-1.4520874C22.9713745,13.7077637,22.5100708,8.6871338,19.1288452,5.875z"/></svg>