<svg xmlns="http://www.w3.org/2000/svg" enable-background="new 0 0 24 24" viewBox="0 0 24 24"><path fill="#6563ff" d="M16.8908081,4.1885986C16.7184448,3.9725342,16.4035645,3.9370728,16.1875,4.109375L11.3242188,8H6.5C6.4998169,8,6.4996338,8,6.4993896,8C6.2234497,8.0001831,5.9998169,8.223999,6,8.5v7c0,0.0001831,0,0.0003662,0,0.0005493C6.0001831,15.7765503,6.223999,16.0001831,6.5,16h4.8242188L16.1875,19.890625C16.2762451,19.9614258,16.3864746,20,16.5,20c0.2759399-0.0005493,0.4994507-0.2240601,0.5-0.5v-15C16.9998779,4.3868408,16.9613647,4.2770996,16.8908081,4.1885986z M16,18.460022l-4.1875-3.350647C11.7235718,15.0388184,11.6135254,15.0003052,11.5,15H7V9h4.5c0.1135254-0.0003052,0.2235718-0.0388184,0.3125-0.109375L16,5.539978V18.460022z"/></svg>