<svg xmlns="http://www.w3.org/2000/svg" enable-background="new 0 0 24 24" viewBox="0 0 24 24"><path fill="#6563ff" d="M11.1875,4.109375L6.324707,8H1.4993896C1.2234497,8.0001831,0.9998169,8.223999,1,8.5v7.0005493C1.0001831,15.7765503,1.223999,16.0001831,1.5,16h4.824707l4.862793,3.890625C11.2762451,19.9614868,11.3864136,20.000061,11.5,20c0.2759399-0.0005493,0.4994507-0.2240601,0.5-0.5v-15c-0.0001221-0.1131592-0.0386353-0.2229004-0.1091919-0.3114014C11.7184448,3.9725342,11.4035645,3.9370728,11.1875,4.109375z M11,18.460022l-4.1875-3.350647C6.7236328,15.0387573,6.6135254,15.0001831,6.5,15H2V9h4.5c0.1135254-0.0002441,0.2236328-0.0387573,0.3125-0.109375L11,5.539978V18.460022z M20.8534546,14.6465454L18.2069092,12l2.6465454-2.6465454c0.1871948-0.1937256,0.1871948-0.5009155,0-0.6947021c-0.1918335-0.1986084-0.5083618-0.2041016-0.7069702-0.0122681l-2.6465454,2.6465454l-2.6464844-2.6464844c-0.1937256-0.1871338-0.5009155-0.1871338-0.6947021,0c-0.1986084,0.1918335-0.2041016,0.5083618-0.0122681,0.7069702L16.7929688,12l-2.6464844,2.6464844c-0.09375,0.09375-0.1464233,0.2208862-0.1464233,0.3534546C14,15.276062,14.223877,15.499939,14.5,15.5c0.1326294,0.0001221,0.2598267-0.0526123,0.3534546-0.1465454l2.6464844-2.6464844l2.6465454,2.6465454C20.2401123,15.4474487,20.3673706,15.5001831,20.5,15.5c0.1325073-0.000061,0.2595825-0.0526733,0.3533325-0.1463623C21.048645,15.1583862,21.0487061,14.8417969,20.8534546,14.6465454z"/></svg>