<svg xmlns="http://www.w3.org/2000/svg" enable-background="new 0 0 24 24" viewBox="0 0 24 24"><path fill="#6563ff" d="M11.1875,4.109375L6.3242188,8H2.4993896C2.2234497,8.0001831,1.9998169,8.223999,2,8.5v7.0005493C2.0001831,15.7765503,2.223999,16.0001831,2.5,16h3.8242188L11.1875,19.890625C11.2762451,19.9614258,11.3864746,20,11.5,20c0.2759399-0.0005493,0.4994507-0.2240601,0.5-0.5v-15c-0.0001221-0.1131592-0.0386353-0.2229004-0.1091919-0.3114014C11.7184448,3.9725342,11.4035645,3.9370728,11.1875,4.109375z M11,18.460022l-4.1875-3.350647C6.7235718,15.0388184,6.6135254,15.0003052,6.5,15H3V9h3.5c0.1135254-0.0003052,0.2235718-0.0388184,0.3125-0.109375L11,5.539978V18.460022z M14.5332031,4.0263672c-0.0111694-0.0010986-0.0223389-0.0018311-0.0335693-0.0021973c-0.2669067-0.0084839-0.4901733,0.2011108-0.4986572,0.4680176c-0.0181885,0.2755737,0.1903076,0.5137939,0.4658203,0.5322266c3.5004272,0.2295532,6.2886963,3.0177612,6.5181885,6.5181885c0.2526245,3.8525391-2.6656494,7.1804199-6.5181885,7.4329834c-0.2625122,0.0176392-0.4664917,0.2355957-0.4666138,0.4987183C14.000061,19.7504883,14.2238159,19.9744873,14.5,19.9746094c0.0107422,0,0.0214844,0,0.0332031-0.0009766c4.0003662-0.2628784,7.1867065-3.4492188,7.449585-7.449585C22.2722168,8.1203003,18.9368896,4.3157959,14.5332031,4.0263672z M14.4287109,14.9541016c-0.2459106,0.0353394-0.4286499,0.2457886-0.4290161,0.4942627c-0.0004272,0.2761841,0.2230835,0.5004272,0.4993286,0.5008545c0.0241699-0.0001831,0.0482788-0.00177,0.0722656-0.0048828c1.7596436-0.2473145,3.1425781-1.6303101,3.3899536-3.3899536c0.3061523-2.1784058-1.2115479-4.1925659-3.3899536-4.4987183c-0.272583-0.0360718-0.5241089,0.1521606-0.5664062,0.4238281c-0.0390625,0.2733765,0.1505127,0.5267334,0.4238281,0.5664062c1.3206787,0.1838989,2.3588257,1.2220459,2.5427246,2.5427856C17.1986084,13.2201538,16.0601807,14.7269287,14.4287109,14.9541016z"/></svg>