<svg xmlns="http://www.w3.org/2000/svg" enable-background="new 0 0 24 24" viewBox="0 0 24 24"><path fill="#6563ff" d="M19,8.5c0.0001831,0,0.0003662,0,0.0006104,0H21c0.276123,0,0.5-0.223877,0.5-0.5S21.276123,7.5,21,7.5h-1.5v-3H21c0.276123,0,0.5-0.223877,0.5-0.5S21.276123,3.5,21,3.5H3C2.723877,3.5,2.5,3.723877,2.5,4S2.723877,4.5,3,4.5h3.5v3H3C2.723877,7.5,2.5,7.723877,2.5,8S2.723877,8.5,3,8.5h1.5v3H3c-0.276123,0-0.5,0.223877-0.5,0.5s0.223877,0.5,0.5,0.5h2c0.0001831,0,0.0003662,0,0.0006104,0H6.5v3H3c-0.276123,0-0.5,0.223877-0.5,0.5s0.223877,0.5,0.5,0.5h1.5v3H3c-0.276123,0-0.5,0.223877-0.5,0.5s0.223877,0.5,0.5,0.5h2c0.0001831,0,0.0003662,0,0.0006104,0H11c0.0001831,0,0.0003662,0,0.0006104,0H17c0.0001831,0,0.0003662,0,0.0006104,0H21c0.276123,0,0.5-0.223877,0.5-0.5s-0.223877-0.5-0.5-0.5h-3.5v-3H19c0.0001831,0,0.0003662,0,0.0006104,0H21c0.276123,0,0.5-0.223877,0.5-0.5s-0.223877-0.5-0.5-0.5h-1.5v-3H21c0.276123,0,0.5-0.223877,0.5-0.5s-0.223877-0.5-0.5-0.5h-3.5v-3H19z M13.0006104,8.5H16.5v3h-5v-3H13C13.0001831,8.5,13.0003662,8.5,13.0006104,8.5z M7.5,4.5h5v3h-5V4.5z M5.5,11.5v-3H7c0.0001831,0,0.0003662,0,0.0006104,0H10.5v3H5.5z M10.5,19.5h-5v-3H7c0.0001831,0,0.0003662,0,0.0006104,0H10.5V19.5z M7.5,15.5v-3H11c0.0001831,0,0.0003662,0,0.0006104,0H12.5v3H7.5z M16.5,19.5h-5v-3H13c0.0001831,0,0.0003662,0,0.0006104,0H16.5V19.5z M18.5,12.5v3h-5v-3H17c0.0001831,0,0.0003662,0,0.0006104,0H18.5z M13.5,7.5v-3h5v3H13.5z"/></svg>