<svg xmlns="http://www.w3.org/2000/svg" enable-background="new 0 0 24 24" viewBox="0 0 24 24"><path fill="#6563ff" d="M16.0009766,6.7811279V2.4994507c-0.0001221-0.276001-0.223999-0.4996338-0.5-0.4994507H6.499939C6.223938,2.0001831,6.0003052,2.223999,6.0004883,2.5v4.2799072C5.3913574,7.3289185,5.0009766,8.1156006,5,9v6c0.0009766,0.8843994,0.3913574,1.6710815,1.0004883,2.2200928v4.2804565c0.0001831,0.276001,0.223999,0.4996338,0.5,0.4994507h9.0010986c0.2759399-0.0001831,0.4995728-0.223999,0.4993896-0.5v-4.2811279C16.609314,16.6699219,16.9990234,15.883728,17,15V9C16.9990234,8.116272,16.609314,7.3300781,16.0009766,6.7811279z M7.0004883,3h8.0004883v3.1849365C14.6865234,6.0727539,14.3529053,6.0003662,14,6H8C7.647644,6.0003662,7.3145142,6.0725708,7.0004883,6.1844482V3z M15.0009766,21H7.0004883v-3.1844482C7.3145142,17.9274292,7.647644,17.9996338,8,18h6c0.3529053-0.0003662,0.6865234-0.0727539,1.0009766-0.1849365V21z M16,15c-0.0014038,1.1040039-0.8959961,1.9985962-2,2H8c-1.1040649-0.0012817-1.9987183-0.8959351-2-2V9c0.0012817-1.1040649,0.8959351-1.9987183,2-2h6c1.1040039,0.0014038,1.9985962,0.8959961,2,2V15z"/></svg>