<svg xmlns="http://www.w3.org/2000/svg" enable-background="new 0 0 24 24" viewBox="0 0 24 24"><path fill="#6563ff" d="M16.9466553,8.6057739l-0.9525146-6.1819458C15.9569092,2.1798096,15.7468872,1.9996338,15.5,2h-7C8.2531128,1.9996338,8.0430298,2.1798096,8.0058594,2.4238892L7.0539551,8.6075439C6.3907471,9.5727539,6.0009766,10.7404175,6.0009766,12c0,1.2596436,0.3897705,2.4273682,1.0530396,3.3925781l0.9528198,6.1835938C8.0440674,21.8201904,8.2541504,22.0003662,8.5009766,22h7c0.2468872,0.0003662,0.4569092-0.1798096,0.4941406-0.4238281l0.9523926-6.1873779C17.6099243,14.4243774,17.9996338,13.2581177,18.0009766,12C18.0009766,10.739624,17.6105957,9.5713501,16.9466553,8.6057739z M8.9287109,3h6.1425781l0.6637573,4.3084106C14.7098999,6.491394,13.4137573,6,12.0009766,6c-1.4133911,0-2.710083,0.4918213-3.7354736,1.3095093L8.9287109,3z M15.0722656,21H8.9296875l-0.6638794-4.3092651C9.2911377,17.5082397,10.5877686,18,12.0009766,18c1.4133301-0.0015259,2.7097778-0.4941406,3.7349243-1.3123169L15.0722656,21z M12.0009766,17c-2.7614136,0-5-2.2385864-5-5s2.2385864-5,5-5c2.7601318,0.0032349,4.9967651,2.2399292,5,5C17.0009766,14.7614136,14.7624512,17,12.0009766,17z"/></svg>