<svg xmlns="http://www.w3.org/2000/svg" enable-background="new 0 0 24 24" viewBox="0 0 24 24"><path fill="#6563ff" d="M21.8,21.1L18.7,18c0-0.1-0.1-0.2-0.2-0.2c0,0,0,0,0,0L7.7,7c0-0.1-0.1-0.1-0.1-0.2c0,0-0.1-0.1-0.2-0.1L2.9,2.1C2.7,2,2.4,2,2.2,2.1C2,2.3,2,2.7,2.2,2.9l4.4,4.4C5,9.3,4.2,11.8,4.1,14.4c0.1,4.3,3.6,7.7,7.9,7.6c2.5,0,4.8-1.1,6.3-3l2.9,2.9c0.1,0.1,0.2,0.1,0.4,0.1c0.1,0,0.3-0.1,0.4-0.1C22,21.7,22,21.3,21.8,21.1z M12,21c-3.7,0.1-6.8-2.9-6.9-6.6C5.2,12.1,5.9,9.8,7.3,8l10.3,10.3C16.2,20,14.2,21,12,21z M9.5,5.2c0.8-0.8,1.6-1.5,2.5-2.1c1.3,0.9,6.9,5.3,6.9,11.3c0,0.2,0,0.4,0,0.6c0,0,0,0,0,0.1c0,0.3,0.2,0.5,0.5,0.5c0.3,0,0.5-0.2,0.5-0.4c0-0.3,0-0.5,0-0.8c0-7.3-7.3-12.1-7.6-12.3c-0.2-0.1-0.4-0.1-0.5,0c-1,0.7-2,1.5-2.9,2.4C8.6,4.7,8.6,5,8.8,5.2S9.3,5.4,9.5,5.2z"/></svg>