<svg xmlns="http://www.w3.org/2000/svg" enable-background="new 0 0 24 24" viewBox="0 0 24 24"><path fill="#6563ff" d="M18.4992676,7.0010986c-0.2750854-0.0205688-0.5147705,0.18573-0.5354004,0.4608154l-0.434021,5.6419678c-0.0429077-0.0036011-0.0852051-0.0112305-0.1294556-0.0042725c-0.8926392-0.0061646-1.739563-0.3956909-2.3251953-1.0693359c-0.0076904-0.0082397-0.015625-0.0161743-0.0238647-0.0238647c-0.2070923-0.1939087-0.5322266-0.1832275-0.7261353,0.0238647c-0.1019897,0.1189575-0.2128906,0.2299194-0.3318481,0.3318481c-1.2841797,1.1008911-3.2176514,0.9523315-4.3185425-0.3318481c-0.0076904-0.0082397-0.015625-0.0161743-0.0238647-0.0238647C9.4438477,11.8125,9.1187134,11.8231812,8.9248047,12.0302734c-0.5856323,0.673645-1.4325562,1.0631714-2.3251953,1.0693359c-0.0299683,0.0015259-0.0599976,0.0004883-0.0898438-0.0029297c-0.0054932-0.0009766-0.0110474-0.0018921-0.0166016-0.0026855c-0.0081787-0.0011597-0.015625,0.0021362-0.0237427,0.0013428L6.0360718,7.4619141c0-0.0005493-0.000061-0.0010376-0.0001221-0.0015869C6.0145264,7.1853027,5.7741089,6.9797363,5.4990845,7.0012207S5.0185547,7.2630615,5.039978,7.5380859l0.8994751,11.6914062C6.0658569,20.7896118,7.3654785,21.9932861,8.9306641,22h6.1386719c1.5651855-0.0067139,2.8648071-1.2103882,2.9912109-2.7705078l0.8994141-11.6914062c0.000061-0.0005493,0.000061-0.0010376,0.0001221-0.0015869C18.9806519,7.2614136,18.774353,7.0217285,18.4992676,7.0010986z M17.0644531,19.1533203C16.979126,20.1932373,16.1127319,20.9951782,15.0693359,21H8.9306641c-1.043396-0.0048218-1.9098511-0.8067627-1.9951782-1.8466797l-0.3890381-5.057251c0.0177612,0.0003052,0.0353394,0.0039062,0.0531616,0.00354c0.9959717-0.00354,1.9562988-0.3709717,2.7001953-1.0332031c1.5565796,1.3242188,3.843811,1.3242188,5.4003906,0c0.7438965,0.6622314,1.7042236,1.0296631,2.7001953,1.0332031c0.0177612,0.0003662,0.0353394-0.0032349,0.0531006-0.00354L17.0644531,19.1533203z M12,10c1.7249756-0.0022583,3.1227417-1.4000854,3.125-3.125061c0-2.8563843-2.7314453-4.711853-2.8476562-4.789978c-0.1692505-0.1134033-0.3905029-0.1121826-0.5585938,0.0029297C11.6025391,2.1660156,8.875,4.0527344,8.875,6.875C8.8772583,8.5999146,10.2750854,9.9977417,12,10z M12.0020142,3.1289062C13.2111206,4.0180664,13.9833984,5.3808594,14.125,6.875C14.125,8.048584,13.173584,9,12,9S9.875,8.048584,9.875,6.875C10.0256348,5.3827515,10.7977295,4.0228882,12.0020142,3.1289062z"/></svg>