<svg xmlns="http://www.w3.org/2000/svg" enable-background="new 0 0 24 24" viewBox="0 0 24 24"><path fill="#6563ff" d="M2.8583984,7.1708984c0.2374878,0.0696411,0.4654541,0.168335,0.6787109,0.2938843c1.1123657,0.651001,2.4901123,0.6480103,3.5996094-0.0078125c0.9468994-0.5341187,2.1039429-0.5352173,3.0518188-0.0028687c1.1221924,0.6425781,2.5007935,0.6425781,3.6229858,0c0.947937-0.5322876,2.1049194-0.531189,3.0517578,0.0029297c0.5578613,0.3198853,1.1890259,0.4898071,1.8320312,0.4931641c0.6222534,0.0009155,1.2330933-0.1668091,1.7676392-0.4853516c0.2132568-0.1256104,0.4412231-0.2243042,0.6787109-0.2939453c0.2599487-0.079834,0.4084473-0.3527832,0.3342285-0.6143799c-0.0753174-0.265686-0.3517456-0.4199829-0.6174316-0.3446045c-0.317688,0.0926514-0.6224976,0.2248535-0.9072266,0.3935547c-0.8048096,0.4645996-1.7979736,0.4570923-2.5957031-0.0195312c-1.2559814-0.704834-2.7883911-0.7044067-4.0440063,0.0009766c-0.8120117,0.4667969-1.8109741,0.4667969-2.6229858,0c-1.2558594-0.7044067-2.7877808-0.704834-4.0440063-0.0009766C5.8471069,7.0635376,4.8533325,7.0710449,4.0488281,6.6054688c-0.284729-0.1687012-0.5895386-0.3009033-0.9072266-0.3935547C2.8800049,6.1376953,2.6070557,6.2861938,2.5272217,6.5461426C2.446167,6.8101196,2.5944214,7.0898438,2.8583984,7.1708984z M20.8585205,16.2119141c-0.317688,0.0926514-0.6224976,0.2248535-0.9072266,0.3935547c-0.8047485,0.4645996-1.7979736,0.4570923-2.5957031-0.0195312c-1.2559814-0.704834-2.7883911-0.7044067-4.0440063,0.0009766c-0.8120117,0.4667969-1.8109741,0.4667969-2.6229858,0c-1.2558594-0.7044067-2.7877808-0.7047729-4.0440063-0.0009766c-0.7973022,0.4780884-1.7913208,0.4855957-2.5957031,0.0195312c-0.284729-0.1687012-0.5895386-0.3009033-0.9072266-0.3935547c-0.2615967-0.0742188-0.5345459,0.0742798-0.6143799,0.3342285c-0.0810547,0.2639771,0.0671997,0.5437012,0.3311768,0.6247559c0.2374878,0.0696411,0.4654541,0.168335,0.6787109,0.2939453c1.1123657,0.6509399,2.4901123,0.6479492,3.5996094-0.0078125c0.9468994-0.5341187,2.1038818-0.5352173,3.0517578-0.0029297c1.1221924,0.6425781,2.5007935,0.6425781,3.6229858,0c0.947937-0.5322876,2.1049194-0.531189,3.0517578,0.0029297c0.5578613,0.3198853,1.1890259,0.4898071,1.8320312,0.4931641c0.6222534,0.0009155,1.2331543-0.1668091,1.7677002-0.4853516c0.2132568-0.1256104,0.4412231-0.2243042,0.6787109-0.2939453c0.2599487-0.079834,0.4083862-0.3527832,0.3342285-0.6143799C21.4006348,16.2908936,21.1242065,16.1365967,20.8585205,16.2119141z M20.8585205,11.2119141c-0.317688,0.0926514-0.6224976,0.2248535-0.9072266,0.3935547c-0.8047485,0.4645996-1.7979736,0.4570923-2.5957031-0.0195312c-1.2559814-0.704834-2.7883911-0.7044067-4.0440063,0.0009766c-0.8120117,0.4667969-1.8109741,0.4667969-2.6229858,0c-1.2558594-0.7044067-2.7877808-0.704834-4.0440063-0.0009766c-0.7973022,0.4780884-1.7913208,0.4855957-2.5957031,0.0195312c-0.284729-0.1687012-0.5895386-0.3009033-0.9072266-0.3935547c-0.2615967-0.0742188-0.5345459,0.0742798-0.6143799,0.3342285c-0.0810547,0.2639771,0.0671997,0.5437012,0.3311768,0.6247559c0.2374878,0.0696411,0.4654541,0.168335,0.6787109,0.2939453c1.1123657,0.6509399,2.4901123,0.6479492,3.5996094-0.0078125c0.9468994-0.5341187,2.1038818-0.5352173,3.0517578-0.0029297c1.1221924,0.6425781,2.5007935,0.6425781,3.6229858,0c0.947937-0.5322876,2.1049194-0.531189,3.0517578,0.0029297c0.5578613,0.3198853,1.1890259,0.4898071,1.8320312,0.4931641c0.6222534,0.0009155,1.2331543-0.1668091,1.7677002-0.4853516c0.2132568-0.1256104,0.4412231-0.2243042,0.6787109-0.2939453c0.2599487-0.079834,0.4083862-0.3527832,0.3342285-0.6143799C21.4006348,11.2908936,21.1242065,11.1365967,20.8585205,11.2119141z"/></svg>