<svg xmlns="http://www.w3.org/2000/svg" enable-background="new 0 0 24 24" viewBox="0 0 24 24"><path fill="#6563ff" d="M12,13c1.7,0,3-1.3,3-3c0-1.7-1.3-3-3-3s-3,1.3-3,3S10.3,13,12,13z M12,8c1.1,0,2,0.9,2,2c0,1.1-0.9,2-2,2s-2-0.9-2-2S10.9,8,12,8z M21.6,18.4c-0.5-1.7-1.4-3.3-2.6-4.6c0.6-1.1,1-2.4,1-3.8c0-4.4-3.6-8-8-8s-8,3.6-8,8c0,1.4,0.3,2.7,1,3.8c-1.2,1.3-2.2,2.9-2.6,4.6c-0.2,0.9-0.1,1.8,0.5,2.5c0.5,0.6,1.2,1,2,1h14.2c0.8,0,1.6-0.4,2-1C21.7,20.2,21.9,19.3,21.6,18.4z M12,3c3.9,0,7,3.1,7,7c0,1.3-0.4,2.6-1,3.6c0,0,0,0,0,0c-0.4,0.7-1,1.4-1.7,1.9c0,0-0.1,0-0.1,0.1c-0.2,0.1-0.4,0.3-0.6,0.4c0,0-0.1,0.1-0.1,0.1c-0.1,0.1-0.3,0.2-0.4,0.2c-0.1,0-0.1,0.1-0.2,0.1c-0.1,0.1-0.3,0.1-0.4,0.2c-0.1,0-0.2,0.1-0.3,0.1c-0.1,0-0.2,0.1-0.4,0.1c-0.1,0-0.2,0.1-0.3,0.1c-0.1,0-0.2,0-0.3,0.1c-0.1,0-0.3,0-0.4,0.1c-0.1,0-0.2,0-0.3,0c-0.1,0-0.3,0-0.4,0c-0.1,0-0.2,0-0.3,0c-0.1,0-0.3,0-0.4,0c-0.1,0-0.2,0-0.3,0c-0.1,0-0.2,0-0.3,0c-0.1,0-0.3,0-0.4-0.1c-0.1,0-0.2,0-0.3-0.1c-0.1,0-0.3-0.1-0.4-0.1c-0.1,0-0.2-0.1-0.2-0.1c-0.1-0.1-0.3-0.1-0.4-0.2c-0.1,0-0.1-0.1-0.2-0.1c-0.1-0.1-0.3-0.1-0.4-0.2c-0.1,0-0.1-0.1-0.2-0.1c-0.1-0.1-0.2-0.2-0.3-0.2c-0.1,0-0.1-0.1-0.2-0.2c-0.1-0.1-0.2-0.2-0.3-0.3c-0.1,0-0.1-0.1-0.2-0.2C7.1,15,7,14.9,6.9,14.8c0,0-0.1-0.1-0.1-0.1c-0.1-0.1-0.3-0.3-0.4-0.4c0,0,0,0,0-0.1C6.2,14,6.1,13.8,6,13.6c0,0,0,0,0,0c-0.6-1.1-1-2.3-1-3.6C5,6.1,8.1,3,12,3z M20.3,20.4C20,20.8,19.6,21,19.1,21H4.9c-0.5,0-1-0.2-1.2-0.6c-0.4-0.5-0.5-1.1-0.3-1.7c0.4-1.5,1.2-2.9,2.2-4c0.5,0.7,1.1,1.3,1.8,1.8c0,0,0,0,0,0c0,0,0,0,0,0c0.2,0.1,0.3,0.2,0.5,0.3C8,16.9,8,16.9,8.1,17c0.2,0.1,0.3,0.2,0.5,0.3c0.1,0,0.1,0.1,0.2,0.1c0.2,0.1,0.3,0.1,0.5,0.2c0.1,0,0.2,0.1,0.3,0.1c0.1,0,0.3,0.1,0.4,0.1c0.1,0,0.2,0.1,0.4,0.1c0.1,0,0.2,0,0.3,0.1c0.1,0,0.3,0.1,0.4,0.1c0.1,0,0.2,0,0.3,0c0.2,0,0.3,0,0.5,0c0,0,0.1,0,0.1,0c0.1,0,0.1,0,0.2,0c0.2,0,0.3,0,0.5,0c0.1,0,0.2,0,0.3,0c0.1,0,0.3,0,0.4-0.1c0.1,0,0.2,0,0.4-0.1c0.1,0,0.3-0.1,0.4-0.1c0.1,0,0.2-0.1,0.4-0.1c0.1,0,0.3-0.1,0.4-0.1c0.1,0,0.2-0.1,0.3-0.1c0.1-0.1,0.3-0.1,0.4-0.2c0.1,0,0.2-0.1,0.3-0.2c0.1-0.1,0.3-0.2,0.4-0.2c0.1-0.1,0.2-0.1,0.3-0.2c0.1-0.1,0.2-0.2,0.4-0.3c0.1-0.1,0.2-0.1,0.3-0.2c0.1-0.1,0.2-0.2,0.3-0.3c0.1-0.1,0.2-0.2,0.3-0.3c0.1-0.1,0.1-0.2,0.2-0.2c0.1-0.1,0.2-0.3,0.4-0.4c0,0,0.1-0.1,0.1-0.1c1,1.1,1.8,2.5,2.2,4C20.8,19.3,20.7,19.9,20.3,20.4z"/></svg>