<svg xmlns="http://www.w3.org/2000/svg" enable-background="new 0 0 24 24" viewBox="0 0 24 24"><path fill="#6563ff" d="M14.5,17h-5C9.223877,17,9,17.223877,9,17.5S9.223877,18,9.5,18h5c0.276123,0,0.5-0.223877,0.5-0.5S14.776123,17,14.5,17z M19.5,4h-1.6912231c-0.2317505-1.1409302-1.2400513-1.9997559-2.4494019-2h-6.71875C8.5365601,2,8.4325562,2.0064697,8.3292847,2.0194092C7.2385254,2.15625,6.411438,2.9799194,6.2020874,4H4.5C3.119873,4.0014648,2.0014648,5.119873,2,6.5v13c0.0014648,1.380127,1.119873,2.4985352,2.5,2.5h15c1.380188-0.0012817,2.4987183-1.119812,2.5-2.5v-13C21.9987183,5.119812,20.880188,4.0012817,19.5,4z M8.640625,3h6.71875c0.0621948,0,0.1243286,0.0038452,0.1860352,0.0115356c0.8218384,0.1026611,1.4049072,0.8521118,1.3022461,1.6740112l-0.625,5.0009766C16.1278076,10.4364624,15.4902954,10.9990845,14.734375,11h-3.2672729l1.8082886-3.6035156c0.0006714-0.0012817,0.0012817-0.0025635,0.0019531-0.0039062c0.1229858-0.2472534,0.0222168-0.5474243-0.2250977-0.6704102c-0.2472534-0.1229858-0.5474243-0.0221558-0.6704102,0.2250977L10.3481445,11H9.265625c-0.7562866-0.0009766-1.3938599-0.5640869-1.4882812-1.3144531l-0.625-5C7.1447144,4.6243286,7.1408691,4.5626831,7.1408691,4.5010376C7.1405029,3.6723633,7.8120117,3.0003662,8.640625,3z M21,19.5c-0.0009155,0.828064-0.671936,1.4990845-1.5,1.5h-15c-0.828064-0.0009155-1.4990845-0.671936-1.5-1.5v-13C3.0009155,5.671936,3.671936,5.0009155,4.5,5h1.6838379l0.6013184,4.8095703C6.942688,11.0599976,8.0053101,11.9983521,9.265625,12h5.46875c1.2598877-0.0018921,2.3222046-0.9395752,2.4804688-2.1894531L17.8161621,5H19.5c0.828064,0.0009155,1.4990845,0.671936,1.5,1.5V19.5z"/></svg>