<svg xmlns="http://www.w3.org/2000/svg" enable-background="new 0 0 24 24" viewBox="0 0 24 24"><path fill="#6563ff" d="M21.5,2h-2c-0.0210571,0-0.0390625,0.0094604-0.0594482,0.0120239c-0.0289917,0.0038452-0.0563354,0.0083618-0.0838623,0.0169067c-0.0374756,0.0114136-0.071106,0.0266113-0.104248,0.0460205c-0.0211182,0.0123291-0.0404053,0.0249634-0.0595093,0.0401611c-0.0306396,0.0244141-0.0565186,0.0511475-0.0806274,0.0820312c-0.0163574,0.0206909-0.0306396,0.0415649-0.0437012,0.0648193c-0.0174561,0.0313721-0.0300903,0.0635376-0.0404663,0.0986328c-0.0053711,0.017395-0.0167236,0.0313721-0.0203247,0.0496216L18.3551025,6h-2.1391602l-3.1485596-3.1298828C11.9191284,1.7506104,10.0883789,1.7484131,8.9375,2.8652344L5.7840576,6H2.5C2.413147,5.999939,2.3278198,6.022522,2.2523193,6.0654907C2.0125122,6.2020874,1.928833,6.5072632,2.0654297,6.7470703l4.526062,7.9561768L5.355835,17.1600342C5.0878296,17.0618896,4.802063,17,4.5,17C3.1192627,17,2,18.1192627,2,19.5S3.1192627,22,4.5,22c1.380188-0.0012817,2.4987183-1.119812,2.5-2.5c0-0.7171631-0.3059082-1.3592529-0.7896118-1.8151245l1.2737427-2.5325317l2.8847046-0.3483276l4.0452271,6.0719604c0.4459839,0.7017822,1.2212524,1.1251831,2.0527344,1.1210938c0.3231812-0.000061,0.6434326-0.0606079,0.9442749-0.1786499c1.1109009-0.4207153,1.7634277-1.5742798,1.5517578-2.7431641l-0.9483032-5.6082153L19.9176025,3H21.5C21.776123,3,22,2.776123,22,2.5S21.776123,2,21.5,2z M4.5,21C3.6715698,21,3,20.3284302,3,19.5S3.6715698,18,4.5,18c0.828064,0.0009155,1.4990845,0.671936,1.5,1.5C6,20.3284302,5.3284302,21,4.5,21z M9.6473999,3.5693359c0.753418-0.737915,1.9592896-0.7357788,2.710022,0.0048828L14.7976685,6H7.2023315L9.6473999,3.5693359z M17.3270264,20.741394c-0.6906738,0.4586182-1.6223145,0.2705688-2.0809937-0.420105l-3.7651367-5.6515503l5.6130981-0.6778564l0.8825073,5.2474365C18.0759888,19.8243408,17.8214111,20.4130859,17.3270264,20.741394z M17.0848389,12.9864502l-9.6561279,1.1658936L3.359375,7h14.8139038L17.0848389,12.9864502z"/></svg>