<svg xmlns="http://www.w3.org/2000/svg" enable-background="new 0 0 24 24" viewBox="0 0 24 24"><path fill="#6563ff" d="M19.5,21H18v-5.5c0-0.0001831,0-0.0003662,0-0.0006104C17.9998169,15.2234497,17.776001,14.9998169,17.5,15H12v-3h5.5c0.276123,0,0.5-0.223877,0.5-0.5S17.776123,11,17.5,11H12V7.5C12,7.223877,11.776123,7,11.5,7S11,7.223877,11,7.5v8c0,0.0001831,0,0.0003662,0,0.0005493C11.0001831,15.7765503,11.223999,16.0001831,11.5,16c0.0001831,0,0.0003662,0,0.0006104,0H17v5.5c0,0.0001831,0,0.0003662,0,0.0005493C17.0001831,21.7765503,17.223999,22.0001831,17.5,22h0.0006104H19.5c0.276123,0,0.5-0.223877,0.5-0.5S19.776123,21,19.5,21z M14.6229858,18.0574951c-0.2454224-0.1266479-0.5470581-0.0304565-0.6737671,0.2149658c-0.7062378,1.3851929-2.0169678,2.3627319-3.5460205,2.6447144c-2.7142944,0.5004272-5.3203735-1.2941895-5.8208008-4.0084839c-0.5004883-2.7142334,1.2941284-5.3203125,4.0084229-5.8208008c0.2718506-0.0501709,0.4515381-0.3111572,0.4013672-0.5830078s-0.3111572-0.4515381-0.5830078-0.4013672c-2.8453369,0.5252686-4.9101562,3.006958-4.9092407,5.9003906C3.5010376,19.3165283,6.1873779,22.0010986,9.5,22c2.2547607,0.0039062,4.3197632-1.2615967,5.3398438-3.2724609C14.9637451,18.4825439,14.8669434,18.1834717,14.6229858,18.0574951z M12,6c1.1040039-0.0014038,1.9985962-0.8959961,2-2c0-1.1045532-0.8954468-2-2-2s-2,0.8954468-2,2S10.8954468,6,12,6z M12,3c0.552124,0.0003662,0.9996338,0.447876,1,1c0,0.5523071-0.4476929,1-1,1s-1-0.4476929-1-1S11.4476929,3,12,3z"/></svg>