<svg xmlns="http://www.w3.org/2000/svg" enable-background="new 0 0 24 24" viewBox="0 0 24 24"><path fill="#6563ff" d="M20,17.050415V16.5c-0.0010986-1.2089233-0.8594971-2.2167358-2-2.4491577V7h1.5C19.776123,7,20,6.776123,20,6.5S19.776123,6,19.5,6H6V4.5C5.9987183,3.119812,4.880188,2.0012817,3.5,2h-1C2.223877,2,2,2.223877,2,2.5S2.223877,3,2.5,3h1C4.328064,3.0009155,4.9990845,3.671936,5,4.5v7.9221191C3.2355957,13.1943359,2,14.9508057,2,17c0,2.7614136,2.2385864,5,5,5c2.7600708-0.0032349,4.9967651-2.2399292,5-5c0-0.7122192-0.1537476-1.3867798-0.4221191-2H17.5c0.828064,0.0009155,1.4990845,0.671936,1.5,1.5v0.550415c-1.1411133,0.2316895-2,1.2401123-2,2.449585c0,1.3807373,1.1192627,2.5,2.5,2.5c1.380188-0.0012817,2.4987183-1.119812,2.5-2.5C22,18.2905273,21.1411133,17.2821045,20,17.050415z M7,21c-2.2091675,0-4-1.7908325-4-4s1.7908325-4,4-4c2.208252,0.0021973,3.9978027,1.791748,4,4C11,19.2091675,9.2091675,21,7,21z M17,14h-6c-0.006897,0-0.0125732,0.0036011-0.0194092,0.0039062C10.0680542,12.7938843,8.6323242,12,7,12c-0.3425293,0-0.6768188,0.0351562-1,0.100769V11h11V14z M17,10H6V7h11V10z M19.5,21c-0.8284302,0-1.5-0.6715698-1.5-1.5s0.6715698-1.5,1.5-1.5c0.828064,0.0009155,1.4990845,0.671936,1.5,1.5C21,20.3284302,20.3284302,21,19.5,21z M7,16.375c-0.3451538,0-0.625,0.2798462-0.625,0.625S6.6548462,17.625,7,17.625S7.625,17.3451538,7.625,17S7.3451538,16.375,7,16.375z"/></svg>