<svg xmlns="http://www.w3.org/2000/svg" enable-background="new 0 0 24 24" viewBox="0 0 24 24"><path fill="#6563ff" d="M12,15c-1.6568604,0-3,1.3431396-3,3s1.3431396,3,3,3c1.6561279-0.0018311,2.9981689-1.3438721,3-3C15,16.3431396,13.6568604,15,12,15z M12,20c-1.1045532,0-2-0.8954468-2-2s0.8954468-2,2-2c1.1040039,0.0014038,1.9985962,0.8959961,2,2C14,19.1045532,13.1045532,20,12,20z M22.6065063,7.3936157l-0.0007324-0.0007324C16.7479858,1.5354614,7.2509766,1.5358276,1.3936157,7.3936157C1.3894043,7.397644,1.3853149,7.4017334,1.3812866,7.4058838C1.1894531,7.6044922,1.1949463,7.9210205,1.3936157,8.112854c0.1986084,0.1918945,0.5151367,0.1863403,0.7069702-0.0122681C2.100708,8.1004639,2.1008911,8.1003418,2.1010132,8.1001587c5.4672852-5.467041,14.3313599-5.4668579,19.7984009,0.0004272c0.0936279,0.0939331,0.2208862,0.1466675,0.3535156,0.1464844l0.000061,0.000061c0.1325684-0.000061,0.2597046-0.0526733,0.3534546-0.1464233C22.8016968,7.9054565,22.8017578,7.5888672,22.6065063,7.3936157z M7.0498657,13.0498657c-0.0042114,0.0040283-0.0083008,0.0081177-0.0123291,0.0122681c-0.1918335,0.1986084-0.1863403,0.5151978,0.0123291,0.7070312c0.1986084,0.1918335,0.5151367,0.1862793,0.7069702-0.0123291c2.3438721-2.3424683,6.1424561-2.3424683,8.4863281,0c0.0936279,0.0939331,0.2208862,0.1466675,0.3535156,0.1464844l0.000061,0.000061c0.1325684-0.000061,0.2597046-0.0526733,0.3534546-0.1464233c0.1952515-0.1952515,0.1953125-0.5118408,0.000061-0.7070923C14.2159424,10.3167725,9.7841187,10.3167725,7.0498657,13.0498657z M4.2217407,10.2216797c-0.0024414,0.0023804-0.0048218,0.0047607-0.0072021,0.0072021c-0.1932373,0.1972046-0.1900635,0.5137329,0.0072021,0.7069702c0.1972046,0.1932983,0.5137329,0.1900635,0.7069702-0.0071411c3.9055176-3.9049683,10.2370605-3.9049683,14.1425781,0c0.0936279,0.0939331,0.2208862,0.1466675,0.3535156,0.1464844v0.000061c0.1325684-0.000061,0.2597046-0.0527344,0.3534546-0.1464233c0.1953125-0.1952515,0.1953125-0.5118408,0.0001221-0.7071533C15.4823608,5.9261475,8.5177002,5.9261475,4.2217407,10.2216797z"/></svg>