<svg xmlns="http://www.w3.org/2000/svg" enable-background="new 0 0 24 24" viewBox="0 0 24 24"><path fill="#6563ff" d="M12,15c-1.6568604,0-3,1.3431396-3,3s1.3431396,3,3,3c1.6561279-0.0018311,2.9981689-1.3438721,3-3C15,16.3431396,13.6568604,15,12,15z M12,20c-1.1045532,0-2-0.8954468-2-2s0.8954468-2,2-2c1.1040039,0.0014038,1.9985962,0.8959961,2,2C14,19.1045532,13.1045532,20,12,20z M22.6035156,7.3964844c-3.7994385-3.7456055-9.2859497-5.222229-14.4521484-3.8896484C7.8859253,3.5786133,7.7281494,3.8511353,7.7980957,4.1170654c0.0702515,0.2672119,0.3438721,0.4268188,0.611084,0.3565674c4.8212891-1.2458496,9.942627,0.1324463,13.4873047,3.6298828C21.9901123,8.1974487,22.1173706,8.2501831,22.25,8.25c0.1325684,0,0.2597046-0.0526733,0.3534546-0.1464233C22.7987061,7.9083252,22.7987671,7.5917358,22.6035156,7.3964844z M12,8c2.6500244,0.0061646,5.1899414,1.0604248,7.0654297,2.9326172c0.093689,0.0946045,0.2213745,0.1477051,0.3544922,0.1474609c0.1320801,0,0.2587891-0.0523071,0.352478-0.1454468c0.1958008-0.1947021,0.1967163-0.5112915,0.0020142-0.7070923C17.7108154,8.1672974,14.9160156,7.007019,12,7h-0.210022c-0.276123,0-0.5,0.223877-0.5,0.5s0.223877,0.5,0.5,0.5H12z M2.8534546,2.1465454c-0.1937256-0.1871948-0.5009155-0.1871948-0.6947021,0C1.960144,2.3383789,1.9546509,2.6549072,2.1464844,2.8535156l2.2390747,2.2390747c-1.0856323,0.6439209-2.0932007,1.4121704-2.9890747,2.303894c-0.09375,0.09375-0.1464233,0.2208862-0.1464233,0.3534546C1.25,8.026062,1.473877,8.249939,1.75,8.25c0.1326294,0.0001831,0.2598877-0.0525513,0.3535156-0.1464844C3.0009155,7.2106934,4.017395,6.4492188,5.1164551,5.8234863l2.2294312,2.2294312c-1.1547241,0.5418701-2.2144165,1.269043-3.1193237,2.173645c-0.09375,0.09375-0.1464233,0.2208862-0.1464233,0.3534546c0,0.276123,0.2238159,0.5,0.499939,0.500061c0.1326294,0.0001831,0.2598877-0.0525513,0.3535767-0.1464844c0.9087524-0.9083252,1.9879761-1.6221313,3.1680908-2.1248169l2.3782959,2.3782959c-1.2896729,0.2876587-2.4837036,0.9188232-3.4321899,1.8588257c-0.0942993,0.093811-0.1473389,0.2213745-0.1473999,0.3544312c0,0.276123,0.2238159,0.5,0.499939,0.500061c0.1322021,0.0003662,0.2590942-0.052002,0.3526001-0.1455078c0.9711914-0.9625854,2.2418823-1.5493774,3.5963745-1.6984863l9.7971191,9.7971191C21.2401123,21.9474487,21.3673706,22.0001831,21.5,22c0.1325073-0.000061,0.2595825-0.0526733,0.3533325-0.1463623c0.1953125-0.1952515,0.1953735-0.5118408,0.0001221-0.7070923L2.8534546,2.1465454z"/></svg>