<svg xmlns="http://www.w3.org/2000/svg" enable-background="new 0 0 24 24" viewBox="0 0 24 24"><path fill="#6563ff" d="M9.5,17C9.223877,17,9,17.223877,9,17.5S9.223877,18,9.5,18s0.5-0.223877,0.5-0.5S9.776123,17,9.5,17z M7.5,17C7.223877,17,7,17.223877,7,17.5S7.223877,18,7.5,18S8,17.776123,8,17.5S7.776123,17,7.5,17z M5.5,17C5.223877,17,5,17.223877,5,17.5S5.223877,18,5.5,18S6,17.776123,6,17.5S5.776123,17,5.5,17z M22.0625,5.5c-0.6143799-1.064209-1.4981079-1.947876-2.5623169-2.5622559C16.1522827,1.0048828,11.8713379,2.1520386,9.9384766,5.5C9.9377441,5.5012207,9.9370728,5.5024414,9.9363403,5.5036621c-0.1370239,0.239563-0.0539551,0.5447998,0.1855469,0.6818848C10.3613892,6.3225708,10.666687,6.239502,10.8037109,6c0.5266113-0.9118652,1.2838135-1.6691284,2.1956787-2.1956787C15.8695068,2.1468506,19.5397949,3.1298828,21.1972656,6c0.0891113,0.1547241,0.2540894,0.250061,0.4326172,0.25c0.0874023-0.0001221,0.1732788-0.0231934,0.2490234-0.0668335C22.1182861,6.0452271,22.2004395,5.7393188,22.0625,5.5z M18.0009766,14h-1.5986328v-3.4990234c0-0.276123-0.223877-0.5-0.5-0.5s-0.5,0.223877-0.5,0.5V14H5.0009766c-1.6560669,0.0018311-2.9981689,1.3438721-3,3v2c0.0018311,1.6561279,1.3439331,2.9981689,3,3h13c1.6561279-0.0018311,2.99823-1.3438721,3-3v-2C20.9992065,15.3438721,19.6571045,14.0018311,18.0009766,14z M20.0009766,19c-0.0014038,1.1040039-0.8959961,1.9985962-2,2h-13c-1.1039429-0.0014038-1.9985352-0.8959961-2-2v-2c0.0014648-1.1040039,0.8960571-1.9985962,2-2h10.8964844c0.001709,0,0.0031738,0.0009766,0.0048828,0.0009766h0.0005493C15.9046021,15.0009766,15.9060059,15,15.9077148,15h2.0932617c1.1040039,0.0014038,1.9985962,0.8959961,2,2V19z M14.2675781,8c0.1755371-0.303894,0.4279175-0.5562744,0.7318115-0.7317505C15.9561768,6.7155762,17.1798096,7.0432129,17.7324219,8c0.0892944,0.154541,0.2540894,0.2498169,0.4325562,0.25h0.000061c0.0874634-0.0001221,0.1733398-0.0231934,0.2490845-0.0668335C18.6534424,8.0452271,18.7355957,7.7393188,18.5976562,7.5c-0.2633057-0.4562378-0.6421509-0.835083-1.0983887-1.0983887C16.0646362,5.5736084,14.2303467,6.0653687,13.4023438,7.5c-0.1380615,0.2389526-0.0563354,0.5445557,0.1826172,0.6826172S14.1295166,8.2389526,14.2675781,8z"/></svg>