<svg xmlns="http://www.w3.org/2000/svg" enable-background="new 0 0 24 24" viewBox="0 0 24 24"><path fill="#6563ff" d="M5.5,4C4.6715698,4,4,4.6715698,4,5.5S4.6715698,7,5.5,7C6.328064,6.9990845,6.9990845,6.328064,7,5.5C7,4.6715698,6.3284302,4,5.5,4z M5.5,6C5.223877,6,5,5.776123,5,5.5S5.223877,5,5.5,5C5.776001,5.0003662,5.9996338,5.223999,6,5.5C6,5.776123,5.776123,6,5.5,6z M9.5,4C8.6715698,4,8,4.6715698,8,5.5S8.6715698,7,9.5,7c0.828064-0.0009155,1.4990845-0.671936,1.5-1.5C11,4.6715698,10.3284302,4,9.5,4z M9.5,6C9.223877,6,9,5.776123,9,5.5S9.223877,5,9.5,5C9.776001,5.0003662,9.9996338,5.223999,10,5.5C10,5.776123,9.776123,6,9.5,6z M20,1H4C2.3438721,1.0018311,1.0018311,2.3438721,1,4v16c0.0018311,1.6561279,1.3438721,2.9981689,3,3h16c1.6561279-0.0018311,2.9981689-1.3438721,3-3V4C22.9981689,2.3438721,21.6561279,1.0018311,20,1z M22,20c-0.0014038,1.1040039-0.8959961,1.9985962-2,2H4c-1.1040649-0.0012817-1.9987183-0.8959351-2-2V10h20V20z M22,9H2V4c0.0012817-1.1040649,0.8959351-1.9987183,2-2h16c1.1040039,0.0014038,1.9985962,0.8959961,2,2V9z M13.5,4C12.6715698,4,12,4.6715698,12,5.5S12.6715698,7,13.5,7c0.828064-0.0009155,1.4990845-0.671936,1.5-1.5C15,4.6715698,14.3284302,4,13.5,4z M13.5,6C13.223877,6,13,5.776123,13,5.5S13.223877,5,13.5,5c0.2759399,0.0005493,0.4994507,0.2240601,0.5,0.5C14,5.776123,13.776123,6,13.5,6z"/></svg>