<svg xmlns="http://www.w3.org/2000/svg" enable-background="new 0 0 24 24" viewBox="0 0 24 24"><path fill="#6563ff" d="M14.5,8.125c0.3451538,0,0.625-0.2798462,0.625-0.625S14.8451538,6.875,14.5,6.875S13.875,7.1548462,13.875,7.5S14.1548462,8.125,14.5,8.125z M4.5,17.875c-0.3451538,0-0.625,0.2798462-0.625,0.625s0.2798462,0.625,0.625,0.625s0.625-0.2798462,0.625-0.625S4.8451538,17.875,4.5,17.875z M17.5,8h3c1.380188-0.0012817,2.4987183-1.119812,2.5-2.5C23,5.223877,22.776123,5,22.5,5S22,5.223877,22,5.5c-0.0009155,0.828064-0.671936,1.4990845-1.5,1.5h-3C17.223877,7,17,7.223877,17,7.5S17.223877,8,17.5,8z M20.5,15h-3.7015991c1.1351318-1.1890259,1.871521-2.7022095,2.1068726-4.3291016c0.0244751-0.1712646-0.0412598-0.3429565-0.1738281-0.4541016c-0.132019-0.1123047-0.3132935-0.1470947-0.4775391-0.0917969C17.5272827,10.3688965,16.7664795,10.4954834,16,10.5c-3.8640747-0.0046997-6.9953003-3.1359253-7-7c0.0054321-0.3452759,0.0338135-0.6897583,0.085022-1.03125c0.0379028-0.2734985-0.1530151-0.5259399-0.4265137-0.5639038C8.5812378,1.894104,8.5025635,1.9016113,8.428772,1.9267578C5.1853027,3.0297852,3.0030518,6.0741577,3,9.5c-0.007019,2.0518188,0.7873535,4.0252686,2.2139282,5.5H2.5C2.223877,15,2,15.223877,2,15.5S2.223877,16,2.5,16h6C8.776123,16,9,15.776123,9,15.5S8.776123,15,8.5,15H6.6991577C4.9885864,13.6898193,3.9898071,11.6546021,4,9.5c0.0020142-2.7058105,1.5627441-5.168335,4.0087891-6.3251953C8.0029297,3.28125,8,3.390625,8,3.5c0.0050659,4.4161987,3.5838013,7.9949341,8,8c0.5919189-0.0013428,1.1818237-0.0688477,1.7587891-0.2011719C17.3702393,12.7670898,16.5106812,14.0672607,15.3120117,15H11.5c-0.276123,0-0.5,0.223877-0.5,0.5s0.223877,0.5,0.5,0.5h9c0.8284302,0,1.5,0.6715698,1.5,1.5S21.3284302,19,20.5,19c-0.276123,0-0.5,0.223877-0.5,0.5s0.223877,0.5,0.5,0.5c1.3807373,0,2.5-1.1192627,2.5-2.5S21.8807373,15,20.5,15z M12.5,18h-5C7.223877,18,7,18.223877,7,18.5S7.223877,19,7.5,19h5c0.828064,0.0009155,1.4990845,0.671936,1.5,1.5c0,0.276123,0.223877,0.5,0.5,0.5s0.5-0.223877,0.5-0.5C14.9987183,19.119812,13.880188,18.0012817,12.5,18z"/></svg>