<svg xmlns="http://www.w3.org/2000/svg" enable-background="new 0 0 24 24" viewBox="0 0 24 24"><path fill="#6563ff" d="M5.3427734,6.5498047C5.539978,6.743042,5.8565063,6.7398682,6.0497437,6.5426636c0.1905518-0.194397,0.1905518-0.5054932,0-0.6998901L4.6357422,4.4287109C4.4385376,4.2354736,4.1220093,4.2386475,3.9287109,4.4358521c-0.1904907,0.194397-0.1904907,0.5054932,0,0.6998291L5.3427734,6.5498047z M10.9994507,4.5c0.0001831,0,0.0003662,0,0.0005493,0c0.276001,0.0001831,0.4998169-0.2234497,0.5-0.4993896c0-0.0002441,0-0.0004272,0-0.0006104V2c0-0.276123-0.223877-0.5-0.5-0.5S10.5,1.723877,10.5,2v2C10.4998169,4.276001,10.7234497,4.4998169,10.9994507,4.5z M13,12.4993896c0,0.0002441,0,0.0004272,0,0.0006104c-0.0001831,0.276001,0.2234497,0.4998169,0.4994507,0.5c0.0001831,0,0.0003662,0,0.0005493,0h5c1.380188-0.0012817,2.4987183-1.119812,2.5-2.5c0-0.276123-0.223877-0.5-0.5-0.5S20,10.223877,20,10.5c-0.0009155,0.828064-0.671936,1.4990845-1.5,1.5h-5C13.223999,11.9998169,13.0001831,12.2234497,13,12.4993896z M4,11.5005493C4,11.5003662,4,11.5001831,4,11.5c0.0001831-0.276001-0.2234497-0.4998169-0.4993896-0.5C3.5003662,11,3.5001831,11,3.5,11h-2C1.223877,11,1,11.223877,1,11.5S1.223877,12,1.5,12h2C3.776001,12.0001831,3.9998169,11.7765503,4,11.5005493z M16.3037109,6.6962891c0.1326294,0.0001831,0.2598877-0.0525513,0.3535156-0.1464844l1.4140625-1.4140625c0.1972046-0.1932983,0.2003784-0.5098267,0.0070801-0.7070312c-0.1932373-0.1971436-0.5097656-0.2003174-0.7069702-0.0070801c-0.0023804,0.0023804-0.0047607,0.0046997-0.0070801,0.0070801l-1.4141235,1.4140625c-0.1952515,0.1952515-0.1951904,0.5118408,0.000061,0.7070923C16.0440063,6.6436157,16.1711426,6.6962891,16.3037109,6.6962891z M15.5,18h-2c-0.276123,0-0.5,0.223877-0.5,0.5s0.223877,0.5,0.5,0.5h2c0.828064,0.0009155,1.4990845,0.671936,1.5,1.5c0,0.276123,0.223877,0.5,0.5,0.5s0.5-0.223877,0.5-0.5C17.9987183,19.119812,16.880188,18.0012817,15.5,18z M20.5,15H14c-0.276123,0-0.5,0.223877-0.5,0.5S13.723877,16,14,16h6.5c0.8284302,0,1.5,0.6715698,1.5,1.5S21.3284302,19,20.5,19c-0.276123,0-0.5,0.223877-0.5,0.5s0.223877,0.5,0.5,0.5c1.3807373,0,2.5-1.1192627,2.5-2.5S21.8807373,15,20.5,15z M11,16c-2.4852905-0.0039673-4.4968262-2.0218506-4.4928589-4.5071411S8.5289917,6.9960938,11.0142822,7c1.7879028,0.0028687,3.4046021,1.0639038,4.1185303,2.703125c0.112793,0.2521362,0.4085693,0.3651123,0.6607666,0.2523804c0.2512817-0.1124268,0.364502-0.4067993,0.2532959-0.6586304c-1.2151489-2.7857056-4.4584351-4.0588989-7.2441406-2.84375s-4.0588989,4.4584351-2.84375,7.2441406C6.8335571,15.7022095,8.812561,16.9988403,11,17c0.276123,0,0.5-0.223877,0.5-0.5S11.276123,16,11,16z M11.0006104,18.5c-0.0002441,0-0.0004272,0-0.0006104,0c-0.276001-0.0001831-0.4998169,0.2234497-0.5,0.4993896c0,0.0002441,0,0.0004272,0,0.0006104v2c0,0.276123,0.223877,0.5,0.5,0.5s0.5-0.223877,0.5-0.5v-2C11.5001831,18.723999,11.2765503,18.5001831,11.0006104,18.5z M5.3499146,16.4431152c-0.0023804,0.0023193-0.0047607,0.0046997-0.0071411,0.0071411v-0.000061l-1.4140625,1.4140625c-0.1972046,0.1932983-0.2003784,0.5098267-0.0071411,0.7070312c0.1932983,0.1971436,0.5098267,0.2003784,0.7070312,0.0070801c0.0023804-0.0023193,0.0047607-0.0046997,0.0070801-0.0070801l1.4141235-1.4140625c0.1972046-0.1932373,0.2003784-0.5098267,0.0071411-0.7069702C5.8636475,16.2530518,5.5471191,16.2498169,5.3499146,16.4431152z"/></svg>