<svg xmlns="http://www.w3.org/2000/svg" enable-background="new 0 0 24 24" viewBox="0 0 24 24"><path fill="#6563ff" d="M6.5,9H14c0.5267334,0,1.0441895-0.1386108,1.5003052-0.4020386C16.9350586,7.7694702,17.4265137,5.9346924,16.5979614,4.5C15.7694702,3.0652466,13.9347534,2.5738525,12.5,3.4023438c-0.2389526,0.1380615-0.3206787,0.4436646-0.1826172,0.6826172S12.7610474,4.4056396,13,4.2675781C13.3037109,4.0924072,13.6481323,4.0001221,13.9987183,4c1.1045532-0.0003662,2.0003052,0.8947754,2.0006714,1.9993896C15.9996948,7.1039429,15.1045532,7.9996338,14,8H6.5C6.223877,8,6,8.223877,6,8.5S6.223877,9,6.5,9z M3.5,9C3.776123,9,4,8.776123,4,8.5S3.776123,8,3.5,8S3,8.223877,3,8.5S3.223877,9,3.5,9z M2.5,12h8c0.276123,0,0.5-0.223877,0.5-0.5S10.776123,11,10.5,11h-8C2.223877,11,2,11.223877,2,11.5S2.223877,12,2.5,12z M19.5,9C19.776123,9,20,8.776123,20,8.5S19.776123,8,19.5,8S19,8.223877,19,8.5S19.223877,9,19.5,9z M18,11h-4.5c-0.276123,0-0.5,0.223877-0.5,0.5s0.223877,0.5,0.5,0.5H18c0.3510132,0,0.6958008,0.0924072,0.9997559,0.2678833C19.9564819,12.8200684,20.2843628,14.043335,19.7321777,15C19.1799316,15.9567261,17.9567261,16.284668,17,15.7324219c-0.2389526-0.1380615-0.5445557-0.0563354-0.6826172,0.1826172S16.2610474,16.4595947,16.5,16.5976562C16.9558716,16.8614502,17.4733276,17.0002441,18,17c1.6568604,0,3-1.3431396,3-3S19.6568604,11,18,11z M12,15H7.5C7.223877,15,7,15.223877,7,15.5S7.223877,16,7.5,16H12c0.3510132,0,0.6958008,0.0924072,0.9997559,0.2678833C13.9564819,16.8200684,14.2843628,18.043335,13.7321777,19C13.1799316,19.9567261,11.9567261,20.284668,11,19.7324219c-0.2389526-0.1380615-0.5445557-0.0563354-0.6826172,0.1826172S10.2610474,20.4595947,10.5,20.5976562C10.9558716,20.8614502,11.4733276,21.0002441,12,21c1.6568604,0,3-1.3431396,3-3S13.6568604,15,12,15z M4.5,15h-2C2.223877,15,2,15.223877,2,15.5S2.223877,16,2.5,16h2C4.776123,16,5,15.776123,5,15.5S4.776123,15,4.5,15z"/></svg>