<svg xmlns="http://www.w3.org/2000/svg" enable-background="new 0 0 24 24" viewBox="0 0 24 24"><path fill="#6563ff" d="M18.5430298,5.1270142L6,4.0415649V2.5C6,2.223877,5.776123,2,5.5,2S5,2.223877,5,2.5v2v9v8c0,0.0001831,0,0.0003662,0,0.0005493C5.0001831,21.7765503,5.223999,22.0001831,5.5,22c0.0001831,0,0.0003662,0,0.0006104,0C5.7765503,21.9998169,6.0001831,21.776001,6,21.5v-7.5415649l12.5430298-1.0854492C18.8015747,12.8508911,19.0001221,12.6344604,19,12.375v-6.75C19.0001221,5.3654785,18.8015747,5.1491089,18.5430298,5.1270142z M8,12.7819214l-2,0.1731567V5.0449219l2,0.1731567V12.7819214z M11.5,12.4788208L9,12.6953125v-7.390625l2.5,0.2164917V12.4788208z M15,12.1757812l-2.5,0.2164917V5.6077271L15,5.8242188V12.1757812z M18,11.9160156l-2,0.1731567V5.9108276l2,0.1731567V11.9160156z"/></svg>