<svg xmlns="http://www.w3.org/2000/svg" enable-background="new 0 0 24 24" viewBox="0 0 24 24"><path fill="#6563ff" d="M21.8,16.1l-4.9-4.9c0.4-1.6,0.2-3.2-0.5-4.7C14.7,2.7,10.3,1,6.5,2.7c-0.1,0-0.1,0.1-0.1,0.1C6.2,3,6.2,3.3,6.4,3.5l5.1,5.1l-2.8,2.8l-5.2-5L3.4,6.3c-0.3-0.1-0.5,0-0.7,0.3C2.1,8,1.9,9.7,2.3,11.2c0.9,4,4.9,6.6,9,5.6l4.9,4.9c0.1,0.1,0.2,0.1,0.4,0.1c0.1,0,0.3-0.1,0.4-0.1c0.2-0.2,0.2-0.5,0-0.7l-5.3-5c-0.1-0.1-0.3-0.2-0.5-0.1c-1.2,0.3-2.5,0.3-3.6-0.1C4.2,14.7,2.3,11,3.4,7.6l5,5c0.2,0.2,0.5,0.2,0.7,0L12.6,9c0.2-0.2,0.2-0.5,0-0.7l-5-5c1.2-0.3,2.5-0.3,3.7,0c3.5,0.9,5.5,4.5,4.6,8c0,0.2,0,0.4,0.1,0.5l5.1,5.1c0.2,0.2,0.5,0.2,0.7,0C22,16.6,22,16.3,21.8,16.1z"/></svg>