<svg xmlns="http://www.w3.org/2000/svg" enable-background="new 0 0 24 24" viewBox="0 0 24 24"><path fill="#6563ff" d="M12.7,11l2.6-2.6c0.2-0.2,0.2-0.5,0-0.7c-0.2-0.2-0.5-0.2-0.7,0L12,10.3L9.4,7.6c-0.2-0.2-0.5-0.2-0.7,0c-0.2,0.2-0.2,0.5,0,0.7l2.6,2.6l-2.6,2.6c-0.1,0.1-0.1,0.2-0.1,0.4c0,0.3,0.2,0.5,0.5,0.5c0.1,0,0.3-0.1,0.4-0.1l2.6-2.6l2.6,2.6c0.1,0.1,0.2,0.1,0.4,0.1c0.1,0,0.3-0.1,0.4-0.1c0.2-0.2,0.2-0.5,0-0.7L12.7,11z M8.5,19H8c-2.2,0-4-1.8-4-4V7c0-2.2,1.8-4,4-4h0.5C8.8,3,9,2.8,9,2.5S8.8,2,8.5,2H8C5.2,2,3,4.2,3,7v8c0,2.8,2.2,5,5,5h0.5C8.8,20,9,19.8,9,19.5S8.8,19,8.5,19z M20,7v6.5c0,0,0,0,0,0c0,0.3,0.2,0.5,0.5,0.5c0,0,0,0,0,0c0.3,0,0.5-0.2,0.5-0.5V7c0-2.8-2.2-5-5-5h-0.5C15.2,2,15,2.2,15,2.5S15.2,3,15.5,3H16C18.2,3,20,4.8,20,7z M22.5,19H21v-1.5c0-0.3-0.2-0.5-0.5-0.5S20,17.2,20,17.5V19h-1.5c-0.3,0-0.5,0.2-0.5,0.5s0.2,0.5,0.5,0.5H20v1.5c0,0,0,0,0,0c0,0.3,0.2,0.5,0.5,0.5c0,0,0,0,0,0c0.3,0,0.5-0.2,0.5-0.5V20h1.5c0.3,0,0.5-0.2,0.5-0.5S22.8,19,22.5,19z"/></svg>