<svg xmlns="http://www.w3.org/2000/svg" enable-background="new 0 0 24 24" viewBox="0 0 24 24"><path fill="#6563ff" d="M15.4,15.4c0.2-0.2,0.2-0.5,0-0.7L12.7,12l2.6-2.6c0.2-0.2,0.2-0.5,0-0.7c-0.2-0.2-0.5-0.2-0.7,0L12,11.3L9.4,8.6c-0.2-0.2-0.5-0.2-0.7,0c-0.2,0.2-0.2,0.5,0,0.7l2.6,2.6l-2.6,2.6c-0.1,0.1-0.1,0.2-0.1,0.4c0,0.3,0.2,0.5,0.5,0.5c0.1,0,0.3-0.1,0.4-0.1l2.6-2.6l2.6,2.6c0.1,0.1,0.2,0.1,0.4,0.1C15.1,15.5,15.3,15.4,15.4,15.4z M8.5,20H8c-2.2,0-4-1.8-4-4V8c0-2.2,1.8-4,4-4h0.5C8.8,4,9,3.8,9,3.5S8.8,3,8.5,3H8C5.2,3,3,5.2,3,8v8c0,2.8,2.2,5,5,5h0.5C8.8,21,9,20.8,9,20.5S8.8,20,8.5,20z M16,3h-0.5C15.2,3,15,3.2,15,3.5S15.2,4,15.5,4H16c2.2,0,4,1.8,4,4v8c0,2.2-1.8,4-4,4h-0.5c-0.3,0-0.5,0.2-0.5,0.5s0.2,0.5,0.5,0.5H16c2.8,0,5-2.2,5-5V8C21,5.2,18.8,3,16,3z"/></svg>