<svg xmlns="http://www.w3.org/2000/svg" enable-background="new 0 0 24 24" viewBox="0 0 24 24"><path fill="#6563ff" d="M15.9429321,6.5768433c-0.2313232-0.1508179-0.5411377-0.0855103-0.6919556,0.145813l-3.0003052,4.5h-0.5013428l-3.0003052-4.5c-0.0018921-0.0028687-0.0037842-0.0057373-0.0057373-0.008606C8.5877075,6.4859009,8.2766724,6.427002,8.0485229,6.5825806C7.8203125,6.7380981,7.7614746,7.0491943,7.9169922,7.2773438l2.6304321,3.9453125H9c-0.276123,0-0.5,0.223877-0.5,0.5s0.223877,0.5,0.5,0.5h2.2141724L11.5,12.6513672v1.5712891H9c-0.276123,0-0.5,0.223877-0.5,0.5s0.223877,0.5,0.5,0.5h2.5v2.7778931C11.5001831,18.2765503,11.723999,18.5001831,12,18.5h0.0006104C12.2765503,18.4998169,12.5001831,18.276001,12.5,18v-2.7773438H15c0.276123,0,0.5-0.223877,0.5-0.5s-0.223877-0.5-0.5-0.5h-2.5v-1.5713501l0.2858276-0.4286499H15c0.276123,0,0.5-0.223877,0.5-0.5s-0.223877-0.5-0.5-0.5h-1.5474854l2.6304932-3.9453735c0.0018921-0.0028076,0.0037842-0.0056152,0.0056763-0.0084839C16.239502,7.0374756,16.1742554,6.7276611,15.9429321,6.5768433z M12,1C5.9248657,1,1,5.9248657,1,12s4.9248657,11,11,11c6.0722656-0.0068359,10.9931641-4.9277344,11-11C23,5.9248657,18.0751343,1,12,1z M12,22C6.4771729,22,2,17.5228271,2,12S6.4771729,2,12,2c5.5201416,0.0064697,9.9935303,4.4798584,10,10C22,17.5228271,17.5228271,22,12,22z"/></svg>