<svg xmlns="http://www.w3.org/2000/svg" enable-background="new 0 0 24 24" viewBox="0 0 24 24"><path fill="#6563ff" d="M18.2759399,2.5768433c-0.2313232-0.1508179-0.5411377-0.0855103-0.6919556,0.145813L12,11.0986328L6.4160156,2.7226562c-0.0018921-0.0028687-0.0037842-0.0057373-0.0057373-0.008606C6.2546997,2.4859009,5.9436646,2.427002,5.7155151,2.5825806C5.4873047,2.7380981,5.4284668,3.0491943,5.5839844,3.2773438L11.0657349,11.5H7c-0.276123,0-0.5,0.223877-0.5,0.5s0.223877,0.5,0.5,0.5h4.5v3H7c-0.276123,0-0.5,0.223877-0.5,0.5s0.223877,0.5,0.5,0.5h4.5v4.5005493C11.5001831,21.2765503,11.723999,21.5001831,12,21.5h0.0006104C12.2765503,21.4998169,12.5001831,21.276001,12.5,21v-4.5H17c0.276123,0,0.5-0.223877,0.5-0.5s-0.223877-0.5-0.5-0.5h-4.5v-3H17c0.276123,0,0.5-0.223877,0.5-0.5s-0.223877-0.5-0.5-0.5h-4.0657959l5.4818115-8.2227173c0.0018921-0.0028076,0.0037842-0.0056152,0.0056763-0.0084839C18.5725098,3.0374756,18.5072632,2.7276611,18.2759399,2.5768433z"/></svg>