<svg xmlns="http://www.w3.org/2000/svg" enable-background="new 0 0 24 24" viewBox="0 0 24 24"><path fill="#6563ff" d="M12,2C6.4771729,2,2,6.4771729,2,12s4.4771729,10,10,10s10-4.4771729,10-10C21.9935303,6.4798584,17.5201416,2.0064697,12,2z M12,21c-4.9671021,0.003418-8.996521-4.0203857-8.999939-8.9875488c-0.0023804-3.387146,1.8985596-6.4884033,4.9179688-8.0233765C7.1673584,4.9102173,6.755127,6.060791,6.75,7.2490234c0.0039062,2.8899536,2.3405762,5.2344971,5.2305298,5.2480469C11.9873657,12.4973755,11.993103,12.5009766,12,12.5009766c2.3469238,0,4.2495117,1.9025879,4.2495117,4.2495117S14.3469238,21,12,21z M16.0820312,20.0108643C16.8326416,19.0897827,17.244873,17.939209,17.25,16.7509766c-0.0039062-2.8899536-2.3405762-5.234436-5.2305298-5.2479858C12.0126343,11.5026245,12.006897,11.4990234,12,11.4990234c-2.3469238,0.0050659-4.2536621-1.8933105-4.2587891-4.2402344C7.736145,4.9118042,9.6345215,3.005127,11.9814453,3H12c4.9671021-0.003479,8.996521,4.0203247,9,8.9873657C21.0023804,15.3745728,19.1014404,18.4758911,16.0820312,20.0108643z M12,15c-0.8284302,0-1.5,0.6715698-1.5,1.5S11.1715698,18,12,18s1.5-0.6715698,1.5-1.5C13.4990845,15.671936,12.828064,15.0009155,12,15z M12,17c-0.276123,0-0.5-0.223877-0.5-0.5S11.723877,16,12,16s0.5,0.223877,0.5,0.5C12.4994507,16.7759399,12.2759399,16.9994507,12,17z M12,6c-0.8284302,0-1.5,0.6715698-1.5,1.5S11.1715698,9,12,9s1.5-0.6715698,1.5-1.5C13.4990845,6.671936,12.828064,6.0009155,12,6z M12,8c-0.276123,0-0.5-0.223877-0.5-0.5S11.723877,7,12,7s0.5,0.223877,0.5,0.5C12.4994507,7.7759399,12.2759399,7.9994507,12,8z"/></svg>